<svg xmlns="http://www.w3.org/2000/svg" width="500" height="100" viewBox="0 0 500 100"><defs><style>.cls-1{fill:#f6f6f6;}.cls-2{fill:#009245;}.cls-3{fill:#2a7631;}.cls-4{fill:#066938;}.cls-5{fill:#faccab;}.cls-6{fill:#ffdd5f;}.cls-7{fill:#ef7a8a;}.cls-8{fill:#f7baab;}.cls-9{fill:#041015;}.cls-10{fill:#ef7b8b;}.cls-11{fill:#fff;}.cls-12{fill:#08111d;}.cls-13,.cls-14,.cls-15{fill:none;}.cls-13{stroke:#fff;}.cls-13,.cls-14{stroke-linecap:round;stroke-miterlimit:10;}.cls-14{stroke:#f7ef8b;}.cls-16{font-size:12px;fill:#1d1d1b;font-family:MyriadPro-Regular, Myriad Pro;}</style></defs><title>Artboard 10</title><g id="Layer_5" data-name="Layer 5"><path class="cls-1" d="M87.82,49.38A39,39,0,0,1,66.59,84.33c-.72.36-1.45.7-2.19,1a37,37,0,0,1-28.8,0L35,85.09A38.93,38.93,0,0,1,12.18,49.38C12.18,27.91,29.11,10.5,50,10.5S87.82,27.91,87.82,49.38Z"/><path class="cls-2" d="M66.59,84.28c-.72.36-1.45.7-2.19,1a37,37,0,0,1-28.8,0L35,85c0-.22,0-.45,0-.68a16.5,16.5,0,0,1,.91-5.44,16.48,16.48,0,0,1,1-2.39A16.28,16.28,0,0,1,39.6,73a15.7,15.7,0,0,1,7.22-4.26,16.38,16.38,0,0,1,1.61-.34h0a15.37,15.37,0,0,1,2.37-.18,17.16,17.16,0,0,1,2.16.15h0A15.69,15.69,0,0,1,62,73a16.21,16.21,0,0,1,3.67,6,15.75,15.75,0,0,1,.81,3.59A17.16,17.16,0,0,1,66.59,84.28Z"/><rect class="cls-3" x="38.7" y="64.37" width="24.04" height="11.81" rx="5.2"/><path class="cls-4" d="M52.46,73.82h0a4.62,4.62,0,0,1-4.61-.21l-5.56-4.14c-1.18-.88-1-2.21.34-3h0a4.62,4.62,0,0,1,4.61.22l5.56,4.13C54,71.73,53.83,73.06,52.46,73.82Z"/><path class="cls-4" d="M48.38,73.71h0a1.64,1.64,0,0,1,0-3l6-3.87a4.66,4.66,0,0,1,4.63,0h0a1.64,1.64,0,0,1,0,3l-6,3.87A4.66,4.66,0,0,1,48.38,73.71Z"/><rect class="cls-5" x="46.55" y="62.25" width="8.09" height="12.21" rx="3.56"/><path class="cls-6" d="M66.19,43.34a9.07,9.07,0,0,1-1.59,5.14,10.17,10.17,0,0,1-1.07,1.29,9.1,9.1,0,0,1-6.43,2.66H43.17a9.09,9.09,0,0,1-6.69-15.25l.26-.27a9,9,0,0,1,3.16-2,6.09,6.09,0,0,0,2.56.59H54.58a6,6,0,0,0,2.47-.53,6.2,6.2,0,0,0,1.06-.61,9.09,9.09,0,0,1,8.08,9Z"/><ellipse class="cls-5" cx="36.1" cy="51.51" rx="2.82" ry="2.74"/><ellipse class="cls-7" cx="36.09" cy="51.53" rx="1.54" ry="1.53"/><ellipse class="cls-5" cx="64.63" cy="51.51" rx="2.82" ry="2.74"/><ellipse class="cls-7" cx="64.62" cy="51.53" rx="1.54" ry="1.53"/><path class="cls-5" d="M64.6,47.58V53.9a14.4,14.4,0,1,1-28.79,0V47.58a14.2,14.2,0,0,1,1.79-6.95,14.38,14.38,0,0,1,4.86-5.18H54.58a6,6,0,0,0,2.47-.53,14,14,0,0,1,3.33,2.49A14.34,14.34,0,0,1,64.6,47.58Z"/><rect class="cls-8" x="49.01" y="50.79" width="2.96" height="4.51" rx="1.3"/><path class="cls-9" d="M56.77,57.92c0,.11,0,.21,0,.31a.92.92,0,0,0,0,.16s0,.1,0,.15l-.06.38c0,.06,0,.13-.05.19a1.21,1.21,0,0,1,0,.18A5.34,5.34,0,0,1,55,61.79a5.72,5.72,0,0,1-.88.65,3.79,3.79,0,0,1-.34.2,7,7,0,0,1-6.58-.09l-.27-.16a7,7,0,0,1-.7-.52,5.37,5.37,0,0,1-1.7-2.58c0-.06,0-.12-.05-.18a1.29,1.29,0,0,1,0-.19,1.29,1.29,0,0,1,0-.19l0-.19h0c0-.2,0-.41,0-.62a5.46,5.46,0,0,1,0-.57h12.4A3.64,3.64,0,0,1,56.77,57.92Z"/><path class="cls-10" d="M54.08,62.44a3.79,3.79,0,0,1-.34.2,7,7,0,0,1-6.58-.09l-.27-.16a4.09,4.09,0,0,1,7.19,0Z"/><path class="cls-11" d="M56.77,57.92c0,.21,0,.42,0,.62a4.54,4.54,0,0,1-.16.75H44.49a5.85,5.85,0,0,1-.16-.75c0-.2,0-.41,0-.62a5.46,5.46,0,0,1,0-.57h12.4A3.64,3.64,0,0,1,56.77,57.92Z"/><circle class="cls-12" cx="42.27" cy="51.01" r="1.16"/><circle class="cls-12" cx="57.93" cy="51.01" r="1.16"/><path class="cls-6" d="M67,36.71a7.32,7.32,0,0,1-1.19,4,7.07,7.07,0,0,1-1,1.2,7.26,7.26,0,0,1-5.21,2.16H43.83a7.37,7.37,0,0,1-7.35-6.89l.26-.27a9,9,0,0,1,3.16-2,6.09,6.09,0,0,0,2.56.59H54.58a6,6,0,0,0,2.47-.53,6.2,6.2,0,0,0,1.06-.61,6.32,6.32,0,0,0,.74-.63,6,6,0,0,0,1.77-4.27A7.37,7.37,0,0,1,67,36.71Z"/><path class="cls-6" d="M57.05,34.92a6,6,0,0,1-2.47.53H42.46a14,14,0,0,1,2.31-1.2H55.64A15.12,15.12,0,0,1,57.05,34.92Z"/><path class="cls-6" d="M44.77,34.25a14,14,0,0,0-2.31,1.2h0a6.09,6.09,0,0,1-2.56-.59,8.84,8.84,0,0,1,3.27-.61Z"/><path class="cls-6" d="M58.11,34.31a6.2,6.2,0,0,1-1.06.61,15.12,15.12,0,0,0-1.41-.67H57.1A8.43,8.43,0,0,1,58.11,34.31Z"/><rect class="cls-6" x="38.46" y="45.8" width="7.03" height="2.93" rx="1.31" transform="translate(-3.63 3.5) rotate(-4.57)"/><rect class="cls-6" x="56.96" y="43.74" width="2.93" height="7.03" rx="1.31" transform="matrix(0.08, -1, 1, 0.08, 6.66, 101.73)"/><line class="cls-13" x1="46.55" y1="74.46" x2="46.55" y2="86.79"/><line class="cls-13" x1="55.27" y1="74.46" x2="55.27" y2="86.79"/><path class="cls-14" d="M65.25,35.7a6.87,6.87,0,0,1-1.11,3.74,6.47,6.47,0,0,1-.91,1.12,7.74,7.74,0,0,1-1,.82,6.88,6.88,0,0,1-3.88,1.2"/><rect class="cls-15" width="100" height="100"/><path class="cls-1" d="M187.82,49.38a39,39,0,0,1-21.23,34.95c-.72.36-1.45.7-2.19,1a37,37,0,0,1-28.8,0l-.58-.25a38.93,38.93,0,0,1-22.84-35.71c0-21.47,16.93-38.88,37.82-38.88S187.82,27.91,187.82,49.38Z"/><path class="cls-2" d="M166.59,84.28c-.72.36-1.45.7-2.19,1a37,37,0,0,1-28.8,0L135,85c0-.22,0-.45,0-.68a16.5,16.5,0,0,1,.91-5.44A16.48,16.48,0,0,1,137,76.53,16.28,16.28,0,0,1,139.6,73a15.7,15.7,0,0,1,7.22-4.26,16.38,16.38,0,0,1,1.61-.34h0a15.37,15.37,0,0,1,2.37-.18,17.16,17.16,0,0,1,2.16.15h0A15.69,15.69,0,0,1,162,73a16.21,16.21,0,0,1,3.67,6,15.75,15.75,0,0,1,.81,3.59A17.16,17.16,0,0,1,166.59,84.28Z"/><rect class="cls-3" x="138.7" y="64.37" width="24.04" height="11.81" rx="5.2"/><path class="cls-4" d="M152.46,73.82h0a4.62,4.62,0,0,1-4.61-.21l-5.56-4.14c-1.18-.88-1-2.21.34-3h0a4.62,4.62,0,0,1,4.61.22l5.56,4.13C154,71.73,153.83,73.06,152.46,73.82Z"/><path class="cls-4" d="M148.38,73.71h0a1.64,1.64,0,0,1,0-3l6-3.87a4.66,4.66,0,0,1,4.63,0h0a1.64,1.64,0,0,1,0,3l-6,3.87A4.66,4.66,0,0,1,148.38,73.71Z"/><rect class="cls-5" x="146.55" y="62.25" width="8.09" height="12.21" rx="3.56"/><path class="cls-6" d="M166.19,43.34a9.07,9.07,0,0,1-1.59,5.14,10.17,10.17,0,0,1-1.07,1.29,9.1,9.1,0,0,1-6.43,2.66H143.17a9.09,9.09,0,0,1-6.69-15.25l.26-.27a9,9,0,0,1,3.16-2,6.09,6.09,0,0,0,2.56.59h12.12a6,6,0,0,0,2.47-.53,6.2,6.2,0,0,0,1.06-.61,9.09,9.09,0,0,1,8.08,9Z"/><ellipse class="cls-5" cx="136.1" cy="51.51" rx="2.82" ry="2.74"/><ellipse class="cls-7" cx="136.09" cy="51.53" rx="1.54" ry="1.53"/><ellipse class="cls-5" cx="164.63" cy="51.51" rx="2.82" ry="2.74"/><ellipse class="cls-7" cx="164.62" cy="51.53" rx="1.54" ry="1.53"/><path class="cls-5" d="M164.6,47.58V53.9a14.4,14.4,0,1,1-28.79,0V47.58a14.2,14.2,0,0,1,1.79-6.95,14.38,14.38,0,0,1,4.86-5.18h12.12a6,6,0,0,0,2.47-.53,14,14,0,0,1,3.33,2.49,14.34,14.34,0,0,1,4.22,10.17Z"/><rect class="cls-8" x="149.01" y="50.79" width="2.96" height="4.51" rx="1.3"/><path class="cls-9" d="M156.77,57.92c0,.11,0,.21,0,.31a.92.92,0,0,0,0,.16s0,.1,0,.15l-.06.38c0,.06,0,.13,0,.19a1.21,1.21,0,0,1-.05.18,5.34,5.34,0,0,1-1.61,2.5,5.72,5.72,0,0,1-.88.65,3.79,3.79,0,0,1-.34.2,7,7,0,0,1-6.58-.09l-.27-.16a7,7,0,0,1-.7-.52,5.37,5.37,0,0,1-1.7-2.58c0-.06,0-.12-.05-.18a14268707127884.69,14268707127884.69,0,0,1-.08-.38l0-.19h0c0-.2,0-.41,0-.62a5.46,5.46,0,0,1,0-.57h12.4A3.64,3.64,0,0,1,156.77,57.92Z"/><path class="cls-10" d="M154.08,62.44a3.79,3.79,0,0,1-.34.2,7,7,0,0,1-6.58-.09l-.27-.16a4.09,4.09,0,0,1,7.19,0Z"/><path class="cls-11" d="M156.77,57.92c0,.21,0,.42,0,.62a4.54,4.54,0,0,1-.16.75H144.49a5.85,5.85,0,0,1-.16-.75c0-.2,0-.41,0-.62a5.46,5.46,0,0,1,0-.57h12.4A3.64,3.64,0,0,1,156.77,57.92Z"/><circle class="cls-12" cx="142.27" cy="51.01" r="1.16"/><circle class="cls-12" cx="157.93" cy="51.01" r="1.16"/><path class="cls-6" d="M167,36.71a7.32,7.32,0,0,1-1.19,4,7.07,7.07,0,0,1-1,1.2,7.26,7.26,0,0,1-5.21,2.16H143.83a7.37,7.37,0,0,1-7.35-6.89l.26-.27a9,9,0,0,1,3.16-2,6.09,6.09,0,0,0,2.56.59h12.12a6,6,0,0,0,2.47-.53,6.2,6.2,0,0,0,1.06-.61,6.32,6.32,0,0,0,.74-.63,6,6,0,0,0,1.77-4.27A7.37,7.37,0,0,1,167,36.71Z"/><path class="cls-6" d="M157.05,34.92a6,6,0,0,1-2.47.53H142.46a14,14,0,0,1,2.31-1.2h10.87A15.12,15.12,0,0,1,157.05,34.92Z"/><path class="cls-6" d="M144.77,34.25a14,14,0,0,0-2.31,1.2h0a6.09,6.09,0,0,1-2.56-.59,8.84,8.84,0,0,1,3.27-.61Z"/><path class="cls-6" d="M158.11,34.31a6.2,6.2,0,0,1-1.06.61,15.12,15.12,0,0,0-1.41-.67h1.46A8.43,8.43,0,0,1,158.11,34.31Z"/><rect class="cls-6" x="138.46" y="45.8" width="7.03" height="2.93" rx="1.31" transform="translate(-3.32 11.47) rotate(-4.57)"/><rect class="cls-6" x="156.96" y="43.74" width="2.93" height="7.03" rx="1.31" transform="matrix(0.08, -1, 1, 0.08, 98.68, 201.41)"/><line class="cls-13" x1="146.55" y1="74.46" x2="146.55" y2="86.79"/><line class="cls-13" x1="155.27" y1="74.46" x2="155.27" y2="86.79"/><path class="cls-14" d="M165.25,35.7a6.87,6.87,0,0,1-1.11,3.74,6.47,6.47,0,0,1-.91,1.12,7.74,7.74,0,0,1-1,.82,6.88,6.88,0,0,1-3.88,1.2"/><rect class="cls-15" x="100" width="100" height="100"/><path class="cls-1" d="M287.82,49.38a39,39,0,0,1-21.23,34.95c-.72.36-1.45.7-2.19,1a37,37,0,0,1-28.8,0l-.58-.25a38.93,38.93,0,0,1-22.84-35.71c0-21.47,16.93-38.88,37.82-38.88S287.82,27.91,287.82,49.38Z"/><path class="cls-2" d="M266.59,84.28c-.72.36-1.45.7-2.19,1a37,37,0,0,1-28.8,0L235,85c0-.22,0-.45,0-.68a16.5,16.5,0,0,1,.91-5.44A16.48,16.48,0,0,1,237,76.53,16.28,16.28,0,0,1,239.6,73a15.7,15.7,0,0,1,7.22-4.26,16.38,16.38,0,0,1,1.61-.34h0a15.37,15.37,0,0,1,2.37-.18,17.16,17.16,0,0,1,2.16.15h0A15.69,15.69,0,0,1,262,73a16.21,16.21,0,0,1,3.67,6,15.75,15.75,0,0,1,.81,3.59A17.16,17.16,0,0,1,266.59,84.28Z"/><rect class="cls-3" x="238.7" y="64.37" width="24.04" height="11.81" rx="5.2"/><path class="cls-4" d="M252.46,73.82h0a4.62,4.62,0,0,1-4.61-.21l-5.56-4.14c-1.18-.88-1-2.21.34-3h0a4.62,4.62,0,0,1,4.61.22l5.56,4.13C254,71.73,253.83,73.06,252.46,73.82Z"/><path class="cls-4" d="M248.38,73.71h0a1.64,1.64,0,0,1,0-3l6-3.87a4.66,4.66,0,0,1,4.63,0h0a1.64,1.64,0,0,1,0,3l-6,3.87A4.66,4.66,0,0,1,248.38,73.71Z"/><rect class="cls-5" x="246.55" y="62.25" width="8.09" height="12.21" rx="3.56"/><path class="cls-6" d="M266.19,43.34a9.07,9.07,0,0,1-1.59,5.14,10.17,10.17,0,0,1-1.07,1.29,9.1,9.1,0,0,1-6.43,2.66H243.17a9.09,9.09,0,0,1-6.69-15.25l.26-.27a9,9,0,0,1,3.16-2,6.09,6.09,0,0,0,2.56.59h12.12a6,6,0,0,0,2.47-.53,6.2,6.2,0,0,0,1.06-.61,9.09,9.09,0,0,1,8.08,9Z"/><ellipse class="cls-5" cx="236.1" cy="51.51" rx="2.82" ry="2.74"/><ellipse class="cls-7" cx="236.09" cy="51.53" rx="1.54" ry="1.53"/><ellipse class="cls-5" cx="264.63" cy="51.51" rx="2.82" ry="2.74"/><ellipse class="cls-7" cx="264.62" cy="51.53" rx="1.54" ry="1.53"/><path class="cls-5" d="M264.6,47.58V53.9a14.4,14.4,0,1,1-28.79,0V47.58a14.2,14.2,0,0,1,1.79-6.95,14.38,14.38,0,0,1,4.86-5.18h12.12a6,6,0,0,0,2.47-.53,14,14,0,0,1,3.33,2.49,14.34,14.34,0,0,1,4.22,10.17Z"/><rect class="cls-8" x="249.01" y="50.79" width="2.96" height="4.51" rx="1.3"/><path class="cls-9" d="M256.77,57.92c0,.11,0,.21,0,.31a.92.92,0,0,0,0,.16s0,.1,0,.15l-.06.38c0,.06,0,.13-.05.19a1.21,1.21,0,0,1-.05.18,5.34,5.34,0,0,1-1.61,2.5,5.72,5.72,0,0,1-.88.65,3.79,3.79,0,0,1-.34.2,7,7,0,0,1-6.58-.09l-.27-.16a7,7,0,0,1-.7-.52,5.37,5.37,0,0,1-1.7-2.58c0-.06,0-.12-.05-.18a14268707127838.76,14268707127838.76,0,0,1-.08-.38l0-.19h0c0-.2,0-.41,0-.62a5.46,5.46,0,0,1,0-.57h12.4A3.64,3.64,0,0,1,256.77,57.92Z"/><path class="cls-10" d="M254.08,62.44a3.79,3.79,0,0,1-.34.2,7,7,0,0,1-6.58-.09l-.27-.16a4.09,4.09,0,0,1,7.19,0Z"/><path class="cls-11" d="M256.77,57.92c0,.21,0,.42,0,.62a4.54,4.54,0,0,1-.16.75H244.49a5.85,5.85,0,0,1-.16-.75c0-.2,0-.41,0-.62a5.46,5.46,0,0,1,0-.57h12.4A3.64,3.64,0,0,1,256.77,57.92Z"/><circle class="cls-12" cx="242.27" cy="51.01" r="1.16"/><circle class="cls-12" cx="257.93" cy="51.01" r="1.16"/><path class="cls-6" d="M267,36.71a7.32,7.32,0,0,1-1.19,4,7.07,7.07,0,0,1-1,1.2,7.26,7.26,0,0,1-5.21,2.16H243.83a7.37,7.37,0,0,1-7.35-6.89l.26-.27a9,9,0,0,1,3.16-2,6.09,6.09,0,0,0,2.56.59h12.12a6,6,0,0,0,2.47-.53,6.2,6.2,0,0,0,1.06-.61,6.32,6.32,0,0,0,.74-.63,6,6,0,0,0,1.77-4.27A7.37,7.37,0,0,1,267,36.71Z"/><path class="cls-6" d="M257.05,34.92a6,6,0,0,1-2.47.53H242.46a14,14,0,0,1,2.31-1.2h10.87A15.12,15.12,0,0,1,257.05,34.92Z"/><path class="cls-6" d="M244.77,34.25a14,14,0,0,0-2.31,1.2h0a6.09,6.09,0,0,1-2.56-.59,8.84,8.84,0,0,1,3.27-.61Z"/><path class="cls-6" d="M258.11,34.31a6.2,6.2,0,0,1-1.06.61,15.12,15.12,0,0,0-1.41-.67h1.46A8.43,8.43,0,0,1,258.11,34.31Z"/><rect class="cls-6" x="238.46" y="45.8" width="7.03" height="2.93" rx="1.31" transform="translate(-3 19.45) rotate(-4.57)"/><rect class="cls-6" x="256.96" y="43.74" width="2.93" height="7.03" rx="1.31" transform="matrix(0.08, -1, 1, 0.08, 190.71, 301.1)"/><line class="cls-13" x1="246.55" y1="74.46" x2="246.55" y2="86.79"/><line class="cls-13" x1="255.27" y1="74.46" x2="255.27" y2="86.79"/><path class="cls-14" d="M265.25,35.7a6.87,6.87,0,0,1-1.11,3.74,6.47,6.47,0,0,1-.91,1.12,7.74,7.74,0,0,1-1,.82,6.88,6.88,0,0,1-3.88,1.2"/><rect class="cls-15" x="200" width="100" height="100"/><path class="cls-1" d="M387.77,49.38a39,39,0,0,1-21.23,34.95c-.72.36-1.44.7-2.19,1a37,37,0,0,1-28.8,0l-.58-.25a38.94,38.94,0,0,1-22.83-35.71c0-21.47,16.93-38.88,37.81-38.88S387.77,27.91,387.77,49.38Z"/><path class="cls-2" d="M366.54,84.28c-.72.36-1.44.7-2.19,1a37,37,0,0,1-28.8,0L335,85c0-.22,0-.45,0-.68a16.26,16.26,0,0,1,.1-1.85,16.89,16.89,0,0,1,.81-3.59,15.51,15.51,0,0,1,1.06-2.39A16.24,16.24,0,0,1,339.55,73a15.7,15.7,0,0,1,7.22-4.26c.53-.14,1.06-.25,1.61-.34h0a15.56,15.56,0,0,1,2.37-.18,17.16,17.16,0,0,1,2.16.15h0a15.31,15.31,0,0,1,1.95.41A15.66,15.66,0,0,1,362,73a16.24,16.24,0,0,1,2.62,3.58,14.56,14.56,0,0,1,1.05,2.39,16.31,16.31,0,0,1,.82,3.59A17.18,17.18,0,0,1,366.54,84.28Z"/><rect class="cls-3" x="338.65" y="64.37" width="24.04" height="11.81" rx="5.2"/><path class="cls-4" d="M352.42,73.82h0a4.64,4.64,0,0,1-4.62-.21l-5.56-4.14c-1.18-.88-1-2.21.34-3h0a4.64,4.64,0,0,1,4.62.22l5.55,4.13C353.94,71.73,353.79,73.06,352.42,73.82Z"/><path class="cls-4" d="M348.34,73.71h0a1.64,1.64,0,0,1,0-3l6-3.87a4.65,4.65,0,0,1,4.62,0h0a1.64,1.64,0,0,1,0,3l-6,3.87A4.65,4.65,0,0,1,348.34,73.71Z"/><rect class="cls-5" x="346.5" y="62.25" width="8.09" height="12.21" rx="3.56"/><path class="cls-6" d="M366.14,43.34a9.07,9.07,0,0,1-1.59,5.14,9.39,9.39,0,0,1-1.07,1.29,9.08,9.08,0,0,1-6.43,2.66H343.12a9.09,9.09,0,0,1-6.69-15.25l.26-.27a9.12,9.12,0,0,1,3.16-2,6.12,6.12,0,0,0,2.56.59h12.12a6,6,0,0,0,2.47-.53,5.84,5.84,0,0,0,1.06-.61,9.07,9.07,0,0,1,7.69,6.4A8.81,8.81,0,0,1,366.14,43.34Z"/><ellipse class="cls-5" cx="336.06" cy="51.51" rx="2.82" ry="2.74"/><ellipse class="cls-7" cx="336.04" cy="51.53" rx="1.54" ry="1.53"/><ellipse class="cls-5" cx="364.59" cy="51.51" rx="2.82" ry="2.74"/><ellipse class="cls-7" cx="364.57" cy="51.53" rx="1.54" ry="1.53"/><path class="cls-5" d="M364.55,47.58V53.9a14.4,14.4,0,1,1-28.79,0V47.58a14.39,14.39,0,0,1,6.65-12.13h12.12a6,6,0,0,0,2.47-.53,14,14,0,0,1,3.33,2.49,14.34,14.34,0,0,1,4.22,10.17Z"/><rect class="cls-8" x="348.96" y="50.79" width="2.96" height="4.51" rx="1.3"/><path class="cls-9" d="M356.72,57.92c0,.11,0,.21,0,.31s0,.11,0,.16,0,.1,0,.15,0,.25-.06.38,0,.13,0,.19a1.21,1.21,0,0,0-.05.18,5.36,5.36,0,0,1-1.62,2.5,6.16,6.16,0,0,1-.87.65l-.35.2a7,7,0,0,1-6.58-.09l-.26-.16a6,6,0,0,1-.7-.52,5.32,5.32,0,0,1-1.71-2.58,1.21,1.21,0,0,0-.05-.18c0-.06,0-.13,0-.19s0-.13,0-.19a1.23,1.23,0,0,1,0-.19h0a4.21,4.21,0,0,1,0-.62,5.44,5.44,0,0,1,0-.57h12.41A5.44,5.44,0,0,1,356.72,57.92Z"/><path class="cls-10" d="M354,62.44l-.35.2a7,7,0,0,1-6.58-.09l-.26-.16a4.09,4.09,0,0,1,7.19,0Z"/><path class="cls-11" d="M356.72,57.92a4.21,4.21,0,0,1,0,.62,4.53,4.53,0,0,1-.15.75H344.44a4.53,4.53,0,0,1-.15-.75,4.21,4.21,0,0,1,0-.62,5.44,5.44,0,0,1,0-.57h12.41A5.44,5.44,0,0,1,356.72,57.92Z"/><circle class="cls-12" cx="342.22" cy="51.01" r="1.16"/><circle class="cls-12" cx="357.88" cy="51.01" r="1.16"/><path class="cls-6" d="M366.94,36.71a7.32,7.32,0,0,1-1.19,4,6.62,6.62,0,0,1-1,1.2,6.8,6.8,0,0,1-1,.88,7.31,7.31,0,0,1-4.16,1.28H343.78a7.37,7.37,0,0,1-7.35-6.89l.26-.27a9.12,9.12,0,0,1,3.16-2,6.12,6.12,0,0,0,2.56.59h12.12a6,6,0,0,0,2.47-.53,5.84,5.84,0,0,0,1.06-.61,6.32,6.32,0,0,0,.74-.63,6,6,0,0,0,1.77-4.27A7.36,7.36,0,0,1,366.94,36.71Z"/><path class="cls-6" d="M357,34.92a6,6,0,0,1-2.47.53H342.42a13.57,13.57,0,0,1,2.3-1.2h10.87A14,14,0,0,1,357,34.92Z"/><path class="cls-6" d="M344.72,34.25a13.57,13.57,0,0,0-2.3,1.2h0a6.12,6.12,0,0,1-2.56-.59,8.92,8.92,0,0,1,3.27-.61Z"/><path class="cls-6" d="M358.06,34.31a5.84,5.84,0,0,1-1.06.61,14,14,0,0,0-1.41-.67h1.46A8.43,8.43,0,0,1,358.06,34.31Z"/><rect class="cls-6" x="338.41" y="45.8" width="7.03" height="2.93" rx="1.31" transform="translate(-2.68 27.42) rotate(-4.57)"/><rect class="cls-6" x="356.91" y="43.74" width="2.93" height="7.03" rx="1.31" transform="matrix(0.08, -1, 1, 0.08, 282.69, 400.73)"/><line class="cls-13" x1="346.5" y1="74.46" x2="346.5" y2="86.79"/><line class="cls-13" x1="355.22" y1="74.46" x2="355.22" y2="86.79"/><path class="cls-14" d="M365.2,35.7a6.86,6.86,0,0,1-1.1,3.74,7.55,7.55,0,0,1-.91,1.12,7.74,7.74,0,0,1-1,.82,6.94,6.94,0,0,1-3.89,1.2"/><rect class="cls-15" x="299.95" width="100" height="100"/><path class="cls-1" d="M487.77,49.22a39,39,0,0,1-21.23,35c-.72.36-1.44.7-2.19,1a37,37,0,0,1-28.8,0l-.58-.25a38.93,38.93,0,0,1-22.83-35.71c0-21.47,16.93-38.88,37.81-38.88S487.77,27.75,487.77,49.22Z"/><path class="cls-2" d="M466.54,84.13c-.72.36-1.44.69-2.19,1a37,37,0,0,1-28.8,0l-.58-.26c0-.22,0-.45,0-.67a16.31,16.31,0,0,1,.1-1.86,16.94,16.94,0,0,1,.81-3.58,15.51,15.51,0,0,1,1.06-2.39,16,16,0,0,1,2.62-3.58,15.62,15.62,0,0,1,7.22-4.26,14.38,14.38,0,0,1,1.61-.34h0a15.66,15.66,0,0,1,4.53,0h0a15.3,15.3,0,0,1,1.95.4A15.77,15.77,0,0,1,462,72.8a16,16,0,0,1,2.62,3.58,14.56,14.56,0,0,1,1.05,2.39,16.36,16.36,0,0,1,.82,3.58A17.37,17.37,0,0,1,466.54,84.13Z"/><rect class="cls-3" x="438.65" y="64.22" width="24.04" height="11.81" rx="5.2"/><path class="cls-4" d="M452.42,73.67h0a4.64,4.64,0,0,1-4.62-.22l-5.56-4.14c-1.18-.88-1-2.21.34-3h0a4.64,4.64,0,0,1,4.62.22l5.55,4.14C453.94,71.58,453.79,72.91,452.42,73.67Z"/><path class="cls-4" d="M448.34,73.55h0a1.63,1.63,0,0,1,0-3l6-3.87a4.65,4.65,0,0,1,4.62,0h0a1.64,1.64,0,0,1,0,3l-6,3.86A4.65,4.65,0,0,1,448.34,73.55Z"/><rect class="cls-5" x="446.5" y="62.1" width="8.09" height="12.21" rx="3.56"/><path class="cls-6" d="M466.14,43.19a9.12,9.12,0,0,1-1.59,5.14,8.75,8.75,0,0,1-1.07,1.28,9,9,0,0,1-6.43,2.67H443.12A9.09,9.09,0,0,1,436.43,37l.26-.27a9.15,9.15,0,0,1,3.16-2.06,6.12,6.12,0,0,0,2.56.59h12.12a6,6,0,0,0,2.47-.53,5.31,5.31,0,0,0,1.06-.61,9.09,9.09,0,0,1,7.69,6.41A8.76,8.76,0,0,1,466.14,43.19Z"/><ellipse class="cls-5" cx="436.06" cy="51.35" rx="2.82" ry="2.74"/><ellipse class="cls-7" cx="436.04" cy="51.37" rx="1.54" ry="1.53"/><ellipse class="cls-5" cx="464.59" cy="51.35" rx="2.82" ry="2.74"/><ellipse class="cls-7" cx="464.57" cy="51.37" rx="1.54" ry="1.53"/><path class="cls-5" d="M464.55,47.43v6.32a14.4,14.4,0,1,1-28.79,0V47.43a14.39,14.39,0,0,1,6.65-12.14h12.12a6,6,0,0,0,2.47-.53,14.56,14.56,0,0,1,3.33,2.49,14.34,14.34,0,0,1,4.22,10.18Z"/><rect class="cls-8" x="448.96" y="50.64" width="2.96" height="4.51" rx="1.3"/><path class="cls-9" d="M456.72,57.77c0,.1,0,.21,0,.31s0,.1,0,.15,0,.1,0,.15,0,.26-.06.39,0,.12,0,.18a1.33,1.33,0,0,0-.05.19,5.36,5.36,0,0,1-1.62,2.5,7,7,0,0,1-.87.65l-.35.19a6.9,6.9,0,0,1-6.58-.09,2.26,2.26,0,0,1-.26-.16,6,6,0,0,1-.7-.51,5.37,5.37,0,0,1-1.71-2.58,1.33,1.33,0,0,0-.05-.19c0-.06,0-.12,0-.18s0-.13,0-.19a1.36,1.36,0,0,1,0-.2h0a4.08,4.08,0,0,1,0-.61,5.49,5.49,0,0,1,0-.58h12.41A5.49,5.49,0,0,1,456.72,57.77Z"/><path class="cls-10" d="M454,62.29l-.35.19a6.9,6.9,0,0,1-6.58-.09,2.26,2.26,0,0,1-.26-.16,4.09,4.09,0,0,1,7.19.06Z"/><path class="cls-11" d="M456.72,57.77a4.08,4.08,0,0,1,0,.61,4.87,4.87,0,0,1-.15.76H444.44a4.87,4.87,0,0,1-.15-.76,4.08,4.08,0,0,1,0-.61,5.49,5.49,0,0,1,0-.58h12.41A5.49,5.49,0,0,1,456.72,57.77Z"/><circle class="cls-12" cx="442.22" cy="50.85" r="1.16"/><circle class="cls-12" cx="457.88" cy="50.85" r="1.16"/><path class="cls-6" d="M466.94,36.55a7.38,7.38,0,0,1-7.37,7.37H443.78a7.36,7.36,0,0,1-6.23-3.45A7.27,7.27,0,0,1,436.43,37l.26-.27a9.15,9.15,0,0,1,3.16-2.06,6.12,6.12,0,0,0,2.56.59h12.12a6,6,0,0,0,2.47-.53,5.31,5.31,0,0,0,1.06-.61,6.32,6.32,0,0,0,.74-.63,6,6,0,0,0,1.77-4.27A7.37,7.37,0,0,1,466.94,36.55Z"/><path class="cls-6" d="M457,34.76a6,6,0,0,1-2.47.53H442.42a14.28,14.28,0,0,1,2.3-1.19h10.87A13.94,13.94,0,0,1,457,34.76Z"/><path class="cls-6" d="M444.72,34.1a14.28,14.28,0,0,0-2.3,1.19h0a6.12,6.12,0,0,1-2.56-.59,9.13,9.13,0,0,1,3.27-.6Z"/><path class="cls-6" d="M458.06,34.15a5.31,5.31,0,0,1-1.06.61,13.94,13.94,0,0,0-1.41-.66h1.46A8.44,8.44,0,0,1,458.06,34.15Z"/><rect class="cls-6" x="438.41" y="45.64" width="7.03" height="2.93" rx="1.31" transform="translate(-2.35 35.39) rotate(-4.57)"/><rect class="cls-6" x="456.91" y="43.59" width="2.93" height="7.03" rx="1.31" transform="matrix(0.08, -1, 1, 0.08, 374.87, 500.27)"/><line class="cls-13" x1="446.5" y1="74.3" x2="446.5" y2="86.63"/><line class="cls-13" x1="455.22" y1="74.3" x2="455.22" y2="86.63"/><path class="cls-14" d="M465.2,35.54a6.84,6.84,0,0,1-1.1,3.74,7.07,7.07,0,0,1-.91,1.12,6.36,6.36,0,0,1-1,.82,6.86,6.86,0,0,1-3.89,1.2"/><rect class="cls-15" x="399.95" y="-0.16" width="100" height="100"/><text class="cls-16" transform="translate(6.34 14.98) scale(0.98 1)">1</text><text class="cls-16" transform="translate(106.09 10.5)">2</text><text class="cls-16" transform="translate(216.46 10.5)">3</text><text class="cls-16" transform="translate(315.16 10.5)">4</text><text class="cls-16" transform="translate(408.78 11.48)">5</text></g></svg>