<svg id="Layer_1" data-name="Layer 1" xmlns="http://www.w3.org/2000/svg" width="650.36" height="800" viewBox="0 0 650.36 800"><defs><style>.cls-1{fill:#5f2483;}.cls-2{fill:#fbcdac;}.cls-3{fill:#1e56a3;}.cls-4{fill:#0d71b9;}.cls-5{fill:#08111d;}.cls-6{fill:#f7baab;}.cls-11,.cls-13,.cls-14,.cls-7{fill:none;}.cls-7{stroke:#e7334a;stroke-width:14px;}.cls-11,.cls-13,.cls-14,.cls-15,.cls-7{stroke-linecap:round;stroke-miterlimit:10;}.cls-8{fill:#f7bbac;}.cls-9{fill:#f191ab;}.cls-10{fill:#c79e99;}.cls-11{stroke:#45a4dc;}.cls-11,.cls-13,.cls-14,.cls-15{stroke-width:8px;}.cls-12{fill:#46a4dc;}.cls-13{stroke:#312783;}.cls-14,.cls-15{stroke:#0587c9;}.cls-15{fill:#0587c9;}.cls-16{fill:#312783;}.cls-17{fill:#0087ca;}</style></defs><title>bh_pige</title><polygon class="cls-1" points="631.37 25.11 631.37 781.11 27.36 779.11 27.36 23.11 631.37 25.11"/><path class="cls-2" d="M292.38,534a37.11,37.11,0,0,1-2.79,14.13,37.52,37.52,0,0,1-3.43,6.5l-15.17,23L218.54,657l-44.71,67.71-35.91,54.38-2.29,3.47a36.54,36.54,0,0,0-2-3.47H55.36a37.31,37.31,0,0,1,6.21-20.5l4.29-6.5,121.8-184.47h0l12.89-19.52,12.51-19,0,0,10.47-15.86a37.47,37.47,0,0,1,31.7-16.84h0A37.53,37.53,0,0,1,292.38,534Z"/><rect class="cls-2" x="467.37" y="204.72" width="75.01" height="252.84" rx="37.51" transform="translate(-94.27 405.81) rotate(-40.36)"/><path class="cls-3" d="M181.36,123.11H470.84a1.52,1.52,0,0,1,1.52,1.52V442.8A105.31,105.31,0,0,1,367.05,548.11H286.68A105.31,105.31,0,0,1,181.36,442.8V123.11A0,0,0,0,1,181.36,123.11Z" transform="translate(653.73 671.22) rotate(180)"/><rect class="cls-2" x="271.55" y="431.3" width="110" height="55.62" rx="16.53" transform="translate(785.66 132.56) rotate(90)"/><path class="cls-2" d="M239.67,167.11H413a34.32,34.32,0,0,1,34.32,34.32V359.8A105.31,105.31,0,0,1,342.05,465.11H310.68A105.31,105.31,0,0,1,205.36,359.8V201.41a34.3,34.3,0,0,1,34.3-34.3Z"/><rect class="cls-4" x="201.36" y="167.11" width="251" height="115" rx="37.39"/><circle class="cls-5" cx="250.11" cy="335.37" r="8.74"/><circle class="cls-5" cx="399.11" cy="335.37" r="8.74"/><rect class="cls-6" x="315.78" y="334.92" width="22.31" height="34" rx="11.15"/><line class="cls-7" x1="311.36" y1="405.11" x2="338.36" y2="405.11"/><line class="cls-7" x1="315.36" y1="418.11" x2="335.36" y2="418.11"/><path class="cls-2" d="M477.76,631.07V748.15a152.5,152.5,0,0,1-3.16,31H177a152.5,152.5,0,0,1-3.16-31V631.07A151.94,151.94,0,0,1,433.25,523.62l.16.16a153,153,0,0,1,19.72,24.33,151.49,151.49,0,0,1,24.63,83Z"/><rect class="cls-2" x="434.36" y="349.11" width="75.01" height="369" rx="37.51" transform="matrix(0.83, 0.55, -0.55, 0.83, 372.13, -171.69)"/><circle class="cls-8" cx="258.86" cy="626.61" r="50.5"/><circle class="cls-8" cx="389.86" cy="626.61" r="50.5"/><circle class="cls-9" cx="258.36" cy="627.11" r="15"/><circle class="cls-9" cx="389.36" cy="627.11" r="15"/><path class="cls-2" d="M133.6,779.11H32.48l.22-.73a37,37,0,0,1,46.19-24.75l34.51,10.42A36.85,36.85,0,0,1,133.6,779.11Z"/><circle class="cls-10" cx="325.11" cy="744.37" r="8.74"/><path class="cls-11" d="M442.36,227.71A37.39,37.39,0,0,1,405,265.11H243.36"/><ellipse class="cls-12" cx="250.11" cy="307.48" rx="18.5" ry="7" transform="translate(-46.32 44.37) rotate(-9.28)"/><ellipse class="cls-12" cx="399.11" cy="307.48" rx="7" ry="18.5" transform="translate(38.05 658.85) rotate(-81.83)"/><line class="cls-13" x1="224.5" y1="518.2" x2="224.63" y2="613.1"/><line class="cls-13" x1="428.46" y1="518.2" x2="427.39" y2="607.76"/><line class="cls-14" x1="304.99" y1="647.65" x2="339.12" y2="648.02"/><rect class="cls-15" x="423.86" y="611.57" width="58.15" height="27.33" rx="13.66" transform="translate(-115.5 102.79) rotate(-11.49)"/><path class="cls-16" d="M344.77,630c-8.08,2.17-11.17,13.88-6.18,23.41,14.75,28.16,41.79,44.35,66.86,37.62s40.36-34.3,39-66.05c-.45-10.75-9-19.34-17.08-17.17Z"/><path class="cls-17" d="M437.1,622.71c-1.8-6.68-7.39-11-12.5-9.61s-7.79,7.9-6,14.58"/><path class="cls-17" d="M418.6,627.68c-1.79-6.68-7.39-11-12.49-9.61s-7.8,7.9-6,14.58"/><path class="cls-17" d="M399.73,632.75c-1.8-6.68-7.39-11-12.5-9.61s-7.79,7.9-6,14.57"/><path class="cls-17" d="M381.23,637.71c-1.79-6.67-7.39-11-12.49-9.61s-7.8,7.9-6,14.58"/><path class="cls-17" d="M362.74,642.68c-1.8-6.68-7.39-11-12.5-9.61s-7.79,7.9-6,14.58"/><rect class="cls-15" x="173.4" y="615.45" width="63.93" height="27.33" rx="13.66" transform="translate(120.84 -27.25) rotate(10.74)"/><path class="cls-16" d="M304.46,630c8.08,2.17,11.17,13.88,6.18,23.41-14.75,28.16-41.79,44.35-66.86,37.62s-40.36-34.3-39-66.05c.45-10.75,9-19.34,17.08-17.17Z"/><path class="cls-17" d="M212.13,622.71c1.8-6.68,7.39-11,12.5-9.61s7.79,7.9,6,14.58"/><path class="cls-17" d="M230.63,627.68c1.79-6.68,7.39-11,12.49-9.61s7.8,7.9,6,14.58"/><path class="cls-17" d="M249.5,632.75c1.8-6.68,7.39-11,12.5-9.61s7.79,7.9,6,14.57"/><path class="cls-17" d="M268,637.71c1.79-6.67,7.39-11,12.49-9.61s7.8,7.9,6,14.58"/><path class="cls-17" d="M286.49,642.68c1.8-6.68,7.39-11,12.5-9.61s7.79,7.9,6,14.58"/></svg>
