<svg id="Layer_1" data-name="Layer 1" xmlns="http://www.w3.org/2000/svg" width="485.4" height="557.32" viewBox="0 0 485.4 557.32"><defs><style>.cls-1{fill:#5e2581;}.cls-2{fill:#fbcdac;}.cls-3{fill:#1e56a3;}.cls-4{fill:#0d71b9;}.cls-5{fill:#08111d;}.cls-6{fill:#f7baab;}.cls-11,.cls-13,.cls-14,.cls-7{fill:none;}.cls-7{stroke:#e7334a;stroke-width:14px;}.cls-11,.cls-13,.cls-14,.cls-15,.cls-7{stroke-linecap:round;stroke-miterlimit:10;}.cls-8{fill:#f7bbac;}.cls-9{fill:#f191ab;}.cls-10{fill:#c79e99;}.cls-11{stroke:#45a4dc;}.cls-11,.cls-13,.cls-14,.cls-15{stroke-width:8px;}.cls-12{fill:#46a4dc;}.cls-13{stroke:#312783;}.cls-14,.cls-15{stroke:#0587c9;}.cls-15{fill:#0587c9;}.cls-16{fill:#312783;}.cls-17{fill:#0087ca;}</style></defs><title>bh_pige_1</title><path class="cls-1" d="M425.94,489.59,194.22,555.23c-30.49,8.62-60.72-10.27-67.16-42L5.26,131.05C-10.38,97.58,11,71.26,41.48,62.65L278.14,2.18c48.57-8.82,61.51,10,68,41.69L475.42,411.76C505.08,478.76,462.72,474.5,425.94,489.59Z"/><path class="cls-2" d="M261.16,377.08A23,23,0,0,1,262,386a22.66,22.66,0,0,1-.88,4.47l-4.95,16.34-17.11,56.49-14.58,48.15-11.71,38.67-.75,2.47a22.7,22.7,0,0,0-1.82-1.71L163.71,564.7a23.1,23.1,0,0,1,.06-13.28l1.4-4.62,39.72-131.18h0l4.2-13.88,4.08-13.47v0L216.6,377a23.24,23.24,0,0,1,15.86-15.61h0a23.29,23.29,0,0,1,28.7,15.74Z"/><rect class="cls-2" x="328.27" y="140.55" width="46.51" height="156.77" rx="23.26" transform="translate(-23.68 394.2) rotate(-56.95)"/><path class="cls-3" d="M156.32,121.34H335.44a1.31,1.31,0,0,1,1.31,1.31v172a90.22,90.22,0,0,1-90.22,90.22h0a90.22,90.22,0,0,1-90.22-90.22V121.34a0,0,0,0,1,0,0Z" transform="translate(555.07 425.28) rotate(163.41)"/><rect class="cls-2" x="234.11" y="309.3" width="68.2" height="34.49" rx="16.53" transform="translate(504.59 -23.73) rotate(73.41)"/><path class="cls-2" d="M192.2,149.22H293.36a24.45,24.45,0,0,1,24.45,24.45V259a75,75,0,0,1-75,75h0a75,75,0,0,1-75-75V173.65a24.44,24.44,0,0,1,24.44-24.44Z" transform="translate(-58.87 79.37) rotate(-16.59)"/><rect class="cls-4" x="148.57" y="146.81" width="157.74" height="81.8" rx="35.65" transform="translate(-44.13 72.75) rotate(-16.59)"/><circle class="cls-5" cx="200.88" cy="266.54" r="5.42"/><circle class="cls-5" cx="289.42" cy="240.17" r="5.42"/><rect class="cls-6" x="242.55" y="252.24" width="13.83" height="21.08" rx="6.92" transform="translate(-64.64 82.16) rotate(-16.59)"/><line class="cls-7" x1="249.63" y1="297.14" x2="265.67" y2="292.36"/><line class="cls-7" x1="254.3" y1="304.16" x2="266.19" y2="300.62"/><path class="cls-2" d="M388.51,402l20.72,69.57a94.57,94.57,0,0,1,3.61,19L236,543.17a94.46,94.46,0,0,1-7.36-17.84L207.9,455.76A94.21,94.21,0,0,1,343,346l.12.06a95,95,0,0,1,16,11A93.83,93.83,0,0,1,388.51,402Z"/><rect class="cls-2" x="344.5" y="230.69" width="46.51" height="228.79" rx="23.26" transform="translate(115.8 -91.77) rotate(16.85)"/><circle class="cls-8" cx="257.64" cy="438.06" r="31.31"/><circle class="cls-8" cx="335.48" cy="414.87" r="31.31"/><circle class="cls-9" cx="257.43" cy="438.44" r="9.3"/><circle class="cls-9" cx="335.28" cy="415.25" r="9.3"/><path class="cls-2" d="M210.2,550.85l-60.08,17.9v-.47a23,23,0,0,1,15-21.48,22.65,22.65,0,0,1,8-1.4l22.35.08A22.85,22.85,0,0,1,210.2,550.85Z"/><circle class="cls-10" cx="317.85" cy="496.31" r="5.42"/><path class="cls-11" d="M296.07,168.54a23.19,23.19,0,0,1-15.6,28.84l-96,28.61"/><ellipse class="cls-12" cx="195.94" cy="249.97" rx="11.47" ry="4.34" transform="translate(-89.44 110.55) rotate(-25.87)"/><ellipse class="cls-12" cx="284.48" cy="223.59" rx="11.47" ry="4.34" transform="matrix(0.99, -0.15, 0.15, 0.99, -29.68, 44.08)"/><line class="cls-13" x1="339.23" y1="343.62" x2="354.45" y2="397.02"/><line class="cls-14" x1="288.77" y1="442.4" x2="309.12" y2="436.57"/><rect class="cls-15" x="354.69" y="394.41" width="36.05" height="16.94" rx="8.47" transform="translate(-145.78 222.89) rotate(-28.08)"/><path class="cls-16" d="M309.28,424.83c-4.42,2.72-4.18,10.23.47,15,13.75,14.12,32.68,19,46.39,10.52s17.91-27.52,11.5-46.16c-2.18-6.3-8.77-9.9-13.19-7.18Z"/><path class="cls-17" d="M362.86,404.19c-2.25-3.65-6.33-5.22-9.12-3.5s-3.24,6.08-1,9.73"/><path class="cls-17" d="M352.75,410.42c-2.25-3.65-6.33-5.22-9.13-3.5s-3.23,6.07-1,9.72"/><path class="cls-17" d="M342.43,416.77c-2.25-3.65-6.33-5.22-9.13-3.5s-3.23,6.07-1,9.73"/><path class="cls-17" d="M332.32,423c-2.25-3.66-6.33-5.22-9.13-3.5s-3.23,6.07-1,9.72"/><path class="cls-17" d="M322.21,429.22c-2.25-3.65-6.34-5.22-9.13-3.5s-3.23,6.08-1,9.73"/><line class="cls-13" x1="220.58" y1="382.73" x2="237.46" y2="439.09"/><rect class="cls-15" x="204.89" y="440.01" width="36.05" height="16.94" rx="8.47" transform="translate(-38.95 21.57) rotate(-5.1)"/><path class="cls-16" d="M285.33,432c5.18-.14,9.09,6.27,7.81,12.82-3.78,19.34-17,33.75-33.07,34.19s-30-13.23-34.88-32.34c-1.63-6.47,1.92-13.09,7.11-13.23Z"/><path class="cls-17" d="M229.18,444c-.12-4.29,2.45-7.84,5.72-7.93s6,3.32,6.15,7.6"/><path class="cls-17" d="M241.05,443.69c-.12-4.28,2.45-7.83,5.72-7.92s6,3.31,6.15,7.6"/><path class="cls-17" d="M253.16,443.36c-.11-4.28,2.45-7.83,5.73-7.92s6,3.31,6.14,7.6"/><path class="cls-17" d="M265,443c-.11-4.29,2.45-7.83,5.73-7.92s6,3.31,6.14,7.6"/><path class="cls-17" d="M276.9,442.72c-.11-4.29,2.45-7.84,5.73-7.92s6,3.31,6.14,7.6"/></svg>
