<svg id="Layer_1" data-name="Layer 1" xmlns="http://www.w3.org/2000/svg" width="174" height="592" viewBox="0 0 174 592"><defs><style>.cls-1{fill:#ffc817;}.cls-2{fill:#c7b299;}.cls-3{fill:#ef7e29;}</style></defs><title>blyant</title><path class="cls-1" d="M104.4,530.5c2,26.5-20.14,28.5-45,28.5s-50-7-45-28.5C18,515.17,34.55,502,59.4,502S103.22,514.8,104.4,530.5Z"/><path class="cls-2" d="M60,134c0,25.68,43,39,64,39s23-42.32,23-68-12-79-33-79S60,108,60,134Z"/><path class="cls-1" d="M116.4,124l29-5c0,.66,12,32-20.45,47.15L94,184.33a1.72,1.72,0,0,1-1.79,0L60,164.77a2,2,0,0,1-1-1.62L59.4,130l2-3s1.23-3.78,2-4l22-6c1,0,.44-.34,1,0"/><path class="cls-1" d="M101.86,546.67l-87.43-10L59.36,132.45a5.54,5.54,0,0,1,5.73-4.9L147.4,133Z"/><path class="cls-3" d="M65,336.77C52.38,454.83,41.44,549.65,42.15,550.55c3.45,4.39,11.51-94.31,26.39-213.41,14.72-117.8,24.6-216.61,21.1-214C88.75,123.85,77.64,218.7,65,336.77Z"/><path class="cls-3" d="M102,341.79C90.87,460,81.13,555,81.85,555.85c3.51,4.34,10.32-94.45,23.69-213.72,13.23-118,21.86-216.91,18.4-214.22C123.05,128.59,113.14,223.58,102,341.79Z"/><path d="M86.38,58.46c.7,4.6,25.61-4.38,36.83-6.1s12.11,2.74,11.41-1.86-9.56-25.36-20.78-23.65S85.66,53.8,86.38,58.46Z"/></svg>
