<svg id="Layer_1" data-name="Layer 1" xmlns="http://www.w3.org/2000/svg" width="680" height="840" viewBox="0 0 680 840"><defs><style>.cls-1{fill:#5f2483;}.cls-2{fill:#f8d2ae;}.cls-3{fill:#f8c79d;}.cls-4,.cls-7,.cls-8,.cls-9{fill:none;stroke-linecap:round;stroke-miterlimit:10;}.cls-4{stroke:#f8d2ae;}.cls-4,.cls-8,.cls-9{stroke-width:40px;}.cls-5{fill:#f7b28f;}.cls-6{fill:#f8c0ac;}.cls-7{stroke:#936037;stroke-width:10px;}.cls-8{stroke:#f7c0ac;}.cls-9{stroke:#f7cea6;}.cls-10{fill:#f8d1ad;}.cls-11{fill:#fbcdac;}.cls-12{fill:#f191ab;}</style></defs><title>dickpic_pige</title><path class="cls-1" d="M642.61,50.47v756l-109.12-.36-7.33,0-98.09-.33-76-.25H348.7L208.39,805l-169.78-.56v-756L65,48.56l76.13.25,110.24.36,5.71,0,53.78.18Z"/><path class="cls-2" d="M642.61,794v12.46l-109.12-.36-7.33,0-12.41-44.46L474.84,622.25,453.6,546.16A57.71,57.71,0,0,1,562,507.4a59.61,59.61,0,0,1,2.76,7.74l8.08,29,34.65,124.11,1,3.43Z"/><path class="cls-2" d="M642.61,492V684.54a57.66,57.66,0,0,1-45.79-30.77L355.18,190.43a57.71,57.71,0,0,1,98-60.36,59.28,59.28,0,0,1,4.3,7l13.9,26.66Z"/><rect class="cls-2" x="54.48" y="199.9" width="115.41" height="496.31" rx="57.7" transform="translate(-14.27 3.82) rotate(-1.83)"/><path class="cls-3" d="M608.44,671.64a155.62,155.62,0,0,1-75,134.48l-7.33,0-98.09-.33-76-.25H348.7L208.39,805a154.69,154.69,0,0,1-28.58-55.67l-16.95-60.76L160,678.28l-24.22-86.81L53.5,296.6a155.8,155.8,0,0,1-4.64-23.37v-.07a.13.13,0,0,0,0-.06A155.35,155.35,0,0,1,161.4,105.19L285,70.71a154.57,154.57,0,0,1,22.32-4.5h0a155.55,155.55,0,0,1,145.91,63.87,153.75,153.75,0,0,1,18.2,33.66s0,0,0,0,0,0,0,0a156.23,156.23,0,0,1,4.95,14.83L602.71,631.4a155.1,155.1,0,0,1,5.69,37.68C608.42,669.93,608.44,670.79,608.44,671.64Z"/><line class="cls-4" x1="289.78" y1="568.31" x2="222.25" y2="496.65"/><rect class="cls-5" x="316.73" y="392.97" width="85.4" height="363.58" rx="42.7" transform="translate(-210.76 208.13) rotate(-25.24)"/><circle class="cls-6" cx="479.33" cy="696.11" r="74.01"/><path class="cls-6" d="M464.31,742.12a73.84,73.84,0,0,1-36.24,63.65l-76-.25h0c-.93-.56-1.85-1.15-2.76-1.76a74,74,0,1,1,115-61.64Z"/><line class="cls-7" x1="356.46" y1="784.27" x2="350.57" y2="800.4"/><line class="cls-7" x1="514.05" y1="619.61" x2="505.55" y2="642.9"/><line class="cls-7" x1="533.45" y1="722.67" x2="554.29" y2="740.08"/><line class="cls-7" x1="561.29" y1="663.48" x2="535.91" y2="673.85"/><line class="cls-7" x1="330.34" y1="757.91" x2="307.81" y2="767.12"/><line class="cls-7" x1="327.11" y1="715.7" x2="303.37" y2="705.37"/><rect class="cls-2" x="139.06" y="510.81" width="100.7" height="240.9" rx="37.51" transform="translate(765.51 311.15) rotate(77.64)"/><line class="cls-8" x1="384.77" y1="494.66" x2="345.58" y2="511.74"/><line class="cls-9" x1="403.49" y1="524.1" x2="363.09" y2="543.54"/><line class="cls-8" x1="420.6" y1="555.92" x2="372.75" y2="577.92"/><line class="cls-9" x1="431.07" y1="593.6" x2="388.72" y2="610.24"/><rect class="cls-10" x="247.41" y="526.45" width="158.9" height="115.41" rx="38.3" transform="translate(715.89 39.41) rotate(64.76)"/><path class="cls-11" d="M273.38,49.19c-1.59,1.5-3.24,3-4.92,4.38-1,.87-2,1.72-3.09,2.56C232.24,82.78,191,92.73,149.5,87.63a183.89,183.89,0,0,1-31.75-6.83A207.67,207.67,0,0,1,54.93,48.56l86.58.25,125.38.36Z"/><circle class="cls-12" cx="164.16" cy="336.05" r="11.82"/><circle class="cls-12" cx="377" cy="267.6" r="11.82"/><path class="cls-11" d="M220.47,134.29a54.94,54.94,0,0,1-69-36l-3.37-10.7-4.89-15.56a54.75,54.75,0,0,1-2.13-23.26l110.24.36,1.38,4.4,3.7,11.75A54.45,54.45,0,0,1,258.84,78,55,55,0,0,1,220.47,134.29Z"/></svg>
