<svg id="Layer_1" data-name="Layer 1" xmlns="http://www.w3.org/2000/svg" width="545" height="600" viewBox="0 0 545 600"><defs><style>.cls-1{fill:#5e2581;}.cls-2{fill:#f8d2ae;}.cls-3{fill:#f8c79d;}.cls-4,.cls-7,.cls-8,.cls-9{fill:none;stroke-linecap:round;stroke-miterlimit:10;}.cls-4{stroke:#f8d2ae;}.cls-4,.cls-8,.cls-9{stroke-width:40px;}.cls-5{fill:#f7b28f;}.cls-6{fill:#f8c0ac;}.cls-7{stroke:#936037;stroke-width:10px;}.cls-8{stroke:#f7c0ac;}.cls-9{stroke:#f7cea6;}.cls-10{fill:#f8d1ad;}.cls-11{fill:#fbcdac;}.cls-12{fill:#f191ab;}</style></defs><title>dickpic_pige_1</title><path class="cls-1" d="M457.92,500.69,226.2,566.33c-30.5,8.61-60.72-10.28-67.17-42L37.24,142.14C21.59,108.68,43,82.36,73.45,73.74L310.12,13.27c48.57-8.82,61.51,10,68,41.69L507.4,422.85C537.05,489.86,494.7,485.6,457.92,500.69Z"/><path class="cls-2" d="M516.64,469.65,506.73,483l-19,8.11-37.78,11.82L432.31,467,383.6,383.06,357,337.26c-10.73-18.47-6.35-43.35,9.78-55.55a33.7,33.7,0,0,1,4.9-3.09,31.42,31.42,0,0,1,10.78-3.34c11-1.3,22.25,3.41,29.9,13.26a40.71,40.71,0,0,1,3.05,4.53l10.12,17.43,43.38,74.71,1.19,2.07,45.07,71A14.76,14.76,0,0,1,516.64,469.65Z"/><path class="cls-2" d="M452.17,261l43.64,127.35c-7.54,1.91-19.07,1.16-26.2-2.71a35.53,35.53,0,0,1-9.57-7.66l-226.82-255c-13.84-15.55-14.06-40.94-.49-56.7a34.36,34.36,0,0,1,14.16-10,31.6,31.6,0,0,1,31.64,5.9,39.1,39.1,0,0,1,3.8,3.72l13.05,14.67Z"/><path class="cls-2" d="M190.06,507.42h0c-18.22,7.46-38.33-3.4-44.91-24.25L66.5,234c-6.58-20.85,2.86-43.8,21.08-51.26h0c18.22-7.45,38.33,3.41,44.91,24.26l78.64,249.21C217.71,477,208.28,500,190.06,507.42Z"/><path class="cls-3" d="M470.12,387.28c10.64,36.12,9.56,84.71-12.2,113.41L444,504.15,389.2,520.23l-43.58,13.13,1.51-3-1.51,3-84,23.25c-10.43-7.8-17.36-14-24.68-26.66l-21.23-36.57-3.6-6.22L181.82,434.9l-103-177.52a113.69,113.69,0,0,1-7.08-14.46v0s0,0,0,0a122.18,122.18,0,0,1-2.25-84.43c6.8-20,18.88-37.85,35.72-50.59l65-49.12A91.31,91.31,0,0,1,182.18,51h0c31.76-17,68.87-12.14,96.36,11.17a100.86,100.86,0,0,1,16.85,18.39s0,0,0,0a0,0,0,0,1,0,0q3,4.17,5.65,8.75L459.24,361.89a114.46,114.46,0,0,1,10.37,23.71C469.79,386.15,470,386.72,470.12,387.28Z"/><line class="cls-4" x1="266.49" y1="386.79" x2="213.98" y2="353.77"/><path class="cls-5" d="M383.7,468.48h0c-10.44,11.19-26.87,10.57-36.69-1.4L231.12,325.91c-9.83-12-9.33-30.75,1.11-41.94h0c10.44-11.19,26.86-10.56,36.69,1.4L384.81,426.55C394.63,438.51,394.14,457.29,383.7,468.48Z"/><ellipse class="cls-6" cx="400.09" cy="430.96" rx="44.98" ry="51.42" transform="translate(-5.03 4.73) rotate(-0.67)"/><path class="cls-6" d="M400.06,464.58a58.32,58.32,0,0,1,2.2,17.76,55.72,55.72,0,0,1-11.17,32.06l-44,16h0c-.64-.17-1.29-.37-1.93-.58C335,526.55,326,519.23,320,509a54.89,54.89,0,0,1-5.48-12.87,58.47,58.47,0,0,1-2.06-20.16,54.52,54.52,0,0,1,14.33-33.51,43.73,43.73,0,0,1,16.59-11A39.87,39.87,0,0,1,355.12,429c14.15-.74,27.79,6.27,36.74,18.59A53.86,53.86,0,0,1,400.06,464.58Z"/><line class="cls-7" x1="345.65" y1="515.42" x2="345.28" y2="527.35"/><line class="cls-7" x1="405.77" y1="372.97" x2="405.24" y2="390.18"/><line class="cls-7" x1="436.37" y1="437" x2="451.69" y2="444.08"/><line class="cls-7" x1="441.33" y1="391.92" x2="428.61" y2="404.19"/><line class="cls-7" x1="325.59" y1="503.56" x2="314.3" y2="514.45"/><line class="cls-7" x1="315.79" y1="476.33" x2="300.12" y2="474.55"/><path class="cls-2" d="M157.14,491.9h0c-8.54-16.7-3.65-38.12,10.93-47.84l73.52-49c14.58-9.72,33.33-4.07,41.88,12.63h0c8.55,16.7,3.66,38.12-10.92,47.84l-73.53,49C184.44,514.25,165.69,508.59,157.14,491.9Z"/><line class="cls-8" x1="307.55" y1="317.85" x2="288.1" y2="337.49"/><line class="cls-8" x1="339.78" y1="350.74" x2="316.25" y2="375.48"/><line class="cls-9" x1="352.91" y1="373.43" x2="331.57" y2="393.45"/><path class="cls-10" d="M274.72,428.17,256,405.36c-13.11-16-12.44-41,1.49-56l.64-.69c13.93-14.93,35.85-14.1,49,1.87l18.72,22.81c13.11,16,12.45,41-1.48,56l-.64.69C309.76,445,287.84,444.14,274.72,428.17Z"/><path class="cls-11" d="M159.39,50.53a1.57,1.57,0,0,1,1.93,2.21l-.19.36c-.43.79-.86,1.57-1.3,2.35-14.14,24.68-36.1,40-61.06,45.51a97.59,97.59,0,0,1-19.63,2.24A111.06,111.06,0,0,1,40.8,96.75c-1.39-.49,5.61-9,7-9.49L59.18,79c.32-.25,12.13-4.73,12.52-4.84l87.69-23.64Z"/><ellipse class="cls-12" cx="150.19" cy="259.92" rx="7.18" ry="8.21" transform="translate(-3.04 1.78) rotate(-0.67)"/><ellipse class="cls-12" cx="260.34" cy="169.33" rx="7.18" ry="8.21" transform="translate(-1.97 3.07) rotate(-0.67)"/><path class="cls-11" d="M144.79,114.48a31.87,31.87,0,0,1-9.07,5.21c-11.74,4.32-24.89.87-33.83-9.28a36.84,36.84,0,0,1-3.73-5L94.2,99l-5.75-9.26a41.14,41.14,0,0,1-5.61-14.93l63.51-16.68,1.91-3.93,4.35,7a39.75,39.75,0,0,1,3.77,7.87C162.06,85.12,157.64,104.06,144.79,114.48Z"/></svg>
