<svg id="Layer_1" data-name="Layer 1" xmlns="http://www.w3.org/2000/svg" width="485.4" height="557.32" viewBox="0 0 485.4 557.32"><defs><style>.cls-1{fill:#5e2581;}.cls-2{fill:#f8d2ae;}.cls-3{fill:#f8c79d;}.cls-4,.cls-7,.cls-8,.cls-9{fill:none;stroke-linecap:round;stroke-miterlimit:10;}.cls-4{stroke:#f8d2ae;}.cls-4,.cls-8,.cls-9{stroke-width:40px;}.cls-5{fill:#f7b28f;}.cls-6{fill:#f8c0ac;}.cls-7{stroke:#936037;stroke-width:10px;}.cls-8{stroke:#f7c0ac;}.cls-9{stroke:#f7cea6;}.cls-10{fill:#fbcdac;}.cls-11{fill:#f191ab;}.cls-12{fill:#f8d1ad;}</style></defs><title>dickpic_dreng</title><path class="cls-1" d="M425.94,489.59,194.22,555.23c-30.49,8.62-60.72-10.27-67.16-42L5.26,131.05C-10.38,97.58,11,71.26,41.48,62.65L278.14,2.18c48.57-8.82,61.51,10,68,41.69L475.42,411.76C505.08,478.76,462.72,474.5,425.94,489.59Z"/><path class="cls-2" d="M313.41,522l-16.64,4.46a11.36,11.36,0,0,1-1.39.59L255.2,538.72a8.92,8.92,0,0,1-7.14-.63h0a5.83,5.83,0,0,1-1.78-1.63l-16.11-23-52.63-75-28.73-41c-11.59-16.51-3.47-39.31,18.13-50.91a55.53,55.53,0,0,1,6.49-3,56.21,56.21,0,0,1,13.94-3.36c14-1.51,27.68,2.45,36.3,11.2a32.74,32.74,0,0,1,3.38,4L238,371.1l46.87,66.8,1.29,1.85,39.39,59.93c21.12,20.6,4.86,14.82-.45,18.74C324.57,518.8,314,521.68,313.41,522Z"/><path class="cls-2" d="M472.06,473.62l-15.5,5.71-48.2,16.09L398,493.75l-17.12-23.84-53.68-74.74-29.3-40.79c-11.82-16.45-3.22-39.39,19.2-51.22a60.37,60.37,0,0,1,21.17-6.53c14.49-1.65,28.58,2.19,37.4,10.89a32.06,32.06,0,0,1,3.44,4l11.15,15.53L438,393.6l1.31,1.85,40.14,59.71C486.57,463,477.31,469.65,472.06,473.62Z"/><path class="cls-2" d="M424.08,259.59l38.58,116.56c-7.66,1.39-21.93-1.38-29-5.13a35.59,35.59,0,0,1-9.39-7.22L204.08,127.13a36,36,0,0,1,1.34-50.54A34.76,34.76,0,0,1,220,68.26a35.18,35.18,0,0,1,31.67,6.57,36.67,36.67,0,0,1,3.71,3.47l12.67,13.62Z"/><rect class="cls-2" x="70.51" y="167.07" width="72.34" height="329.68" rx="32.63" transform="translate(-95.23 47.69) rotate(-17.57)"/><path class="cls-3" d="M434.14,372.54a96.86,96.86,0,0,1-21.56,92.74l-4.32,1.2-57.84,16.07L305.63,495h0l-2,.56-82.74,23A96.36,96.36,0,0,1,194.69,490L174.5,456.53l-3.44-5.69L142.21,403l-98-162.47a95.93,95.93,0,0,1-6.66-13.19v0l0,0A97.3,97.3,0,0,1,38,152,94.59,94.59,0,0,1,75.6,108.34l67-41.07A92.59,92.59,0,0,1,155,60.88h0a94.64,94.64,0,0,1,96.68,14,96,96,0,0,1,16.38,17.09s0,0,0,0,0,0,0,0a96.43,96.43,0,0,1,5.41,8L424,349.46A97.28,97.28,0,0,1,433.68,371C433.84,371.52,434,372,434.14,372.54Z"/><line class="cls-4" x1="228.96" y1="461.68" x2="177.14" y2="430.07"/><path class="cls-5" d="M344.46,441.32h0a26,26,0,0,1-36.91-2.77L195.39,307.93a26.65,26.65,0,0,1,2.48-37.33h0a26,26,0,0,1,36.91,2.78L346.94,404A26.65,26.65,0,0,1,344.46,441.32Z"/><ellipse class="cls-6" cx="362.19" cy="408.56" rx="45.29" ry="45.91" transform="translate(-97.12 113.37) rotate(-15.71)"/><path class="cls-6" d="M361.07,438.52a46.54,46.54,0,0,1,1.64,15.92,46,46,0,0,1-12.29,28.11L305.63,495h0q-1-.27-1.92-.6a46.11,46.11,0,0,1-29.83-31.33A46.59,46.59,0,0,1,272.44,445,45.8,45.8,0,0,1,288,415.74a44.88,44.88,0,0,1,29-10.83A45.64,45.64,0,0,1,353.36,423,46.29,46.29,0,0,1,361.07,438.52Z"/><line class="cls-7" x1="275.81" y1="445.49" x2="260.09" y2="443.25"/><line class="cls-8" x1="135.33" y1="498.59" x2="143.64" y2="523.78"/><line class="cls-9" x1="154.57" y1="492.58" x2="164.98" y2="518.36"/><line class="cls-8" x1="174.86" y1="483.41" x2="188.74" y2="512.98"/><line class="cls-9" x1="195.4" y1="475.94" x2="211.29" y2="499.22"/><path class="cls-10" d="M132.72,54.3c-.68,1.16-1.41,2.31-2.16,3.43-.45.69-.91,1.37-1.39,2-15,21.41-37.65,34.19-63,38A111.48,111.48,0,0,1,46.35,99,126.41,126.41,0,0,1,3.93,90.14L12,76.4C13.82,74.16,38.21,60.51,41,59.72l89.39-19.54Z"/><ellipse class="cls-11" cx="116.01" cy="245.76" rx="7.23" ry="7.33" transform="translate(-62.23 40.61) rotate(-15.71)"/><ellipse class="cls-11" cx="229.9" cy="169.6" rx="7.23" ry="7.33" transform="matrix(0.96, -0.27, 0.27, 0.96, -37.34, 68.61)"/><path class="cls-10" d="M115.29,115.93A33.12,33.12,0,0,1,106,120.2a33.67,33.67,0,0,1-33.77-9.67,35.21,35.21,0,0,1-3.6-4.64l-3.78-5.83-5.49-8.48A34.42,34.42,0,0,1,54.17,78l65-18.06,1.55,2.4,4.15,6.4a34.3,34.3,0,0,1-9.59,47.15Z"/><path class="cls-12" d="M194.49,480.94l-43.64,25.21a23.42,23.42,0,0,1-32.06-8.9l-11.9-20.91A23.79,23.79,0,0,1,115.46,444l43.65-25.22a23.42,23.42,0,0,1,32.06,8.91l11.89,20.9A23.8,23.8,0,0,1,194.49,480.94Z"/></svg>
