<svg id="Layer_1" data-name="Layer 1" xmlns="http://www.w3.org/2000/svg" width="680" height="860" viewBox="0 0 680 860"><defs><style>.cls-1{fill:#5f2483;}.cls-2{fill:#f8d2ae;}.cls-3{fill:#f8c79d;}.cls-4{fill:#f7b28f;}.cls-5{fill:#f8c0ac;}.cls-6{fill:none;stroke:#936037;stroke-linecap:round;stroke-miterlimit:10;stroke-width:10px;}.cls-7{fill:#fbcdac;}.cls-8{fill:#f191ab;}</style></defs><title>dickpic_til_dreng</title><path class="cls-1" d="M651.14,46.6v756L542,802.24l-7.33,0-98.09-.33-76-.25h-3.41l-140.31-.47L47.14,800.6V44.6l26.37.09,76.13.25,110.24.36,5.71,0,53.78.18Z"/><path class="cls-2" d="M651.14,790.14V802.6L542,802.24l-7.33,0-12.41-44.46L483.37,618.37l-21.24-76.09a57.71,57.71,0,0,1,108.4-38.76,59.61,59.61,0,0,1,2.76,7.74l8.08,29L616,664.33l1,3.43Z"/><path class="cls-2" d="M651.14,488.11V680.66a57.66,57.66,0,0,1-45.79-30.77L363.71,186.55a57.71,57.71,0,0,1,98-60.36,59.28,59.28,0,0,1,4.3,7l13.9,26.66Z"/><rect class="cls-2" x="63.01" y="196.02" width="115.41" height="496.31" rx="57.7" transform="translate(-14.14 4.09) rotate(-1.83)"/><path class="cls-3" d="M617,667.76a155.62,155.62,0,0,1-75,134.48l-7.33,0-98.09-.33-76-.25h-3.41l-140.31-.47a154.69,154.69,0,0,1-28.58-55.67l-17-60.76-2.88-10.33-24.22-86.81L62,292.72a155.8,155.8,0,0,1-4.64-23.37v-.07a.13.13,0,0,0,0-.06A155.35,155.35,0,0,1,169.93,101.31L293.51,66.83a154.57,154.57,0,0,1,22.32-4.5h0a155.55,155.55,0,0,1,145.91,63.87,153.75,153.75,0,0,1,18.2,33.66s0,0,0,0v0a156.23,156.23,0,0,1,4.95,14.83L611.24,627.52a155.1,155.1,0,0,1,5.69,37.68C617,666.05,617,666.91,617,667.76Z"/><rect class="cls-4" x="325.26" y="389.1" width="85.4" height="363.58" rx="42.7" transform="translate(-208.3 211.39) rotate(-25.24)"/><circle class="cls-5" cx="487.86" cy="692.24" r="74.01"/><path class="cls-5" d="M472.84,738.24a73.84,73.84,0,0,1-36.24,63.65l-76-.25h0c-.93-.56-1.85-1.15-2.76-1.76a74,74,0,1,1,115-61.64Z"/><line class="cls-6" x1="335.64" y1="711.82" x2="311.9" y2="701.49"/><path class="cls-7" d="M281.91,45.32c-1.59,1.5-3.24,3-4.92,4.38-1,.87-2,1.72-3.09,2.56C240.77,78.91,199.55,88.86,158,83.76a183.89,183.89,0,0,1-31.75-6.83A207.67,207.67,0,0,1,63.46,44.69l86.58.25,125.38.36Z"/><circle class="cls-8" cx="172.69" cy="332.17" r="11.82"/><circle class="cls-8" cx="385.53" cy="263.72" r="11.82"/><path class="cls-7" d="M229,130.42a54.94,54.94,0,0,1-69-36l-3.37-10.7L151.77,68.2a54.75,54.75,0,0,1-2.13-23.26l110.24.36,1.38,4.4L265,61.45a54.45,54.45,0,0,1,2.41,12.67A55,55,0,0,1,229,130.42Z"/></svg>
