<svg id="Layer_1" data-name="Layer 1" xmlns="http://www.w3.org/2000/svg" width="604" height="767.55" viewBox="0 0 604 767.55"><defs><style>.cls-1{fill:#5f2483;}.cls-2{fill:#f8d2ae;}.cls-3{fill:#f8c79d;}.cls-4,.cls-7,.cls-8,.cls-9{fill:none;stroke-linecap:round;stroke-miterlimit:10;}.cls-4{stroke:#f8d2ae;}.cls-4,.cls-8,.cls-9{stroke-width:40px;}.cls-5{fill:#f7b28f;}.cls-6{fill:#f8c0ac;}.cls-7{stroke:#936037;stroke-width:10px;}.cls-8{stroke:#f7c0ac;}.cls-9{stroke:#f7cea6;}.cls-10{fill:#fbcdac;}.cls-11{fill:#f191ab;}.cls-12{fill:#f8d1ad;}</style></defs><title>dickpic_dreng</title><path class="cls-1" d="M604,1.12V767.54l-109.12-.36h-7.33l-98.09-.33-76-.25h-3.41l-140.31-.48L0,765.51V-.91l26.37.09,76.13.25L212.74-.2h5.71l53.78.2Z"/><path class="cls-2" d="M604,754.91v12.64l-109.12-.37h-7.33l-12.41-45.07L436.23,580.77,415,503.64c-8.57-31.11,9.37-63.39,40.06-72.06a56.69,56.69,0,0,1,27.42-.92,57.89,57.89,0,0,1,40.92,33.68,60.37,60.37,0,0,1,2.76,7.85l8.08,29.36,34.65,125.82,1,3.48Z"/><path class="cls-2" d="M604,448.72v195.2a57.76,57.76,0,0,1-45.79-31.19L316.57,143c-14.74-28.64-3.78-64,24.48-78.91a56.75,56.75,0,0,1,26.64-6.64A57.53,57.53,0,0,1,414.6,81.81a60.81,60.81,0,0,1,4.3,7.09l13.9,27Z"/><rect class="cls-2" x="16.45" y="152.58" width="115.41" height="538.72" rx="57.7" transform="translate(-13.66 2.63) rotate(-1.86)"/><path class="cls-3" d="M569.83,630.85c.58,55.54-28.1,107.64-75,136.33H487.5l-98.09-.33-76-.26H310l-140.31-.47a157.62,157.62,0,0,1-28.58-56.44l-17-61.6-2.88-10.47-24.22-88-82.17-299a160.5,160.5,0,0,1-4.64-23.69v-.13A159,159,0,0,1,44.31,108.52a154.53,154.53,0,0,1,78.48-51.94L246.37,21.63a151.78,151.78,0,0,1,22.32-4.56h0C326,9.66,381.93,35.42,414.6,81.81a156.66,156.66,0,0,1,18.2,34.12h0q2.82,7.32,4.95,15l126.32,459a159.24,159.24,0,0,1,5.69,38.2C569.81,629.11,569.83,630,569.83,630.85Z"/><line class="cls-4" x1="207.64" y1="680.25" x2="140.12" y2="607.6"/><path class="cls-5" d="M398.33,699.34h0a42.45,42.45,0,0,1-56.56-20.12l-.27-.58L222.89,423.55c-10.06-21.63-.92-47.42,20.42-57.62h0a42.45,42.45,0,0,1,56.56,20.12l.27.58L418.75,641.72C428.81,663.35,419.67,689.15,398.33,699.34Z"/><ellipse class="cls-6" cx="440.72" cy="655.66" rx="74.01" ry="75.03"/><path class="cls-6" d="M425.7,702.3a75.83,75.83,0,0,1-4.47,25.75,75,75,0,0,1-31.77,38.78l-76-.26h0c-.93-.57-1.85-1.16-2.76-1.78A75,75,0,0,1,280.52,723a76.33,76.33,0,0,1,2.9-49.68,74.92,74.92,0,0,1,37.37-39.17,73.46,73.46,0,0,1,50.4-4.2,74.54,74.54,0,0,1,49.24,44.57A75.49,75.49,0,0,1,425.7,702.3Z"/><line class="cls-7" x1="288.5" y1="675.52" x2="264.76" y2="665.04"/><line class="cls-8" x1="44.03" y1="696.86" x2="45.96" y2="740.16"/><line class="cls-9" x1="76.96" y1="695.93" x2="81.92" y2="741.09"/><line class="cls-8" x1="112.92" y1="690.48" x2="121.67" y2="743.13"/><line class="cls-9" x1="148.55" y1="687.82" x2="163.24" y2="731.47"/><path class="cls-10" d="M234.77-.18c-1.59,1.52-3.24,3-4.93,4.44-1,.88-2,1.74-3.08,2.59-33.13,27-74.35,37.11-115.88,31.94a182.08,182.08,0,0,1-31.74-6.93A206.63,206.63,0,0,1,16.32-.82l86.58.25L228.27-.2Z"/><ellipse class="cls-11" cx="125.54" cy="290.63" rx="11.82" ry="11.98"/><ellipse class="cls-11" cx="338.38" cy="221.23" rx="11.82" ry="11.98"/><path class="cls-10" d="M181.86,86.09a54.47,54.47,0,0,1-16.52,2.59,55,55,0,0,1-48.85-30.16,55.59,55.59,0,0,1-3.6-8.88l-3.37-10.85L104.63,23A56.3,56.3,0,0,1,102.5-.57L212.74-.2l1.38,4.46,3.7,11.91A56,56,0,0,1,220.23,29C222,54.18,206.62,78.19,181.86,86.09Z"/><path class="cls-12" d="M144.91,695.28,65.09,715.63A38.25,38.25,0,0,1,18.7,687.79l-.09-.35L9.14,649.29C4,628.49,16.44,607.39,37,602.16l79.82-20.35a38.25,38.25,0,0,1,46.36,27.9c0,.1,0,.19.07.29l9.46,38.16C177.87,669,165.42,690.05,144.91,695.28Z"/></svg>
