<svg id="Layer_1" data-name="Layer 1" xmlns="http://www.w3.org/2000/svg" width="1457" height="1064" viewBox="0 0 1457 1064"><defs><style>.cls-1{opacity:0.5;}.cls-2{fill:#706d6c;}.cls-3{fill:#fff;}</style></defs><title>dreng2pik</title><g class="cls-1"><path class="cls-2" d="M232.52,1030.5a153.47,153.47,0,0,1-153-153v-692a153.47,153.47,0,0,1,153-153h992a153.47,153.47,0,0,1,153,153v692a153.47,153.47,0,0,1-153,153Z"/><path class="cls-3" d="M1224.48,33a150.73,150.73,0,0,1,59.22,12A154,154,0,0,1,1365,126.3a150.73,150.73,0,0,1,12,59.22v692a150.73,150.73,0,0,1-12,59.22A154,154,0,0,1,1283.7,1018a150.73,150.73,0,0,1-59.22,12h-992a150.73,150.73,0,0,1-59.22-12A154,154,0,0,1,92,936.7a150.73,150.73,0,0,1-12-59.22v-692A150.73,150.73,0,0,1,92,126.3,154,154,0,0,1,173.3,45a150.73,150.73,0,0,1,59.22-12h992m0-1h-992C148.08,32,79,101.09,79,185.52v692C79,961.91,148.08,1031,232.52,1031h992c84.44,0,153.52-69.09,153.52-153.52v-692C1378,101.09,1308.92,32,1224.48,32Z"/></g><path class="cls-3" d="M265.29,147.17q0,12.72-5.19,19.46t-14.92,6.73H232.59V122h13.75q9,0,14,6.63T265.29,147.17Zm-9.81.28q0-17.23-9.5-17.23h-3.83V165h3.1a8.3,8.3,0,0,0,7.73-4.37Q255.47,156.24,255.48,147.45Z"/><path class="cls-3" d="M271.89,124a5,5,0,0,1,1.36-3.67,5.11,5.11,0,0,1,3.78-1.35,5,5,0,0,1,3.65,1.35,4.9,4.9,0,0,1,1.37,3.67,4.82,4.82,0,0,1-1.4,3.71A5.09,5.09,0,0,1,277,129a5.23,5.23,0,0,1-3.73-1.32A4.82,4.82,0,0,1,271.89,124Zm9.74,49.4h-9.35V134.2h9.35Z"/><path class="cls-3" d="M309.16,173.36V150a15.81,15.81,0,0,0-1-6.44,3.43,3.43,0,0,0-3.3-2.18,4.63,4.63,0,0,0-4.43,3q-1.41,3-1.41,10.14v18.81h-9.35V134.2h7.42l1.12,5h.6a9.67,9.67,0,0,1,9.14-5.76q5.34,0,8,3.65t2.65,10.69v25.56Z"/><path class="cls-3" d="M361.61,133.46q5.36,0,8.41,5.31c2,3.53,3.05,8.52,3.05,14.94s-1,11.5-3.07,15-4.89,5.31-8.53,5.31a9.33,9.33,0,0,1-4.66-1.14,11.38,11.38,0,0,1-3.81-4h-.6l-1.58,4.47h-6.89v-54.7h9.35v12.79c0,.54,0,1.1,0,1.69s-.18,2.64-.46,6.15h.49a11.91,11.91,0,0,1,3.73-4.53A8.22,8.22,0,0,1,361.61,133.46Zm-3.23,7.94a4,4,0,0,0-3.85,2.5c-.79,1.66-1.2,4.59-1.25,8.79v.95c0,4.54.41,7.74,1.21,9.59a4.09,4.09,0,0,0,4,2.78q5.06,0,5.06-12.44Q363.51,141.41,358.38,141.4Z"/><path class="cls-3" d="M394.1,174.06a14.13,14.13,0,0,1-11.59-5.22q-4.23-5.22-4.23-14.78t3.83-15.15a12.31,12.31,0,0,1,10.69-5.45,12.17,12.17,0,0,1,10.09,4.66q3.69,4.65,3.69,13.06v5H387.77q.11,5.24,2.14,7.79a6.84,6.84,0,0,0,5.63,2.54,18.29,18.29,0,0,0,9.35-2.84v7.7A20.6,20.6,0,0,1,394.1,174.06Zm-1.37-33.4a3.82,3.82,0,0,0-3.31,2.13,14.29,14.29,0,0,0-1.51,6.59h9.49a14.09,14.09,0,0,0-1.3-6.5A3.74,3.74,0,0,0,392.73,140.66Z"/><path class="cls-3" d="M423.07,174.06q-5.42,0-8.55-5.34t-3.13-14.87q0-9.57,3.06-15t8.44-5.41a8,8,0,0,1,4.62,1.32,11.92,11.92,0,0,1,3.61,4.44h.56q-.42-5.34-.42-7.49V118.66h9.35v54.7h-7l-1.58-5.1h-.32Q428.77,174.07,423.07,174.06Zm3-7.91a4,4,0,0,0,3.8-2.37c.79-1.58,1.23-4.46,1.3-8.63v-1.23q0-6.82-1.22-9.6a4.11,4.11,0,0,0-4-2.78q-2.6,0-3.77,3.18A27.93,27.93,0,0,0,421,154a26.55,26.55,0,0,0,1.19,9.12Q423.42,166.15,426.09,166.15Z"/><path class="cls-3" d="M469.51,161.9q0,5.73-3.36,8.95t-9.9,3.21a18.38,18.38,0,0,1-9.59-2.28v-8.12a18,18,0,0,0,4.51,2.21,14.33,14.33,0,0,0,4.56.88,4.7,4.7,0,0,0,3.32-1.07,3.71,3.71,0,0,0,1.14-2.83,4.56,4.56,0,0,0-1.19-3.13,20.63,20.63,0,0,0-4.4-3.27,18.12,18.12,0,0,1-6.1-5.4,12.2,12.2,0,0,1-1.84-6.76,9.85,9.85,0,0,1,3.42-7.91q3.44-2.92,9.41-2.92a18.84,18.84,0,0,1,9.81,2.74l-3.06,6.71a14.27,14.27,0,0,0-6.61-2,3.54,3.54,0,0,0-2.69.94,3.26,3.26,0,0,0-.9,2.32,4.09,4.09,0,0,0,1.11,2.82,19.67,19.67,0,0,0,4.13,3.06,25.87,25.87,0,0,1,5.13,3.76,11.15,11.15,0,0,1,2.29,3.51A12.09,12.09,0,0,1,469.51,161.9Z"/><path class="cls-3" d="M489,166.15a10.89,10.89,0,0,0,4.25-1v7.31c-1.52,1.06-3.81,1.58-6.85,1.58q-5.1,0-7.56-3t-2.46-9.12V141.61h-3.8v-4.18l4.89-3.38,2.39-8.29h6v8.44H493v7.41h-7.1v20.6Q485.86,166.16,489,166.15Z"/><path class="cls-3" d="M513.21,174.06a14.13,14.13,0,0,1-11.59-5.22q-4.23-5.22-4.23-14.78t3.83-15.15a12.31,12.31,0,0,1,10.69-5.45A12.17,12.17,0,0,1,522,138.12q3.69,4.65,3.69,13.06v5H506.88Q507,161.41,509,164a6.84,6.84,0,0,0,5.63,2.54,18.29,18.29,0,0,0,9.35-2.84v7.7A20.6,20.6,0,0,1,513.21,174.06Zm-1.37-33.4a3.82,3.82,0,0,0-3.31,2.13,14.29,14.29,0,0,0-1.51,6.59h9.49a14.22,14.22,0,0,0-1.3-6.5A3.74,3.74,0,0,0,511.84,140.66Z"/><path class="cls-3" d="M555.92,173.36,545.69,134.2h9.7l5,22.67q.32,1.59.75,4.62c.3,2,.48,3.49.55,4.38h.14a30.32,30.32,0,0,1,.3-3c.17-1.31.35-2.52.54-3.62s2-9.45,5.42-25h9.7l-10.27,39.16Z"/><path class="cls-3" d="M596.21,174.06a14.1,14.1,0,0,1-11.58-5.22q-4.25-5.22-4.24-14.78t3.83-15.15a12.33,12.33,0,0,1,10.69-5.45A12.16,12.16,0,0,1,605,138.12q3.69,4.65,3.69,13.06v5H589.88Q590,161.41,592,164a6.82,6.82,0,0,0,5.62,2.54,18.26,18.26,0,0,0,9.35-2.84v7.7A20.58,20.58,0,0,1,596.21,174.06Zm-1.37-33.4a3.8,3.8,0,0,0-3.3,2.13,14.27,14.27,0,0,0-1.52,6.59h9.5a14.07,14.07,0,0,0-1.31-6.5A3.74,3.74,0,0,0,594.84,140.66Z"/><path class="cls-3" d="M634.39,173.36V150a15.81,15.81,0,0,0-1-6.44,3.43,3.43,0,0,0-3.3-2.18,4.63,4.63,0,0,0-4.43,3q-1.41,3-1.41,10.14v18.81h-9.35V134.2h7.42l1.12,5h.6a9.67,9.67,0,0,1,9.14-5.76q5.34,0,8,3.65t2.65,10.69v25.56Z"/><path class="cls-3" d="M685.51,173.36H676v-43h-9.84V122h29.21v8.4h-9.84Z"/><path class="cls-3" d="M726.82,153.71q0,9.63-4.08,15a14.24,14.24,0,0,1-19.13,2.9,15.68,15.68,0,0,1-5.31-7.08,28.85,28.85,0,0,1-1.86-10.81q0-9.53,4-14.89a13.26,13.26,0,0,1,11.22-5.36,13.06,13.06,0,0,1,11,5.46Q726.82,144.39,726.82,153.71Zm-20.82,0q0,6.12,1.34,9.24t4.29,3.13q5.63,0,5.62-12.37,0-6.15-1.35-9.2a4.53,4.53,0,0,0-8.56,0Q706,147.56,706,153.71Z"/><path class="cls-3" d="M751.07,133.46q5.35,0,8.41,5.31c2,3.53,3.06,8.52,3.06,14.94s-1,11.5-3.08,15-4.89,5.31-8.53,5.31a9.29,9.29,0,0,1-4.65-1.14,11.31,11.31,0,0,1-3.82-4h-.6l-1.58,4.47h-6.89v-54.7h9.35v12.79c0,.54,0,1.1,0,1.69s-.18,2.64-.46,6.15h.49a11.91,11.91,0,0,1,3.73-4.53A8.22,8.22,0,0,1,751.07,133.46Zm-3.23,7.94a4,4,0,0,0-3.85,2.5q-1.17,2.49-1.25,8.79v.95q0,6.81,1.22,9.59a4.07,4.07,0,0,0,3.95,2.78q5.07,0,5.06-12.44Q753,141.41,747.84,141.4Z"/><path class="cls-3" d="M768.79,124a4.94,4.94,0,0,1,1.36-3.67,5.11,5.11,0,0,1,3.78-1.35,5,5,0,0,1,3.65,1.35,5.61,5.61,0,0,1,0,7.38,5.09,5.09,0,0,1-3.62,1.32,5.23,5.23,0,0,1-3.73-1.32A4.82,4.82,0,0,1,768.79,124Zm9.74,49.4h-9.35V134.2h9.35Z"/><path class="cls-3" d="M805.74,173.36,803.88,168h-.21a13.29,13.29,0,0,1-4.29,4.74,10.88,10.88,0,0,1-5.59,1.3,8.11,8.11,0,0,1-6.8-3.23c-1.66-2.16-2.48-5.16-2.48-9q0-6.2,3.39-9.2T798,149.31l5.21-.21v-2.81c0-3.66-1.59-5.49-4.75-5.49q-3.51,0-8.09,2.75l-3.23-6.47a23.29,23.29,0,0,1,12.69-3.69q6.23,0,9.48,3.57t3.25,10.1v26.3Zm-8.12-6.61a4.72,4.72,0,0,0,4.1-2.3,11,11,0,0,0,1.53-6.14V155l-2.89.14a6.57,6.57,0,0,0-4.69,1.83,7.1,7.1,0,0,0-1.49,4.92C794.18,165.13,795.32,166.75,797.62,166.75Z"/><path class="cls-3" d="M841.18,161.9q0,5.73-3.36,8.95t-9.89,3.21a18.39,18.39,0,0,1-9.6-2.28v-8.12a18,18,0,0,0,4.52,2.21,14.27,14.27,0,0,0,4.55.88,4.7,4.7,0,0,0,3.32-1.07,3.71,3.71,0,0,0,1.14-2.83,4.56,4.56,0,0,0-1.19-3.13,20.36,20.36,0,0,0-4.4-3.27,18.12,18.12,0,0,1-6.1-5.4,12.2,12.2,0,0,1-1.84-6.76,9.83,9.83,0,0,1,3.43-7.91q3.42-2.92,9.4-2.92A18.84,18.84,0,0,1,841,136.2l-3.06,6.71a14.27,14.27,0,0,0-6.61-2,3.55,3.55,0,0,0-2.69.94,3.26,3.26,0,0,0-.9,2.32,4.09,4.09,0,0,0,1.11,2.82A19.67,19.67,0,0,0,833,150a26.32,26.32,0,0,1,5.14,3.76,11.29,11.29,0,0,1,2.28,3.51A12.09,12.09,0,0,1,841.18,161.9Z"/><path class="cls-3" d="M885.9,161.9q0,5.73-3.36,8.95t-9.9,3.21a18.38,18.38,0,0,1-9.59-2.28v-8.12a18,18,0,0,0,4.51,2.21,14.33,14.33,0,0,0,4.56.88,4.7,4.7,0,0,0,3.32-1.07,3.71,3.71,0,0,0,1.14-2.83,4.56,4.56,0,0,0-1.19-3.13,20.63,20.63,0,0,0-4.4-3.27,18.12,18.12,0,0,1-6.1-5.4,12.2,12.2,0,0,1-1.84-6.76,9.85,9.85,0,0,1,3.42-7.91q3.43-2.92,9.41-2.92a18.84,18.84,0,0,1,9.81,2.74l-3.06,6.71a14.27,14.27,0,0,0-6.61-2,3.54,3.54,0,0,0-2.69.94,3.26,3.26,0,0,0-.9,2.32,4.09,4.09,0,0,0,1.11,2.82,19.67,19.67,0,0,0,4.13,3.06,25.87,25.87,0,0,1,5.13,3.76,11.15,11.15,0,0,1,2.29,3.51A12.09,12.09,0,0,1,885.9,161.9Z"/><path class="cls-3" d="M906.25,174.06a14.11,14.11,0,0,1-11.58-5.22q-4.23-5.22-4.24-14.78t3.84-15.15A12.3,12.3,0,0,1,905,133.46,12.16,12.16,0,0,1,915,138.12q3.69,4.65,3.69,13.06v5h-18.8q.11,5.24,2.14,7.79a6.82,6.82,0,0,0,5.63,2.54,18.32,18.32,0,0,0,9.35-2.84v7.7A20.61,20.61,0,0,1,906.25,174.06Zm-1.37-33.4a3.82,3.82,0,0,0-3.3,2.13,14.29,14.29,0,0,0-1.51,6.59h9.49a14.22,14.22,0,0,0-1.3-6.5A3.75,3.75,0,0,0,904.88,140.66Z"/><path class="cls-3" d="M944.43,173.36V150a15.81,15.81,0,0,0-1-6.44,3.43,3.43,0,0,0-3.3-2.18,4.63,4.63,0,0,0-4.43,3q-1.41,3-1.41,10.14v18.81h-9.35V134.2h7.42l1.12,5h.6a9.67,9.67,0,0,1,9.14-5.76c3.57,0,6.23,1.22,8,3.65s2.66,6,2.66,10.69v25.56Z"/><path class="cls-3" d="M971.71,174.06q-5.4,0-8.54-5.34T960,153.85q0-9.57,3.06-15t8.44-5.41a8,8,0,0,1,4.62,1.32,12,12,0,0,1,3.61,4.44h.56q-.42-5.34-.42-7.49V118.66h9.35v54.7h-7l-1.59-5.1h-.31Q977.42,174.07,971.71,174.06Zm3-7.91a4,4,0,0,0,3.8-2.37c.79-1.58,1.23-4.46,1.3-8.63v-1.23q0-6.82-1.22-9.6a4.12,4.12,0,0,0-4-2.78q-2.6,0-3.78,3.18a28.24,28.24,0,0,0-1.17,9.27c0,4,.39,7.09,1.19,9.12S973,166.15,974.74,166.15Z"/><path class="cls-3" d="M1011.58,174.06a14.1,14.1,0,0,1-11.58-5.22q-4.25-5.22-4.24-14.78t3.83-15.15a12.33,12.33,0,0,1,10.69-5.45,12.16,12.16,0,0,1,10.09,4.66q3.69,4.65,3.69,13.06v5h-18.81q.11,5.24,2.15,7.79a6.82,6.82,0,0,0,5.62,2.54,18.32,18.32,0,0,0,9.36-2.84v7.7A20.61,20.61,0,0,1,1011.58,174.06Zm-1.37-33.4a3.81,3.81,0,0,0-3.3,2.13,14.4,14.4,0,0,0-1.52,6.59h9.5a14.22,14.22,0,0,0-1.3-6.5A3.75,3.75,0,0,0,1010.21,140.66Z"/><path class="cls-3" d="M1047,133.46a11,11,0,0,1,3.37.52l-1.09,9.07a7.86,7.86,0,0,0-2.56-.35,6,6,0,0,0-5.24,2.69c-1.22,1.8-1.83,4.4-1.83,7.82v20.15h-9.35V134.2h7.7l1,6.11h.32a14.12,14.12,0,0,1,3.38-5.27A6.24,6.24,0,0,1,1047,133.46Z"/><path class="cls-3" d="M1082.6,174.06q-5.41,0-8.55-5.34t-3.12-14.87q0-9.57,3-15t8.44-5.41a8,8,0,0,1,4.62,1.32,11.83,11.83,0,0,1,3.61,4.44h.56q-.42-5.34-.42-7.49V118.66h9.35v54.7h-7l-1.58-5.1h-.32Q1088.3,174.07,1082.6,174.06Zm3-7.91a4,4,0,0,0,3.8-2.37c.79-1.58,1.23-4.46,1.3-8.63v-1.23c0-4.55-.41-7.75-1.21-9.6a4.12,4.12,0,0,0-4-2.78q-2.61,0-3.78,3.18a27.93,27.93,0,0,0-1.18,9.27,26.55,26.55,0,0,0,1.19,9.12Q1082.95,166.15,1085.62,166.15Z"/><path class="cls-3" d="M1107.7,124a5,5,0,0,1,1.35-3.67,5.13,5.13,0,0,1,3.78-1.35,5,5,0,0,1,3.66,1.35,4.94,4.94,0,0,1,1.37,3.67,4.82,4.82,0,0,1-1.41,3.71,5.06,5.06,0,0,1-3.62,1.32,5.21,5.21,0,0,1-3.72-1.32A4.82,4.82,0,0,1,1107.7,124Zm9.74,49.4h-9.35V134.2h9.35Z"/><path class="cls-3" d="M1153.65,134.27v5.48L1149,140.8a12.57,12.57,0,0,1,1.37,6.19q0,6.22-3.37,9.74t-9.42,3.52a8.7,8.7,0,0,1-2.6-.29,11.59,11.59,0,0,0-1.27,1.34,2.8,2.8,0,0,0-.6,1.83q0,2.46,4.26,2.46H1143q5,0,7.68,2.69t2.69,8.1q0,6.83-4.57,10.55t-13.15,3.73q-6.51,0-10-2.83a9.78,9.78,0,0,1-3.52-8.07,8.86,8.86,0,0,1,2-5.75,11.27,11.27,0,0,1,5.55-3.6,6.8,6.8,0,0,1-2.93-2.18,5.46,5.46,0,0,1-1.15-3.45,6.12,6.12,0,0,1,.36-2.16,6.69,6.69,0,0,1,1-1.83,19.58,19.58,0,0,1,2.65-2.55,10,10,0,0,1-3.83-4.53,16,16,0,0,1-1.41-6.79q0-6.43,3.38-9.95t9.67-3.51a16.08,16.08,0,0,1,2.74.26,15.67,15.67,0,0,1,2.35.55Zm-23,44.78a4.44,4.44,0,0,0,1.46,3.57,6.18,6.18,0,0,0,4.17,1.25q4.24,0,6.38-1.62a5.26,5.26,0,0,0,2.12-4.43,3.77,3.77,0,0,0-1.14-3.12c-.76-.61-2.18-.92-4.27-.92h-4.54a3.72,3.72,0,0,0-3,1.43A6,6,0,0,0,1130.62,179.05ZM1133.5,147q0,6.93,3.91,6.93t3.79-7q0-7.17-3.79-7.17T1133.5,147Z"/><path class="cls-3" d="M1190.6,174.06a14.13,14.13,0,0,1-11.59-5.22q-4.23-5.22-4.23-14.78t3.83-15.15a12.31,12.31,0,0,1,10.69-5.45,12.17,12.17,0,0,1,10.09,4.66q3.69,4.65,3.69,13.06v5h-18.81q.11,5.24,2.14,7.79a6.84,6.84,0,0,0,5.63,2.54,18.29,18.29,0,0,0,9.35-2.84v7.7A20.6,20.6,0,0,1,1190.6,174.06Zm-1.37-33.4a3.82,3.82,0,0,0-3.31,2.13,14.29,14.29,0,0,0-1.51,6.59h9.49a14.09,14.09,0,0,0-1.3-6.5A3.74,3.74,0,0,0,1189.23,140.66Z"/><path class="cls-3" d="M1222.87,166.15a10.89,10.89,0,0,0,4.25-1v7.31c-1.52,1.06-3.8,1.58-6.85,1.58q-5.1,0-7.56-3t-2.46-9.12V141.61h-3.8v-4.18l4.89-3.38,2.39-8.29h6v8.44h7.1v7.41h-7.1v20.6Q1219.71,166.16,1222.87,166.15Z"/><path class="cls-3" d="M218.9,219.86q5.34,0,8.4,5.31t3.06,14.94q0,9.73-3.08,15t-8.52,5.31a9.33,9.33,0,0,1-4.66-1.14,11.31,11.31,0,0,1-3.82-4h-.59l-1.59,4.47h-6.89v-54.7h9.35v12.79c0,.54,0,1.1,0,1.69s-.18,2.64-.46,6.15h.49a12,12,0,0,1,3.73-4.53A8.26,8.26,0,0,1,218.9,219.86Zm-3.24,7.94a4,4,0,0,0-3.85,2.5q-1.17,2.49-1.25,8.79V240q0,6.81,1.22,9.59a4.08,4.08,0,0,0,3.95,2.78q5.07,0,5.06-12.44Q220.79,227.81,215.66,227.8Z"/><path class="cls-3" d="M236.62,210.36a5,5,0,0,1,1.35-3.67,5.11,5.11,0,0,1,3.78-1.35,5,5,0,0,1,3.65,1.35,4.91,4.91,0,0,1,1.38,3.67,4.82,4.82,0,0,1-1.41,3.71,5.09,5.09,0,0,1-3.62,1.32,5.23,5.23,0,0,1-3.73-1.32A4.82,4.82,0,0,1,236.62,210.36Zm9.73,49.4H237V220.59h9.35Z"/><path class="cls-3" d="M263.72,259.76h-9.35v-54.7h9.35Z"/><path class="cls-3" d="M280.91,259.76h-9.35v-54.7h9.35Z"/><path class="cls-3" d="M303.2,260.46a14.1,14.1,0,0,1-11.58-5.22q-4.25-5.22-4.24-14.78t3.83-15.15a12.33,12.33,0,0,1,10.69-5.45A12.18,12.18,0,0,1,312,224.51q3.69,4.67,3.69,13.07v5H296.87c.07,3.49.79,6.09,2.15,7.78a6.8,6.8,0,0,0,5.62,2.55,18.26,18.26,0,0,0,9.35-2.84v7.69A20.48,20.48,0,0,1,303.2,260.46Zm-1.37-33.4a3.8,3.8,0,0,0-3.3,2.13,14.27,14.27,0,0,0-1.52,6.59h9.5a14.18,14.18,0,0,0-1.3-6.5A3.76,3.76,0,0,0,301.83,227.06Z"/><path class="cls-3" d="M332.17,260.46q-5.42,0-8.54-5.34t-3.13-14.87q0-9.57,3.06-15t8.43-5.41a8.12,8.12,0,0,1,4.63,1.31,12,12,0,0,1,3.6,4.45h.56q-.42-5.34-.42-7.49V205.06h9.35v54.7h-7l-1.58-5.1h-.32Q337.87,260.46,332.17,260.46Zm3-7.91a4,4,0,0,0,3.8-2.37q1.2-2.37,1.3-8.63v-1.23q0-6.82-1.21-9.6a4.12,4.12,0,0,0-4-2.78q-2.61,0-3.78,3.18a27.93,27.93,0,0,0-1.18,9.27q0,6.08,1.2,9.12T335.19,252.55Z"/><path class="cls-3" d="M372,260.46a14.13,14.13,0,0,1-11.59-5.22q-4.23-5.22-4.23-14.78t3.83-15.15a13.24,13.24,0,0,1,20.78-.8q3.69,4.67,3.69,13.07v5H365.71c.07,3.49.78,6.09,2.14,7.78a6.82,6.82,0,0,0,5.63,2.55,18.29,18.29,0,0,0,9.35-2.84v7.69A20.51,20.51,0,0,1,372,260.46Zm-1.37-33.4a3.82,3.82,0,0,0-3.31,2.13,14.29,14.29,0,0,0-1.51,6.59h9.49a14.18,14.18,0,0,0-1.3-6.5A3.74,3.74,0,0,0,370.67,227.06Z"/><path class="cls-3" d="M401.85,252.2A108.83,108.83,0,0,1,395.66,269h-7.13q2.28-9.35,3.55-17.65h9.28Z"/><path class="cls-3" d="M447.45,259.76V236.42q0-8.62-4.33-8.62-3.22,0-4.53,3.39a28.44,28.44,0,0,0-1.3,9.76v18.81h-9.35v-54.7h9.35v12.16q0,2.35-.42,8.4h.49q2.81-5.76,8.65-5.76,5.37,0,8.12,3.64t2.74,10.7v25.56Z"/><path class="cls-3" d="M483.62,259.76l-1.86-5.34h-.21a13.29,13.29,0,0,1-4.29,4.74,10.88,10.88,0,0,1-5.59,1.3,8.11,8.11,0,0,1-6.8-3.23c-1.66-2.16-2.48-5.16-2.48-9q0-6.19,3.39-9.2t10.14-3.32l5.21-.21v-2.81c0-3.66-1.59-5.49-4.75-5.49q-3.51,0-8.09,2.75l-3.23-6.47a23.29,23.29,0,0,1,12.69-3.69q6.22,0,9.48,3.56t3.25,10.11v26.3Zm-8.12-6.61a4.72,4.72,0,0,0,4.1-2.3,11,11,0,0,0,1.53-6.14v-3.3l-2.89.14a6.53,6.53,0,0,0-4.69,1.83,7.1,7.1,0,0,0-1.49,4.92Q472.06,253.15,475.5,253.15Z"/><path class="cls-3" d="M517.55,259.76V236.42a15.78,15.78,0,0,0-1-6.44,3.43,3.43,0,0,0-3.31-2.18,4.64,4.64,0,0,0-4.43,3q-1.4,3-1.4,10.14v18.81H498V220.59h7.42l1.12,5h.6a9.67,9.67,0,0,1,9.14-5.76q5.34,0,8,3.65T527,234.2v25.56Z"/><path class="cls-3" d="M566.77,260.46a14.13,14.13,0,0,1-11.59-5.22Q551,250,551,240.46t3.83-15.15a13.24,13.24,0,0,1,20.78-.8q3.69,4.67,3.69,13.07v5H560.44c.07,3.49.78,6.09,2.14,7.78a6.82,6.82,0,0,0,5.63,2.55,18.29,18.29,0,0,0,9.35-2.84v7.69A20.51,20.51,0,0,1,566.77,260.46Zm-1.37-33.4a3.82,3.82,0,0,0-3.31,2.13,14.29,14.29,0,0,0-1.51,6.59h9.49a14.06,14.06,0,0,0-1.3-6.5A3.74,3.74,0,0,0,565.4,227.06Z"/><path class="cls-3" d="M602.13,219.86a11.09,11.09,0,0,1,3.38.52l-1.09,9.07a7.92,7.92,0,0,0-2.57-.35,5.94,5.94,0,0,0-5.23,2.69q-1.83,2.69-1.83,7.82v20.15h-9.35V220.59h7.69l1.06,6.12h.32a14.12,14.12,0,0,1,3.37-5.27A6.28,6.28,0,0,1,602.13,219.86Z"/><path class="cls-3" d="M648.51,248.3q0,5.73-3.36,8.95t-9.9,3.21a18.41,18.41,0,0,1-9.6-2.28v-8.12a18.47,18.47,0,0,0,4.52,2.21,14.27,14.27,0,0,0,4.55.88,4.71,4.71,0,0,0,3.33-1.07,3.71,3.71,0,0,0,1.14-2.83,4.53,4.53,0,0,0-1.2-3.13,20.24,20.24,0,0,0-4.39-3.27,18,18,0,0,1-6.1-5.4,12.22,12.22,0,0,1-1.85-6.77,9.88,9.88,0,0,1,3.43-7.91q3.43-2.91,9.41-2.91a18.81,18.81,0,0,1,9.8,2.74l-3,6.71a14.3,14.3,0,0,0-6.61-2,3.54,3.54,0,0,0-2.69.95,3.26,3.26,0,0,0-.9,2.32,4.09,4.09,0,0,0,1.11,2.82,19.39,19.39,0,0,0,4.13,3.06,25.87,25.87,0,0,1,5.13,3.76,11.15,11.15,0,0,1,2.29,3.51A12.05,12.05,0,0,1,648.51,248.3Z"/><path class="cls-3" d="M675.58,259.76l-1.16-5h-.5a10,10,0,0,1-9.21,5.73q-5.26,0-8-3.58T654,246.15V220.59h9.45V243.9a15.87,15.87,0,0,0,1,6.47,3.42,3.42,0,0,0,3.31,2.18,4.62,4.62,0,0,0,4.41-3c.92-2,1.39-5.4,1.39-10.16V220.59h9.45v39.17Z"/><path class="cls-3" d="M708.38,260.46a8.77,8.77,0,0,1-4.49-1.14,10.76,10.76,0,0,1-3.63-4h-.5q.57,4.79.57,5.77v16H690.9V220.59h7.25l1.61,5.1h.43q2.91-5.83,8.47-5.83,5.34,0,8.37,5.29t3,15q0,9.52-3.13,14.94T708.38,260.46Zm-2.89-32.66a4.1,4.1,0,0,0-4,2.55q-1.21,2.55-1.28,8.46V240q0,6.47,1.23,9.42a4.2,4.2,0,0,0,4.07,2.95q4.94,0,4.93-12.44,0-6.12-1.22-9.14C708.46,228.81,707.21,227.8,705.49,227.8Z"/><path class="cls-3" d="M741.07,260.46a14.1,14.1,0,0,1-11.58-5.22q-4.25-5.22-4.24-14.78t3.83-15.15a12.33,12.33,0,0,1,10.69-5.45,12.18,12.18,0,0,1,10.09,4.65q3.69,4.67,3.69,13.07v5H734.74c.07,3.49.79,6.09,2.15,7.78a6.8,6.8,0,0,0,5.62,2.55,18.32,18.32,0,0,0,9.36-2.84v7.69A20.52,20.52,0,0,1,741.07,260.46Zm-1.37-33.4a3.81,3.81,0,0,0-3.3,2.13,14.4,14.4,0,0,0-1.52,6.59h9.5a14.18,14.18,0,0,0-1.3-6.5A3.75,3.75,0,0,0,739.7,227.06Z"/><path class="cls-3" d="M776.44,219.86a11,11,0,0,1,3.37.52l-1.09,9.07a7.86,7.86,0,0,0-2.56-.35,6,6,0,0,0-5.24,2.69q-1.83,2.69-1.83,7.82v20.15h-9.35V220.59h7.7l1,6.12h.32a14.12,14.12,0,0,1,3.38-5.27A6.24,6.24,0,0,1,776.44,219.86Z"/><path class="cls-3" d="M817.89,231.25H833.6v26.36a35.77,35.77,0,0,1-14.2,2.85q-9,0-13.8-6.82T800.77,234q0-12.37,5.53-19.37t15.49-7a23.47,23.47,0,0,1,11.74,3.17l-3,7.8a16.39,16.39,0,0,0-8.16-2.53,9.83,9.83,0,0,0-8.63,4.87q-3.18,4.86-3.18,13.27,0,8.66,2.3,13.25t6.7,4.61a19.25,19.25,0,0,0,4.71-.6V239.68h-6.36Z"/><path class="cls-3" d="M841.44,259.76v-51.4H851v43h13.25v8.37Z"/><path class="cls-3" d="M894.71,259.76l-3-13H878.36l-3,13h-9.56l12.73-51.61h13l12.76,51.61ZM890,238.31l-2.74-11.95q-.26-1.1-1.11-5.47c-.57-2.91-.92-4.87-1-5.85q-.45,3-1.16,6.66t-3.65,16.61Z"/><path class="cls-3" d="M941.53,233.57q0,12.72-5.18,19.46t-14.93,6.73H908.84v-51.4h13.74q9,0,14,6.63T941.53,233.57Zm-9.81.28q0-17.23-9.49-17.23H918.4v34.77h3.09a8.3,8.3,0,0,0,7.74-4.38Q931.72,242.65,931.72,233.85Z"/><path class="cls-3" d="M947.44,254.94a5.88,5.88,0,0,1,1.46-4.25,5.75,5.75,0,0,1,4.34-1.51,5.2,5.2,0,0,1,5.84,5.76,5.73,5.73,0,0,1-1.53,4.26,5.91,5.91,0,0,1-4.31,1.51,5.72,5.72,0,0,1-4.32-1.53A5.82,5.82,0,0,1,947.44,254.94Z"/><path class="cls-3" d="M1008.47,259.76H985.3v-51.4h23.17v8.26h-13.6v12.24h12.62v8.29H994.87v14.24h13.6Z"/><path class="cls-3" d="M1034.91,259.76V236.42a15.78,15.78,0,0,0-1-6.44,3.43,3.43,0,0,0-3.31-2.18,4.64,4.64,0,0,0-4.43,3q-1.39,3-1.4,10.14v18.81h-9.35V220.59h7.41l1.13,5h.6a9.67,9.67,0,0,1,9.14-5.76q5.34,0,8,3.65t2.65,10.69v25.56Z"/><path class="cls-3" d="M1062.19,260.46q-5.42,0-8.54-5.34t-3.13-14.87q0-9.57,3.06-15t8.43-5.41a8.15,8.15,0,0,1,4.63,1.31,12,12,0,0,1,3.6,4.45h.56q-.42-5.34-.42-7.49V205.06h9.35v54.7h-7l-1.58-5.1h-.32Q1067.89,260.46,1062.19,260.46Zm3-7.91a4,4,0,0,0,3.8-2.37q1.2-2.37,1.3-8.63v-1.23q0-6.82-1.21-9.6a4.12,4.12,0,0,0-4-2.78q-2.61,0-3.78,3.18a27.93,27.93,0,0,0-1.18,9.27q0,6.08,1.2,9.12T1065.21,252.55Z"/><path class="cls-3" d="M1102.06,260.46a14.13,14.13,0,0,1-11.59-5.22q-4.23-5.22-4.23-14.78t3.83-15.15a13.24,13.24,0,0,1,20.78-.8q3.69,4.67,3.69,13.07v5h-18.81c.07,3.49.78,6.09,2.14,7.78a6.82,6.82,0,0,0,5.63,2.55,18.32,18.32,0,0,0,9.35-2.84v7.69A20.51,20.51,0,0,1,1102.06,260.46Zm-1.37-33.4a3.82,3.82,0,0,0-3.31,2.13,14.29,14.29,0,0,0-1.51,6.59h9.49a14.18,14.18,0,0,0-1.3-6.5A3.74,3.74,0,0,0,1100.69,227.06Z"/><path class="cls-3" d="M1130.08,259.76h-9.36v-54.7h9.36Z"/><path class="cls-3" d="M1137.6,210.36a5,5,0,0,1,1.35-3.67,5.14,5.14,0,0,1,3.78-1.35,5,5,0,0,1,3.66,1.35,4.94,4.94,0,0,1,1.37,3.67,4.82,4.82,0,0,1-1.41,3.71,5.06,5.06,0,0,1-3.62,1.32,5.21,5.21,0,0,1-3.72-1.32A4.82,4.82,0,0,1,1137.6,210.36Zm9.74,49.4H1138V220.59h9.35Z"/><path class="cls-3" d="M1183.55,220.67v5.48l-4.68,1a12.55,12.55,0,0,1,1.37,6.19q0,6.23-3.37,9.74t-9.42,3.52a8.7,8.7,0,0,1-2.6-.29,11.59,11.59,0,0,0-1.27,1.34,2.8,2.8,0,0,0-.6,1.83q0,2.46,4.26,2.46h5.66c3.32,0,5.89.9,7.68,2.69s2.69,4.49,2.69,8.1q0,6.83-4.57,10.55t-13.15,3.73q-6.51,0-10-2.83a9.78,9.78,0,0,1-3.52-8.07,8.86,8.86,0,0,1,2-5.75,11.32,11.32,0,0,1,5.55-3.6,6.8,6.8,0,0,1-2.93-2.18,5.51,5.51,0,0,1-1.15-3.45,6.12,6.12,0,0,1,.36-2.16,6.55,6.55,0,0,1,1-1.83,19.58,19.58,0,0,1,2.65-2.55,10,10,0,0,1-3.83-4.53,16,16,0,0,1-1.41-6.79q0-6.44,3.38-9.95t9.67-3.51a16.08,16.08,0,0,1,2.74.26,15.37,15.37,0,0,1,2.35.55Zm-23,44.78A4.44,4.44,0,0,0,1162,269a6.24,6.24,0,0,0,4.17,1.25q4.24,0,6.38-1.62a5.24,5.24,0,0,0,2.12-4.43,3.81,3.81,0,0,0-1.14-3.13c-.76-.6-2.18-.91-4.27-.91h-4.53a3.75,3.75,0,0,0-3,1.42A6,6,0,0,0,1160.52,265.45Zm2.88-32.06c0,4.62,1.31,6.93,3.91,6.93s3.79-2.33,3.79-7-1.26-7.17-3.79-7.17S1163.4,228.56,1163.4,233.39Z"/><path class="cls-3" d="M1220.5,260.46a14.13,14.13,0,0,1-11.59-5.22q-4.23-5.22-4.23-14.78t3.83-15.15a13.24,13.24,0,0,1,20.78-.8q3.69,4.67,3.69,13.07v5h-18.81c.07,3.49.79,6.09,2.14,7.78a6.82,6.82,0,0,0,5.63,2.55,18.29,18.29,0,0,0,9.35-2.84v7.69A20.51,20.51,0,0,1,1220.5,260.46Zm-1.37-33.4a3.82,3.82,0,0,0-3.31,2.13,14.42,14.42,0,0,0-1.51,6.59h9.49a14.06,14.06,0,0,0-1.3-6.5A3.74,3.74,0,0,0,1219.13,227.06Z"/><path class="cls-3" d="M1255.87,219.86a11.08,11.08,0,0,1,3.37.52l-1.09,9.07a7.92,7.92,0,0,0-2.57-.35,5.94,5.94,0,0,0-5.23,2.69q-1.83,2.69-1.83,7.82v20.15h-9.35V220.59h7.7l1.05,6.12h.32a14.12,14.12,0,0,1,3.37-5.27A6.29,6.29,0,0,1,1255.87,219.86Z"/><path class="cls-3" d="M184.69,346.16V322.82q0-8.62-4.32-8.62-3.24,0-4.54,3.39a28.44,28.44,0,0,0-1.3,9.76v18.81h-9.35v-54.7h9.35v12.16q0,2.36-.42,8.4h.49q2.81-5.76,8.65-5.76,5.37,0,8.12,3.64t2.74,10.7v25.56Z"/><path class="cls-3" d="M220.87,346.16,219,340.82h-.21a13.29,13.29,0,0,1-4.29,4.74,10.86,10.86,0,0,1-5.59,1.3,8.11,8.11,0,0,1-6.8-3.23q-2.48-3.24-2.48-9,0-6.19,3.39-9.2t10.15-3.32l5.2-.21v-2.81q0-5.49-4.75-5.49c-2.34,0-5,.92-8.08,2.75l-3.24-6.47A23.29,23.29,0,0,1,215,306.19q6.22,0,9.48,3.56t3.25,10.11v26.3Zm-8.13-6.61a4.71,4.71,0,0,0,4.1-2.3,11,11,0,0,0,1.53-6.14v-3.3l-2.88.14a6.53,6.53,0,0,0-4.7,1.83,7.15,7.15,0,0,0-1.49,4.92Q209.3,339.55,212.74,339.55Z"/><path class="cls-3" d="M254.79,346.16V322.82a15.78,15.78,0,0,0-1-6.44,3.43,3.43,0,0,0-3.3-2.18,4.63,4.63,0,0,0-4.43,3q-1.41,3-1.41,10.14v18.81h-9.35V307h7.42l1.12,5h.6a9.67,9.67,0,0,1,9.14-5.76q5.34,0,8,3.65t2.65,10.69v25.56Z"/><path class="cls-3" d="M289.24,296.76a5,5,0,0,1,1.36-3.67,5.11,5.11,0,0,1,3.78-1.35,5,5,0,0,1,3.65,1.35,4.9,4.9,0,0,1,1.37,3.67,4.82,4.82,0,0,1-1.4,3.71,5.09,5.09,0,0,1-3.62,1.32,5.23,5.23,0,0,1-3.73-1.32A4.82,4.82,0,0,1,289.24,296.76Zm9.74,49.4h-9.35V307H299Z"/><path class="cls-3" d="M316.21,325.07l2.35-4.68L326.3,307h9.91l-9.91,16.06,10.58,23.1h-9.81L320,329.6l-3.66,3.31v13.25H307v-54.7h9.35v25.77l-.42,7.84Z"/><path class="cls-3" d="M350.13,325.07l2.36-4.68L360.22,307h9.92l-9.92,16.06,10.59,23.1H361l-7.07-16.56-3.65,3.31v13.25h-9.36v-54.7h9.36v25.77l-.43,7.84Z"/><path class="cls-3" d="M389.3,346.86a14.13,14.13,0,0,1-11.59-5.22q-4.23-5.22-4.23-14.78t3.83-15.15A12.33,12.33,0,0,1,388,306.26a12.17,12.17,0,0,1,10.09,4.66q3.69,4.65,3.69,13.06v5H383c.07,3.49.79,6.09,2.15,7.78a6.78,6.78,0,0,0,5.62,2.55,18.29,18.29,0,0,0,9.35-2.84v7.7A20.6,20.6,0,0,1,389.3,346.86Zm-1.37-33.4a3.82,3.82,0,0,0-3.31,2.13,14.42,14.42,0,0,0-1.51,6.59h9.49a14.09,14.09,0,0,0-1.3-6.5A3.74,3.74,0,0,0,387.93,313.46Z"/><path class="cls-3" d="M435.11,346.16h-9.35v-54.7h9.35Z"/><path class="cls-3" d="M475.12,346.86q-8.13,0-12.1-6.33a13.44,13.44,0,0,1-4.66,4.8,12.48,12.48,0,0,1-6.34,1.53c-3.61,0-6.37-1-8.26-3.11s-2.85-5.11-2.85-9.12,1.13-7.19,3.39-9.2,5.64-3.11,10.14-3.32l5.21-.21v-2.74c0-3.7-1.59-5.56-4.75-5.56q-3.51,0-8.09,2.75l-3.23-6.47a23.29,23.29,0,0,1,12.69-3.69q5.81,0,9.07,3.27A13,13,0,0,1,483.92,311q3.65,4.71,3.64,13v5H468.79c.07,3.49.78,6.09,2.14,7.78a6.82,6.82,0,0,0,5.63,2.55,17.67,17.67,0,0,0,9.35-2.84v7.7A20.5,20.5,0,0,1,475.12,346.86Zm-15.47-19.05-2.89.14a6.53,6.53,0,0,0-4.69,1.83,7.1,7.1,0,0,0-1.49,4.92c0,3.23,1.14,4.85,3.44,4.85a4.72,4.72,0,0,0,4.1-2.3,11,11,0,0,0,1.53-6.14Zm14.16-14.35q-4.4,0-4.81,8.72h9.49a14.22,14.22,0,0,0-1.3-6.5A3.75,3.75,0,0,0,473.81,313.46Z"/><path class="cls-3" d="M513.29,346.16V322.82a15.8,15.8,0,0,0-1-6.44A3.44,3.44,0,0,0,509,314.2a4.64,4.64,0,0,0-4.43,3q-1.41,3-1.41,10.14v18.81h-9.35V307h7.42l1.13,5h.59a9.67,9.67,0,0,1,9.14-5.76c3.57,0,6.23,1.22,8,3.65s2.66,6,2.66,10.69v25.56Z"/><path class="cls-3" d="M558.47,307.07v5.48l-4.68,1.05a12.57,12.57,0,0,1,1.38,6.19q0,6.22-3.38,9.74t-9.42,3.52a8.7,8.7,0,0,1-2.6-.29,11.59,11.59,0,0,0-1.27,1.34,2.8,2.8,0,0,0-.6,1.83q0,2.46,4.26,2.46h5.66q5,0,7.68,2.69t2.69,8.1q0,6.82-4.57,10.55t-13.15,3.73q-6.51,0-10-2.83a9.78,9.78,0,0,1-3.51-8.07,8.85,8.85,0,0,1,2-5.75,11.36,11.36,0,0,1,5.55-3.6,6.8,6.8,0,0,1-2.93-2.18,5.51,5.51,0,0,1-1.14-3.45,6.12,6.12,0,0,1,.35-2.16,7,7,0,0,1,1-1.83,19.58,19.58,0,0,1,2.65-2.55,10,10,0,0,1-3.83-4.53,16,16,0,0,1-1.4-6.79q0-6.44,3.37-10t9.67-3.51a19.28,19.28,0,0,1,5.1.81Zm-23,44.78a4.44,4.44,0,0,0,1.46,3.57,6.25,6.25,0,0,0,4.17,1.25q4.24,0,6.38-1.62a5.24,5.24,0,0,0,2.13-4.43,3.74,3.74,0,0,0-1.15-3.12c-.76-.61-2.18-.92-4.27-.92h-4.53a3.71,3.71,0,0,0-3,1.42A6,6,0,0,0,535.44,351.85Zm2.89-32.06q0,6.93,3.9,6.93t3.8-7q0-7.17-3.8-7.17T538.33,319.79Z"/><path class="cls-3" d="M577.63,346.86a14.1,14.1,0,0,1-11.58-5.22q-4.24-5.22-4.24-14.78t3.83-15.15a12.33,12.33,0,0,1,10.69-5.45,12.16,12.16,0,0,1,10.09,4.66q3.69,4.65,3.69,13.06v5H571.3c.07,3.49.79,6.09,2.15,7.78a6.8,6.8,0,0,0,5.62,2.55,18.26,18.26,0,0,0,9.35-2.84v7.7A20.58,20.58,0,0,1,577.63,346.86Zm-1.37-33.4a3.8,3.8,0,0,0-3.3,2.13,14.27,14.27,0,0,0-1.52,6.59h9.5a14.07,14.07,0,0,0-1.31-6.5A3.74,3.74,0,0,0,576.26,313.46Z"/><path class="cls-3" d="M613,306.26a11,11,0,0,1,3.37.52l-1.09,9.07a7.86,7.86,0,0,0-2.56-.35,6,6,0,0,0-5.24,2.69c-1.22,1.8-1.83,4.4-1.83,7.82v20.15H596.3V307H604l1,6.11h.32a14.25,14.25,0,0,1,3.37-5.27A6.29,6.29,0,0,1,613,306.26Z"/><path class="cls-3" d="M635,346.86a14.13,14.13,0,0,1-11.59-5.22q-4.23-5.22-4.23-14.78T623,311.71a12.3,12.3,0,0,1,10.69-5.45,12.15,12.15,0,0,1,10.08,4.66q3.71,4.65,3.7,13.06v5H628.68c.07,3.49.78,6.09,2.14,7.78a6.82,6.82,0,0,0,5.63,2.55,18.32,18.32,0,0,0,9.35-2.84v7.7A20.6,20.6,0,0,1,635,346.86Zm-1.38-33.4a3.82,3.82,0,0,0-3.3,2.13,14.29,14.29,0,0,0-1.51,6.59h9.49a14.22,14.22,0,0,0-1.3-6.5A3.75,3.75,0,0,0,633.63,313.46Z"/><path class="cls-3" d="M681.76,346.86q-5.41,0-8.54-5.34t-3.13-14.87q0-9.57,3.06-15t8.44-5.41a8,8,0,0,1,4.62,1.32,11.91,11.91,0,0,1,3.6,4.44h.57q-.42-5.34-.42-7.49V291.46h9.35v54.7h-7l-1.59-5.1h-.31Q687.47,346.87,681.76,346.86Zm3-7.91a4,4,0,0,0,3.79-2.37q1.2-2.37,1.3-8.63v-1.23q0-6.83-1.21-9.6a4.12,4.12,0,0,0-4-2.78q-2.59,0-3.78,3.18a28.2,28.2,0,0,0-1.18,9.27q0,6.07,1.2,9.12T684.79,339Z"/><path class="cls-3" d="M721.63,346.86a14.1,14.1,0,0,1-11.58-5.22q-4.24-5.22-4.24-14.78t3.83-15.15a12.33,12.33,0,0,1,10.69-5.45,12.16,12.16,0,0,1,10.09,4.66q3.69,4.65,3.69,13.06v5H715.3c.07,3.49.79,6.09,2.15,7.78a6.8,6.8,0,0,0,5.62,2.55,18.26,18.26,0,0,0,9.35-2.84v7.7A20.58,20.58,0,0,1,721.63,346.86Zm-1.37-33.4a3.8,3.8,0,0,0-3.3,2.13,14.27,14.27,0,0,0-1.52,6.59h9.5a14.07,14.07,0,0,0-1.31-6.5A3.74,3.74,0,0,0,720.26,313.46Z"/><path class="cls-3" d="M759.81,346.16V322.82a15.78,15.78,0,0,0-1-6.44,3.43,3.43,0,0,0-3.3-2.18,4.63,4.63,0,0,0-4.43,3q-1.41,3-1.41,10.14v18.81H740.3V307h7.42l1.12,5h.6a9.67,9.67,0,0,1,9.14-5.76q5.34,0,8,3.65t2.65,10.69v25.56Z"/><path class="cls-3" d="M818.31,346.16H795.14v-51.4h23.17V303h-13.6v12.24h12.62v8.29H804.71v14.24h13.6Z"/><path class="cls-3" d="M861.8,346.16H850.13l-15.89-37.23h-.46a44.79,44.79,0,0,1,.88,9.14v28.09H825.8v-51.4h11.74l15.75,36.84h.39a49.57,49.57,0,0,1-.67-8.78V294.76h8.79Z"/><path class="cls-3" d="M894,346.16H870.87v-51.4H894V303H880.43v12.24h12.62v8.29H880.43v14.24H894Z"/><path class="cls-3" d="M924.94,332q0,7.22-3.64,11t-10.49,3.83a23.16,23.16,0,0,1-11.43-2.63v-9.46q5.76,3.76,10.58,3.76a5.31,5.31,0,0,0,4.13-1.51,5.83,5.83,0,0,0,1.39-4.11,7.48,7.48,0,0,0-1.65-4.7,24.64,24.64,0,0,0-5.45-4.73,24.47,24.47,0,0,1-5-4.37,16,16,0,0,1-2.64-4.7,17.91,17.91,0,0,1-.93-6q0-6.62,3.68-10.48a13,13,0,0,1,9.86-3.87,21.5,21.5,0,0,1,11.35,3.31L921.53,305a30.55,30.55,0,0,0-3.53-1.76,10.24,10.24,0,0,0-4-.77,4.34,4.34,0,0,0-3.57,1.53,6.42,6.42,0,0,0-1.25,4.17,7.18,7.18,0,0,0,1.5,4.53,22.07,22.07,0,0,0,5.22,4.39,21.62,21.62,0,0,1,7,6.9A15.92,15.92,0,0,1,924.94,332Z"/><path class="cls-3" d="M947.05,346.16h-9.52v-43h-9.85v-8.4H956.9v8.4h-9.85Z"/><path class="cls-3" d="M985.55,346.16H962.38v-51.4h23.17V303H971.94v12.24h12.62v8.29H971.94v14.24h13.61Z"/><path class="cls-3" d="M1031.43,346.16l-1.16-5h-.49a10.16,10.16,0,0,1-3.71,4.2,10.06,10.06,0,0,1-5.51,1.53q-5.26,0-8-3.58t-2.7-10.73V307h9.45v23.3a15.87,15.87,0,0,0,1,6.47,3.42,3.42,0,0,0,3.31,2.18,4.62,4.62,0,0,0,4.41-3c.93-2,1.39-5.4,1.39-10.16V307h9.46v39.16Z"/><path class="cls-3" d="M1057.06,346.86q-5.41,0-8.55-5.34t-3.13-14.87q0-9.57,3.06-15t8.44-5.41a8,8,0,0,1,4.62,1.32,11.92,11.92,0,0,1,3.61,4.44h.56q-.42-5.34-.42-7.49V291.46h9.35v54.7h-7l-1.58-5.1h-.32Q1062.76,346.87,1057.06,346.86Zm3-7.91a4,4,0,0,0,3.8-2.37c.79-1.58,1.23-4.46,1.3-8.63v-1.23q0-6.83-1.22-9.6a4.11,4.11,0,0,0-4-2.78q-2.6,0-3.77,3.18a27.93,27.93,0,0,0-1.18,9.27,26.55,26.55,0,0,0,1.19,9.12Q1057.41,339,1060.08,339Z"/><path class="cls-3" d="M1096.92,346.86a14.11,14.11,0,0,1-11.58-5.22q-4.23-5.22-4.24-14.78t3.84-15.15a12.3,12.3,0,0,1,10.68-5.45,12.16,12.16,0,0,1,10.09,4.66q3.69,4.65,3.69,13.06v5h-18.8c.07,3.49.78,6.09,2.14,7.78a6.8,6.8,0,0,0,5.63,2.55,18.32,18.32,0,0,0,9.35-2.84v7.7A20.61,20.61,0,0,1,1096.92,346.86Zm-1.37-33.4a3.82,3.82,0,0,0-3.3,2.13,14.29,14.29,0,0,0-1.51,6.59h9.49a14.22,14.22,0,0,0-1.3-6.5A3.75,3.75,0,0,0,1095.55,313.46Z"/><path class="cls-3" d="M1135.1,346.16V322.82a15.78,15.78,0,0,0-1-6.44,3.43,3.43,0,0,0-3.3-2.18,4.63,4.63,0,0,0-4.43,3q-1.41,3-1.41,10.14v18.81h-9.35V307H1123l1.12,5h.6a9.67,9.67,0,0,1,9.14-5.76c3.57,0,6.23,1.22,8,3.65s2.66,6,2.66,10.69v25.56Z"/><path class="cls-3" d="M1189.38,346.16V322.82q0-8.62-4.32-8.62-3.24,0-4.53,3.39a28.41,28.41,0,0,0-1.31,9.76v18.81h-9.35v-54.7h9.35v12.16q0,2.36-.42,8.4h.49q2.82-5.76,8.65-5.76,5.38,0,8.12,3.64t2.75,10.7v25.56Z"/><path class="cls-3" d="M1225.56,346.16l-1.86-5.34h-.21a13.47,13.47,0,0,1-4.29,4.74,10.88,10.88,0,0,1-5.59,1.3,8.13,8.13,0,0,1-6.81-3.23q-2.47-3.24-2.47-9,0-6.19,3.39-9.2t10.14-3.32l5.2-.21v-2.81q0-5.49-4.74-5.49c-2.35,0-5,.92-8.09,2.75l-3.23-6.47a23.29,23.29,0,0,1,12.69-3.69q6.22,0,9.47,3.56t3.26,10.11v26.3Zm3-51.86a7.82,7.82,0,0,1-2.44,6,9,9,0,0,1-6.35,2.27,8.74,8.74,0,0,1-6.22-2.2,8.86,8.86,0,0,1,0-12,8.79,8.79,0,0,1,6.22-2.2,9.06,9.06,0,0,1,6.32,2.25A7.56,7.56,0,0,1,1228.51,294.3Zm-11.07,45.25a4.72,4.72,0,0,0,4.1-2.3,11,11,0,0,0,1.52-6.14v-3.3l-2.88.14a6.51,6.51,0,0,0-4.69,1.83,7.1,7.1,0,0,0-1.5,4.92Q1214,339.55,1217.44,339.55Zm5.8-45.18a3.35,3.35,0,0,0-1-2.56,3.8,3.8,0,0,0-5,0,3.35,3.35,0,0,0-1,2.56,3.68,3.68,0,0,0,.88,2.61,3.41,3.41,0,0,0,2.63.94,3.53,3.53,0,0,0,2.52-.94A3.42,3.42,0,0,0,1223.24,294.37Z"/><path class="cls-3" d="M1256.67,306.26a11.09,11.09,0,0,1,3.38.52l-1.09,9.07a7.92,7.92,0,0,0-2.57-.35,6,6,0,0,0-5.24,2.69c-1.21,1.8-1.82,4.4-1.82,7.82v20.15H1240V307h7.7l1.06,6.11h.31a14.25,14.25,0,0,1,3.38-5.27A6.28,6.28,0,0,1,1256.67,306.26Z"/><path class="cls-3" d="M1281.71,296.76a5,5,0,0,1,1.35-3.67,5.11,5.11,0,0,1,3.78-1.35,5,5,0,0,1,3.65,1.35,4.91,4.91,0,0,1,1.38,3.67,4.82,4.82,0,0,1-1.41,3.71,5.09,5.09,0,0,1-3.62,1.32,5.23,5.23,0,0,1-3.73-1.32A4.82,4.82,0,0,1,1281.71,296.76Zm9.73,49.4h-9.35V307h9.35Z"/><path class="cls-3" d="M277.64,412.91q0,9.63-4.08,15a14.22,14.22,0,0,1-19.12,2.9,15.54,15.54,0,0,1-5.31-7.08,28.85,28.85,0,0,1-1.86-10.81q0-9.53,4-14.89a13.25,13.25,0,0,1,11.22-5.36,13.08,13.08,0,0,1,11,5.46Q277.65,403.6,277.64,412.91Zm-20.81,0q0,6.12,1.34,9.24t4.29,3.13q5.63,0,5.62-12.37,0-6.15-1.35-9.2a4.53,4.53,0,0,0-8.56,0Q256.83,406.76,256.83,412.91Z"/><path class="cls-3" d="M323.1,432.56V409.22q0-8.62-4.25-8.62a4.56,4.56,0,0,0-4.43,3.08q-1.34,3.07-1.34,9.86v19h-9.42V409.22q0-8.62-4.33-8.62a4.57,4.57,0,0,0-4.39,3.06q-1.37,3.06-1.37,10.09v18.81h-9.35V393.4h7.41l1.13,5h.6a9.39,9.39,0,0,1,3.85-4.37,10.36,10.36,0,0,1,5.22-1.39q7.17,0,9.56,6.78h.35q3-6.78,9.6-6.78a9.19,9.19,0,0,1,7.89,3.65q2.69,3.66,2.69,10.69v25.56Z"/><path class="cls-3" d="M349.29,411.47l2.36-4.68,7.73-13.39h9.91l-9.91,16.06L370,432.56h-9.81L353.09,416l-3.66,3.31v13.25h-9.35v-54.7h9.35v25.77l-.42,7.84Z"/><path class="cls-3" d="M383.36,432.56H374v-54.7h9.35Z"/><path class="cls-3" d="M423.37,433.26q-8.13,0-12.1-6.33a13.44,13.44,0,0,1-4.66,4.8,12.48,12.48,0,0,1-6.34,1.53c-3.61,0-6.37-1-8.26-3.11s-2.85-5.11-2.85-9.12,1.13-7.19,3.39-9.2,5.64-3.11,10.14-3.32l5.21-.21v-2.74c0-3.7-1.59-5.56-4.75-5.56q-3.51,0-8.09,2.75l-3.23-6.47a23.29,23.29,0,0,1,12.69-3.69q5.81,0,9.07,3.27a13,13,0,0,1,18.58,1.51q3.65,4.71,3.64,13v5H417q.1,5.24,2.14,7.79a6.84,6.84,0,0,0,5.63,2.54,17.67,17.67,0,0,0,9.35-2.84v7.7A20.5,20.5,0,0,1,423.37,433.26ZM407.9,414.21l-2.89.14a6.57,6.57,0,0,0-4.69,1.83,7.1,7.1,0,0,0-1.49,4.92c0,3.23,1.14,4.85,3.44,4.85a4.72,4.72,0,0,0,4.1-2.3,11,11,0,0,0,1.53-6.14Zm14.16-14.35q-4.4,0-4.81,8.72h9.49a14.22,14.22,0,0,0-1.3-6.5A3.75,3.75,0,0,0,422.06,399.86Z"/><path class="cls-3" d="M452.33,433.26q-5.41,0-8.54-5.34t-3.13-14.87q0-9.57,3.06-15t8.44-5.41a8,8,0,0,1,4.62,1.32,11.91,11.91,0,0,1,3.6,4.44H461q-.42-5.34-.42-7.49V377.86h9.35v54.7h-7l-1.59-5.1H461Q458,433.27,452.33,433.26Zm3-7.91a4,4,0,0,0,3.79-2.37c.8-1.58,1.23-4.46,1.31-8.63v-1.23q0-6.83-1.22-9.6a4.12,4.12,0,0,0-4-2.78q-2.6,0-3.78,3.18a28.2,28.2,0,0,0-1.18,9.27q0,6.07,1.2,9.12T455.36,425.35Z"/><path class="cls-3" d="M497.26,432.56V409.22a15.81,15.81,0,0,0-1-6.44,3.43,3.43,0,0,0-3.3-2.18,4.63,4.63,0,0,0-4.43,3q-1.41,3-1.41,10.14v18.81h-9.35V393.4h7.42l1.12,5h.6a9.67,9.67,0,0,1,9.14-5.76c3.57,0,6.23,1.22,8,3.65s2.66,6,2.66,10.69v25.56Z"/><path class="cls-3" d="M513.93,383.17a5,5,0,0,1,1.35-3.68,5.11,5.11,0,0,1,3.78-1.35,5,5,0,0,1,3.66,1.35,5,5,0,0,1,1.37,3.68,4.8,4.8,0,0,1-1.41,3.7,5.07,5.07,0,0,1-3.62,1.32,5.23,5.23,0,0,1-3.73-1.32A4.83,4.83,0,0,1,513.93,383.17Zm9.74,49.39h-9.36V393.4h9.36Z"/><path class="cls-3" d="M551.19,432.56V409.22a15.81,15.81,0,0,0-1-6.44,3.43,3.43,0,0,0-3.3-2.18,4.63,4.63,0,0,0-4.43,3q-1.41,3-1.41,10.14v18.81h-9.35V393.4h7.42l1.12,5h.6a9.67,9.67,0,0,1,9.14-5.76c3.57,0,6.23,1.22,8,3.65s2.66,6,2.66,10.69v25.56Z"/><path class="cls-3" d="M596.37,393.47V399L591.69,400a12.57,12.57,0,0,1,1.37,6.19q0,6.22-3.37,9.74t-9.42,3.52a9.12,9.12,0,0,1-2.6-.28,10.73,10.73,0,0,0-1.27,1.33,2.8,2.8,0,0,0-.6,1.83q0,2.46,4.26,2.46h5.66c3.32,0,5.89.9,7.68,2.69s2.69,4.49,2.69,8.1q0,6.82-4.57,10.55t-13.15,3.73q-6.51,0-10-2.83a9.78,9.78,0,0,1-3.52-8.07,8.86,8.86,0,0,1,2-5.75,11.32,11.32,0,0,1,5.55-3.6,6.8,6.8,0,0,1-2.93-2.18,5.51,5.51,0,0,1-1.15-3.45,6.12,6.12,0,0,1,.36-2.16,6.69,6.69,0,0,1,1-1.83,19.58,19.58,0,0,1,2.65-2.55,10,10,0,0,1-3.83-4.53,16,16,0,0,1-1.41-6.79q0-6.44,3.38-9.95t9.67-3.51a17.17,17.17,0,0,1,2.74.26,15.37,15.37,0,0,1,2.35.55Zm-23,44.78a4.44,4.44,0,0,0,1.46,3.57,6.18,6.18,0,0,0,4.17,1.25q4.24,0,6.38-1.62a5.24,5.24,0,0,0,2.12-4.43,3.77,3.77,0,0,0-1.14-3.12c-.76-.61-2.18-.92-4.27-.92h-4.53a3.73,3.73,0,0,0-3,1.43A6,6,0,0,0,573.34,438.25Zm2.88-32.06c0,4.62,1.31,6.93,3.91,6.93s3.79-2.33,3.79-7-1.26-7.17-3.79-7.17S576.22,401.36,576.22,406.19Z"/><path class="cls-3" d="M622.1,421.1q0,5.73-3.35,8.95t-9.9,3.21a18.39,18.39,0,0,1-9.6-2.28v-8.12a18.12,18.12,0,0,0,4.52,2.21,14.27,14.27,0,0,0,4.55.88,4.68,4.68,0,0,0,3.32-1.07,3.69,3.69,0,0,0,1.15-2.83,4.53,4.53,0,0,0-1.2-3.13,20.51,20.51,0,0,0-4.39-3.27,18,18,0,0,1-6.1-5.4,12.21,12.21,0,0,1-1.85-6.76,9.83,9.83,0,0,1,3.43-7.91q3.42-2.93,9.4-2.92a18.84,18.84,0,0,1,9.81,2.74l-3.06,6.71a14.24,14.24,0,0,0-6.61-2,3.51,3.51,0,0,0-2.68.94,3.26,3.26,0,0,0-.9,2.32,4.09,4.09,0,0,0,1.11,2.82,19.13,19.13,0,0,0,4.13,3.06A26.18,26.18,0,0,1,619,413a11.12,11.12,0,0,1,2.28,3.51A12.09,12.09,0,0,1,622.1,421.1Z"/><path class="cls-3" d="M644.71,392.66a11,11,0,0,1,3.37.52L647,402.25a7.86,7.86,0,0,0-2.56-.35,6,6,0,0,0-5.24,2.69c-1.22,1.8-1.83,4.4-1.83,7.83v20.14H628V393.4h7.7l1,6.11h.32a14.12,14.12,0,0,1,3.38-5.27A6.24,6.24,0,0,1,644.71,392.66Z"/><path class="cls-3" d="M673.43,432.56l-1.16-5h-.49a10,10,0,0,1-9.21,5.73q-5.28,0-8-3.58T651.88,419V393.4h9.46v23.3a15.87,15.87,0,0,0,1,6.47,3.42,3.42,0,0,0,3.3,2.18,4.6,4.6,0,0,0,4.41-3c.93-2,1.39-5.4,1.39-10.16V393.4h9.46v39.16Z"/><path class="cls-3" d="M727.64,432.56V409.22q0-8.62-4.25-8.62a4.57,4.57,0,0,0-4.43,3.08q-1.34,3.07-1.34,9.86v19H708.2V409.22q0-8.62-4.32-8.62a4.58,4.58,0,0,0-4.4,3.06q-1.37,3.06-1.37,10.09v18.81h-9.35V393.4h7.42l1.12,5h.6a9.44,9.44,0,0,1,3.85-4.37,10.36,10.36,0,0,1,5.22-1.39q7.17,0,9.56,6.78h.35q3-6.78,9.6-6.78a9.22,9.22,0,0,1,7.9,3.65q2.68,3.66,2.68,10.69v25.56Z"/><path class="cls-3" d="M783.51,432.56V409.22q0-8.62-4.26-8.62a4.57,4.57,0,0,0-4.43,3.08q-1.34,3.07-1.33,9.86v19h-9.43V409.22q0-8.62-4.32-8.62a4.56,4.56,0,0,0-4.39,3.06Q754,406.72,754,413.75v18.81h-9.35V393.4H752l1.13,5h.59a9.44,9.44,0,0,1,3.85-4.37,10.36,10.36,0,0,1,5.22-1.39c4.79,0,8,2.26,9.57,6.78h.35q3-6.78,9.6-6.78a9.2,9.2,0,0,1,7.89,3.65q2.68,3.66,2.69,10.69v25.56Z"/><path class="cls-3" d="M814.94,433.26A14.13,14.13,0,0,1,803.35,428q-4.23-5.22-4.23-14.78T803,398.11a12.3,12.3,0,0,1,10.68-5.45,12.16,12.16,0,0,1,10.09,4.66q3.71,4.65,3.7,13.06v5H808.61q.1,5.24,2.14,7.79a6.84,6.84,0,0,0,5.63,2.54,18.32,18.32,0,0,0,9.35-2.84v7.7A20.6,20.6,0,0,1,814.94,433.26Zm-1.38-33.4a3.82,3.82,0,0,0-3.3,2.13,14.29,14.29,0,0,0-1.51,6.59h9.49a14.22,14.22,0,0,0-1.3-6.5A3.75,3.75,0,0,0,813.56,399.86Z"/><path class="cls-3" d="M847.21,425.35a10.89,10.89,0,0,0,4.25-1v7.31c-1.52,1.06-3.81,1.58-6.85,1.58q-5.1,0-7.56-3t-2.46-9.12V400.81h-3.8v-4.18l4.89-3.38,2.39-8.29h6v8.44h7.11v7.41H844v20.61Q844,425.35,847.21,425.35Z"/><path class="cls-3" d="M888.34,425.35a11,11,0,0,0,4.26-1v7.31c-1.53,1.06-3.81,1.58-6.86,1.58q-5.1,0-7.56-3t-2.46-9.12V400.81h-3.8v-4.18l4.89-3.38L879.2,385h6v8.44h7.1v7.41h-7.1v20.61Q885.18,425.35,888.34,425.35Z"/><path class="cls-3" d="M897.76,383.17a4.94,4.94,0,0,1,1.36-3.68,5.11,5.11,0,0,1,3.78-1.35,5,5,0,0,1,3.65,1.35,4.91,4.91,0,0,1,1.37,3.68,4.8,4.8,0,0,1-1.4,3.7,5.09,5.09,0,0,1-3.62,1.32,5.23,5.23,0,0,1-3.73-1.32A4.8,4.8,0,0,1,897.76,383.17Zm9.74,49.39h-9.35V393.4h9.35Z"/><path class="cls-3" d="M924.87,432.56h-9.35v-54.7h9.35Z"/><path class="cls-3" d="M950.18,383.17a4.94,4.94,0,0,1,1.36-3.68,5.1,5.1,0,0,1,3.77-1.35,4.69,4.69,0,0,1,5,5,4.83,4.83,0,0,1-1.4,3.7,5.1,5.1,0,0,1-3.63,1.32,5.22,5.22,0,0,1-3.72-1.32A4.8,4.8,0,0,1,950.18,383.17Zm9.74,49.39h-9.35V393.4h9.35Z"/><path class="cls-3" d="M978.24,433.26q-5.41,0-8.55-5.34t-3.13-14.87q0-9.57,3.06-15t8.44-5.41a8,8,0,0,1,4.62,1.32,11.92,11.92,0,0,1,3.61,4.44h.56q-.42-5.34-.42-7.49V377.86h9.35v54.7h-7l-1.58-5.1h-.32Q983.94,433.27,978.24,433.26Zm3-7.91a4,4,0,0,0,3.8-2.37c.79-1.58,1.23-4.46,1.3-8.63v-1.23q0-6.83-1.22-9.6a4.11,4.11,0,0,0-4-2.78q-2.6,0-3.77,3.18a27.93,27.93,0,0,0-1.18,9.27,26.55,26.55,0,0,0,1.19,9.12Q978.59,425.35,981.26,425.35Z"/><path class="cls-3" d="M1020.35,392.66a11.09,11.09,0,0,1,3.38.52l-1.09,9.07a7.92,7.92,0,0,0-2.57-.35,6,6,0,0,0-5.24,2.69c-1.21,1.8-1.82,4.4-1.82,7.83v20.14h-9.36V393.4h7.7l1.06,6.11h.31a14.25,14.25,0,0,1,3.38-5.27A6.28,6.28,0,0,1,1020.35,392.66Z"/><path class="cls-3" d="M1060.08,433.26q-8.11,0-12.09-6.33a13.52,13.52,0,0,1-4.66,4.8,12.52,12.52,0,0,1-6.35,1.53c-3.61,0-6.36-1-8.26-3.11s-2.85-5.11-2.85-9.12,1.13-7.19,3.4-9.2,5.64-3.11,10.14-3.32l5.2-.21v-2.74c0-3.7-1.58-5.56-4.74-5.56-2.35,0-5,.92-8.09,2.75l-3.24-6.47a23.35,23.35,0,0,1,12.7-3.69q5.79,0,9.07,3.27a13,13,0,0,1,18.58,1.51q3.63,4.71,3.64,13v5h-18.78q.11,5.24,2.15,7.79a6.82,6.82,0,0,0,5.62,2.54,17.65,17.65,0,0,0,9.35-2.84v7.7A20.45,20.45,0,0,1,1060.08,433.26Zm-15.47-19.05-2.88.14a6.55,6.55,0,0,0-4.69,1.83,7.1,7.1,0,0,0-1.5,4.92q0,4.84,3.45,4.85a4.7,4.7,0,0,0,4.09-2.3,11,11,0,0,0,1.53-6.14Zm14.17-14.35q-4.4,0-4.82,8.72h9.5a14.2,14.2,0,0,0-1.31-6.5A3.74,3.74,0,0,0,1058.78,399.86Z"/><path class="cls-3" d="M1092.35,425.35a10.93,10.93,0,0,0,4.26-1v7.31c-1.53,1.06-3.81,1.58-6.86,1.58q-5.1,0-7.56-3t-2.46-9.12V400.81h-3.79v-4.18l4.88-3.38,2.39-8.29h6v8.44h7.1v7.41h-7.1v20.61Q1089.19,425.35,1092.35,425.35Z"/><path class="cls-3" d="M1102,427.74a5.89,5.89,0,0,1,1.46-4.25,5.75,5.75,0,0,1,4.34-1.51,5.89,5.89,0,0,1,4.36,1.49,5.8,5.8,0,0,1,1.48,4.27,5.73,5.73,0,0,1-1.53,4.26,5.91,5.91,0,0,1-4.31,1.51,5.72,5.72,0,0,1-4.32-1.53A5.82,5.82,0,0,1,1102,427.74Z"/><path class="cls-3" d="M1172.58,406.37q0,12.72-5.19,19.46t-14.92,6.73h-12.59v-51.4h13.75q9,0,14,6.63T1172.58,406.37Zm-9.81.28q0-17.22-9.49-17.23h-3.83v34.77h3.09a8.32,8.32,0,0,0,7.74-4.37Q1162.77,415.44,1162.77,406.65Z"/><path class="cls-3" d="M1200.67,432.56l-1.16-5H1199a10.16,10.16,0,0,1-3.71,4.2,10,10,0,0,1-5.5,1.53q-5.28,0-8-3.58T1179.12,419V393.4h9.46v23.3a15.87,15.87,0,0,0,1,6.47,3.42,3.42,0,0,0,3.3,2.18,4.6,4.6,0,0,0,4.41-3c.93-2,1.39-5.4,1.39-10.16V393.4h9.46v39.16Z"/><path class="cls-3" d="M416.93,479.06q5.34,0,8.4,5.31t3.06,14.94q0,9.74-3.07,15t-8.53,5.31a9.33,9.33,0,0,1-4.66-1.14,11.29,11.29,0,0,1-3.81-4h-.6L406.14,519h-6.89v-54.7h9.35v12.79c0,.54,0,1.1,0,1.69s-.17,2.64-.45,6.15h.49a11.91,11.91,0,0,1,3.73-4.53A8.22,8.22,0,0,1,416.93,479.06ZM413.7,487a4,4,0,0,0-3.85,2.5c-.79,1.66-1.2,4.59-1.25,8.79v.95q0,6.81,1.21,9.59a4.09,4.09,0,0,0,4,2.78q5.06,0,5.06-12.44Q418.83,487,413.7,487Z"/><path class="cls-3" d="M451.67,479.06a11.08,11.08,0,0,1,3.37.52L454,488.65a7.92,7.92,0,0,0-2.57-.35,6,6,0,0,0-5.23,2.69c-1.22,1.8-1.83,4.4-1.83,7.82V519H435V479.79h7.7l1.05,6.12H444a14.12,14.12,0,0,1,3.37-5.27A6.29,6.29,0,0,1,451.67,479.06Z"/><path class="cls-3" d="M455.25,479.79H465l5.41,22.12a50.75,50.75,0,0,1,1.3,8.26h.21c0-.56.13-1.56.32-3s.34-2.57.45-3.39,1.74-8.81,4.86-24h9.84l-11.22,42q-2,7.74-5.41,11.11a12.17,12.17,0,0,1-9,3.38,18.78,18.78,0,0,1-5-.6v-7.84a11.57,11.57,0,0,0,3.24.42q4.71,0,6.19-6.19l.66-2.46Z"/><path class="cls-3" d="M501.62,519.66q-5.42,0-8.54-5.34T490,499.45q0-9.57,3.06-15t8.44-5.41a8,8,0,0,1,4.62,1.32,11.91,11.91,0,0,1,3.6,4.44h.57c-.28-3.56-.43-6.06-.43-7.49V464.26h9.36V519h-7l-1.59-5.1h-.31Q507.31,519.67,501.62,519.66Zm3-7.91a4,4,0,0,0,3.79-2.37q1.2-2.37,1.3-8.63v-1.23q0-6.82-1.21-9.6a4.12,4.12,0,0,0-4-2.78q-2.6,0-3.78,3.18a28.2,28.2,0,0,0-1.18,9.27q0,6.07,1.2,9.12T504.65,511.75Z"/><path class="cls-3" d="M541.49,519.66a14.1,14.1,0,0,1-11.58-5.22q-4.24-5.22-4.24-14.78t3.83-15.15a12.33,12.33,0,0,1,10.69-5.45,12.18,12.18,0,0,1,10.09,4.65q3.69,4.67,3.69,13.07v5H535.16c.07,3.49.79,6.09,2.15,7.78a6.8,6.8,0,0,0,5.62,2.55,18.26,18.26,0,0,0,9.35-2.84V517A20.58,20.58,0,0,1,541.49,519.66Zm-1.37-33.4a3.82,3.82,0,0,0-3.31,2.13A14.42,14.42,0,0,0,535.3,495h9.49a14.09,14.09,0,0,0-1.3-6.5A3.74,3.74,0,0,0,540.12,486.26Z"/><path class="cls-3" d="M576.86,479.06a11,11,0,0,1,3.37.52l-1.09,9.07a7.86,7.86,0,0,0-2.56-.35,6,6,0,0,0-5.24,2.69c-1.22,1.8-1.83,4.4-1.83,7.82V519h-9.35V479.79h7.7l1,6.12h.32a14.12,14.12,0,0,1,3.37-5.27A6.29,6.29,0,0,1,576.86,479.06Z"/><path class="cls-3" d="M623.23,507.5q0,5.73-3.36,9t-9.9,3.21a18.38,18.38,0,0,1-9.59-2.28v-8.12a18.39,18.39,0,0,0,4.51,2.21,14.33,14.33,0,0,0,4.56.88,4.7,4.7,0,0,0,3.32-1.07,3.71,3.71,0,0,0,1.14-2.83,4.56,4.56,0,0,0-1.19-3.13,20.36,20.36,0,0,0-4.4-3.27,18.12,18.12,0,0,1-6.1-5.4,12.21,12.21,0,0,1-1.84-6.77A9.88,9.88,0,0,1,603.8,482q3.44-2.91,9.41-2.91A18.84,18.84,0,0,1,623,481.8L620,488.51a14.3,14.3,0,0,0-6.61-2,3.54,3.54,0,0,0-2.69.95,3.26,3.26,0,0,0-.9,2.32,4.09,4.09,0,0,0,1.11,2.82,19.67,19.67,0,0,0,4.13,3.06,25.87,25.87,0,0,1,5.13,3.76,11.15,11.15,0,0,1,2.29,3.51A12.09,12.09,0,0,1,623.23,507.5Z"/><path class="cls-3" d="M648.33,519l-1.86-5.34h-.21a13.47,13.47,0,0,1-4.29,4.74,10.88,10.88,0,0,1-5.59,1.3,8.13,8.13,0,0,1-6.81-3.23q-2.48-3.24-2.47-9,0-6.19,3.39-9.2t10.14-3.32l5.2-.21v-2.81q0-5.49-4.74-5.49c-2.35,0-5,.92-8.09,2.75l-3.23-6.47A23.29,23.29,0,0,1,642.46,479q6.22,0,9.47,3.56t3.26,10.11V519Zm-8.12-6.61a4.69,4.69,0,0,0,4.09-2.3,11,11,0,0,0,1.53-6.14v-3.3l-2.88.14a6.51,6.51,0,0,0-4.69,1.83,7.1,7.1,0,0,0-1.5,4.92Q636.76,512.35,640.21,512.35Z"/><path class="cls-3" d="M701.63,519V495.62q0-8.62-4.26-8.62a4.57,4.57,0,0,0-4.43,3.08q-1.34,3.07-1.33,9.86v19h-9.42V495.62q0-8.62-4.33-8.62a4.57,4.57,0,0,0-4.39,3.06c-.92,2-1.37,5.4-1.37,10.09V519h-9.36V479.79h7.42l1.13,5h.59a9.5,9.5,0,0,1,3.85-4.37,10.37,10.37,0,0,1,5.23-1.39q7.17,0,9.56,6.78h.35q3-6.78,9.6-6.78a9.19,9.19,0,0,1,7.89,3.65q2.68,3.66,2.69,10.69V519Z"/><path class="cls-3" d="M757.49,519V495.62q0-8.62-4.25-8.62a4.56,4.56,0,0,0-4.43,3.08q-1.34,3.07-1.34,9.86v19h-9.42V495.62q0-8.62-4.33-8.62a4.57,4.57,0,0,0-4.39,3.06Q728,493.12,728,500.15V519h-9.35V479.79H726l1.12,5h.6a9.44,9.44,0,0,1,3.85-4.37,10.36,10.36,0,0,1,5.22-1.39q7.17,0,9.56,6.78h.35q3-6.78,9.6-6.78a9.19,9.19,0,0,1,7.89,3.65q2.7,3.66,2.69,10.69V519Z"/><path class="cls-3" d="M788.92,519.66a14.1,14.1,0,0,1-11.58-5.22q-4.25-5.22-4.24-14.78t3.83-15.15a12.33,12.33,0,0,1,10.69-5.45,12.19,12.19,0,0,1,10.09,4.65q3.69,4.67,3.69,13.07v5H782.59c.07,3.49.79,6.09,2.15,7.78a6.8,6.8,0,0,0,5.62,2.55,18.26,18.26,0,0,0,9.35-2.84V517A20.58,20.58,0,0,1,788.92,519.66Zm-1.37-33.4a3.82,3.82,0,0,0-3.31,2.13,14.42,14.42,0,0,0-1.51,6.59h9.49a14.09,14.09,0,0,0-1.3-6.5A3.74,3.74,0,0,0,787.55,486.26Z"/><path class="cls-3" d="M827.1,519V495.62a15.78,15.78,0,0,0-1-6.44,3.43,3.43,0,0,0-3.3-2.18,4.63,4.63,0,0,0-4.43,3q-1.41,3-1.41,10.14V519h-9.35V479.79H815l1.12,5h.6a9.67,9.67,0,0,1,9.14-5.76q5.34,0,8,3.65t2.65,10.69V519Z"/><path class="cls-3" d="M881.06,519l-1.86-5.34H879a13.29,13.29,0,0,1-4.29,4.74,10.88,10.88,0,0,1-5.59,1.3,8.11,8.11,0,0,1-6.8-3.23q-2.47-3.24-2.48-9,0-6.19,3.39-9.2t10.15-3.32l5.2-.21v-2.81q0-5.49-4.75-5.49c-2.34,0-5,.92-8.08,2.75l-3.24-6.47A23.29,23.29,0,0,1,875.19,479q6.22,0,9.48,3.56t3.25,10.11V519Zm-8.12-6.61a4.72,4.72,0,0,0,4.1-2.3,11,11,0,0,0,1.53-6.14v-3.3l-2.88.14a6.53,6.53,0,0,0-4.7,1.83,7.15,7.15,0,0,0-1.49,4.92Q869.5,512.35,872.94,512.35Z"/><path class="cls-3" d="M912.88,487.21h-6.47V519h-9.35V487.21h-4.53v-4.67l4.53-2.82v-3q0-6.54,2.71-9.72t8.72-3.18a16,16,0,0,1,7.06,1.58l-2.46,7.14a8.25,8.25,0,0,0-3.58-.85,2.54,2.54,0,0,0-2.36,1.27,8,8,0,0,0-.74,3.9v2.88h6.47Z"/><path class="cls-3" d="M963,479.87v5.48l-4.68,1a12.55,12.55,0,0,1,1.37,6.19q0,6.23-3.37,9.74t-9.42,3.52a8.7,8.7,0,0,1-2.6-.29A11.59,11.59,0,0,0,943,506.9a2.8,2.8,0,0,0-.6,1.83q0,2.46,4.26,2.46h5.66q5,0,7.68,2.69t2.69,8.1q0,6.82-4.57,10.55T945,536.26q-6.51,0-10-2.83a9.78,9.78,0,0,1-3.52-8.07,8.86,8.86,0,0,1,2-5.75A11.27,11.27,0,0,1,939,516a6.8,6.8,0,0,1-2.93-2.18,5.46,5.46,0,0,1-1.15-3.45,6.12,6.12,0,0,1,.36-2.16,6.55,6.55,0,0,1,1-1.83,19.58,19.58,0,0,1,2.65-2.55,10,10,0,0,1-3.83-4.53,16,16,0,0,1-1.41-6.79q0-6.43,3.38-9.95t9.67-3.51a16.08,16.08,0,0,1,2.74.26,15.67,15.67,0,0,1,2.35.55Zm-23,44.78a4.44,4.44,0,0,0,1.46,3.57,6.24,6.24,0,0,0,4.17,1.25q4.24,0,6.38-1.62a5.24,5.24,0,0,0,2.12-4.43,3.81,3.81,0,0,0-1.14-3.13c-.76-.6-2.18-.91-4.27-.91h-4.54a3.74,3.74,0,0,0-3,1.42A6,6,0,0,0,940,524.65Zm2.88-32.06q0,6.93,3.91,6.93t3.79-7q0-7.17-3.79-7.17T942.83,492.59Z"/><path class="cls-3" d="M984.39,479.06a11,11,0,0,1,3.37.52l-1.09,9.07a7.86,7.86,0,0,0-2.56-.35,6,6,0,0,0-5.24,2.69c-1.22,1.8-1.83,4.4-1.83,7.82V519h-9.35V479.79h7.7l1.05,6.12h.32a14.25,14.25,0,0,1,3.37-5.27A6.29,6.29,0,0,1,984.39,479.06Z"/><path class="cls-3" d="M991.63,469.56a5,5,0,0,1,1.35-3.67,5.14,5.14,0,0,1,3.78-1.35,4.69,4.69,0,0,1,5,5,4.82,4.82,0,0,1-1.41,3.71,5.06,5.06,0,0,1-3.62,1.32,5.21,5.21,0,0,1-3.72-1.32A4.82,4.82,0,0,1,991.63,469.56Zm9.74,49.4H992V479.79h9.35Z"/><path class="cls-3" d="M1028.9,519V495.62a15.78,15.78,0,0,0-1-6.44,3.43,3.43,0,0,0-3.31-2.18,4.64,4.64,0,0,0-4.43,3q-1.39,3-1.4,10.14V519h-9.36V479.79h7.42l1.13,5h.6a9.67,9.67,0,0,1,9.14-5.76q5.34,0,8,3.65t2.66,10.69V519Z"/><path class="cls-3" d="M1045.81,514.14a5.83,5.83,0,0,1,1.46-4.25,5.75,5.75,0,0,1,4.34-1.51,5.91,5.91,0,0,1,4.36,1.49,5.84,5.84,0,0,1,1.47,4.27,5.73,5.73,0,0,1-1.53,4.26,5.88,5.88,0,0,1-4.3,1.51,5.76,5.76,0,0,1-4.33-1.53A5.86,5.86,0,0,1,1045.81,514.14Zm9.7-11.74h-7.7l-1.72-34.84h11.21Z"/></svg>
