<svg id="Layer_1" data-name="Layer 1" xmlns="http://www.w3.org/2000/svg" width="257.54908" height="443.13" viewBox="0 0 257.54908 443.13"><defs><style>.cls-1{fill:#009245;}.cls-2{fill:#2a7631;}.cls-3{fill:#066938;}.cls-4{fill:#faccab;}.cls-5{fill:#ffdd5f;}.cls-6{fill:#ef7a8a;}.cls-7{fill:#f7baab;}.cls-8{fill:#041015;}.cls-9{fill:#ef7b8b;}.cls-10{fill:#fff;}.cls-11{fill:#08111d;}.cls-12,.cls-13{fill:none;stroke-linecap:round;stroke-miterlimit:10;stroke-width:8px;}.cls-12{stroke:#fff;}.cls-13{stroke:#f7ef8b;}</style></defs><title>dreng</title><path class="cls-1" d="M251,413.51q-8.1,4.08-16.48,7.62a278.64988,278.64988,0,0,1-217.04,0c-1.47-.61-2.93-1.25-4.38-1.9-.07-1.69-.1-3.39-.1-5.1a124.582,124.582,0,0,1,.78-14,122.666,122.666,0,0,1,6.12-27,120.688,120.688,0,0,1,7.92-18,122.0312,122.0312,0,0,1,19.78-27A118.20639,118.20639,0,0,1,102,296.04a113.83671,113.83671,0,0,1,12.15-2.55h.01c0,.01,0,.01.01,0A116.56892,116.56892,0,0,1,132,292.13a118.31756,118.31756,0,0,1,16.29,1.13c.01.01.01.01.02,0A116.9863,116.9863,0,0,1,163,296.31a118.41667,118.41667,0,0,1,53.4,31.82,122.0312,122.0312,0,0,1,19.78,27,120.688,120.688,0,0,1,7.92,18,124.95175,124.95175,0,0,1,6.9,40.38Z"/><rect class="cls-2" x="40.81034" y="263.48999" width="181.18966" height="89" rx="40.99996"/><path class="cls-3" d="M144.56514,334.699l0,0c-10.30994,5.7274-25.88643,4.99467-34.79108-1.6366L67.90152,301.88c-8.90465-6.63127-7.76544-16.64995,2.54449-22.37736l0,0c10.30993-5.7274,25.88642-4.99467,34.79107,1.6366l41.87251,31.18236C156.01428,318.95288,154.87507,328.97156,144.56514,334.699Z"/><path class="cls-3" d="M113.80318,333.834l0,0c-9.633-6.19584-9.633-16.24129,0-22.43713L159.10035,282.262c9.633-6.19584,25.25105-6.19584,34.884,0l0,0c9.633,6.19584,9.633,16.24129,0,22.43713L148.68718,333.834C139.05423,340.02985,123.43613,340.02985,113.80318,333.834Z"/><rect class="cls-4" x="100" y="247.48999" width="61" height="92" rx="30.49997"/><path class="cls-5" d="M248,104.99a68.48913,68.48913,0,0,1-68.5,68.5H74.5A68.49834,68.49834,0,0,1,24.12,58.58c.63-.69,1.28-1.37,1.94-2.03a68.5012,68.5012,0,0,1,23.83-15.5,45.15242,45.15242,0,0,0,19.29,4.44H160.5a45.32842,45.32842,0,0,0,18.61-3.97,44.77206,44.77206,0,0,0,7.98-4.61A68.45783,68.45783,0,0,1,248,104.99Z"/><ellipse class="cls-4" cx="21.27454" cy="166.53973" rx="21.27454" ry="20.61811"/><ellipse class="cls-6" cx="21.17624" cy="166.66489" rx="11.60383" ry="11.49295"/><ellipse class="cls-4" cx="236.27454" cy="166.53973" rx="21.27454" ry="20.61811"/><ellipse class="cls-6" cx="236.17624" cy="166.66489" rx="11.60383" ry="11.49295"/><path class="cls-4" d="M236,136.97V184.6a108.485,108.485,0,1,1-216.97,0V136.97A107.933,107.933,0,0,1,32.52,84.54,109.052,109.052,0,0,1,69.18,45.49H160.5a45.32842,45.32842,0,0,0,18.61-3.97A108.37308,108.37308,0,0,1,236,136.97Z"/><rect class="cls-7" x="118.5301" y="161.15784" width="22.30776" height="34" rx="11.15387"/><path class="cls-8" d="M177,214.88731c0,.78557-.02606,1.55995-.07447,2.33435-.02233.38718-.05212.77067-.08934,1.15413s-.0782.767-.1266,1.1467c-.12284.968-.28293,1.92853-.48026,2.87419-.0968.47654-.20476.94564-.3239,1.41475-.11542.46538-.242.93076-.376,1.39241a40.47755,40.47755,0,0,1-12.152,18.846,46.09866,46.09866,0,0,1-6.60093,4.87718q-1.26769.78181-2.59867,1.48549a52.47629,52.47629,0,0,1-49.602-.67759q-1.0108-.57524-1.98436-1.19138a46.83355,46.83355,0,0,1-5.283-3.898,40.538,40.538,0,0,1-12.8333-19.44169c-.134-.46165-.2606-.927-.37974-1.39241-.11914-.46911-.22339-.93821-.3239-1.41475q-.1508-.70925-.26807-1.42965-.11728-.71481-.21221-1.44082v-.00372a36.71706,36.71706,0,0,1-.29039-4.63518,36.3238,36.3238,0,0,1,.25689-4.33732h93.48534A36.3238,36.3238,0,0,1,177,214.88731Z"/><path class="cls-9" d="M156.77648,248.927q-1.26769.78181-2.59867,1.48549a52.47629,52.47629,0,0,1-49.602-.67759q-1.0108-.57524-1.98436-1.19138c7.21524-9.91816,16.63823-15.91969,26.95474-15.91969C139.99305,232.62384,149.53145,238.78175,156.77648,248.927Z"/><path class="cls-10" d="M177,214.88716a37.00067,37.00067,0,0,1-.2916,4.63578,36.61755,36.61755,0,0,1-1.18014,5.68258H84.47518a36.22851,36.22851,0,0,1-1.18358-5.68258A37.00067,37.00067,0,0,1,83,214.88716a36.28436,36.28436,0,0,1,.2573-4.3367h93.4854A36.28436,36.28436,0,0,1,177,214.88716Z"/><circle class="cls-11" cx="67.74374" cy="162.74625" r="8.74374"/><circle class="cls-11" cx="185.74374" cy="162.74625" r="8.74374"/><path class="cls-5" d="M254,54.99a55.38628,55.38628,0,0,1-16.26,39.24,56.11057,56.11057,0,0,1-7.92,6.58,55.2181,55.2181,0,0,1-31.32,9.68H79.5A55.48826,55.48826,0,0,1,24.12,58.58c.63-.69,1.28-1.37,1.94-2.03a68.5012,68.5012,0,0,1,23.83-15.5,45.15242,45.15242,0,0,0,19.29,4.44H160.5a45.32842,45.32842,0,0,0,18.61-3.97,44.77206,44.77206,0,0,0,7.98-4.61A45.16438,45.16438,0,0,0,192.67,32.16,45.30462,45.30462,0,0,0,206,0,55.49762,55.49762,0,0,1,254,54.99Z"/><path class="cls-5" d="M179.11,41.52a45.32842,45.32842,0,0,1-18.61,3.97H69.19a107.75759,107.75759,0,0,1,17.37-9h81.92A107.64888,107.64888,0,0,1,179.11,41.52Z"/><path class="cls-5" d="M86.56,36.49a107.75759,107.75759,0,0,0-17.37,9h-.01a45.15242,45.15242,0,0,1-19.29-4.44A68.14068,68.14068,0,0,1,74.5,36.49Z"/><path class="cls-5" d="M187.09,36.91a44.77206,44.77206,0,0,1-7.98,4.61,107.64888,107.64888,0,0,0-10.63-5.03H179.5A67.88275,67.88275,0,0,1,187.09,36.91Z"/><rect class="cls-5" x="39" y="123.48999" width="53" height="22.07695" rx="11.03846" transform="translate(-10.51892 5.65146) rotate(-4.57371)"/><rect class="cls-5" x="163" y="123.48999" width="53" height="22.07695" rx="11.03846" transform="translate(367.66906 283.73954) rotate(-175.42629)"/><line class="cls-12" x1="99.00275" y1="341.48999" x2="99.00275" y2="425.48999"/><line class="cls-12" x1="160" y1="341.48999" x2="160" y2="425.48999"/><path class="cls-13" d="M244.00121,41.52v.00011A53.7632,53.7632,0,0,1,194.48747,99.2206"/></svg>
