<svg xmlns="http://www.w3.org/2000/svg" width="3147" height="610.83" viewBox="0 0 3147 610.83"><defs><style>.cls-1{fill:#f6f6f6;}.cls-2{fill:#52914c;}.cls-3{fill:#4b7539;}.cls-4{fill:#3c683d;}.cls-5{fill:#eecbab;}.cls-6{fill:#f5dc68;}.cls-7{fill:#d57989;}.cls-8{fill:#e7b9aa;}.cls-9{fill:#0f161b;}.cls-10{fill:#d57a8a;}.cls-11{fill:#fff;}.cls-12{fill:#121821;}.cls-13,.cls-14{fill:none;stroke-linecap:round;stroke-miterlimit:10;stroke-width:8px;}.cls-13{stroke:#fff;}.cls-14{stroke:#f4ee90;}</style></defs><title>dreng_sprite</title><g id="Layer_1" data-name="Layer 1"><path class="cls-1" d="M590.74,308.59c0,115.72-65.25,215.77-160,263.38q-8.1,4.08-16.48,7.62a278.65,278.65,0,0,1-217,0c-1.47-.61-2.93-1.25-4.38-1.9-101.25-45-172.1-148.52-172.1-269.1,0-161.82,127.6-293,285-293S590.74,146.77,590.74,308.59Z"/><path class="cls-2" d="M430.74,571.61q-8.1,4.08-16.48,7.62a278.65,278.65,0,0,1-217,0c-1.47-.61-2.93-1.25-4.38-1.9-.07-1.69-.1-3.39-.1-5.1a124.59,124.59,0,0,1,.78-14,122.67,122.67,0,0,1,6.12-27,120.69,120.69,0,0,1,7.92-18,122,122,0,0,1,19.78-27,118.21,118.21,0,0,1,54.4-32.09,113.83,113.83,0,0,1,12.15-2.55h0s0,0,0,0a116.57,116.57,0,0,1,17.83-1.36A118.32,118.32,0,0,1,328,451.36h0a117,117,0,0,1,14.69,3.05,118.42,118.42,0,0,1,53.4,31.82,122,122,0,0,1,19.78,27,120.69,120.69,0,0,1,7.92,18,124.95,124.95,0,0,1,6.9,40.38Z"/><rect class="cls-3" x="220.55" y="421.59" width="181.19" height="89" rx="41"/><path class="cls-4" d="M324.31,492.8h0c-10.31,5.73-25.89,5-34.8-1.64L247.64,460c-8.9-6.63-7.76-16.65,2.55-22.38h0c10.31-5.73,25.88-5,34.79,1.64l41.87,31.18C335.75,477.05,334.62,487.07,324.31,492.8Z"/><path class="cls-4" d="M293.54,491.93h0c-9.63-6.19-9.63-16.24,0-22.43l45.3-29.14c9.63-6.19,25.25-6.19,34.88,0h0c9.64,6.2,9.64,16.24,0,22.44l-45.29,29.13C318.79,498.13,303.18,498.13,293.54,491.93Z"/><rect class="cls-5" x="279.74" y="405.59" width="61" height="92" rx="30.5"/><path class="cls-6" d="M427.74,263.09a68.49,68.49,0,0,1-68.5,68.5h-105a68.5,68.5,0,0,1-50.38-114.91c.63-.69,1.28-1.37,1.94-2a68.5,68.5,0,0,1,23.83-15.5,45.15,45.15,0,0,0,19.29,4.44h91.32a45.33,45.33,0,0,0,18.61-4,44.77,44.77,0,0,0,8-4.61,68.46,68.46,0,0,1,60.91,68.08Z"/><ellipse class="cls-5" cx="201.01" cy="324.64" rx="21.27" ry="20.62"/><ellipse class="cls-7" cx="200.92" cy="324.76" rx="11.6" ry="11.49"/><ellipse class="cls-5" cx="416.01" cy="324.64" rx="21.27" ry="20.62"/><ellipse class="cls-7" cx="415.92" cy="324.76" rx="11.6" ry="11.49"/><path class="cls-5" d="M415.74,295.07V342.7a108.49,108.49,0,1,1-217,0V295.07a107.93,107.93,0,0,1,13.49-52.43,109.05,109.05,0,0,1,36.66-39h91.32a45.33,45.33,0,0,0,18.61-4,108.37,108.37,0,0,1,56.89,95.45Z"/><rect class="cls-8" x="298.27" y="319.26" width="22.31" height="34" rx="11.15"/><path class="cls-9" d="M356.74,373c0,.78,0,1.56-.07,2.33l-.09,1.16c0,.38-.08.76-.13,1.14q-.18,1.45-.48,2.88c-.1.47-.21.94-.32,1.41s-.25.93-.38,1.39a40.47,40.47,0,0,1-12.15,18.85,47.11,47.11,0,0,1-6.6,4.88c-.85.52-1.72,1-2.6,1.48a52.44,52.44,0,0,1-49.6-.68c-.68-.38-1.34-.78-2-1.19a45.55,45.55,0,0,1-5.28-3.9,40.53,40.53,0,0,1-12.83-19.44c-.14-.46-.27-.92-.38-1.39s-.23-.94-.33-1.41-.19-.95-.27-1.43-.15-1-.21-1.44h0a37.37,37.37,0,0,1-.29-4.63,36.65,36.65,0,0,1,.26-4.34h93.48A36.65,36.65,0,0,1,356.74,373Z"/><path class="cls-10" d="M336.52,407c-.85.52-1.72,1-2.6,1.48a52.44,52.44,0,0,1-49.6-.68c-.68-.38-1.34-.78-2-1.19,7.22-9.92,16.64-15.92,27-15.92S329.27,396.88,336.52,407Z"/><path class="cls-11" d="M356.74,373a37.37,37.37,0,0,1-.29,4.63,35.78,35.78,0,0,1-1.18,5.68h-91a35.8,35.8,0,0,1-1.19-5.68,37.37,37.37,0,0,1-.29-4.63,36.65,36.65,0,0,1,.26-4.34h93.48A36.65,36.65,0,0,1,356.74,373Z"/><circle class="cls-12" cx="247.48" cy="320.85" r="8.74"/><circle class="cls-12" cx="365.48" cy="320.85" r="8.74"/><path class="cls-6" d="M433.74,213.09a55.39,55.39,0,0,1-16.26,39.24,56.11,56.11,0,0,1-7.92,6.58,55.22,55.22,0,0,1-31.32,9.68h-119a55.49,55.49,0,0,1-55.38-51.91c.63-.69,1.28-1.37,1.94-2a68.5,68.5,0,0,1,23.83-15.5,45.15,45.15,0,0,0,19.29,4.44h91.32a45.33,45.33,0,0,0,18.61-4,45.67,45.67,0,0,0,13.56-9.36,45.3,45.3,0,0,0,13.33-32.16A55.5,55.5,0,0,1,433.74,213.09Z"/><path class="cls-6" d="M358.85,199.62a45.33,45.33,0,0,1-18.61,4H248.93a107.76,107.76,0,0,1,17.37-9h81.92A107.65,107.65,0,0,1,358.85,199.62Z"/><path class="cls-6" d="M266.3,194.59a107.76,107.76,0,0,0-17.37,9h0a45.15,45.15,0,0,1-19.29-4.44,68.14,68.14,0,0,1,24.61-4.56Z"/><path class="cls-6" d="M366.83,195a44.77,44.77,0,0,1-8,4.61,107.65,107.65,0,0,0-10.63-5h11A67.87,67.87,0,0,1,366.83,195Z"/><rect class="cls-6" x="218.74" y="281.59" width="53" height="22.08" rx="11.04" transform="matrix(1, -0.08, 0.08, 1, -22.55, 20.49)"/><rect class="cls-6" x="342.74" y="281.59" width="53" height="22.08" rx="11.04" transform="translate(713.97 613.77) rotate(-175.43)"/><line class="cls-13" x1="278.74" y1="499.59" x2="278.74" y2="583.59"/><line class="cls-13" x1="339.74" y1="499.59" x2="339.74" y2="583.59"/><path class="cls-14" d="M423.74,199.62h0a53.76,53.76,0,0,1-49.51,57.7"/></g><g id="Layer_2" data-name="Layer 2"><path class="cls-1" d="M1224,308.59c0,115.72-65.25,215.77-160,263.38q-8.1,4.08-16.48,7.62a278.65,278.65,0,0,1-217,0c-1.47-.61-2.93-1.25-4.38-1.9C724.82,532.74,654,429.17,654,308.59c0-161.82,127.6-293,285-293S1224,146.77,1224,308.59Z"/><path class="cls-2" d="M1064,571.61q-8.1,4.08-16.48,7.62a278.65,278.65,0,0,1-217,0c-1.47-.61-2.93-1.25-4.38-1.9-.07-1.69-.1-3.39-.1-5.1a124.59,124.59,0,0,1,.78-14,122.67,122.67,0,0,1,6.12-27,120.69,120.69,0,0,1,7.92-18,122,122,0,0,1,19.78-27A118.21,118.21,0,0,1,915,454.14a113.83,113.83,0,0,1,12.15-2.55h0s0,0,0,0A116.57,116.57,0,0,1,945,450.23a118.32,118.32,0,0,1,16.29,1.13h0A117,117,0,0,1,976,454.41a118.42,118.42,0,0,1,53.4,31.82,122,122,0,0,1,19.78,27,120.69,120.69,0,0,1,7.92,18,124.95,124.95,0,0,1,6.9,40.38Z"/><rect class="cls-3" x="853.78" y="421.59" width="181.19" height="89" rx="41"/><path class="cls-4" d="M957.54,492.8h0c-10.31,5.73-25.89,5-34.8-1.64L880.87,460c-8.9-6.63-7.76-16.65,2.55-22.38h0c10.31-5.73,25.88-5,34.79,1.64l41.87,31.18C969,477.05,967.85,487.07,957.54,492.8Z"/><path class="cls-4" d="M926.77,491.93h0c-9.63-6.19-9.63-16.24,0-22.43l45.3-29.14c9.63-6.19,25.25-6.19,34.88,0h0c9.64,6.2,9.64,16.24,0,22.44l-45.29,29.13C952,498.13,936.41,498.13,926.77,491.93Z"/><rect class="cls-5" x="912.97" y="405.59" width="61" height="92" rx="30.5"/><path class="cls-6" d="M1061,263.09a68.49,68.49,0,0,1-68.5,68.5h-105a68.5,68.5,0,0,1-50.38-114.91c.63-.69,1.28-1.37,1.94-2a68.5,68.5,0,0,1,23.83-15.5,45.15,45.15,0,0,0,19.29,4.44h91.32a45.33,45.33,0,0,0,18.61-4,44.77,44.77,0,0,0,8-4.61A68.46,68.46,0,0,1,1061,263.09Z"/><ellipse class="cls-5" cx="834.25" cy="324.64" rx="21.27" ry="20.62"/><ellipse class="cls-7" cx="834.15" cy="324.76" rx="11.6" ry="11.49"/><ellipse class="cls-5" cx="1049.25" cy="324.64" rx="21.27" ry="20.62"/><ellipse class="cls-7" cx="1049.15" cy="324.76" rx="11.6" ry="11.49"/><path class="cls-5" d="M1049,295.07V342.7a108.49,108.49,0,1,1-217,0V295.07a107.93,107.93,0,0,1,13.49-52.43,109.05,109.05,0,0,1,36.66-39h91.32a45.33,45.33,0,0,0,18.61-4A108.37,108.37,0,0,1,1049,295.07Z"/><rect class="cls-8" x="931.5" y="319.26" width="22.31" height="34" rx="11.15"/><path class="cls-9" d="M990,373c0,.78,0,1.56-.07,2.33l-.09,1.16c0,.38-.08.76-.13,1.14q-.18,1.45-.48,2.88c-.1.47-.2.94-.32,1.41s-.25.93-.38,1.39a40.47,40.47,0,0,1-12.15,18.85,47.11,47.11,0,0,1-6.6,4.88c-.85.52-1.72,1-2.6,1.48a52.44,52.44,0,0,1-49.6-.68c-.68-.38-1.34-.78-2-1.19a45.55,45.55,0,0,1-5.28-3.9,40.53,40.53,0,0,1-12.83-19.44c-.14-.46-.26-.92-.38-1.39s-.23-.94-.33-1.41-.19-.95-.27-1.43l-.21-1.44h0A37.37,37.37,0,0,1,896,373a36.65,36.65,0,0,1,.26-4.34h93.48A36.65,36.65,0,0,1,990,373Z"/><path class="cls-10" d="M969.75,407c-.85.52-1.72,1-2.6,1.48a52.44,52.44,0,0,1-49.6-.68c-.68-.38-1.34-.78-2-1.19,7.22-9.92,16.64-15.92,27-15.92S962.5,396.88,969.75,407Z"/><path class="cls-11" d="M990,373a37.37,37.37,0,0,1-.29,4.63,35.78,35.78,0,0,1-1.18,5.68h-91a35.8,35.8,0,0,1-1.19-5.68A37.37,37.37,0,0,1,896,373a36.65,36.65,0,0,1,.26-4.34h93.48A36.65,36.65,0,0,1,990,373Z"/><ellipse class="cls-12" cx="880.71" cy="321.95" rx="8.74" ry="4.38"/><ellipse class="cls-12" cx="998.71" cy="321.95" rx="8.74" ry="4.38"/><path class="cls-6" d="M1067,213.09a55.39,55.39,0,0,1-16.26,39.24,56.11,56.11,0,0,1-7.92,6.58,55.22,55.22,0,0,1-31.32,9.68h-119a55.49,55.49,0,0,1-55.38-51.91c.63-.69,1.28-1.37,1.94-2a68.5,68.5,0,0,1,23.83-15.5,45.15,45.15,0,0,0,19.29,4.44h91.32a45.33,45.33,0,0,0,18.61-4,45.67,45.67,0,0,0,13.56-9.36A45.3,45.3,0,0,0,1019,158.1,55.5,55.5,0,0,1,1067,213.09Z"/><path class="cls-6" d="M992.08,199.62a45.33,45.33,0,0,1-18.61,4H882.16a107.76,107.76,0,0,1,17.37-9h81.92A107.65,107.65,0,0,1,992.08,199.62Z"/><path class="cls-6" d="M899.53,194.59a107.76,107.76,0,0,0-17.37,9h0a45.15,45.15,0,0,1-19.29-4.44,68.14,68.14,0,0,1,24.61-4.56Z"/><path class="cls-6" d="M1000.06,195a44.77,44.77,0,0,1-8,4.61,107.65,107.65,0,0,0-10.63-5h11A67.87,67.87,0,0,1,1000.06,195Z"/><rect class="cls-6" x="851.97" y="281.59" width="53" height="22.08" rx="11.04" transform="translate(-20.54 70.98) rotate(-4.57)"/><rect class="cls-6" x="975.97" y="281.59" width="53" height="22.08" rx="11.04" transform="translate(1978.41 664.26) rotate(-175.43)"/><line class="cls-13" x1="911.97" y1="499.59" x2="911.97" y2="583.59"/><line class="cls-13" x1="972.97" y1="499.59" x2="972.97" y2="583.59"/><path class="cls-14" d="M1057,199.62h0a53.76,53.76,0,0,1-49.51,57.7"/></g><g id="Layer_3" data-name="Layer 3"><path class="cls-1" d="M1857.2,308.59c0,115.72-65.25,215.77-160,263.38q-8.1,4.08-16.48,7.62a278.65,278.65,0,0,1-217,0c-1.47-.61-2.93-1.25-4.38-1.9-101.25-45-172.1-148.52-172.1-269.1,0-161.82,127.6-293,285-293S1857.2,146.77,1857.2,308.59Z"/><path class="cls-2" d="M1697.2,571.61q-8.1,4.08-16.48,7.62a278.65,278.65,0,0,1-217,0c-1.47-.61-2.93-1.25-4.38-1.9-.07-1.69-.1-3.39-.1-5.1a124.59,124.59,0,0,1,.78-14,122.67,122.67,0,0,1,6.12-27,120.69,120.69,0,0,1,7.92-18,122,122,0,0,1,19.78-27,118.21,118.21,0,0,1,54.4-32.09,113.83,113.83,0,0,1,12.15-2.55h0s0,0,0,0a116.57,116.57,0,0,1,17.83-1.36,118.32,118.32,0,0,1,16.29,1.13h0a117,117,0,0,1,14.69,3.05,118.42,118.42,0,0,1,53.4,31.82,122,122,0,0,1,19.78,27,120.69,120.69,0,0,1,7.92,18,124.95,124.95,0,0,1,6.9,40.38Z"/><rect class="cls-3" x="1487.01" y="421.59" width="181.19" height="89" rx="41"/><path class="cls-4" d="M1590.77,492.8h0c-10.31,5.73-25.89,5-34.8-1.64L1514.1,460c-8.9-6.63-7.76-16.65,2.55-22.38h0c10.31-5.73,25.88-5,34.79,1.64l41.87,31.18C1602.22,477.05,1601.08,487.07,1590.77,492.8Z"/><path class="cls-4" d="M1560,491.93h0c-9.63-6.19-9.63-16.24,0-22.43l45.3-29.14c9.63-6.19,25.25-6.19,34.89,0h0c9.63,6.2,9.63,16.24,0,22.44l-45.3,29.13C1585.26,498.13,1569.64,498.13,1560,491.93Z"/><rect class="cls-5" x="1546.2" y="405.59" width="61" height="92" rx="30.5"/><path class="cls-6" d="M1694.2,263.09a68.49,68.49,0,0,1-68.5,68.5h-105a68.5,68.5,0,0,1-50.38-114.91c.63-.69,1.28-1.37,1.94-2a68.5,68.5,0,0,1,23.83-15.5,45.15,45.15,0,0,0,19.29,4.44h91.32a45.33,45.33,0,0,0,18.61-4,44.77,44.77,0,0,0,8-4.61,68.46,68.46,0,0,1,60.91,68.08Z"/><ellipse class="cls-5" cx="1467.48" cy="324.64" rx="21.27" ry="20.62"/><ellipse class="cls-7" cx="1467.38" cy="324.76" rx="11.6" ry="11.49"/><ellipse class="cls-5" cx="1682.48" cy="324.64" rx="21.27" ry="20.62"/><ellipse class="cls-7" cx="1682.38" cy="324.76" rx="11.6" ry="11.49"/><path class="cls-5" d="M1682.2,295.07V342.7a108.49,108.49,0,1,1-217,0V295.07a107.93,107.93,0,0,1,13.49-52.43,109.05,109.05,0,0,1,36.66-39h91.32a45.33,45.33,0,0,0,18.61-4,108.37,108.37,0,0,1,56.89,95.45Z"/><rect class="cls-8" x="1564.73" y="319.26" width="22.31" height="34" rx="11.15"/><path class="cls-9" d="M1623.2,373c0,.78,0,1.56-.07,2.33l-.09,1.16c0,.38-.08.76-.13,1.14q-.18,1.45-.48,2.88c-.1.47-.2.94-.32,1.41s-.25.93-.38,1.39a40.47,40.47,0,0,1-12.15,18.85A46.53,46.53,0,0,1,1603,407c-.85.52-1.72,1-2.6,1.48a52.44,52.44,0,0,1-49.6-.68c-.68-.38-1.34-.78-2-1.19a45.55,45.55,0,0,1-5.28-3.9,40.53,40.53,0,0,1-12.83-19.44c-.14-.46-.26-.92-.38-1.39s-.23-.94-.33-1.41-.19-.95-.27-1.43l-.21-1.44h0a37.37,37.37,0,0,1-.29-4.63,36.65,36.65,0,0,1,.26-4.34h93.48A34.64,34.64,0,0,1,1623.2,373Z"/><path class="cls-10" d="M1603,407c-.85.52-1.72,1-2.6,1.48a52.44,52.44,0,0,1-49.6-.68c-.68-.38-1.34-.78-2-1.19,7.22-9.92,16.64-15.92,27-15.92S1595.73,396.88,1603,407Z"/><path class="cls-11" d="M1623.2,373a37.37,37.37,0,0,1-.29,4.63,35.78,35.78,0,0,1-1.18,5.68h-91a35.8,35.8,0,0,1-1.19-5.68,37.37,37.37,0,0,1-.29-4.63,36.65,36.65,0,0,1,.26-4.34h93.48A34.64,34.64,0,0,1,1623.2,373Z"/><ellipse class="cls-12" cx="1513.94" cy="322.67" rx="8.74" ry="1.4"/><ellipse class="cls-12" cx="1631.94" cy="322.67" rx="8.74" ry="1.4"/><path class="cls-6" d="M1700.2,213.09a55.39,55.39,0,0,1-16.26,39.24,56.11,56.11,0,0,1-7.92,6.58,55.22,55.22,0,0,1-31.32,9.68h-119a55.49,55.49,0,0,1-55.38-51.91c.63-.69,1.28-1.37,1.94-2a68.5,68.5,0,0,1,23.83-15.5,45.15,45.15,0,0,0,19.29,4.44h91.32a45.33,45.33,0,0,0,18.61-4,45.67,45.67,0,0,0,13.56-9.36,45.3,45.3,0,0,0,13.33-32.16A55.5,55.5,0,0,1,1700.2,213.09Z"/><path class="cls-6" d="M1625.31,199.62a45.33,45.33,0,0,1-18.61,4h-91.31a107.76,107.76,0,0,1,17.37-9h81.92A107.65,107.65,0,0,1,1625.31,199.62Z"/><path class="cls-6" d="M1532.76,194.59a107.76,107.76,0,0,0-17.37,9h0a45.15,45.15,0,0,1-19.29-4.44,68.14,68.14,0,0,1,24.61-4.56Z"/><path class="cls-6" d="M1633.29,195a44.77,44.77,0,0,1-8,4.61,107.65,107.65,0,0,0-10.63-5h11A67.87,67.87,0,0,1,1633.29,195Z"/><rect class="cls-6" x="1485.2" y="281.59" width="53" height="22.08" rx="11.04" transform="translate(-18.52 121.48) rotate(-4.57)"/><rect class="cls-6" x="1609.2" y="281.59" width="53" height="22.08" rx="11.04" transform="matrix(-1, -0.08, 0.08, -1, 3242.86, 714.76)"/><line class="cls-13" x1="1545.2" y1="499.59" x2="1545.2" y2="583.59"/><line class="cls-13" x1="1606.2" y1="499.59" x2="1606.2" y2="583.59"/><path class="cls-14" d="M1690.2,199.62h0a53.76,53.76,0,0,1-49.51,57.7"/></g><g id="Layer_4" data-name="Layer 4"><path class="cls-1" d="M2488.54,313.27c0,115.72-65.25,215.77-160,263.38q-8.1,4.08-16.48,7.62a278.65,278.65,0,0,1-217,0c-1.47-.61-2.93-1.25-4.38-1.9-101.25-45-172.1-148.52-172.1-269.1,0-161.82,127.6-293,285-293S2488.54,151.45,2488.54,313.27Z"/><path class="cls-2" d="M2328.54,576.29q-8.1,4.08-16.48,7.62a278.65,278.65,0,0,1-217,0c-1.47-.61-2.93-1.25-4.38-1.9-.07-1.69-.1-3.39-.1-5.1a124.59,124.59,0,0,1,.78-14,122.67,122.67,0,0,1,6.12-27,120.69,120.69,0,0,1,7.92-18,122,122,0,0,1,19.78-27,118.21,118.21,0,0,1,54.4-32.09,113.83,113.83,0,0,1,12.15-2.55h0a116.57,116.57,0,0,1,17.83-1.36,118.32,118.32,0,0,1,16.29,1.13h0a117,117,0,0,1,14.69,3,118.42,118.42,0,0,1,53.4,31.82,122,122,0,0,1,19.78,27,120.69,120.69,0,0,1,7.92,18,124.95,124.95,0,0,1,6.9,40.38Z"/><rect class="cls-3" x="2118.35" y="426.27" width="181.19" height="89" rx="41"/><path class="cls-4" d="M2222.1,497.48h0c-10.31,5.73-25.89,5-34.79-1.64l-41.87-31.18c-8.91-6.63-7.77-16.65,2.54-22.38h0c10.31-5.72,25.89-5,34.79,1.64l41.88,31.18C2233.55,481.73,2232.41,491.75,2222.1,497.48Z"/><path class="cls-4" d="M2191.34,496.62h0c-9.63-6.2-9.63-16.25,0-22.44l45.3-29.14c9.63-6.19,25.25-6.19,34.88,0h0c9.63,6.2,9.63,16.24,0,22.44l-45.3,29.14C2216.59,502.81,2201,502.81,2191.34,496.62Z"/><rect class="cls-5" x="2177.54" y="410.27" width="61" height="92" rx="30.5"/><path class="cls-6" d="M2325.54,267.77a68.49,68.49,0,0,1-68.5,68.5H2152a68.5,68.5,0,0,1-50.38-114.91c.63-.69,1.28-1.37,1.94-2a68.5,68.5,0,0,1,23.83-15.5,45.15,45.15,0,0,0,19.29,4.44H2238a45.33,45.33,0,0,0,18.61-4,44.77,44.77,0,0,0,8-4.61,68.46,68.46,0,0,1,60.91,68.08Z"/><ellipse class="cls-5" cx="2098.81" cy="329.32" rx="21.27" ry="20.62"/><ellipse class="cls-7" cx="2098.71" cy="329.45" rx="11.6" ry="11.49"/><ellipse class="cls-5" cx="2313.81" cy="329.32" rx="21.27" ry="20.62"/><ellipse class="cls-7" cx="2313.71" cy="329.45" rx="11.6" ry="11.49"/><path class="cls-5" d="M2313.54,299.75v47.63a108.49,108.49,0,1,1-217,0V299.75a107.93,107.93,0,0,1,13.49-52.43,109.05,109.05,0,0,1,36.66-39H2238a45.33,45.33,0,0,0,18.61-4,108.37,108.37,0,0,1,56.89,95.45Z"/><rect class="cls-8" x="2196.07" y="323.94" width="22.31" height="34" rx="11.15"/><path class="cls-9" d="M2254.54,377.67c0,.78,0,1.56-.08,2.33,0,.39-.05.77-.09,1.16l-.12,1.14q-.2,1.45-.48,2.88-.15.7-.33,1.41c-.11.47-.24.93-.37,1.4a40.46,40.46,0,0,1-12.16,18.84,46,46,0,0,1-6.6,4.88c-.84.52-1.71,1-2.6,1.48a52.48,52.48,0,0,1-49.6-.67q-1-.58-2-1.2a46.78,46.78,0,0,1-5.29-3.89A40.53,40.53,0,0,1,2162,388c-.13-.47-.26-.93-.38-1.4s-.22-.94-.32-1.41-.19-.95-.27-1.43-.15-1-.21-1.44h0a35.42,35.42,0,0,1-.29-4.63,36.65,36.65,0,0,1,.25-4.34h93.49A36.65,36.65,0,0,1,2254.54,377.67Z"/><path class="cls-10" d="M2234.31,411.71c-.84.52-1.71,1-2.6,1.48a52.48,52.48,0,0,1-49.6-.67q-1-.58-2-1.2c7.21-9.91,16.64-15.91,26.95-15.91S2227.07,401.56,2234.31,411.71Z"/><path class="cls-11" d="M2254.54,377.67a35.42,35.42,0,0,1-.3,4.63,36.13,36.13,0,0,1-1.18,5.69h-91a36.13,36.13,0,0,1-1.18-5.69,37.25,37.25,0,0,1-.29-4.63,36.65,36.65,0,0,1,.25-4.34h93.49A36.65,36.65,0,0,1,2254.54,377.67Z"/><ellipse class="cls-12" cx="2145.28" cy="326.64" rx="8.74" ry="4.38"/><ellipse class="cls-12" cx="2263.28" cy="326.64" rx="8.74" ry="4.38"/><path class="cls-6" d="M2331.54,217.77A55.39,55.39,0,0,1,2315.28,257a56.11,56.11,0,0,1-7.92,6.58,55.22,55.22,0,0,1-31.32,9.68H2157a55.49,55.49,0,0,1-55.38-51.91c.63-.69,1.28-1.37,1.94-2a68.5,68.5,0,0,1,23.83-15.5,45.15,45.15,0,0,0,19.29,4.44H2238a45.33,45.33,0,0,0,18.61-4,45.67,45.67,0,0,0,13.56-9.36,45.3,45.3,0,0,0,13.33-32.16A55.5,55.5,0,0,1,2331.54,217.77Z"/><path class="cls-6" d="M2256.65,204.3a45.33,45.33,0,0,1-18.61,4h-91.31a107.76,107.76,0,0,1,17.37-9H2246A107.65,107.65,0,0,1,2256.65,204.3Z"/><path class="cls-6" d="M2164.1,199.27a107.76,107.76,0,0,0-17.37,9h0a45.15,45.15,0,0,1-19.29-4.44,68.14,68.14,0,0,1,24.61-4.56Z"/><path class="cls-6" d="M2264.63,199.69a44.77,44.77,0,0,1-8,4.61,107.65,107.65,0,0,0-10.63-5h11A67.87,67.87,0,0,1,2264.63,199.69Z"/><rect class="cls-6" x="2116.54" y="286.27" width="53" height="22.08" rx="11.04" transform="translate(-16.88 171.84) rotate(-4.57)"/><rect class="cls-6" x="2240.54" y="286.27" width="53" height="22.08" rx="11.04" transform="translate(4503.14 774.45) rotate(-175.43)"/><line class="cls-13" x1="2176.54" y1="504.27" x2="2176.54" y2="588.27"/><line class="cls-13" x1="2237.54" y1="504.27" x2="2237.54" y2="588.27"/><path class="cls-14" d="M2321.54,204.3h0A53.76,53.76,0,0,1,2272,262"/></g><g id="Layer_5" data-name="Layer 5"><path class="cls-1" d="M3119.87,308.59c0,115.72-65.25,215.77-160,263.38q-8.1,4.08-16.48,7.62a278.65,278.65,0,0,1-217,0c-1.47-.61-2.93-1.25-4.38-1.9-101.25-45-172.1-148.52-172.1-269.1,0-161.82,127.6-293,285-293S3119.87,146.77,3119.87,308.59Z"/><path class="cls-2" d="M2959.87,571.61q-8.1,4.08-16.48,7.62a278.65,278.65,0,0,1-217,0c-1.47-.61-2.93-1.25-4.38-1.9-.07-1.69-.1-3.39-.1-5.1a124.59,124.59,0,0,1,.78-14,122.67,122.67,0,0,1,6.12-27,120.69,120.69,0,0,1,7.92-18,122,122,0,0,1,19.78-27,118.21,118.21,0,0,1,54.4-32.09,113.83,113.83,0,0,1,12.15-2.55h0s0,0,0,0a116.57,116.57,0,0,1,17.83-1.36,118.32,118.32,0,0,1,16.29,1.13h0a117,117,0,0,1,14.69,3.05,118.42,118.42,0,0,1,53.4,31.82,122,122,0,0,1,19.78,27,120.69,120.69,0,0,1,7.92,18,124.95,124.95,0,0,1,6.9,40.38Z"/><rect class="cls-3" x="2749.68" y="421.59" width="181.19" height="89" rx="41"/><path class="cls-4" d="M2853.44,492.8h0c-10.31,5.73-25.89,5-34.79-1.64L2776.77,460c-8.9-6.63-7.76-16.65,2.55-22.38h0c10.31-5.73,25.88-5,34.79,1.64L2856,470.42C2864.89,477.05,2863.75,487.07,2853.44,492.8Z"/><path class="cls-4" d="M2822.67,491.93h0c-9.63-6.19-9.63-16.24,0-22.43l45.3-29.14c9.63-6.19,25.25-6.19,34.89,0h0c9.63,6.2,9.63,16.24,0,22.44l-45.3,29.13C2847.93,498.13,2832.31,498.13,2822.67,491.93Z"/><rect class="cls-5" x="2808.87" y="405.59" width="61" height="92" rx="30.5"/><path class="cls-6" d="M2956.87,263.09a68.49,68.49,0,0,1-68.5,68.5h-105A68.5,68.5,0,0,1,2733,216.68c.63-.69,1.28-1.37,1.94-2a68.5,68.5,0,0,1,23.83-15.5,45.15,45.15,0,0,0,19.29,4.44h91.32a45.33,45.33,0,0,0,18.61-4,44.77,44.77,0,0,0,8-4.61,68.46,68.46,0,0,1,60.91,68.08Z"/><ellipse class="cls-5" cx="2730.15" cy="324.64" rx="21.27" ry="20.62"/><ellipse class="cls-7" cx="2730.05" cy="324.76" rx="11.6" ry="11.49"/><ellipse class="cls-5" cx="2945.15" cy="324.64" rx="21.27" ry="20.62"/><ellipse class="cls-7" cx="2945.05" cy="324.76" rx="11.6" ry="11.49"/><path class="cls-5" d="M2944.87,295.07V342.7a108.49,108.49,0,1,1-217,0V295.07a107.93,107.93,0,0,1,13.49-52.43,109.05,109.05,0,0,1,36.66-39h91.32a45.33,45.33,0,0,0,18.61-4,108.37,108.37,0,0,1,56.89,95.45Z"/><rect class="cls-8" x="2827.4" y="319.26" width="22.31" height="34" rx="11.15"/><path class="cls-9" d="M2885.87,373c0,.78,0,1.56-.07,2.33l-.09,1.16c0,.38-.08.76-.13,1.14q-.18,1.45-.48,2.88c-.1.47-.2.94-.32,1.41s-.25.93-.38,1.39a40.47,40.47,0,0,1-12.15,18.85,46.53,46.53,0,0,1-6.6,4.88c-.85.52-1.71,1-2.6,1.48a52.44,52.44,0,0,1-49.6-.68c-.68-.38-1.34-.78-2-1.19a45.55,45.55,0,0,1-5.28-3.9,40.53,40.53,0,0,1-12.83-19.44c-.14-.46-.26-.92-.38-1.39s-.23-.94-.33-1.41-.19-.95-.27-1.43l-.21-1.44h0a37.37,37.37,0,0,1-.29-4.63,36.65,36.65,0,0,1,.26-4.34h93.48A34.64,34.64,0,0,1,2885.87,373Z"/><path class="cls-10" d="M2865.65,407c-.85.52-1.71,1-2.6,1.48a52.44,52.44,0,0,1-49.6-.68c-.68-.38-1.34-.78-2-1.19,7.22-9.92,16.64-15.92,27-15.92S2858.4,396.88,2865.65,407Z"/><path class="cls-11" d="M2885.87,373a37.37,37.37,0,0,1-.29,4.63,35.78,35.78,0,0,1-1.18,5.68h-91.05a35.8,35.8,0,0,1-1.19-5.68,37.37,37.37,0,0,1-.29-4.63,36.65,36.65,0,0,1,.26-4.34h93.48A34.64,34.64,0,0,1,2885.87,373Z"/><circle class="cls-12" cx="2776.61" cy="320.85" r="8.74"/><circle class="cls-12" cx="2894.61" cy="320.85" r="8.74"/><path class="cls-6" d="M2962.87,213.09a55.39,55.39,0,0,1-16.26,39.24,56.11,56.11,0,0,1-7.92,6.58,55.22,55.22,0,0,1-31.32,9.68h-119A55.49,55.49,0,0,1,2733,216.68c.63-.69,1.28-1.37,1.94-2a68.5,68.5,0,0,1,23.83-15.5,45.15,45.15,0,0,0,19.29,4.44h91.32a45.33,45.33,0,0,0,18.61-4,45.67,45.67,0,0,0,13.56-9.36,45.3,45.3,0,0,0,13.33-32.16A55.5,55.5,0,0,1,2962.87,213.09Z"/><path class="cls-6" d="M2888,199.62a45.33,45.33,0,0,1-18.61,4h-91.31a107.76,107.76,0,0,1,17.37-9h81.92A107.65,107.65,0,0,1,2888,199.62Z"/><path class="cls-6" d="M2795.43,194.59a107.76,107.76,0,0,0-17.37,9h0a45.15,45.15,0,0,1-19.29-4.44,68.14,68.14,0,0,1,24.61-4.56Z"/><path class="cls-6" d="M2896,195a44.77,44.77,0,0,1-8,4.61,107.65,107.65,0,0,0-10.63-5h11A67.87,67.87,0,0,1,2896,195Z"/><rect class="cls-6" x="2747.87" y="281.59" width="53" height="22.08" rx="11.04" transform="translate(-14.5 222.16) rotate(-4.57)"/><rect class="cls-6" x="2871.87" y="281.59" width="53" height="22.08" rx="11.04" transform="translate(5764.18 815.44) rotate(-175.43)"/><line class="cls-13" x1="2807.87" y1="499.59" x2="2807.87" y2="583.59"/><line class="cls-13" x1="2868.87" y1="499.59" x2="2868.87" y2="583.59"/><path class="cls-14" d="M2952.87,199.62h0a53.76,53.76,0,0,1-49.51,57.7"/></g></svg>
