<svg xmlns="http://www.w3.org/2000/svg" width="495.25" height="100" viewBox="0 0 495.25 100"><defs><style>.cls-1{fill:#f6f6f6;}.cls-2{fill:#009245;}.cls-3{fill:#2a7631;}.cls-4{fill:#066938;}.cls-5{fill:#faccab;}.cls-6{fill:#ffdd5f;}.cls-7{fill:#ef7a8a;}.cls-8{fill:#f7baab;}.cls-9{fill:#041015;}.cls-10{fill:#ef7b8b;}.cls-11{fill:#fff;}.cls-12{fill:#08111d;}.cls-13,.cls-14,.cls-15{fill:none;}.cls-13{stroke:#fff;}.cls-13,.cls-14{stroke-linecap:round;stroke-miterlimit:10;}.cls-14{stroke:#f7ef8b;}</style></defs><title>dreng_sprite_1</title><g id="Layer_5" data-name="Layer 5"><path class="cls-1" d="M87,49.29A39,39,0,0,1,66,84.22c-.71.36-1.43.7-2.16,1a36.3,36.3,0,0,1-28.53,0L34.7,85A38.92,38.92,0,0,1,12.08,49.29c0-21.46,16.77-38.86,37.46-38.86S87,27.83,87,49.29Z"/><path class="cls-2" d="M66,84.17c-.71.36-1.43.7-2.16,1a36.3,36.3,0,0,1-28.53,0l-.57-.25c0-.22,0-.45,0-.68a16.26,16.26,0,0,1,.11-1.85,15.77,15.77,0,0,1,.8-3.58,15.42,15.42,0,0,1,1-2.39,16.24,16.24,0,0,1,2.6-3.58,15.53,15.53,0,0,1,7.15-4.26c.52-.14,1.06-.25,1.6-.34h0a16.53,16.53,0,0,1,2.34-.18,17,17,0,0,1,2.15.15h0a15.76,15.76,0,0,1,1.93.41,15.54,15.54,0,0,1,7,4.22A16.24,16.24,0,0,1,64,76.43a17.61,17.61,0,0,1,1,2.39,16.33,16.33,0,0,1,.8,3.58A14.76,14.76,0,0,1,66,84.17Z"/><rect class="cls-3" x="38.34" y="64.28" width="23.81" height="11.8" rx="5.2"/><path class="cls-4" d="M52,73.72h0a4.56,4.56,0,0,1-4.58-.22l-5.5-4.13c-1.17-.88-1-2.21.33-3h0a4.56,4.56,0,0,1,4.58.22l5.5,4.13C53.48,71.63,53.33,73,52,73.72Z"/><path class="cls-4" d="M47.93,73.6h0a1.64,1.64,0,0,1,0-3l6-3.86a4.52,4.52,0,0,1,4.58,0h0a1.63,1.63,0,0,1,0,3L52.52,73.6A4.54,4.54,0,0,1,47.93,73.6Z"/><rect class="cls-5" x="46.12" y="62.15" width="8.02" height="12.2" rx="3.56"/><path class="cls-6" d="M65.57,43.26A9.05,9.05,0,0,1,64,48.39a8.17,8.17,0,0,1-1.06,1.29,9,9,0,0,1-6.36,2.66H42.77a9,9,0,0,1-7.29-3.75,9.14,9.14,0,0,1,.66-11.49l.26-.27a9,9,0,0,1,3.13-2,6,6,0,0,0,2.54.59h12a5.92,5.92,0,0,0,2.45-.53,5.67,5.67,0,0,0,1-.61,9.06,9.06,0,0,1,8,9Z"/><ellipse class="cls-5" cx="35.77" cy="51.42" rx="2.8" ry="2.73"/><circle class="cls-7" cx="35.76" cy="51.44" r="1.52"/><ellipse class="cls-5" cx="64.03" cy="51.42" rx="2.8" ry="2.73"/><circle class="cls-7" cx="64.02" cy="51.44" r="1.52"/><path class="cls-5" d="M64,47.5v6.31A14.32,14.32,0,0,1,49.74,68.2,14.17,14.17,0,0,1,39.65,64a14.42,14.42,0,0,1-4.17-10.18V47.5a14.36,14.36,0,0,1,6.59-12.13h12a5.92,5.92,0,0,0,2.45-.53A14.4,14.4,0,0,1,64,47.5Z"/><rect class="cls-8" x="48.55" y="50.71" width="2.93" height="4.51" rx="1.3"/><path class="cls-9" d="M56.24,57.83c0,.1,0,.21,0,.31s0,.1,0,.15,0,.1,0,.16l-.06.38c0,.06,0,.12,0,.18s0,.13,0,.19a5.39,5.39,0,0,1-1.6,2.5,6.09,6.09,0,0,1-.87.64,3.79,3.79,0,0,1-.34.2,6.86,6.86,0,0,1-6.52-.09,2.26,2.26,0,0,1-.26-.16,6,6,0,0,1-.7-.51,5.38,5.38,0,0,1-1.68-2.58A1.05,1.05,0,0,1,44,59a1.16,1.16,0,0,1,0-.18,1.62,1.62,0,0,1,0-.19l0-.19h0c0-.21,0-.41,0-.62a5.27,5.27,0,0,1,0-.57H56.2A3.56,3.56,0,0,1,56.24,57.83Z"/><path class="cls-10" d="M53.58,62.34a3.79,3.79,0,0,1-.34.2,6.86,6.86,0,0,1-6.52-.09,2.26,2.26,0,0,1-.26-.16A4.49,4.49,0,0,1,50,60.18,4.51,4.51,0,0,1,53.58,62.34Z"/><path class="cls-11" d="M56.24,57.83a4.3,4.3,0,0,1,0,.62,5,5,0,0,1-.15.75h-12a5,5,0,0,1-.16-.75c0-.21,0-.41,0-.62a3.56,3.56,0,0,1,0-.57H56.2A3.56,3.56,0,0,1,56.24,57.83Z"/><ellipse class="cls-12" cx="41.88" cy="50.92" rx="1.15" ry="1.16"/><ellipse class="cls-12" cx="57.39" cy="50.92" rx="1.15" ry="1.16"/><path class="cls-6" d="M66.36,36.63a7.38,7.38,0,0,1-1.17,4,8,8,0,0,1-1,1.2,7.86,7.86,0,0,1-1,.87A7.22,7.22,0,0,1,59.06,44H43.42a7.36,7.36,0,0,1-7.28-6.89l.26-.27a9,9,0,0,1,3.13-2,6,6,0,0,0,2.54.59h12a5.92,5.92,0,0,0,2.45-.53,5.67,5.67,0,0,0,1-.61,5.59,5.59,0,0,0,.74-.63,6,6,0,0,0,1.75-4.27A7.35,7.35,0,0,1,66.36,36.63Z"/><path class="cls-6" d="M56.52,34.84a5.92,5.92,0,0,1-2.45.53h-12a13.76,13.76,0,0,1,2.28-1.2H55.12A15,15,0,0,1,56.52,34.84Z"/><path class="cls-6" d="M44.35,34.17a13.76,13.76,0,0,0-2.28,1.2h0a6,6,0,0,1-2.54-.59,9,9,0,0,1,3.24-.61Z"/><path class="cls-6" d="M57.56,34.23a5.67,5.67,0,0,1-1,.61,15,15,0,0,0-1.4-.67h1.45A8.1,8.1,0,0,1,57.56,34.23Z"/><path class="cls-6" d="M43.88,48.46l-4.36.35a1.3,1.3,0,0,1-1.4-1.2l0-.31a1.3,1.3,0,0,1,1.19-1.41l4.36-.35A1.29,1.29,0,0,1,45,46.74l0,.31A1.31,1.31,0,0,1,43.88,48.46Z"/><path class="cls-6" d="M55.58,48.46l4.37.35a1.3,1.3,0,0,0,1.39-1.2l0-.31a1.32,1.32,0,0,0-1.19-1.41l-4.36-.35a1.3,1.3,0,0,0-1.4,1.2l0,.31A1.3,1.3,0,0,0,55.58,48.46Z"/><line class="cls-13" x1="46.12" y1="74.36" x2="46.12" y2="86.68"/><line class="cls-13" x1="54.76" y1="74.36" x2="54.76" y2="86.68"/><path class="cls-14" d="M64.64,35.61a6.89,6.89,0,0,1-1.09,3.74,7.15,7.15,0,0,1-.91,1.13,6.31,6.31,0,0,1-1,.81,6.7,6.7,0,0,1-3.84,1.2"/><rect class="cls-15" x="0.01" y="-0.06" width="99.05" height="99.94"/><path class="cls-1" d="M186,49.29a39,39,0,0,1-21,34.93c-.71.36-1.43.7-2.16,1a36.3,36.3,0,0,1-28.53,0l-.57-.25a38.92,38.92,0,0,1-22.62-35.69c0-21.46,16.77-38.86,37.45-38.86S186,27.83,186,49.29Z"/><path class="cls-2" d="M165,84.17c-.71.36-1.43.7-2.16,1a36.3,36.3,0,0,1-28.53,0l-.57-.25c0-.22,0-.45,0-.68,0-.62,0-1.24.1-1.85a16.34,16.34,0,0,1,.81-3.58,15.42,15.42,0,0,1,1-2.39,15.93,15.93,0,0,1,2.6-3.58,15.53,15.53,0,0,1,7.15-4.26,16.18,16.18,0,0,1,1.6-.34h0a16.42,16.42,0,0,1,2.34-.18,16.71,16.71,0,0,1,2.14.15h0a15.76,15.76,0,0,1,1.93.41,15.6,15.6,0,0,1,7,4.22,16.57,16.57,0,0,1,2.6,3.58,17.61,17.61,0,0,1,1,2.39,16.92,16.92,0,0,1,.8,3.58A14.76,14.76,0,0,1,165,84.17Z"/><rect class="cls-3" x="137.39" y="64.28" width="23.81" height="11.8" rx="5.2"/><path class="cls-4" d="M151,73.72h0a4.55,4.55,0,0,1-4.57-.22L141,69.37c-1.17-.88-1-2.21.33-3h0a4.54,4.54,0,0,1,4.57.22l5.51,4.13C152.53,71.63,152.38,73,151,73.72Z"/><path class="cls-4" d="M147,73.6h0a1.63,1.63,0,0,1,0-3l6-3.86a4.54,4.54,0,0,1,4.59,0h0a1.63,1.63,0,0,1,0,3l-6,3.86A4.54,4.54,0,0,1,147,73.6Z"/><rect class="cls-5" x="145.17" y="62.15" width="8.02" height="12.2" rx="3.56"/><path class="cls-6" d="M164.62,43.26A9.05,9.05,0,0,1,163,48.39,8.77,8.77,0,0,1,162,49.68a9,9,0,0,1-6.36,2.66h-13.8a9,9,0,0,1-7.3-3.75,9.16,9.16,0,0,1,.67-11.49l.26-.27a8.91,8.91,0,0,1,3.13-2,6,6,0,0,0,2.54.59h12a5.84,5.84,0,0,0,2.44-.53,5.44,5.44,0,0,0,1.05-.61,9,9,0,0,1,7.63,6.4A9.44,9.44,0,0,1,164.62,43.26Z"/><ellipse class="cls-5" cx="134.82" cy="51.42" rx="2.8" ry="2.73"/><circle class="cls-7" cx="134.81" cy="51.44" r="1.52"/><ellipse class="cls-5" cx="163.08" cy="51.42" rx="2.8" ry="2.73"/><circle class="cls-7" cx="163.06" cy="51.44" r="1.52"/><path class="cls-5" d="M163,47.5v6.31A14.32,14.32,0,0,1,148.78,68.2,14.17,14.17,0,0,1,138.7,64a14.43,14.43,0,0,1-4.18-10.18V47.5a14.4,14.4,0,0,1,6.6-12.13h12a5.84,5.84,0,0,0,2.44-.53,14.33,14.33,0,0,1,3.31,2.48,14.67,14.67,0,0,1,3.36,5.38A14.4,14.4,0,0,1,163,47.5Z"/><rect class="cls-8" x="147.6" y="50.71" width="2.93" height="4.51" rx="1.3"/><path class="cls-9" d="M155.29,57.83c0,.1,0,.21,0,.31a.76.76,0,0,0,0,.15c0,.05,0,.1,0,.16l-.06.38c0,.06,0,.12-.05.18a1.05,1.05,0,0,1,0,.19,5.3,5.3,0,0,1-1.59,2.5,6.09,6.09,0,0,1-.87.64l-.34.2a6.86,6.86,0,0,1-6.52-.09,2.26,2.26,0,0,1-.26-.16,6,6,0,0,1-.7-.51,5.38,5.38,0,0,1-1.68-2.58,1.05,1.05,0,0,1,0-.19c0-.06,0-.12-.05-.18l0-.19,0-.19h0c0-.21,0-.41,0-.62a3.56,3.56,0,0,1,0-.57h12.28A3.56,3.56,0,0,1,155.29,57.83Z"/><path class="cls-10" d="M152.63,62.34l-.34.2a6.86,6.86,0,0,1-6.52-.09,2.26,2.26,0,0,1-.26-.16,4,4,0,0,1,7.12.05Z"/><path class="cls-11" d="M155.29,57.83c0,.21,0,.41,0,.62a5,5,0,0,1-.16.75h-12a4,4,0,0,1-.16-.75c0-.21,0-.41,0-.62a3.56,3.56,0,0,1,0-.57h12.28A3.56,3.56,0,0,1,155.29,57.83Z"/><ellipse class="cls-12" cx="140.93" cy="51.01" rx="1.15" ry="0.6"/><path class="cls-6" d="M165.41,36.63a7.38,7.38,0,0,1-1.17,4,8,8,0,0,1-1,1.2,7.86,7.86,0,0,1-1,.87A7.22,7.22,0,0,1,158.11,44H142.47a7.36,7.36,0,0,1-7.28-6.89l.26-.27a8.91,8.91,0,0,1,3.13-2,6,6,0,0,0,2.54.59h12a5.84,5.84,0,0,0,2.44-.53,5.44,5.44,0,0,0,1.05-.61,6.32,6.32,0,0,0,.74-.63,6,6,0,0,0,1.75-4.27A7.35,7.35,0,0,1,165.41,36.63Z"/><path class="cls-6" d="M155.56,34.84a5.84,5.84,0,0,1-2.44.53h-12a13.76,13.76,0,0,1,2.28-1.2h10.77A13.68,13.68,0,0,1,155.56,34.84Z"/><path class="cls-6" d="M143.4,34.17a13.76,13.76,0,0,0-2.28,1.2h0a6,6,0,0,1-2.54-.59,8.89,8.89,0,0,1,3.24-.61Z"/><path class="cls-6" d="M156.61,34.23a5.44,5.44,0,0,1-1.05.61,13.68,13.68,0,0,0-1.39-.67h1.45A8.1,8.1,0,0,1,156.61,34.23Z"/><path class="cls-6" d="M142.93,48.46l-4.36.35a1.3,1.3,0,0,1-1.4-1.2l0-.31a1.3,1.3,0,0,1,1.18-1.41l4.37-.35a1.3,1.3,0,0,1,1.39,1.2l0,.31A1.32,1.32,0,0,1,142.93,48.46Z"/><path class="cls-6" d="M154.63,48.46l4.37.35a1.3,1.3,0,0,0,1.39-1.2l0-.31a1.3,1.3,0,0,0-1.18-1.41l-4.37-.35a1.3,1.3,0,0,0-1.39,1.2l0,.31A1.3,1.3,0,0,0,154.63,48.46Z"/><line class="cls-13" x1="145.17" y1="74.36" x2="145.17" y2="86.68"/><line class="cls-13" x1="153.81" y1="74.36" x2="153.81" y2="86.68"/><path class="cls-14" d="M163.69,35.61a6.81,6.81,0,0,1-1.1,3.74,6.57,6.57,0,0,1-.9,1.13,6.83,6.83,0,0,1-1,.81,6.73,6.73,0,0,1-3.85,1.2"/><rect class="cls-15" x="99.06" y="-0.06" width="99.05" height="99.94"/><path class="cls-1" d="M285.09,49.29a39,39,0,0,1-21,34.93c-.71.36-1.43.7-2.16,1a36.3,36.3,0,0,1-28.53,0l-.58-.25a38.94,38.94,0,0,1-22.62-35.69c0-21.46,16.77-38.86,37.46-38.86S285.09,27.83,285.09,49.29Z"/><path class="cls-2" d="M264.06,84.17c-.71.36-1.43.7-2.16,1a36.3,36.3,0,0,1-28.53,0l-.58-.25c0-.22,0-.45,0-.68a16.41,16.41,0,0,1,.91-5.43,15.42,15.42,0,0,1,1-2.39,15.93,15.93,0,0,1,2.6-3.58,15.53,15.53,0,0,1,7.15-4.26c.52-.14,1.05-.25,1.59-.34h0a16.3,16.3,0,0,1,2.34-.18,16.71,16.71,0,0,1,2.14.15h0a15.39,15.39,0,0,1,8.95,4.63,15.93,15.93,0,0,1,2.6,3.58,15.42,15.42,0,0,1,1,2.39A16.34,16.34,0,0,1,264,82.4,17.18,17.18,0,0,1,264.06,84.17Z"/><rect class="cls-3" x="236.44" y="64.28" width="23.81" height="11.8" rx="5.2"/><path class="cls-4" d="M250.07,73.72h0a4.55,4.55,0,0,1-4.57-.22L240,69.37c-1.17-.88-1-2.21.33-3h0a4.54,4.54,0,0,1,4.57.22l5.51,4.13C251.58,71.63,251.43,73,250.07,73.72Z"/><path class="cls-4" d="M246,73.6h0a1.63,1.63,0,0,1,0-3L252,66.77a4.54,4.54,0,0,1,4.59,0h0a1.64,1.64,0,0,1,0,3l-6,3.86A4.52,4.52,0,0,1,246,73.6Z"/><rect class="cls-5" x="244.22" y="62.15" width="8.02" height="12.2" rx="3.56"/><path class="cls-6" d="M263.67,43.26a9.05,9.05,0,0,1-1.58,5.13A8.77,8.77,0,0,1,261,49.68a9,9,0,0,1-6.37,2.66h-13.8a9,9,0,0,1-7.29-3.75,9.16,9.16,0,0,1,.67-11.49l.26-.27a8.91,8.91,0,0,1,3.13-2,6,6,0,0,0,2.53.59h12a5.84,5.84,0,0,0,2.44-.53,5.76,5.76,0,0,0,1-.61,9.1,9.1,0,0,1,8,9Z"/><ellipse class="cls-5" cx="233.87" cy="51.42" rx="2.8" ry="2.73"/><circle class="cls-7" cx="233.86" cy="51.44" r="1.52"/><ellipse class="cls-5" cx="262.13" cy="51.42" rx="2.8" ry="2.73"/><circle class="cls-7" cx="262.11" cy="51.44" r="1.52"/><path class="cls-5" d="M262.09,47.5v6.31A14.32,14.32,0,0,1,247.83,68.2,14.15,14.15,0,0,1,237.75,64a14.43,14.43,0,0,1-4.18-10.18V47.5a14.42,14.42,0,0,1,6.59-12.13h12a5.84,5.84,0,0,0,2.44-.53,14.07,14.07,0,0,1,3.3,2.48,14.39,14.39,0,0,1,4.18,10.18Z"/><rect class="cls-8" x="246.65" y="50.71" width="2.93" height="4.51" rx="1.3"/><path class="cls-9" d="M254.34,57.83c0,.1,0,.21,0,.31s0,.1,0,.15,0,.1,0,.16,0,.25-.07.38a1.16,1.16,0,0,1,0,.18,1.05,1.05,0,0,1-.05.19,5.3,5.3,0,0,1-1.59,2.5,6.09,6.09,0,0,1-.87.64l-.34.2a6.86,6.86,0,0,1-6.52-.09,2.26,2.26,0,0,1-.26-.16,6,6,0,0,1-.7-.51,5.48,5.48,0,0,1-1.69-2.58,1.8,1.8,0,0,0,0-.19,1.16,1.16,0,0,0,0-.18l0-.19,0-.19h0a4.3,4.3,0,0,1,0-.62,5.3,5.3,0,0,1,0-.57H254.3A5.27,5.27,0,0,1,254.34,57.83Z"/><path class="cls-10" d="M251.68,62.34l-.34.2a6.86,6.86,0,0,1-6.52-.09,2.26,2.26,0,0,1-.26-.16,4.46,4.46,0,0,1,3.54-2.11A4.51,4.51,0,0,1,251.68,62.34Z"/><path class="cls-11" d="M254.34,57.83c0,.21,0,.41,0,.62a5,5,0,0,1-.16.75h-12a5,5,0,0,1-.15-.75,4.3,4.3,0,0,1,0-.62,5.3,5.3,0,0,1,0-.57H254.3A5.27,5.27,0,0,1,254.34,57.83Z"/><ellipse class="cls-12" cx="239.98" cy="50.92" rx="1.15" ry="0.14"/><path class="cls-6" d="M264.46,36.63a7.39,7.39,0,0,1-1.18,4,7.26,7.26,0,0,1-2,2.07A7.22,7.22,0,0,1,257.16,44H241.52a7.36,7.36,0,0,1-7.28-6.89l.26-.27a8.91,8.91,0,0,1,3.13-2,6,6,0,0,0,2.53.59h12a5.84,5.84,0,0,0,2.44-.53,5.76,5.76,0,0,0,1-.61,6.32,6.32,0,0,0,.74-.63,6,6,0,0,0,1.75-4.27A7.35,7.35,0,0,1,264.46,36.63Z"/><path class="cls-6" d="M254.61,34.84a5.84,5.84,0,0,1-2.44.53h-12a13.76,13.76,0,0,1,2.28-1.2h10.77A13.68,13.68,0,0,1,254.61,34.84Z"/><path class="cls-6" d="M242.45,34.17a13.76,13.76,0,0,0-2.28,1.2h0a6,6,0,0,1-2.53-.59,8.88,8.88,0,0,1,3.23-.61Z"/><path class="cls-6" d="M255.66,34.23a5.76,5.76,0,0,1-1,.61,13.68,13.68,0,0,0-1.39-.67h1.44A8.26,8.26,0,0,1,255.66,34.23Z"/><path class="cls-6" d="M242,48.46l-4.37.35a1.3,1.3,0,0,1-1.39-1.2l0-.31a1.3,1.3,0,0,1,1.18-1.41l4.37-.35a1.3,1.3,0,0,1,1.39,1.2l0,.31A1.32,1.32,0,0,1,242,48.46Z"/><path class="cls-6" d="M253.68,48.46l4.36.35a1.3,1.3,0,0,0,1.4-1.2l0-.31a1.3,1.3,0,0,0-1.18-1.41l-4.37-.35a1.3,1.3,0,0,0-1.39,1.2l0,.31A1.32,1.32,0,0,0,253.68,48.46Z"/><line class="cls-13" x1="244.22" y1="74.36" x2="244.22" y2="86.68"/><line class="cls-13" x1="252.85" y1="74.36" x2="252.85" y2="86.68"/><path class="cls-14" d="M262.74,35.61a6.9,6.9,0,0,1-1.1,3.74,6.57,6.57,0,0,1-.9,1.13,6.83,6.83,0,0,1-1,.81,6.73,6.73,0,0,1-3.85,1.2"/><rect class="cls-15" x="198.11" y="-0.06" width="99.05" height="99.94"/><path class="cls-1" d="M384.14,49.38a39,39,0,0,1-21,34.93c-.71.36-1.43.7-2.17,1a36.28,36.28,0,0,1-28.52,0l-.58-.25a38.92,38.92,0,0,1-22.62-35.69c0-21.46,16.77-38.86,37.46-38.86S384.14,27.92,384.14,49.38Z"/><path class="cls-2" d="M363.11,84.26c-.71.36-1.43.7-2.17,1a36.28,36.28,0,0,1-28.52,0l-.58-.25c0-.23,0-.45,0-.68a16.41,16.41,0,0,1,.91-5.43,15.42,15.42,0,0,1,1-2.39,15.93,15.93,0,0,1,2.6-3.58,15.45,15.45,0,0,1,7.15-4.26c.52-.14,1.05-.25,1.59-.34h0a15.32,15.32,0,0,1,4.48,0h0a15,15,0,0,1,1.93.41,15.49,15.49,0,0,1,7,4.22,15.93,15.93,0,0,1,2.6,3.58,15.42,15.42,0,0,1,1,2.39,16.21,16.21,0,0,1,.81,3.58A17.18,17.18,0,0,1,363.11,84.26Z"/><rect class="cls-3" x="335.48" y="64.36" width="23.81" height="11.8" rx="5.2"/><path class="cls-4" d="M349.12,73.81h0a4.55,4.55,0,0,1-4.57-.22L339,69.46c-1.17-.88-1-2.21.34-3h0a4.55,4.55,0,0,1,4.57.22l5.51,4.13C350.63,71.72,350.48,73.05,349.12,73.81Z"/><path class="cls-4" d="M345.08,73.69h0a1.63,1.63,0,0,1,0-3L351,66.85a4.59,4.59,0,0,1,4.59,0h0a1.65,1.65,0,0,1,0,3l-6,3.86A4.52,4.52,0,0,1,345.08,73.69Z"/><rect class="cls-5" x="343.26" y="62.24" width="8.02" height="12.2" rx="3.56"/><path class="cls-6" d="M362.72,43.34a9.14,9.14,0,0,1-1.58,5.14,9.32,9.32,0,0,1-1.06,1.29,9,9,0,0,1-6.37,2.66h-13.8a9.06,9.06,0,0,1-9-9.09,9.09,9.09,0,0,1,2.38-6.15l.26-.27a8.91,8.91,0,0,1,3.13-2.05,5.8,5.8,0,0,0,2.53.58h12a5.87,5.87,0,0,0,2.44-.52,6.11,6.11,0,0,0,1-.61,9.1,9.1,0,0,1,8,9Z"/><ellipse class="cls-5" cx="332.92" cy="51.51" rx="2.8" ry="2.73"/><circle class="cls-7" cx="332.9" cy="51.52" r="1.52"/><ellipse class="cls-5" cx="361.17" cy="51.51" rx="2.8" ry="2.73"/><circle class="cls-7" cx="361.16" cy="51.52" r="1.52"/><path class="cls-5" d="M361.14,47.59V53.9a14.33,14.33,0,0,1-14.26,14.39,14.15,14.15,0,0,1-10.08-4.21,14.44,14.44,0,0,1-4.18-10.18V47.59a14.42,14.42,0,0,1,1.77-7,14.6,14.6,0,0,1,4.82-5.18h12a5.87,5.87,0,0,0,2.44-.52,14.07,14.07,0,0,1,3.3,2.48,14.39,14.39,0,0,1,4.18,10.18Z"/><rect class="cls-8" x="345.7" y="50.79" width="2.93" height="4.51" rx="1.3"/><path class="cls-9" d="M353.38,57.92c0,.1,0,.21,0,.31a.76.76,0,0,1,0,.15s0,.1,0,.15,0,.26-.07.39a1.16,1.16,0,0,1,0,.18,1.33,1.33,0,0,1-.05.19,5.64,5.64,0,0,1-2.46,3.14l-.35.2a6.64,6.64,0,0,1-3.17.78,6.72,6.72,0,0,1-3.34-.87l-.27-.16a6.82,6.82,0,0,1-.69-.51,5.45,5.45,0,0,1-1.69-2.58,1.33,1.33,0,0,0-.05-.19c0-.06,0-.12,0-.18l0-.19,0-.2h0a4.08,4.08,0,0,1,0-.61,5.49,5.49,0,0,1,0-.58h12.29A5.49,5.49,0,0,1,353.38,57.92Z"/><path class="cls-10" d="M350.73,62.43l-.35.2a6.64,6.64,0,0,1-3.17.78,6.72,6.72,0,0,1-3.34-.87l-.27-.16a4,4,0,0,1,7.13,0Z"/><path class="cls-11" d="M353.38,57.92a6.08,6.08,0,0,1,0,.61,6.41,6.41,0,0,1-.16.76h-12a4.87,4.87,0,0,1-.15-.76,4.08,4.08,0,0,1,0-.61,5.49,5.49,0,0,1,0-.58h12.29A5.49,5.49,0,0,1,353.38,57.92Z"/><path class="cls-6" d="M363.5,36.71a7.42,7.42,0,0,1-1.17,4,7.26,7.26,0,0,1-2,2.07,7.23,7.23,0,0,1-4.12,1.28H340.57a7.32,7.32,0,0,1-7.28-6.88l.26-.27a8.91,8.91,0,0,1,3.13-2.05,5.8,5.8,0,0,0,2.53.58h12a5.87,5.87,0,0,0,2.44-.52,6.11,6.11,0,0,0,1-.61,5.5,5.5,0,0,0,.73-.63,6,6,0,0,0,1.76-4.27A7.34,7.34,0,0,1,363.5,36.71Z"/><path class="cls-6" d="M353.66,34.93a5.87,5.87,0,0,1-2.44.52h-12a14.61,14.61,0,0,1,2.29-1.19h10.76A13.84,13.84,0,0,1,353.66,34.93Z"/><path class="cls-6" d="M341.5,34.26a14.61,14.61,0,0,0-2.29,1.19h0a5.8,5.8,0,0,1-2.53-.58,8.67,8.67,0,0,1,3.23-.61Z"/><path class="cls-6" d="M354.71,34.32a6.11,6.11,0,0,1-1,.61,13.84,13.84,0,0,0-1.4-.67h1.45A8.26,8.26,0,0,1,354.71,34.32Z"/><path class="cls-6" d="M341,48.55l-4.37.35a1.3,1.3,0,0,1-1.39-1.2l0-.32a1.31,1.31,0,0,1,1.19-1.4l4.37-.35a1.3,1.3,0,0,1,1.39,1.19l0,.32A1.3,1.3,0,0,1,341,48.55Z"/><path class="cls-6" d="M352.73,48.55l4.36.35a1.3,1.3,0,0,0,1.4-1.2l0-.32a1.3,1.3,0,0,0-1.19-1.4L353,45.63a1.29,1.29,0,0,0-1.39,1.19l0,.32A1.32,1.32,0,0,0,352.73,48.55Z"/><line class="cls-13" x1="343.26" y1="74.44" x2="343.26" y2="86.77"/><line class="cls-13" x1="351.9" y1="74.44" x2="351.9" y2="86.77"/><path class="cls-14" d="M361.79,35.7a6.9,6.9,0,0,1-1.1,3.74,7,7,0,0,1-.9,1.13,6.83,6.83,0,0,1-1,.81,6.73,6.73,0,0,1-3.85,1.2"/><rect class="cls-15" x="297.16" y="0.03" width="99.05" height="99.94"/><path class="cls-1" d="M483.19,49.38a39,39,0,0,1-21,34.93c-.71.36-1.43.7-2.17,1a36.28,36.28,0,0,1-28.52,0l-.58-.25a38.92,38.92,0,0,1-22.62-35.69c0-21.46,16.77-38.86,37.46-38.86S483.19,27.92,483.19,49.38Z"/><path class="cls-2" d="M462.16,84.26c-.71.36-1.43.7-2.17,1a36.28,36.28,0,0,1-28.52,0l-.58-.25c0-.23,0-.45,0-.68a16.26,16.26,0,0,1,.1-1.85,16.79,16.79,0,0,1,.8-3.58,16.48,16.48,0,0,1,1.05-2.39,15.93,15.93,0,0,1,2.6-3.58,15.45,15.45,0,0,1,7.15-4.26c.52-.14,1.05-.25,1.59-.34h0a15.39,15.39,0,0,1,4.49,0h0a15.46,15.46,0,0,1,8.95,4.63,15.93,15.93,0,0,1,2.6,3.58,15.42,15.42,0,0,1,1,2.39,16.21,16.21,0,0,1,.81,3.58A17.18,17.18,0,0,1,462.16,84.26Z"/><rect class="cls-3" x="434.53" y="64.36" width="23.81" height="11.8" rx="5.2"/><path class="cls-4" d="M448.17,73.81h0a4.54,4.54,0,0,1-4.57-.22l-5.51-4.13c-1.17-.88-1-2.21.34-3h0a4.55,4.55,0,0,1,4.57.22l5.5,4.13C449.67,71.72,449.52,73.05,448.17,73.81Z"/><path class="cls-4" d="M444.13,73.69h0a1.63,1.63,0,0,1,0-3l5.95-3.87a4.57,4.57,0,0,1,4.58,0h0a1.64,1.64,0,0,1,0,3l-6,3.86A4.52,4.52,0,0,1,444.13,73.69Z"/><rect class="cls-5" x="442.31" y="62.24" width="8.02" height="12.2" rx="3.56"/><path class="cls-6" d="M461.76,43.34a9.13,9.13,0,0,1-1.57,5.14,10.1,10.1,0,0,1-1.06,1.29,9,9,0,0,1-6.37,2.66H439a9.06,9.06,0,0,1-9-9.09,9.09,9.09,0,0,1,2.38-6.15l.25-.27a9,9,0,0,1,3.14-2.05,5.77,5.77,0,0,0,2.53.58h12a5.88,5.88,0,0,0,2.45-.52,6.11,6.11,0,0,0,1.05-.61,9.06,9.06,0,0,1,8,9Z"/><ellipse class="cls-5" cx="431.97" cy="51.51" rx="2.8" ry="2.73"/><circle class="cls-7" cx="431.95" cy="51.52" r="1.52"/><ellipse class="cls-5" cx="460.22" cy="51.51" rx="2.8" ry="2.73"/><circle class="cls-7" cx="460.21" cy="51.52" r="1.52"/><path class="cls-5" d="M460.19,47.59V53.9a14.33,14.33,0,0,1-14.26,14.39,14.15,14.15,0,0,1-10.08-4.21,14.44,14.44,0,0,1-4.18-10.18V47.59a14.42,14.42,0,0,1,1.77-7,14.6,14.6,0,0,1,4.82-5.18h12a5.88,5.88,0,0,0,2.45-.52,14.07,14.07,0,0,1,3.3,2.48,14.51,14.51,0,0,1,4.18,10.18Z"/><rect class="cls-8" x="444.75" y="50.79" width="2.93" height="4.51" rx="1.3"/><path class="cls-9" d="M452.43,57.92c0,.1,0,.21,0,.31a.76.76,0,0,1,0,.15.77.77,0,0,1,0,.15,2.63,2.63,0,0,1-.06.39c0,.06,0,.12,0,.18s0,.13-.05.19a5.44,5.44,0,0,1-1.6,2.5,5.14,5.14,0,0,1-.87.64,3.79,3.79,0,0,1-.34.2,6.67,6.67,0,0,1-3.17.78,6.76,6.76,0,0,1-3.35-.87l-.26-.16a6.82,6.82,0,0,1-.69-.51,5.45,5.45,0,0,1-1.69-2.58c0-.06,0-.13,0-.19s0-.12,0-.18,0-.13,0-.19a1.36,1.36,0,0,1,0-.2h0a4.08,4.08,0,0,1,0-.61,5.49,5.49,0,0,1,0-.58H452.4A5.49,5.49,0,0,1,452.43,57.92Z"/><path class="cls-10" d="M449.77,62.43a3.79,3.79,0,0,1-.34.2,6.67,6.67,0,0,1-3.17.78,6.76,6.76,0,0,1-3.35-.87l-.26-.16a4,4,0,0,1,7.12,0Z"/><path class="cls-11" d="M452.43,57.92a4.08,4.08,0,0,1,0,.61,4.87,4.87,0,0,1-.15.76h-12a4.87,4.87,0,0,1-.15-.76,4.08,4.08,0,0,1,0-.61,5.49,5.49,0,0,1,0-.58H452.4A5.49,5.49,0,0,1,452.43,57.92Z"/><ellipse class="cls-12" cx="438.07" cy="51" rx="1.15" ry="1.16"/><ellipse class="cls-12" cx="453.58" cy="51" rx="1.15" ry="1.16"/><path class="cls-6" d="M462.55,36.71a7.42,7.42,0,0,1-1.17,4,7.89,7.89,0,0,1-1,1.2,7.35,7.35,0,0,1-1.05.87,7.18,7.18,0,0,1-4.11,1.28H439.62a7.28,7.28,0,0,1-6.18-3.44,7.36,7.36,0,0,1-1.1-3.44l.25-.27a9,9,0,0,1,3.14-2.05,5.77,5.77,0,0,0,2.53.58h12a5.88,5.88,0,0,0,2.45-.52,6.11,6.11,0,0,0,1.05-.61,6.22,6.22,0,0,0,.73-.63,6,6,0,0,0,1.75-4.27A7.34,7.34,0,0,1,462.55,36.71Z"/><path class="cls-6" d="M452.71,34.93a5.88,5.88,0,0,1-2.45.52h-12a14.61,14.61,0,0,1,2.29-1.19h10.76A13.84,13.84,0,0,1,452.71,34.93Z"/><path class="cls-6" d="M440.55,34.26a14.61,14.61,0,0,0-2.29,1.19h0a5.77,5.77,0,0,1-2.53-.58,8.67,8.67,0,0,1,3.23-.61Z"/><path class="cls-6" d="M453.76,34.32a6.11,6.11,0,0,1-1.05.61,13.84,13.84,0,0,0-1.4-.67h1.45A8.26,8.26,0,0,1,453.76,34.32Z"/><path class="cls-6" d="M440.08,48.55l-4.37.35a1.3,1.3,0,0,1-1.39-1.2l0-.32a1.31,1.31,0,0,1,1.19-1.4l4.36-.35a1.3,1.3,0,0,1,1.4,1.19l0,.32A1.3,1.3,0,0,1,440.08,48.55Z"/><path class="cls-6" d="M451.78,48.55l4.36.35a1.29,1.29,0,0,0,1.39-1.2l0-.32a1.3,1.3,0,0,0-1.19-1.4L452,45.63a1.29,1.29,0,0,0-1.39,1.19l0,.32A1.31,1.31,0,0,0,451.78,48.55Z"/><line class="cls-13" x1="442.31" y1="74.44" x2="442.31" y2="86.77"/><line class="cls-13" x1="450.95" y1="74.44" x2="450.95" y2="86.77"/><path class="cls-14" d="M460.83,35.7a6.89,6.89,0,0,1-1.09,3.74,7,7,0,0,1-.9,1.13,7.44,7.44,0,0,1-1,.81,6.73,6.73,0,0,1-3.85,1.2"/><rect class="cls-15" x="396.21" y="0.03" width="99.05" height="99.94"/><ellipse class="cls-12" cx="156.44" cy="51.01" rx="1.15" ry="0.6"/><ellipse class="cls-12" cx="255.48" cy="50.92" rx="1.15" ry="0.14"/><ellipse class="cls-12" cx="339.02" cy="51" rx="1.15" ry="0.6"/><ellipse class="cls-12" cx="354.53" cy="51" rx="1.15" ry="0.6"/></g></svg>
