<svg xmlns="http://www.w3.org/2000/svg" width="500" height="100" viewBox="0 0 500 100"><defs><style>.cls-1{fill:#f6f6f6;}.cls-2{fill:#009245;}.cls-3{fill:#2a7631;}.cls-4{fill:#066938;}.cls-5{fill:#faccab;}.cls-6{fill:#ffdd5f;}.cls-7{fill:#ef7a8a;}.cls-8{fill:#f7baab;}.cls-9{fill:#041015;}.cls-10{fill:#ef7b8b;}.cls-11{fill:#fff;}.cls-12{fill:#08111d;}.cls-13,.cls-14,.cls-15{fill:none;}.cls-13{stroke:#fff;}.cls-13,.cls-14{stroke-linecap:round;stroke-miterlimit:10;}.cls-14{stroke:#f7ef8b;}</style></defs><title>dreng_sprite4</title><g id="Layer_5" data-name="Layer 5"><path class="cls-1" d="M87.59,49.33a39,39,0,0,1-21.23,35c-.71.36-1.44.7-2.18,1a37.11,37.11,0,0,1-28.81,0L34.79,85A38.93,38.93,0,0,1,12,49.33c0-21.47,16.93-38.88,37.82-38.88S87.59,27.86,87.59,49.33Z"/><path class="cls-2" d="M66.36,84.24c-.71.36-1.44.69-2.18,1a37,37,0,0,1-28.81,0L34.79,85c0-.23,0-.45,0-.68a16.17,16.17,0,0,1,.92-5.44,15.46,15.46,0,0,1,1-2.39,16,16,0,0,1,2.62-3.58,15.62,15.62,0,0,1,7.22-4.26,14.38,14.38,0,0,1,1.61-.34h0a15.59,15.59,0,0,1,4.52,0h0a15.51,15.51,0,0,1,1.94.4,15.77,15.77,0,0,1,7.09,4.23,16.29,16.29,0,0,1,4.49,9.55A14.93,14.93,0,0,1,66.36,84.24Z"/><rect class="cls-3" x="38.47" y="64.33" width="24.04" height="11.81" rx="5.2"/><path class="cls-4" d="M52.24,73.78h0a4.64,4.64,0,0,1-4.62-.22l-5.55-4.14c-1.19-.88-1-2.21.33-3h0a4.64,4.64,0,0,1,4.62.22l5.56,4.14C53.76,71.69,53.61,73,52.24,73.78Z"/><path class="cls-4" d="M48.16,73.66h0a1.63,1.63,0,0,1,0-3l6-3.87a4.66,4.66,0,0,1,4.63,0h0a1.64,1.64,0,0,1,0,3l-6,3.86A4.62,4.62,0,0,1,48.16,73.66Z"/><rect class="cls-5" x="46.33" y="62.21" width="8.09" height="12.21" rx="3.56"/><path class="cls-6" d="M66,43.3a9,9,0,0,1-1.59,5.14,8.16,8.16,0,0,1-1.07,1.28,9,9,0,0,1-6.43,2.67H42.94a9.09,9.09,0,0,1-6.68-15.25l.25-.27a9.1,9.1,0,0,1,3.17-2.06,6.05,6.05,0,0,0,2.56.59H54.35a6,6,0,0,0,2.47-.53,5.31,5.31,0,0,0,1.06-.61,9.06,9.06,0,0,1,8.08,9Z"/><ellipse class="cls-5" cx="35.88" cy="51.46" rx="2.82" ry="2.74"/><ellipse class="cls-7" cx="35.87" cy="51.48" rx="1.54" ry="1.53"/><ellipse class="cls-5" cx="64.41" cy="51.46" rx="2.82" ry="2.74"/><ellipse class="cls-7" cx="64.4" cy="51.48" rx="1.54" ry="1.53"/><path class="cls-5" d="M64.37,47.54v6.32a14.4,14.4,0,0,1-28.79,0V47.54A14.37,14.37,0,0,1,42.24,35.4H54.35a6,6,0,0,0,2.47-.53,14.61,14.61,0,0,1,3.34,2.49,14.38,14.38,0,0,1,4.21,10.18Z"/><rect class="cls-8" x="48.78" y="50.75" width="2.96" height="4.51" rx="1.3"/><path class="cls-9" d="M56.54,57.88c0,.1,0,.21,0,.31a.76.76,0,0,1,0,.15.77.77,0,0,1,0,.15,2.63,2.63,0,0,1-.06.39c0,.06,0,.12,0,.18s0,.13,0,.19a5.36,5.36,0,0,1-1.62,2.5,6.35,6.35,0,0,1-.87.65,3.9,3.9,0,0,1-.35.19,6.9,6.9,0,0,1-6.58-.09l-.26-.15a6,6,0,0,1-.7-.52,5.37,5.37,0,0,1-1.71-2.58,1.8,1.8,0,0,0,0-.19c0-.06,0-.12,0-.18l0-.19,0-.19h0a4.08,4.08,0,0,1,0-.61,5.49,5.49,0,0,1,0-.58H56.51A5.49,5.49,0,0,1,56.54,57.88Z"/><path class="cls-10" d="M53.86,62.4a3.9,3.9,0,0,1-.35.19,6.9,6.9,0,0,1-6.58-.09l-.26-.15a4.53,4.53,0,0,1,3.58-2.12A4.55,4.55,0,0,1,53.86,62.4Z"/><path class="cls-11" d="M56.54,57.88a4.08,4.08,0,0,1,0,.61,4.87,4.87,0,0,1-.15.76H44.26a4.87,4.87,0,0,1-.15-.76,4.08,4.08,0,0,1,0-.61,5.63,5.63,0,0,1,0-.58H56.51A5.63,5.63,0,0,1,56.54,57.88Z"/><circle class="cls-12" cx="42.04" cy="50.96" r="1.16"/><circle class="cls-12" cx="57.7" cy="50.96" r="1.16"/><path class="cls-6" d="M66.76,36.66a7.34,7.34,0,0,1-1.18,4,8,8,0,0,1-1,1.2A7.4,7.4,0,0,1,59.4,44H43.6a7.36,7.36,0,0,1-6.23-3.45,7.26,7.26,0,0,1-1.11-3.44l.25-.27a9.1,9.1,0,0,1,3.17-2.06,6.05,6.05,0,0,0,2.56.59H54.35a6,6,0,0,0,2.47-.53,5.31,5.31,0,0,0,1.06-.61,5.59,5.59,0,0,0,.74-.63,6,6,0,0,0,1.77-4.27A7.37,7.37,0,0,1,66.76,36.66Z"/><path class="cls-6" d="M56.82,34.87a6,6,0,0,1-2.47.53H42.24a14.28,14.28,0,0,1,2.3-1.19H55.41A13,13,0,0,1,56.82,34.87Z"/><path class="cls-6" d="M44.54,34.21a14.28,14.28,0,0,0-2.3,1.19h0a6.05,6.05,0,0,1-2.56-.59,9,9,0,0,1,3.26-.6Z"/><path class="cls-6" d="M57.88,34.26a5.31,5.31,0,0,1-1.06.61,13,13,0,0,0-1.41-.66h1.46C57.22,34.21,57.55,34.23,57.88,34.26Z"/><rect class="cls-6" x="38.23" y="45.75" width="7.03" height="2.93" rx="1.31" transform="translate(-3.63 3.48) rotate(-4.57)"/><rect class="cls-6" x="56.74" y="43.7" width="2.93" height="7.03" rx="1.31" transform="translate(6.49 101.47) rotate(-85.43)"/><line class="cls-13" x1="46.33" y1="74.41" x2="46.33" y2="86.74"/><line class="cls-13" x1="55.05" y1="74.41" x2="55.05" y2="86.74"/><path class="cls-14" d="M65,35.65a6.85,6.85,0,0,1-1.11,3.74A7,7,0,0,1,63,40.52a6.91,6.91,0,0,1-1,.81,6.84,6.84,0,0,1-3.89,1.2"/><rect class="cls-15" x="-0.22" y="-0.04" width="100" height="100"/><path class="cls-1" d="M187.26,49.33a39,39,0,0,1-21.07,35c-.71.36-1.43.7-2.17,1a36.54,36.54,0,0,1-28.58,0l-.58-.26a39,39,0,0,1-22.67-35.71c0-21.47,16.81-38.88,37.54-38.88S187.26,27.86,187.26,49.33Z"/><path class="cls-2" d="M166.43,84.24c-.71.36-1.43.69-2.17,1a36.43,36.43,0,0,1-28.58,0L135.1,85c0-.23,0-.45,0-.68a16.42,16.42,0,0,1,.91-5.44,15.42,15.42,0,0,1,1-2.39,16.28,16.28,0,0,1,2.61-3.58,15.48,15.48,0,0,1,7.16-4.26,14.69,14.69,0,0,1,1.6-.34h0a15.46,15.46,0,0,1,4.5,0h0a15.51,15.51,0,0,1,1.94.4,15.68,15.68,0,0,1,7,4.23,15.93,15.93,0,0,1,2.6,3.58,16.48,16.48,0,0,1,1.05,2.39,16.92,16.92,0,0,1,.8,3.58A14.93,14.93,0,0,1,166.43,84.24Z"/><rect class="cls-3" x="138.75" y="64.33" width="23.86" height="11.81" rx="5.2"/><path class="cls-4" d="M152.42,73.78h0a4.56,4.56,0,0,1-4.58-.22l-5.52-4.14c-1.17-.88-1-2.21.34-3h0a4.56,4.56,0,0,1,4.58.22l5.51,4.14C153.93,71.69,153.78,73,152.42,73.78Z"/><path class="cls-4" d="M148.37,73.66h0a1.63,1.63,0,0,1,0-3l6-3.87a4.61,4.61,0,0,1,4.6,0h0a1.65,1.65,0,0,1,0,3l-6,3.86A4.54,4.54,0,0,1,148.37,73.66Z"/><rect class="cls-5" x="146.55" y="62.21" width="8.03" height="12.21" rx="3.56"/><path class="cls-6" d="M166,43.3a9.11,9.11,0,0,1-1.58,5.14,8.68,8.68,0,0,1-1.06,1.28A9,9,0,0,1,157,52.39H143.19a9,9,0,0,1-7.31-3.76,9.16,9.16,0,0,1,.67-11.49l.26-.27A9,9,0,0,1,140,34.81a6,6,0,0,0,2.54.59h12a5.92,5.92,0,0,0,2.45-.53,5.52,5.52,0,0,0,1.05-.61,9,9,0,0,1,7.63,6.41A8.76,8.76,0,0,1,166,43.3Z"/><ellipse class="cls-5" cx="136.18" cy="51.46" rx="2.8" ry="2.74"/><circle class="cls-7" cx="136.17" cy="51.48" r="1.53"/><ellipse class="cls-5" cx="164.5" cy="51.46" rx="2.8" ry="2.74"/><circle class="cls-7" cx="164.48" cy="51.48" r="1.53"/><path class="cls-5" d="M164.46,47.54v6.32a14.29,14.29,0,1,1-28.58,0V47.54a14.41,14.41,0,0,1,6.61-12.14h12a5.92,5.92,0,0,0,2.45-.53,14.52,14.52,0,0,1,6.68,7.87A14.65,14.65,0,0,1,164.46,47.54Z"/><rect class="cls-8" x="148.99" y="50.75" width="2.94" height="4.51" rx="1.3"/><path class="cls-9" d="M156.69,57.88c0,.1,0,.21,0,.31s0,.1,0,.15,0,.1,0,.15l-.06.39c0,.06,0,.12-.05.18s0,.13,0,.19a5.34,5.34,0,0,1-1.61,2.5,6.25,6.25,0,0,1-.86.65l-.35.19a6.81,6.81,0,0,1-6.53-.09l-.26-.15a6,6,0,0,1-.7-.52,5.48,5.48,0,0,1-1.69-2.58,1.8,1.8,0,0,0-.05-.19c0-.06,0-.12,0-.18l0-.19,0-.19h0a4.08,4.08,0,0,1,0-.61,5.49,5.49,0,0,1,0-.58h12.32A5.49,5.49,0,0,1,156.69,57.88Z"/><path class="cls-10" d="M154,62.4l-.35.19a6.81,6.81,0,0,1-6.53-.09l-.26-.15a4,4,0,0,1,7.14,0Z"/><path class="cls-11" d="M156.69,57.88a4.08,4.08,0,0,1,0,.61,4.87,4.87,0,0,1-.15.76h-12a4.87,4.87,0,0,1-.15-.76,4.08,4.08,0,0,1,0-.61,5.63,5.63,0,0,1,0-.58h12.31A3.77,3.77,0,0,1,156.69,57.88Z"/><ellipse class="cls-12" cx="142.3" cy="51.05" rx="1.15" ry="0.6"/><path class="cls-6" d="M166.83,36.66a7.34,7.34,0,0,1-1.18,4,7.26,7.26,0,0,1-2,2.07A7.27,7.27,0,0,1,159.52,44H143.85a7.29,7.29,0,0,1-6.19-3.45,7.37,7.37,0,0,1-1.11-3.44l.26-.27A9,9,0,0,1,140,34.81a6,6,0,0,0,2.54.59h12a5.92,5.92,0,0,0,2.45-.53,5.52,5.52,0,0,0,1.05-.61,6.22,6.22,0,0,0,.73-.63,6,6,0,0,0,1.76-4.27A7.35,7.35,0,0,1,166.83,36.66Z"/><path class="cls-6" d="M157,34.87a5.92,5.92,0,0,1-2.45.53h-12a14.61,14.61,0,0,1,2.29-1.19h10.79A14.87,14.87,0,0,1,157,34.87Z"/><path class="cls-6" d="M144.78,34.21a14.61,14.61,0,0,0-2.29,1.19h0a6,6,0,0,1-2.54-.59,8.92,8.92,0,0,1,3.24-.6Z"/><path class="cls-6" d="M158,34.26a5.52,5.52,0,0,1-1.05.61,14.87,14.87,0,0,0-1.4-.66H157C157.36,34.21,157.69,34.23,158,34.26Z"/><path class="cls-6" d="M144.31,48.5l-4.38.35a1.3,1.3,0,0,1-1.39-1.2l0-.31a1.32,1.32,0,0,1,1.19-1.41l4.37-.35a1.3,1.3,0,0,1,1.4,1.2l0,.31A1.32,1.32,0,0,1,144.31,48.5Z"/><path class="cls-6" d="M156,48.5l4.38.35a1.3,1.3,0,0,0,1.39-1.2l0-.31a1.32,1.32,0,0,0-1.19-1.41l-4.38-.35a1.3,1.3,0,0,0-1.39,1.2l0,.31A1.32,1.32,0,0,0,156,48.5Z"/><line class="cls-13" x1="146.55" y1="74.41" x2="146.55" y2="86.74"/><line class="cls-13" x1="155.2" y1="74.41" x2="155.2" y2="86.74"/><path class="cls-14" d="M165.11,35.65a6.81,6.81,0,0,1-3,5.68,6.71,6.71,0,0,1-3.85,1.2"/><rect class="cls-15" x="99.73" y="-0.04" width="100" height="100"/><path class="cls-1" d="M287.26,49.38a39,39,0,0,1-21.07,34.95c-.71.36-1.43.7-2.17,1a36.43,36.43,0,0,1-28.58,0l-.58-.25a39,39,0,0,1-22.67-35.71c0-21.47,16.81-38.88,37.54-38.88S287.26,27.91,287.26,49.38Z"/><path class="cls-2" d="M264.74,84.24c-.71.36-1.44.69-2.17,1a36.45,36.45,0,0,1-28.59,0l-.57-.25c0-.23,0-.45,0-.68a17.23,17.23,0,0,1,.91-5.44,16.48,16.48,0,0,1,1-2.39,15.93,15.93,0,0,1,2.6-3.58,15.53,15.53,0,0,1,7.16-4.26,14.69,14.69,0,0,1,1.6-.34h0a15.39,15.39,0,0,1,4.49,0h0a15.51,15.51,0,0,1,1.94.4,15.68,15.68,0,0,1,7,4.23,16.28,16.28,0,0,1,2.61,3.58,17.61,17.61,0,0,1,1,2.39,15.77,15.77,0,0,1,.8,3.58A17.36,17.36,0,0,1,264.74,84.24Z"/><rect class="cls-3" x="237.06" y="64.33" width="23.86" height="11.81" rx="0.59"/><path class="cls-4" d="M250.72,73.78h0a4.56,4.56,0,0,1-4.58-.22l-5.52-4.14c-1.17-.88-1-2.21.34-3h0a4.56,4.56,0,0,1,4.58.22l5.52,4.14C252.23,71.69,252.08,73,250.72,73.78Z"/><path class="cls-4" d="M246.67,73.66h0a1.63,1.63,0,0,1,0-3l6-3.87a4.61,4.61,0,0,1,4.6,0h0a1.64,1.64,0,0,1,0,3l-6,3.86A4.54,4.54,0,0,1,246.67,73.66Z"/><rect class="cls-5" x="244.85" y="62.21" width="8.03" height="12.21" rx="0.61"/><path class="cls-6" d="M264.34,43.3a9.11,9.11,0,0,1-1.58,5.14,8.68,8.68,0,0,1-1.06,1.28,8.94,8.94,0,0,1-6.38,2.67H241.49a9,9,0,0,1-7.3-3.76,9.13,9.13,0,0,1,.67-11.49l.25-.27a9.07,9.07,0,0,1,3.14-2.06,6,6,0,0,0,2.54.59h12a5.92,5.92,0,0,0,2.45-.53,5.52,5.52,0,0,0,1-.61,9.07,9.07,0,0,1,8,9Z"/><ellipse class="cls-5" cx="234.48" cy="51.46" rx="2.8" ry="2.74"/><circle class="cls-7" cx="234.47" cy="51.48" r="1.53"/><ellipse class="cls-5" cx="262.66" cy="51.46" rx="2.78" ry="2.73"/><ellipse class="cls-7" cx="262.65" cy="51.48" rx="1.51" ry="1.52"/><path class="cls-5" d="M262.76,47.54v6.32a14.29,14.29,0,1,1-28.57,0V47.54a14.37,14.37,0,0,1,6.6-12.14h12a5.92,5.92,0,0,0,2.45-.53,14.66,14.66,0,0,1,3.31,2.49,14.39,14.39,0,0,1,4.18,10.18Z"/><rect class="cls-8" x="247.29" y="50.75" width="2.94" height="4.51" rx="0.23"/><path class="cls-9" d="M255,57.88c0,.1,0,.21,0,.31a.76.76,0,0,1,0,.15.77.77,0,0,1,0,.15,2.63,2.63,0,0,1-.06.39c0,.06,0,.12,0,.18s0,.13,0,.19a5.39,5.39,0,0,1-1.6,2.5,7,7,0,0,1-.87.65l-.34.19a6.83,6.83,0,0,1-6.54-.09l-.26-.15a5.93,5.93,0,0,1-.69-.52,5.33,5.33,0,0,1-1.69-2.58,1.05,1.05,0,0,1-.05-.19c0-.06,0-.12,0-.18l0-.19,0-.19h0a6,6,0,0,1,0-.61,3.69,3.69,0,0,1,0-.58H255A5.49,5.49,0,0,1,255,57.88Z"/><path class="cls-10" d="M252.33,62.4l-.34.19a6.83,6.83,0,0,1-6.54-.09l-.26-.15a4,4,0,0,1,7.14,0Z"/><path class="cls-11" d="M255,57.88a4.08,4.08,0,0,1,0,.61,4.87,4.87,0,0,1-.15.76h-12a4.89,4.89,0,0,1-.16-.76,6,6,0,0,1,0-.61,3.77,3.77,0,0,1,0-.58H255A5.63,5.63,0,0,1,255,57.88Z"/><ellipse class="cls-12" cx="240.6" cy="50.96" rx="1.15" ry="0.14"/><path class="cls-6" d="M265.13,36.66a7.42,7.42,0,0,1-1.17,4,8,8,0,0,1-1,1.2,7.86,7.86,0,0,1-1,.87A7.27,7.27,0,0,1,257.82,44H242.15a7.34,7.34,0,0,1-7.29-6.89l.25-.27a9.07,9.07,0,0,1,3.14-2.06,6,6,0,0,0,2.54.59h12a5.92,5.92,0,0,0,2.45-.53,5.52,5.52,0,0,0,1-.61,6.32,6.32,0,0,0,.74-.63,6,6,0,0,0,1.75-4.27A7.35,7.35,0,0,1,265.13,36.66Z"/><path class="cls-6" d="M255.27,34.87a5.92,5.92,0,0,1-2.45.53h-12a15.07,15.07,0,0,1,2.29-1.19h10.79A13.77,13.77,0,0,1,255.27,34.87Z"/><path class="cls-6" d="M243.08,34.21a15.07,15.07,0,0,0-2.29,1.19h0a6,6,0,0,1-2.54-.59,9,9,0,0,1,3.24-.6Z"/><path class="cls-6" d="M256.24,34.27a5.67,5.67,0,0,1-1,.61,13.45,13.45,0,0,0-1.38-.66h1.43A8,8,0,0,1,256.24,34.27Z"/><path class="cls-6" d="M242.61,48.5l-4.37.35a1.3,1.3,0,0,1-1.4-1.2l0-.31A1.3,1.3,0,0,1,238,45.93l4.37-.35a1.29,1.29,0,0,1,1.39,1.2l0,.31A1.31,1.31,0,0,1,242.61,48.5Z"/><path class="cls-6" d="M254.28,48.5l4.33.35A1.28,1.28,0,0,0,260,47.66l0-.32a1.31,1.31,0,0,0-1.18-1.41l-4.33-.35a1.29,1.29,0,0,0-1.38,1.2l0,.32A1.3,1.3,0,0,0,254.28,48.5Z"/><line class="cls-13" x1="244.85" y1="74.41" x2="244.85" y2="86.74"/><line class="cls-13" x1="253.46" y1="74.4" x2="253.46" y2="86.72"/><path class="cls-14" d="M263.27,35.66a6.92,6.92,0,0,1-1.09,3.74,7.42,7.42,0,0,1-.89,1.12,7.64,7.64,0,0,1-1,.82,6.71,6.71,0,0,1-3.82,1.2"/><rect class="cls-15" x="199.73" width="100" height="100"/><path class="cls-1" d="M387.26,49.42a39,39,0,0,1-21.07,35c-.71.36-1.43.7-2.17,1a36.43,36.43,0,0,1-28.58,0l-.58-.25a39,39,0,0,1-22.67-35.71c0-21.47,16.81-38.88,37.54-38.88S387.26,28,387.26,49.42Z"/><path class="cls-2" d="M362.88,84.3c-.7.37-1.42.7-2.15,1a35.88,35.88,0,0,1-28.31,0l-.57-.26c0-.22,0-.45,0-.67a16.31,16.31,0,0,1,.1-1.86,16.92,16.92,0,0,1,.8-3.58,16.16,16.16,0,0,1,3.61-6,15.32,15.32,0,0,1,7.1-4.25,13.86,13.86,0,0,1,1.58-.34h0a14.73,14.73,0,0,1,2.32-.18,15,15,0,0,1,2.13.15h0a15,15,0,0,1,1.91.4,15.38,15.38,0,0,1,7,4.22A16.4,16.4,0,0,1,361,76.56,15.38,15.38,0,0,1,362,79a15.77,15.77,0,0,1,.8,3.58A14.88,14.88,0,0,1,362.88,84.3Z"/><rect class="cls-3" x="335.47" y="64.41" width="23.64" height="11.8" rx="5.2"/><path class="cls-4" d="M349,73.85h0a4.49,4.49,0,0,1-4.54-.21L339,69.5c-1.16-.88-1-2.21.33-3h0a4.49,4.49,0,0,1,4.54.22l5.46,4.14C350.49,71.76,350.34,73.09,349,73.85Z"/><path class="cls-4" d="M345,73.74h0a1.65,1.65,0,0,1,0-3l5.91-3.86a4.52,4.52,0,0,1,4.55,0h0a1.64,1.64,0,0,1,0,3l-5.91,3.87A4.52,4.52,0,0,1,345,73.74Z"/><rect class="cls-5" x="343.19" y="62.29" width="7.96" height="12.2" rx="3.56"/><path class="cls-6" d="M362.65,43.39a9.13,9.13,0,0,1-1.58,5.13A8.33,8.33,0,0,1,360,49.81a8.93,8.93,0,0,1-6.38,2.67H339.8a9.08,9.08,0,0,1-9-9.09,9.1,9.1,0,0,1,2.39-6.16l.26-.27a9,9,0,0,1,3.13-2.06,6.08,6.08,0,0,0,2.55.59h12a5.89,5.89,0,0,0,2.45-.53,5.44,5.44,0,0,0,1.05-.61,9.11,9.11,0,0,1,8,9Z"/><ellipse class="cls-5" cx="332.79" cy="51.55" rx="2.8" ry="2.74"/><circle class="cls-7" cx="332.77" cy="51.57" r="1.53"/><ellipse class="cls-5" cx="360.96" cy="51.55" rx="2.78" ry="2.73"/><ellipse class="cls-7" cx="360.95" cy="51.57" rx="1.51" ry="1.52"/><path class="cls-5" d="M360.93,47.63V54a14.27,14.27,0,0,1-14.15,14.38,14,14,0,0,1-10-4.21A14.46,14.46,0,0,1,332.62,54V47.63a14.51,14.51,0,0,1,1.76-7,14.36,14.36,0,0,1,4.79-5.18h11.91a5.83,5.83,0,0,0,2.43-.53,14.42,14.42,0,0,1,6.61,7.87A14.55,14.55,0,0,1,360.93,47.63Z"/><rect class="cls-8" x="345.6" y="50.84" width="2.91" height="4.51" rx="1.3"/><path class="cls-9" d="M353.23,58c0,.11,0,.21,0,.31s0,.11,0,.16,0,.1,0,.15a2.5,2.5,0,0,1-.06.38c0,.06,0,.12,0,.19s0,.12,0,.18a5.37,5.37,0,0,1-1.59,2.5,5.54,5.54,0,0,1-.86.65l-.34.19a6.6,6.6,0,0,1-3.15.79,6.67,6.67,0,0,1-3.32-.87,2.26,2.26,0,0,0-.26-.16,5.82,5.82,0,0,1-.68-.52,5.41,5.41,0,0,1-1.68-2.58c0-.06,0-.12-.05-.18s0-.13,0-.19a1.29,1.29,0,0,0,0-.19c0-.06,0-.13,0-.19h0a4.21,4.21,0,0,1,0-.62,5.44,5.44,0,0,1,0-.57h12.2A5.44,5.44,0,0,1,353.23,58Z"/><path class="cls-10" d="M350.59,62.48l-.34.19a6.6,6.6,0,0,1-3.15.79,6.67,6.67,0,0,1-3.32-.87,2.26,2.26,0,0,0-.26-.16,4,4,0,0,1,7.07,0Z"/><path class="cls-11" d="M353.23,58a4.21,4.21,0,0,1,0,.62,4.53,4.53,0,0,1-.15.75H341.16a4.53,4.53,0,0,1-.15-.75,4.21,4.21,0,0,1,0-.62,5.44,5.44,0,0,1,0-.57h12.2A5.44,5.44,0,0,1,353.23,58Z"/><path class="cls-6" d="M363.28,36.76a7.38,7.38,0,0,1-1.17,4,7,7,0,0,1-1,1.2,7.25,7.25,0,0,1-1,.88A7.11,7.11,0,0,1,356,44.12H340.51a7.24,7.24,0,0,1-6.13-3.44,7.5,7.5,0,0,1-1.09-3.45l.25-.26a9,9,0,0,1,3.11-2.06,5.91,5.91,0,0,0,2.52.59h11.91a5.83,5.83,0,0,0,2.43-.53,6,6,0,0,0,1-.61,6.22,6.22,0,0,0,.73-.63A6.07,6.07,0,0,0,357,29.47,7.32,7.32,0,0,1,363.28,36.76Z"/><path class="cls-6" d="M353.51,35a5.83,5.83,0,0,1-2.43.53H339.17a12.82,12.82,0,0,1,2.26-1.19h10.69A13.61,13.61,0,0,1,353.51,35Z"/><path class="cls-6" d="M341.43,34.31a12.82,12.82,0,0,0-2.26,1.19h0a5.91,5.91,0,0,1-2.52-.59,8.8,8.8,0,0,1,3.21-.6Z"/><path class="cls-6" d="M354.55,34.36a6,6,0,0,1-1,.61,13.61,13.61,0,0,0-1.39-.66h1.44A8.21,8.21,0,0,1,354.55,34.36Z"/><path class="cls-6" d="M341,48.59l-4.33.35a1.3,1.3,0,0,1-1.39-1.2l0-.31A1.3,1.3,0,0,1,336.41,46l4.33-.35a1.29,1.29,0,0,1,1.38,1.2l0,.31A1.3,1.3,0,0,1,341,48.59Z"/><path class="cls-6" d="M352.58,48.59l4.33.35a1.28,1.28,0,0,0,1.38-1.2l0-.31A1.3,1.3,0,0,0,357.14,46l-4.33-.35a1.28,1.28,0,0,0-1.38,1.2l0,.31A1.31,1.31,0,0,0,352.58,48.59Z"/><line class="cls-13" x1="343.19" y1="74.49" x2="343.19" y2="86.81"/><line class="cls-13" x1="351.76" y1="74.49" x2="351.76" y2="86.81"/><path class="cls-14" d="M361.57,35.75a6.92,6.92,0,0,1-1.09,3.74,7.42,7.42,0,0,1-.89,1.12,6.83,6.83,0,0,1-1,.81,6.61,6.61,0,0,1-3.81,1.2"/><rect class="cls-15" x="299.73" y="0.04" width="100" height="100"/><path class="cls-1" d="M487.83,49.42a39,39,0,0,1-21.23,35c-.72.36-1.44.7-2.19,1a37,37,0,0,1-28.8,0l-.58-.25A38.93,38.93,0,0,1,412.2,49.42C412.2,28,429.13,10.54,450,10.54S487.83,28,487.83,49.42Z"/><path class="cls-2" d="M466.6,84.32c-.72.37-1.44.7-2.19,1a37,37,0,0,1-28.8,0l-.58-.26c0-.22,0-.45,0-.67a16.31,16.31,0,0,1,.1-1.86,16.94,16.94,0,0,1,.81-3.58A15.51,15.51,0,0,1,437,76.58,16,16,0,0,1,439.61,73a15.62,15.62,0,0,1,7.22-4.26,14.38,14.38,0,0,1,1.61-.34h0a15.66,15.66,0,0,1,4.53,0h0a15.3,15.3,0,0,1,1.95.4A15.68,15.68,0,0,1,462,73a16,16,0,0,1,2.62,3.58A15.51,15.51,0,0,1,465.69,79a16.94,16.94,0,0,1,.81,3.58A17.34,17.34,0,0,1,466.6,84.32Z"/><rect class="cls-3" x="438.71" y="64.42" width="24.04" height="11.81" rx="5.2"/><path class="cls-4" d="M452.48,73.87h0a4.64,4.64,0,0,1-4.62-.22l-5.56-4.14c-1.18-.88-1-2.21.34-3h0a4.64,4.64,0,0,1,4.62.22l5.56,4.14C454,71.78,453.85,73.11,452.48,73.87Z"/><path class="cls-4" d="M448.4,73.75h0a1.64,1.64,0,0,1,0-3l6-3.86a4.66,4.66,0,0,1,4.63,0h0a1.64,1.64,0,0,1,0,3l-6,3.86A4.65,4.65,0,0,1,448.4,73.75Z"/><rect class="cls-5" x="446.56" y="62.29" width="8.09" height="12.21" rx="3.56"/><path class="cls-6" d="M466.2,43.39a9.06,9.06,0,0,1-1.59,5.13,8.33,8.33,0,0,1-1.07,1.29,9,9,0,0,1-6.43,2.67H443.18a9.09,9.09,0,0,1-6.69-15.25l.26-.27a9.15,9.15,0,0,1,3.16-2.06,6.12,6.12,0,0,0,2.56.59h12.12a6,6,0,0,0,2.47-.53,5.84,5.84,0,0,0,1.06-.61,9.06,9.06,0,0,1,8.08,9Z"/><ellipse class="cls-5" cx="436.12" cy="51.55" rx="2.82" ry="2.74"/><ellipse class="cls-7" cx="436.1" cy="51.57" rx="1.54" ry="1.53"/><ellipse class="cls-5" cx="464.65" cy="51.55" rx="2.82" ry="2.74"/><ellipse class="cls-7" cx="464.63" cy="51.57" rx="1.54" ry="1.53"/><path class="cls-5" d="M464.61,47.63V54a14.4,14.4,0,0,1-28.79,0V47.63a14.39,14.39,0,0,1,6.65-12.14h12.12a6,6,0,0,0,2.47-.53,14.56,14.56,0,0,1,3.33,2.49,14.22,14.22,0,0,1,3.4,5.38A14.4,14.4,0,0,1,464.61,47.63Z"/><rect class="cls-8" x="449.02" y="50.84" width="2.96" height="4.51" rx="1.3"/><path class="cls-9" d="M456.78,58c0,.1,0,.21,0,.31s0,.1,0,.15,0,.1,0,.15a2.32,2.32,0,0,1-.06.38c0,.07,0,.13,0,.19a1.33,1.33,0,0,0-.05.19,5.36,5.36,0,0,1-1.62,2.5,7,7,0,0,1-.87.65l-.35.19a7,7,0,0,1-6.58-.09,2.26,2.26,0,0,1-.26-.16,6,6,0,0,1-.7-.51,5.37,5.37,0,0,1-1.71-2.58,1.33,1.33,0,0,0-.05-.19c0-.06,0-.12,0-.19a1.16,1.16,0,0,0,0-.18,1.36,1.36,0,0,1,0-.2h0a4.08,4.08,0,0,1,0-.61,5.49,5.49,0,0,1,0-.58h12.41A5.49,5.49,0,0,1,456.78,58Z"/><path class="cls-10" d="M454.1,62.49l-.35.19a7,7,0,0,1-6.58-.09,2.26,2.26,0,0,1-.26-.16,4.09,4.09,0,0,1,7.19.06Z"/><path class="cls-11" d="M456.78,58a4.08,4.08,0,0,1,0,.61,4.87,4.87,0,0,1-.15.76H444.5a4.87,4.87,0,0,1-.15-.76,4.08,4.08,0,0,1,0-.61,5.49,5.49,0,0,1,0-.58h12.41A5.49,5.49,0,0,1,456.78,58Z"/><circle class="cls-12" cx="442.28" cy="51.05" r="1.16"/><circle class="cls-12" cx="457.94" cy="51.05" r="1.16"/><path class="cls-6" d="M467,36.75a7.43,7.43,0,0,1-1.18,4,8,8,0,0,1-1,1.2,7.4,7.4,0,0,1-5.21,2.16H443.84a7.36,7.36,0,0,1-6.23-3.45,7.27,7.27,0,0,1-1.12-3.44l.26-.27a9.15,9.15,0,0,1,3.16-2.06,6.12,6.12,0,0,0,2.56.59h12.12a6,6,0,0,0,2.47-.53,5.84,5.84,0,0,0,1.06-.61,6.32,6.32,0,0,0,.74-.63,6,6,0,0,0,1.77-4.27A7.37,7.37,0,0,1,467,36.75Z"/><path class="cls-6" d="M457.06,35a6,6,0,0,1-2.47.53H442.48a13.52,13.52,0,0,1,2.3-1.19h10.87A13,13,0,0,1,457.06,35Z"/><path class="cls-6" d="M444.78,34.3a13.52,13.52,0,0,0-2.3,1.19h0a6.12,6.12,0,0,1-2.56-.59,9.13,9.13,0,0,1,3.27-.6Z"/><path class="cls-6" d="M458.12,34.35a5.84,5.84,0,0,1-1.06.61,13,13,0,0,0-1.41-.66h1.46A8.44,8.44,0,0,1,458.12,34.35Z"/><rect class="cls-6" x="438.47" y="45.84" width="7.03" height="2.93" rx="1.31" transform="translate(-2.36 35.4) rotate(-4.57)"/><rect class="cls-6" x="456.98" y="43.79" width="2.93" height="7.03" rx="1.31" transform="matrix(0.08, -1, 1, 0.08, 374.73, 500.51)"/><line class="cls-13" x1="446.56" y1="74.5" x2="446.56" y2="86.83"/><line class="cls-13" x1="455.29" y1="74.5" x2="455.29" y2="86.83"/><path class="cls-14" d="M465.26,35.74a6.84,6.84,0,0,1-1.1,3.74,7.07,7.07,0,0,1-.91,1.12,6.36,6.36,0,0,1-1,.82,6.86,6.86,0,0,1-3.89,1.2"/><rect class="cls-15" x="400.01" y="0.04" width="100" height="100"/><ellipse class="cls-12" cx="157.84" cy="51.05" rx="1.15" ry="0.6"/><ellipse class="cls-12" cx="256.07" cy="50.96" rx="1.14" ry="0.14"/><ellipse class="cls-12" cx="338.98" cy="51.05" rx="1.14" ry="0.6"/><ellipse class="cls-12" cx="354.37" cy="51.05" rx="1.14" ry="0.6"/></g></svg>
