<svg xmlns="http://www.w3.org/2000/svg" width="3040.49" height="613.92" viewBox="0 0 3040.49 613.92"><defs><style>.cls-1{fill:#f6f6f6;}.cls-2{fill:#009245;}.cls-3{fill:#2a7631;}.cls-4{fill:#066938;}.cls-5{fill:#faccab;}.cls-6{fill:#ffdd5f;}.cls-7{fill:#ef7a8a;}.cls-8{fill:#f7baab;}.cls-9{fill:#041015;}.cls-10{fill:#ef7b8b;}.cls-11{fill:#fff;}.cls-12{fill:#08111d;}.cls-13,.cls-14,.cls-15{fill:none;}.cls-13{stroke:#fff;}.cls-13,.cls-14{stroke-linecap:round;stroke-miterlimit:10;}.cls-14{stroke:#f7ef8b;}</style></defs><title>Artboard 3</title><g id="Layer_5" data-name="Layer 5"><path class="cls-1" d="M538.3,302.46c0,94.05-52.56,175.38-128.89,214.07q-6.53,3.32-13.27,6.2a222.65,222.65,0,0,1-174.84,0c-1.18-.5-2.36-1-3.53-1.55C136.21,484.65,79.14,400.46,79.14,302.46c0-131.53,102.79-238.15,229.58-238.15S538.3,170.93,538.3,302.46Z"/><path class="cls-2" d="M409.41,516.24q-6.53,3.32-13.27,6.19a222.54,222.54,0,0,1-174.84,0c-1.18-.49-2.36-1-3.53-1.54-.05-1.37-.08-2.76-.08-4.15a102,102,0,0,1,.63-11.38,100.92,100.92,0,0,1,4.93-21.94,99.58,99.58,0,0,1,22.32-36.58,95.08,95.08,0,0,1,43.82-26.08,90.44,90.44,0,0,1,9.79-2.07h0a93.27,93.27,0,0,1,14.36-1.11,94.82,94.82,0,0,1,13.13.92h0a93.93,93.93,0,0,1,54.85,28.34,99.58,99.58,0,0,1,22.32,36.58,101.87,101.87,0,0,1,5.55,32.82Z"/><rect class="cls-3" x="240.1" y="394.3" width="145.96" height="72.34" rx="5.2"/><path class="cls-4" d="M323.68,452.18h0c-8.31,4.66-20.86,4.06-28-1.33l-33.73-25.34c-7.17-5.39-6.26-13.54,2.05-18.19h0c8.3-4.66,20.85-4.06,28,1.33L325.73,434C332.9,439.38,332,447.53,323.68,452.18Z"/><path class="cls-4" d="M298.9,451.48h0c-7.76-5-7.76-13.2,0-18.24l36.48-23.68c7.76-5,20.35-5,28.11,0h0c7.76,5,7.76,13.2,0,18.24L327,451.48C319.24,456.52,306.66,456.52,298.9,451.48Z"/><rect class="cls-5" x="287.78" y="381.3" width="49.14" height="74.78" rx="3.56"/><path class="cls-6" d="M407,265.48a56,56,0,0,1-16.16,39.37,54.79,54.79,0,0,1-39,16.3H267.24a54.94,54.94,0,0,1-44.69-23,56.08,56.08,0,0,1,4.1-70.39q.76-.84,1.56-1.65a55.35,55.35,0,0,1,19.2-12.6A36,36,0,0,0,263,217.11h73.56a36.25,36.25,0,0,0,15-3.22,36.75,36.75,0,0,0,6.43-3.75A55.61,55.61,0,0,1,407,265.48Z"/><ellipse class="cls-5" cx="224.36" cy="315.5" rx="17.14" ry="16.76"/><ellipse class="cls-7" cx="224.28" cy="315.6" rx="9.35" ry="9.34"/><ellipse class="cls-5" cx="397.55" cy="315.5" rx="17.14" ry="16.76"/><ellipse class="cls-7" cx="397.47" cy="315.6" rx="9.35" ry="9.34"/><path class="cls-5" d="M397.33,291.47v38.71c0,48.7-39.12,88.17-87.38,88.17a86.74,86.74,0,0,1-61.81-25.82,88.32,88.32,0,0,1-25.59-62.35V291.47A88.32,88.32,0,0,1,263,217.11h73.56a36.25,36.25,0,0,0,15-3.22,88.05,88.05,0,0,1,40.85,48.19A88.46,88.46,0,0,1,397.33,291.47Z"/><rect class="cls-8" x="302.7" y="311.13" width="17.97" height="27.64" rx="1.3"/><path class="cls-9" d="M349.8,354.8c0,.64,0,1.27-.06,1.9,0,.31,0,.62-.07.94s-.06.62-.1.93c-.1.78-.23,1.56-.39,2.33-.08.39-.16.77-.26,1.15s-.19.76-.3,1.13a33,33,0,0,1-9.79,15.32,37.55,37.55,0,0,1-5.32,4c-.68.42-1.38.82-2.09,1.2a41.9,41.9,0,0,1-40-.55c-.54-.31-1.07-.63-1.6-1a39.43,39.43,0,0,1-4.25-3.17,33,33,0,0,1-10.34-15.81c-.11-.37-.21-.75-.31-1.13s-.18-.76-.26-1.15-.15-.77-.21-1.16-.12-.78-.17-1.17h0a29.75,29.75,0,0,1,0-7.3H349.6A31.71,31.71,0,0,1,349.8,354.8Z"/><path class="cls-10" d="M333.51,382.47c-.68.42-1.38.82-2.09,1.2a41.9,41.9,0,0,1-40-.55c-.54-.31-1.07-.63-1.6-1,5.82-8.07,13.41-12.94,21.72-12.94S327.68,374.22,333.51,382.47Z"/><path class="cls-11" d="M349.8,354.8a30,30,0,0,1-1.18,8.39H275.27a28.91,28.91,0,0,1-.95-4.62,29.75,29.75,0,0,1,0-7.3H349.6A31.71,31.71,0,0,1,349.8,354.8Z"/><ellipse class="cls-12" cx="261.79" cy="312.42" rx="7.04" ry="7.11"/><ellipse class="cls-12" cx="356.85" cy="312.42" rx="7.04" ry="7.11"/><path class="cls-6" d="M411.83,224.84a45.05,45.05,0,0,1-13.1,31.89,46,46,0,0,1-6.38,5.35A44.24,44.24,0,0,1,367.12,270H271.26a44.58,44.58,0,0,1-37.84-21.1,45.05,45.05,0,0,1-6.77-21.1q.76-.84,1.56-1.65a55.35,55.35,0,0,1,19.2-12.6A36,36,0,0,0,263,217.11h73.56a36.25,36.25,0,0,0,15-3.22,37,37,0,0,0,21.66-33.75A45,45,0,0,1,411.83,224.84Z"/><path class="cls-6" d="M351.5,213.89a36.25,36.25,0,0,1-15,3.22H263a86.05,86.05,0,0,1,14-7.31h66A84,84,0,0,1,351.5,213.89Z"/><path class="cls-6" d="M277,209.8a86.05,86.05,0,0,0-14,7.31h0a36,36,0,0,1-15.54-3.61,54.64,54.64,0,0,1,19.83-3.7Z"/><path class="cls-6" d="M357.93,210.14a36.75,36.75,0,0,1-6.43,3.75,84,84,0,0,0-8.56-4.09h8.88A53.49,53.49,0,0,1,357.93,210.14Z"/><path class="cls-6" d="M274.07,297.35l-26.75,2.16a8,8,0,0,1-8.54-7.34l-.15-1.93a8,8,0,0,1,7.27-8.62l26.75-2.16a8,8,0,0,1,8.54,7.34l.15,1.93A8,8,0,0,1,274.07,297.35Z"/><path class="cls-6" d="M345.79,297.35l26.75,2.16a8,8,0,0,0,8.54-7.34l.15-1.93a8,8,0,0,0-7.28-8.62l-26.74-2.16a8,8,0,0,0-8.54,7.34l-.15,1.93A8,8,0,0,0,345.79,297.35Z"/><line class="cls-13" x1="287.78" y1="456.08" x2="287.78" y2="531.6"/><line class="cls-13" x1="340.72" y1="456.08" x2="340.72" y2="531.6"/><path class="cls-14" d="M401.3,218.64a42.28,42.28,0,0,1-6.71,22.92,42.75,42.75,0,0,1-5.53,6.88,43.25,43.25,0,0,1-6,5,41.35,41.35,0,0,1-23.57,7.35"/><rect class="cls-15" x="5.19" width="607.06" height="612.53"/><path class="cls-1" d="M1145.36,302.46c0,94.05-52.56,175.38-128.89,214.07q-6.53,3.32-13.27,6.2a222.65,222.65,0,0,1-174.84,0c-1.18-.5-2.36-1-3.53-1.55C743.27,484.65,686.2,400.46,686.2,302.46,686.2,170.93,789,64.31,915.78,64.31S1145.36,170.93,1145.36,302.46Z"/><path class="cls-2" d="M1016.47,516.24q-6.53,3.32-13.27,6.19a222.54,222.54,0,0,1-174.84,0c-1.18-.49-2.36-1-3.53-1.54-.05-1.37-.08-2.76-.08-4.15a102,102,0,0,1,.63-11.38,100.92,100.92,0,0,1,4.93-21.94,99.58,99.58,0,0,1,22.32-36.58,95,95,0,0,1,43.82-26.08,90.77,90.77,0,0,1,9.78-2.07h0a93.27,93.27,0,0,1,14.36-1.11,94.82,94.82,0,0,1,13.13.92h0a94,94,0,0,1,54.85,28.34,100.59,100.59,0,0,1,27.24,58.52A97.94,97.94,0,0,1,1016.47,516.24Z"/><rect class="cls-3" x="847.16" y="394.3" width="145.96" height="72.34" rx="5.2"/><path class="cls-4" d="M930.73,452.18h0c-8.3,4.66-20.85,4.06-28-1.33L869,425.51c-7.17-5.39-6.26-13.54,2-18.19h0c8.3-4.66,20.85-4.06,28,1.33L932.78,434C940,439.38,939,447.53,930.73,452.18Z"/><path class="cls-4" d="M906,451.48h0c-7.76-5-7.76-13.2,0-18.24l36.49-23.68c7.76-5,20.34-5,28.1,0h0c7.76,5,7.76,13.2,0,18.24l-36.48,23.68C926.3,456.52,913.71,456.52,906,451.48Z"/><rect class="cls-5" x="894.84" y="381.3" width="49.14" height="74.78" rx="3.56"/><path class="cls-6" d="M1014.06,265.48a56,56,0,0,1-16.16,39.37,54.79,54.79,0,0,1-39,16.3H874.29a54.93,54.93,0,0,1-44.68-23,56,56,0,0,1,4.1-70.39q.76-.84,1.56-1.65a55.35,55.35,0,0,1,19.2-12.6A36,36,0,0,0,870,217.11h73.56a36.25,36.25,0,0,0,15-3.22,36.75,36.75,0,0,0,6.43-3.75,55.66,55.66,0,0,1,49.07,55.34Z"/><ellipse class="cls-5" cx="831.42" cy="315.5" rx="17.14" ry="16.76"/><ellipse class="cls-7" cx="831.34" cy="315.6" rx="9.35" ry="9.34"/><ellipse class="cls-5" cx="1004.61" cy="315.5" rx="17.14" ry="16.76"/><ellipse class="cls-7" cx="1004.53" cy="315.6" rx="9.35" ry="9.34"/><path class="cls-5" d="M1004.39,291.47v38.71c0,48.7-39.13,88.17-87.39,88.17a86.74,86.74,0,0,1-61.8-25.82,88.32,88.32,0,0,1-25.59-62.35V291.47A88.32,88.32,0,0,1,870,217.11h73.56a36.25,36.25,0,0,0,15-3.22,88.32,88.32,0,0,1,45.83,77.58Z"/><rect class="cls-8" x="909.76" y="311.13" width="17.97" height="27.64" rx="1.3"/><path class="cls-9" d="M956.86,354.8c0,.64,0,1.27-.06,1.9,0,.31,0,.62-.07.94s-.06.62-.1.93c-.1.78-.23,1.56-.39,2.33-.08.39-.16.77-.26,1.15s-.19.76-.3,1.13a33,33,0,0,1-9.79,15.32,37.55,37.55,0,0,1-5.32,4c-.68.42-1.38.82-2.09,1.2a41.9,41.9,0,0,1-40-.55c-.54-.31-1.08-.63-1.6-1a39.43,39.43,0,0,1-4.25-3.17,33,33,0,0,1-10.34-15.81c-.11-.37-.21-.75-.31-1.13s-.18-.76-.26-1.15-.15-.77-.21-1.16-.12-.78-.17-1.17h0a29.75,29.75,0,0,1,0-7.3h75.31A31.71,31.71,0,0,1,956.86,354.8Z"/><path class="cls-10" d="M940.57,382.47c-.68.42-1.38.82-2.09,1.2a41.9,41.9,0,0,1-40-.55c-.54-.31-1.08-.63-1.6-1,5.82-8.07,13.41-12.94,21.72-12.94S934.74,374.22,940.57,382.47Z"/><path class="cls-11" d="M956.86,354.8a30,30,0,0,1-1.18,8.39H882.33a28.91,28.91,0,0,1-1-4.62,29.75,29.75,0,0,1,0-7.3h75.31A31.71,31.71,0,0,1,956.86,354.8Z"/><ellipse class="cls-12" cx="868.85" cy="312.97" rx="7.04" ry="3.65"/><path class="cls-6" d="M1018.89,224.84a45.18,45.18,0,0,1-13.1,31.89,46,46,0,0,1-6.38,5.35A44.24,44.24,0,0,1,974.18,270H878.32a45,45,0,0,1-44.61-42.2q.76-.84,1.56-1.65a55.35,55.35,0,0,1,19.2-12.6A36,36,0,0,0,870,217.11h73.56a36.25,36.25,0,0,0,15-3.22,37,37,0,0,0,21.66-33.75A45,45,0,0,1,1018.89,224.84Z"/><path class="cls-6" d="M958.56,213.89a36.25,36.25,0,0,1-15,3.22H870a86.05,86.05,0,0,1,14-7.31h66A84,84,0,0,1,958.56,213.89Z"/><path class="cls-6" d="M884,209.8a86.05,86.05,0,0,0-14,7.31h0a36,36,0,0,1-15.54-3.61,54.58,54.58,0,0,1,19.82-3.7Z"/><path class="cls-6" d="M965,210.14a36.75,36.75,0,0,1-6.43,3.75A84,84,0,0,0,950,209.8h8.88A53.62,53.62,0,0,1,965,210.14Z"/><path class="cls-6" d="M881.13,297.35l-26.75,2.16a8,8,0,0,1-8.54-7.34l-.15-1.93a8,8,0,0,1,7.27-8.62l26.75-2.16a8,8,0,0,1,8.54,7.34l.15,1.93A8,8,0,0,1,881.13,297.35Z"/><path class="cls-6" d="M952.85,297.35l26.75,2.16a8,8,0,0,0,8.53-7.34l.16-1.93a8,8,0,0,0-7.28-8.62l-26.74-2.16a8,8,0,0,0-8.54,7.34l-.15,1.93A8,8,0,0,0,952.85,297.35Z"/><line class="cls-13" x1="894.84" y1="456.08" x2="894.84" y2="531.6"/><line class="cls-13" x1="947.78" y1="456.08" x2="947.78" y2="531.6"/><path class="cls-14" d="M1008.36,218.64a42.27,42.27,0,0,1-12.24,29.8,43.25,43.25,0,0,1-6,5,41.37,41.37,0,0,1-23.57,7.35"/><rect class="cls-15" x="612.25" width="607.06" height="612.53"/><path class="cls-1" d="M1752.42,302.46c0,94.05-52.56,175.38-128.89,214.07q-6.52,3.32-13.27,6.2a222.65,222.65,0,0,1-174.84,0c-1.18-.5-2.36-1-3.53-1.55-81.56-36.53-138.63-120.72-138.63-218.72,0-131.53,102.79-238.15,229.58-238.15S1752.42,170.93,1752.42,302.46Z"/><path class="cls-2" d="M1623.53,516.24q-6.52,3.32-13.27,6.19a222.54,222.54,0,0,1-174.84,0c-1.18-.49-2.36-1-3.53-1.54-.05-1.37-.08-2.76-.08-4.15a102,102,0,0,1,.63-11.38,100.92,100.92,0,0,1,4.93-21.94,98.38,98.38,0,0,1,6.38-14.63,99.49,99.49,0,0,1,15.93-22,95.12,95.12,0,0,1,43.83-26.08,90.77,90.77,0,0,1,9.78-2.07h0a93.27,93.27,0,0,1,14.36-1.11,94.57,94.57,0,0,1,13.12.92h0a94,94,0,0,1,54.85,28.34,100.59,100.59,0,0,1,27.24,58.52A97.94,97.94,0,0,1,1623.53,516.24Z"/><rect class="cls-3" x="1454.21" y="394.3" width="145.96" height="72.34" rx="5.2"/><path class="cls-4" d="M1537.79,452.18h0c-8.3,4.66-20.85,4.06-28-1.33L1476,425.51c-7.18-5.39-6.26-13.54,2-18.19h0c8.3-4.66,20.85-4.06,28,1.33L1539.84,434C1547,439.38,1546.1,447.53,1537.79,452.18Z"/><path class="cls-4" d="M1513,451.48h0c-7.76-5-7.76-13.2,0-18.24l36.49-23.68c7.76-5,20.34-5,28.1,0h0c7.76,5,7.76,13.2,0,18.24l-36.49,23.68C1533.35,456.52,1520.77,456.52,1513,451.48Z"/><rect class="cls-5" x="1501.89" y="381.3" width="49.14" height="74.78" rx="3.56"/><path class="cls-6" d="M1621.12,265.48A56,56,0,0,1,1605,304.85a54.79,54.79,0,0,1-39,16.3h-84.59a54.93,54.93,0,0,1-44.68-23,56,56,0,0,1,4.1-70.39q.76-.84,1.56-1.65a55.35,55.35,0,0,1,19.2-12.6,36,36,0,0,0,15.54,3.61h73.56a36.25,36.25,0,0,0,15-3.22,36.75,36.75,0,0,0,6.43-3.75,55.66,55.66,0,0,1,49.07,55.34Z"/><ellipse class="cls-5" cx="1438.48" cy="315.5" rx="17.14" ry="16.76"/><ellipse class="cls-7" cx="1438.4" cy="315.6" rx="9.35" ry="9.34"/><ellipse class="cls-5" cx="1611.67" cy="315.5" rx="17.14" ry="16.76"/><ellipse class="cls-7" cx="1611.59" cy="315.6" rx="9.35" ry="9.34"/><path class="cls-5" d="M1611.45,291.47v38.71c0,48.7-39.13,88.17-87.39,88.17a86.74,86.74,0,0,1-61.8-25.82,88.32,88.32,0,0,1-25.59-62.35V291.47a88.32,88.32,0,0,1,40.4-74.36h73.56a36.25,36.25,0,0,0,15-3.22,88.32,88.32,0,0,1,45.83,77.58Z"/><rect class="cls-8" x="1516.82" y="311.13" width="17.97" height="27.64" rx="1.3"/><path class="cls-9" d="M1563.92,354.8c0,.64,0,1.27-.06,1.9,0,.31,0,.62-.07.94s-.06.62-.1.93c-.1.78-.23,1.56-.39,2.33-.08.39-.16.77-.26,1.15s-.2.76-.3,1.13A33,33,0,0,1,1553,378.5a37.55,37.55,0,0,1-5.32,4c-.68.42-1.38.82-2.09,1.2a41.9,41.9,0,0,1-40-.55c-.54-.31-1.08-.63-1.6-1a38.47,38.47,0,0,1-4.25-3.17,33,33,0,0,1-10.34-15.81c-.11-.37-.21-.75-.31-1.13s-.18-.76-.26-1.15-.15-.77-.21-1.16-.12-.78-.18-1.17h0a31.41,31.41,0,0,1-.23-3.77,29.48,29.48,0,0,1,.21-3.53h75.3A29.48,29.48,0,0,1,1563.92,354.8Z"/><path class="cls-10" d="M1547.63,382.47c-.68.42-1.38.82-2.09,1.2a41.9,41.9,0,0,1-40-.55c-.54-.31-1.08-.63-1.6-1,5.81-8.07,13.4-12.94,21.72-12.94S1541.79,374.22,1547.63,382.47Z"/><path class="cls-11" d="M1563.92,354.8a30,30,0,0,1-1.18,8.39h-73.35a28.91,28.91,0,0,1-1-4.62,29.75,29.75,0,0,1,0-7.3h75.3A29.48,29.48,0,0,1,1563.92,354.8Z"/><ellipse class="cls-12" cx="1475.91" cy="312.42" rx="7.04" ry="0.85"/><path class="cls-6" d="M1626,224.84a45.18,45.18,0,0,1-13.1,31.89,46,46,0,0,1-6.38,5.35,44.26,44.26,0,0,1-25.23,7.87h-95.86a45,45,0,0,1-44.61-42.2q.76-.84,1.56-1.65a55.35,55.35,0,0,1,19.2-12.6,36,36,0,0,0,15.54,3.61h73.56a36.25,36.25,0,0,0,15-3.22,36.75,36.75,0,0,0,6.43-3.75,35.86,35.86,0,0,0,4.49-3.86,37,37,0,0,0,10.74-26.14A45,45,0,0,1,1626,224.84Z"/><path class="cls-6" d="M1565.62,213.89a36.25,36.25,0,0,1-15,3.22h-73.55a86.05,86.05,0,0,1,14-7.31h66A84,84,0,0,1,1565.62,213.89Z"/><path class="cls-6" d="M1491.07,209.8a86.05,86.05,0,0,0-14,7.31h0a36,36,0,0,1-15.54-3.61,54.58,54.58,0,0,1,19.82-3.7Z"/><path class="cls-6" d="M1572.05,210.14a36.75,36.75,0,0,1-6.43,3.75,84,84,0,0,0-8.56-4.09h8.88A53.62,53.62,0,0,1,1572.05,210.14Z"/><path class="cls-6" d="M1488.19,297.35l-26.75,2.16a8,8,0,0,1-8.54-7.34l-.15-1.93a8,8,0,0,1,7.27-8.62l26.75-2.16a8,8,0,0,1,8.54,7.34l.15,1.93A8,8,0,0,1,1488.19,297.35Z"/><path class="cls-6" d="M1559.91,297.35l26.74,2.16a8,8,0,0,0,8.54-7.34l.16-1.93a8,8,0,0,0-7.28-8.62l-26.74-2.16a8,8,0,0,0-8.54,7.34l-.15,1.93A8,8,0,0,0,1559.91,297.35Z"/><line class="cls-13" x1="1501.89" y1="456.08" x2="1501.89" y2="531.6"/><line class="cls-13" x1="1554.84" y1="456.08" x2="1554.84" y2="531.6"/><path class="cls-14" d="M1615.42,218.64a42.27,42.27,0,0,1-12.24,29.8,43.25,43.25,0,0,1-6,5,41.37,41.37,0,0,1-23.57,7.35"/><rect class="cls-15" x="1219.31" width="607.06" height="612.53"/><path class="cls-1" d="M2359.48,303c0,94.06-52.56,175.38-128.89,214.08q-6.53,3.31-13.27,6.19a222.65,222.65,0,0,1-174.84,0c-1.18-.5-2.36-1-3.53-1.54C1957.39,485.19,1900.32,401,1900.32,303c0-131.53,102.78-238.15,229.58-238.15S2359.48,171.47,2359.48,303Z"/><path class="cls-2" d="M2230.59,516.78q-6.53,3.32-13.27,6.2a222.65,222.65,0,0,1-174.84,0c-1.18-.5-2.36-1-3.53-1.55,0-1.37-.08-2.75-.08-4.14a101.85,101.85,0,0,1,.63-11.38,100.3,100.3,0,0,1,4.93-22,99.58,99.58,0,0,1,22.31-36.57,95.07,95.07,0,0,1,43.82-26.09,91,91,0,0,1,9.79-2.07h0a93.27,93.27,0,0,1,14.36-1.1,94.57,94.57,0,0,1,13.12.91h0a94,94,0,0,1,54.85,28.35A99.58,99.58,0,0,1,2225,484a100.3,100.3,0,0,1,4.93,22A102.67,102.67,0,0,1,2230.59,516.78Z"/><rect class="cls-3" x="2061.27" y="394.85" width="145.96" height="72.34" rx="5.2"/><path class="cls-4" d="M2144.85,452.73h0c-8.3,4.65-20.85,4.06-28-1.33l-33.73-25.35c-7.18-5.39-6.26-13.53,2.05-18.19h0c8.3-4.65,20.85-4.06,28,1.33l33.73,25.35C2154.08,439.93,2153.16,448.07,2144.85,452.73Z"/><path class="cls-4" d="M2120.07,452h0c-7.76-5-7.76-13.2,0-18.23l36.49-23.68c7.76-5,20.34-5,28.1,0h0c7.76,5,7.76,13.2,0,18.23L2148.17,452C2140.41,457.06,2127.83,457.06,2120.07,452Z"/><rect class="cls-5" x="2108.95" y="381.84" width="49.14" height="74.78" rx="3.56"/><path class="cls-6" d="M2228.17,266a55.72,55.72,0,0,1-9.66,31.48A55.21,55.21,0,0,1,2173,321.7h-84.58a54.93,54.93,0,0,1-44.68-23,56,56,0,0,1,4.1-70.39c.51-.56,1-1.12,1.56-1.65a55.07,55.07,0,0,1,19.2-12.6,36.14,36.14,0,0,0,15.54,3.61h73.56a36.29,36.29,0,0,0,15-3.23,35.54,35.54,0,0,0,6.43-3.75,55.34,55.34,0,0,1,46.71,39.23A56,56,0,0,1,2228.17,266Z"/><ellipse class="cls-5" cx="2045.54" cy="316.05" rx="17.14" ry="16.76"/><ellipse class="cls-7" cx="2045.46" cy="316.15" rx="9.35" ry="9.34"/><ellipse class="cls-5" cx="2218.73" cy="316.05" rx="17.14" ry="16.76"/><ellipse class="cls-7" cx="2218.65" cy="316.15" rx="9.35" ry="9.34"/><path class="cls-5" d="M2218.51,292v38.72c0,48.69-39.13,88.17-87.39,88.17a86.78,86.78,0,0,1-61.8-25.82,88.35,88.35,0,0,1-25.59-62.35V292a88.32,88.32,0,0,1,40.4-74.35h73.56a36.29,36.29,0,0,0,15-3.23A88.32,88.32,0,0,1,2218.51,292Z"/><rect class="cls-8" x="2123.88" y="311.67" width="17.97" height="27.64" rx="1.3"/><path class="cls-9" d="M2171,355.34c0,.64,0,1.27-.06,1.9,0,.32,0,.63-.07.94s-.06.62-.1.93q-.15,1.18-.39,2.34c-.08.38-.17.77-.26,1.15s-.2.75-.3,1.13a33,33,0,0,1-9.79,15.32,36.74,36.74,0,0,1-5.32,4c-.68.42-1.38.83-2.09,1.21a42,42,0,0,1-40-.55c-.54-.31-1.08-.64-1.6-1a38.47,38.47,0,0,1-4.25-3.17,32.92,32.92,0,0,1-10.34-15.8c-.11-.38-.21-.75-.31-1.13s-.18-.77-.26-1.15-.15-.77-.22-1.16-.12-.78-.17-1.18h0a31.28,31.28,0,0,1-.23-3.77,29.31,29.31,0,0,1,.21-3.52h75.3A29.31,29.31,0,0,1,2171,355.34Z"/><path class="cls-10" d="M2154.69,383c-.68.42-1.38.83-2.09,1.21a42,42,0,0,1-40-.55c-.54-.31-1.08-.64-1.6-1,5.81-8.06,13.4-12.94,21.71-12.94S2148.85,374.76,2154.69,383Z"/><path class="cls-11" d="M2171,355.34a31.28,31.28,0,0,1-.23,3.77,29.59,29.59,0,0,1-1,4.62h-73.34a29.59,29.59,0,0,1-1-4.62,31.28,31.28,0,0,1-.23-3.77,29.31,29.31,0,0,1,.21-3.52h75.3A29.31,29.31,0,0,1,2171,355.34Z"/><path class="cls-6" d="M2233,225.38a45.18,45.18,0,0,1-13.1,31.89,44.66,44.66,0,0,1-6.38,5.35,44.19,44.19,0,0,1-25.23,7.87h-95.86a44.95,44.95,0,0,1-44.61-42.19c.51-.56,1-1.12,1.56-1.65a55.07,55.07,0,0,1,19.2-12.6,36.14,36.14,0,0,0,15.54,3.61h73.56a36.29,36.29,0,0,0,15-3.23,36.75,36.75,0,0,0,10.92-7.61,37,37,0,0,0,10.74-26.14A45,45,0,0,1,2233,225.38Z"/><path class="cls-6" d="M2172.68,214.43a36.29,36.29,0,0,1-15,3.23h-73.56a86.61,86.61,0,0,1,14-7.32h66A86.2,86.2,0,0,1,2172.68,214.43Z"/><path class="cls-6" d="M2098.13,210.34a86.61,86.61,0,0,0-14,7.32h0a36.14,36.14,0,0,1-15.54-3.61,54.38,54.38,0,0,1,19.82-3.71Z"/><path class="cls-6" d="M2179.11,210.68a35.54,35.54,0,0,1-6.43,3.75,86.2,86.2,0,0,0-8.56-4.09H2173A56.2,56.2,0,0,1,2179.11,210.68Z"/><path class="cls-6" d="M2095.24,297.89l-26.74,2.16a8,8,0,0,1-8.54-7.34l-.15-1.93a8,8,0,0,1,7.27-8.62l26.75-2.15a7.94,7.94,0,0,1,8.53,7.33l.16,1.94A8,8,0,0,1,2095.24,297.89Z"/><path class="cls-6" d="M2167,297.89l26.74,2.16a8,8,0,0,0,8.54-7.34l.16-1.93a8,8,0,0,0-7.28-8.62L2168.39,280a7.94,7.94,0,0,0-8.54,7.33l-.16,1.94A8,8,0,0,0,2167,297.89Z"/><line class="cls-13" x1="2108.95" y1="456.62" x2="2108.95" y2="532.14"/><line class="cls-13" x1="2161.9" y1="456.62" x2="2161.9" y2="532.14"/><path class="cls-14" d="M2222.47,219.19A42.25,42.25,0,0,1,2204.28,254a41.32,41.32,0,0,1-23.57,7.35"/><rect class="cls-15" x="1826.37" y="0.54" width="607.06" height="612.53"/><path class="cls-1" d="M2966.54,303c0,94.06-52.57,175.38-128.89,214.08q-6.53,3.31-13.28,6.19a222.63,222.63,0,0,1-174.83,0c-1.19-.5-2.36-1-3.53-1.54C2564.45,485.19,2507.38,401,2507.38,303c0-131.53,102.78-238.15,229.58-238.15S2966.54,171.47,2966.54,303Z"/><path class="cls-2" d="M2837.65,516.78q-6.53,3.32-13.28,6.2a222.63,222.63,0,0,1-174.83,0c-1.19-.5-2.36-1-3.53-1.55-.06-1.37-.08-2.75-.08-4.14a101.85,101.85,0,0,1,.63-11.38,100.3,100.3,0,0,1,4.93-22,99.58,99.58,0,0,1,22.31-36.57,95.07,95.07,0,0,1,43.82-26.09,91,91,0,0,1,9.79-2.07h0a93.17,93.17,0,0,1,14.36-1.1,94.68,94.68,0,0,1,13.12.91h0a94,94,0,0,1,54.85,28.35A99.58,99.58,0,0,1,2832.09,484a100.3,100.3,0,0,1,4.93,22A102.67,102.67,0,0,1,2837.65,516.78Z"/><rect class="cls-3" x="2668.33" y="394.85" width="145.96" height="72.34" rx="5.2"/><path class="cls-4" d="M2751.91,452.73h0c-8.3,4.65-20.85,4.06-28-1.33l-33.73-25.35c-7.18-5.39-6.26-13.53,2.05-18.19h0c8.3-4.65,20.85-4.06,28,1.33L2754,434.54C2761.13,439.93,2760.22,448.07,2751.91,452.73Z"/><path class="cls-4" d="M2727.13,452h0c-7.76-5-7.76-13.2,0-18.23l36.49-23.68c7.76-5,20.34-5,28.1,0h0c7.76,5,7.76,13.2,0,18.23L2755.23,452C2747.47,457.06,2734.89,457.06,2727.13,452Z"/><rect class="cls-5" x="2716.01" y="381.84" width="49.14" height="74.78" rx="3.56"/><path class="cls-6" d="M2835.23,266a55.78,55.78,0,0,1-16.16,39.37,54.79,54.79,0,0,1-39,16.31h-84.58a54.93,54.93,0,0,1-44.68-23,56,56,0,0,1,4.1-70.39c.5-.56,1-1.12,1.56-1.65a55.07,55.07,0,0,1,19.2-12.6,36.14,36.14,0,0,0,15.54,3.61h73.56a36.29,36.29,0,0,0,15-3.23,35.54,35.54,0,0,0,6.43-3.75,55.34,55.34,0,0,1,46.71,39.23A56,56,0,0,1,2835.23,266Z"/><ellipse class="cls-5" cx="2652.6" cy="316.05" rx="17.14" ry="16.76"/><ellipse class="cls-7" cx="2652.52" cy="316.15" rx="9.35" ry="9.34"/><ellipse class="cls-5" cx="2825.79" cy="316.05" rx="17.14" ry="16.76"/><ellipse class="cls-7" cx="2825.71" cy="316.15" rx="9.35" ry="9.34"/><path class="cls-5" d="M2825.57,292v38.72c0,48.69-39.13,88.17-87.39,88.17a86.78,86.78,0,0,1-61.8-25.82,88.35,88.35,0,0,1-25.59-62.35V292a88.26,88.26,0,0,1,40.4-74.35h73.56a36.29,36.29,0,0,0,15-3.23A88.32,88.32,0,0,1,2825.57,292Z"/><rect class="cls-8" x="2730.94" y="311.67" width="17.97" height="27.64" rx="1.3"/><path class="cls-9" d="M2778,355.34c0,.64,0,1.27-.06,1.9,0,.32,0,.63-.07.94s-.07.62-.1.93q-.15,1.18-.39,2.34c-.08.38-.17.77-.26,1.15s-.2.75-.31,1.13a32.93,32.93,0,0,1-9.78,15.32,37.3,37.3,0,0,1-5.32,4c-.68.42-1.38.83-2.1,1.21a42,42,0,0,1-40-.55c-.54-.31-1.08-.64-1.6-1a38.59,38.59,0,0,1-4.26-3.17,32.9,32.9,0,0,1-10.33-15.8c-.11-.38-.21-.75-.31-1.13s-.18-.77-.26-1.15-.15-.77-.22-1.16-.12-.78-.17-1.18h0a31.28,31.28,0,0,1-.23-3.77,29.31,29.31,0,0,1,.21-3.52h75.3A29.31,29.31,0,0,1,2778,355.34Z"/><path class="cls-10" d="M2761.75,383c-.68.42-1.38.83-2.1,1.21a42,42,0,0,1-40-.55c-.54-.31-1.08-.64-1.6-1,5.81-8.06,13.4-12.94,21.71-12.94S2755.91,374.76,2761.75,383Z"/><path class="cls-11" d="M2778,355.34a29.35,29.35,0,0,1-.24,3.77,28.46,28.46,0,0,1-1,4.62h-73.34a29.59,29.59,0,0,1-1-4.62,31.28,31.28,0,0,1-.23-3.77,29.31,29.31,0,0,1,.21-3.52h75.3A29.31,29.31,0,0,1,2778,355.34Z"/><ellipse class="cls-12" cx="2690.03" cy="312.96" rx="7.04" ry="7.11"/><ellipse class="cls-12" cx="2785.08" cy="312.96" rx="7.04" ry="7.11"/><path class="cls-6" d="M2840.07,225.38a45.18,45.18,0,0,1-13.1,31.89,44.66,44.66,0,0,1-6.38,5.35,44.19,44.19,0,0,1-25.23,7.87H2699.5a44.59,44.59,0,0,1-37.85-21.09,45.08,45.08,0,0,1-6.76-21.1c.5-.56,1-1.12,1.56-1.65a55.07,55.07,0,0,1,19.2-12.6,36.14,36.14,0,0,0,15.54,3.61h73.56a36.29,36.29,0,0,0,15-3.23,36.75,36.75,0,0,0,10.92-7.61,37,37,0,0,0,10.74-26.14A45,45,0,0,1,2840.07,225.38Z"/><path class="cls-6" d="M2779.74,214.43a36.29,36.29,0,0,1-15,3.23h-73.56a86.61,86.61,0,0,1,14-7.32h66A86.2,86.2,0,0,1,2779.74,214.43Z"/><path class="cls-6" d="M2705.19,210.34a86.61,86.61,0,0,0-14,7.32h0a36.14,36.14,0,0,1-15.54-3.61,54.38,54.38,0,0,1,19.82-3.71Z"/><path class="cls-6" d="M2786.17,210.68a35.54,35.54,0,0,1-6.43,3.75,86.2,86.2,0,0,0-8.56-4.09h8.87A56.2,56.2,0,0,1,2786.17,210.68Z"/><path class="cls-6" d="M2702.3,297.89l-26.74,2.16a8,8,0,0,1-8.54-7.34l-.15-1.93a8,8,0,0,1,7.27-8.62l26.74-2.15a7.94,7.94,0,0,1,8.54,7.33l.16,1.94A8,8,0,0,1,2702.3,297.89Z"/><path class="cls-6" d="M2774,297.89l26.74,2.16a8,8,0,0,0,8.54-7.34l.15-1.93a8,8,0,0,0-7.27-8.62L2775.44,280a7.94,7.94,0,0,0-8.53,7.33l-.16,1.94A8,8,0,0,0,2774,297.89Z"/><line class="cls-13" x1="2716.01" y1="456.62" x2="2716.01" y2="532.14"/><line class="cls-13" x1="2768.96" y1="456.62" x2="2768.96" y2="532.14"/><path class="cls-14" d="M2829.53,219.19A42.25,42.25,0,0,1,2811.34,254a41.32,41.32,0,0,1-23.57,7.35"/><rect class="cls-15" x="2433.43" y="0.54" width="607.06" height="612.53"/><ellipse class="cls-12" cx="963.91" cy="312.97" rx="7.04" ry="3.65"/><ellipse class="cls-12" cx="1570.96" cy="312.42" rx="7.04" ry="0.85"/><ellipse class="cls-12" cx="2082.97" cy="312.96" rx="7.04" ry="3.65"/><ellipse class="cls-12" cx="2178.02" cy="312.96" rx="7.04" ry="3.65"/></g></svg>
