<svg id="Layer_1" data-name="Layer 1" xmlns="http://www.w3.org/2000/svg" width="1457" height="1064" viewBox="0 0 1457 1064"><defs><style>.cls-1{opacity:0.5;}.cls-2{fill:#706d6c;}.cls-3{fill:#fff;}</style></defs><title>dreng1nøgenpige</title><g class="cls-1"><path class="cls-2" d="M232.52,1030.5a153.47,153.47,0,0,1-153-153v-692a153.47,153.47,0,0,1,153-153h992a153.47,153.47,0,0,1,153,153v692a153.47,153.47,0,0,1-153,153Z"/><path class="cls-3" d="M1224.48,33a150.73,150.73,0,0,1,59.22,12A154,154,0,0,1,1365,126.3a150.73,150.73,0,0,1,12,59.22v692a150.73,150.73,0,0,1-12,59.22A154,154,0,0,1,1283.7,1018a150.73,150.73,0,0,1-59.22,12h-992a150.73,150.73,0,0,1-59.22-12A154,154,0,0,1,92,936.7a150.73,150.73,0,0,1-12-59.22v-692A150.73,150.73,0,0,1,92,126.3,154,154,0,0,1,173.3,45a150.73,150.73,0,0,1,59.22-12h992m0-1h-992C148.08,32,79,101.09,79,185.52v692C79,961.91,148.08,1031,232.52,1031h992c84.44,0,153.52-69.09,153.52-153.52v-692C1378,101.09,1308.92,32,1224.48,32Z"/></g><path class="cls-3" d="M262.23,173.36h-9.57V150.82H240v22.54h-9.56V122H240v20.43h12.62V122h9.57Z"/><path class="cls-3" d="M285.18,174.06a14.11,14.11,0,0,1-11.58-5.22q-4.23-5.22-4.24-14.78t3.84-15.15a12.3,12.3,0,0,1,10.68-5.45A12.16,12.16,0,0,1,294,138.12q3.69,4.65,3.69,13.06v5h-18.8Q279,161.41,281,164a6.82,6.82,0,0,0,5.62,2.54,18.32,18.32,0,0,0,9.36-2.84v7.7A20.61,20.61,0,0,1,285.18,174.06Zm-1.37-33.4a3.82,3.82,0,0,0-3.3,2.13,14.29,14.29,0,0,0-1.51,6.59h9.49a14.22,14.22,0,0,0-1.3-6.5A3.75,3.75,0,0,0,283.81,140.66Z"/><path class="cls-3" d="M323.36,173.36V150a15.81,15.81,0,0,0-1-6.44,3.43,3.43,0,0,0-3.3-2.18,4.63,4.63,0,0,0-4.43,3q-1.41,3-1.41,10.14v18.81h-9.35V134.2h7.42l1.12,5h.6a9.67,9.67,0,0,1,9.14-5.76c3.57,0,6.23,1.22,8,3.65s2.66,6,2.66,10.69v25.56Z"/><path class="cls-3" d="M350.64,174.06q-5.4,0-8.54-5.34T339,153.85q0-9.57,3.06-15t8.44-5.41a8,8,0,0,1,4.62,1.32,12,12,0,0,1,3.61,4.44h.56q-.42-5.34-.42-7.49V118.66h9.35v54.7h-7l-1.59-5.1h-.31Q356.35,174.07,350.64,174.06Zm3-7.91a4,4,0,0,0,3.79-2.37q1.2-2.37,1.31-8.63v-1.23q0-6.82-1.22-9.6a4.12,4.12,0,0,0-4-2.78q-2.6,0-3.78,3.18a28.24,28.24,0,0,0-1.17,9.27c0,4,.39,7.09,1.19,9.12S351.89,166.15,353.67,166.15Z"/><path class="cls-3" d="M390.51,174.06a14.1,14.1,0,0,1-11.58-5.22q-4.24-5.22-4.24-14.78t3.83-15.15a12.33,12.33,0,0,1,10.69-5.45,12.16,12.16,0,0,1,10.09,4.66q3.69,4.65,3.69,13.06v5H384.18q.1,5.24,2.15,7.79A6.82,6.82,0,0,0,392,166.5a18.26,18.26,0,0,0,9.35-2.84v7.7A20.58,20.58,0,0,1,390.51,174.06Zm-1.37-33.4a3.8,3.8,0,0,0-3.3,2.13,14.27,14.27,0,0,0-1.52,6.59h9.5a14.22,14.22,0,0,0-1.3-6.5A3.75,3.75,0,0,0,389.14,140.66Z"/><path class="cls-3" d="M437.27,174.06q-5.41,0-8.54-5.34t-3.13-14.87q0-9.57,3.06-15t8.43-5.41a8.05,8.05,0,0,1,4.63,1.32,11.91,11.91,0,0,1,3.6,4.44h.56q-.42-5.34-.42-7.49V118.66h9.35v54.7h-7l-1.58-5.1H446Q443,174.07,437.27,174.06Zm3-7.91a4,4,0,0,0,3.8-2.37q1.2-2.37,1.3-8.63v-1.23q0-6.82-1.21-9.6a4.12,4.12,0,0,0-4-2.78q-2.61,0-3.78,3.18a27.93,27.93,0,0,0-1.18,9.27q0,6.07,1.2,9.12T440.29,166.15Z"/><path class="cls-3" d="M477.14,174.06a14.13,14.13,0,0,1-11.59-5.22q-4.23-5.22-4.23-14.78t3.83-15.15a12.31,12.31,0,0,1,10.69-5.45,12.19,12.19,0,0,1,10.09,4.66q3.69,4.65,3.69,13.06v5H470.81q.1,5.24,2.14,7.79a6.84,6.84,0,0,0,5.63,2.54,18.32,18.32,0,0,0,9.35-2.84v7.7A20.6,20.6,0,0,1,477.14,174.06Zm-1.37-33.4a3.82,3.82,0,0,0-3.31,2.13,14.29,14.29,0,0,0-1.51,6.59h9.49a14.22,14.22,0,0,0-1.3-6.5A3.74,3.74,0,0,0,475.77,140.66Z"/><path class="cls-3" d="M512.5,133.46a11.09,11.09,0,0,1,3.38.52l-1.09,9.07a7.92,7.92,0,0,0-2.57-.35,6,6,0,0,0-5.24,2.69c-1.21,1.8-1.82,4.4-1.82,7.82v20.15H495.8V134.2h7.7l1.06,6.11h.32a14.12,14.12,0,0,1,3.37-5.27A6.28,6.28,0,0,1,512.5,133.46Z"/><path class="cls-3" d="M538.41,173.36V122H548v43h13.25v8.37Z"/><path class="cls-3" d="M595.79,153.71q0,9.63-4.08,15a14.22,14.22,0,0,1-19.12,2.9,15.54,15.54,0,0,1-5.31-7.08,28.85,28.85,0,0,1-1.87-10.81q0-9.53,4.05-14.89a13.23,13.23,0,0,1,11.21-5.36,13.06,13.06,0,0,1,11,5.46Q595.78,144.39,595.79,153.71Zm-20.81,0q0,6.12,1.33,9.24t4.29,3.13q5.63,0,5.63-12.37,0-6.15-1.36-9.2a4.53,4.53,0,0,0-8.56,0Q575,147.56,575,153.71Z"/><path class="cls-3" d="M623.53,173.36l-1.16-5h-.49a10.16,10.16,0,0,1-3.71,4.2,10.06,10.06,0,0,1-5.51,1.53q-5.26,0-8-3.58T602,159.75V134.2h9.45v23.3a15.87,15.87,0,0,0,1,6.47,3.42,3.42,0,0,0,3.31,2.18,4.62,4.62,0,0,0,4.41-3c.93-2,1.39-5.4,1.39-10.16V134.2H631v39.16Z"/><path class="cls-3" d="M638.54,124a5,5,0,0,1,1.35-3.67,5.11,5.11,0,0,1,3.78-1.35,5,5,0,0,1,3.66,1.35A4.94,4.94,0,0,1,648.7,124a4.82,4.82,0,0,1-1.41,3.71,5.06,5.06,0,0,1-3.62,1.32,5.19,5.19,0,0,1-3.72-1.32A4.82,4.82,0,0,1,638.54,124Zm9.74,49.4h-9.35V134.2h9.35Z"/><path class="cls-3" d="M677.32,161.9q0,5.73-3.36,8.95t-9.9,3.21a18.44,18.44,0,0,1-9.6-2.28v-8.12a18.12,18.12,0,0,0,4.52,2.21,14.33,14.33,0,0,0,4.56.88,4.7,4.7,0,0,0,3.32-1.07,3.71,3.71,0,0,0,1.14-2.83,4.53,4.53,0,0,0-1.2-3.13,20.24,20.24,0,0,0-4.39-3.27,18,18,0,0,1-6.1-5.4,12.21,12.21,0,0,1-1.85-6.76,9.86,9.86,0,0,1,3.43-7.91q3.43-2.92,9.41-2.92a18.84,18.84,0,0,1,9.81,2.74l-3.06,6.71a14.27,14.27,0,0,0-6.61-2,3.54,3.54,0,0,0-2.69.94,3.26,3.26,0,0,0-.9,2.32A4.09,4.09,0,0,0,665,147a19.39,19.39,0,0,0,4.13,3.06,25.87,25.87,0,0,1,5.13,3.76,11.15,11.15,0,0,1,2.29,3.51A12.09,12.09,0,0,1,677.32,161.9Z"/><path class="cls-3" d="M697.67,174.06a14.1,14.1,0,0,1-11.58-5.22q-4.25-5.22-4.24-14.78t3.83-15.15a12.33,12.33,0,0,1,10.69-5.45,12.16,12.16,0,0,1,10.09,4.66q3.69,4.65,3.69,13.06v5H691.34q.1,5.24,2.15,7.79a6.82,6.82,0,0,0,5.62,2.54,18.26,18.26,0,0,0,9.35-2.84v7.7A20.58,20.58,0,0,1,697.67,174.06Zm-1.37-33.4a3.8,3.8,0,0,0-3.3,2.13,14.27,14.27,0,0,0-1.52,6.59H701a14.22,14.22,0,0,0-1.3-6.5A3.75,3.75,0,0,0,696.3,140.66Z"/><path class="cls-3" d="M751.53,141.61h-6.47v31.75h-9.35V141.61h-4.53v-4.67l4.53-2.82v-3q0-6.54,2.71-9.72t8.72-3.18a16,16,0,0,1,7.06,1.58L751.74,127a8.21,8.21,0,0,0-3.58-.85,2.54,2.54,0,0,0-2.36,1.27,8,8,0,0,0-.74,3.9v2.89h6.47Z"/><path class="cls-3" d="M772.34,133.46a11.09,11.09,0,0,1,3.38.52l-1.09,9.07a7.92,7.92,0,0,0-2.57-.35,6,6,0,0,0-5.24,2.69c-1.21,1.8-1.82,4.4-1.82,7.82v20.15h-9.36V134.2h7.7l1.06,6.11h.31a14.25,14.25,0,0,1,3.38-5.27A6.28,6.28,0,0,1,772.34,133.46Z"/><path class="cls-3" d="M799.1,173.36,797.23,168H797a13.29,13.29,0,0,1-4.29,4.74,10.86,10.86,0,0,1-5.59,1.3,8.11,8.11,0,0,1-6.8-3.23q-2.48-3.24-2.48-9,0-6.2,3.4-9.2t10.14-3.32l5.2-.21v-2.81q0-5.49-4.74-5.49c-2.35,0-5,.92-8.09,2.75l-3.23-6.47a23.29,23.29,0,0,1,12.69-3.69q6.22,0,9.47,3.57t3.25,10.1v26.3ZM791,166.75a4.7,4.7,0,0,0,4.09-2.3,11,11,0,0,0,1.53-6.14V155l-2.88.14A6.55,6.55,0,0,0,789,157a7.1,7.1,0,0,0-1.5,4.92Q787.53,166.75,791,166.75Z"/><path class="cls-3" d="M831.86,122H845q8,0,11.67,3.11t3.65,9.9a13.51,13.51,0,0,1-1.93,7.47,7.82,7.82,0,0,1-5.27,3.64v.35a10,10,0,0,1,6.29,4.08,14.43,14.43,0,0,1,1.93,7.94q0,7-3.74,11t-10.25,4H831.86Zm9,20.67h4.4c2,0,3.43-.54,4.25-1.61a7.91,7.91,0,0,0,1.23-4.82c0-2.13-.47-3.66-1.4-4.59a6.14,6.14,0,0,0-4.43-1.39h-4Zm0,8V165h4.82a5.36,5.36,0,0,0,4.45-1.83q1.46-1.82,1.46-5.66,0-6.88-6.05-6.89Z"/><path class="cls-3" d="M878.94,165.8a108.46,108.46,0,0,1-6.19,16.84h-7.14q2.29-9.34,3.55-17.65h9.29Z"/><path class="cls-3" d="M926.05,161.9q0,5.73-3.36,8.95t-9.9,3.21a18.38,18.38,0,0,1-9.59-2.28v-8.12a17.88,17.88,0,0,0,4.51,2.21,14.33,14.33,0,0,0,4.56.88,4.7,4.7,0,0,0,3.32-1.07,3.71,3.71,0,0,0,1.14-2.83,4.56,4.56,0,0,0-1.19-3.13,20.63,20.63,0,0,0-4.4-3.27,18,18,0,0,1-6.1-5.4,12.2,12.2,0,0,1-1.84-6.76,9.85,9.85,0,0,1,3.42-7.91q3.43-2.92,9.41-2.92a18.84,18.84,0,0,1,9.81,2.74l-3.06,6.71a14.27,14.27,0,0,0-6.61-2,3.54,3.54,0,0,0-2.69.94,3.26,3.26,0,0,0-.9,2.32,4.09,4.09,0,0,0,1.11,2.82,19.39,19.39,0,0,0,4.13,3.06,25.87,25.87,0,0,1,5.13,3.76,11.15,11.15,0,0,1,2.29,3.51A12.09,12.09,0,0,1,926.05,161.9Z"/><path class="cls-3" d="M951.46,173.36V150a16,16,0,0,0-1-6.44,3.44,3.44,0,0,0-3.31-2.18,4.63,4.63,0,0,0-4.43,3q-1.41,3-1.41,10.14v18.81H932V134.2h7.42l1.13,5h.59a9.67,9.67,0,0,1,9.14-5.76c3.57,0,6.23,1.22,8,3.65s2.66,6,2.66,10.69v25.56Z"/><path class="cls-3" d="M987.64,173.36,985.78,168h-.21a13.47,13.47,0,0,1-4.29,4.74,10.88,10.88,0,0,1-5.59,1.3,8.13,8.13,0,0,1-6.81-3.23q-2.48-3.24-2.47-9,0-6.2,3.39-9.2t10.14-3.32l5.2-.21v-2.81q0-5.49-4.74-5.49c-2.35,0-5,.92-8.09,2.75l-3.23-6.47a23.29,23.29,0,0,1,12.69-3.69q6.22,0,9.47,3.57t3.26,10.1v26.3Zm-8.12-6.61a4.72,4.72,0,0,0,4.1-2.3,11,11,0,0,0,1.52-6.14V155l-2.88.14a6.55,6.55,0,0,0-4.69,1.83,7.1,7.1,0,0,0-1.5,4.92Q976.07,166.75,979.52,166.75Z"/><path class="cls-3" d="M1019.53,174.06a8.77,8.77,0,0,1-4.49-1.14,10.76,10.76,0,0,1-3.63-4h-.5q.57,4.79.57,5.77v16h-9.43V134.2h7.25l1.61,5.09h.43q2.91-5.83,8.47-5.83,5.34,0,8.37,5.29t3,15q0,9.53-3.13,14.94T1019.53,174.06Zm-2.89-32.66a4.1,4.1,0,0,0-3.95,2.55q-1.22,2.55-1.28,8.46v1.23q0,6.47,1.23,9.42a4.2,4.2,0,0,0,4.07,2.95q4.93,0,4.93-12.44,0-6.12-1.22-9.14T1016.64,141.4Z"/><path class="cls-3" d="M1055.25,174.06a8.74,8.74,0,0,1-4.49-1.14,10.85,10.85,0,0,1-3.64-4h-.49q.57,4.79.57,5.77v16h-9.43V134.2H1045l1.61,5.09h.42q2.92-5.83,8.48-5.83,5.34,0,8.36,5.29t3,15q0,9.53-3.13,14.94T1055.25,174.06Zm-2.89-32.66a4.1,4.1,0,0,0-3.95,2.55q-1.22,2.55-1.29,8.46v1.23c0,4.31.42,7.45,1.24,9.42a4.2,4.2,0,0,0,4.07,2.95q4.92,0,4.93-12.44,0-6.12-1.22-9.14T1052.36,141.4Z"/><path class="cls-3" d="M1087.94,174.06a14.1,14.1,0,0,1-11.58-5.22q-4.24-5.22-4.24-14.78t3.83-15.15a12.33,12.33,0,0,1,10.69-5.45,12.16,12.16,0,0,1,10.09,4.66q3.69,4.65,3.69,13.06v5h-18.81q.11,5.24,2.15,7.79a6.82,6.82,0,0,0,5.62,2.54,18.26,18.26,0,0,0,9.35-2.84v7.7A20.58,20.58,0,0,1,1087.94,174.06Zm-1.37-33.4a3.8,3.8,0,0,0-3.3,2.13,14.27,14.27,0,0,0-1.52,6.59h9.5a14.22,14.22,0,0,0-1.3-6.5A3.76,3.76,0,0,0,1086.57,140.66Z"/><path class="cls-3" d="M1123.31,133.46a11,11,0,0,1,3.37.52l-1.09,9.07a7.86,7.86,0,0,0-2.56-.35,6,6,0,0,0-5.24,2.69c-1.22,1.8-1.83,4.4-1.83,7.82v20.15h-9.35V134.2h7.7l1,6.11h.32a14.25,14.25,0,0,1,3.37-5.27A6.29,6.29,0,0,1,1123.31,133.46Z"/><path class="cls-3" d="M1159,174.06q-5.42,0-8.55-5.34t-3.12-14.87q0-9.57,3-15t8.44-5.41a8,8,0,0,1,4.62,1.32,11.83,11.83,0,0,1,3.61,4.44h.56q-.42-5.34-.42-7.49V118.66h9.35v54.7h-7l-1.58-5.1h-.32Q1164.66,174.07,1159,174.06Zm3-7.91a4,4,0,0,0,3.8-2.37c.79-1.58,1.23-4.46,1.3-8.63v-1.23c0-4.55-.41-7.75-1.21-9.6a4.12,4.12,0,0,0-4-2.78q-2.61,0-3.78,3.18a27.93,27.93,0,0,0-1.18,9.27,26.55,26.55,0,0,0,1.19,9.12Q1159.31,166.15,1162,166.15Z"/><path class="cls-3" d="M1184.06,124a5,5,0,0,1,1.35-3.67,5.11,5.11,0,0,1,3.78-1.35,5,5,0,0,1,3.66,1.35,4.94,4.94,0,0,1,1.37,3.67,4.82,4.82,0,0,1-1.41,3.71,5.06,5.06,0,0,1-3.62,1.32,5.23,5.23,0,0,1-3.73-1.32A4.85,4.85,0,0,1,1184.06,124Zm9.74,49.4h-9.35V134.2h9.35Z"/><path class="cls-3" d="M1230,134.27v5.48l-4.68,1.05a12.57,12.57,0,0,1,1.37,6.19q0,6.22-3.37,9.74t-9.42,3.52a8.77,8.77,0,0,1-2.61-.29,12.43,12.43,0,0,0-1.26,1.34,2.8,2.8,0,0,0-.6,1.83q0,2.46,4.26,2.46h5.66q5,0,7.68,2.69t2.69,8.1q0,6.83-4.57,10.55T1212,190.66q-6.51,0-10-2.83a9.76,9.76,0,0,1-3.52-8.07,8.86,8.86,0,0,1,2-5.75,11.27,11.27,0,0,1,5.55-3.6,6.8,6.8,0,0,1-2.93-2.18,5.46,5.46,0,0,1-1.15-3.45,6.35,6.35,0,0,1,.35-2.16,7,7,0,0,1,1-1.83,19,19,0,0,1,2.65-2.55,10,10,0,0,1-3.83-4.53,16,16,0,0,1-1.41-6.79q0-6.43,3.38-9.95t9.67-3.51a16.08,16.08,0,0,1,2.74.26,15.67,15.67,0,0,1,2.35.55Zm-23,44.78a4.44,4.44,0,0,0,1.46,3.57,6.18,6.18,0,0,0,4.17,1.25q4.25,0,6.38-1.62a5.26,5.26,0,0,0,2.12-4.43,3.77,3.77,0,0,0-1.14-3.12c-.76-.61-2.18-.92-4.27-.92h-4.54a3.71,3.71,0,0,0-3,1.43A6,6,0,0,0,1207,179.05Zm2.88-32.06q0,6.93,3.91,6.93t3.79-7q0-7.17-3.79-7.17T1209.86,147Z"/><path class="cls-3" d="M191.26,238.67l2.36-4.68,7.73-13.4h9.92l-9.92,16.07,10.59,23.1h-9.81l-7.07-16.56-3.66,3.3v13.26h-9.35v-54.7h9.35v25.77l-.42,7.84Z"/><path class="cls-3" d="M245,240.11q0,9.63-4.08,15a14.22,14.22,0,0,1-19.12,2.9,15.54,15.54,0,0,1-5.31-7.08,28.89,28.89,0,0,1-1.86-10.81q0-9.54,4-14.89a13.25,13.25,0,0,1,11.22-5.36,13.08,13.08,0,0,1,11,5.46Q245,230.8,245,240.11Zm-20.81,0c0,4.07.45,7.16,1.34,9.24s2.32,3.13,4.28,3.13q5.63,0,5.63-12.37c0-4.11-.45-7.17-1.35-9.2a4.53,4.53,0,0,0-8.56,0C224.62,232.94,224.17,236,224.17,240.11Z"/><path class="cls-3" d="M271.07,259.76V236.42a15.78,15.78,0,0,0-1-6.44,3.43,3.43,0,0,0-3.31-2.18,4.64,4.64,0,0,0-4.43,3q-1.4,3-1.4,10.14v18.81h-9.35V220.59H259l1.13,5h.6a9.67,9.67,0,0,1,9.14-5.76q5.34,0,8,3.65t2.65,10.69v25.56Z"/><path class="cls-3" d="M309.07,248.3q0,5.73-3.36,8.95t-9.89,3.21a18.39,18.39,0,0,1-9.6-2.28v-8.12a18.47,18.47,0,0,0,4.52,2.21,14.27,14.27,0,0,0,4.55.88,4.7,4.7,0,0,0,3.32-1.07,3.69,3.69,0,0,0,1.15-2.83,4.53,4.53,0,0,0-1.2-3.13,20.51,20.51,0,0,0-4.39-3.27,18,18,0,0,1-6.1-5.4,12.22,12.22,0,0,1-1.85-6.77,9.85,9.85,0,0,1,3.43-7.91q3.42-2.91,9.4-2.91a18.84,18.84,0,0,1,9.81,2.74l-3.06,6.71a14.3,14.3,0,0,0-6.61-2,3.55,3.55,0,0,0-2.69.95,3.3,3.3,0,0,0-.89,2.32,4.12,4.12,0,0,0,1.1,2.82,19.52,19.52,0,0,0,4.14,3.06,26.5,26.5,0,0,1,5.13,3.76,11.29,11.29,0,0,1,2.28,3.51A12.05,12.05,0,0,1,309.07,248.3Z"/><path class="cls-3" d="M328.58,252.55a10.93,10.93,0,0,0,4.26-1v7.31c-1.53,1.05-3.81,1.58-6.86,1.58q-5.1,0-7.56-3T316,248.3V228h-3.79v-4.18l4.88-3.38,2.39-8.29h6v8.43h7.1V228h-7.1v20.6Q325.42,252.56,328.58,252.55Z"/><path class="cls-3" d="M357.52,259.76l-1.87-5.34h-.21a13.29,13.29,0,0,1-4.29,4.74,10.86,10.86,0,0,1-5.59,1.3,8.11,8.11,0,0,1-6.8-3.23q-2.47-3.24-2.48-9,0-6.19,3.4-9.2t10.14-3.32l5.2-.21v-2.81q0-5.49-4.74-5.49c-2.35,0-5,.92-8.09,2.75L339,223.48a23.29,23.29,0,0,1,12.69-3.69q6.21,0,9.47,3.56t3.25,10.11v26.3Zm-8.12-6.61a4.7,4.7,0,0,0,4.09-2.3,11,11,0,0,0,1.53-6.14v-3.3l-2.88.14a6.51,6.51,0,0,0-4.69,1.83,7.1,7.1,0,0,0-1.5,4.92Q346,253.15,349.4,253.15Z"/><path class="cls-3" d="M391.44,259.76V236.42a15.78,15.78,0,0,0-1-6.44,3.43,3.43,0,0,0-3.3-2.18,4.63,4.63,0,0,0-4.43,3q-1.41,3-1.41,10.14v18.81h-9.35V220.59h7.42l1.12,5h.6a9.67,9.67,0,0,1,9.14-5.76c3.57,0,6.23,1.22,8,3.65s2.66,6,2.66,10.69v25.56Z"/><path class="cls-3" d="M422,252.55a10.89,10.89,0,0,0,4.25-1v7.31c-1.52,1.05-3.81,1.58-6.85,1.58q-5.1,0-7.56-3t-2.46-9.12V228h-3.8v-4.18l4.89-3.38,2.39-8.29h6v8.43H426V228h-7.1v20.6Q418.87,252.56,422,252.55Z"/><path class="cls-3" d="M431.7,254.94a5.83,5.83,0,0,1,1.46-4.25,5.75,5.75,0,0,1,4.34-1.51,5.19,5.19,0,0,1,5.83,5.76,5.73,5.73,0,0,1-1.53,4.26,5.87,5.87,0,0,1-4.3,1.51,5.76,5.76,0,0,1-4.33-1.53A5.86,5.86,0,0,1,431.7,254.94Z"/><path class="cls-3" d="M501.31,259.76h-9.57V237.22H479.12v22.54h-9.56v-51.4h9.56v20.43h12.62V208.36h9.57Z"/><path class="cls-3" d="M531,259.76l-1.16-5h-.49a10.16,10.16,0,0,1-3.71,4.2,10,10,0,0,1-5.5,1.53q-5.28,0-8-3.58t-2.7-10.73V220.59h9.45V243.9a15.87,15.87,0,0,0,1,6.47,3.43,3.43,0,0,0,3.31,2.18,4.61,4.61,0,0,0,4.41-3c.93-2,1.39-5.4,1.39-10.16V220.59h9.46v39.17Z"/><path class="cls-3" d="M565.82,259.76V236.42a15.78,15.78,0,0,0-1-6.44,3.43,3.43,0,0,0-3.31-2.18,4.64,4.64,0,0,0-4.43,3q-1.39,3-1.4,10.14v18.81h-9.35V220.59h7.41l1.13,5h.6a9.67,9.67,0,0,1,9.14-5.76q5.34,0,8,3.65t2.65,10.69v25.56Z"/><path class="cls-3" d="M615,260.46a14.13,14.13,0,0,1-11.59-5.22q-4.23-5.22-4.23-14.78t3.83-15.15a13.24,13.24,0,0,1,20.78-.8q3.69,4.67,3.69,13.07v5H608.71c.07,3.49.78,6.09,2.14,7.78a6.82,6.82,0,0,0,5.63,2.55,18.29,18.29,0,0,0,9.35-2.84v7.69A20.51,20.51,0,0,1,615,260.46Zm-1.37-33.4a3.82,3.82,0,0,0-3.31,2.13,14.29,14.29,0,0,0-1.51,6.59h9.49a14.18,14.18,0,0,0-1.3-6.5A3.74,3.74,0,0,0,613.67,227.06Z"/><path class="cls-3" d="M650.4,219.86a11.09,11.09,0,0,1,3.38.52l-1.09,9.07a7.92,7.92,0,0,0-2.57-.35,6,6,0,0,0-5.24,2.69q-1.82,2.69-1.82,7.82v20.15h-9.35V220.59h7.69l1.06,6.12h.32a14.12,14.12,0,0,1,3.37-5.27A6.28,6.28,0,0,1,650.4,219.86Z"/><path class="cls-3" d="M685.1,259.76h-9.35v-54.7h9.35Z"/><path class="cls-3" d="M692.63,210.36a5,5,0,0,1,1.35-3.67,5.11,5.11,0,0,1,3.78-1.35,5,5,0,0,1,3.66,1.35,4.94,4.94,0,0,1,1.37,3.67,4.82,4.82,0,0,1-1.41,3.71,5.07,5.07,0,0,1-3.62,1.32,5.23,5.23,0,0,1-3.73-1.32A4.85,4.85,0,0,1,692.63,210.36Zm9.74,49.4H693V220.59h9.36Z"/><path class="cls-3" d="M720.68,260.46q-5.41,0-8.54-5.34T709,240.25q0-9.57,3.06-15t8.44-5.41a8.11,8.11,0,0,1,4.62,1.31,12,12,0,0,1,3.6,4.45h.56q-.42-5.34-.42-7.49V205.06h9.35v54.7h-7l-1.58-5.1h-.31Q726.37,260.46,720.68,260.46Zm3-7.91a4,4,0,0,0,3.79-2.37q1.2-2.37,1.3-8.63v-1.23q0-6.82-1.21-9.6a4.12,4.12,0,0,0-4-2.78q-2.6,0-3.78,3.18a28.2,28.2,0,0,0-1.18,9.27q0,6.08,1.2,9.12T723.71,252.55Z"/><path class="cls-3" d="M759.71,252.55a10.89,10.89,0,0,0,4.25-1v7.31q-2.28,1.58-6.86,1.58-5.08,0-7.56-3t-2.46-9.12V228h-3.79v-4.18l4.88-3.38,2.39-8.29h6v8.43h7.1V228h-7.1v20.6Q756.54,252.56,759.71,252.55Z"/><path class="cls-3" d="M804.63,228h-6.46v31.75h-9.36V228h-4.53v-4.67l4.53-2.82v-3q0-6.54,2.71-9.72c1.81-2.12,4.71-3.18,8.72-3.18a16.09,16.09,0,0,1,7.07,1.58l-2.46,7.14a8.29,8.29,0,0,0-3.59-.85,2.55,2.55,0,0,0-2.36,1.27,8,8,0,0,0-.73,3.9v2.88h6.46Z"/><path class="cls-3" d="M825.45,219.86a11,11,0,0,1,3.37.52l-1.09,9.07a7.86,7.86,0,0,0-2.56-.35,6,6,0,0,0-5.24,2.69q-1.83,2.69-1.83,7.82v20.15h-9.35V220.59h7.7l1,6.12h.32a14.12,14.12,0,0,1,3.37-5.27A6.29,6.29,0,0,1,825.45,219.86Z"/><path class="cls-3" d="M847.46,260.46a14.13,14.13,0,0,1-11.59-5.22q-4.23-5.22-4.24-14.78t3.84-15.15a13.23,13.23,0,0,1,20.77-.8q3.71,4.67,3.7,13.07v5H841.13c.07,3.49.78,6.09,2.14,7.78a6.82,6.82,0,0,0,5.63,2.55,18.32,18.32,0,0,0,9.35-2.84v7.69A20.51,20.51,0,0,1,847.46,260.46Zm-1.38-33.4a3.82,3.82,0,0,0-3.3,2.13,14.29,14.29,0,0,0-1.51,6.59h9.49a14.18,14.18,0,0,0-1.3-6.5A3.75,3.75,0,0,0,846.08,227.06Z"/><path class="cls-3" d="M905,259.76V236.42q0-8.62-4.26-8.62a4.57,4.57,0,0,0-4.43,3.08Q895,234,895,240.74v19h-9.43V236.42q0-8.62-4.32-8.62a4.56,4.56,0,0,0-4.39,3.06q-1.38,3.06-1.38,10.09v18.81h-9.35V220.59h7.42l1.13,5h.59a9.44,9.44,0,0,1,3.85-4.37,10.36,10.36,0,0,1,5.22-1.39c4.79,0,8,2.26,9.57,6.78h.35q3-6.78,9.6-6.78a9.2,9.2,0,0,1,7.89,3.65q2.68,3.66,2.69,10.69v25.56Z"/><path class="cls-3" d="M960.87,259.76V236.42q0-8.62-4.25-8.62a4.56,4.56,0,0,0-4.43,3.08c-.9,2.05-1.34,5.34-1.34,9.86v19h-9.42V236.42q0-8.62-4.33-8.62a4.57,4.57,0,0,0-4.39,3.06c-.92,2-1.37,5.4-1.37,10.09v18.81H922V220.59h7.41l1.13,5h.6a9.39,9.39,0,0,1,3.85-4.37,10.36,10.36,0,0,1,5.22-1.39q7.17,0,9.56,6.78h.35q3-6.78,9.6-6.78a9.19,9.19,0,0,1,7.89,3.65q2.68,3.66,2.69,10.69v25.56Z"/><path class="cls-3" d="M992.3,260.46a14.13,14.13,0,0,1-11.59-5.22q-4.23-5.22-4.23-14.78t3.83-15.15A12.33,12.33,0,0,1,991,219.86a12.19,12.19,0,0,1,10.09,4.65q3.69,4.67,3.69,13.07v5H986c.07,3.49.79,6.09,2.15,7.78a6.78,6.78,0,0,0,5.62,2.55,18.29,18.29,0,0,0,9.35-2.84v7.69A20.51,20.51,0,0,1,992.3,260.46Zm-1.37-33.4a3.82,3.82,0,0,0-3.31,2.13,14.42,14.42,0,0,0-1.51,6.59h9.49a14.06,14.06,0,0,0-1.3-6.5A3.74,3.74,0,0,0,990.93,227.06Z"/><path class="cls-3" d="M1028.44,210.36a5,5,0,0,1,1.35-3.67,5.14,5.14,0,0,1,3.78-1.35,5,5,0,0,1,3.66,1.35,4.94,4.94,0,0,1,1.37,3.67,4.82,4.82,0,0,1-1.41,3.71,5.06,5.06,0,0,1-3.62,1.32,5.21,5.21,0,0,1-3.72-1.32A4.82,4.82,0,0,1,1028.44,210.36Zm9.74,49.4h-9.35V220.59h9.35Z"/><path class="cls-3" d="M1085,248.3q0,5.73-3.36,8.95t-9.9,3.21a18.41,18.41,0,0,1-9.6-2.28v-8.12a18.47,18.47,0,0,0,4.52,2.21,14.27,14.27,0,0,0,4.55.88,4.71,4.71,0,0,0,3.33-1.07,3.71,3.71,0,0,0,1.14-2.83,4.53,4.53,0,0,0-1.2-3.13,20.24,20.24,0,0,0-4.39-3.27,18,18,0,0,1-6.1-5.4,12.22,12.22,0,0,1-1.85-6.77,9.88,9.88,0,0,1,3.43-7.91q3.43-2.91,9.41-2.91a18.81,18.81,0,0,1,9.8,2.74l-3,6.71a14.3,14.3,0,0,0-6.61-2,3.54,3.54,0,0,0-2.69.95,3.26,3.26,0,0,0-.9,2.32,4.09,4.09,0,0,0,1.11,2.82,19.39,19.39,0,0,0,4.13,3.06,25.87,25.87,0,0,1,5.13,3.76,11.15,11.15,0,0,1,2.29,3.51A12.05,12.05,0,0,1,1085,248.3Z"/><path class="cls-3" d="M1100.12,238.67l2.36-4.68,7.73-13.4h9.92l-9.92,16.07,10.58,23.1H1111l-7.07-16.56-3.66,3.3v13.26h-9.35v-54.7h9.35v25.77l-.42,7.84Z"/><path class="cls-3" d="M1153.84,240.11q0,9.63-4.08,15a14.22,14.22,0,0,1-19.12,2.9,15.54,15.54,0,0,1-5.31-7.08,28.89,28.89,0,0,1-1.86-10.81q0-9.54,4-14.89a13.24,13.24,0,0,1,11.21-5.36,13.08,13.08,0,0,1,11,5.46Q1153.85,230.8,1153.84,240.11Zm-20.81,0c0,4.07.44,7.16,1.34,9.24s2.32,3.13,4.28,3.13q5.63,0,5.63-12.37c0-4.11-.45-7.17-1.35-9.2a4.53,4.53,0,0,0-8.56,0C1133.47,232.94,1133,236,1133,240.11Z"/><path class="cls-3" d="M1174.87,260.46a14.13,14.13,0,0,1-11.59-5.22q-4.23-5.22-4.24-14.78t3.84-15.15a13.23,13.23,0,0,1,20.77-.8q3.7,4.67,3.7,13.07v5h-18.81c.07,3.49.78,6.09,2.14,7.78a6.82,6.82,0,0,0,5.63,2.55,18.32,18.32,0,0,0,9.35-2.84v7.69A20.51,20.51,0,0,1,1174.87,260.46Zm-1.38-33.4a3.82,3.82,0,0,0-3.3,2.13,14.29,14.29,0,0,0-1.51,6.59h9.49a14.18,14.18,0,0,0-1.3-6.5A3.75,3.75,0,0,0,1173.49,227.06Z"/><path class="cls-3" d="M1213,259.76V236.42a15.8,15.8,0,0,0-1-6.44,3.44,3.44,0,0,0-3.31-2.18,4.64,4.64,0,0,0-4.43,3q-1.41,3-1.41,10.14v18.81h-9.35V220.59H1201l1.13,5h.59a9.67,9.67,0,0,1,9.14-5.76c3.57,0,6.23,1.22,8,3.65s2.66,6,2.66,10.69v25.56Z"/><path class="cls-3" d="M1244.47,260.46a14.11,14.11,0,0,1-11.58-5.22q-4.23-5.22-4.24-14.78t3.84-15.15a13.23,13.23,0,0,1,20.77-.8q3.69,4.67,3.7,13.07v5h-18.81c.07,3.49.78,6.09,2.14,7.78a6.82,6.82,0,0,0,5.63,2.55,18.32,18.32,0,0,0,9.35-2.84v7.69A20.52,20.52,0,0,1,1244.47,260.46Zm-1.37-33.4a3.82,3.82,0,0,0-3.3,2.13,14.29,14.29,0,0,0-1.51,6.59h9.49a14.18,14.18,0,0,0-1.3-6.5A3.75,3.75,0,0,0,1243.1,227.06Z"/><path class="cls-3" d="M1274.29,252.2A108.83,108.83,0,0,1,1268.1,269H1261q2.3-9.35,3.55-17.65h9.28Z"/><path class="cls-3" d="M199.47,346.86q-5.41,0-8.54-5.34t-3.13-14.87q0-9.57,3.06-15t8.44-5.41a8,8,0,0,1,4.62,1.32,11.91,11.91,0,0,1,3.6,4.44h.57q-.43-5.34-.43-7.49V291.46H217v54.7h-7l-1.58-5.1h-.31Q205.16,346.87,199.47,346.86Zm3-7.91a4,4,0,0,0,3.79-2.37q1.2-2.37,1.3-8.63v-1.23q0-6.83-1.21-9.6a4.12,4.12,0,0,0-4-2.78q-2.59,0-3.78,3.18a28.2,28.2,0,0,0-1.18,9.27q0,6.07,1.2,9.12C199.43,337.94,200.71,339,202.5,339Z"/><path class="cls-3" d="M239.34,346.86a14.1,14.1,0,0,1-11.58-5.22q-4.24-5.22-4.24-14.78t3.83-15.15A12.33,12.33,0,0,1,238,306.26a12.17,12.17,0,0,1,10.09,4.66q3.69,4.65,3.69,13.06v5H233c.07,3.49.79,6.09,2.15,7.78a6.8,6.8,0,0,0,5.62,2.55,18.26,18.26,0,0,0,9.35-2.84v7.7A20.58,20.58,0,0,1,239.34,346.86ZM238,313.46a3.82,3.82,0,0,0-3.31,2.13,14.42,14.42,0,0,0-1.51,6.59h9.49a14.09,14.09,0,0,0-1.3-6.5A3.74,3.74,0,0,0,238,313.46Z"/><path class="cls-3" d="M271.61,339a10.93,10.93,0,0,0,4.26-1v7.31c-1.53,1.05-3.81,1.58-6.86,1.58q-5.1,0-7.56-3T259,334.7V314.41H255.2v-4.18l4.88-3.38,2.39-8.29h6V307h7.1v7.41h-7.1V335Q268.45,339,271.61,339Z"/><path class="cls-3" d="M308.35,325.07l2.36-4.68L318.44,307h9.92l-9.92,16.06L329,346.16h-9.81l-7.06-16.56-3.66,3.31v13.25h-9.35v-54.7h9.35v25.77l-.42,7.84Z"/><path class="cls-3" d="M352.26,346.16l-1.86-5.34h-.21a13.38,13.38,0,0,1-4.29,4.74,10.88,10.88,0,0,1-5.59,1.3,8.11,8.11,0,0,1-6.8-3.23c-1.66-2.16-2.48-5.16-2.48-9q0-6.19,3.39-9.2t10.14-3.32l5.21-.21v-2.81c0-3.66-1.59-5.49-4.75-5.49q-3.51,0-8.09,2.75l-3.23-6.47a23.29,23.29,0,0,1,12.69-3.69q6.23,0,9.48,3.56t3.25,10.11v26.3Zm-8.12-6.61a4.72,4.72,0,0,0,4.1-2.3,11,11,0,0,0,1.53-6.14v-3.3l-2.89.14a6.53,6.53,0,0,0-4.69,1.83,7.1,7.1,0,0,0-1.49,4.92C340.7,337.93,341.84,339.55,344.14,339.55Z"/><path class="cls-3" d="M386.19,346.16V322.82a15.78,15.78,0,0,0-1-6.44,3.43,3.43,0,0,0-3.31-2.18,4.64,4.64,0,0,0-4.43,3q-1.4,3-1.4,10.14v18.81h-9.35V307h7.41l1.13,5h.6a9.67,9.67,0,0,1,9.14-5.76q5.34,0,8,3.65t2.65,10.69v25.56Z"/><path class="cls-3" d="M431.26,346.86q-5.42,0-8.55-5.34t-3.12-14.87q0-9.57,3.05-15t8.44-5.41a8.1,8.1,0,0,1,4.63,1.32,11.91,11.91,0,0,1,3.6,4.44h.56q-.42-5.34-.42-7.49V291.46h9.35v54.7h-7l-1.58-5.1h-.32Q437,346.87,431.26,346.86Zm3-7.91a4,4,0,0,0,3.8-2.37q1.2-2.37,1.3-8.63v-1.23c0-4.55-.41-7.75-1.21-9.6a4.12,4.12,0,0,0-4-2.78q-2.61,0-3.78,3.18a27.93,27.93,0,0,0-1.18,9.27,26.55,26.55,0,0,0,1.19,9.12Q431.61,339,434.28,339Z"/><path class="cls-3" d="M477.84,346.16l-1.16-5h-.49a10.16,10.16,0,0,1-3.71,4.2,10,10,0,0,1-5.5,1.53q-5.28,0-8-3.58t-2.71-10.73V307h9.46v23.3a15.87,15.87,0,0,0,1,6.47,3.42,3.42,0,0,0,3.3,2.18,4.6,4.6,0,0,0,4.41-3c.93-2,1.39-5.4,1.39-10.16V307h9.46v39.16Z"/><path class="cls-3" d="M539.15,307.07v5.48l-4.67,1.05a12.68,12.68,0,0,1,1.37,6.19q0,6.22-3.38,9.74t-9.42,3.52a8.7,8.7,0,0,1-2.6-.29,11.59,11.59,0,0,0-1.27,1.34,2.85,2.85,0,0,0-.59,1.83c0,1.64,1.41,2.46,4.25,2.46h5.66q5,0,7.68,2.69t2.69,8.1q0,6.82-4.57,10.55t-13.15,3.73q-6.49,0-10-2.83a9.78,9.78,0,0,1-3.51-8.07,8.91,8.91,0,0,1,2-5.75,11.35,11.35,0,0,1,5.56-3.6,6.77,6.77,0,0,1-2.94-2.18,5.51,5.51,0,0,1-1.14-3.45,6.12,6.12,0,0,1,.35-2.16,7,7,0,0,1,1-1.83,19.21,19.21,0,0,1,2.66-2.55,10,10,0,0,1-3.84-4.53,16.17,16.17,0,0,1-1.4-6.79q0-6.44,3.37-10t9.67-3.51a19.28,19.28,0,0,1,5.1.81Zm-23,44.78a4.44,4.44,0,0,0,1.46,3.57,6.27,6.27,0,0,0,4.17,1.25c2.84,0,5-.54,6.38-1.62a5.24,5.24,0,0,0,2.13-4.43,3.77,3.77,0,0,0-1.14-3.12c-.77-.61-2.19-.92-4.28-.92h-4.53a3.71,3.71,0,0,0-3,1.42A6,6,0,0,0,516.12,351.85ZM519,319.79q0,6.93,3.9,6.93t3.8-7q0-7.17-3.8-7.17T519,319.79Z"/><path class="cls-3" d="M572.87,326.51q0,9.63-4.08,15a14.24,14.24,0,0,1-19.13,2.9,15.6,15.6,0,0,1-5.3-7.08,28.65,28.65,0,0,1-1.87-10.81q0-9.52,4-14.89a13.23,13.23,0,0,1,11.21-5.36,13.06,13.06,0,0,1,11,5.46Q572.87,317.2,572.87,326.51Zm-20.82,0c0,4.07.45,7.16,1.34,9.24s2.32,3.13,4.29,3.13q5.63,0,5.62-12.37,0-6.15-1.35-9.2a4.53,4.53,0,0,0-8.56,0Q552.06,320.35,552.05,326.51Z"/><path class="cls-3" d="M589.74,346.86q-5.41,0-8.54-5.34t-3.13-14.87q0-9.57,3.06-15t8.44-5.41a8,8,0,0,1,4.62,1.32,11.91,11.91,0,0,1,3.6,4.44h.57q-.43-5.34-.43-7.49V291.46h9.36v54.7h-7l-1.58-5.1h-.31Q595.43,346.87,589.74,346.86Zm3-7.91a4,4,0,0,0,3.79-2.37q1.2-2.37,1.3-8.63v-1.23q0-6.83-1.21-9.6a4.12,4.12,0,0,0-4-2.78q-2.6,0-3.78,3.18a28.2,28.2,0,0,0-1.18,9.27q0,6.07,1.2,9.12C589.7,337.94,591,339,592.77,339Z"/><path class="cls-3" d="M628.77,339a10.89,10.89,0,0,0,4.25-1v7.31q-2.28,1.58-6.86,1.58-5.08,0-7.55-3t-2.47-9.12V314.41h-3.79v-4.18l4.88-3.38,2.39-8.29h6V307h7.1v7.41h-7.1V335Q625.6,339,628.77,339Z"/><path class="cls-3" d="M665.64,346.16h-9.35v-54.7h9.35Z"/><path class="cls-3" d="M673.17,296.76a5,5,0,0,1,1.35-3.67,5.11,5.11,0,0,1,3.78-1.35,5,5,0,0,1,3.66,1.35,4.94,4.94,0,0,1,1.37,3.67,4.82,4.82,0,0,1-1.41,3.71,5.07,5.07,0,0,1-3.62,1.32,5.23,5.23,0,0,1-3.73-1.32A4.85,4.85,0,0,1,673.17,296.76Zm9.74,49.4h-9.36V307h9.36Z"/><path class="cls-3" d="M701.22,346.86q-5.41,0-8.54-5.34t-3.13-14.87q0-9.57,3.06-15t8.44-5.41a8,8,0,0,1,4.62,1.32,11.91,11.91,0,0,1,3.6,4.44h.57q-.44-5.34-.43-7.49V291.46h9.36v54.7h-7l-1.58-5.1h-.31Q706.91,346.87,701.22,346.86Zm3-7.91a4,4,0,0,0,3.79-2.37q1.2-2.37,1.3-8.63v-1.23q0-6.83-1.21-9.6a4.12,4.12,0,0,0-4-2.78q-2.6,0-3.78,3.18a28.2,28.2,0,0,0-1.18,9.27q0,6.07,1.2,9.12C701.18,337.94,702.46,339,704.25,339Z"/><path class="cls-3" d="M741.09,346.86a14.1,14.1,0,0,1-11.58-5.22q-4.25-5.22-4.24-14.78t3.83-15.15a12.33,12.33,0,0,1,10.69-5.45,12.17,12.17,0,0,1,10.09,4.66q3.69,4.65,3.69,13.06v5H734.76c.07,3.49.79,6.09,2.15,7.78a6.8,6.8,0,0,0,5.62,2.55,18.26,18.26,0,0,0,9.35-2.84v7.7A20.58,20.58,0,0,1,741.09,346.86Zm-1.37-33.4a3.82,3.82,0,0,0-3.31,2.13,14.42,14.42,0,0,0-1.51,6.59h9.49a14.09,14.09,0,0,0-1.3-6.5A3.74,3.74,0,0,0,739.72,313.46Z"/><path class="cls-3" d="M759.69,341.34a5.83,5.83,0,0,1,1.46-4.25,5.75,5.75,0,0,1,4.34-1.51,5.91,5.91,0,0,1,4.36,1.49,5.84,5.84,0,0,1,1.47,4.27,5.73,5.73,0,0,1-1.53,4.26,5.87,5.87,0,0,1-4.3,1.51,5.76,5.76,0,0,1-4.33-1.53A5.86,5.86,0,0,1,759.69,341.34Zm9.7-11.74h-7.7L760,294.76h11.21Z"/><path class="cls-3" d="M830.32,320q0,12.72-5.19,19.46t-14.92,6.73H797.62v-51.4h13.75q9,0,14,6.63T830.32,320Zm-9.81.28Q820.51,303,811,303h-3.84v34.77h3.1a8.3,8.3,0,0,0,7.73-4.37Q820.51,329,820.51,320.25Z"/><path class="cls-3" d="M858.41,346.16l-1.16-5h-.5a10,10,0,0,1-9.21,5.73q-5.26,0-8-3.58t-2.7-10.73V307h9.45v23.3a15.87,15.87,0,0,0,1,6.47,3.42,3.42,0,0,0,3.31,2.18,4.62,4.62,0,0,0,4.41-3c.92-2,1.39-5.4,1.39-10.16V307h9.45v39.16Z"/><path class="cls-3" d="M897.78,346.16,887.55,307h9.7l5,22.67q.32,1.59.75,4.62c.29,2,.48,3.49.55,4.38h.14a30.32,30.32,0,0,1,.3-3c.17-1.32.35-2.52.54-3.62s2-9.45,5.42-25h9.7l-10.27,39.16Z"/><path class="cls-3" d="M938.07,346.86a14.1,14.1,0,0,1-11.58-5.22q-4.25-5.22-4.24-14.78t3.83-15.15a12.33,12.33,0,0,1,10.69-5.45,12.16,12.16,0,0,1,10.09,4.66q3.69,4.65,3.69,13.06v5H931.74c.07,3.49.79,6.09,2.15,7.78a6.8,6.8,0,0,0,5.62,2.55,18.26,18.26,0,0,0,9.35-2.84v7.7A20.58,20.58,0,0,1,938.07,346.86Zm-1.37-33.4a3.82,3.82,0,0,0-3.31,2.13,14.42,14.42,0,0,0-1.51,6.59h9.5a14.2,14.2,0,0,0-1.31-6.5A3.74,3.74,0,0,0,936.7,313.46Z"/><path class="cls-3" d="M967,346.86q-5.41,0-8.54-5.34t-3.13-14.87q0-9.57,3.06-15c2-3.61,4.85-5.41,8.43-5.41a8.08,8.08,0,0,1,4.63,1.32,11.91,11.91,0,0,1,3.6,4.44h.56q-.42-5.34-.42-7.49V291.46h9.35v54.7h-7l-1.58-5.1h-.32Q972.74,346.87,967,346.86Zm3-7.91a4,4,0,0,0,3.8-2.37q1.2-2.37,1.3-8.63v-1.23q0-6.83-1.21-9.6a4.12,4.12,0,0,0-4-2.78q-2.61,0-3.78,3.18a27.93,27.93,0,0,0-1.18,9.27q0,6.07,1.2,9.12T970.06,339Z"/><path class="cls-3" d="M1020.55,346.86q-5.41,0-8.55-5.34t-3.12-14.87q0-9.57,3-15t8.44-5.41a8,8,0,0,1,4.62,1.32,11.92,11.92,0,0,1,3.61,4.44h.56q-.42-5.34-.42-7.49V291.46h9.35v54.7h-7l-1.58-5.1h-.32Q1026.24,346.87,1020.55,346.86Zm3-7.91a4,4,0,0,0,3.8-2.37c.79-1.58,1.23-4.46,1.3-8.63v-1.23c0-4.55-.41-7.75-1.21-9.6a4.13,4.13,0,0,0-4-2.78q-2.6,0-3.77,3.18a27.93,27.93,0,0,0-1.18,9.27,26.55,26.55,0,0,0,1.19,9.12Q1020.9,339,1023.57,339Z"/><path class="cls-3" d="M1062.66,306.26a11.09,11.09,0,0,1,3.38.52l-1.09,9.07a7.92,7.92,0,0,0-2.57-.35,6,6,0,0,0-5.24,2.69c-1.21,1.8-1.82,4.4-1.82,7.82v20.15H1046V307h7.7l1.06,6.11h.32a14.12,14.12,0,0,1,3.37-5.27A6.28,6.28,0,0,1,1062.66,306.26Z"/><path class="cls-3" d="M1084.67,346.86a14.1,14.1,0,0,1-11.58-5.22q-4.24-5.22-4.24-14.78t3.83-15.15a12.33,12.33,0,0,1,10.69-5.45,12.16,12.16,0,0,1,10.09,4.66q3.69,4.65,3.69,13.06v5h-18.81c.07,3.49.79,6.09,2.15,7.78a6.8,6.8,0,0,0,5.62,2.55,18.26,18.26,0,0,0,9.35-2.84v7.7A20.58,20.58,0,0,1,1084.67,346.86Zm-1.37-33.4a3.8,3.8,0,0,0-3.3,2.13,14.27,14.27,0,0,0-1.52,6.59h9.5a14.22,14.22,0,0,0-1.3-6.5A3.75,3.75,0,0,0,1083.3,313.46Z"/><path class="cls-3" d="M1122.85,346.16V322.82a15.78,15.78,0,0,0-1-6.44,3.43,3.43,0,0,0-3.3-2.18,4.63,4.63,0,0,0-4.43,3q-1.41,3-1.41,10.14v18.81h-9.35V307h7.42l1.12,5h.6a9.67,9.67,0,0,1,9.14-5.76q5.34,0,8,3.65t2.65,10.69v25.56Z"/><path class="cls-3" d="M1168,307.07v5.48l-4.68,1.05a12.57,12.57,0,0,1,1.37,6.19q0,6.22-3.37,9.74t-9.42,3.52a8.77,8.77,0,0,1-2.61-.29,12.43,12.43,0,0,0-1.26,1.34,2.8,2.8,0,0,0-.6,1.83q0,2.46,4.25,2.46h5.67q5,0,7.68,2.69t2.69,8.1q0,6.82-4.57,10.55T1150,363.46q-6.51,0-10-2.83a9.76,9.76,0,0,1-3.52-8.07,8.86,8.86,0,0,1,2-5.75,11.27,11.27,0,0,1,5.55-3.6,6.8,6.8,0,0,1-2.93-2.18,5.46,5.46,0,0,1-1.15-3.45,6.35,6.35,0,0,1,.35-2.16,7,7,0,0,1,1-1.83A19,19,0,0,1,1144,331a10,10,0,0,1-3.83-4.53,16,16,0,0,1-1.41-6.79q0-6.44,3.38-10t9.67-3.51a16.08,16.08,0,0,1,2.74.26,15.67,15.67,0,0,1,2.35.55Zm-23,44.78a4.44,4.44,0,0,0,1.46,3.57,6.23,6.23,0,0,0,4.16,1.25q4.26,0,6.39-1.62a5.26,5.26,0,0,0,2.12-4.43,3.77,3.77,0,0,0-1.14-3.12c-.76-.61-2.19-.92-4.27-.92h-4.54a3.73,3.73,0,0,0-3,1.42A6,6,0,0,0,1145,351.85Zm2.88-32.06q0,6.93,3.91,6.93t3.79-7q0-7.17-3.79-7.17T1147.88,319.79Z"/><path class="cls-3" d="M1187.19,346.86a14.13,14.13,0,0,1-11.59-5.22q-4.23-5.22-4.23-14.78t3.83-15.15a12.31,12.31,0,0,1,10.69-5.45,12.17,12.17,0,0,1,10.09,4.66q3.69,4.65,3.69,13.06v5h-18.81c.07,3.49.78,6.09,2.14,7.78a6.82,6.82,0,0,0,5.63,2.55,18.29,18.29,0,0,0,9.35-2.84v7.7A20.6,20.6,0,0,1,1187.19,346.86Zm-1.37-33.4a3.82,3.82,0,0,0-3.31,2.13,14.29,14.29,0,0,0-1.51,6.59h9.49a14.09,14.09,0,0,0-1.3-6.5A3.74,3.74,0,0,0,1185.82,313.46Z"/><path class="cls-3" d="M1225.37,346.16V322.82a15.78,15.78,0,0,0-1-6.44,3.43,3.43,0,0,0-3.31-2.18,4.64,4.64,0,0,0-4.43,3q-1.39,3-1.4,10.14v18.81h-9.35V307h7.41l1.13,5h.6a9.67,9.67,0,0,1,9.14-5.76c3.56,0,6.23,1.22,8,3.65s2.66,6,2.66,10.69v25.56Z"/><path class="cls-3" d="M1256.8,346.86a14.13,14.13,0,0,1-11.59-5.22q-4.23-5.22-4.23-14.78t3.83-15.15a12.31,12.31,0,0,1,10.69-5.45,12.19,12.19,0,0,1,10.09,4.66q3.69,4.65,3.69,13.06v5h-18.81c.07,3.49.78,6.09,2.14,7.78a6.82,6.82,0,0,0,5.63,2.55,18.29,18.29,0,0,0,9.35-2.84v7.7A20.6,20.6,0,0,1,1256.8,346.86Zm-1.37-33.4a3.82,3.82,0,0,0-3.31,2.13,14.29,14.29,0,0,0-1.51,6.59h9.49a14.22,14.22,0,0,0-1.3-6.5A3.74,3.74,0,0,0,1255.43,313.46Z"/><path class="cls-3" d="M209.88,400.81h-6.47v31.75h-9.35V400.81h-4.54v-4.67l4.54-2.81v-3q0-6.54,2.71-9.72c1.8-2.12,4.71-3.18,8.71-3.18a16.06,16.06,0,0,1,7.07,1.58l-2.46,7.14a8.26,8.26,0,0,0-3.59-.85,2.53,2.53,0,0,0-2.35,1.27,8,8,0,0,0-.74,3.9v2.89h6.47Z"/><path class="cls-3" d="M230.69,392.66a11.14,11.14,0,0,1,3.38.52L233,402.25a8,8,0,0,0-2.57-.35,6,6,0,0,0-5.24,2.69c-1.22,1.8-1.83,4.4-1.83,7.83v20.14H214V393.4h7.7l1.06,6.11h.31a14.12,14.12,0,0,1,3.38-5.27A6.26,6.26,0,0,1,230.69,392.66Z"/><path class="cls-3" d="M257.45,432.56l-1.87-5.34h-.21a13.29,13.29,0,0,1-4.29,4.74,10.86,10.86,0,0,1-5.59,1.3,8.11,8.11,0,0,1-6.8-3.23q-2.48-3.24-2.48-9,0-6.19,3.39-9.2t10.15-3.32l5.2-.21v-2.81q0-5.49-4.75-5.49c-2.34,0-5,.92-8.08,2.75l-3.24-6.47a23.29,23.29,0,0,1,12.69-3.69q6.23,0,9.48,3.57t3.25,10.1v26.3ZM249.32,426a4.71,4.71,0,0,0,4.1-2.3,11,11,0,0,0,1.53-6.14v-3.3l-2.88.14a6.57,6.57,0,0,0-4.7,1.83,7.15,7.15,0,0,0-1.49,4.92Q245.88,425.94,249.32,426Z"/><path class="cls-3" d="M298.86,411.47l2.35-4.68L309,393.4h9.91L309,409.46l10.58,23.1h-9.81L302.66,416,299,419.31v13.25h-9.35v-54.7H299v25.77l-.42,7.84Z"/><path class="cls-3" d="M332.93,432.56h-9.36v-54.7h9.36Z"/><path class="cls-3" d="M360,432.56l-1.86-5.34h-.21A13.47,13.47,0,0,1,353.6,432a10.88,10.88,0,0,1-5.59,1.3,8.1,8.1,0,0,1-6.8-3.23c-1.66-2.16-2.48-5.16-2.48-9q0-6.19,3.39-9.2t10.14-3.32l5.2-.21v-2.81q0-5.49-4.74-5.49-3.51,0-8.09,2.75l-3.23-6.47a23.29,23.29,0,0,1,12.69-3.69q6.23,0,9.47,3.57t3.26,10.1v26.3ZM351.84,426a4.72,4.72,0,0,0,4.1-2.3,11,11,0,0,0,1.52-6.14v-3.3l-2.88.14a6.55,6.55,0,0,0-4.69,1.83,7.1,7.1,0,0,0-1.5,4.92Q348.39,425.94,351.84,426Z"/><path class="cls-3" d="M395.4,421.1q0,5.73-3.36,8.95t-9.9,3.21a18.38,18.38,0,0,1-9.59-2.28v-8.12a18,18,0,0,0,4.51,2.21,14.33,14.33,0,0,0,4.56.88,4.7,4.7,0,0,0,3.32-1.07,3.71,3.71,0,0,0,1.14-2.83,4.56,4.56,0,0,0-1.19-3.13,20.63,20.63,0,0,0-4.4-3.27,18.12,18.12,0,0,1-6.1-5.4,12.2,12.2,0,0,1-1.84-6.76,9.85,9.85,0,0,1,3.42-7.91q3.43-2.93,9.41-2.92a18.84,18.84,0,0,1,9.81,2.74l-3.06,6.71a14.27,14.27,0,0,0-6.61-2,3.54,3.54,0,0,0-2.69.94,3.26,3.26,0,0,0-.9,2.32,4.09,4.09,0,0,0,1.11,2.82,19.67,19.67,0,0,0,4.13,3.06A25.87,25.87,0,0,1,392.3,413a11.15,11.15,0,0,1,2.29,3.51A12.09,12.09,0,0,1,395.4,421.1Z"/><path class="cls-3" d="M422.33,421.1q0,5.73-3.36,8.95t-9.9,3.21a18.38,18.38,0,0,1-9.59-2.28v-8.12a18,18,0,0,0,4.51,2.21,14.33,14.33,0,0,0,4.56.88,4.7,4.7,0,0,0,3.32-1.07,3.71,3.71,0,0,0,1.14-2.83,4.56,4.56,0,0,0-1.19-3.13,20.63,20.63,0,0,0-4.4-3.27,18.12,18.12,0,0,1-6.1-5.4,12.2,12.2,0,0,1-1.84-6.76,9.85,9.85,0,0,1,3.42-7.91q3.44-2.93,9.41-2.92a18.84,18.84,0,0,1,9.81,2.74l-3.06,6.71a14.27,14.27,0,0,0-6.61-2,3.54,3.54,0,0,0-2.69.94,3.26,3.26,0,0,0-.9,2.32,4.09,4.09,0,0,0,1.11,2.82,19.67,19.67,0,0,0,4.13,3.06,25.87,25.87,0,0,1,5.13,3.76,11.15,11.15,0,0,1,2.29,3.51A12.09,12.09,0,0,1,422.33,421.1Z"/><path class="cls-3" d="M442.68,433.26A14.11,14.11,0,0,1,431.1,428q-4.23-5.22-4.24-14.78t3.84-15.15a12.3,12.3,0,0,1,10.68-5.45,12.16,12.16,0,0,1,10.09,4.66q3.69,4.65,3.69,13.06v5h-18.8q.11,5.24,2.14,7.79a6.82,6.82,0,0,0,5.62,2.54,18.32,18.32,0,0,0,9.36-2.84v7.7A20.61,20.61,0,0,1,442.68,433.26Zm-1.37-33.4A3.82,3.82,0,0,0,438,402a14.29,14.29,0,0,0-1.51,6.59H446a14.22,14.22,0,0,0-1.3-6.5A3.75,3.75,0,0,0,441.31,399.86Z"/><path class="cls-3" d="M480.86,432.56V409.22a15.81,15.81,0,0,0-1-6.44,3.43,3.43,0,0,0-3.3-2.18,4.63,4.63,0,0,0-4.43,3q-1.41,3-1.41,10.14v18.81h-9.35V393.4h7.42l1.12,5h.6a9.67,9.67,0,0,1,9.14-5.76c3.57,0,6.23,1.22,8,3.65s2.66,6,2.66,10.69v25.56Z"/><path class="cls-3" d="M521.89,432.56,511.66,393.4h9.7l5,22.67q.32,1.59.75,4.62c.29,2,.48,3.49.55,4.38h.14a30.32,30.32,0,0,1,.3-3c.17-1.31.35-2.52.54-3.62s2-9.45,5.41-25h9.71l-10.27,39.16Z"/><path class="cls-3" d="M547.41,383.17a5,5,0,0,1,1.36-3.68,5.11,5.11,0,0,1,3.78-1.35,5,5,0,0,1,3.65,1.35,4.91,4.91,0,0,1,1.37,3.68,4.8,4.8,0,0,1-1.4,3.7,5.09,5.09,0,0,1-3.62,1.32,5.23,5.23,0,0,1-3.73-1.32A4.8,4.8,0,0,1,547.41,383.17Zm9.74,49.39H547.8V393.4h9.35Z"/><path class="cls-3" d="M574.52,432.56h-9.35v-54.7h9.35Z"/><path class="cls-3" d="M617.83,392.66c3.56,0,6.37,1.77,8.4,5.31s3.06,8.52,3.06,14.94-1,11.51-3.07,15-4.9,5.31-8.53,5.31a9.33,9.33,0,0,1-4.66-1.14,11.29,11.29,0,0,1-3.81-4h-.6L607,432.56h-6.89v-54.7h9.35v12.79c0,.54,0,1.1,0,1.69s-.17,2.64-.45,6.15h.49a12,12,0,0,1,3.73-4.53A8.22,8.22,0,0,1,617.83,392.66Zm-3.23,7.94a4,4,0,0,0-3.85,2.5c-.79,1.66-1.2,4.59-1.25,8.79v.95q0,6.81,1.21,9.59a4.09,4.09,0,0,0,4,2.78q5.05,0,5.06-12.44Q619.73,400.61,614.6,400.6Z"/><path class="cls-3" d="M645.22,432.56h-9.35v-54.7h9.35Z"/><path class="cls-3" d="M652.74,383.17a4.94,4.94,0,0,1,1.36-3.68,5.11,5.11,0,0,1,3.78-1.35,5,5,0,0,1,3.65,1.35,4.91,4.91,0,0,1,1.37,3.68,4.83,4.83,0,0,1-1.4,3.7,5.09,5.09,0,0,1-3.62,1.32,5.23,5.23,0,0,1-3.73-1.32A4.8,4.8,0,0,1,652.74,383.17Zm9.74,49.39h-9.35V393.4h9.35Z"/><path class="cls-3" d="M676.75,432.56,666.52,393.4h9.71l5,22.67q.31,1.59.75,4.62c.3,2,.48,3.49.55,4.38h.14a30.32,30.32,0,0,1,.3-3c.17-1.31.36-2.52.54-3.62s2-9.45,5.42-25h9.7l-10.26,39.16Z"/><path class="cls-3" d="M717,433.26A14.1,14.1,0,0,1,705.46,428q-4.25-5.22-4.24-14.78t3.83-15.15a12.33,12.33,0,0,1,10.69-5.45,12.16,12.16,0,0,1,10.09,4.66q3.69,4.65,3.69,13.06v5H710.71c.08,3.49.79,6.09,2.15,7.79a6.82,6.82,0,0,0,5.62,2.54,18.32,18.32,0,0,0,9.36-2.84v7.7A20.61,20.61,0,0,1,717,433.26Zm-1.37-33.4a3.81,3.81,0,0,0-3.3,2.13,14.29,14.29,0,0,0-1.51,6.59h9.49a14.22,14.22,0,0,0-1.3-6.5A3.75,3.75,0,0,0,715.67,399.86Z"/><path class="cls-3" d="M774.52,421.1q0,5.73-3.35,8.95t-9.9,3.21a18.39,18.39,0,0,1-9.6-2.28v-8.12a18.12,18.12,0,0,0,4.52,2.21,14.27,14.27,0,0,0,4.55.88,4.68,4.68,0,0,0,3.32-1.07,3.69,3.69,0,0,0,1.15-2.83,4.53,4.53,0,0,0-1.2-3.13,20.51,20.51,0,0,0-4.39-3.27,18,18,0,0,1-6.1-5.4,12.21,12.21,0,0,1-1.85-6.76,9.83,9.83,0,0,1,3.43-7.91q3.42-2.93,9.4-2.92a18.84,18.84,0,0,1,9.81,2.74l-3.06,6.71a14.24,14.24,0,0,0-6.61-2A3.51,3.51,0,0,0,762,401a3.26,3.26,0,0,0-.9,2.32,4.09,4.09,0,0,0,1.11,2.82,19.13,19.13,0,0,0,4.13,3.06,26.18,26.18,0,0,1,5.13,3.76,11.12,11.12,0,0,1,2.28,3.51A12.09,12.09,0,0,1,774.52,421.1Z"/><path class="cls-3" d="M799.62,432.56l-1.86-5.34h-.21a13.29,13.29,0,0,1-4.29,4.74,10.86,10.86,0,0,1-5.59,1.3,8.11,8.11,0,0,1-6.8-3.23q-2.48-3.24-2.48-9,0-6.19,3.39-9.2t10.15-3.32l5.2-.21v-2.81q0-5.49-4.75-5.49c-2.34,0-5,.92-8.08,2.75l-3.24-6.47a23.29,23.29,0,0,1,12.69-3.69q6.22,0,9.48,3.57t3.25,10.1v26.3Zm3-51.86a7.83,7.83,0,0,1-2.45,6,8.9,8.9,0,0,1-6.34,2.27,8.72,8.72,0,0,1-6.22-2.2,8.83,8.83,0,0,1,0-12,8.77,8.77,0,0,1,6.22-2.2,9,9,0,0,1,6.31,2.25A7.57,7.57,0,0,1,802.58,380.7ZM791.5,426a4.72,4.72,0,0,0,4.1-2.3,11,11,0,0,0,1.53-6.14v-3.3l-2.88.14a6.57,6.57,0,0,0-4.7,1.83,7.15,7.15,0,0,0-1.49,4.92Q788.06,425.94,791.5,426Zm5.8-45.18a3.35,3.35,0,0,0-1-2.56,3.79,3.79,0,0,0-5,0,3.36,3.36,0,0,0-1,2.56,3.73,3.73,0,0,0,.88,2.61,3.45,3.45,0,0,0,2.64.95,3.51,3.51,0,0,0,2.51-.95A3.42,3.42,0,0,0,797.3,380.77Z"/><path class="cls-3" d="M870.71,432.56V409.22q0-8.62-4.25-8.62a4.56,4.56,0,0,0-4.43,3.08q-1.34,3.07-1.34,9.86v19h-9.42V409.22q0-8.62-4.32-8.62a4.58,4.58,0,0,0-4.4,3.06q-1.37,3.06-1.37,10.09v18.81h-9.35V393.4h7.42l1.12,5h.6a9.44,9.44,0,0,1,3.85-4.37,10.36,10.36,0,0,1,5.22-1.39q7.17,0,9.56,6.78H860c2-4.52,5.19-6.78,9.6-6.78a9.19,9.19,0,0,1,7.89,3.65q2.7,3.66,2.69,10.69v25.56Z"/><path class="cls-3" d="M887.38,383.17a5,5,0,0,1,1.35-3.68,5.11,5.11,0,0,1,3.78-1.35,5,5,0,0,1,3.65,1.35,4.92,4.92,0,0,1,1.38,3.68,4.8,4.8,0,0,1-1.41,3.7,5.09,5.09,0,0,1-3.62,1.32,5.23,5.23,0,0,1-3.73-1.32A4.8,4.8,0,0,1,887.38,383.17Zm9.73,49.39h-9.35V393.4h9.35Z"/><path class="cls-3" d="M926.15,421.1q0,5.73-3.36,8.95t-9.89,3.21a18.39,18.39,0,0,1-9.6-2.28v-8.12a18.12,18.12,0,0,0,4.52,2.21,14.27,14.27,0,0,0,4.55.88,4.7,4.7,0,0,0,3.32-1.07,3.69,3.69,0,0,0,1.15-2.83,4.53,4.53,0,0,0-1.2-3.13,20.51,20.51,0,0,0-4.39-3.27,18,18,0,0,1-6.1-5.4,12.21,12.21,0,0,1-1.85-6.76,9.83,9.83,0,0,1,3.43-7.91q3.42-2.93,9.4-2.92a18.84,18.84,0,0,1,9.81,2.74l-3.06,6.71a14.24,14.24,0,0,0-6.61-2,3.55,3.55,0,0,0-2.69.94,3.3,3.3,0,0,0-.89,2.32,4.12,4.12,0,0,0,1.1,2.82,19.52,19.52,0,0,0,4.14,3.06,26.5,26.5,0,0,1,5.13,3.76,11.29,11.29,0,0,1,2.28,3.51A12.09,12.09,0,0,1,926.15,421.1Z"/><path class="cls-3" d="M953.22,432.56l-1.16-5h-.49a10,10,0,0,1-9.21,5.73q-5.28,0-8-3.58T931.67,419V393.4h9.46v23.3a15.87,15.87,0,0,0,1,6.47,3.42,3.42,0,0,0,3.3,2.18,4.62,4.62,0,0,0,4.42-3c.92-2,1.38-5.4,1.38-10.16V393.4h9.46v39.16Z"/><path class="cls-3" d="M988.06,432.56V409.22a15.81,15.81,0,0,0-1-6.44,3.43,3.43,0,0,0-3.3-2.18,4.63,4.63,0,0,0-4.43,3q-1.41,3-1.41,10.14v18.81h-9.35V393.4H976l1.12,5h.6a9.67,9.67,0,0,1,9.14-5.76q5.34,0,8,3.65T997.48,407v25.56Z"/><path class="cls-3" d="M1015.34,433.26q-5.42,0-8.54-5.34t-3.13-14.87q0-9.57,3.06-15t8.44-5.41a8,8,0,0,1,4.62,1.32,11.91,11.91,0,0,1,3.6,4.44h.57q-.42-5.34-.42-7.49V377.86h9.35v54.7h-7l-1.59-5.1H1024Q1021,433.27,1015.34,433.26Zm3-7.91a4,4,0,0,0,3.79-2.37q1.2-2.37,1.3-8.63v-1.23q0-6.83-1.21-9.6a4.12,4.12,0,0,0-4-2.78q-2.6,0-3.78,3.18a28.2,28.2,0,0,0-1.18,9.27q0,6.07,1.2,9.12T1018.37,425.35Z"/><path class="cls-3" d="M1055.21,433.26a14.1,14.1,0,0,1-11.58-5.22q-4.25-5.22-4.24-14.78t3.83-15.15a12.33,12.33,0,0,1,10.69-5.45,12.16,12.16,0,0,1,10.09,4.66q3.69,4.65,3.69,13.06v5h-18.81q.11,5.24,2.15,7.79a6.82,6.82,0,0,0,5.62,2.54,18.26,18.26,0,0,0,9.35-2.84v7.7A20.58,20.58,0,0,1,1055.21,433.26Zm-1.37-33.4a3.8,3.8,0,0,0-3.3,2.13,14.27,14.27,0,0,0-1.52,6.59h9.5a14.07,14.07,0,0,0-1.31-6.5A3.74,3.74,0,0,0,1053.84,399.86Z"/><path class="cls-3" d="M1083.23,432.56h-9.35v-54.7h9.35Z"/><path class="cls-3" d="M1090.75,383.17a5,5,0,0,1,1.36-3.68,5.11,5.11,0,0,1,3.78-1.35,5,5,0,0,1,3.65,1.35,4.91,4.91,0,0,1,1.37,3.68,4.8,4.8,0,0,1-1.4,3.7,5.09,5.09,0,0,1-3.62,1.32,5.23,5.23,0,0,1-3.73-1.32A4.8,4.8,0,0,1,1090.75,383.17Zm9.74,49.39h-9.35V393.4h9.35Z"/><path class="cls-3" d="M1136.7,393.47V399L1132,400a12.68,12.68,0,0,1,1.37,6.19q0,6.22-3.38,9.74t-9.42,3.52a9.12,9.12,0,0,1-2.6-.28,10.73,10.73,0,0,0-1.27,1.33,2.85,2.85,0,0,0-.59,1.83c0,1.64,1.41,2.46,4.25,2.46h5.66q5,0,7.68,2.69c1.8,1.79,2.69,4.49,2.69,8.1q0,6.82-4.57,10.55t-13.15,3.73q-6.5,0-10-2.83a9.78,9.78,0,0,1-3.51-8.07,8.91,8.91,0,0,1,2-5.75,11.35,11.35,0,0,1,5.56-3.6,6.77,6.77,0,0,1-2.94-2.18,5.51,5.51,0,0,1-1.14-3.45,6.35,6.35,0,0,1,.35-2.16,7,7,0,0,1,1-1.83,19.83,19.83,0,0,1,2.66-2.55,10,10,0,0,1-3.84-4.53,16.17,16.17,0,0,1-1.4-6.79q0-6.44,3.37-9.95t9.67-3.51a17.07,17.07,0,0,1,2.74.26,15.86,15.86,0,0,1,2.36.55Zm-23,44.78a4.44,4.44,0,0,0,1.45,3.57,6.22,6.22,0,0,0,4.17,1.25c2.84,0,5-.54,6.38-1.62a5.24,5.24,0,0,0,2.13-4.43,3.77,3.77,0,0,0-1.14-3.12c-.77-.61-2.19-.92-4.28-.92h-4.53a3.7,3.7,0,0,0-3,1.43A6,6,0,0,0,1113.68,438.25Zm2.88-32.06q0,6.93,3.9,6.93t3.8-7q0-7.17-3.8-7.17T1116.56,406.19Z"/><path class="cls-3" d="M1178.71,432.56V409.22q0-8.62-4.32-8.62-3.24,0-4.53,3.4a28.3,28.3,0,0,0-1.31,9.75v18.81h-9.35v-54.7h9.35V390q0,2.36-.42,8.4h.49q2.82-5.76,8.65-5.76,5.38,0,8.12,3.64t2.75,10.7v25.56Z"/><path class="cls-3" d="M1202,432.56l-10.23-39.16h9.71l5,22.67q.32,1.59.75,4.62c.3,2,.48,3.49.55,4.38h.14a30.32,30.32,0,0,1,.3-3c.17-1.31.36-2.52.54-3.62s2-9.45,5.42-25h9.7l-10.27,39.16Z"/><path class="cls-3" d="M1227.48,383.17a5,5,0,0,1,1.35-3.68,5.11,5.11,0,0,1,3.78-1.35,5,5,0,0,1,3.66,1.35,5,5,0,0,1,1.37,3.68,4.8,4.8,0,0,1-1.41,3.7,5.07,5.07,0,0,1-3.62,1.32,5.23,5.23,0,0,1-3.73-1.32A4.83,4.83,0,0,1,1227.48,383.17Zm9.73,49.39h-9.35V393.4h9.35Z"/><path class="cls-3" d="M1266.25,421.1q0,5.73-3.35,8.95t-9.9,3.21a18.39,18.39,0,0,1-9.6-2.28v-8.12a18.12,18.12,0,0,0,4.52,2.21,14.27,14.27,0,0,0,4.55.88,4.68,4.68,0,0,0,3.32-1.07,3.69,3.69,0,0,0,1.15-2.83,4.53,4.53,0,0,0-1.2-3.13,20.24,20.24,0,0,0-4.39-3.27,18,18,0,0,1-6.1-5.4,12.21,12.21,0,0,1-1.85-6.76,9.83,9.83,0,0,1,3.43-7.91q3.43-2.93,9.4-2.92a18.84,18.84,0,0,1,9.81,2.74l-3.06,6.71a14.24,14.24,0,0,0-6.6-2,3.52,3.52,0,0,0-2.69.94,3.26,3.26,0,0,0-.9,2.32,4.09,4.09,0,0,0,1.11,2.82,19.13,19.13,0,0,0,4.13,3.06,26.18,26.18,0,0,1,5.13,3.76,11.32,11.32,0,0,1,2.29,3.51A12.29,12.29,0,0,1,1266.25,421.1Z"/><path class="cls-3" d="M263.88,519.66q-5.42,0-8.54-5.34t-3.13-14.87q0-9.57,3.06-15c2-3.61,4.85-5.41,8.43-5.41a8.08,8.08,0,0,1,4.63,1.32,11.91,11.91,0,0,1,3.6,4.44h.56q-.42-5.34-.42-7.49V464.26h9.35V519h-7l-1.58-5.1h-.32Q269.58,519.67,263.88,519.66Zm3-7.91a4,4,0,0,0,3.8-2.37q1.2-2.37,1.3-8.63v-1.23q0-6.82-1.21-9.6a4.12,4.12,0,0,0-4-2.78q-2.61,0-3.78,3.18a27.93,27.93,0,0,0-1.18,9.27q0,6.07,1.2,9.12T266.9,511.75Z"/><path class="cls-3" d="M303.75,519.66a14.13,14.13,0,0,1-11.59-5.22q-4.23-5.22-4.23-14.78t3.83-15.15a13.24,13.24,0,0,1,20.78-.8q3.69,4.67,3.69,13.07v5H297.42c.07,3.49.78,6.09,2.14,7.78a6.82,6.82,0,0,0,5.63,2.55,18.32,18.32,0,0,0,9.35-2.84V517A20.6,20.6,0,0,1,303.75,519.66Zm-1.37-33.4a3.82,3.82,0,0,0-3.31,2.13,14.29,14.29,0,0,0-1.51,6.59h9.49a14.22,14.22,0,0,0-1.3-6.5A3.75,3.75,0,0,0,302.38,486.26Z"/><path class="cls-3" d="M361.23,507.5q0,5.73-3.36,9t-9.9,3.21a18.38,18.38,0,0,1-9.59-2.28v-8.12a18.22,18.22,0,0,0,4.51,2.21,14.33,14.33,0,0,0,4.56.88,4.7,4.7,0,0,0,3.32-1.07,3.71,3.71,0,0,0,1.14-2.83,4.53,4.53,0,0,0-1.2-3.13,20.24,20.24,0,0,0-4.39-3.27,18,18,0,0,1-6.1-5.4,12.21,12.21,0,0,1-1.84-6.77A9.88,9.88,0,0,1,341.8,482q3.43-2.91,9.41-2.91A18.84,18.84,0,0,1,361,481.8L358,488.51a14.3,14.3,0,0,0-6.61-2,3.54,3.54,0,0,0-2.69.95,3.26,3.26,0,0,0-.9,2.32,4.09,4.09,0,0,0,1.11,2.82,19.39,19.39,0,0,0,4.13,3.06,25.87,25.87,0,0,1,5.13,3.76,11.15,11.15,0,0,1,2.29,3.51A12.09,12.09,0,0,1,361.23,507.5Z"/><path class="cls-3" d="M386.33,519l-1.87-5.34h-.21a13.29,13.29,0,0,1-4.29,4.74,10.84,10.84,0,0,1-5.58,1.3,8.12,8.12,0,0,1-6.81-3.23q-2.47-3.24-2.48-9,0-6.19,3.4-9.2t10.14-3.32l5.2-.21v-2.81q0-5.49-4.74-5.49c-2.35,0-5,.92-8.09,2.75l-3.23-6.47A23.29,23.29,0,0,1,380.46,479q6.23,0,9.47,3.56t3.25,10.11V519Zm2.95-51.86a7.82,7.82,0,0,1-2.44,6,9,9,0,0,1-6.35,2.27,8.72,8.72,0,0,1-6.22-2.2,8.83,8.83,0,0,1,0-12,8.72,8.72,0,0,1,6.22-2.2,9,9,0,0,1,6.31,2.25A7.54,7.54,0,0,1,389.28,467.1Zm-11.07,45.25a4.7,4.7,0,0,0,4.09-2.3,11,11,0,0,0,1.53-6.14v-3.3l-2.88.14a6.51,6.51,0,0,0-4.69,1.83,7.1,7.1,0,0,0-1.5,4.92Q374.76,512.35,378.21,512.35Zm5.8-45.18a3.39,3.39,0,0,0-1-2.56,3.8,3.8,0,0,0-5,0,3.35,3.35,0,0,0-1,2.56,3.68,3.68,0,0,0,.88,2.61,3.41,3.41,0,0,0,2.63.94,3.53,3.53,0,0,0,2.52-.94A3.46,3.46,0,0,0,384,467.17Z"/><path class="cls-3" d="M438,519V495.62q0-8.62-4.32-8.62-3.24,0-4.54,3.39a28.69,28.69,0,0,0-1.3,9.76V519h-9.35v-54.7h9.35v12.16q0,2.35-.42,8.4H428q2.82-5.76,8.65-5.76c3.59,0,6.29,1.21,8.12,3.64s2.74,6,2.74,10.7V519Z"/><path class="cls-3" d="M461.28,519l-10.23-39.17h9.7l5,22.68q.31,1.59.75,4.62c.29,2,.48,3.49.55,4.38h.14a30.32,30.32,0,0,1,.3-3c.17-1.32.35-2.52.54-3.62s2-9.45,5.42-25h9.7L472.88,519Z"/><path class="cls-3" d="M506.32,519l-1.87-5.34h-.21a13.29,13.29,0,0,1-4.29,4.74,10.86,10.86,0,0,1-5.59,1.3,8.11,8.11,0,0,1-6.8-3.23q-2.47-3.24-2.48-9,0-6.19,3.39-9.2t10.15-3.32l5.2-.21v-2.81q0-5.49-4.75-5.49-3.51,0-8.08,2.75l-3.24-6.47a23.32,23.32,0,0,1,12.7-3.69q6.21,0,9.47,3.56t3.25,10.11V519Zm-8.12-6.61a4.7,4.7,0,0,0,4.09-2.3,11,11,0,0,0,1.53-6.14v-3.3l-2.88.14a6.53,6.53,0,0,0-4.7,1.83,7.15,7.15,0,0,0-1.49,4.92Q494.75,512.35,498.2,512.35Z"/><path class="cls-3" d="M531,519.66q-5.41,0-8.54-5.34t-3.13-14.87q0-9.57,3.06-15t8.44-5.41a8,8,0,0,1,4.62,1.32,11.91,11.91,0,0,1,3.6,4.44h.56q-.42-5.34-.42-7.49V464.26h9.35V519h-7l-1.58-5.1h-.32Q536.73,519.67,531,519.66Zm3-7.91a4,4,0,0,0,3.8-2.37q1.2-2.37,1.3-8.63v-1.23q0-6.82-1.21-9.6a4.12,4.12,0,0,0-4-2.78c-1.74,0-3,1.06-3.78,3.18a27.93,27.93,0,0,0-1.18,9.27q0,6.07,1.2,9.12T534.05,511.75Z"/><path class="cls-3" d="M593.75,519V495.62q0-8.62-4.32-8.62-3.24,0-4.54,3.39a28.44,28.44,0,0,0-1.3,9.76V519h-9.35v-54.7h9.35v12.16q0,2.35-.42,8.4h.49q2.82-5.76,8.65-5.76,5.37,0,8.12,3.64t2.74,10.7V519Z"/><path class="cls-3" d="M631.89,519l-1.16-5h-.49a10,10,0,0,1-9.21,5.73q-5.26,0-8-3.58t-2.71-10.73V479.79h9.46V503.1a15.87,15.87,0,0,0,1,6.47,3.42,3.42,0,0,0,3.3,2.18,4.62,4.62,0,0,0,4.42-3c.92-2,1.39-5.4,1.39-10.16V479.79h9.45V519Z"/><path class="cls-3" d="M666.73,519V495.62a15.78,15.78,0,0,0-1-6.44,3.42,3.42,0,0,0-3.3-2.18,4.63,4.63,0,0,0-4.43,3q-1.41,3-1.41,10.14V519h-9.35V479.79h7.42l1.13,5h.59a9.67,9.67,0,0,1,9.14-5.76c3.57,0,6.23,1.22,8,3.65s2.66,6,2.66,10.69V519Z"/><path class="cls-3" d="M710.86,519H701.5v-54.7h9.36Z"/><path class="cls-3" d="M718.38,469.56a5,5,0,0,1,1.35-3.67,5.11,5.11,0,0,1,3.78-1.35,5,5,0,0,1,3.66,1.35,4.94,4.94,0,0,1,1.37,3.67,4.82,4.82,0,0,1-1.41,3.71,5.06,5.06,0,0,1-3.62,1.32,5.19,5.19,0,0,1-3.72-1.32A4.82,4.82,0,0,1,718.38,469.56Zm9.74,49.4h-9.35V479.79h9.35Z"/><path class="cls-3" d="M764.33,479.87v5.48l-4.68,1a12.55,12.55,0,0,1,1.37,6.19q0,6.23-3.37,9.74t-9.42,3.52a8.77,8.77,0,0,1-2.61-.29,12.43,12.43,0,0,0-1.26,1.34,2.8,2.8,0,0,0-.6,1.83q0,2.46,4.26,2.46h5.66q5,0,7.68,2.69t2.69,8.1q0,6.82-4.57,10.55t-13.15,3.73q-6.51,0-10-2.83a9.76,9.76,0,0,1-3.52-8.07,8.86,8.86,0,0,1,2-5.75,11.27,11.27,0,0,1,5.55-3.6,6.8,6.8,0,0,1-2.93-2.18,5.46,5.46,0,0,1-1.15-3.45,6.35,6.35,0,0,1,.35-2.16,6.85,6.85,0,0,1,1-1.83,19.58,19.58,0,0,1,2.65-2.55,10,10,0,0,1-3.83-4.53,16,16,0,0,1-1.41-6.79q0-6.43,3.38-9.95t9.67-3.51a16.08,16.08,0,0,1,2.74.26,15.67,15.67,0,0,1,2.35.55Zm-23,44.78a4.44,4.44,0,0,0,1.46,3.57,6.24,6.24,0,0,0,4.17,1.25q4.25,0,6.38-1.62a5.26,5.26,0,0,0,2.12-4.43,3.81,3.81,0,0,0-1.14-3.13c-.76-.6-2.18-.91-4.27-.91h-4.54a3.74,3.74,0,0,0-3,1.42A6,6,0,0,0,741.3,524.65Zm2.88-32.06q0,6.93,3.91,6.93t3.79-7q0-7.17-3.79-7.17T744.18,492.59Z"/><path class="cls-3" d="M783.49,519.66a14.13,14.13,0,0,1-11.59-5.22q-4.23-5.22-4.23-14.78t3.83-15.15a13.24,13.24,0,0,1,20.78-.8q3.69,4.67,3.69,13.07v5H777.16c.07,3.49.79,6.09,2.14,7.78a6.82,6.82,0,0,0,5.63,2.55,18.29,18.29,0,0,0,9.35-2.84V517A20.6,20.6,0,0,1,783.49,519.66Zm-1.37-33.4a3.82,3.82,0,0,0-3.31,2.13A14.42,14.42,0,0,0,777.3,495h9.49a14.09,14.09,0,0,0-1.3-6.5A3.74,3.74,0,0,0,782.12,486.26Z"/><path class="cls-3" d="M839.46,519V495.62q0-8.62-4.33-8.62c-2.15,0-3.67,1.13-4.53,3.39a28.44,28.44,0,0,0-1.3,9.76V519H820v-54.7h9.35v12.16q0,2.35-.42,8.4h.49q2.8-5.76,8.65-5.76,5.37,0,8.12,3.64t2.74,10.7V519Z"/><path class="cls-3" d="M875.63,519l-1.86-5.34h-.21a13.29,13.29,0,0,1-4.29,4.74,10.88,10.88,0,0,1-5.59,1.3,8.11,8.11,0,0,1-6.8-3.23c-1.66-2.16-2.48-5.16-2.48-9q0-6.19,3.39-9.2t10.14-3.32l5.21-.21v-2.81c0-3.66-1.59-5.49-4.75-5.49q-3.51,0-8.09,2.75l-3.23-6.47A23.29,23.29,0,0,1,869.76,479q6.22,0,9.48,3.56t3.25,10.11V519Zm-8.12-6.61a4.72,4.72,0,0,0,4.1-2.3,11,11,0,0,0,1.53-6.14v-3.3l-2.89.14a6.53,6.53,0,0,0-4.69,1.83,7.1,7.1,0,0,0-1.49,4.92C864.07,510.73,865.21,512.35,867.51,512.35Z"/><path class="cls-3" d="M906.75,479.06a11.08,11.08,0,0,1,3.37.52L909,488.65a7.88,7.88,0,0,0-2.57-.35,6,6,0,0,0-5.23,2.69c-1.22,1.8-1.83,4.4-1.83,7.82V519h-9.35V479.79h7.7l1,6.12h.32a14.12,14.12,0,0,1,3.37-5.27A6.29,6.29,0,0,1,906.75,479.06Z"/><path class="cls-3" d="M953.12,507.5q0,5.73-3.36,9t-9.9,3.21a18.38,18.38,0,0,1-9.59-2.28v-8.12a18.22,18.22,0,0,0,4.51,2.21,14.33,14.33,0,0,0,4.56.88,4.7,4.7,0,0,0,3.32-1.07,3.71,3.71,0,0,0,1.14-2.83,4.56,4.56,0,0,0-1.19-3.13,20.63,20.63,0,0,0-4.4-3.27,18.12,18.12,0,0,1-6.1-5.4,12.21,12.21,0,0,1-1.84-6.77,9.88,9.88,0,0,1,3.42-7.91q3.43-2.91,9.41-2.91a18.84,18.84,0,0,1,9.81,2.74l-3.06,6.71a14.3,14.3,0,0,0-6.61-2,3.54,3.54,0,0,0-2.69.95,3.26,3.26,0,0,0-.9,2.32,4.09,4.09,0,0,0,1.11,2.82,19.67,19.67,0,0,0,4.13,3.06,25.87,25.87,0,0,1,5.13,3.76,11.15,11.15,0,0,1,2.29,3.51A12.09,12.09,0,0,1,953.12,507.5Z"/><path class="cls-3" d="M973.47,519.66a14.1,14.1,0,0,1-11.58-5.22q-4.25-5.22-4.24-14.78t3.83-15.15a12.33,12.33,0,0,1,10.69-5.45,12.18,12.18,0,0,1,10.09,4.65q3.69,4.67,3.69,13.07v5H967.14c.07,3.49.79,6.09,2.15,7.78a6.8,6.8,0,0,0,5.62,2.55,18.32,18.32,0,0,0,9.36-2.84V517A20.61,20.61,0,0,1,973.47,519.66Zm-1.37-33.4a3.81,3.81,0,0,0-3.3,2.13,14.29,14.29,0,0,0-1.51,6.59h9.49a14.22,14.22,0,0,0-1.3-6.5A3.75,3.75,0,0,0,972.1,486.26Z"/><path class="cls-3" d="M1011.65,519V495.62a15.78,15.78,0,0,0-1-6.44,3.43,3.43,0,0,0-3.3-2.18,4.63,4.63,0,0,0-4.43,3q-1.41,3-1.41,10.14V519h-9.35V479.79h7.42l1.12,5h.6a9.67,9.67,0,0,1,9.14-5.76q5.34,0,8,3.65t2.65,10.69V519Z"/><path class="cls-3" d="M1038.93,519.66q-5.42,0-8.54-5.34t-3.13-14.87q0-9.57,3.06-15t8.44-5.41a8,8,0,0,1,4.62,1.32,11.91,11.91,0,0,1,3.6,4.44h.57c-.28-3.56-.43-6.06-.43-7.49V464.26h9.36V519h-7l-1.59-5.1h-.31Q1044.62,519.67,1038.93,519.66Zm3-7.91a4,4,0,0,0,3.79-2.37q1.2-2.37,1.3-8.63v-1.23q0-6.82-1.21-9.6a4.12,4.12,0,0,0-4-2.78q-2.6,0-3.78,3.18a28.2,28.2,0,0,0-1.18,9.27q0,6.07,1.2,9.12T1042,511.75Z"/><path class="cls-3" d="M1078,511.75a10.89,10.89,0,0,0,4.25-1v7.31c-1.52,1-3.81,1.58-6.85,1.58q-5.1,0-7.56-3t-2.46-9.12V487.21h-3.8V483l4.89-3.38,2.39-8.29h6v8.43h7.1v7.42h-7.1v20.6Q1074.79,511.76,1078,511.75Z"/><path class="cls-3" d="M1115.79,519.66q-5.41,0-8.55-5.34t-3.13-14.87q0-9.57,3.06-15t8.44-5.41a8,8,0,0,1,4.62,1.32,12,12,0,0,1,3.61,4.44h.56q-.42-5.34-.42-7.49V464.26h9.35V519h-7l-1.58-5.1h-.32Q1121.49,519.67,1115.79,519.66Zm3-7.91a4,4,0,0,0,3.8-2.37c.79-1.58,1.23-4.46,1.3-8.63v-1.23q0-6.82-1.22-9.6a4.12,4.12,0,0,0-4-2.78q-2.6,0-3.78,3.18a28.24,28.24,0,0,0-1.17,9.27c0,4.05.39,7.09,1.19,9.12S1117,511.75,1118.81,511.75Z"/><path class="cls-3" d="M1140.89,469.56a5,5,0,0,1,1.35-3.67,5.11,5.11,0,0,1,3.78-1.35,5,5,0,0,1,3.66,1.35,4.94,4.94,0,0,1,1.37,3.67,4.82,4.82,0,0,1-1.41,3.71,5.07,5.07,0,0,1-3.62,1.32,5.23,5.23,0,0,1-3.73-1.32A4.85,4.85,0,0,1,1140.89,469.56Zm9.73,49.4h-9.35V479.79h9.35Z"/><path class="cls-3" d="M1186.84,479.87v5.48l-4.68,1a12.66,12.66,0,0,1,1.37,6.19q0,6.23-3.37,9.74t-9.43,3.52a8.74,8.74,0,0,1-2.6-.29,12.43,12.43,0,0,0-1.26,1.34,2.8,2.8,0,0,0-.6,1.83q0,2.46,4.25,2.46h5.66q5,0,7.69,2.69t2.68,8.1q0,6.82-4.57,10.55c-3,2.48-7.43,3.73-13.14,3.73q-6.51,0-10-2.83a9.76,9.76,0,0,1-3.52-8.07,8.91,8.91,0,0,1,2-5.75,11.35,11.35,0,0,1,5.56-3.6,6.83,6.83,0,0,1-2.94-2.18,5.51,5.51,0,0,1-1.14-3.45,6.35,6.35,0,0,1,.35-2.16,7.11,7.11,0,0,1,1-1.83,19.83,19.83,0,0,1,2.66-2.55,9.89,9.89,0,0,1-3.83-4.53,16,16,0,0,1-1.41-6.79q0-6.43,3.38-9.95t9.66-3.51a16.19,16.19,0,0,1,2.75.26,15.67,15.67,0,0,1,2.35.55Zm-23,44.78a4.41,4.41,0,0,0,1.46,3.57,6.23,6.23,0,0,0,4.16,1.25q4.26,0,6.38-1.62a5.24,5.24,0,0,0,2.13-4.43,3.81,3.81,0,0,0-1.14-3.13c-.76-.6-2.19-.91-4.27-.91H1168a3.73,3.73,0,0,0-3,1.42A6,6,0,0,0,1163.81,524.65Zm2.88-32.06q0,6.93,3.9,6.93t3.8-7q0-7.17-3.8-7.17T1166.69,492.59Z"/><path class="cls-3" d="M1191.48,514.14a5.83,5.83,0,0,1,1.46-4.25,5.75,5.75,0,0,1,4.34-1.51,5.91,5.91,0,0,1,4.36,1.49,5.84,5.84,0,0,1,1.47,4.27,5.73,5.73,0,0,1-1.53,4.26,5.88,5.88,0,0,1-4.3,1.51,5.76,5.76,0,0,1-4.33-1.53A5.86,5.86,0,0,1,1191.48,514.14Zm9.7-11.74h-7.7l-1.72-34.84H1203Z"/></svg>
