<svg id="Layer_1" data-name="Layer 1" xmlns="http://www.w3.org/2000/svg" width="1920" height="1080" viewBox="0 0 1920 1080"><defs><style>.cls-1{fill:#f5a996;}.cls-2{fill:#f6f6f6;}.cls-3{fill:#f39323;}.cls-4{fill:#fff;}.cls-5{fill:#faccab;}.cls-6{fill:#412413;}.cls-7{fill:#ef7a8a;}.cls-8{fill:#08111d;}.cls-9{fill:#f7baab;}.cls-10,.cls-11{fill:none;stroke:#a67d52;stroke-linecap:round;stroke-width:8px;}.cls-10{stroke-linejoin:round;}.cls-11{stroke-miterlimit:10;}.cls-12{fill:#041015;}.cls-13{fill:#ef7b8b;}.cls-14{fill:#8c633a;}.cls-15{fill:#1d1d1b;}</style></defs><title>dreng_eller_pige_skærm_1</title><rect class="cls-1" y="1.42" width="1920" height="1080"/><path class="cls-2" d="M1675.84,626.75c0,115.72-65.25,215.77-160,263.38q-8.1,4.08-16.48,7.62a278.65,278.65,0,0,1-217,0c-1.47-.61-2.93-1.25-4.38-1.9-101.25-45-172.1-148.52-172.1-269.1,0-161.82,127.6-293,285-293S1675.84,464.93,1675.84,626.75Z"/><path class="cls-3" d="M635.42,883.61q-8.1,4.08-16.48,7.62a278.65,278.65,0,0,1-217,0c-1.47-.61-2.93-1.25-4.38-1.9-.07-1.69-.1-3.39-.1-5.1a124.59,124.59,0,0,1,.78-14,122.67,122.67,0,0,1,6.12-27,120.69,120.69,0,0,1,7.92-18,122,122,0,0,1,19.78-27,118.21,118.21,0,0,1,54.4-32.09,113.83,113.83,0,0,1,12.15-2.55h0a116.57,116.57,0,0,1,17.83-1.36,118.32,118.32,0,0,1,16.29,1.13h0a117,117,0,0,1,14.69,3,118.42,118.42,0,0,1,53.4,31.82,122,122,0,0,1,19.78,27,120.69,120.69,0,0,1,7.92,18,124.95,124.95,0,0,1,6.9,40.38Z"/><path class="cls-4" d="M620.6,825.23H412.24a122,122,0,0,1,19.78-27h168.8A122,122,0,0,1,620.6,825.23Z"/><path class="cls-4" d="M634.64,870.23H398.2a122.67,122.67,0,0,1,6.12-27h224.2A122.67,122.67,0,0,1,634.64,870.23Z"/><path class="cls-4" d="M618.94,891.23a278.65,278.65,0,0,1-217,0Z"/><rect class="cls-5" x="486.42" y="714.23" width="61" height="92" rx="30.5"/><ellipse class="cls-6" cx="513.92" cy="614.73" rx="123.5" ry="121.5"/><ellipse class="cls-6" cx="515.92" cy="457.73" rx="61.5" ry="60.5"/><ellipse class="cls-5" cx="408.69" cy="640.28" rx="21.27" ry="20.62"/><ellipse class="cls-7" cx="408.6" cy="640.4" rx="11.6" ry="11.49"/><ellipse class="cls-5" cx="621.69" cy="638.28" rx="21.27" ry="20.62"/><ellipse class="cls-7" cx="621.6" cy="638.4" rx="11.6" ry="11.49"/><rect class="cls-5" x="406.45" y="500.23" width="216.97" height="264.59" rx="108.48"/><ellipse class="cls-6" cx="579.68" cy="554.79" rx="46.95" ry="82.21" transform="translate(-217.04 459.63) rotate(-36.93)"/><circle class="cls-8" cx="455.16" cy="643.49" r="8.74"/><rect class="cls-9" x="504.42" y="654.23" width="22.31" height="34" rx="11.15"/><ellipse class="cls-6" cx="458.01" cy="552.67" rx="86.44" ry="46.29" transform="translate(-259.25 525.28) rotate(-48.16)"/><ellipse class="cls-7" cx="445.6" cy="674.4" rx="11.6" ry="11.49"/><ellipse class="cls-7" cx="582.6" cy="673.4" rx="11.6" ry="11.49"/><path class="cls-10" d="M518.92,411.23c23,0,41.68,18.36,41.68,41"/><path class="cls-11" d="M569.1,502.35c44.32,22.88,56.32,52.88,61.32,91.88"/><path class="cls-12" d="M553.71,702c0,.63,0,1.25-.06,1.87,0,.31,0,.62-.07.92s-.06.62-.1.92c-.09.78-.22,1.55-.37,2.3-.08.39-.16.76-.25,1.14s-.19.74-.29,1.11a32.57,32.57,0,0,1-9.42,15.11,35.64,35.64,0,0,1-5.12,3.9c-.66.42-1.33.82-2,1.19a39.49,39.49,0,0,1-38.45-.54c-.52-.31-1-.63-1.54-1a37.14,37.14,0,0,1-4.09-3.13A32.51,32.51,0,0,1,482,710.28c-.11-.37-.2-.74-.3-1.11s-.17-.75-.25-1.14-.15-.76-.21-1.14-.11-.77-.16-1.16h0a30.2,30.2,0,0,1,0-7.19h72.48A30.69,30.69,0,0,1,553.71,702Z"/><path class="cls-13" d="M538,729.29c-.66.42-1.33.82-2,1.19a39.49,39.49,0,0,1-38.45-.54c-.52-.31-1-.63-1.54-1,5.6-8,12.9-12.76,20.9-12.76S532.41,721.16,538,729.29Z"/><path class="cls-4" d="M553.71,702a30.41,30.41,0,0,1-.23,3.71,31.72,31.72,0,0,1-.91,4.56H482a30.53,30.53,0,0,1-1.15-8.27,30.82,30.82,0,0,1,.2-3.48h72.48A30.82,30.82,0,0,1,553.71,702Z"/><ellipse class="cls-14" cx="448.68" cy="621.25" rx="18.5" ry="7" transform="translate(-94.33 80.5) rotate(-9.28)"/><ellipse class="cls-14" cx="577.13" cy="621.41" rx="7.17" ry="18.5" transform="translate(-129.23 1090.76) rotate(-80.72)"/><circle class="cls-8" cx="576.16" cy="643.49" r="8.74"/><path class="cls-15" d="M514.08,121.61l15,37.61,15.22-37.61h9L528.92,180l-23.8-58.36Z"/><path class="cls-15" d="M607.46,160.52H582.78a10.78,10.78,0,0,0,2.88,6.75,8.26,8.26,0,0,0,6.19,2.54q5.4,0,9-6.86l6.82,3.8a23.66,23.66,0,0,1-2.42,3.76,14.65,14.65,0,0,1-2.82,2.71,18.08,18.08,0,0,1-10.93,3.69q-6.88,0-12.41-5.49-4.29,5.49-12.62,5.49a15.63,15.63,0,0,1-10.16-3.17,10.13,10.13,0,0,1-3.9-8.26,10.6,10.6,0,0,1,3.72-8.44,14.55,14.55,0,0,1,9.81-3.23,19.77,19.77,0,0,1,8.93,2.32c0-3.09-.65-5.25-1.93-6.47s-3.52-1.86-6.61-1.86a33.84,33.84,0,0,0-9.14,1.3v-7.35a61.21,61.21,0,0,1,9.91-1.05q8.37,0,12,4.81a15.81,15.81,0,0,1,12-4.81q7.49,0,12,4.81t4.5,12.76ZM560,165.34a3.92,3.92,0,0,0,2,3.34,9,9,0,0,0,5,1.34,9.46,9.46,0,0,0,5.24-1.37,4.13,4.13,0,0,0,2.11-3.48,3.79,3.79,0,0,0-2.18-3.17,9.86,9.86,0,0,0-5.24-1.33A8.43,8.43,0,0,0,562,162,4,4,0,0,0,560,165.34Zm39.13-11.21q-1.44-6.3-7.7-6.3t-8.16,6.3Z"/><path class="cls-15" d="M623.87,116.51v59.38H616V116.51Z"/><path class="cls-15" d="M667,175.08c0,1.62,0,3-.16,4.27a27.61,27.61,0,0,1-.44,3.25,14.46,14.46,0,0,1-3.3,6.65q-4.65,5.34-12.76,5.34a17,17,0,0,1-11.29-3.69,15.09,15.09,0,0,1-5.27-10.51h7.94a9.06,9.06,0,0,0,1.51,3.9,8.51,8.51,0,0,0,7.18,3.2q8.67,0,8.68-10.65v-4.78a14.76,14.76,0,0,1-10.86,4.81,14.58,14.58,0,0,1-11.46-5.06,18.71,18.71,0,0,1-4.5-12.83,19.76,19.76,0,0,1,4.18-12.73,14.54,14.54,0,0,1,11.88-5.55,13.81,13.81,0,0,1,10.76,4.81v-3.86H667Zm-7.59-16.24a11.53,11.53,0,0,0-2.68-8,8.82,8.82,0,0,0-6.92-3.06,8.5,8.5,0,0,0-7.1,3.34,13.74,13.74,0,0,0,0,15.4,8.51,8.51,0,0,0,7.1,3.27A8.7,8.7,0,0,0,657,166.5,11.76,11.76,0,0,0,659.42,158.84Z"/><path class="cls-15" d="M724.46,116.51h7.94v59.38h-7.94V172.3a14.76,14.76,0,0,1-10.59,4.57,15.07,15.07,0,0,1-11.67-5.13,19.08,19.08,0,0,1-4.6-13.08,18.47,18.47,0,0,1,4.6-12.8,14.81,14.81,0,0,1,22.26-.24Zm-18.78,42.15a12,12,0,0,0,2.64,8,8.65,8.65,0,0,0,6.82,3.13,9.06,9.06,0,0,0,7.1-3,13,13,0,0,0,0-15.89,8.94,8.94,0,0,0-7-3.06,8.73,8.73,0,0,0-6.82,3.1A11.36,11.36,0,0,0,705.68,158.66Z"/><path class="cls-15" d="M773.57,160.63H749a10.36,10.36,0,0,0,2.74,6.71,8.33,8.33,0,0,0,6.22,2.47,8.09,8.09,0,0,0,4.89-1.41,20,20,0,0,0,4.33-5.2l6.67,3.72a26.73,26.73,0,0,1-3.26,4.52,17.12,17.12,0,0,1-3.7,3.09,14.9,14.9,0,0,1-4.25,1.78,21,21,0,0,1-5,.56q-7.66,0-12.3-4.92t-4.64-13.15q0-8.12,4.5-13.15a15.52,15.52,0,0,1,12-5q7.56,0,12,4.81t4.36,13.26Zm-8.12-6.47q-1.65-6.33-8-6.33a8.28,8.28,0,0,0-2.71.44,8,8,0,0,0-2.3,1.27,8,8,0,0,0-1.78,2,9.22,9.22,0,0,0-1.12,2.64Z"/><path class="cls-15" d="M782.22,141.65h7.94v3.16a13,13,0,0,1,9.35-4.11q6,0,9.32,3.76,2.88,3.19,2.88,10.44v21h-7.94V156.76q0-5.06-1.41-7c-.91-1.32-2.58-2-5-2q-3.95,0-5.59,2.6t-1.62,9v16.53h-7.94Z"/><path class="cls-15" d="M851.83,116.51v36.21L863,141.65h10.62L858.72,156l16,19.87H864.41l-11.32-14.45-1.26,1.26v13.19h-7.91V116.51Z"/><path class="cls-15" d="M903.79,141.65h7.94v34.24h-7.94V172.3q-4.89,4.57-10.51,4.57a15.17,15.17,0,0,1-11.75-5.13,19.08,19.08,0,0,1-4.6-13.08,18.49,18.49,0,0,1,4.6-12.83,14.86,14.86,0,0,1,11.53-5.13,14.58,14.58,0,0,1,10.73,4.92Zm-18.78,17a12,12,0,0,0,2.64,8,8.67,8.67,0,0,0,6.82,3.13,9.06,9.06,0,0,0,7.1-3,13,13,0,0,0,0-15.89,8.94,8.94,0,0,0-7-3.06,8.73,8.73,0,0,0-6.82,3.1A11.41,11.41,0,0,0,885,158.66Z"/><path class="cls-15" d="M921.72,141.65h7.91v3a15.08,15.08,0,0,1,3.86-3.12,8.83,8.83,0,0,1,4.08-.88,12.75,12.75,0,0,1,6.54,2L940.49,150a7.53,7.53,0,0,0-4.39-1.62q-6.48,0-6.47,9.77v17.76h-7.91Z"/><path class="cls-15" d="M973.4,141.65h7.94v34.24H973.4V172.3q-4.89,4.57-10.52,4.57a15.16,15.16,0,0,1-11.74-5.13,19.08,19.08,0,0,1-4.6-13.08,18.49,18.49,0,0,1,4.6-12.83,14.86,14.86,0,0,1,11.53-5.13,14.58,14.58,0,0,1,10.73,4.92Zm-18.78,17a12,12,0,0,0,2.64,8,8.65,8.65,0,0,0,6.82,3.13,9.06,9.06,0,0,0,7.1-3,13,13,0,0,0,0-15.89,8.94,8.94,0,0,0-7-3.06,8.73,8.73,0,0,0-6.82,3.1A11.41,11.41,0,0,0,954.62,158.66Z"/><path class="cls-15" d="M999.24,116.51v36.21l11.14-11.07H1021L1006.13,156l16,19.87h-10.27l-11.32-14.45-1.26,1.26v13.19h-7.91V116.51Z"/><path class="cls-15" d="M1035.34,149v26.86h-7.91V149h-3.37v-7.38h3.37V129.09h7.91v12.56h6.15V149Z"/><path class="cls-15" d="M1078.69,160.63h-24.54a10.41,10.41,0,0,0,2.74,6.71,8.34,8.34,0,0,0,6.23,2.47,8.08,8.08,0,0,0,4.88-1.41,20,20,0,0,0,4.33-5.2l6.68,3.72a27.31,27.31,0,0,1-3.27,4.52,17.12,17.12,0,0,1-3.7,3.09,14.9,14.9,0,0,1-4.25,1.78,20.92,20.92,0,0,1-5,.56q-7.66,0-12.3-4.92t-4.64-13.15q0-8.12,4.5-13.15a15.52,15.52,0,0,1,12-5q7.56,0,12,4.81t4.35,13.26Zm-8.12-6.47q-1.65-6.33-8-6.33a8.28,8.28,0,0,0-2.71.44,8,8,0,0,0-2.3,1.27,8,8,0,0,0-1.78,2,9.51,9.51,0,0,0-1.12,2.64Z"/><path class="cls-15" d="M1087.34,141.65h7.91v3a14.93,14.93,0,0,1,3.87-3.12,8.76,8.76,0,0,1,4.07-.88,12.75,12.75,0,0,1,6.54,2l-3.62,7.24a7.53,7.53,0,0,0-4.39-1.62q-6.48,0-6.47,9.77v17.76h-7.91Z"/><path class="cls-15" d="M1161.73,116.51h7.94v59.38h-7.94V172.3a14.76,14.76,0,0,1-10.58,4.57,15.09,15.09,0,0,1-11.68-5.13,19.08,19.08,0,0,1-4.6-13.08,18.47,18.47,0,0,1,4.6-12.8,14.81,14.81,0,0,1,22.26-.24ZM1143,158.66a11.94,11.94,0,0,0,2.63,8,8.67,8.67,0,0,0,6.82,3.13,9.06,9.06,0,0,0,7.1-3,13,13,0,0,0,0-15.89,8.93,8.93,0,0,0-7-3.06,8.73,8.73,0,0,0-6.82,3.1A11.4,11.4,0,0,0,1143,158.66Z"/><path class="cls-15" d="M1187.57,141.65V161.3q0,8.5,6.71,8.51t6.72-8.51V141.65h7.91v19.82a22.11,22.11,0,0,1-1,7.11,11.93,11.93,0,0,1-3.41,4.81,16.63,16.63,0,0,1-20.36,0,12.12,12.12,0,0,1-3.48-4.81,19.82,19.82,0,0,1-1-7.11V141.65Z"/><path class="cls-15" d="M1245.37,141.65l8.85,19.23,8.83-19.23h8.89l-17.79,36.59-17.64-36.59Z"/><path class="cls-15" d="M1276.09,127.41a5.16,5.16,0,0,1,5.13-5.1,5,5,0,0,1,3.66,1.51,4.86,4.86,0,0,1,1.51,3.62,5,5,0,0,1-1.51,3.66,4.85,4.85,0,0,1-3.62,1.51,5,5,0,0,1-3.66-1.51A5.06,5.06,0,0,1,1276.09,127.41Zm9.11,14.24v34.24h-7.91V141.65Z"/><path class="cls-15" d="M1303.13,116.51v59.38h-7.91V116.51Z"/><path class="cls-15" d="M1339.62,141.65l8.86,19.23,8.82-19.23h8.9l-17.79,36.59-17.65-36.59Z"/><path class="cls-15" d="M1424.13,160.52h-24.67a10.78,10.78,0,0,0,2.88,6.75,8.26,8.26,0,0,0,6.19,2.54q5.4,0,9-6.86l6.82,3.8a23,23,0,0,1-2.43,3.76,14.32,14.32,0,0,1-2.81,2.71,18.08,18.08,0,0,1-10.93,3.69q-6.9,0-12.41-5.49-4.29,5.49-12.62,5.49a15.63,15.63,0,0,1-10.16-3.17,10.14,10.14,0,0,1-3.91-8.26,10.61,10.61,0,0,1,3.73-8.44,14.55,14.55,0,0,1,9.81-3.23,19.77,19.77,0,0,1,8.93,2.32q0-4.63-1.93-6.47T1383,147.8a33.84,33.84,0,0,0-9.14,1.3v-7.35a61.21,61.21,0,0,1,9.91-1.05q8.37,0,12,4.81a15.81,15.81,0,0,1,12-4.81q7.48,0,12,4.81t4.5,12.76Zm-47.42,4.82a3.94,3.94,0,0,0,2,3.34,9,9,0,0,0,5,1.34,9.46,9.46,0,0,0,5.24-1.37,4.13,4.13,0,0,0,2.11-3.48,3.79,3.79,0,0,0-2.18-3.17,9.86,9.86,0,0,0-5.24-1.33,8.43,8.43,0,0,0-4.89,1.37A4,4,0,0,0,1376.71,165.34Zm39.13-11.21q-1.44-6.3-7.7-6.3t-8.16,6.3Z"/><path class="cls-15" d="M1432.64,141.65h7.91v3a15.1,15.1,0,0,1,3.87-3.12,8.83,8.83,0,0,1,4.08-.88,12.81,12.81,0,0,1,6.54,2l-3.62,7.24a7.56,7.56,0,0,0-4.4-1.62q-6.46,0-6.47,9.77v17.76h-7.91Z"/><path class="cls-15" d="M1490.26,160.63h-24.54a10.42,10.42,0,0,0,2.75,6.71,8.32,8.32,0,0,0,6.22,2.47,8.09,8.09,0,0,0,4.89-1.41,20.22,20.22,0,0,0,4.32-5.2l6.68,3.72a26.21,26.21,0,0,1-3.27,4.52,17.32,17.32,0,0,1-3.69,3.09,14.9,14.9,0,0,1-4.25,1.78,21,21,0,0,1-5,.56q-7.67,0-12.31-4.92t-4.64-13.15q0-8.12,4.5-13.15a15.54,15.54,0,0,1,12-5q7.56,0,12,4.81t4.36,13.26Zm-8.12-6.47q-1.65-6.33-8-6.33a8.22,8.22,0,0,0-2.7.44,7.88,7.88,0,0,0-2.31,1.27,8,8,0,0,0-1.77,2,9.23,9.23,0,0,0-1.13,2.64Z"/><path class="cls-2" d="M795.42,620.23c0,115.72-65.25,215.77-160,263.38q-8.1,4.08-16.48,7.62a278.65,278.65,0,0,1-217,0c-1.47-.61-2.93-1.25-4.38-1.9-101.25-45-172.1-148.52-172.1-269.1,0-161.82,127.6-293,285-293S795.42,458.41,795.42,620.23Z"/></svg>
