<svg xmlns="http://www.w3.org/2000/svg" width="500" height="100" viewBox="0 0 500 100"><defs><style>.cls-1{fill:#f6f6f6;}.cls-2{fill:#009245;}.cls-3{fill:#2a7631;}.cls-4{fill:#066938;}.cls-5{fill:#faccab;}.cls-6{fill:#ffdd5f;}.cls-7{fill:#ef7a8a;}.cls-8{fill:#f7baab;}.cls-9{fill:#041015;}.cls-10{fill:#ef7b8b;}.cls-11{fill:#fff;}.cls-12{fill:#08111d;}.cls-13,.cls-14,.cls-15{fill:none;}.cls-13{stroke:#fff;}.cls-13,.cls-14{stroke-linecap:round;stroke-miterlimit:10;}.cls-14{stroke:#f7ef8b;}</style></defs><title>dreng_sprite_final</title><g id="Layer_5" data-name="Layer 5"><path class="cls-1" d="M87.81844,49.37872A38.98646,38.98646,0,0,1,66.587,84.32827q-1.07484.54139-2.18683,1.01114a36.97577,36.97577,0,0,1-28.8004,0c-.19506-.08094-.3888-.16587-.58121-.25213a38.9278,38.9278,0,0,1-22.837-35.70856c0-21.47291,16.932-38.88,37.81844-38.88S87.81844,27.90581,87.81844,49.37872Z"/><path class="cls-2" d="M66.587,84.2805q-1.07484.54139-2.18683,1.01114a36.97577,36.97577,0,0,1-28.8004,0c-.19506-.08094-.3888-.16587-.58121-.25212-.00928-.22426-.01327-.44985-.01327-.67675a16.53034,16.53034,0,0,1,.10351-1.85775,16.2772,16.2772,0,0,1,.8121-3.5828,16.01521,16.01521,0,0,1,1.051-2.38853,16.193,16.193,0,0,1,2.62473-3.5828,15.68554,15.68554,0,0,1,7.21868-4.25823,15.10555,15.10555,0,0,1,1.61226-.33837h.00265a15.46817,15.46817,0,0,1,2.366-.18047,15.701,15.701,0,0,1,2.16162.14995h.00265a15.52388,15.52388,0,0,1,1.94931.40472,15.71358,15.71358,0,0,1,7.086,4.2224,16.19326,16.19326,0,0,1,2.62472,3.5828,16.01423,16.01423,0,0,1,1.051,2.38853,16.58023,16.58023,0,0,1,.9156,5.35828Z"/><rect class="cls-3" x="38.69565" y="64.3734" width="24.04319" height="11.80997" rx="5.19826"/><path class="cls-4" d="M52.46353,73.82257h0a4.631,4.631,0,0,1-4.61665-.21717l-5.55632-4.13778c-1.18161-.87995-1.03045-2.20939.33764-2.9694h0a4.631,4.631,0,0,1,4.61664.21717l5.55633,4.13778C53.98278,71.73312,53.83161,73.06256,52.46353,73.82257Z"/><path class="cls-4" d="M48.38153,73.70779h0a1.63515,1.63515,0,0,1,0-2.97733l6.01077-3.86608a4.652,4.652,0,0,1,4.629,0h0a1.63515,1.63515,0,0,1,0,2.97733L53.0105,73.70779A4.652,4.652,0,0,1,48.38153,73.70779Z"/><rect class="cls-5" x="46.5499" y="62.25026" width="8.09447" height="12.20806" rx="3.56285"/><path class="cls-6" d="M66.18894,43.341a9.08824,9.08824,0,0,1-9.08969,9.0897H43.16614A9.08948,9.08948,0,0,1,36.4809,37.1826c.0836-.09156.16986-.18179.25743-.26937a9.09,9.09,0,0,1,3.16216-2.05679,5.99145,5.99145,0,0,0,2.55971.58917H54.578a6.015,6.015,0,0,0,2.46948-.5268,5.94125,5.94125,0,0,0,1.05892-.61173,9.08409,9.08409,0,0,1,8.08252,9.034Z"/><ellipse class="cls-5" cx="36.10332" cy="51.50846" rx="2.82305" ry="2.73595"/><ellipse class="cls-7" cx="36.09028" cy="51.52507" rx="1.53978" ry="1.52507"/><ellipse class="cls-5" cx="64.63302" cy="51.50846" rx="2.82305" ry="2.73595"/><ellipse class="cls-7" cx="64.61998" cy="51.52507" rx="1.53978" ry="1.52507"/><path class="cls-5" d="M64.59659,47.58467V53.905a14.39556,14.39556,0,1,1-28.79111,0V47.58467a14.32225,14.32225,0,0,1,1.79008-6.95727,14.47071,14.47071,0,0,1,4.86464-5.18179H54.578a6.015,6.015,0,0,0,2.46948-.5268,14.38068,14.38068,0,0,1,7.54909,12.66586Z"/><rect class="cls-8" x="49.00877" y="50.79431" width="2.96016" height="4.51167" rx="1.30294"/><path class="cls-9" d="M56.76751,57.924c0,.10424-.00346.207-.00988.30976-.003.05137-.00692.10226-.01186.15314s-.01037.10178-.0168.15217c-.0163.12845-.03754.25591-.06373.38139-.01284.06324-.02717.12548-.043.18773-.01531.06176-.03211.12351-.04989.18477a5.37121,5.37121,0,0,1-1.61253,2.50079,6.117,6.117,0,0,1-.87592.64719q-.16821.10374-.34483.19712a6.96343,6.96343,0,0,1-6.582-.08992q-.13413-.07632-.26331-.15809a6.21533,6.21533,0,0,1-.701-.51725A5.37929,5.37929,0,0,1,44.48981,59.293c-.01778-.06126-.03458-.123-.05039-.18477-.01581-.06225-.02964-.12449-.043-.18773q-.02-.09411-.03557-.18971-.01557-.09484-.02816-.19119v-.00049a4.87207,4.87207,0,0,1-.03853-.61507,4.8195,4.8195,0,0,1,.03409-.57555H56.73342A4.8195,4.8195,0,0,1,56.76751,57.924Z"/><path class="cls-10" d="M54.08392,62.441q-.16821.10374-.34483.19712a6.96343,6.96343,0,0,1-6.582-.08992q-.13413-.07632-.26331-.15809a4.524,4.524,0,0,1,3.57679-2.11248A4.54962,4.54962,0,0,1,54.08392,62.441Z"/><path class="cls-11" d="M56.76751,57.924a4.91054,4.91054,0,0,1-.03869.61515,4.85879,4.85879,0,0,1-.15661.754H44.48981a4.8079,4.8079,0,0,1-.15706-.754,4.91054,4.91054,0,0,1-.03869-.61515,4.81523,4.81523,0,0,1,.03414-.57547H56.73337A4.81523,4.81523,0,0,1,56.76751,57.924Z"/><circle class="cls-12" cx="42.26961" cy="51.00508" r="1.16026"/><circle class="cls-12" cx="57.92777" cy="51.00508" r="1.16026"/><path class="cls-6" d="M66.98512,36.70623a7.34962,7.34962,0,0,1-2.15764,5.207,7.44581,7.44581,0,0,1-1.05095.87314,7.32718,7.32718,0,0,1-4.15605,1.2845H43.82962A7.36311,7.36311,0,0,1,36.4809,37.1826c.0836-.09156.16986-.18179.25743-.26937a9.09,9.09,0,0,1,3.16216-2.05679,5.99145,5.99145,0,0,0,2.55971.58917H54.578a6.015,6.015,0,0,0,2.46948-.5268,6.06057,6.06057,0,0,0,1.79936-1.242,6.01178,6.01178,0,0,0,1.76884-4.26751A7.36433,7.36433,0,0,1,66.98512,36.70623Z"/><path class="cls-6" d="M57.0475,34.91881a6.015,6.015,0,0,1-2.46948.5268H42.46153a14.29924,14.29924,0,0,1,2.30493-1.19426H55.63693A14.28149,14.28149,0,0,1,57.0475,34.91881Z"/><path class="cls-6" d="M44.76646,34.25135a14.29924,14.29924,0,0,0-2.30493,1.19426H42.4602a5.99145,5.99145,0,0,1-2.55971-.58917,9.0421,9.0421,0,0,1,3.26565-.60509Z"/><path class="cls-6" d="M58.10642,34.30708a5.94125,5.94125,0,0,1-1.05892.61173,14.28149,14.28149,0,0,0-1.41057-.66746h1.46232A9.008,9.008,0,0,1,58.10642,34.30708Z"/><rect class="cls-6" x="38.45542" y="45.79592" width="7.0329" height="2.92953" rx="1.30652" transform="translate(-3.63498 3.4974) rotate(-4.57371)"/><rect class="cls-6" x="56.96145" y="43.74424" width="2.92953" height="7.0329" rx="1.30652" transform="translate(6.65703 101.73221) rotate(-85.42629)"/><line class="cls-13" x1="46.5499" y1="74.45832" x2="46.5499" y2="86.78786"/><line class="cls-13" x1="55.27135" y1="74.45832" x2="55.27135" y2="86.78786"/><path class="cls-14" d="M65.2501,35.69519a6.86624,6.86624,0,0,1-2.01573,4.86454,6.95635,6.95635,0,0,1-.98183.81572,6.84531,6.84531,0,0,1-3.88271,1.2"/><rect class="cls-15" width="100" height="100"/><path class="cls-1" d="M187.26242,49.33435a39.02121,39.02121,0,0,1-21.0716,34.94954q-1.06676.54139-2.17038,1.01115a36.44326,36.44326,0,0,1-28.58363,0c-.19359-.081-.38587-.16587-.57683-.25213a38.94443,38.94443,0,0,1-22.66514-35.70856c0-21.47291,16.8046-38.88,37.53379-38.88S187.26242,27.86144,187.26242,49.33435Z"/><path class="cls-2" d="M166.43446,84.23612q-1.06676.54139-2.17038,1.01115a36.44315,36.44315,0,0,1-28.58363,0c-.19359-.081-.38587-.16587-.57683-.25213-.00922-.22426-.01317-.44984-.01317-.67675a16.6543,16.6543,0,0,1,.10273-1.85774,16.38174,16.38174,0,0,1,.806-3.5828,16.25479,16.25479,0,0,1,3.648-5.97134,15.54371,15.54371,0,0,1,7.16435-4.25822,14.89261,14.89261,0,0,1,1.60013-.33838h.00262a15.23863,15.23863,0,0,1,2.34817-.18046,15.46587,15.46587,0,0,1,2.14535.14995h.00264a15.30578,15.30578,0,0,1,1.93464.40472,15.57261,15.57261,0,0,1,7.03265,4.22239,16.25479,16.25479,0,0,1,3.648,5.97134,16.69633,16.69633,0,0,1,.90872,5.35827Z"/><rect class="cls-3" x="138.753" y="64.32903" width="23.86223" height="11.80997" rx="5.19826"/><path class="cls-4" d="M152.41725,73.77819h0a4.5664,4.5664,0,0,1-4.5819-.21717l-5.51451-4.13778c-1.17272-.87994-1.02269-2.20939.33511-2.96939h0a4.5664,4.5664,0,0,1,4.5819.21717l5.5145,4.13778C153.92507,71.68874,153.775,73.01819,152.41725,73.77819Z"/><path class="cls-4" d="M148.366,73.66341h0a1.6403,1.6403,0,0,1,0-2.97732L154.3315,66.82a4.5869,4.5869,0,0,1,4.59414,0h0a1.6403,1.6403,0,0,1,0,2.97732l-5.96553,3.86608A4.58683,4.58683,0,0,1,148.366,73.66341Z"/><rect class="cls-5" x="146.54813" y="62.20589" width="8.03355" height="12.20806" rx="3.56285"/><path class="cls-6" d="M166.03936,43.29667a9.12248,9.12248,0,0,1-2.64185,6.4278,8.963,8.963,0,0,1-6.37943,2.66189H143.18985a8.98593,8.98593,0,0,1-7.30526-3.75663,9.14212,9.14212,0,0,1,.67034-11.4915c.083-.09156.16857-.18179.25549-.26937a9.01492,9.01492,0,0,1,3.13835-2.05679,5.9096,5.9096,0,0,0,2.54045.58917h12.02661a5.93523,5.93523,0,0,0,3.50184-1.13854,9.08047,9.08047,0,0,1,8.02169,9.034Z"/><ellipse class="cls-5" cx="136.18019" cy="51.46409" rx="2.8018" ry="2.73595"/><circle class="cls-7" cx="136.16724" cy="51.4807" r="1.5282"/><ellipse class="cls-5" cx="164.49515" cy="51.46409" rx="2.8018" ry="2.73595"/><circle class="cls-7" cx="164.4822" cy="51.4807" r="1.5282"/><path class="cls-5" d="M164.459,47.54029v6.32033A14.34133,14.34133,0,0,1,150.17245,68.2555a14.1936,14.1936,0,0,1-10.10384-4.21575,14.40936,14.40936,0,0,1-4.184-10.17913V47.54029a14.41107,14.41107,0,0,1,6.60463-12.139h12.02661a5.93162,5.93162,0,0,0,2.45089-.52681A14.41232,14.41232,0,0,1,164.459,47.54029Z"/><rect class="cls-8" x="148.9885" y="50.74993" width="2.93788" height="4.51167" rx="1.30294"/><path class="cls-9" d="M156.68884,57.87963c0,.10424-.00343.207-.00981.30976-.00294.05138-.00686.10227-.01176.15315s-.0103.10177-.01667.15216c-.01618.12845-.03727.25591-.06325.3814-.01275.06323-.027.12548-.04266.18773-.0152.06175-.03187.12351-.04952.18477a5.37569,5.37569,0,0,1-1.60039,2.50079,6.07368,6.07368,0,0,1-.86933.64718q-.167.10375-.34223.19712a6.86518,6.86518,0,0,1-6.53246-.08991q-.13313-.07634-.26134-.15809a6.17231,6.17231,0,0,1-.69575-.51725,5.38255,5.38255,0,0,1-1.69012-2.57984c-.01765-.06126-.03432-.123-.05-.18477-.01569-.06225-.02942-.1245-.04265-.18773q-.01986-.09412-.03531-.18971-.01544-.09486-.028-.19119v-.0005a4.90965,4.90965,0,0,1-.03824-.61507,4.85749,4.85749,0,0,1,.03383-.57555H156.655A4.85749,4.85749,0,0,1,156.68884,57.87963Z"/><path class="cls-10" d="M154.02545,62.39657q-.167.10375-.34223.19712a6.86518,6.86518,0,0,1-6.53246-.08991q-.13313-.07634-.26134-.15809a4.04651,4.04651,0,0,1,7.136.05088Z"/><path class="cls-11" d="M156.68884,57.87961a4.94691,4.94691,0,0,1-.0384.61515,4.892,4.892,0,0,1-.15542.75406H144.50355a4.84029,4.84029,0,0,1-.15587-.75406,4.94691,4.94691,0,0,1-.0384-.61515,4.85073,4.85073,0,0,1,.03388-.57546H156.655A4.85073,4.85073,0,0,1,156.68884,57.87961Z"/><ellipse class="cls-12" cx="142.30006" cy="51.05085" rx="1.15153" ry="0.59538"/><path class="cls-6" d="M166.82955,36.66185A7.37983,7.37983,0,0,1,163.6451,42.742a7.23393,7.23393,0,0,1-4.12476,1.2845h-15.672a7.34145,7.34145,0,0,1-7.2934-6.88827c.083-.09156.16857-.18179.25549-.26937a9.01492,9.01492,0,0,1,3.13835-2.05679,5.9096,5.9096,0,0,0,2.54045.58917h12.02661a5.97117,5.97117,0,0,0,4.23671-1.76884,6.03474,6.03474,0,0,0,1.75553-4.26751A7.346,7.346,0,0,1,166.82955,36.66185Z"/><path class="cls-6" d="M156.96672,34.87443a5.93162,5.93162,0,0,1-2.45089.52681h-12.0253a14.15337,14.15337,0,0,1,2.28759-1.19427h10.78866A14.1316,14.1316,0,0,1,156.96672,34.87443Z"/><path class="cls-6" d="M144.77812,34.207a14.15337,14.15337,0,0,0-2.28759,1.19427h-.00131a5.9096,5.9096,0,0,1-2.54045-.58917,8.91421,8.91421,0,0,1,3.24108-.6051Z"/><path class="cls-6" d="M158.01767,34.2627a5.88542,5.88542,0,0,1-1.051.61173,14.1316,14.1316,0,0,0-1.39994-.66746h1.4513A8.87357,8.87357,0,0,1,158.01767,34.2627Z"/><path class="cls-6" d="M144.3068,48.50019l-4.37262.35245a1.29976,1.29976,0,0,1-1.396-1.19818l-.025-.31548a1.3035,1.3035,0,0,1,1.18915-1.40654L144.075,45.58a1.29975,1.29975,0,0,1,1.396,1.19818l.025.31547A1.30352,1.30352,0,0,1,144.3068,48.50019Z"/><path class="cls-6" d="M156.03282,48.50019l4.37263.35244a1.29975,1.29975,0,0,0,1.396-1.19817l.025-.31548a1.3035,1.3035,0,0,0-1.18915-1.40654L156.26467,45.58a1.29975,1.29975,0,0,0-1.396,1.19818l-.025.31547A1.30351,1.30351,0,0,0,156.03282,48.50019Z"/><line class="cls-13" x1="146.54813" y1="74.41394" x2="146.54813" y2="86.74348"/><line class="cls-13" x1="155.20394" y1="74.41394" x2="155.20394" y2="86.74348"/><path class="cls-14" d="M165.10759,35.65082a6.89434,6.89434,0,0,1-2.975,5.68025,6.7581,6.7581,0,0,1-3.85348,1.2"/><rect class="cls-15" x="100" width="100" height="100"/><path class="cls-1" d="M387.26242,49.4231a39.02121,39.02121,0,0,1-21.0716,34.94954q-1.06676.54139-2.17038,1.01115a36.44326,36.44326,0,0,1-28.58363,0c-.19359-.081-.38587-.16587-.57683-.25213A38.94443,38.94443,0,0,1,312.19484,49.4231c0-21.47291,16.8046-38.88,37.53379-38.88S387.26242,27.95019,387.26242,49.4231Z"/><path class="cls-2" d="M362.8839,84.3045q-1.05662.54108-2.14973,1.01055a35.80021,35.80021,0,0,1-28.31167,0c-.19175-.0809-.3822-.16577-.57134-.252-.00913-.22412-.01305-.44957-.01305-.67634a16.79255,16.79255,0,0,1,.10176-1.85665,16.49754,16.49754,0,0,1,.79831-3.58067,16.27839,16.27839,0,0,1,3.61331-5.96778,15.36905,15.36905,0,0,1,7.09618-4.2557,14.63888,14.63888,0,0,1,1.5849-.33817h.00261a14.96152,14.96152,0,0,1,2.32583-.18036,15.18446,15.18446,0,0,1,2.12493.14986h.00261a15.04057,15.04057,0,0,1,1.91623.40448,15.39916,15.39916,0,0,1,6.96574,4.21989,16.27839,16.27839,0,0,1,3.61331,5.96778,16.82467,16.82467,0,0,1,.90007,5.35509Z"/><rect class="cls-3" x="335.46582" y="64.40924" width="23.63519" height="11.80295" rx="5.19826"/><path class="cls-4" d="M349.00006,73.85279h0a4.48838,4.48838,0,0,1-4.5383-.217l-5.462-4.13533c-1.16156-.87942-1.013-2.20807.33192-2.96762h0a4.4884,4.4884,0,0,1,4.53831.217l5.462,4.13533C350.49353,71.76458,350.34493,73.09323,349.00006,73.85279Z"/><path class="cls-4" d="M344.98733,73.73808h0a1.64556,1.64556,0,0,1,0-2.97555l5.90877-3.86379a4.50817,4.50817,0,0,1,4.55042,0h0a1.64556,1.64556,0,0,1,0,2.97555l-5.90877,3.86379A4.50817,4.50817,0,0,1,344.98733,73.73808Z"/><rect class="cls-5" x="343.18678" y="62.28736" width="7.95711" height="12.2008" rx="3.56285"/><path class="cls-6" d="M362.64543,43.38542a9.12248,9.12248,0,0,1-2.64185,6.4278,8.963,8.963,0,0,1-6.37943,2.66189H339.79592a8.98593,8.98593,0,0,1-7.30526-3.75663A9.14212,9.14212,0,0,1,333.161,37.227c.083-.09156.16857-.18179.25549-.26937a9.01492,9.01492,0,0,1,3.13835-2.05679,5.9096,5.9096,0,0,0,2.54045.58917H351.1219a5.93523,5.93523,0,0,0,3.50184-1.13854,9.08047,9.08047,0,0,1,8.02169,9.034Z"/><ellipse class="cls-5" cx="332.78626" cy="51.55284" rx="2.8018" ry="2.73595"/><circle class="cls-7" cx="332.77331" cy="51.56945" r="1.5282"/><ellipse class="cls-5" cx="360.96304" cy="51.55194" rx="2.77515" ry="2.73432"/><ellipse class="cls-7" cx="360.95022" cy="51.56854" rx="1.51365" ry="1.52417"/><path class="cls-5" d="M360.92723,47.63048V53.947a14.27025,14.27025,0,0,1-14.15061,14.38634,13.99656,13.99656,0,0,1-10.00771-4.21325A14.46694,14.46694,0,0,1,332.6247,53.947V47.63048a14.4348,14.4348,0,0,1,6.54178-12.13184h11.91219a5.83086,5.83086,0,0,0,2.42757-.5265,14.21829,14.21829,0,0,1,3.27677,2.48525,14.48271,14.48271,0,0,1,4.14422,10.17309Z"/><rect class="cls-8" x="345.60393" y="50.83821" width="2.90992" height="4.50899" rx="1.30294"/><path class="cls-9" d="M353.231,57.96367c0,.10418-.0034.20688-.00972.30958-.00291.05135-.0068.1022-.01165.15306s-.0102.10171-.01652.15207c-.016.12837-.0369.25575-.06264.38117-.01263.06319-.02671.12541-.04226.18762-.015.06171-.03156.12343-.049.18465a5.37815,5.37815,0,0,1-1.58516,2.49931,6.02022,6.02022,0,0,1-.861.6468q-.16536.10368-.339.197a6.74656,6.74656,0,0,1-6.47031-.08986q-.13185-.07629-.25884-.158a6.11555,6.11555,0,0,1-.68914-.51694,5.3835,5.3835,0,0,1-1.674-2.57831c-.01749-.06122-.034-.12294-.04954-.18465-.01554-.06221-.02914-.12443-.04225-.18762q-.01966-.09407-.035-.1896-.0153-.0948-.02768-.19108v-.00049a4.94989,4.94989,0,0,1-.03788-.61471,4.89664,4.89664,0,0,1,.03351-.5752H353.1975A4.89664,4.89664,0,0,1,353.231,57.96367Z"/><path class="cls-10" d="M350.593,62.47793q-.16536.10368-.339.197a6.74656,6.74656,0,0,1-6.47031-.08986q-.13185-.07629-.25884-.158a3.99123,3.99123,0,0,1,7.06813.05086Z"/><path class="cls-11" d="M353.231,57.96365a4.9878,4.9878,0,0,1-.038.61479,4.92745,4.92745,0,0,1-.154.75361H341.16166a4.87489,4.87489,0,0,1-.1544-.75361,4.9878,4.9878,0,0,1-.038-.61479,4.89,4.89,0,0,1,.03356-.57512h12.19465A4.89,4.89,0,0,1,353.231,57.96365Z"/><path class="cls-6" d="M363.27523,36.7585a7.37916,7.37916,0,0,1-3.15415,6.07653,7.12075,7.12075,0,0,1-4.08552,1.28374H340.51267a7.20632,7.20632,0,0,1-6.12828-3.44142,7.38545,7.38545,0,0,1-1.09573-3.44276c.08218-.0915.167-.18168.25306-.2692a8.92234,8.92234,0,0,1,3.10849-2.05557,5.81044,5.81044,0,0,0,2.51627.58882h11.91219a5.84709,5.84709,0,0,0,3.46852-1.13786,5.91745,5.91745,0,0,0,.72788-.62994,6.05874,6.05874,0,0,0,1.73882-4.265A7.32054,7.32054,0,0,1,363.27523,36.7585Z"/><path class="cls-6" d="M353.50624,34.97214a5.83086,5.83086,0,0,1-2.42757.5265H339.16779a13.97448,13.97448,0,0,1,2.26582-1.19356h10.686A13.94168,13.94168,0,0,1,353.50624,34.97214Z"/><path class="cls-6" d="M341.43361,34.30508a13.97448,13.97448,0,0,0-2.26582,1.19356h-.00131a5.81044,5.81044,0,0,1-2.51627-.58882,8.75989,8.75989,0,0,1,3.21024-.60474Z"/><path class="cls-6" d="M354.54719,34.36078a5.81717,5.81717,0,0,1-1.041.61136,13.94168,13.94168,0,0,0-1.38662-.66706h1.4375A8.711,8.711,0,0,1,354.54719,34.36078Z"/><path class="cls-6" d="M340.96678,48.5898l-4.331.35224a1.29108,1.29108,0,0,1-1.38268-1.19746l-.02481-.31529a1.29929,1.29929,0,0,1,1.17785-1.40571l4.331-.35224a1.29107,1.29107,0,0,1,1.38267,1.19746l.02481.31529A1.29928,1.29928,0,0,1,340.96678,48.5898Z"/><path class="cls-6" d="M352.58123,48.5898l4.331.35224a1.29108,1.29108,0,0,0,1.38268-1.19746l.02481-.31529a1.29929,1.29929,0,0,0-1.17785-1.40571l-4.331-.35224a1.29107,1.29107,0,0,0-1.38267,1.19747l-.02481.31529A1.29927,1.29927,0,0,0,352.58123,48.5898Z"/><line class="cls-13" x1="343.18678" y1="74.48816" x2="343.18678" y2="86.81037"/><line class="cls-13" x1="351.76023" y1="74.48816" x2="351.76023" y2="86.81037"/><path class="cls-14" d="M361.56965,35.74807A6.89386,6.89386,0,0,1,358.623,41.425a6.65238,6.65238,0,0,1-3.81681,1.1993"/><rect class="cls-15" x="300" width="100" height="100"/><path class="cls-1" d="M487.81844,49.37872A38.98646,38.98646,0,0,1,466.587,84.32827q-1.07484.54139-2.18683,1.01114a36.97577,36.97577,0,0,1-28.8004,0c-.19506-.08094-.3888-.16587-.58121-.25213a38.9278,38.9278,0,0,1-22.837-35.70856c0-21.47291,16.932-38.88,37.81844-38.88S487.81844,27.90581,487.81844,49.37872Z"/><path class="cls-2" d="M466.587,84.2805q-1.07484.54139-2.18683,1.01114a36.97577,36.97577,0,0,1-28.8004,0c-.19506-.08094-.3888-.16587-.58121-.25212-.00928-.22426-.01327-.44985-.01327-.67675a16.53034,16.53034,0,0,1,.10351-1.85775,16.2772,16.2772,0,0,1,.8121-3.5828,16.01521,16.01521,0,0,1,1.051-2.38853,16.193,16.193,0,0,1,2.62473-3.5828,15.68554,15.68554,0,0,1,7.21868-4.25823,15.10555,15.10555,0,0,1,1.61226-.33837h.00265a15.46817,15.46817,0,0,1,2.366-.18047,15.701,15.701,0,0,1,2.16162.14995h.00265a15.52388,15.52388,0,0,1,1.94931.40472,15.71358,15.71358,0,0,1,7.086,4.2224,16.19326,16.19326,0,0,1,2.62472,3.5828,16.01423,16.01423,0,0,1,1.051,2.38853,16.58023,16.58023,0,0,1,.9156,5.35828Z"/><rect class="cls-3" x="438.69565" y="64.3734" width="24.04319" height="11.80997" rx="5.19826"/><path class="cls-4" d="M452.46353,73.82257h0a4.631,4.631,0,0,1-4.61665-.21717l-5.55632-4.13778c-1.18161-.87995-1.03045-2.20939.33764-2.9694h0a4.631,4.631,0,0,1,4.61664.21717l5.55633,4.13778C453.98278,71.73312,453.83161,73.06256,452.46353,73.82257Z"/><path class="cls-4" d="M448.38153,73.70779h0a1.63515,1.63515,0,0,1,0-2.97733l6.01077-3.86608a4.652,4.652,0,0,1,4.629,0h0a1.63515,1.63515,0,0,1,0,2.97733l-6.01077,3.86608A4.652,4.652,0,0,1,448.38153,73.70779Z"/><rect class="cls-5" x="446.5499" y="62.25026" width="8.09447" height="12.20806" rx="3.56285"/><path class="cls-6" d="M466.18894,43.341a9.08824,9.08824,0,0,1-9.08969,9.0897H443.16614A9.08948,9.08948,0,0,1,436.4809,37.1826c.0836-.09156.16986-.18179.25743-.26937a9.09,9.09,0,0,1,3.16216-2.05679,5.99145,5.99145,0,0,0,2.55971.58917H454.578a6.015,6.015,0,0,0,2.46948-.5268,5.94125,5.94125,0,0,0,1.05892-.61173,9.08409,9.08409,0,0,1,8.08252,9.034Z"/><ellipse class="cls-5" cx="436.10332" cy="51.50846" rx="2.82305" ry="2.73595"/><ellipse class="cls-7" cx="436.09028" cy="51.52507" rx="1.53978" ry="1.52507"/><ellipse class="cls-5" cx="464.63302" cy="51.50846" rx="2.82305" ry="2.73595"/><ellipse class="cls-7" cx="464.61998" cy="51.52507" rx="1.53978" ry="1.52507"/><path class="cls-5" d="M464.59659,47.58467V53.905a14.39556,14.39556,0,1,1-28.79111,0V47.58467a14.32225,14.32225,0,0,1,1.79008-6.95727,14.47071,14.47071,0,0,1,4.86464-5.18179H454.578a6.015,6.015,0,0,0,2.46948-.5268,14.38068,14.38068,0,0,1,7.54909,12.66586Z"/><rect class="cls-8" x="449.00877" y="50.79431" width="2.96016" height="4.51167" rx="1.30294"/><path class="cls-9" d="M456.76751,57.924c0,.10424-.00346.207-.00988.30976-.003.05137-.00692.10226-.01186.15314s-.01037.10178-.0168.15217c-.0163.12845-.03754.25591-.06373.38139-.01284.06324-.02717.12548-.043.18773-.01531.06176-.03211.12351-.04989.18477a5.37121,5.37121,0,0,1-1.61253,2.50079,6.117,6.117,0,0,1-.87592.64719q-.16821.10374-.34483.19712a6.96343,6.96343,0,0,1-6.582-.08992q-.13413-.07632-.26331-.15809a6.21533,6.21533,0,0,1-.701-.51725,5.37929,5.37929,0,0,1-1.70293-2.57984c-.01778-.06126-.03458-.123-.05039-.18477-.01581-.06225-.02964-.12449-.043-.18773q-.02-.09411-.03557-.18971-.01557-.09484-.02816-.19119v-.00049a4.87207,4.87207,0,0,1-.03853-.61507,4.8195,4.8195,0,0,1,.03409-.57555h12.40515A4.8195,4.8195,0,0,1,456.76751,57.924Z"/><path class="cls-10" d="M454.08392,62.441q-.16821.10374-.34483.19712a6.96343,6.96343,0,0,1-6.582-.08992q-.13413-.07632-.26331-.15809a4.09184,4.09184,0,0,1,7.19014.05089Z"/><path class="cls-11" d="M456.76751,57.924a4.91054,4.91054,0,0,1-.03869.61515,4.85879,4.85879,0,0,1-.15661.754h-12.0824a4.8079,4.8079,0,0,1-.15706-.754,4.91054,4.91054,0,0,1-.03869-.61515,4.81523,4.81523,0,0,1,.03414-.57547h12.40517A4.81523,4.81523,0,0,1,456.76751,57.924Z"/><circle class="cls-12" cx="442.26961" cy="51.00508" r="1.16026"/><circle class="cls-12" cx="457.92777" cy="51.00508" r="1.16026"/><path class="cls-6" d="M466.98512,36.70623a7.34962,7.34962,0,0,1-2.15764,5.207,7.44581,7.44581,0,0,1-1.051.87314,7.32718,7.32718,0,0,1-4.156,1.2845H443.82962a7.36311,7.36311,0,0,1-7.34872-6.88827c.0836-.09156.16986-.18179.25743-.26937a9.09,9.09,0,0,1,3.16216-2.05679,5.99145,5.99145,0,0,0,2.55971.58917H454.578a6.015,6.015,0,0,0,2.46948-.5268,6.06057,6.06057,0,0,0,1.79936-1.242,6.01178,6.01178,0,0,0,1.76884-4.26751A7.36433,7.36433,0,0,1,466.98512,36.70623Z"/><path class="cls-6" d="M457.0475,34.91881a6.015,6.015,0,0,1-2.46948.5268H442.46153a14.29924,14.29924,0,0,1,2.30493-1.19426h10.87047A14.28149,14.28149,0,0,1,457.0475,34.91881Z"/><path class="cls-6" d="M444.76646,34.25135a14.29924,14.29924,0,0,0-2.30493,1.19426h-.00133a5.99145,5.99145,0,0,1-2.55971-.58917,9.0421,9.0421,0,0,1,3.26565-.60509Z"/><path class="cls-6" d="M458.10642,34.30708a5.94125,5.94125,0,0,1-1.05892.61173,14.28149,14.28149,0,0,0-1.41057-.66746h1.46232A9.008,9.008,0,0,1,458.10642,34.30708Z"/><rect class="cls-6" x="438.45542" y="45.79592" width="7.0329" height="2.92953" rx="1.30652" transform="translate(-2.36121 35.39398) rotate(-4.57371)"/><rect class="cls-6" x="456.96145" y="43.74424" width="2.92953" height="7.0329" rx="1.30652" transform="translate(374.76045 500.45844) rotate(-85.42629)"/><line class="cls-13" x1="446.5499" y1="74.45832" x2="446.5499" y2="86.78786"/><line class="cls-13" x1="455.27135" y1="74.45832" x2="455.27135" y2="86.78786"/><path class="cls-14" d="M465.2501,35.69519a6.86624,6.86624,0,0,1-2.01573,4.86454,6.95635,6.95635,0,0,1-.98183.81572,6.84531,6.84531,0,0,1-3.88271,1.2"/><rect class="cls-15" x="400" width="100" height="100"/><ellipse class="cls-12" cx="157.84037" cy="51.05085" rx="1.15153" ry="0.59538"/><ellipse class="cls-12" cx="338.97913" cy="51.04886" rx="1.14057" ry="0.59502"/><ellipse class="cls-12" cx="354.37158" cy="51.04886" rx="1.14057" ry="0.59502"/><path class="cls-1" d="M87.81844,49.37872A38.98646,38.98646,0,0,1,66.587,84.32827q-1.07484.54139-2.18683,1.01114a36.97577,36.97577,0,0,1-28.8004,0c-.19506-.08094-.3888-.16587-.58121-.25213a38.9278,38.9278,0,0,1-22.837-35.70856c0-21.47291,16.932-38.88,37.81844-38.88S87.81844,27.90581,87.81844,49.37872Z"/><path class="cls-2" d="M66.587,84.2805q-1.07484.54139-2.18683,1.01114a36.97577,36.97577,0,0,1-28.8004,0c-.19506-.08094-.3888-.16587-.58121-.25212-.00928-.22426-.01327-.44985-.01327-.67675a16.53034,16.53034,0,0,1,.10351-1.85775,16.2772,16.2772,0,0,1,.8121-3.5828,16.01521,16.01521,0,0,1,1.051-2.38853,16.193,16.193,0,0,1,2.62473-3.5828,15.68554,15.68554,0,0,1,7.21868-4.25823,15.10555,15.10555,0,0,1,1.61226-.33837h.00265a15.46817,15.46817,0,0,1,2.366-.18047,15.701,15.701,0,0,1,2.16162.14995h.00265a15.52388,15.52388,0,0,1,1.94931.40472,15.71358,15.71358,0,0,1,7.086,4.2224,16.19326,16.19326,0,0,1,2.62472,3.5828,16.01423,16.01423,0,0,1,1.051,2.38853,16.58023,16.58023,0,0,1,.9156,5.35828Z"/><rect class="cls-3" x="38.69565" y="64.3734" width="24.04319" height="11.80997" rx="5.19826"/><path class="cls-4" d="M52.46353,73.82257h0a4.631,4.631,0,0,1-4.61665-.21717l-5.55632-4.13778c-1.18161-.87995-1.03045-2.20939.33764-2.9694h0a4.631,4.631,0,0,1,4.61664.21717l5.55633,4.13778C53.98278,71.73312,53.83161,73.06256,52.46353,73.82257Z"/><path class="cls-4" d="M48.38153,73.70779h0a1.63515,1.63515,0,0,1,0-2.97733l6.01077-3.86608a4.652,4.652,0,0,1,4.629,0h0a1.63515,1.63515,0,0,1,0,2.97733L53.0105,73.70779A4.652,4.652,0,0,1,48.38153,73.70779Z"/><rect class="cls-5" x="46.5499" y="62.25026" width="8.09447" height="12.20806" rx="3.56285"/><path class="cls-6" d="M66.18894,43.341a9.08824,9.08824,0,0,1-9.08969,9.0897H43.16614A9.08948,9.08948,0,0,1,36.4809,37.1826c.0836-.09156.16986-.18179.25743-.26937a9.09,9.09,0,0,1,3.16216-2.05679,5.99145,5.99145,0,0,0,2.55971.58917H54.578a6.015,6.015,0,0,0,2.46948-.5268,5.94125,5.94125,0,0,0,1.05892-.61173,9.08409,9.08409,0,0,1,8.08252,9.034Z"/><ellipse class="cls-5" cx="36.10332" cy="51.50846" rx="2.82305" ry="2.73595"/><ellipse class="cls-7" cx="36.09028" cy="51.52507" rx="1.53978" ry="1.52507"/><ellipse class="cls-5" cx="64.63302" cy="51.50846" rx="2.82305" ry="2.73595"/><ellipse class="cls-7" cx="64.61998" cy="51.52507" rx="1.53978" ry="1.52507"/><path class="cls-5" d="M64.59659,47.58467V53.905a14.39556,14.39556,0,1,1-28.79111,0V47.58467a14.32225,14.32225,0,0,1,1.79008-6.95727,14.47071,14.47071,0,0,1,4.86464-5.18179H54.578a6.015,6.015,0,0,0,2.46948-.5268,14.38068,14.38068,0,0,1,7.54909,12.66586Z"/><rect class="cls-8" x="49.00877" y="50.79431" width="2.96016" height="4.51167" rx="1.30294"/><path class="cls-9" d="M56.76751,57.924c0,.10424-.00346.207-.00988.30976-.003.05137-.00692.10226-.01186.15314s-.01037.10178-.0168.15217c-.0163.12845-.03754.25591-.06373.38139-.01284.06324-.02717.12548-.043.18773-.01531.06176-.03211.12351-.04989.18477a5.37121,5.37121,0,0,1-1.61253,2.50079,6.117,6.117,0,0,1-.87592.64719q-.16821.10374-.34483.19712a6.96343,6.96343,0,0,1-6.582-.08992q-.13413-.07632-.26331-.15809a6.21533,6.21533,0,0,1-.701-.51725A5.37929,5.37929,0,0,1,44.48981,59.293c-.01778-.06126-.03458-.123-.05039-.18477-.01581-.06225-.02964-.12449-.043-.18773q-.02-.09411-.03557-.18971-.01557-.09484-.02816-.19119v-.00049a4.87207,4.87207,0,0,1-.03853-.61507,4.8195,4.8195,0,0,1,.03409-.57555H56.73342A4.8195,4.8195,0,0,1,56.76751,57.924Z"/><path class="cls-10" d="M54.08392,62.441q-.16821.10374-.34483.19712a6.96343,6.96343,0,0,1-6.582-.08992q-.13413-.07632-.26331-.15809a4.524,4.524,0,0,1,3.57679-2.11248A4.54962,4.54962,0,0,1,54.08392,62.441Z"/><path class="cls-11" d="M56.76751,57.924a4.91054,4.91054,0,0,1-.03869.61515,4.85879,4.85879,0,0,1-.15661.754H44.48981a4.8079,4.8079,0,0,1-.15706-.754,4.91054,4.91054,0,0,1-.03869-.61515,4.81523,4.81523,0,0,1,.03414-.57547H56.73337A4.81523,4.81523,0,0,1,56.76751,57.924Z"/><circle class="cls-12" cx="42.26961" cy="51.00508" r="1.16026"/><circle class="cls-12" cx="57.92777" cy="51.00508" r="1.16026"/><path class="cls-6" d="M66.98512,36.70623a7.34962,7.34962,0,0,1-2.15764,5.207,7.44581,7.44581,0,0,1-1.05095.87314,7.32718,7.32718,0,0,1-4.15605,1.2845H43.82962A7.36311,7.36311,0,0,1,36.4809,37.1826c.0836-.09156.16986-.18179.25743-.26937a9.09,9.09,0,0,1,3.16216-2.05679,5.99145,5.99145,0,0,0,2.55971.58917H54.578a6.015,6.015,0,0,0,2.46948-.5268,6.06057,6.06057,0,0,0,1.79936-1.242,6.01178,6.01178,0,0,0,1.76884-4.26751A7.36433,7.36433,0,0,1,66.98512,36.70623Z"/><path class="cls-6" d="M57.0475,34.91881a6.015,6.015,0,0,1-2.46948.5268H42.46153a14.29924,14.29924,0,0,1,2.30493-1.19426H55.63693A14.28149,14.28149,0,0,1,57.0475,34.91881Z"/><path class="cls-6" d="M44.76646,34.25135a14.29924,14.29924,0,0,0-2.30493,1.19426H42.4602a5.99145,5.99145,0,0,1-2.55971-.58917,9.0421,9.0421,0,0,1,3.26565-.60509Z"/><path class="cls-6" d="M58.10642,34.30708a5.94125,5.94125,0,0,1-1.05892.61173,14.28149,14.28149,0,0,0-1.41057-.66746h1.46232A9.008,9.008,0,0,1,58.10642,34.30708Z"/><rect class="cls-6" x="38.45542" y="45.79592" width="7.0329" height="2.92953" rx="1.30652" transform="translate(-3.63498 3.4974) rotate(-4.57371)"/><rect class="cls-6" x="56.96145" y="43.74424" width="2.92953" height="7.0329" rx="1.30652" transform="translate(6.65703 101.73221) rotate(-85.42629)"/><line class="cls-13" x1="46.5499" y1="74.45832" x2="46.5499" y2="86.78786"/><line class="cls-13" x1="55.27135" y1="74.45832" x2="55.27135" y2="86.78786"/><path class="cls-14" d="M65.2501,35.69519a6.86624,6.86624,0,0,1-2.01573,4.86454,6.95635,6.95635,0,0,1-.98183.81572,6.84531,6.84531,0,0,1-3.88271,1.2"/><rect class="cls-15" width="100" height="100"/><path class="cls-1" d="M187.26242,49.33435a39.02121,39.02121,0,0,1-21.0716,34.94954q-1.06676.54139-2.17038,1.01115a36.44326,36.44326,0,0,1-28.58363,0c-.19359-.081-.38587-.16587-.57683-.25213a38.94443,38.94443,0,0,1-22.66514-35.70856c0-21.47291,16.8046-38.88,37.53379-38.88S187.26242,27.86144,187.26242,49.33435Z"/><path class="cls-2" d="M166.43446,84.23612q-1.06676.54139-2.17038,1.01115a36.44315,36.44315,0,0,1-28.58363,0c-.19359-.081-.38587-.16587-.57683-.25213-.00922-.22426-.01317-.44984-.01317-.67675a16.6543,16.6543,0,0,1,.10273-1.85774,16.38174,16.38174,0,0,1,.806-3.5828,16.25479,16.25479,0,0,1,3.648-5.97134,15.54371,15.54371,0,0,1,7.16435-4.25822,14.89261,14.89261,0,0,1,1.60013-.33838h.00262a15.23863,15.23863,0,0,1,2.34817-.18046,15.46587,15.46587,0,0,1,2.14535.14995h.00264a15.30578,15.30578,0,0,1,1.93464.40472,15.57261,15.57261,0,0,1,7.03265,4.22239,16.25479,16.25479,0,0,1,3.648,5.97134,16.69633,16.69633,0,0,1,.90872,5.35827Z"/><rect class="cls-3" x="138.753" y="64.32903" width="23.86223" height="11.80997" rx="5.19826"/><path class="cls-4" d="M152.41725,73.77819h0a4.5664,4.5664,0,0,1-4.5819-.21717l-5.51451-4.13778c-1.17272-.87994-1.02269-2.20939.33511-2.96939h0a4.5664,4.5664,0,0,1,4.5819.21717l5.5145,4.13778C153.92507,71.68874,153.775,73.01819,152.41725,73.77819Z"/><path class="cls-4" d="M148.366,73.66341h0a1.6403,1.6403,0,0,1,0-2.97732L154.3315,66.82a4.5869,4.5869,0,0,1,4.59414,0h0a1.6403,1.6403,0,0,1,0,2.97732l-5.96553,3.86608A4.58683,4.58683,0,0,1,148.366,73.66341Z"/><rect class="cls-5" x="146.54813" y="62.20589" width="8.03355" height="12.20806" rx="3.56285"/><path class="cls-6" d="M166.03936,43.29667a9.12248,9.12248,0,0,1-2.64185,6.4278,8.963,8.963,0,0,1-6.37943,2.66189H143.18985a8.98593,8.98593,0,0,1-7.30526-3.75663,9.14212,9.14212,0,0,1,.67034-11.4915c.083-.09156.16857-.18179.25549-.26937a9.01492,9.01492,0,0,1,3.13835-2.05679,5.9096,5.9096,0,0,0,2.54045.58917h12.02661a5.93523,5.93523,0,0,0,3.50184-1.13854,9.08047,9.08047,0,0,1,8.02169,9.034Z"/><ellipse class="cls-5" cx="136.18019" cy="51.46409" rx="2.8018" ry="2.73595"/><circle class="cls-7" cx="136.16724" cy="51.4807" r="1.5282"/><ellipse class="cls-5" cx="164.49515" cy="51.46409" rx="2.8018" ry="2.73595"/><circle class="cls-7" cx="164.4822" cy="51.4807" r="1.5282"/><path class="cls-5" d="M164.459,47.54029v6.32033A14.34133,14.34133,0,0,1,150.17245,68.2555a14.1936,14.1936,0,0,1-10.10384-4.21575,14.40936,14.40936,0,0,1-4.184-10.17913V47.54029a14.41107,14.41107,0,0,1,6.60463-12.139h12.02661a5.93162,5.93162,0,0,0,2.45089-.52681A14.41232,14.41232,0,0,1,164.459,47.54029Z"/><rect class="cls-8" x="148.9885" y="50.74993" width="2.93788" height="4.51167" rx="1.30294"/><path class="cls-9" d="M156.68884,57.87963c0,.10424-.00343.207-.00981.30976-.00294.05138-.00686.10227-.01176.15315s-.0103.10177-.01667.15216c-.01618.12845-.03727.25591-.06325.3814-.01275.06323-.027.12548-.04266.18773-.0152.06175-.03187.12351-.04952.18477a5.37569,5.37569,0,0,1-1.60039,2.50079,6.07368,6.07368,0,0,1-.86933.64718q-.167.10375-.34223.19712a6.86518,6.86518,0,0,1-6.53246-.08991q-.13313-.07634-.26134-.15809a6.17231,6.17231,0,0,1-.69575-.51725,5.38255,5.38255,0,0,1-1.69012-2.57984c-.01765-.06126-.03432-.123-.05-.18477-.01569-.06225-.02942-.1245-.04265-.18773q-.01986-.09412-.03531-.18971-.01544-.09486-.028-.19119v-.0005a4.90965,4.90965,0,0,1-.03824-.61507,4.85749,4.85749,0,0,1,.03383-.57555H156.655A4.85749,4.85749,0,0,1,156.68884,57.87963Z"/><path class="cls-10" d="M154.02545,62.39657q-.167.10375-.34223.19712a6.86518,6.86518,0,0,1-6.53246-.08991q-.13313-.07634-.26134-.15809a4.04651,4.04651,0,0,1,7.136.05088Z"/><path class="cls-11" d="M156.68884,57.87961a4.94691,4.94691,0,0,1-.0384.61515,4.892,4.892,0,0,1-.15542.75406H144.50355a4.84029,4.84029,0,0,1-.15587-.75406,4.94691,4.94691,0,0,1-.0384-.61515,4.85073,4.85073,0,0,1,.03388-.57546H156.655A4.85073,4.85073,0,0,1,156.68884,57.87961Z"/><ellipse class="cls-12" cx="142.30006" cy="51.05085" rx="1.15153" ry="0.59538"/><path class="cls-6" d="M166.82955,36.66185A7.37983,7.37983,0,0,1,163.6451,42.742a7.23393,7.23393,0,0,1-4.12476,1.2845h-15.672a7.34145,7.34145,0,0,1-7.2934-6.88827c.083-.09156.16857-.18179.25549-.26937a9.01492,9.01492,0,0,1,3.13835-2.05679,5.9096,5.9096,0,0,0,2.54045.58917h12.02661a5.97117,5.97117,0,0,0,4.23671-1.76884,6.03474,6.03474,0,0,0,1.75553-4.26751A7.346,7.346,0,0,1,166.82955,36.66185Z"/><path class="cls-6" d="M156.96672,34.87443a5.93162,5.93162,0,0,1-2.45089.52681h-12.0253a14.15337,14.15337,0,0,1,2.28759-1.19427h10.78866A14.1316,14.1316,0,0,1,156.96672,34.87443Z"/><path class="cls-6" d="M144.77812,34.207a14.15337,14.15337,0,0,0-2.28759,1.19427h-.00131a5.9096,5.9096,0,0,1-2.54045-.58917,8.91421,8.91421,0,0,1,3.24108-.6051Z"/><path class="cls-6" d="M158.01767,34.2627a5.88542,5.88542,0,0,1-1.051.61173,14.1316,14.1316,0,0,0-1.39994-.66746h1.4513A8.87357,8.87357,0,0,1,158.01767,34.2627Z"/><path class="cls-6" d="M144.3068,48.50019l-4.37262.35245a1.29976,1.29976,0,0,1-1.396-1.19818l-.025-.31548a1.3035,1.3035,0,0,1,1.18915-1.40654L144.075,45.58a1.29975,1.29975,0,0,1,1.396,1.19818l.025.31547A1.30352,1.30352,0,0,1,144.3068,48.50019Z"/><path class="cls-6" d="M156.03282,48.50019l4.37263.35244a1.29975,1.29975,0,0,0,1.396-1.19817l.025-.31548a1.3035,1.3035,0,0,0-1.18915-1.40654L156.26467,45.58a1.29975,1.29975,0,0,0-1.396,1.19818l-.025.31547A1.30351,1.30351,0,0,0,156.03282,48.50019Z"/><line class="cls-13" x1="146.54813" y1="74.41394" x2="146.54813" y2="86.74348"/><line class="cls-13" x1="155.20394" y1="74.41394" x2="155.20394" y2="86.74348"/><path class="cls-14" d="M165.10759,35.65082a6.89434,6.89434,0,0,1-2.975,5.68025,6.7581,6.7581,0,0,1-3.85348,1.2"/><rect class="cls-15" x="100" width="100" height="100"/><path class="cls-1" d="M387.26242,49.4231a39.02121,39.02121,0,0,1-21.0716,34.94954q-1.06676.54139-2.17038,1.01115a36.44326,36.44326,0,0,1-28.58363,0c-.19359-.081-.38587-.16587-.57683-.25213A38.94443,38.94443,0,0,1,312.19484,49.4231c0-21.47291,16.8046-38.88,37.53379-38.88S387.26242,27.95019,387.26242,49.4231Z"/><path class="cls-2" d="M362.8839,84.3045q-1.05662.54108-2.14973,1.01055a35.80021,35.80021,0,0,1-28.31167,0c-.19175-.0809-.3822-.16577-.57134-.252-.00913-.22412-.01305-.44957-.01305-.67634a16.79255,16.79255,0,0,1,.10176-1.85665,16.49754,16.49754,0,0,1,.79831-3.58067,16.27839,16.27839,0,0,1,3.61331-5.96778,15.36905,15.36905,0,0,1,7.09618-4.2557,14.63888,14.63888,0,0,1,1.5849-.33817h.00261a14.96152,14.96152,0,0,1,2.32583-.18036,15.18446,15.18446,0,0,1,2.12493.14986h.00261a15.04057,15.04057,0,0,1,1.91623.40448,15.39916,15.39916,0,0,1,6.96574,4.21989,16.27839,16.27839,0,0,1,3.61331,5.96778,16.82467,16.82467,0,0,1,.90007,5.35509Z"/><rect class="cls-3" x="335.46582" y="64.40924" width="23.63519" height="11.80295" rx="5.19826"/><path class="cls-4" d="M349.00006,73.85279h0a4.48838,4.48838,0,0,1-4.5383-.217l-5.462-4.13533c-1.16156-.87942-1.013-2.20807.33192-2.96762h0a4.4884,4.4884,0,0,1,4.53831.217l5.462,4.13533C350.49353,71.76458,350.34493,73.09323,349.00006,73.85279Z"/><path class="cls-4" d="M344.98733,73.73808h0a1.64556,1.64556,0,0,1,0-2.97555l5.90877-3.86379a4.50817,4.50817,0,0,1,4.55042,0h0a1.64556,1.64556,0,0,1,0,2.97555l-5.90877,3.86379A4.50817,4.50817,0,0,1,344.98733,73.73808Z"/><rect class="cls-5" x="343.18678" y="62.28736" width="7.95711" height="12.2008" rx="3.56285"/><path class="cls-6" d="M362.64543,43.38542a9.12248,9.12248,0,0,1-2.64185,6.4278,8.963,8.963,0,0,1-6.37943,2.66189H339.79592a8.98593,8.98593,0,0,1-7.30526-3.75663A9.14212,9.14212,0,0,1,333.161,37.227c.083-.09156.16857-.18179.25549-.26937a9.01492,9.01492,0,0,1,3.13835-2.05679,5.9096,5.9096,0,0,0,2.54045.58917H351.1219a5.93523,5.93523,0,0,0,3.50184-1.13854,9.08047,9.08047,0,0,1,8.02169,9.034Z"/><ellipse class="cls-5" cx="332.78626" cy="51.55284" rx="2.8018" ry="2.73595"/><circle class="cls-7" cx="332.77331" cy="51.56945" r="1.5282"/><ellipse class="cls-5" cx="360.96304" cy="51.55194" rx="2.77515" ry="2.73432"/><ellipse class="cls-7" cx="360.95022" cy="51.56854" rx="1.51365" ry="1.52417"/><path class="cls-5" d="M360.92723,47.63048V53.947a14.27025,14.27025,0,0,1-14.15061,14.38634,13.99656,13.99656,0,0,1-10.00771-4.21325A14.46694,14.46694,0,0,1,332.6247,53.947V47.63048a14.4348,14.4348,0,0,1,6.54178-12.13184h11.91219a5.83086,5.83086,0,0,0,2.42757-.5265,14.21829,14.21829,0,0,1,3.27677,2.48525,14.48271,14.48271,0,0,1,4.14422,10.17309Z"/><rect class="cls-8" x="345.60393" y="50.83821" width="2.90992" height="4.50899" rx="1.30294"/><path class="cls-9" d="M353.231,57.96367c0,.10418-.0034.20688-.00972.30958-.00291.05135-.0068.1022-.01165.15306s-.0102.10171-.01652.15207c-.016.12837-.0369.25575-.06264.38117-.01263.06319-.02671.12541-.04226.18762-.015.06171-.03156.12343-.049.18465a5.37815,5.37815,0,0,1-1.58516,2.49931,6.02022,6.02022,0,0,1-.861.6468q-.16536.10368-.339.197a6.74656,6.74656,0,0,1-6.47031-.08986q-.13185-.07629-.25884-.158a6.11555,6.11555,0,0,1-.68914-.51694,5.3835,5.3835,0,0,1-1.674-2.57831c-.01749-.06122-.034-.12294-.04954-.18465-.01554-.06221-.02914-.12443-.04225-.18762q-.01966-.09407-.035-.1896-.0153-.0948-.02768-.19108v-.00049a4.94989,4.94989,0,0,1-.03788-.61471,4.89664,4.89664,0,0,1,.03351-.5752H353.1975A4.89664,4.89664,0,0,1,353.231,57.96367Z"/><path class="cls-10" d="M350.593,62.47793q-.16536.10368-.339.197a6.74656,6.74656,0,0,1-6.47031-.08986q-.13185-.07629-.25884-.158a3.99123,3.99123,0,0,1,7.06813.05086Z"/><path class="cls-11" d="M353.231,57.96365a4.9878,4.9878,0,0,1-.038.61479,4.92745,4.92745,0,0,1-.154.75361H341.16166a4.87489,4.87489,0,0,1-.1544-.75361,4.9878,4.9878,0,0,1-.038-.61479,4.89,4.89,0,0,1,.03356-.57512h12.19465A4.89,4.89,0,0,1,353.231,57.96365Z"/><path class="cls-6" d="M363.27523,36.7585a7.37916,7.37916,0,0,1-3.15415,6.07653,7.12075,7.12075,0,0,1-4.08552,1.28374H340.51267a7.20632,7.20632,0,0,1-6.12828-3.44142,7.38545,7.38545,0,0,1-1.09573-3.44276c.08218-.0915.167-.18168.25306-.2692a8.92234,8.92234,0,0,1,3.10849-2.05557,5.81044,5.81044,0,0,0,2.51627.58882h11.91219a5.84709,5.84709,0,0,0,3.46852-1.13786,5.91745,5.91745,0,0,0,.72788-.62994,6.05874,6.05874,0,0,0,1.73882-4.265A7.32054,7.32054,0,0,1,363.27523,36.7585Z"/><path class="cls-6" d="M353.50624,34.97214a5.83086,5.83086,0,0,1-2.42757.5265H339.16779a13.97448,13.97448,0,0,1,2.26582-1.19356h10.686A13.94168,13.94168,0,0,1,353.50624,34.97214Z"/><path class="cls-6" d="M341.43361,34.30508a13.97448,13.97448,0,0,0-2.26582,1.19356h-.00131a5.81044,5.81044,0,0,1-2.51627-.58882,8.75989,8.75989,0,0,1,3.21024-.60474Z"/><path class="cls-6" d="M354.54719,34.36078a5.81717,5.81717,0,0,1-1.041.61136,13.94168,13.94168,0,0,0-1.38662-.66706h1.4375A8.711,8.711,0,0,1,354.54719,34.36078Z"/><path class="cls-6" d="M340.96678,48.5898l-4.331.35224a1.29108,1.29108,0,0,1-1.38268-1.19746l-.02481-.31529a1.29929,1.29929,0,0,1,1.17785-1.40571l4.331-.35224a1.29107,1.29107,0,0,1,1.38267,1.19746l.02481.31529A1.29928,1.29928,0,0,1,340.96678,48.5898Z"/><path class="cls-6" d="M352.58123,48.5898l4.331.35224a1.29108,1.29108,0,0,0,1.38268-1.19746l.02481-.31529a1.29929,1.29929,0,0,0-1.17785-1.40571l-4.331-.35224a1.29107,1.29107,0,0,0-1.38267,1.19747l-.02481.31529A1.29927,1.29927,0,0,0,352.58123,48.5898Z"/><line class="cls-13" x1="343.18678" y1="74.48816" x2="343.18678" y2="86.81037"/><line class="cls-13" x1="351.76023" y1="74.48816" x2="351.76023" y2="86.81037"/><path class="cls-14" d="M361.56965,35.74807A6.89386,6.89386,0,0,1,358.623,41.425a6.65238,6.65238,0,0,1-3.81681,1.1993"/><rect class="cls-15" x="300" width="100" height="100"/><path class="cls-1" d="M487.81844,49.37872A38.98646,38.98646,0,0,1,466.587,84.32827q-1.07484.54139-2.18683,1.01114a36.97577,36.97577,0,0,1-28.8004,0c-.19506-.08094-.3888-.16587-.58121-.25213a38.9278,38.9278,0,0,1-22.837-35.70856c0-21.47291,16.932-38.88,37.81844-38.88S487.81844,27.90581,487.81844,49.37872Z"/><path class="cls-2" d="M466.587,84.2805q-1.07484.54139-2.18683,1.01114a36.97577,36.97577,0,0,1-28.8004,0c-.19506-.08094-.3888-.16587-.58121-.25212-.00928-.22426-.01327-.44985-.01327-.67675a16.53034,16.53034,0,0,1,.10351-1.85775,16.2772,16.2772,0,0,1,.8121-3.5828,16.01521,16.01521,0,0,1,1.051-2.38853,16.193,16.193,0,0,1,2.62473-3.5828,15.68554,15.68554,0,0,1,7.21868-4.25823,15.10555,15.10555,0,0,1,1.61226-.33837h.00265a15.46817,15.46817,0,0,1,2.366-.18047,15.701,15.701,0,0,1,2.16162.14995h.00265a15.52388,15.52388,0,0,1,1.94931.40472,15.71358,15.71358,0,0,1,7.086,4.2224,16.19326,16.19326,0,0,1,2.62472,3.5828,16.01423,16.01423,0,0,1,1.051,2.38853,16.58023,16.58023,0,0,1,.9156,5.35828Z"/><rect class="cls-3" x="438.69565" y="64.3734" width="24.04319" height="11.80997" rx="5.19826"/><path class="cls-4" d="M452.46353,73.82257h0a4.631,4.631,0,0,1-4.61665-.21717l-5.55632-4.13778c-1.18161-.87995-1.03045-2.20939.33764-2.9694h0a4.631,4.631,0,0,1,4.61664.21717l5.55633,4.13778C453.98278,71.73312,453.83161,73.06256,452.46353,73.82257Z"/><path class="cls-4" d="M448.38153,73.70779h0a1.63515,1.63515,0,0,1,0-2.97733l6.01077-3.86608a4.652,4.652,0,0,1,4.629,0h0a1.63515,1.63515,0,0,1,0,2.97733l-6.01077,3.86608A4.652,4.652,0,0,1,448.38153,73.70779Z"/><rect class="cls-5" x="446.5499" y="62.25026" width="8.09447" height="12.20806" rx="3.56285"/><path class="cls-6" d="M466.18894,43.341a9.08824,9.08824,0,0,1-9.08969,9.0897H443.16614A9.08948,9.08948,0,0,1,436.4809,37.1826c.0836-.09156.16986-.18179.25743-.26937a9.09,9.09,0,0,1,3.16216-2.05679,5.99145,5.99145,0,0,0,2.55971.58917H454.578a6.015,6.015,0,0,0,2.46948-.5268,5.94125,5.94125,0,0,0,1.05892-.61173,9.08409,9.08409,0,0,1,8.08252,9.034Z"/><ellipse class="cls-5" cx="436.10332" cy="51.50846" rx="2.82305" ry="2.73595"/><ellipse class="cls-7" cx="436.09028" cy="51.52507" rx="1.53978" ry="1.52507"/><ellipse class="cls-5" cx="464.63302" cy="51.50846" rx="2.82305" ry="2.73595"/><ellipse class="cls-7" cx="464.61998" cy="51.52507" rx="1.53978" ry="1.52507"/><path class="cls-5" d="M464.59659,47.58467V53.905a14.39556,14.39556,0,1,1-28.79111,0V47.58467a14.32225,14.32225,0,0,1,1.79008-6.95727,14.47071,14.47071,0,0,1,4.86464-5.18179H454.578a6.015,6.015,0,0,0,2.46948-.5268,14.38068,14.38068,0,0,1,7.54909,12.66586Z"/><rect class="cls-8" x="449.00877" y="50.79431" width="2.96016" height="4.51167" rx="1.30294"/><path class="cls-9" d="M456.76751,57.924c0,.10424-.00346.207-.00988.30976-.003.05137-.00692.10226-.01186.15314s-.01037.10178-.0168.15217c-.0163.12845-.03754.25591-.06373.38139-.01284.06324-.02717.12548-.043.18773-.01531.06176-.03211.12351-.04989.18477a5.37121,5.37121,0,0,1-1.61253,2.50079,6.117,6.117,0,0,1-.87592.64719q-.16821.10374-.34483.19712a6.96343,6.96343,0,0,1-6.582-.08992q-.13413-.07632-.26331-.15809a6.21533,6.21533,0,0,1-.701-.51725,5.37929,5.37929,0,0,1-1.70293-2.57984c-.01778-.06126-.03458-.123-.05039-.18477-.01581-.06225-.02964-.12449-.043-.18773q-.02-.09411-.03557-.18971-.01557-.09484-.02816-.19119v-.00049a4.87207,4.87207,0,0,1-.03853-.61507,4.8195,4.8195,0,0,1,.03409-.57555h12.40515A4.8195,4.8195,0,0,1,456.76751,57.924Z"/><path class="cls-10" d="M454.08392,62.441q-.16821.10374-.34483.19712a6.96343,6.96343,0,0,1-6.582-.08992q-.13413-.07632-.26331-.15809a4.09184,4.09184,0,0,1,7.19014.05089Z"/><path class="cls-11" d="M456.76751,57.924a4.91054,4.91054,0,0,1-.03869.61515,4.85879,4.85879,0,0,1-.15661.754h-12.0824a4.8079,4.8079,0,0,1-.15706-.754,4.91054,4.91054,0,0,1-.03869-.61515,4.81523,4.81523,0,0,1,.03414-.57547h12.40517A4.81523,4.81523,0,0,1,456.76751,57.924Z"/><circle class="cls-12" cx="442.26961" cy="51.00508" r="1.16026"/><circle class="cls-12" cx="457.92777" cy="51.00508" r="1.16026"/><path class="cls-6" d="M466.98512,36.70623a7.34962,7.34962,0,0,1-2.15764,5.207,7.44581,7.44581,0,0,1-1.051.87314,7.32718,7.32718,0,0,1-4.156,1.2845H443.82962a7.36311,7.36311,0,0,1-7.34872-6.88827c.0836-.09156.16986-.18179.25743-.26937a9.09,9.09,0,0,1,3.16216-2.05679,5.99145,5.99145,0,0,0,2.55971.58917H454.578a6.015,6.015,0,0,0,2.46948-.5268,6.06057,6.06057,0,0,0,1.79936-1.242,6.01178,6.01178,0,0,0,1.76884-4.26751A7.36433,7.36433,0,0,1,466.98512,36.70623Z"/><path class="cls-6" d="M457.0475,34.91881a6.015,6.015,0,0,1-2.46948.5268H442.46153a14.29924,14.29924,0,0,1,2.30493-1.19426h10.87047A14.28149,14.28149,0,0,1,457.0475,34.91881Z"/><path class="cls-6" d="M444.76646,34.25135a14.29924,14.29924,0,0,0-2.30493,1.19426h-.00133a5.99145,5.99145,0,0,1-2.55971-.58917,9.0421,9.0421,0,0,1,3.26565-.60509Z"/><path class="cls-6" d="M458.10642,34.30708a5.94125,5.94125,0,0,1-1.05892.61173,14.28149,14.28149,0,0,0-1.41057-.66746h1.46232A9.008,9.008,0,0,1,458.10642,34.30708Z"/><rect class="cls-6" x="438.45542" y="45.79592" width="7.0329" height="2.92953" rx="1.30652" transform="translate(-2.36121 35.39398) rotate(-4.57371)"/><rect class="cls-6" x="456.96145" y="43.74424" width="2.92953" height="7.0329" rx="1.30652" transform="translate(374.76045 500.45844) rotate(-85.42629)"/><line class="cls-13" x1="446.5499" y1="74.45832" x2="446.5499" y2="86.78786"/><line class="cls-13" x1="455.27135" y1="74.45832" x2="455.27135" y2="86.78786"/><path class="cls-14" d="M465.2501,35.69519a6.86624,6.86624,0,0,1-2.01573,4.86454,6.95635,6.95635,0,0,1-.98183.81572,6.84531,6.84531,0,0,1-3.88271,1.2"/><rect class="cls-15" x="400" width="100" height="100"/><ellipse class="cls-12" cx="157.84037" cy="51.05085" rx="1.15153" ry="0.59538"/><path class="cls-1" d="M287.26242,49.33435a39.02121,39.02121,0,0,1-21.0716,34.94954q-1.06676.54139-2.17038,1.01115a36.44326,36.44326,0,0,1-28.58363,0c-.19359-.081-.38587-.16587-.57683-.25213a38.94443,38.94443,0,0,1-22.66514-35.70856c0-21.47291,16.8046-38.88,37.53379-38.88S287.26242,27.86144,287.26242,49.33435Z"/><path class="cls-2" d="M266.43446,84.23612q-1.06676.54139-2.17038,1.01115a36.44315,36.44315,0,0,1-28.58363,0c-.19359-.081-.38587-.16587-.57683-.25213-.00922-.22426-.01317-.44984-.01317-.67675a16.6543,16.6543,0,0,1,.10273-1.85774,16.38174,16.38174,0,0,1,.806-3.5828,16.25479,16.25479,0,0,1,3.648-5.97134,15.54371,15.54371,0,0,1,7.16435-4.25822,14.89261,14.89261,0,0,1,1.60013-.33838h.00262a15.23863,15.23863,0,0,1,2.34817-.18046,15.46587,15.46587,0,0,1,2.14535.14995h.00264a15.30578,15.30578,0,0,1,1.93464.40472,15.57261,15.57261,0,0,1,7.03265,4.22239,16.25479,16.25479,0,0,1,3.648,5.97134,16.69633,16.69633,0,0,1,.90872,5.35827Z"/><rect class="cls-3" x="238.753" y="64.32903" width="23.86223" height="11.80997" rx="5.19826"/><path class="cls-4" d="M252.41725,73.77819h0a4.5664,4.5664,0,0,1-4.5819-.21717l-5.51451-4.13778c-1.17272-.87994-1.02269-2.20939.33511-2.96939h0a4.5664,4.5664,0,0,1,4.5819.21717l5.5145,4.13778C253.92507,71.68874,253.775,73.01819,252.41725,73.77819Z"/><path class="cls-4" d="M248.366,73.66341h0a1.6403,1.6403,0,0,1,0-2.97732L254.3315,66.82a4.5869,4.5869,0,0,1,4.59414,0h0a1.6403,1.6403,0,0,1,0,2.97732l-5.96553,3.86608A4.58683,4.58683,0,0,1,248.366,73.66341Z"/><rect class="cls-5" x="246.54813" y="62.20589" width="8.03355" height="12.20806" rx="3.56285"/><path class="cls-6" d="M266.03936,43.29667a9.12248,9.12248,0,0,1-2.64185,6.4278,8.963,8.963,0,0,1-6.37943,2.66189H243.18985a8.98593,8.98593,0,0,1-7.30526-3.75663,9.14212,9.14212,0,0,1,.67034-11.4915c.083-.09156.16857-.18179.25549-.26937a9.01492,9.01492,0,0,1,3.13835-2.05679,5.9096,5.9096,0,0,0,2.54045.58917h12.02661a5.93523,5.93523,0,0,0,3.50184-1.13854,9.08047,9.08047,0,0,1,8.02169,9.034Z"/><ellipse class="cls-5" cx="236.18019" cy="51.46409" rx="2.8018" ry="2.73595"/><circle class="cls-7" cx="236.16724" cy="51.4807" r="1.5282"/><ellipse class="cls-5" cx="264.49515" cy="51.46409" rx="2.8018" ry="2.73595"/><circle class="cls-7" cx="264.4822" cy="51.4807" r="1.5282"/><path class="cls-5" d="M264.459,47.54029v6.32033A14.34133,14.34133,0,0,1,250.17245,68.2555a14.1936,14.1936,0,0,1-10.10384-4.21575,14.40936,14.40936,0,0,1-4.184-10.17913V47.54029a14.41107,14.41107,0,0,1,6.60463-12.139h12.02661a5.93162,5.93162,0,0,0,2.45089-.52681A14.41232,14.41232,0,0,1,264.459,47.54029Z"/><rect class="cls-8" x="248.9885" y="50.74993" width="2.93788" height="4.51167" rx="1.30294"/><path class="cls-9" d="M256.68884,57.87963c0,.10424-.00343.207-.00981.30976-.00294.05138-.00686.10227-.01176.15315s-.0103.10177-.01667.15216c-.01618.12845-.03727.25591-.06325.3814-.01275.06323-.027.12548-.04266.18773-.0152.06175-.03187.12351-.04952.18477a5.37569,5.37569,0,0,1-1.60039,2.50079,6.07368,6.07368,0,0,1-.86933.64718q-.167.10375-.34223.19712a6.86518,6.86518,0,0,1-6.53246-.08991q-.13313-.07634-.26134-.15809a6.17231,6.17231,0,0,1-.69575-.51725,5.38255,5.38255,0,0,1-1.69012-2.57984c-.01765-.06126-.03432-.123-.05-.18477-.01569-.06225-.02942-.1245-.04265-.18773q-.01986-.09412-.03531-.18971-.01544-.09486-.028-.19119v-.0005a4.90965,4.90965,0,0,1-.03824-.61507,4.85749,4.85749,0,0,1,.03383-.57555H256.655A4.85749,4.85749,0,0,1,256.68884,57.87963Z"/><path class="cls-10" d="M254.02545,62.39657q-.167.10375-.34223.19712a6.86518,6.86518,0,0,1-6.53246-.08991q-.13313-.07634-.26134-.15809a4.04651,4.04651,0,0,1,7.136.05088Z"/><path class="cls-11" d="M256.68884,57.87961a4.94691,4.94691,0,0,1-.0384.61515,4.892,4.892,0,0,1-.15542.75406H244.50355a4.84029,4.84029,0,0,1-.15587-.75406,4.94691,4.94691,0,0,1-.0384-.61515,4.85073,4.85073,0,0,1,.03388-.57546H256.655A4.85073,4.85073,0,0,1,256.68884,57.87961Z"/><ellipse class="cls-12" cx="242.30006" cy="51.05085" rx="1.15153" ry="0.59538"/><path class="cls-6" d="M266.82955,36.66185A7.37983,7.37983,0,0,1,263.6451,42.742a7.23393,7.23393,0,0,1-4.12476,1.2845h-15.672a7.34145,7.34145,0,0,1-7.2934-6.88827c.083-.09156.16857-.18179.25549-.26937a9.01492,9.01492,0,0,1,3.13835-2.05679,5.9096,5.9096,0,0,0,2.54045.58917h12.02661a5.97117,5.97117,0,0,0,4.23671-1.76884,6.03474,6.03474,0,0,0,1.75553-4.26751A7.346,7.346,0,0,1,266.82955,36.66185Z"/><path class="cls-6" d="M256.96672,34.87443a5.93162,5.93162,0,0,1-2.45089.52681h-12.0253a14.15337,14.15337,0,0,1,2.28759-1.19427h10.78866A14.1316,14.1316,0,0,1,256.96672,34.87443Z"/><path class="cls-6" d="M244.77812,34.207a14.15337,14.15337,0,0,0-2.28759,1.19427h-.00131a5.9096,5.9096,0,0,1-2.54045-.58917,8.91421,8.91421,0,0,1,3.24108-.6051Z"/><path class="cls-6" d="M258.01767,34.2627a5.88542,5.88542,0,0,1-1.051.61173,14.1316,14.1316,0,0,0-1.39994-.66746h1.4513A8.87357,8.87357,0,0,1,258.01767,34.2627Z"/><path class="cls-6" d="M244.3068,48.50019l-4.37262.35245a1.29976,1.29976,0,0,1-1.396-1.19818l-.025-.31548a1.3035,1.3035,0,0,1,1.18915-1.40654L244.075,45.58a1.29975,1.29975,0,0,1,1.396,1.19818l.025.31547A1.30352,1.30352,0,0,1,244.3068,48.50019Z"/><path class="cls-6" d="M256.03282,48.50019l4.37263.35244a1.29975,1.29975,0,0,0,1.396-1.19817l.025-.31548a1.3035,1.3035,0,0,0-1.18915-1.40654L256.26467,45.58a1.29975,1.29975,0,0,0-1.396,1.19818l-.025.31547A1.30351,1.30351,0,0,0,256.03282,48.50019Z"/><line class="cls-13" x1="246.54813" y1="74.41394" x2="246.54813" y2="86.74348"/><line class="cls-13" x1="255.20394" y1="74.41394" x2="255.20394" y2="86.74348"/><path class="cls-14" d="M265.10759,35.65082a6.89434,6.89434,0,0,1-2.975,5.68025,6.7581,6.7581,0,0,1-3.85348,1.2"/><rect class="cls-15" x="200" width="100" height="100"/><ellipse class="cls-12" cx="257.84037" cy="51.05085" rx="1.15153" ry="0.59538"/><path class="cls-1" d="M287.26242,49.33435a39.02121,39.02121,0,0,1-21.0716,34.94954q-1.06676.54139-2.17038,1.01115a36.44326,36.44326,0,0,1-28.58363,0c-.19359-.081-.38587-.16587-.57683-.25213a38.94443,38.94443,0,0,1-22.66514-35.70856c0-21.47291,16.8046-38.88,37.53379-38.88S287.26242,27.86144,287.26242,49.33435Z"/><path class="cls-2" d="M266.43446,84.23612q-1.06676.54139-2.17038,1.01115a36.44315,36.44315,0,0,1-28.58363,0c-.19359-.081-.38587-.16587-.57683-.25213-.00922-.22426-.01317-.44984-.01317-.67675a16.6543,16.6543,0,0,1,.10273-1.85774,16.38174,16.38174,0,0,1,.806-3.5828,16.25479,16.25479,0,0,1,3.648-5.97134,15.54371,15.54371,0,0,1,7.16435-4.25822,14.89261,14.89261,0,0,1,1.60013-.33838h.00262a15.23863,15.23863,0,0,1,2.34817-.18046,15.46587,15.46587,0,0,1,2.14535.14995h.00264a15.30578,15.30578,0,0,1,1.93464.40472,15.57261,15.57261,0,0,1,7.03265,4.22239,16.25479,16.25479,0,0,1,3.648,5.97134,16.69633,16.69633,0,0,1,.90872,5.35827Z"/><rect class="cls-3" x="238.753" y="64.32903" width="23.86223" height="11.80997" rx="5.19826"/><path class="cls-4" d="M252.41725,73.77819h0a4.5664,4.5664,0,0,1-4.5819-.21717l-5.51451-4.13778c-1.17272-.87994-1.02269-2.20939.33511-2.96939h0a4.5664,4.5664,0,0,1,4.5819.21717l5.5145,4.13778C253.92507,71.68874,253.775,73.01819,252.41725,73.77819Z"/><path class="cls-4" d="M248.366,73.66341h0a1.6403,1.6403,0,0,1,0-2.97732L254.3315,66.82a4.5869,4.5869,0,0,1,4.59414,0h0a1.6403,1.6403,0,0,1,0,2.97732l-5.96553,3.86608A4.58683,4.58683,0,0,1,248.366,73.66341Z"/><rect class="cls-5" x="246.54813" y="62.20589" width="8.03355" height="12.20806" rx="3.56285"/><path class="cls-6" d="M266.03936,43.29667a9.12248,9.12248,0,0,1-2.64185,6.4278,8.963,8.963,0,0,1-6.37943,2.66189H243.18985a8.98593,8.98593,0,0,1-7.30526-3.75663,9.14212,9.14212,0,0,1,.67034-11.4915c.083-.09156.16857-.18179.25549-.26937a9.01492,9.01492,0,0,1,3.13835-2.05679,5.9096,5.9096,0,0,0,2.54045.58917h12.02661a5.93523,5.93523,0,0,0,3.50184-1.13854,9.08047,9.08047,0,0,1,8.02169,9.034Z"/><ellipse class="cls-5" cx="236.18019" cy="51.46409" rx="2.8018" ry="2.73595"/><circle class="cls-7" cx="236.16724" cy="51.4807" r="1.5282"/><ellipse class="cls-5" cx="264.49515" cy="51.46409" rx="2.8018" ry="2.73595"/><circle class="cls-7" cx="264.4822" cy="51.4807" r="1.5282"/><path class="cls-5" d="M264.459,47.54029v6.32033A14.34133,14.34133,0,0,1,250.17245,68.2555a14.1936,14.1936,0,0,1-10.10384-4.21575,14.40936,14.40936,0,0,1-4.184-10.17913V47.54029a14.41107,14.41107,0,0,1,6.60463-12.139h12.02661a5.93162,5.93162,0,0,0,2.45089-.52681A14.41232,14.41232,0,0,1,264.459,47.54029Z"/><rect class="cls-8" x="248.9885" y="50.74993" width="2.93788" height="4.51167" rx="1.30294"/><path class="cls-9" d="M256.68884,57.87963c0,.10424-.00343.207-.00981.30976-.00294.05138-.00686.10227-.01176.15315s-.0103.10177-.01667.15216c-.01618.12845-.03727.25591-.06325.3814-.01275.06323-.027.12548-.04266.18773-.0152.06175-.03187.12351-.04952.18477a5.37569,5.37569,0,0,1-1.60039,2.50079,6.07368,6.07368,0,0,1-.86933.64718q-.167.10375-.34223.19712a6.86518,6.86518,0,0,1-6.53246-.08991q-.13313-.07634-.26134-.15809a6.17231,6.17231,0,0,1-.69575-.51725,5.38255,5.38255,0,0,1-1.69012-2.57984c-.01765-.06126-.03432-.123-.05-.18477-.01569-.06225-.02942-.1245-.04265-.18773q-.01986-.09412-.03531-.18971-.01544-.09486-.028-.19119v-.0005a4.90965,4.90965,0,0,1-.03824-.61507,4.85749,4.85749,0,0,1,.03383-.57555H256.655A4.85749,4.85749,0,0,1,256.68884,57.87963Z"/><path class="cls-10" d="M254.02545,62.39657q-.167.10375-.34223.19712a6.86518,6.86518,0,0,1-6.53246-.08991q-.13313-.07634-.26134-.15809a4.04651,4.04651,0,0,1,7.136.05088Z"/><path class="cls-11" d="M256.68884,57.87961a4.94691,4.94691,0,0,1-.0384.61515,4.892,4.892,0,0,1-.15542.75406H244.50355a4.84029,4.84029,0,0,1-.15587-.75406,4.94691,4.94691,0,0,1-.0384-.61515,4.85073,4.85073,0,0,1,.03388-.57546H256.655A4.85073,4.85073,0,0,1,256.68884,57.87961Z"/><ellipse class="cls-12" cx="242.30006" cy="50.843" rx="1.15153" ry="0.20785"/><path class="cls-6" d="M266.82955,36.66185A7.37983,7.37983,0,0,1,263.6451,42.742a7.23393,7.23393,0,0,1-4.12476,1.2845h-15.672a7.34145,7.34145,0,0,1-7.2934-6.88827c.083-.09156.16857-.18179.25549-.26937a9.01492,9.01492,0,0,1,3.13835-2.05679,5.9096,5.9096,0,0,0,2.54045.58917h12.02661a5.97117,5.97117,0,0,0,4.23671-1.76884,6.03474,6.03474,0,0,0,1.75553-4.26751A7.346,7.346,0,0,1,266.82955,36.66185Z"/><path class="cls-6" d="M256.96672,34.87443a5.93162,5.93162,0,0,1-2.45089.52681h-12.0253a14.15337,14.15337,0,0,1,2.28759-1.19427h10.78866A14.1316,14.1316,0,0,1,256.96672,34.87443Z"/><path class="cls-6" d="M244.77812,34.207a14.15337,14.15337,0,0,0-2.28759,1.19427h-.00131a5.9096,5.9096,0,0,1-2.54045-.58917,8.91421,8.91421,0,0,1,3.24108-.6051Z"/><path class="cls-6" d="M258.01767,34.2627a5.88542,5.88542,0,0,1-1.051.61173,14.1316,14.1316,0,0,0-1.39994-.66746h1.4513A8.87357,8.87357,0,0,1,258.01767,34.2627Z"/><path class="cls-6" d="M244.3068,48.50019l-4.37262.35245a1.29976,1.29976,0,0,1-1.396-1.19818l-.025-.31548a1.3035,1.3035,0,0,1,1.18915-1.40654L244.075,45.58a1.29975,1.29975,0,0,1,1.396,1.19818l.025.31547A1.30352,1.30352,0,0,1,244.3068,48.50019Z"/><path class="cls-6" d="M256.03282,48.50019l4.37263.35244a1.29975,1.29975,0,0,0,1.396-1.19817l.025-.31548a1.3035,1.3035,0,0,0-1.18915-1.40654L256.26467,45.58a1.29975,1.29975,0,0,0-1.396,1.19818l-.025.31547A1.30351,1.30351,0,0,0,256.03282,48.50019Z"/><line class="cls-13" x1="246.54813" y1="74.41394" x2="246.54813" y2="86.74348"/><line class="cls-13" x1="255.20394" y1="74.41394" x2="255.20394" y2="86.74348"/><path class="cls-14" d="M265.10759,35.65082a6.89434,6.89434,0,0,1-2.975,5.68025,6.7581,6.7581,0,0,1-3.85348,1.2"/><rect class="cls-15" x="200" width="100" height="100"/><ellipse class="cls-12" cx="338.97913" cy="51.04886" rx="1.14057" ry="0.59502"/><ellipse class="cls-12" cx="354.37158" cy="51.04886" rx="1.14057" ry="0.59502"/><ellipse class="cls-12" cx="257.84037" cy="50.843" rx="1.15153" ry="0.20785"/></g></svg>
