<svg id="Layer_1" data-name="Layer 1" xmlns="http://www.w3.org/2000/svg" width="290" height="475" viewBox="0 0 290 475"><defs><style>.cls-1{fill:#009245;}.cls-2{fill:#2a7631;}.cls-3{fill:#066938;}.cls-4{fill:#faccab;}.cls-5{fill:#ffdd5f;}.cls-6{fill:#ef7a8a;}.cls-7{fill:#f7baab;}.cls-8{fill:#041015;}.cls-9{fill:#ef7b8b;}.cls-10{fill:#fff;}.cls-11{fill:#08111d;}.cls-12,.cls-13{fill:none;stroke-linecap:round;stroke-miterlimit:10;stroke-width:8px;}.cls-12{stroke:#fff;}.cls-13{stroke:#f7ef8b;}</style></defs><title>dreng</title><path class="cls-1" d="M267.73,420.71q-8.1,4.08-16.48,7.62a278.65,278.65,0,0,1-217,0c-1.47-.61-2.93-1.25-4.38-1.9-.07-1.69-.1-3.39-.1-5.1a124.59,124.59,0,0,1,.78-14,122.67,122.67,0,0,1,6.12-27,120.69,120.69,0,0,1,7.92-18,122,122,0,0,1,19.78-27,118.21,118.21,0,0,1,54.4-32.09,113.83,113.83,0,0,1,12.15-2.55h0a116.57,116.57,0,0,1,17.83-1.36A118.32,118.32,0,0,1,165,300.46s0,0,0,0a117,117,0,0,1,14.69,3.05,118.42,118.42,0,0,1,53.4,31.82,122,122,0,0,1,19.78,27,120.69,120.69,0,0,1,7.92,18,124.95,124.95,0,0,1,6.9,40.38Z"/><rect class="cls-2" x="57.54" y="270.69" width="181.19" height="89" rx="41"/><path class="cls-3" d="M161.3,341.9h0c-10.31,5.73-25.89,5-34.79-1.64L84.63,309.08c-8.9-6.63-7.76-16.65,2.55-22.38h0c10.31-5.73,25.88-5,34.79,1.64l41.87,31.18C172.75,326.15,171.61,336.17,161.3,341.9Z"/><path class="cls-3" d="M130.54,341h0c-9.64-6.19-9.64-16.24,0-22.43l45.29-29.14c9.64-6.2,25.25-6.2,34.89,0h0c9.63,6.2,9.63,16.24,0,22.44L165.42,341C155.79,347.23,140.17,347.23,130.54,341Z"/><rect class="cls-4" x="116.73" y="254.69" width="61" height="92" rx="30.5"/><path class="cls-5" d="M264.73,112.19a68.49,68.49,0,0,1-68.5,68.5h-105A68.5,68.5,0,0,1,40.85,65.78c.63-.69,1.28-1.37,1.94-2a68.5,68.5,0,0,1,23.83-15.5,45.15,45.15,0,0,0,19.29,4.44h91.32a45.33,45.33,0,0,0,18.61-4,44.77,44.77,0,0,0,8-4.61,68.46,68.46,0,0,1,60.91,68.08Z"/><ellipse class="cls-4" cx="38.01" cy="173.74" rx="21.27" ry="20.62"/><ellipse class="cls-6" cx="37.91" cy="173.86" rx="11.6" ry="11.49"/><ellipse class="cls-4" cx="253.01" cy="173.74" rx="21.27" ry="20.62"/><ellipse class="cls-6" cx="252.91" cy="173.86" rx="11.6" ry="11.49"/><path class="cls-4" d="M252.73,144.17V191.8a108.49,108.49,0,1,1-217,0V144.17A107.93,107.93,0,0,1,49.25,91.74a109.05,109.05,0,0,1,36.66-39h91.32a45.33,45.33,0,0,0,18.61-4,108.37,108.37,0,0,1,56.89,95.45Z"/><rect class="cls-7" x="135.26" y="168.36" width="22.31" height="34" rx="11.15"/><path class="cls-8" d="M193.73,222.09c0,.78,0,1.56-.07,2.33,0,.39,0,.77-.09,1.15s-.08.77-.13,1.15q-.18,1.46-.48,2.88c-.1.47-.2.94-.32,1.41s-.24.93-.38,1.39a40.47,40.47,0,0,1-12.15,18.85,46.53,46.53,0,0,1-6.6,4.88c-.85.52-1.71,1-2.6,1.48a52.44,52.44,0,0,1-49.6-.68c-.68-.38-1.34-.78-2-1.19a46.74,46.74,0,0,1-5.28-3.9,40.53,40.53,0,0,1-12.83-19.44c-.14-.46-.26-.92-.38-1.39s-.23-.94-.33-1.41-.19-.95-.26-1.43-.15-1-.22-1.45h0a37.37,37.37,0,0,1-.29-4.63,36.52,36.52,0,0,1,.26-4.34h93.49A36.53,36.53,0,0,1,193.73,222.09Z"/><path class="cls-9" d="M173.51,256.13c-.85.52-1.71,1-2.6,1.48a52.44,52.44,0,0,1-49.6-.68c-.68-.38-1.34-.78-2-1.19,7.22-9.92,16.64-15.92,27-15.92S166.26,246,173.51,256.13Z"/><path class="cls-10" d="M193.73,222.09a37.37,37.37,0,0,1-.29,4.63,35.78,35.78,0,0,1-1.18,5.68h-91a36.94,36.94,0,0,1-1.19-5.68,37.37,37.37,0,0,1-.29-4.63,36.65,36.65,0,0,1,.26-4.34h93.48A34.64,34.64,0,0,1,193.73,222.09Z"/><circle class="cls-11" cx="84.48" cy="169.94" r="8.74"/><circle class="cls-11" cx="202.48" cy="169.94" r="8.74"/><path class="cls-5" d="M270.73,62.19a55.39,55.39,0,0,1-16.26,39.24,56.11,56.11,0,0,1-7.92,6.58,55.22,55.22,0,0,1-31.32,9.68h-119A55.49,55.49,0,0,1,40.85,65.78c.63-.69,1.28-1.37,1.94-2a68.5,68.5,0,0,1,23.83-15.5,45.15,45.15,0,0,0,19.29,4.44h91.32a45.33,45.33,0,0,0,18.61-4,44.77,44.77,0,0,0,8-4.61,45.16,45.16,0,0,0,5.58-4.75A45.3,45.3,0,0,0,222.73,7.2,55.5,55.5,0,0,1,270.73,62.19Z"/><path class="cls-5" d="M195.84,48.72a45.33,45.33,0,0,1-18.61,4H85.92a107.76,107.76,0,0,1,17.37-9h81.92A107.65,107.65,0,0,1,195.84,48.72Z"/><path class="cls-5" d="M103.29,43.69a107.76,107.76,0,0,0-17.37,9h0a45.15,45.15,0,0,1-19.29-4.44,68.14,68.14,0,0,1,24.61-4.56Z"/><path class="cls-5" d="M203.82,44.11a44.77,44.77,0,0,1-8,4.61,107.65,107.65,0,0,0-10.63-5h11A67.87,67.87,0,0,1,203.82,44.11Z"/><rect class="cls-5" x="55.73" y="130.69" width="53" height="22.08" rx="11.04" transform="translate(-11.04 7.01) rotate(-4.57)"/><rect class="cls-5" x="179.73" y="130.69" width="53" height="22.08" rx="11.04" transform="translate(400.51 299.45) rotate(-175.43)"/><line class="cls-12" x1="115.73" y1="348.69" x2="115.73" y2="432.69"/><line class="cls-12" x1="176.73" y1="348.69" x2="176.73" y2="432.69"/><path class="cls-13" d="M264.83,69.23h0a53.75,53.75,0,0,1-49.51,57.7"/></svg>
