<svg id="Layer_1" data-name="Layer 1" xmlns="http://www.w3.org/2000/svg" width="1923.67852" height="1090.59176" viewBox="0 0 1923.67852 1090.59176"><defs><style>.cls-1{fill:#9d9d9c;}.cls-2{fill:#d7bc9f;}.cls-3{fill:#3c3c3b;}.cls-4{fill:#fdd4a0;}.cls-5{fill:#facaab;}.cls-6{fill:#facbab;}.cls-7{fill:none;stroke:#3c3c3b;stroke-miterlimit:10;stroke-width:100px;}.cls-10,.cls-8{fill:#fff;}.cls-9{fill:#e6332a;}.cls-10{font-size:48px;font-family:OpenSans-Bold, Open Sans;font-weight:700;}</style></defs><title>fængsel_skærm</title><rect class="cls-1" x="2.22241" y="5.29588" width="1920" height="1080"/><rect class="cls-2" x="512.81848" y="412.88065" width="329.95346" height="220.02992" rx="72.68118" transform="translate(1202.91323 -149.60372) rotate(90)"/><rect class="cls-2" x="398.21975" y="433.30701" width="210.6383" height="210.6383" transform="translate(1009.3002 1082.5482) rotate(-180)"/><rect class="cls-3" x="666.69679" y="92.14594" width="80.8511" height="892.96044" transform="translate(1416.46708 1082.5482) rotate(-180)"/><rect class="cls-2" x="604.2633" y="356.03637" width="183.54688" height="72.18259" rx="36.09126" transform="translate(1394.29587 789.5512) rotate(-180)"/><rect class="cls-4" x="689.01228" y="427.98464" width="140.31919" height="63.28068" rx="31.64031" transform="translate(1520.56616 924.54583) rotate(-180)"/><rect class="cls-5" x="688.73005" y="491.25527" width="144.93424" height="63.28068" rx="31.64031" transform="translate(1524.61675 1051.0871) rotate(-180)"/><rect class="cls-2" x="694.78755" y="390.16672" width="135.1393" height="72.18259" rx="36.09126" transform="translate(1154.00654 -350.25877) rotate(87.26732)"/><rect class="cls-4" x="689.88381" y="554.29159" width="142.62672" height="63.28068" rx="31.64031" transform="translate(1524.61675 1177.15974) rotate(-180)"/><rect class="cls-6" x="692.98063" y="617.57227" width="132.38249" height="63.28068" rx="31.64031" transform="translate(1520.56616 1303.7211) rotate(-180)"/><rect class="cls-2" x="1091.03823" y="412.88065" width="329.95346" height="220.02992" rx="72.68118" transform="translate(1781.13298 -727.82347) rotate(90)"/><rect class="cls-2" x="1327.17453" y="438.60289" width="210.6383" height="210.6383"/><rect class="cls-7" x="50" y="50" width="1823.67852" height="990.59176"/><path class="cls-3" d="M132.18368,392.12766H489.02593a0,0,0,0,1,0,0V687.87234a0,0,0,0,1,0,0H132.18368a34.35921,34.35921,0,0,1-34.35921-34.35921V426.48687a34.35921,34.35921,0,0,1,34.35921-34.35921Z" transform="translate(589.07281 1085.29588) rotate(-180)"/><rect class="cls-8" x="180.87317" y="392.12766" width="68.07812" height="295.74468" transform="translate(432.04687 1085.29588) rotate(-180)"/><rect class="cls-8" x="334.27743" y="392.12766" width="68.07812" height="295.74468" transform="translate(738.85539 1085.29588) rotate(-180)"/><path class="cls-3" d="M1472.24418,397.42354h351.451a0,0,0,0,1,0,0V693.16822a0,0,0,0,1,0,0H1468.77842a36.28474,36.28474,0,0,1-36.28474-36.28474V437.174A39.7505,39.7505,0,0,1,1472.24418,397.42354Z"/><rect class="cls-8" x="1672.56832" y="397.42354" width="68.07813" height="295.74468"/><rect class="cls-8" x="1519.16406" y="397.42354" width="68.07813" height="295.74468"/><rect class="cls-3" x="1190.8749" y="97.44182" width="80.8511" height="892.96044"/><rect class="cls-2" x="1148.22241" y="361.33224" width="183.54688" height="72.18259" rx="36.09126"/><rect class="cls-4" x="1084.43873" y="433.51483" width="140.31919" height="63.28068" rx="31.64031"/><rect class="cls-5" x="1079.82763" y="496.79551" width="144.93424" height="63.28068" rx="31.64031"/><rect class="cls-2" x="1103.88333" y="390.16672" width="135.1393" height="72.18259" rx="36.09126" transform="translate(1655.29918 -718.24456) rotate(92.73268)"/><rect class="cls-4" x="1080.9814" y="559.58747" width="142.62672" height="63.28068" rx="31.64031"/><rect class="cls-6" x="1096.84239" y="622.86815" width="132.38249" height="63.28068" rx="31.64031"/><rect class="cls-9" x="76.91476" y="130.90598" width="587.24828" height="442.45126" rx="99.22035"/><text class="cls-10" transform="translate(142.70483 216.19724)">Det var ikke særlig <tspan x="0" y="57.6001">godt... du skal vist </tspan><tspan x="0" y="115.2002">lige læse reglerne </tspan><tspan x="0" y="172.80029">på </tspan></text></svg>
