<svg id="Layer_1" data-name="Layer 1" xmlns="http://www.w3.org/2000/svg" width="800" height="980" viewBox="0 0 800 980"><defs><style>.cls-1{fill:#8c633a;}.cls-2{fill:#fdd4a0;}.cls-3{fill:#fbcdac;}.cls-4{fill:#808181;}.cls-5{fill:#010101;}.cls-6{fill:#fff;}.cls-7{fill:#544842;}.cls-8{fill:#343434;}</style></defs><title>hånd</title><path class="cls-1" d="M596,732.18v252.5H471V732.18a62,62,0,0,1,3-19,62.37,62.37,0,0,1,100.68-28c1,.89,2,1.83,3,2.8A62.56,62.56,0,0,1,596,732.18Z"/><rect class="cls-2" x="60" y="355.68" width="344" height="117.5" rx="58.75" transform="translate(129.82 -49.4) rotate(16.82)"/><rect class="cls-3" x="33" y="446.68" width="344" height="117.5" rx="58.75" transform="translate(154.99 -37.69) rotate(16.82)"/><rect class="cls-2" x="37" y="532.68" width="344" height="117.5" rx="58.75" transform="translate(100.37 -26.36) rotate(9.49)"/><path class="cls-3" d="M479,794.68l97,43c6.6,0,84-77.4,84-84l-40-181c4-15-51.4-42-58-42l-80,22a12,12,0,0,0-12,12v196C470,767.28,472.4,794.68,479,794.68Z"/><path class="cls-3" d="M778.67,984.68H464.13L404.67,858.85l-25.25-53.44a12,12,0,0,1,5.72-16L470,749.33l1-.47,113-53.39,36.57-17.28a12,12,0,0,1,16,5.72l15.1,32h0l3.46,7.31h0Z"/><rect class="cls-4" x="136.11" y="166.89" width="73.15" height="9" rx="4.5" transform="translate(-49.93 73.22) rotate(-20.99)"/><rect class="cls-3" x="244.22" y="495.95" width="436.49" height="324" rx="132.58" transform="matrix(0.87, -0.5, 0.5, 0.87, -267.01, 319.38)"/><rect class="cls-3" x="64.5" y="617.32" width="320.73" height="117.5" rx="58.75" transform="translate(114.54 -27.82) rotate(9.49)"/><rect class="cls-3" x="377.1" y="355.08" width="412.87" height="131.87" rx="65.93" transform="translate(264.33 1065.89) rotate(-99.47)"/><path class="cls-5" d="M561.05,687.48,303.74,763.54c-33.84,9.93-68.62-16.75-77.52-58.75l-157-508.44c-19.35-44.75,3.29-78.38,37.13-88.3L355.24,45c33.84-9.92,81,12.53,89.9,54.53L612.52,587.42C641.22,645.27,626.5,679.16,561.05,687.48Z"/><path class="cls-6" d="M529.21,621.51,297.49,687.16c-30.49,8.61-60.72-10.28-67.16-42L108.53,263c-15.64-33.47,5.72-59.78,36.21-68.4L381.41,134.1c48.57-8.82,61.51,10,68,41.69L578.69,543.68C608.35,610.68,566,606.43,529.21,621.51Z"/><ellipse class="cls-7" cx="199.85" cy="137.58" rx="6.89" ry="6.16" transform="translate(37.59 317.97) rotate(-82.57)"/><ellipse class="cls-8" cx="235.31" cy="103.69" rx="3.76" ry="3.36" transform="translate(102.08 323.63) rotate(-82.57)"/><circle class="cls-6" cx="439.11" cy="682.54" r="26.48"/></svg>
