<svg id="Layer_1" data-name="Layer 1" xmlns="http://www.w3.org/2000/svg" width="412" height="125" viewBox="0 0 412 125"><title>håtnåle </title><circle cx="336" cy="37.5" r="13"/><circle cx="349" cy="92.5" r="13"/><rect x="44" y="65.5" width="8" height="30" rx="4" transform="translate(96 161) rotate(180)"/><rect x="48" y="65.5" width="77" height="7" rx="3.5"/><rect x="117" y="58.5" width="29" height="7" rx="3.5" transform="translate(-10.7 92.25) rotate(-37.25)"/><rect x="44" y="89.5" width="297" height="8" rx="4"/><rect x="136" y="57.5" width="29" height="7" rx="3.5" transform="translate(50.66 -67.08) rotate(30)"/><rect x="156" y="57.5" width="29" height="7" rx="3.5" transform="translate(-4.61 107.14) rotate(-34.45)"/><rect x="175" y="56.5" width="29" height="7" rx="3.5" transform="matrix(0.87, 0.5, -0.5, 0.87, 55.39, -86.71)"/><rect x="214" y="54.5" width="29" height="7" rx="3.5" transform="translate(59.61 -106.48) rotate(30)"/><rect x="194" y="55.5" width="29" height="7" rx="3.5" transform="translate(3.19 128.29) rotate(-34.45)"/><rect x="234" y="47.5" width="100" height="7" rx="3.5" transform="translate(-2.44 85.77) rotate(-17.1)"/></svg>