<svg id="Layer_1" data-name="Layer 1" xmlns="http://www.w3.org/2000/svg" width="650" height="420" viewBox="0 0 650 420"><defs><style>.cls-1{fill:#5eb3d9;}.cls-2{fill:#fff;}</style></defs><title>ikke_send_videre</title><rect class="cls-1" x="41" y="17" width="556" height="385" rx="66.35"/><path class="cls-2" d="M102.7,189.72v-51.4h9v51.4Z"/><path class="cls-2" d="M131.21,168.63l2.36-4.68,7.73-13.39h9.92l-9.92,16.06,10.58,23.1h-9.81L135,173.16l-3.66,3.31v13.25H122V135h9.35v25.77l-.42,7.84Z"/><path class="cls-2" d="M165.14,168.63l2.35-4.68,7.74-13.39h9.91l-9.91,16.06,10.58,23.1H176l-7.07-16.56-3.65,3.31v13.25h-9.35V135h9.35v25.77l-.42,7.84Z"/><path class="cls-2" d="M204.3,190.42a14.1,14.1,0,0,1-11.58-5.22q-4.25-5.22-4.24-14.78t3.83-15.15A12.33,12.33,0,0,1,203,149.82a12.16,12.16,0,0,1,10.09,4.66q3.69,4.65,3.69,13.06v5H198q.1,5.24,2.15,7.79a6.79,6.79,0,0,0,5.62,2.54,18.17,18.17,0,0,0,9.35-2.84v7.7A20.58,20.58,0,0,1,204.3,190.42ZM202.93,157a3.8,3.8,0,0,0-3.3,2.13,14.27,14.27,0,0,0-1.52,6.59h9.5a14.22,14.22,0,0,0-1.3-6.5A3.76,3.76,0,0,0,202.93,157Z"/><path class="cls-2" d="M261.78,178.26q0,5.73-3.36,9t-9.89,3.21a18.39,18.39,0,0,1-9.6-2.28V180a18.12,18.12,0,0,0,4.52,2.21,14.27,14.27,0,0,0,4.55.88,4.7,4.7,0,0,0,3.32-1.07,3.72,3.72,0,0,0,1.15-2.83,4.53,4.53,0,0,0-1.2-3.13,20.51,20.51,0,0,0-4.39-3.27,18,18,0,0,1-6.1-5.4,12.21,12.21,0,0,1-1.85-6.76,9.83,9.83,0,0,1,3.43-7.91q3.42-2.93,9.4-2.92a18.84,18.84,0,0,1,9.81,2.74l-3.06,6.71a14.39,14.39,0,0,0-6.61-2,3.55,3.55,0,0,0-2.69.94,3.3,3.3,0,0,0-.89,2.32,4.12,4.12,0,0,0,1.1,2.82,19.52,19.52,0,0,0,4.14,3.06,26.5,26.5,0,0,1,5.13,3.76,11.29,11.29,0,0,1,2.28,3.51A12.09,12.09,0,0,1,261.78,178.26Z"/><path class="cls-2" d="M282.14,190.42a14.13,14.13,0,0,1-11.59-5.22q-4.23-5.22-4.23-14.78t3.83-15.15a12.31,12.31,0,0,1,10.69-5.45,12.17,12.17,0,0,1,10.09,4.66q3.69,4.65,3.69,13.06v5H275.81q.1,5.24,2.14,7.79a6.81,6.81,0,0,0,5.63,2.54,18.22,18.22,0,0,0,9.35-2.84v7.7A20.6,20.6,0,0,1,282.14,190.42ZM280.77,157a3.82,3.82,0,0,0-3.31,2.13,14.29,14.29,0,0,0-1.51,6.59h9.49a14.22,14.22,0,0,0-1.3-6.5A3.74,3.74,0,0,0,280.77,157Z"/><path class="cls-2" d="M320.32,189.72V166.38a15.81,15.81,0,0,0-1-6.44,3.43,3.43,0,0,0-3.31-2.18,4.64,4.64,0,0,0-4.43,3q-1.4,3-1.4,10.14v18.81h-9.35V150.56h7.41l1.13,5h.6a9.67,9.67,0,0,1,9.14-5.76q5.34,0,8,3.65t2.66,10.69v25.56Z"/><path class="cls-2" d="M347.6,190.42q-5.42,0-8.54-5.34t-3.13-14.87q0-9.57,3.05-15t8.44-5.41a8.1,8.1,0,0,1,4.63,1.32,11.91,11.91,0,0,1,3.6,4.44h.56q-.42-5.34-.42-7.49V135h9.35v54.7h-7l-1.58-5.1h-.32Q353.3,190.43,347.6,190.42Zm3-7.91a4,4,0,0,0,3.8-2.37c.79-1.58,1.23-4.46,1.3-8.63v-1.23c0-4.55-.41-7.75-1.21-9.6a4.12,4.12,0,0,0-4-2.78q-2.61,0-3.78,3.18a27.93,27.93,0,0,0-1.18,9.27c0,4.05.4,7.1,1.19,9.12S348.84,182.51,350.62,182.51Z"/><path class="cls-2" d="M397.06,189.72l-10.23-39.16h9.71l5,22.67q.32,1.59.75,4.62c.3,2,.48,3.49.55,4.38H403a30.32,30.32,0,0,1,.3-3c.17-1.31.35-2.52.54-3.62s2-9.45,5.42-25h9.7l-10.27,39.16Z"/><path class="cls-2" d="M422.59,140.33a5,5,0,0,1,1.35-3.68,5.11,5.11,0,0,1,3.78-1.35,5,5,0,0,1,3.66,1.35,5,5,0,0,1,1.37,3.68,4.8,4.8,0,0,1-1.41,3.7,5.07,5.07,0,0,1-3.62,1.32A5.23,5.23,0,0,1,424,144,4.83,4.83,0,0,1,422.59,140.33Zm9.73,49.39H423V150.56h9.35Z"/><path class="cls-2" d="M450.64,190.42q-5.42,0-8.54-5.34T439,170.21q0-9.57,3.06-15t8.44-5.41a8,8,0,0,1,4.62,1.32,11.91,11.91,0,0,1,3.6,4.44h.56q-.42-5.34-.42-7.49V135h9.35v54.7h-7l-1.58-5.1h-.32Q456.34,190.43,450.64,190.42Zm3-7.91a4,4,0,0,0,3.8-2.37q1.2-2.37,1.3-8.63v-1.23q0-6.83-1.21-9.6a4.12,4.12,0,0,0-4-2.78q-2.61,0-3.78,3.18a27.93,27.93,0,0,0-1.18,9.27c0,4.05.4,7.1,1.2,9.12S451.88,182.51,453.66,182.51Z"/><path class="cls-2" d="M490.51,190.42a14.13,14.13,0,0,1-11.59-5.22q-4.23-5.22-4.23-14.78t3.83-15.15a12.31,12.31,0,0,1,10.69-5.45,12.17,12.17,0,0,1,10.09,4.66q3.69,4.65,3.69,13.06v5H484.18c.07,3.49.79,6.09,2.14,7.79a6.81,6.81,0,0,0,5.63,2.54A18.19,18.19,0,0,0,501.3,180v7.7A20.6,20.6,0,0,1,490.51,190.42ZM489.14,157a3.82,3.82,0,0,0-3.31,2.13,14.42,14.42,0,0,0-1.51,6.59h9.49a14.09,14.09,0,0,0-1.3-6.5A3.74,3.74,0,0,0,489.14,157Z"/><path class="cls-2" d="M525.88,149.82a11.08,11.08,0,0,1,3.37.52l-1.09,9.08a7.63,7.63,0,0,0-2.57-.36,5.94,5.94,0,0,0-5.23,2.69c-1.22,1.8-1.83,4.4-1.83,7.83v20.14h-9.35V150.56h7.7l1,6.11h.32a14.12,14.12,0,0,1,3.37-5.27A6.29,6.29,0,0,1,525.88,149.82Z"/><path class="cls-2" d="M547.88,190.42a14.1,14.1,0,0,1-11.58-5.22q-4.24-5.22-4.24-14.78t3.84-15.15a12.3,12.3,0,0,1,10.68-5.45,12.16,12.16,0,0,1,10.09,4.66q3.69,4.65,3.69,13.06v5h-18.8q.11,5.24,2.14,7.79a6.79,6.79,0,0,0,5.62,2.54,18.23,18.23,0,0,0,9.36-2.84v7.7A20.61,20.61,0,0,1,547.88,190.42ZM546.51,157a3.81,3.81,0,0,0-3.3,2.13,14.29,14.29,0,0,0-1.51,6.59h9.49a14.22,14.22,0,0,0-1.3-6.5A3.75,3.75,0,0,0,546.51,157Z"/><path class="cls-2" d="M114,268.91a10.89,10.89,0,0,0,4.25-1v7.31c-1.52,1.05-3.81,1.58-6.85,1.58q-5.1,0-7.56-3t-2.46-9.12V244.37H97.6v-4.18l4.89-3.38,2.39-8.29h6V237H118v7.41h-7.1V265Q110.86,268.92,114,268.91Z"/><path class="cls-2" d="M123.44,226.72a4.94,4.94,0,0,1,1.36-3.67,5.1,5.1,0,0,1,3.77-1.35,5,5,0,0,1,3.66,1.35,5.61,5.61,0,0,1,0,7.38,5.1,5.1,0,0,1-3.63,1.32,5.22,5.22,0,0,1-3.72-1.32A4.82,4.82,0,0,1,123.44,226.72Zm9.74,49.4h-9.35V237h9.35Z"/><path class="cls-2" d="M150.55,276.12H141.2v-54.7h9.35Z"/><path class="cls-2" d="M186.48,276.82q-5.41,0-8.55-5.34t-3.12-14.87q0-9.57,3.05-15t8.44-5.41a8,8,0,0,1,4.62,1.32,11.83,11.83,0,0,1,3.61,4.44h.56q-.42-5.34-.42-7.49V221.42H204v54.7h-7l-1.58-5.1h-.32Q192.18,276.83,186.48,276.82Zm3-7.91a4,4,0,0,0,3.8-2.37c.79-1.58,1.23-4.46,1.3-8.63v-1.23c0-4.55-.41-7.75-1.21-9.6a4.12,4.12,0,0,0-4-2.78q-2.61,0-3.78,3.18a27.93,27.93,0,0,0-1.18,9.27,26.55,26.55,0,0,0,1.19,9.12Q186.83,268.91,189.5,268.91Z"/><path class="cls-2" d="M211.58,226.72a5,5,0,0,1,1.35-3.67,5.11,5.11,0,0,1,3.78-1.35,5,5,0,0,1,3.66,1.35,4.94,4.94,0,0,1,1.37,3.67,4.82,4.82,0,0,1-1.41,3.71,5.06,5.06,0,0,1-3.62,1.32,5.23,5.23,0,0,1-3.73-1.32A4.85,4.85,0,0,1,211.58,226.72Zm9.74,49.4H212V237h9.35Z"/><path class="cls-2" d="M248.84,276.12V252.78a15.81,15.81,0,0,0-1-6.44,3.43,3.43,0,0,0-3.3-2.18,4.63,4.63,0,0,0-4.43,3q-1.41,3-1.41,10.14v18.81h-9.35V237h7.42l1.13,5h.59a9.67,9.67,0,0,1,9.14-5.76c3.57,0,6.23,1.22,8,3.65s2.66,6,2.66,10.69v25.56Z"/><path class="cls-2" d="M280.27,276.82a14.11,14.11,0,0,1-11.58-5.22q-4.23-5.22-4.24-14.78t3.84-15.15A12.3,12.3,0,0,1,279,236.22a12.16,12.16,0,0,1,10.09,4.66q3.69,4.65,3.69,13.06v5H274c.07,3.49.78,6.09,2.14,7.78a6.78,6.78,0,0,0,5.63,2.55,18.32,18.32,0,0,0,9.35-2.84v7.7A20.61,20.61,0,0,1,280.27,276.82Zm-1.37-33.4a3.81,3.81,0,0,0-3.3,2.13,14.29,14.29,0,0,0-1.51,6.59h9.49a14.22,14.22,0,0,0-1.3-6.5A3.75,3.75,0,0,0,278.9,243.42Z"/><path class="cls-2" d="M323,276.12,312.76,237h9.7l5,22.67c.21,1.06.47,2.6.76,4.62s.47,3.49.54,4.38h.15c0-.7.12-1.71.29-3s.36-2.52.55-3.62,2-9.45,5.41-25h9.71l-10.27,39.16Z"/><path class="cls-2" d="M363.28,276.82a14.13,14.13,0,0,1-11.59-5.22q-4.23-5.22-4.23-14.78t3.83-15.15A12.31,12.31,0,0,1,362,236.22a12.17,12.17,0,0,1,10.09,4.66q3.69,4.65,3.69,13.06v5H357c.07,3.49.78,6.09,2.14,7.78a6.79,6.79,0,0,0,5.63,2.55,18.29,18.29,0,0,0,9.35-2.84v7.7A20.6,20.6,0,0,1,363.28,276.82Zm-1.37-33.4a3.82,3.82,0,0,0-3.31,2.13,14.29,14.29,0,0,0-1.51,6.59h9.49a14.09,14.09,0,0,0-1.3-6.5A3.74,3.74,0,0,0,361.91,243.42Z"/><path class="cls-2" d="M401.46,276.12V252.78a15.81,15.81,0,0,0-1-6.44,3.43,3.43,0,0,0-3.31-2.18,4.64,4.64,0,0,0-4.43,3q-1.4,3-1.4,10.14v18.81H382V237h7.41l1.13,5h.6a9.67,9.67,0,0,1,9.14-5.76q5.34,0,8,3.65t2.65,10.69v25.56Z"/><path class="cls-2" d="M438,276.12V252.78a15.81,15.81,0,0,0-1-6.44,3.43,3.43,0,0,0-3.3-2.18,4.63,4.63,0,0,0-4.43,3q-1.41,3-1.41,10.14v18.81h-9.35V237h7.42l1.12,5h.6a9.67,9.67,0,0,1,9.14-5.76q5.34,0,8,3.65t2.65,10.69v25.56Z"/><path class="cls-2" d="M469.38,276.82a14.1,14.1,0,0,1-11.58-5.22q-4.24-5.22-4.24-14.78t3.83-15.15a12.33,12.33,0,0,1,10.69-5.45,12.17,12.17,0,0,1,10.09,4.66q3.69,4.65,3.69,13.06v5H463.05c.07,3.49.79,6.09,2.15,7.78a6.76,6.76,0,0,0,5.62,2.55,18.29,18.29,0,0,0,9.35-2.84v7.7A20.6,20.6,0,0,1,469.38,276.82ZM468,243.42a3.82,3.82,0,0,0-3.31,2.13,14.42,14.42,0,0,0-1.51,6.59h9.49a14.09,14.09,0,0,0-1.3-6.5A3.74,3.74,0,0,0,468,243.42Z"/><path class="cls-2" d="M504.75,236.22a11.08,11.08,0,0,1,3.37.52L507,245.81a7.86,7.86,0,0,0-2.56-.35,6,6,0,0,0-5.24,2.69c-1.22,1.8-1.83,4.4-1.83,7.82v20.15h-9.35V237h7.7l1.05,6.11h.32a14.12,14.12,0,0,1,3.37-5.27A6.29,6.29,0,0,1,504.75,236.22Z"/><path class="cls-2" d="M516,259.56V257.1a15.42,15.42,0,0,1,1-5.89,18.42,18.42,0,0,1,3.78-5.4,19.25,19.25,0,0,0,3.32-4.46,10.16,10.16,0,0,0,.72-4.11,6.17,6.17,0,0,0-1-3.73,3.88,3.88,0,0,0-3.34-1.44,14.75,14.75,0,0,0-8,2.71l-3.31-7A21.31,21.31,0,0,1,521.45,224c3.86,0,6.92,1.07,9.15,3.22s3.36,5.13,3.36,9a17.79,17.79,0,0,1-1.16,6.8,24.62,24.62,0,0,1-4.82,6.73,18.15,18.15,0,0,0-3,4,8.92,8.92,0,0,0-.65,3.78v2.14Zm-1.65,11.74a5.81,5.81,0,0,1,1.49-4.27,5.93,5.93,0,0,1,4.35-1.49,5.78,5.78,0,1,1,0,11.53,5.89,5.89,0,0,1-4.33-1.51A5.76,5.76,0,0,1,514.38,271.3Z"/></svg>
