<svg id="Layer_1" data-name="Layer 1" xmlns="http://www.w3.org/2000/svg" width="130" height="150" viewBox="0 0 130 150"><defs><style>.cls-1{fill:#878787;}.cls-1,.cls-2{stroke:#878787;stroke-miterlimit:10;stroke-width:8px;}.cls-2{fill:#fff;}</style></defs><title>indstillinger</title><circle class="cls-1" cx="62.8" cy="78.92" r="33.24"/><circle class="cls-2" cx="62.8" cy="78.92" r="16.72"/><path class="cls-1" d="M62.8,21.83h0A11.27,11.27,0,0,1,74.07,33.1v17.2a.72.72,0,0,1-.72.72H53.46a1.92,1.92,0,0,1-1.92-1.92v-16A11.27,11.27,0,0,1,62.8,21.83Z"/><path class="cls-1" d="M26,40.28h0A11.27,11.27,0,0,1,37.27,51.54v17.2a.72.72,0,0,1-.72.72H16.65a1.92,1.92,0,0,1-1.92-1.92v-16A11.27,11.27,0,0,1,26,40.28Z" transform="translate(-34.22 47.16) rotate(-57.35)"/><path class="cls-1" d="M64,106.82h0a11.27,11.27,0,0,1,11.27,11.27v17.2a.72.72,0,0,1-.72.72H54.67a1.92,1.92,0,0,1-1.92-1.92v-16A11.27,11.27,0,0,1,64,106.82Z" transform="translate(128.03 242.82) rotate(180)"/><path class="cls-1" d="M26.1,86.34h0A11.27,11.27,0,0,1,37.37,97.61v17.2a.72.72,0,0,1-.72.72H16.75a1.92,1.92,0,0,1-1.92-1.92v-16A11.27,11.27,0,0,1,26.1,86.34Z" transform="translate(-48.26 174.01) rotate(-120)"/><path class="cls-1" d="M97.87,38.22h0a11.27,11.27,0,0,1,11.27,11.27v17.2a.72.72,0,0,1-.72.72H88.52a1.92,1.92,0,0,1-1.92-1.92v-16A11.27,11.27,0,0,1,97.87,38.22Z" transform="translate(77.32 -56.49) rotate(51)"/><path class="cls-1" d="M101.66,86h0a11.27,11.27,0,0,1,11.27,11.27v17.2a.72.72,0,0,1-.72.72H92.31a1.92,1.92,0,0,1-1.92-1.92v-16A11.27,11.27,0,0,1,101.66,86Z" transform="translate(239.56 62.78) rotate(120)"/></svg>
