<svg xmlns="http://www.w3.org/2000/svg" width="500" height="100" viewBox="0 0 500 100"><defs><style>.cls-1{fill:#f6f6f6;}.cls-2{fill:#009245;}.cls-3{fill:#2a7631;}.cls-4{fill:#066938;}.cls-5{fill:#faccab;}.cls-6{fill:#ffdd5f;}.cls-7{fill:#ef7a8a;}.cls-8{fill:#f7baab;}.cls-9{fill:#041015;}.cls-10{fill:#ef7b8b;}.cls-11{fill:#fff;}.cls-12{fill:#08111d;}.cls-13,.cls-14,.cls-15{fill:none;}.cls-13{stroke:#fff;}.cls-13,.cls-14{stroke-linecap:round;stroke-miterlimit:10;}.cls-14{stroke:#f7ef8b;}.cls-16{font-size:12px;fill:#1d1d1b;font-family:MyriadPro-Regular, Myriad Pro;}</style></defs><title>karakter_sprite</title><g id="Layer_5" data-name="Layer 5"><path class="cls-1" d="M87.81844,49.37872A38.98646,38.98646,0,0,1,66.587,84.32827q-1.07484.54139-2.18683,1.01114a36.97577,36.97577,0,0,1-28.8004,0c-.19506-.08094-.3888-.16587-.58121-.25213a38.9278,38.9278,0,0,1-22.837-35.70856c0-21.47291,16.932-38.88,37.81844-38.88S87.81844,27.90581,87.81844,49.37872Z"/><path class="cls-2" d="M66.587,84.2805q-1.07484.54139-2.18683,1.01114a36.97577,36.97577,0,0,1-28.8004,0c-.19506-.08094-.3888-.16587-.58121-.25212-.00928-.22426-.01327-.44985-.01327-.67675a16.53034,16.53034,0,0,1,.10351-1.85775,16.2772,16.2772,0,0,1,.8121-3.5828,16.01521,16.01521,0,0,1,1.051-2.38853,16.193,16.193,0,0,1,2.62473-3.5828,15.68554,15.68554,0,0,1,7.21868-4.25823,15.10555,15.10555,0,0,1,1.61226-.33837h.00265a15.46817,15.46817,0,0,1,2.366-.18047,15.701,15.701,0,0,1,2.16162.14995h.00265a15.52388,15.52388,0,0,1,1.94931.40472,15.71358,15.71358,0,0,1,7.086,4.2224,16.19326,16.19326,0,0,1,2.62472,3.5828,16.01423,16.01423,0,0,1,1.051,2.38853,16.58023,16.58023,0,0,1,.9156,5.35828Z"/><rect class="cls-3" x="38.69565" y="64.3734" width="24.04319" height="11.80997" rx="5.19826"/><path class="cls-4" d="M52.46353,73.82257h0a4.631,4.631,0,0,1-4.61665-.21717l-5.55632-4.13778c-1.18161-.87995-1.03045-2.20939.33764-2.9694h0a4.631,4.631,0,0,1,4.61664.21717l5.55633,4.13778C53.98278,71.73312,53.83161,73.06256,52.46353,73.82257Z"/><path class="cls-4" d="M48.38153,73.70779h0a1.63515,1.63515,0,0,1,0-2.97733l6.01077-3.86608a4.652,4.652,0,0,1,4.629,0h0a1.63515,1.63515,0,0,1,0,2.97733L53.0105,73.70779A4.652,4.652,0,0,1,48.38153,73.70779Z"/><rect class="cls-5" x="46.5499" y="62.25026" width="8.09447" height="12.20806" rx="3.56285"/><path class="cls-6" d="M66.18894,43.341a9.08824,9.08824,0,0,1-9.08969,9.0897H43.16614A9.08948,9.08948,0,0,1,36.4809,37.1826c.0836-.09156.16986-.18179.25743-.26937a9.09,9.09,0,0,1,3.16216-2.05679,5.99145,5.99145,0,0,0,2.55971.58917H54.578a6.015,6.015,0,0,0,2.46948-.5268,5.94125,5.94125,0,0,0,1.05892-.61173,9.08409,9.08409,0,0,1,8.08252,9.034Z"/><ellipse class="cls-5" cx="36.10332" cy="51.50846" rx="2.82305" ry="2.73595"/><ellipse class="cls-7" cx="36.09028" cy="51.52507" rx="1.53978" ry="1.52507"/><ellipse class="cls-5" cx="64.63302" cy="51.50846" rx="2.82305" ry="2.73595"/><ellipse class="cls-7" cx="64.61998" cy="51.52507" rx="1.53978" ry="1.52507"/><path class="cls-5" d="M64.59659,47.58467V53.905a14.39556,14.39556,0,1,1-28.79111,0V47.58467a14.32225,14.32225,0,0,1,1.79008-6.95727,14.47071,14.47071,0,0,1,4.86464-5.18179H54.578a6.015,6.015,0,0,0,2.46948-.5268,14.38068,14.38068,0,0,1,7.54909,12.66586Z"/><rect class="cls-8" x="49.00877" y="50.79431" width="2.96016" height="4.51167" rx="1.30294"/><path class="cls-9" d="M56.76751,57.924c0,.10424-.00346.207-.00988.30976-.003.05137-.00692.10226-.01186.15314s-.01037.10178-.0168.15217c-.0163.12845-.03754.25591-.06373.38139-.01284.06324-.02717.12548-.043.18773-.01531.06176-.03211.12351-.04989.18477a5.37121,5.37121,0,0,1-1.61253,2.50079,6.117,6.117,0,0,1-.87592.64719q-.16821.10374-.34483.19712a6.96343,6.96343,0,0,1-6.582-.08992q-.13413-.07632-.26331-.15809a6.21533,6.21533,0,0,1-.701-.51725A5.37929,5.37929,0,0,1,44.48981,59.293c-.01778-.06126-.03458-.123-.05039-.18477-.01581-.06225-.02964-.12449-.043-.18773q-.02-.09411-.03557-.18971-.01557-.09484-.02816-.19119v-.00049a4.87207,4.87207,0,0,1-.03853-.61507,4.8195,4.8195,0,0,1,.03409-.57555H56.73342A4.8195,4.8195,0,0,1,56.76751,57.924Z"/><path class="cls-10" d="M54.08392,62.441q-.16821.10374-.34483.19712a6.96343,6.96343,0,0,1-6.582-.08992q-.13413-.07632-.26331-.15809a4.524,4.524,0,0,1,3.57679-2.11248A4.54962,4.54962,0,0,1,54.08392,62.441Z"/><path class="cls-11" d="M56.76751,57.924a4.91054,4.91054,0,0,1-.03869.61515,4.85879,4.85879,0,0,1-.15661.754H44.48981a4.8079,4.8079,0,0,1-.15706-.754,4.91054,4.91054,0,0,1-.03869-.61515,4.81523,4.81523,0,0,1,.03414-.57547H56.73337A4.81523,4.81523,0,0,1,56.76751,57.924Z"/><circle class="cls-12" cx="42.26961" cy="51.00508" r="1.16026"/><circle class="cls-12" cx="57.92777" cy="51.00508" r="1.16026"/><path class="cls-6" d="M66.98512,36.70623a7.34962,7.34962,0,0,1-2.15764,5.207,7.44581,7.44581,0,0,1-1.05095.87314,7.32718,7.32718,0,0,1-4.15605,1.2845H43.82962A7.36311,7.36311,0,0,1,36.4809,37.1826c.0836-.09156.16986-.18179.25743-.26937a9.09,9.09,0,0,1,3.16216-2.05679,5.99145,5.99145,0,0,0,2.55971.58917H54.578a6.015,6.015,0,0,0,2.46948-.5268,6.06057,6.06057,0,0,0,1.79936-1.242,6.01178,6.01178,0,0,0,1.76884-4.26751A7.36433,7.36433,0,0,1,66.98512,36.70623Z"/><path class="cls-6" d="M57.0475,34.91881a6.015,6.015,0,0,1-2.46948.5268H42.46153a14.29924,14.29924,0,0,1,2.30493-1.19426H55.63693A14.28149,14.28149,0,0,1,57.0475,34.91881Z"/><path class="cls-6" d="M44.76646,34.25135a14.29924,14.29924,0,0,0-2.30493,1.19426H42.4602a5.99145,5.99145,0,0,1-2.55971-.58917,9.0421,9.0421,0,0,1,3.26565-.60509Z"/><path class="cls-6" d="M58.10642,34.30708a5.94125,5.94125,0,0,1-1.05892.61173,14.28149,14.28149,0,0,0-1.41057-.66746h1.46232A9.008,9.008,0,0,1,58.10642,34.30708Z"/><rect class="cls-6" x="38.45542" y="45.79592" width="7.0329" height="2.92953" rx="1.30652" transform="translate(-3.63498 3.4974) rotate(-4.57371)"/><rect class="cls-6" x="56.96145" y="43.74424" width="2.92953" height="7.0329" rx="1.30652" transform="matrix(0.07974, -0.99682, 0.99682, 0.07974, 6.65703, 101.73221)"/><line class="cls-13" x1="46.5499" y1="74.45832" x2="46.5499" y2="86.78786"/><line class="cls-13" x1="55.27135" y1="74.45832" x2="55.27135" y2="86.78786"/><path class="cls-14" d="M65.2501,35.69519a6.86624,6.86624,0,0,1-2.01573,4.86454,6.95635,6.95635,0,0,1-.98183.81572,6.84531,6.84531,0,0,1-3.88271,1.2"/><rect class="cls-15" width="100" height="100"/><path class="cls-1" d="M187.81844,49.37872A38.98646,38.98646,0,0,1,166.587,84.32827q-1.07484.54139-2.18683,1.01114a36.97577,36.97577,0,0,1-28.8004,0c-.19506-.08094-.3888-.16587-.58121-.25213a38.9278,38.9278,0,0,1-22.837-35.70856c0-21.47291,16.932-38.88,37.81844-38.88S187.81844,27.90581,187.81844,49.37872Z"/><path class="cls-2" d="M166.587,84.2805q-1.07484.54139-2.18683,1.01114a36.97577,36.97577,0,0,1-28.8004,0c-.19506-.08094-.3888-.16587-.58121-.25212-.00928-.22426-.01327-.44985-.01327-.67675a16.53034,16.53034,0,0,1,.10351-1.85775,16.2772,16.2772,0,0,1,.8121-3.5828,16.01521,16.01521,0,0,1,1.051-2.38853,16.193,16.193,0,0,1,2.62473-3.5828,15.68554,15.68554,0,0,1,7.21868-4.25823,15.10555,15.10555,0,0,1,1.61226-.33837h.00265a15.46817,15.46817,0,0,1,2.366-.18047,15.701,15.701,0,0,1,2.16162.14995h.00265a15.52388,15.52388,0,0,1,1.94931.40472,15.71358,15.71358,0,0,1,7.086,4.2224,16.19326,16.19326,0,0,1,2.62472,3.5828,16.01423,16.01423,0,0,1,1.051,2.38853,16.58023,16.58023,0,0,1,.9156,5.35828Z"/><rect class="cls-3" x="138.69565" y="64.3734" width="24.04319" height="11.80997" rx="5.19826"/><path class="cls-4" d="M152.46353,73.82257h0a4.631,4.631,0,0,1-4.61665-.21717l-5.55632-4.13778c-1.18161-.87995-1.03045-2.20939.33764-2.9694h0a4.631,4.631,0,0,1,4.61664.21717l5.55633,4.13778C153.98278,71.73312,153.83161,73.06256,152.46353,73.82257Z"/><path class="cls-4" d="M148.38153,73.70779h0a1.63515,1.63515,0,0,1,0-2.97733l6.01077-3.86608a4.652,4.652,0,0,1,4.629,0h0a1.63515,1.63515,0,0,1,0,2.97733l-6.01077,3.86608A4.652,4.652,0,0,1,148.38153,73.70779Z"/><rect class="cls-5" x="146.5499" y="62.25026" width="8.09447" height="12.20806" rx="3.56285"/><path class="cls-6" d="M166.18894,43.341a9.08824,9.08824,0,0,1-9.08969,9.0897H143.16614A9.08948,9.08948,0,0,1,136.4809,37.1826c.0836-.09156.16986-.18179.25743-.26937a9.09,9.09,0,0,1,3.16216-2.05679,5.99145,5.99145,0,0,0,2.55971.58917H154.578a6.015,6.015,0,0,0,2.46948-.5268,5.94125,5.94125,0,0,0,1.05892-.61173,9.08409,9.08409,0,0,1,8.08252,9.034Z"/><ellipse class="cls-5" cx="136.10332" cy="51.50846" rx="2.82305" ry="2.73595"/><ellipse class="cls-7" cx="136.09028" cy="51.52507" rx="1.53978" ry="1.52507"/><ellipse class="cls-5" cx="164.63302" cy="51.50846" rx="2.82305" ry="2.73595"/><ellipse class="cls-7" cx="164.61998" cy="51.52507" rx="1.53978" ry="1.52507"/><path class="cls-5" d="M164.59659,47.58467V53.905a14.39556,14.39556,0,1,1-28.79111,0V47.58467a14.32225,14.32225,0,0,1,1.79008-6.95727,14.47071,14.47071,0,0,1,4.86464-5.18179H154.578a6.015,6.015,0,0,0,2.46948-.5268,14.38068,14.38068,0,0,1,7.54909,12.66586Z"/><rect class="cls-8" x="149.00877" y="50.79431" width="2.96016" height="4.51167" rx="1.30294"/><path class="cls-9" d="M156.76751,57.924c0,.10424-.00346.207-.00988.30976-.003.05137-.00692.10226-.01186.15314s-.01037.10178-.0168.15217c-.0163.12845-.03754.25591-.06373.38139-.01284.06324-.02717.12548-.043.18773-.01531.06176-.03211.12351-.04989.18477a5.37121,5.37121,0,0,1-1.61253,2.50079,6.117,6.117,0,0,1-.87592.64719q-.16821.10374-.34483.19712a6.96343,6.96343,0,0,1-6.582-.08992q-.13413-.07632-.26331-.15809a6.21533,6.21533,0,0,1-.701-.51725,5.37929,5.37929,0,0,1-1.70293-2.57984c-.01778-.06126-.03458-.123-.05039-.18477-.01581-.06225-.02964-.12449-.043-.18773q-.02-.09411-.03557-.18971-.01557-.09484-.02816-.19119v-.00049a4.87207,4.87207,0,0,1-.03853-.61507,4.8195,4.8195,0,0,1,.03409-.57555h12.40515A4.8195,4.8195,0,0,1,156.76751,57.924Z"/><path class="cls-10" d="M154.08392,62.441q-.16821.10374-.34483.19712a6.96343,6.96343,0,0,1-6.582-.08992q-.13413-.07632-.26331-.15809a4.09184,4.09184,0,0,1,7.19014.05089Z"/><path class="cls-11" d="M156.76751,57.924a4.91054,4.91054,0,0,1-.03869.61515,4.85879,4.85879,0,0,1-.15661.754h-12.0824a4.8079,4.8079,0,0,1-.15706-.754,4.91054,4.91054,0,0,1-.03869-.61515,4.81523,4.81523,0,0,1,.03414-.57547h12.40517A4.81523,4.81523,0,0,1,156.76751,57.924Z"/><circle class="cls-12" cx="142.26961" cy="51.00508" r="1.16026"/><circle class="cls-12" cx="157.92777" cy="51.00508" r="1.16026"/><path class="cls-6" d="M166.98512,36.70623a7.34962,7.34962,0,0,1-2.15764,5.207,7.44581,7.44581,0,0,1-1.051.87314,7.32718,7.32718,0,0,1-4.15605,1.2845H143.82962a7.36311,7.36311,0,0,1-7.34872-6.88827c.0836-.09156.16986-.18179.25743-.26937a9.09,9.09,0,0,1,3.16216-2.05679,5.99145,5.99145,0,0,0,2.55971.58917H154.578a6.015,6.015,0,0,0,2.46948-.5268,6.06057,6.06057,0,0,0,1.79936-1.242,6.01178,6.01178,0,0,0,1.76884-4.26751A7.36433,7.36433,0,0,1,166.98512,36.70623Z"/><path class="cls-6" d="M157.0475,34.91881a6.015,6.015,0,0,1-2.46948.5268H142.46153a14.29924,14.29924,0,0,1,2.30493-1.19426h10.87047A14.28149,14.28149,0,0,1,157.0475,34.91881Z"/><path class="cls-6" d="M144.76646,34.25135a14.29924,14.29924,0,0,0-2.30493,1.19426h-.00133a5.99145,5.99145,0,0,1-2.55971-.58917,9.0421,9.0421,0,0,1,3.26565-.60509Z"/><path class="cls-6" d="M158.10642,34.30708a5.94125,5.94125,0,0,1-1.05892.61173,14.28149,14.28149,0,0,0-1.41057-.66746h1.46232A9.008,9.008,0,0,1,158.10642,34.30708Z"/><rect class="cls-6" x="138.45542" y="45.79592" width="7.0329" height="2.92953" rx="1.30652" transform="translate(-3.31654 11.47154) rotate(-4.57371)"/><rect class="cls-6" x="156.96145" y="43.74424" width="2.92953" height="7.0329" rx="1.30652" transform="matrix(0.07974, -0.99682, 0.99682, 0.07974, 98.68289, 201.41377)"/><line class="cls-13" x1="146.5499" y1="74.45832" x2="146.5499" y2="86.78786"/><line class="cls-13" x1="155.27135" y1="74.45832" x2="155.27135" y2="86.78786"/><path class="cls-14" d="M165.2501,35.69519a6.86624,6.86624,0,0,1-2.01573,4.86454,6.95635,6.95635,0,0,1-.98183.81572,6.84531,6.84531,0,0,1-3.88271,1.2"/><rect class="cls-15" x="100" width="100" height="100"/><path class="cls-1" d="M287.81844,49.37872A38.98646,38.98646,0,0,1,266.587,84.32827q-1.07484.54139-2.18683,1.01114a36.97577,36.97577,0,0,1-28.8004,0c-.19506-.08094-.3888-.16587-.58121-.25213a38.9278,38.9278,0,0,1-22.837-35.70856c0-21.47291,16.932-38.88,37.81844-38.88S287.81844,27.90581,287.81844,49.37872Z"/><path class="cls-2" d="M266.587,84.2805q-1.07484.54139-2.18683,1.01114a36.97577,36.97577,0,0,1-28.8004,0c-.19506-.08094-.3888-.16587-.58121-.25212-.00928-.22426-.01327-.44985-.01327-.67675a16.53034,16.53034,0,0,1,.10351-1.85775,16.2772,16.2772,0,0,1,.8121-3.5828,16.01521,16.01521,0,0,1,1.051-2.38853,16.193,16.193,0,0,1,2.62473-3.5828,15.68554,15.68554,0,0,1,7.21868-4.25823,15.10555,15.10555,0,0,1,1.61226-.33837h.00265a15.46817,15.46817,0,0,1,2.366-.18047,15.701,15.701,0,0,1,2.16162.14995h.00265a15.52388,15.52388,0,0,1,1.94931.40472,15.71358,15.71358,0,0,1,7.086,4.2224,16.19326,16.19326,0,0,1,2.62472,3.5828,16.01423,16.01423,0,0,1,1.051,2.38853,16.58023,16.58023,0,0,1,.9156,5.35828Z"/><rect class="cls-3" x="238.69565" y="64.3734" width="24.04319" height="11.80997" rx="5.19826"/><path class="cls-4" d="M252.46353,73.82257h0a4.631,4.631,0,0,1-4.61665-.21717l-5.55632-4.13778c-1.18161-.87995-1.03045-2.20939.33764-2.9694h0a4.631,4.631,0,0,1,4.61664.21717l5.55633,4.13778C253.98278,71.73312,253.83161,73.06256,252.46353,73.82257Z"/><path class="cls-4" d="M248.38153,73.70779h0a1.63515,1.63515,0,0,1,0-2.97733l6.01077-3.86608a4.652,4.652,0,0,1,4.629,0h0a1.63515,1.63515,0,0,1,0,2.97733l-6.01077,3.86608A4.652,4.652,0,0,1,248.38153,73.70779Z"/><rect class="cls-5" x="246.5499" y="62.25026" width="8.09447" height="12.20806" rx="3.56285"/><path class="cls-6" d="M266.18894,43.341a9.08824,9.08824,0,0,1-9.08969,9.0897H243.16614A9.08948,9.08948,0,0,1,236.4809,37.1826c.0836-.09156.16986-.18179.25743-.26937a9.09,9.09,0,0,1,3.16216-2.05679,5.99145,5.99145,0,0,0,2.55971.58917H254.578a6.015,6.015,0,0,0,2.46948-.5268,5.94125,5.94125,0,0,0,1.05892-.61173,9.08409,9.08409,0,0,1,8.08252,9.034Z"/><ellipse class="cls-5" cx="236.10332" cy="51.50846" rx="2.82305" ry="2.73595"/><ellipse class="cls-7" cx="236.09028" cy="51.52507" rx="1.53978" ry="1.52507"/><ellipse class="cls-5" cx="264.63302" cy="51.50846" rx="2.82305" ry="2.73595"/><ellipse class="cls-7" cx="264.61998" cy="51.52507" rx="1.53978" ry="1.52507"/><path class="cls-5" d="M264.59659,47.58467V53.905a14.39556,14.39556,0,1,1-28.79111,0V47.58467a14.32225,14.32225,0,0,1,1.79008-6.95727,14.47071,14.47071,0,0,1,4.86464-5.18179H254.578a6.015,6.015,0,0,0,2.46948-.5268,14.38068,14.38068,0,0,1,7.54909,12.66586Z"/><rect class="cls-8" x="249.00877" y="50.79431" width="2.96016" height="4.51167" rx="1.30294"/><path class="cls-9" d="M256.76751,57.924c0,.10424-.00346.207-.00988.30976-.003.05137-.00692.10226-.01186.15314s-.01037.10178-.0168.15217c-.0163.12845-.03754.25591-.06373.38139-.01284.06324-.02717.12548-.043.18773-.01531.06176-.03211.12351-.04989.18477a5.37121,5.37121,0,0,1-1.61253,2.50079,6.117,6.117,0,0,1-.87592.64719q-.16821.10374-.34483.19712a6.96343,6.96343,0,0,1-6.582-.08992q-.13413-.07632-.26331-.15809a6.21533,6.21533,0,0,1-.701-.51725,5.37929,5.37929,0,0,1-1.70293-2.57984c-.01778-.06126-.03458-.123-.05039-.18477-.01581-.06225-.02964-.12449-.043-.18773q-.02-.09411-.03557-.18971-.01557-.09484-.02816-.19119v-.00049a4.87207,4.87207,0,0,1-.03853-.61507,4.8195,4.8195,0,0,1,.03409-.57555h12.40515A4.8195,4.8195,0,0,1,256.76751,57.924Z"/><path class="cls-10" d="M254.08392,62.441q-.16821.10374-.34483.19712a6.96343,6.96343,0,0,1-6.582-.08992q-.13413-.07632-.26331-.15809a4.09184,4.09184,0,0,1,7.19014.05089Z"/><path class="cls-11" d="M256.76751,57.924a4.91054,4.91054,0,0,1-.03869.61515,4.85879,4.85879,0,0,1-.15661.754h-12.0824a4.8079,4.8079,0,0,1-.15706-.754,4.91054,4.91054,0,0,1-.03869-.61515,4.81523,4.81523,0,0,1,.03414-.57547h12.40517A4.81523,4.81523,0,0,1,256.76751,57.924Z"/><circle class="cls-12" cx="242.26961" cy="51.00508" r="1.16026"/><circle class="cls-12" cx="257.92777" cy="51.00508" r="1.16026"/><path class="cls-6" d="M266.98512,36.70623a7.34962,7.34962,0,0,1-2.15764,5.207,7.44581,7.44581,0,0,1-1.051.87314,7.32718,7.32718,0,0,1-4.156,1.2845H243.82962a7.36311,7.36311,0,0,1-7.34872-6.88827c.0836-.09156.16986-.18179.25743-.26937a9.09,9.09,0,0,1,3.16216-2.05679,5.99145,5.99145,0,0,0,2.55971.58917H254.578a6.015,6.015,0,0,0,2.46948-.5268,6.06057,6.06057,0,0,0,1.79936-1.242,6.01178,6.01178,0,0,0,1.76884-4.26751A7.36433,7.36433,0,0,1,266.98512,36.70623Z"/><path class="cls-6" d="M257.0475,34.91881a6.015,6.015,0,0,1-2.46948.5268H242.46153a14.29924,14.29924,0,0,1,2.30493-1.19426h10.87047A14.28149,14.28149,0,0,1,257.0475,34.91881Z"/><path class="cls-6" d="M244.76646,34.25135a14.29924,14.29924,0,0,0-2.30493,1.19426h-.00133a5.99145,5.99145,0,0,1-2.55971-.58917,9.0421,9.0421,0,0,1,3.26565-.60509Z"/><path class="cls-6" d="M258.10642,34.30708a5.94125,5.94125,0,0,1-1.05892.61173,14.28149,14.28149,0,0,0-1.41057-.66746h1.46232A9.008,9.008,0,0,1,258.10642,34.30708Z"/><rect class="cls-6" x="238.45542" y="45.79592" width="7.0329" height="2.92953" rx="1.30652" transform="translate(-2.9981 19.44569) rotate(-4.57371)"/><rect class="cls-6" x="256.96145" y="43.74424" width="2.92953" height="7.0329" rx="1.30652" transform="matrix(0.07974, -0.99682, 0.99682, 0.07974, 190.70874, 301.09533)"/><line class="cls-13" x1="246.5499" y1="74.45832" x2="246.5499" y2="86.78786"/><line class="cls-13" x1="255.27135" y1="74.45832" x2="255.27135" y2="86.78786"/><path class="cls-14" d="M265.2501,35.69519a6.86624,6.86624,0,0,1-2.01573,4.86454,6.95635,6.95635,0,0,1-.98183.81572,6.84531,6.84531,0,0,1-3.88271,1.2"/><rect class="cls-15" x="200" width="100" height="100"/><path class="cls-1" d="M387.77193,49.37872a38.98644,38.98644,0,0,1-21.23141,34.94955q-1.07484.54139-2.18683,1.01114a36.97577,36.97577,0,0,1-28.8004,0c-.19506-.08094-.3888-.16587-.58121-.25213a38.92779,38.92779,0,0,1-22.837-35.70856c0-21.47291,16.932-38.88,37.81843-38.88S387.77193,27.90581,387.77193,49.37872Z"/><path class="cls-2" d="M366.54052,84.2805q-1.07484.54139-2.18683,1.01114a36.97577,36.97577,0,0,1-28.8004,0c-.19506-.08094-.3888-.16587-.58121-.25212-.00928-.22426-.01327-.44985-.01327-.67675a16.5327,16.5327,0,0,1,.10351-1.85775,16.2772,16.2772,0,0,1,.8121-3.5828,16.01521,16.01521,0,0,1,1.051-2.38853,16.193,16.193,0,0,1,2.62473-3.5828,15.68559,15.68559,0,0,1,7.21868-4.25823,15.10555,15.10555,0,0,1,1.61226-.33837h.00265a15.46827,15.46827,0,0,1,2.366-.18047,15.701,15.701,0,0,1,2.16162.14995h.00265a15.52351,15.52351,0,0,1,1.94931.40472,15.71358,15.71358,0,0,1,7.086,4.2224,16.1933,16.1933,0,0,1,2.62473,3.5828,16.01521,16.01521,0,0,1,1.051,2.38853,16.58023,16.58023,0,0,1,.9156,5.35828Z"/><rect class="cls-3" x="338.64914" y="64.3734" width="24.04319" height="11.80997" rx="5.19826"/><path class="cls-4" d="M352.417,73.82257h0a4.631,4.631,0,0,1-4.61664-.21717L342.244,69.46762c-1.18161-.87995-1.03044-2.20939.33764-2.9694h0a4.631,4.631,0,0,1,4.61665.21717l5.55632,4.13778C353.93627,71.73312,353.78511,73.06256,352.417,73.82257Z"/><path class="cls-4" d="M348.335,73.70779h0a1.63515,1.63515,0,0,1,0-2.97733l6.01077-3.86608a4.652,4.652,0,0,1,4.629,0h0a1.63515,1.63515,0,0,1,0,2.97733L352.964,73.70779A4.652,4.652,0,0,1,348.335,73.70779Z"/><rect class="cls-5" x="346.50339" y="62.25026" width="8.09447" height="12.20806" rx="3.56285"/><path class="cls-6" d="M366.14244,43.341a9.08826,9.08826,0,0,1-9.0897,9.0897H343.11963A9.08948,9.08948,0,0,1,336.4344,37.1826c.08359-.09156.16985-.18179.25743-.26937a9.08984,9.08984,0,0,1,3.16215-2.05679,5.99145,5.99145,0,0,0,2.55971.58917h12.11782a6.015,6.015,0,0,0,2.46948-.5268,5.94125,5.94125,0,0,0,1.05892-.61173,9.08409,9.08409,0,0,1,8.08253,9.034Z"/><ellipse class="cls-5" cx="336.05681" cy="51.50846" rx="2.82305" ry="2.73595"/><ellipse class="cls-7" cx="336.04377" cy="51.52507" rx="1.53978" ry="1.52507"/><ellipse class="cls-5" cx="364.58651" cy="51.50846" rx="2.82305" ry="2.73595"/><ellipse class="cls-7" cx="364.57347" cy="51.52507" rx="1.53978" ry="1.52507"/><path class="cls-5" d="M364.55008,47.58467V53.905a14.39555,14.39555,0,1,1-28.7911,0V47.58467a14.32225,14.32225,0,0,1,1.79007-6.95727,14.4708,14.4708,0,0,1,4.86464-5.18179h12.11782a6.015,6.015,0,0,0,2.46948-.5268,14.38068,14.38068,0,0,1,7.54909,12.66586Z"/><rect class="cls-8" x="348.96226" y="50.79431" width="2.96016" height="4.51167" rx="1.30294"/><path class="cls-9" d="M356.721,57.924c0,.10424-.00346.207-.00988.30976-.003.05137-.00692.10226-.01186.15314s-.01037.10178-.01679.15217c-.01631.12845-.03755.25591-.06373.38139-.01285.06324-.02718.12548-.043.18773-.01532.06176-.03212.12351-.0499.18477a5.37121,5.37121,0,0,1-1.61253,2.50079,6.11749,6.11749,0,0,1-.87591.64719q-.16823.10374-.34484.19712a6.96343,6.96343,0,0,1-6.582-.08992q-.13412-.07632-.26331-.15809a6.2143,6.2143,0,0,1-.701-.51725A5.37924,5.37924,0,0,1,344.4433,59.293c-.01778-.06126-.03458-.123-.05039-.18477-.0158-.06225-.02964-.12449-.043-.18773q-.02-.09411-.03557-.18971-.01556-.09484-.02816-.19119v-.00049a4.87207,4.87207,0,0,1-.03853-.61507,4.8195,4.8195,0,0,1,.03409-.57555h12.40515A4.8195,4.8195,0,0,1,356.721,57.924Z"/><path class="cls-10" d="M354.03742,62.441q-.16823.10374-.34484.19712a6.96343,6.96343,0,0,1-6.582-.08992q-.13412-.07632-.26331-.15809a4.09185,4.09185,0,0,1,7.19015.05089Z"/><path class="cls-11" d="M356.721,57.924a4.91054,4.91054,0,0,1-.03869.61515,4.85994,4.85994,0,0,1-.1566.754H344.4433a4.80674,4.80674,0,0,1-.15705-.754,4.90864,4.90864,0,0,1-.0387-.61515,4.81523,4.81523,0,0,1,.03414-.57547h12.40517A4.81523,4.81523,0,0,1,356.721,57.924Z"/><circle class="cls-12" cx="342.2231" cy="51.00508" r="1.16026"/><circle class="cls-12" cx="357.88126" cy="51.00508" r="1.16026"/><path class="cls-6" d="M366.93861,36.70623a7.34949,7.34949,0,0,1-2.15764,5.207,7.44581,7.44581,0,0,1-1.051.87314,7.32718,7.32718,0,0,1-4.15605,1.2845H343.78311a7.36308,7.36308,0,0,1-7.34871-6.88827c.08359-.09156.16985-.18179.25743-.26937a9.08984,9.08984,0,0,1,3.16215-2.05679,5.99145,5.99145,0,0,0,2.55971.58917h12.11782a6.015,6.015,0,0,0,2.46948-.5268,6.06057,6.06057,0,0,0,1.79936-1.242,6.01173,6.01173,0,0,0,1.76884-4.26751A7.36433,7.36433,0,0,1,366.93861,36.70623Z"/><path class="cls-6" d="M357.001,34.91881a6.015,6.015,0,0,1-2.46948.5268H342.415A14.29924,14.29924,0,0,1,344.72,34.25135h10.87048A14.28239,14.28239,0,0,1,357.001,34.91881Z"/><path class="cls-6" d="M344.72,34.25135a14.29924,14.29924,0,0,0-2.30493,1.19426h-.00133a5.99145,5.99145,0,0,1-2.55971-.58917,9.0421,9.0421,0,0,1,3.26565-.60509Z"/><path class="cls-6" d="M358.05991,34.30708a5.94125,5.94125,0,0,1-1.05892.61173,14.28239,14.28239,0,0,0-1.41056-.66746h1.46231A9.008,9.008,0,0,1,358.05991,34.30708Z"/><rect class="cls-6" x="338.40892" y="45.79592" width="7.0329" height="2.92953" rx="1.30652" transform="translate(-2.6798 27.41613) rotate(-4.57371)"/><rect class="cls-6" x="356.91494" y="43.74424" width="2.92953" height="7.0329" rx="1.30652" transform="matrix(0.07974, -0.99682, 0.99682, 0.07974, 282.69179, 400.73052)"/><line class="cls-13" x1="346.50339" y1="74.45832" x2="346.50339" y2="86.78786"/><line class="cls-13" x1="355.22484" y1="74.45832" x2="355.22484" y2="86.78786"/><path class="cls-14" d="M365.20359,35.69519a6.86624,6.86624,0,0,1-2.01573,4.86454,6.95578,6.95578,0,0,1-.98183.81572,6.84531,6.84531,0,0,1-3.88271,1.2"/><rect class="cls-15" x="299.95349" width="100" height="100"/><path class="cls-1" d="M487.77193,49.22354a38.98644,38.98644,0,0,1-21.23141,34.94955q-1.07484.54139-2.18683,1.01114a36.97577,36.97577,0,0,1-28.8004,0c-.19506-.08094-.3888-.16587-.58121-.25212a38.92781,38.92781,0,0,1-22.837-35.70857c0-21.47291,16.932-38.88,37.81843-38.88S487.77193,27.75063,487.77193,49.22354Z"/><path class="cls-2" d="M466.54052,84.12532q-1.07484.54139-2.18683,1.01114a36.97577,36.97577,0,0,1-28.8004,0c-.19506-.08094-.3888-.16587-.58121-.25212-.00928-.22426-.01327-.44984-.01327-.67675a16.5327,16.5327,0,0,1,.10351-1.85775,16.2772,16.2772,0,0,1,.8121-3.5828,16.01521,16.01521,0,0,1,1.051-2.38853,16.193,16.193,0,0,1,2.62473-3.5828,15.68559,15.68559,0,0,1,7.21868-4.25823,15.108,15.108,0,0,1,1.61226-.33837h.00265a15.46827,15.46827,0,0,1,2.366-.18046,15.701,15.701,0,0,1,2.16162.14994h.00265a15.52351,15.52351,0,0,1,1.94931.40472,15.71358,15.71358,0,0,1,7.086,4.2224,16.1933,16.1933,0,0,1,2.62473,3.5828,16.01521,16.01521,0,0,1,1.051,2.38853,16.58023,16.58023,0,0,1,.9156,5.35828Z"/><rect class="cls-3" x="438.64914" y="64.21822" width="24.04319" height="11.80997" rx="5.19826"/><path class="cls-4" d="M452.417,73.66739h0a4.631,4.631,0,0,1-4.61664-.21717L442.244,69.31244c-1.18161-.87995-1.03044-2.20939.33764-2.96939h0a4.631,4.631,0,0,1,4.61665.21717l5.55632,4.13779C453.93627,71.57794,453.78511,72.90738,452.417,73.66739Z"/><path class="cls-4" d="M448.335,73.55261h0a1.63515,1.63515,0,0,1,0-2.97733l6.01077-3.86608a4.652,4.652,0,0,1,4.629,0h0a1.63515,1.63515,0,0,1,0,2.97733L452.964,73.55261A4.652,4.652,0,0,1,448.335,73.55261Z"/><rect class="cls-5" x="446.50339" y="62.09508" width="8.09447" height="12.20806" rx="3.56285"/><path class="cls-6" d="M466.14244,43.18586a9.08826,9.08826,0,0,1-9.0897,9.0897H443.11963a9.08947,9.08947,0,0,1-6.68523-15.24813c.08359-.09156.16985-.1818.25743-.26937a9.08987,9.08987,0,0,1,3.16215-2.0568,5.9916,5.9916,0,0,0,2.55971.58918h12.11782a6.015,6.015,0,0,0,2.46948-.52681,5.94125,5.94125,0,0,0,1.05892-.61173,9.08409,9.08409,0,0,1,8.08253,9.034Z"/><ellipse class="cls-5" cx="436.05681" cy="51.35328" rx="2.82305" ry="2.73595"/><ellipse class="cls-7" cx="436.04377" cy="51.36989" rx="1.53978" ry="1.52507"/><ellipse class="cls-5" cx="464.58651" cy="51.35328" rx="2.82305" ry="2.73595"/><ellipse class="cls-7" cx="464.57347" cy="51.36989" rx="1.53978" ry="1.52507"/><path class="cls-5" d="M464.55008,47.42949v6.32032a14.39555,14.39555,0,1,1-28.7911,0V47.42949a14.32225,14.32225,0,0,1,1.79007-6.95727,14.47077,14.47077,0,0,1,4.86464-5.18178h12.11782a6.015,6.015,0,0,0,2.46948-.52681,14.38068,14.38068,0,0,1,7.54909,12.66586Z"/><rect class="cls-8" x="448.96226" y="50.63913" width="2.96016" height="4.51167" rx="1.30294"/><path class="cls-9" d="M456.721,57.76883c0,.10424-.00346.207-.00988.30976-.003.05138-.00692.10226-.01186.15315s-.01037.10177-.01679.15216c-.01631.12845-.03755.25591-.06373.38139-.01285.06324-.02718.12549-.043.18774-.01532.06175-.03212.1235-.0499.18476a5.37124,5.37124,0,0,1-1.61253,2.5008,6.11819,6.11819,0,0,1-.87591.64718q-.16823.10374-.34484.19712a6.96343,6.96343,0,0,1-6.582-.08992q-.13412-.07632-.26331-.15809a6.21186,6.21186,0,0,1-.701-.51725,5.37924,5.37924,0,0,1-1.70294-2.57984c-.01778-.06126-.03458-.123-.05039-.18476-.0158-.06225-.02964-.1245-.043-.18774q-.02-.09411-.03557-.18971-.01556-.09485-.02816-.19119V58.3839a4.872,4.872,0,0,1-.03853-.61507,4.8195,4.8195,0,0,1,.03409-.57555h12.40515A4.8195,4.8195,0,0,1,456.721,57.76883Z"/><path class="cls-10" d="M454.03742,62.28577q-.16823.10374-.34484.19712a6.96343,6.96343,0,0,1-6.582-.08992q-.13412-.07632-.26331-.15809a4.09185,4.09185,0,0,1,7.19015.05089Z"/><path class="cls-11" d="M456.721,57.76881a4.91054,4.91054,0,0,1-.03869.61515,4.86031,4.86031,0,0,1-.1566.75406H444.4433a4.8071,4.8071,0,0,1-.15705-.75406,4.90864,4.90864,0,0,1-.0387-.61515,4.81523,4.81523,0,0,1,.03414-.57547h12.40517A4.81523,4.81523,0,0,1,456.721,57.76881Z"/><circle class="cls-12" cx="442.2231" cy="50.8499" r="1.16026"/><circle class="cls-12" cx="457.88126" cy="50.8499" r="1.16026"/><path class="cls-6" d="M466.93861,36.551a7.34949,7.34949,0,0,1-2.15764,5.207,7.44513,7.44513,0,0,1-1.051.87314,7.32718,7.32718,0,0,1-4.15605,1.2845H443.78311a7.36308,7.36308,0,0,1-7.34871-6.88826c.08359-.09156.16985-.1818.25743-.26937a9.08987,9.08987,0,0,1,3.16215-2.0568,5.9916,5.9916,0,0,0,2.55971.58918h12.11782a6.015,6.015,0,0,0,2.46948-.52681,6.06057,6.06057,0,0,0,1.79936-1.242,6.01173,6.01173,0,0,0,1.76884-4.26751A7.36433,7.36433,0,0,1,466.93861,36.551Z"/><path class="cls-6" d="M457.001,34.76363a6.015,6.015,0,0,1-2.46948.52681H442.415A14.29849,14.29849,0,0,1,444.72,34.09617h10.87048A14.28466,14.28466,0,0,1,457.001,34.76363Z"/><path class="cls-6" d="M444.72,34.09617a14.29849,14.29849,0,0,0-2.30493,1.19427h-.00133a5.9916,5.9916,0,0,1-2.55971-.58918,9.0421,9.0421,0,0,1,3.26565-.60509Z"/><path class="cls-6" d="M458.05991,34.1519a5.94125,5.94125,0,0,1-1.05892.61173,14.28466,14.28466,0,0,0-1.41056-.66746h1.46231A9.008,9.008,0,0,1,458.05991,34.1519Z"/><rect class="cls-6" x="438.40892" y="45.64075" width="7.0329" height="2.92953" rx="1.30652" transform="translate(-2.34899 35.38978) rotate(-4.57371)"/><rect class="cls-6" x="456.91494" y="43.58906" width="2.92953" height="7.0329" rx="1.30652" transform="matrix(0.07974, -0.99682, 0.99682, 0.07974, 374.87233, 500.26928)"/><line class="cls-13" x1="446.50339" y1="74.30314" x2="446.50339" y2="86.63268"/><line class="cls-13" x1="455.22484" y1="74.30314" x2="455.22484" y2="86.63268"/><path class="cls-14" d="M465.20359,35.54a6.86615,6.86615,0,0,1-2.01573,4.86453,6.9551,6.9551,0,0,1-.98183.81572,6.84531,6.84531,0,0,1-3.88271,1.2"/><rect class="cls-15" x="399.95349" y="-0.15518" width="100" height="100"/><text class="cls-16" transform="translate(6.34135 14.97561) scale(0.98354 1)">1</text><text class="cls-16" transform="translate(106.09477 10.49872)">2</text><text class="cls-16" transform="translate(226.39307 27.28033)">3</text><text class="cls-16" transform="translate(326.42008 29.40911)">4</text><text class="cls-16" transform="translate(428.2141 29.40902)">5</text></g></svg>
