<svg id="Layer_1" data-name="Layer 1" xmlns="http://www.w3.org/2000/svg" width="320" height="400" viewBox="0 0 320 400"><defs><style>.cls-1{fill:#d33031;}.cls-2{fill:#e53938;}.cls-3{fill:#1a1a1a;}.cls-4{fill:#333;}</style></defs><title>læbestift</title><path class="cls-1" d="M285,153.5c0,48.88-9.77,17-36,17s-37,28.88-37-20,11.77-129,38-129S285,104.62,285,153.5Z"/><path class="cls-2" d="M250.73,56.76c-6.1,7.49-19.59,11.77-17.45,13.52s14.42-.3,20.52-7.79,11.73-22.7,9.59-24.44S256.83,49.26,250.73,56.76Z"/><path class="cls-3" d="M296.66,325.16c5.34,60.42-52.93,55.23-78.32,55.23S209,252.5,204.72,191.55c-3.76-53.56,42-16,69.24-30.29C298,148.66,291,261,296.66,325.16Z"/><path class="cls-4" d="M286.05,167.1h0c-4.22,14-82.61,18.47-77,2.16,3-8.76-3.33-8.62,17.94-8.62S286.05,153.11,286.05,167.1Z"/><path class="cls-3" d="M142,351.5c0,22.09-52,9-79,15-23.63,5.25-45-41.91-45-64s40.67-9,78.5-9S142,329.41,142,351.5Z"/><path class="cls-4" d="M54.17,318.46C66.06,336.74,64.37,352,61,361.11c-5.13,13.95-15.64,1.19-36-23.61-12.12-14.73-17.07-33.06-7-42.61C25,288.23,42.27,300.17,54.17,318.46Z"/></svg>
