<svg id="Layer_1" data-name="Layer 1" xmlns="http://www.w3.org/2000/svg" width="690" height="840" viewBox="0 0 690 840"><defs><style>.cls-1{fill:#5f2483;}.cls-2{fill:#fbcdac;}.cls-3{fill:#1e56a3;}.cls-4{fill:#0d71b9;}.cls-5{fill:#08111d;}.cls-6{fill:#f7baab;}.cls-11,.cls-7{fill:none;stroke-linecap:round;stroke-miterlimit:10;}.cls-7{stroke:#e7334a;stroke-width:14px;}.cls-8{fill:#f7bbac;}.cls-9{fill:#f191ab;}.cls-10{fill:#c79e99;}.cls-11{stroke:#45a4dc;stroke-width:8px;}.cls-12{fill:#46a4dc;}</style></defs><title>nøgen_pige</title><polygon class="cls-1" points="648.76 44.17 648.76 800.17 44.77 798.17 44.77 42.17 648.76 44.17"/><path class="cls-2" d="M309.79,553a37.6,37.6,0,0,1-6.22,20.63l-15.18,23L236,676.08l-44.71,67.71-35.91,54.38L153,801.64a36.54,36.54,0,0,0-2-3.47H72.77A37.31,37.31,0,0,1,79,777.67l4.29-6.5L205.07,586.7h0L218,567.17l12.51-18.95,0,0L241,532.34a37.46,37.46,0,0,1,31.69-16.84h0A37.53,37.53,0,0,1,309.79,553Z"/><rect class="cls-2" x="484.77" y="223.78" width="75.01" height="252.84" rx="37.51" transform="translate(-102.47 421.62) rotate(-40.36)"/><path class="cls-3" d="M198.77,142.17H488.24a1.52,1.52,0,0,1,1.52,1.52V461.85A105.31,105.31,0,0,1,384.45,567.17H304.08A105.31,105.31,0,0,1,198.77,461.85V142.17A0,0,0,0,1,198.77,142.17Z" transform="translate(688.53 709.33) rotate(180)"/><rect class="cls-2" x="288.95" y="450.35" width="110" height="55.62" rx="16.53" transform="translate(822.12 134.21) rotate(90)"/><path class="cls-2" d="M257.07,186.17H430.44a34.32,34.32,0,0,1,34.32,34.32V378.85A105.31,105.31,0,0,1,359.45,484.17H328.08A105.31,105.31,0,0,1,222.77,378.85V220.47a34.3,34.3,0,0,1,34.3-34.3Z"/><rect class="cls-4" x="218.77" y="186.17" width="251" height="115" rx="37.39"/><circle class="cls-5" cx="267.51" cy="354.42" r="8.74"/><circle class="cls-5" cx="416.51" cy="354.42" r="8.74"/><rect class="cls-6" x="333.18" y="353.98" width="22.31" height="34" rx="11.15"/><line class="cls-7" x1="328.77" y1="424.17" x2="355.77" y2="424.17"/><line class="cls-7" x1="332.77" y1="437.17" x2="352.77" y2="437.17"/><path class="cls-2" d="M495.16,650.13V767.21a152.5,152.5,0,0,1-3.15,31H194.39a153.22,153.22,0,0,1-3.15-31V650.13a151.94,151.94,0,0,1,124.9-149.56,151.89,151.89,0,0,1,134.52,42.11l.16.16a153,153,0,0,1,19.72,24.33,151.33,151.33,0,0,1,24.62,83Z"/><rect class="cls-2" x="451.77" y="368.17" width="75.01" height="369" rx="37.51" transform="matrix(0.83, 0.55, -0.55, 0.83, 385.51, -178.13)"/><circle class="cls-8" cx="276.27" cy="645.67" r="50.5"/><circle class="cls-8" cx="407.27" cy="645.67" r="50.5"/><circle class="cls-9" cx="275.77" cy="646.17" r="15"/><circle class="cls-9" cx="406.77" cy="646.17" r="15"/><path class="cls-2" d="M151,798.17H49.89l.22-.73A37,37,0,0,1,96.3,772.69l34.51,10.42A36.89,36.89,0,0,1,151,798.17Z"/><circle class="cls-10" cx="342.51" cy="763.42" r="8.74"/><path class="cls-11" d="M459.77,246.77a37.41,37.41,0,0,1-37.4,37.4H260.77"/><ellipse class="cls-12" cx="267.51" cy="326.53" rx="18.5" ry="7" transform="translate(-49.17 47.42) rotate(-9.28)"/><ellipse class="cls-12" cx="416.51" cy="326.53" rx="7" ry="18.5" transform="translate(34.12 692.43) rotate(-81.83)"/></svg>
