<svg xmlns="http://www.w3.org/2000/svg" width="500" height="100" viewBox="0 0 500 100"><defs><style>.cls-1,.cls-10,.cls-11{fill:none;}.cls-2{fill:#f6f6f6;}.cls-3{fill:#f39323;}.cls-4{fill:#fff;}.cls-5{fill:#faccab;}.cls-6{fill:#412413;}.cls-7{fill:#ef7a8a;}.cls-8{fill:#08111d;}.cls-9{fill:#f7baab;}.cls-10,.cls-11{stroke:#a67d52;stroke-linecap:round;stroke-width:2px;}.cls-10{stroke-linejoin:round;}.cls-11{stroke-miterlimit:10;}.cls-12{fill:#041015;}.cls-13{fill:#ef7b8b;}.cls-14{fill:#8c633a;}</style></defs><title>Artboard 7</title><g id="Layer_6" data-name="Layer 6"><rect class="cls-1" x="0.03" width="100" height="100"/><path class="cls-2" d="M88,50a38,38,0,0,1-21.3,34.1c-.71.35-1.45.68-2.19,1a38,38,0,0,1-28.88,0L35,84.84A37.94,37.94,0,1,1,88,50Z"/><path class="cls-3" d="M66.66,84.1c-.71.35-1.45.68-2.19,1a38,38,0,0,1-28.88,0L35,84.84c0-.22,0-.44,0-.66a15.4,15.4,0,0,1,.92-5.31A14.81,14.81,0,0,1,37,76.54a15.81,15.81,0,0,1,9.87-7.65,14.52,14.52,0,0,1,1.62-.33h0a15.6,15.6,0,0,1,2.38-.18,15.36,15.36,0,0,1,2.16.15h0a15.65,15.65,0,0,1,2,.39,15.9,15.9,0,0,1,10.8,10,15.56,15.56,0,0,1,.81,3.49A14.27,14.27,0,0,1,66.66,84.1Z"/><path class="cls-4" d="M64.69,76.54H37A15.81,15.81,0,0,1,39.59,73H62.06A15.81,15.81,0,0,1,64.69,76.54Z"/><path class="cls-4" d="M66.56,82.36H35.09a15.57,15.57,0,0,1,.82-3.49H65.75A15.56,15.56,0,0,1,66.56,82.36Z"/><path class="cls-4" d="M64.47,85.08a38,38,0,0,1-28.88,0Z"/><rect class="cls-5" x="46.83" y="62.17" width="8.12" height="11.91" rx="4.06"/><ellipse class="cls-6" cx="50.49" cy="49.29" rx="16.44" ry="15.73"/><ellipse class="cls-6" cx="50.76" cy="28.96" rx="8.18" ry="7.83"/><ellipse class="cls-5" cx="36.49" cy="52.6" rx="2.83" ry="2.67"/><ellipse class="cls-7" cx="36.48" cy="52.61" rx="1.54" ry="1.49"/><ellipse class="cls-5" cx="64.84" cy="52.34" rx="2.83" ry="2.67"/><ellipse class="cls-7" cx="64.82" cy="52.35" rx="1.54" ry="1.49"/><rect class="cls-5" x="36.19" y="34.47" width="28.88" height="34.25" rx="14.44"/><ellipse class="cls-6" cx="59.25" cy="41.53" rx="6.18" ry="10.75" transform="translate(-12.98 45.85) rotate(-38.45)"/><ellipse class="cls-8" cx="42.67" cy="53.01" rx="1.16" ry="1.13"/><rect class="cls-9" x="49.23" y="54.4" width="2.97" height="4.4" rx="1.48"/><ellipse class="cls-6" cx="43.05" cy="41.25" rx="11.33" ry="6.08" transform="translate(-16.49 44.33) rotate(-46.74)"/><ellipse class="cls-7" cx="41.4" cy="57.01" rx="1.54" ry="1.49"/><ellipse class="cls-7" cx="59.63" cy="56.88" rx="1.54" ry="1.49"/><path class="cls-10" d="M51.16,22.94a5.44,5.44,0,0,1,5.55,5.31"/><path class="cls-11" d="M57.84,34.74c5.9,3,7.49,6.85,8.16,11.89"/><path class="cls-12" d="M55.79,60.59a1.93,1.93,0,0,1,0,.24.49.49,0,0,1,0,.12s0,.08,0,.12,0,.2,0,.3l0,.14a.83.83,0,0,0,0,.15,4.18,4.18,0,0,1-1.26,2,4.31,4.31,0,0,1-.68.51l-.27.15a5.39,5.39,0,0,1-5.11-.07l-.21-.12a4.26,4.26,0,0,1-.54-.41,4.17,4.17,0,0,1-1.33-2,.83.83,0,0,0,0-.15l0-.14,0-.15s0-.1,0-.15h0a3.87,3.87,0,0,1,0-.48,3.4,3.4,0,0,1,0-.45h9.64A3.4,3.4,0,0,1,55.79,60.59Z"/><path class="cls-13" d="M53.7,64.12l-.27.15a5.39,5.39,0,0,1-5.11-.07l-.21-.12a3.17,3.17,0,0,1,5.59,0Z"/><path class="cls-4" d="M55.79,60.59a3.87,3.87,0,0,1,0,.48,5.6,5.6,0,0,1-.12.59h-9.4a5.6,5.6,0,0,1-.12-.59,3.87,3.87,0,0,1,0-.48,3.4,3.4,0,0,1,0-.45h9.64A3.4,3.4,0,0,1,55.79,60.59Z"/><ellipse class="cls-14" cx="41.81" cy="50.13" rx="2.46" ry="0.91" transform="translate(-7.29 7.12) rotate(-8.95)"/><ellipse class="cls-14" cx="58.91" cy="50.15" rx="0.93" ry="2.46" transform="translate(0.2 100.54) rotate(-81.05)"/><ellipse class="cls-8" cx="58.78" cy="53.01" rx="1.16" ry="1.13"/><rect class="cls-1" x="100.03" width="100" height="100"/><path class="cls-2" d="M188,50a38,38,0,0,1-21.3,34.1c-.71.35-1.45.68-2.19,1a38,38,0,0,1-28.88,0l-.59-.24A37.94,37.94,0,1,1,188,50Z"/><path class="cls-3" d="M166.66,84.1c-.71.35-1.45.68-2.19,1a38,38,0,0,1-28.88,0l-.59-.24c0-.22,0-.44,0-.66a15.4,15.4,0,0,1,.92-5.31A14.81,14.81,0,0,1,137,76.54a15.81,15.81,0,0,1,9.87-7.65,14.52,14.52,0,0,1,1.62-.33h0a15.6,15.6,0,0,1,2.38-.18,15.36,15.36,0,0,1,2.16.15h0a15.65,15.65,0,0,1,1.95.39,15.9,15.9,0,0,1,10.8,10,15.56,15.56,0,0,1,.81,3.49A14.27,14.27,0,0,1,166.66,84.1Z"/><path class="cls-4" d="M164.69,76.54H137a15.81,15.81,0,0,1,2.63-3.5h22.47A15.81,15.81,0,0,1,164.69,76.54Z"/><path class="cls-4" d="M166.56,82.36H135.09a15.57,15.57,0,0,1,.82-3.49h29.84A15.56,15.56,0,0,1,166.56,82.36Z"/><path class="cls-4" d="M164.47,85.08a38,38,0,0,1-28.88,0Z"/><rect class="cls-5" x="146.83" y="62.17" width="8.12" height="11.91" rx="4.06"/><ellipse class="cls-6" cx="150.49" cy="49.29" rx="16.44" ry="15.73"/><ellipse class="cls-6" cx="150.76" cy="28.96" rx="8.18" ry="7.83"/><ellipse class="cls-5" cx="136.49" cy="52.6" rx="2.83" ry="2.67"/><ellipse class="cls-7" cx="136.48" cy="52.61" rx="1.54" ry="1.49"/><ellipse class="cls-5" cx="164.84" cy="52.34" rx="2.83" ry="2.67"/><ellipse class="cls-7" cx="164.82" cy="52.35" rx="1.54" ry="1.49"/><rect class="cls-5" x="136.19" y="34.47" width="28.88" height="34.25" rx="14.44"/><ellipse class="cls-6" cx="159.25" cy="41.53" rx="6.18" ry="10.75" transform="translate(8.71 108.03) rotate(-38.45)"/><ellipse class="cls-8" cx="142.67" cy="53.01" rx="1.16" ry="0.57"/><rect class="cls-9" x="149.23" y="54.4" width="2.97" height="4.4" rx="1.48"/><ellipse class="cls-6" cx="143.05" cy="41.25" rx="11.33" ry="6.08" transform="translate(14.97 117.15) rotate(-46.74)"/><ellipse class="cls-7" cx="141.4" cy="57.01" rx="1.54" ry="1.49"/><ellipse class="cls-7" cx="159.63" cy="56.88" rx="1.54" ry="1.49"/><path class="cls-10" d="M151.16,22.94a5.44,5.44,0,0,1,5.55,5.31"/><path class="cls-11" d="M157.84,34.74c5.9,3,7.49,6.85,8.16,11.89"/><path class="cls-12" d="M155.79,60.59a1.93,1.93,0,0,1,0,.24.49.49,0,0,1,0,.12s0,.08,0,.12,0,.2,0,.3l0,.14a.83.83,0,0,0,0,.15,4.18,4.18,0,0,1-1.26,2,4.31,4.31,0,0,1-.68.51l-.27.15a5.39,5.39,0,0,1-5.11-.07l-.21-.12a4.26,4.26,0,0,1-.54-.41,4.17,4.17,0,0,1-1.33-2,.83.83,0,0,0,0-.15l0-.14,0-.15s0-.1,0-.15h0a3.87,3.87,0,0,1,0-.48,3.4,3.4,0,0,1,0-.45h9.64A3.4,3.4,0,0,1,155.79,60.59Z"/><path class="cls-13" d="M153.7,64.12l-.27.15a5.39,5.39,0,0,1-5.11-.07l-.21-.12a3.17,3.17,0,0,1,5.59,0Z"/><path class="cls-4" d="M155.79,60.59a3.87,3.87,0,0,1,0,.48,5.6,5.6,0,0,1-.12.59h-9.4a5.6,5.6,0,0,1-.12-.59,3.87,3.87,0,0,1,0-.48,3.4,3.4,0,0,1,0-.45h9.64A3.4,3.4,0,0,1,155.79,60.59Z"/><ellipse class="cls-14" cx="141.81" cy="50.13" rx="2.46" ry="0.91" transform="translate(-6.07 22.68) rotate(-8.95)"/><ellipse class="cls-14" cx="158.91" cy="50.15" rx="0.93" ry="2.46" transform="translate(84.65 199.32) rotate(-81.05)"/><rect class="cls-1" x="200" width="100" height="100"/><path class="cls-2" d="M287.93,50a37.94,37.94,0,0,1-21.29,34.1c-.72.35-1.45.68-2.2,1a38,38,0,0,1-28.88,0l-.59-.24a37.94,37.94,0,1,1,53-34.84Z"/><path class="cls-3" d="M266.64,84.1c-.72.35-1.45.68-2.2,1a38,38,0,0,1-28.88,0l-.59-.24c0-.22,0-.44,0-.66a15.6,15.6,0,0,1,.11-1.82,15,15,0,0,1,.81-3.49,15.84,15.84,0,0,1,10.93-10,14.35,14.35,0,0,1,1.61-.33h0a15.37,15.37,0,0,1,2.37-.18,15.61,15.61,0,0,1,2.17.15h0a15.65,15.65,0,0,1,1.95.39,15.83,15.83,0,0,1,9.74,7.62,14.85,14.85,0,0,1,1.06,2.33,15.56,15.56,0,0,1,.81,3.49A16.58,16.58,0,0,1,266.64,84.1Z"/><path class="cls-4" d="M264.66,76.54H236.93a15.85,15.85,0,0,1,2.64-3.5H262A15.81,15.81,0,0,1,264.66,76.54Z"/><path class="cls-4" d="M266.53,82.36H235.07a15,15,0,0,1,.81-3.49h29.84A15.56,15.56,0,0,1,266.53,82.36Z"/><path class="cls-4" d="M264.44,85.08a38,38,0,0,1-28.88,0Z"/><rect class="cls-5" x="246.81" y="62.17" width="8.12" height="11.91" rx="4.06"/><ellipse class="cls-6" cx="250.47" cy="49.29" rx="16.44" ry="15.73"/><ellipse class="cls-6" cx="250.73" cy="28.96" rx="8.18" ry="7.83"/><ellipse class="cls-5" cx="236.46" cy="52.6" rx="2.83" ry="2.67"/><ellipse class="cls-7" cx="236.45" cy="52.61" rx="1.54" ry="1.49"/><ellipse class="cls-5" cx="264.81" cy="52.34" rx="2.83" ry="2.67"/><ellipse class="cls-7" cx="264.8" cy="52.35" rx="1.54" ry="1.49"/><rect class="cls-5" x="236.16" y="34.47" width="28.88" height="34.25" rx="14.44"/><ellipse class="cls-6" cx="259.22" cy="41.53" rx="6.18" ry="10.75" transform="translate(30.39 170.2) rotate(-38.45)"/><ellipse class="cls-8" cx="242.65" cy="53.01" rx="1.16" ry="0.15"/><rect class="cls-9" x="249.2" y="54.4" width="2.97" height="4.4" rx="1.48"/><ellipse class="cls-6" cx="243.03" cy="41.25" rx="11.33" ry="6.08" transform="translate(46.42 189.95) rotate(-46.74)"/><ellipse class="cls-7" cx="241.37" cy="57.01" rx="1.54" ry="1.49"/><ellipse class="cls-7" cx="259.61" cy="56.88" rx="1.54" ry="1.49"/><path class="cls-10" d="M251.13,22.94a5.44,5.44,0,0,1,5.55,5.31"/><path class="cls-11" d="M257.81,34.74c5.9,3,7.49,6.85,8.16,11.89"/><path class="cls-12" d="M255.76,60.59a1.93,1.93,0,0,1,0,.24,501903692070.44,501903692070.44,0,0,1,0,.24c0,.1,0,.2,0,.3l0,.14c0,.05,0,.1,0,.15a4.24,4.24,0,0,1-1.25,2,4.4,4.4,0,0,1-.69.51l-.26.15a5.41,5.41,0,0,1-5.12-.07l-.21-.12a4.63,4.63,0,0,1-1.87-2.42l0-.15a.74.74,0,0,1,0-.14l0-.15a.77.77,0,0,0,0-.15h0a3.87,3.87,0,0,1,0-.48,3.4,3.4,0,0,1,0-.45h9.64A3.4,3.4,0,0,1,255.76,60.59Z"/><path class="cls-13" d="M253.67,64.12l-.26.15a5.41,5.41,0,0,1-5.12-.07l-.21-.12a3.17,3.17,0,0,1,5.59,0Z"/><path class="cls-4" d="M255.76,60.59a3.92,3.92,0,0,1-.15,1.07h-9.4a5.6,5.6,0,0,1-.12-.59,3.87,3.87,0,0,1,0-.48,3.4,3.4,0,0,1,0-.45h9.64A3.4,3.4,0,0,1,255.76,60.59Z"/><ellipse class="cls-14" cx="241.78" cy="50.13" rx="2.46" ry="0.91" transform="translate(-4.86 38.24) rotate(-8.95)"/><ellipse class="cls-14" cx="258.88" cy="50.15" rx="0.93" ry="2.46" transform="translate(169.07 298.08) rotate(-81.05)"/><rect class="cls-1" x="300" width="100" height="100"/><path class="cls-2" d="M387.93,50a37.94,37.94,0,0,1-21.29,34.1c-.72.35-1.45.68-2.2,1a38,38,0,0,1-28.88,0l-.59-.24a37.94,37.94,0,1,1,53-34.84Z"/><path class="cls-3" d="M366.64,84.1c-.72.35-1.45.68-2.2,1a38,38,0,0,1-28.88,0l-.59-.24c0-.22,0-.44,0-.66a15.6,15.6,0,0,1,.11-1.82,15,15,0,0,1,.81-3.49,15.84,15.84,0,0,1,10.93-10,14.35,14.35,0,0,1,1.61-.33h0a15.37,15.37,0,0,1,2.37-.18,15.61,15.61,0,0,1,2.17.15h0a15.65,15.65,0,0,1,1.95.39,15.83,15.83,0,0,1,9.74,7.62,14.85,14.85,0,0,1,1.06,2.33,15.56,15.56,0,0,1,.81,3.49A16.58,16.58,0,0,1,366.64,84.1Z"/><path class="cls-4" d="M364.66,76.54H336.93a15.85,15.85,0,0,1,2.64-3.5H362A15.81,15.81,0,0,1,364.66,76.54Z"/><path class="cls-4" d="M366.53,82.36H335.07a15,15,0,0,1,.81-3.49h29.84A15.56,15.56,0,0,1,366.53,82.36Z"/><path class="cls-4" d="M364.44,85.08a38,38,0,0,1-28.88,0Z"/><rect class="cls-5" x="346.81" y="62.17" width="8.12" height="11.91" rx="4.06"/><ellipse class="cls-6" cx="350.47" cy="49.29" rx="16.44" ry="15.73"/><ellipse class="cls-6" cx="350.73" cy="28.96" rx="8.18" ry="7.83"/><ellipse class="cls-5" cx="336.46" cy="52.6" rx="2.83" ry="2.67"/><ellipse class="cls-7" cx="336.45" cy="52.61" rx="1.54" ry="1.49"/><ellipse class="cls-5" cx="364.81" cy="52.34" rx="2.83" ry="2.67"/><ellipse class="cls-7" cx="364.8" cy="52.35" rx="1.54" ry="1.49"/><rect class="cls-5" x="336.16" y="34.47" width="28.88" height="34.25" rx="14.44"/><ellipse class="cls-6" cx="359.22" cy="41.53" rx="6.18" ry="10.75" transform="translate(52.07 232.38) rotate(-38.45)"/><rect class="cls-9" x="349.2" y="54.4" width="2.97" height="4.4" rx="1.48"/><ellipse class="cls-6" cx="343.03" cy="41.25" rx="11.33" ry="6.08" transform="translate(77.89 262.77) rotate(-46.74)"/><ellipse class="cls-7" cx="341.37" cy="57.01" rx="1.54" ry="1.49"/><ellipse class="cls-7" cx="359.61" cy="56.88" rx="1.54" ry="1.49"/><path class="cls-10" d="M351.13,22.94a5.44,5.44,0,0,1,5.55,5.31"/><path class="cls-11" d="M357.81,34.74c5.9,3,7.49,6.85,8.16,11.89"/><path class="cls-12" d="M355.76,60.59a1.93,1.93,0,0,1,0,.24,34129451060665.61,34129451060665.61,0,0,1,0,.24c0,.1,0,.2-.05.3l0,.14c0,.05,0,.1,0,.15a4.24,4.24,0,0,1-1.25,2,4.4,4.4,0,0,1-.69.51l-.26.15a5.41,5.41,0,0,1-5.12-.07l-.21-.12a4.63,4.63,0,0,1-1.87-2.42l0-.15a.74.74,0,0,1,0-.14l0-.15a.77.77,0,0,0,0-.15h0a3.87,3.87,0,0,1,0-.48,3.4,3.4,0,0,1,0-.45h9.64A3.4,3.4,0,0,1,355.76,60.59Z"/><path class="cls-13" d="M353.67,64.12l-.26.15a5.41,5.41,0,0,1-5.12-.07l-.21-.12a3.17,3.17,0,0,1,5.59,0Z"/><path class="cls-4" d="M355.76,60.59a3.92,3.92,0,0,1-.15,1.07h-9.4a5.6,5.6,0,0,1-.12-.59,3.87,3.87,0,0,1,0-.48,3.4,3.4,0,0,1,0-.45h9.64A3.4,3.4,0,0,1,355.76,60.59Z"/><ellipse class="cls-14" cx="341.78" cy="50.13" rx="2.46" ry="0.91" transform="translate(-3.64 53.8) rotate(-8.95)"/><ellipse class="cls-14" cx="358.88" cy="50.15" rx="0.93" ry="2.46" transform="translate(253.51 396.86) rotate(-81.05)"/><rect class="cls-1" x="400" width="100" height="100"/><path class="cls-2" d="M487.93,50a37.94,37.94,0,0,1-21.29,34.1c-.72.35-1.45.68-2.2,1a38,38,0,0,1-28.88,0l-.59-.24a37.94,37.94,0,1,1,53-34.84Z"/><path class="cls-3" d="M466.64,84.1c-.72.35-1.45.68-2.2,1a38,38,0,0,1-28.88,0l-.59-.24c0-.22,0-.44,0-.66a15.6,15.6,0,0,1,.11-1.82,15,15,0,0,1,.81-3.49,15.84,15.84,0,0,1,10.93-10,14.35,14.35,0,0,1,1.61-.33h0a15.37,15.37,0,0,1,2.37-.18,15.61,15.61,0,0,1,2.17.15h0a15.65,15.65,0,0,1,1.95.39,15.83,15.83,0,0,1,9.74,7.62,14.85,14.85,0,0,1,1.06,2.33,15.56,15.56,0,0,1,.81,3.49A16.58,16.58,0,0,1,466.64,84.1Z"/><path class="cls-4" d="M464.66,76.54H436.93a15.85,15.85,0,0,1,2.64-3.5H462A15.81,15.81,0,0,1,464.66,76.54Z"/><path class="cls-4" d="M466.53,82.36H435.07a15,15,0,0,1,.81-3.49h29.84A15.56,15.56,0,0,1,466.53,82.36Z"/><path class="cls-4" d="M464.44,85.08a38,38,0,0,1-28.88,0Z"/><rect class="cls-5" x="446.81" y="62.17" width="8.12" height="11.91" rx="4.06"/><ellipse class="cls-6" cx="450.47" cy="49.29" rx="16.44" ry="15.73"/><ellipse class="cls-6" cx="450.73" cy="28.96" rx="8.18" ry="7.83"/><ellipse class="cls-5" cx="436.46" cy="52.6" rx="2.83" ry="2.67"/><ellipse class="cls-7" cx="436.45" cy="52.61" rx="1.54" ry="1.49"/><ellipse class="cls-5" cx="464.81" cy="52.34" rx="2.83" ry="2.67"/><ellipse class="cls-7" cx="464.8" cy="52.35" rx="1.54" ry="1.49"/><rect class="cls-5" x="436.16" y="34.47" width="28.88" height="34.25" rx="14.44"/><ellipse class="cls-6" cx="459.22" cy="41.53" rx="6.18" ry="10.75" transform="translate(73.76 294.56) rotate(-38.45)"/><ellipse class="cls-8" cx="442.65" cy="53.01" rx="1.16" ry="1.13"/><rect class="cls-9" x="449.2" y="54.4" width="2.97" height="4.4" rx="1.48"/><ellipse class="cls-6" cx="443.03" cy="41.25" rx="11.33" ry="6.08" transform="translate(109.35 335.59) rotate(-46.74)"/><ellipse class="cls-7" cx="441.37" cy="57.01" rx="1.54" ry="1.49"/><ellipse class="cls-7" cx="459.61" cy="56.88" rx="1.54" ry="1.49"/><path class="cls-10" d="M451.13,22.94a5.44,5.44,0,0,1,5.55,5.31"/><path class="cls-11" d="M457.81,34.74c5.9,3,7.49,6.85,8.16,11.89"/><path class="cls-12" d="M455.76,60.59a1.93,1.93,0,0,1,0,.24,34129451060626.48,34129451060626.48,0,0,1,0,.24c0,.1,0,.2-.05.3l0,.14c0,.05,0,.1,0,.15a4.24,4.24,0,0,1-1.25,2,4.4,4.4,0,0,1-.69.51l-.26.15a5.41,5.41,0,0,1-5.12-.07l-.21-.12a4.63,4.63,0,0,1-1.87-2.42l0-.15a.74.74,0,0,1,0-.14l0-.15a.77.77,0,0,0,0-.15h0a3.87,3.87,0,0,1,0-.48,3.4,3.4,0,0,1,0-.45h9.64A3.4,3.4,0,0,1,455.76,60.59Z"/><path class="cls-13" d="M453.67,64.12l-.26.15a5.41,5.41,0,0,1-5.12-.07l-.21-.12a3.17,3.17,0,0,1,5.59,0Z"/><path class="cls-4" d="M455.76,60.59a3.92,3.92,0,0,1-.15,1.07h-9.4a5.6,5.6,0,0,1-.12-.59,3.87,3.87,0,0,1,0-.48,3.4,3.4,0,0,1,0-.45h9.64A3.4,3.4,0,0,1,455.76,60.59Z"/><ellipse class="cls-14" cx="441.78" cy="50.13" rx="2.46" ry="0.91" transform="translate(-2.42 69.37) rotate(-8.95)"/><ellipse class="cls-14" cx="458.88" cy="50.15" rx="0.93" ry="2.46" transform="translate(337.95 495.64) rotate(-81.05)"/><ellipse class="cls-8" cx="458.75" cy="53.01" rx="1.16" ry="1.13"/><ellipse class="cls-8" cx="158.78" cy="53.01" rx="1.16" ry="0.57"/><ellipse class="cls-8" cx="258.75" cy="53.01" rx="1.16" ry="0.15"/><ellipse class="cls-8" cx="342.65" cy="53.01" rx="1.16" ry="0.57"/><ellipse class="cls-8" cx="358.75" cy="53.01" rx="1.16" ry="0.57"/></g></svg>
