<svg xmlns="http://www.w3.org/2000/svg" width="3147" height="610.83" viewBox="0 0 3147 610.83"><defs><style>.cls-1{fill:#f6f6f6;}.cls-2{fill:#dc9232;}.cls-3{fill:#fff;}.cls-4{fill:#eecbab;}.cls-5{fill:#3d281a;}.cls-6{fill:#d57989;}.cls-7{fill:#121821;}.cls-8{fill:#e8b9aa;}.cls-10,.cls-9{fill:none;stroke:#9a7c55;stroke-linecap:round;stroke-width:8px;}.cls-9{stroke-linejoin:round;}.cls-10{stroke-miterlimit:10;}.cls-11{fill:#0f161b;}.cls-12{fill:#d57a8a;}.cls-13{fill:#81633e;}</style></defs><title>pige_sprite</title><g id="Layer_6" data-name="Layer 6"><path class="cls-1" d="M624.13,313.32c0,115.72-65.25,215.77-160,263.38q-8.1,4.08-16.48,7.62a278.65,278.65,0,0,1-217,0c-1.47-.61-2.93-1.25-4.38-1.9C125,537.47,54.13,433.9,54.13,313.32c0-161.82,127.6-293,285-293S624.13,151.5,624.13,313.32Z"/><path class="cls-2" d="M464.13,576.7q-8.1,4.08-16.48,7.62a278.65,278.65,0,0,1-217,0c-1.47-.61-2.93-1.25-4.38-1.9-.07-1.69-.1-3.39-.1-5.1a124.59,124.59,0,0,1,.78-14,122.67,122.67,0,0,1,6.12-27,120.69,120.69,0,0,1,7.92-18,122,122,0,0,1,19.78-27,118.21,118.21,0,0,1,54.4-32.09,113.83,113.83,0,0,1,12.15-2.55h0a116.57,116.57,0,0,1,17.83-1.36,118.32,118.32,0,0,1,16.29,1.13h0a117,117,0,0,1,14.69,3.05,118.42,118.42,0,0,1,53.4,31.82,122,122,0,0,1,19.78,27,120.69,120.69,0,0,1,7.92,18,124.95,124.95,0,0,1,6.9,40.38Z"/><path class="cls-3" d="M449.31,518.32H241a122,122,0,0,1,19.78-27h168.8A122,122,0,0,1,449.31,518.32Z"/><path class="cls-3" d="M463.35,563.32H226.91a122.67,122.67,0,0,1,6.12-27h224.2A122.67,122.67,0,0,1,463.35,563.32Z"/><path class="cls-3" d="M447.65,584.32a278.65,278.65,0,0,1-217,0Z"/><rect class="cls-4" x="315.13" y="407.32" width="61" height="92" rx="30.5"/><ellipse class="cls-5" cx="342.63" cy="307.82" rx="123.5" ry="121.5"/><ellipse class="cls-5" cx="344.63" cy="150.82" rx="61.5" ry="60.5"/><ellipse class="cls-4" cx="237.41" cy="333.37" rx="21.27" ry="20.62"/><ellipse class="cls-6" cx="237.31" cy="333.49" rx="11.6" ry="11.49"/><ellipse class="cls-4" cx="450.41" cy="331.37" rx="21.27" ry="20.62"/><ellipse class="cls-6" cx="450.31" cy="331.49" rx="11.6" ry="11.49"/><rect class="cls-4" x="235.16" y="193.32" width="216.97" height="264.59" rx="108.48"/><ellipse class="cls-5" cx="408.39" cy="247.88" rx="46.95" ry="82.21" transform="translate(-67 295.13) rotate(-36.93)"/><circle class="cls-7" cx="283.87" cy="336.57" r="8.74"/><rect class="cls-8" x="333.13" y="347.32" width="22.31" height="34" rx="11.15"/><ellipse class="cls-5" cx="286.73" cy="245.76" rx="86.44" ry="46.29" transform="translate(-87.62 295.46) rotate(-48.16)"/><ellipse class="cls-6" cx="274.31" cy="367.49" rx="11.6" ry="11.49"/><ellipse class="cls-6" cx="411.31" cy="366.49" rx="11.6" ry="11.49"/><path class="cls-9" d="M347.63,104.32c23,0,41.68,18.35,41.68,41"/><path class="cls-10" d="M397.81,195.44c44.32,22.88,56.32,52.88,61.32,91.88"/><path class="cls-11" d="M382.42,395.11c0,.63,0,1.25-.06,1.87,0,.31,0,.61-.07.92s-.06.62-.1.92c-.09.78-.22,1.55-.37,2.3-.07.39-.16.76-.25,1.14s-.19.74-.29,1.11a32.54,32.54,0,0,1-9.42,15.1,35.15,35.15,0,0,1-5.12,3.91c-.65.42-1.33.82-2,1.19a39.51,39.51,0,0,1-38.46-.54c-.52-.31-1-.63-1.54-.95a37.14,37.14,0,0,1-4.09-3.13,32.51,32.51,0,0,1-9.95-15.58l-.3-1.11c-.09-.38-.17-.75-.25-1.14s-.14-.76-.2-1.14-.12-.77-.17-1.16h0a30.42,30.42,0,0,1-.22-3.71,28.53,28.53,0,0,1,.2-3.48h72.47A30.69,30.69,0,0,1,382.42,395.11Z"/><path class="cls-12" d="M366.74,422.38c-.65.42-1.33.82-2,1.19a39.51,39.51,0,0,1-38.46-.54c-.52-.31-1-.63-1.54-.95,5.6-7.95,12.9-12.76,20.9-12.76S361.12,414.25,366.74,422.38Z"/><path class="cls-3" d="M382.42,395.11a30.41,30.41,0,0,1-.23,3.71,30,30,0,0,1-.91,4.55H310.69a30.06,30.06,0,0,1-.92-4.55,30.42,30.42,0,0,1-.22-3.71,28.53,28.53,0,0,1,.2-3.48h72.47A30.69,30.69,0,0,1,382.42,395.11Z"/><ellipse class="cls-13" cx="277.39" cy="314.34" rx="18.5" ry="7" transform="translate(-47.07 48.86) rotate(-9.28)"/><ellipse class="cls-13" cx="405.85" cy="314.5" rx="7.17" ry="18.5" transform="translate(30 664.31) rotate(-80.72)"/><circle class="cls-7" cx="404.87" cy="336.57" r="8.74"/></g><g id="Layer_7" data-name="Layer 7"><path class="cls-1" d="M1242.51,313.32c0,115.72-65.25,215.77-160,263.38q-8.1,4.08-16.48,7.62a278.65,278.65,0,0,1-217,0c-1.47-.61-2.93-1.25-4.38-1.9-101.25-44.95-172.1-148.52-172.1-269.1,0-161.82,127.6-293,285-293S1242.51,151.5,1242.51,313.32Z"/><path class="cls-2" d="M1082.51,576.7q-8.1,4.08-16.48,7.62a278.65,278.65,0,0,1-217,0c-1.47-.61-2.93-1.25-4.38-1.9-.07-1.69-.1-3.39-.1-5.1a124.59,124.59,0,0,1,.78-14,122.67,122.67,0,0,1,6.12-27,120.69,120.69,0,0,1,7.92-18,122,122,0,0,1,19.78-27,118.21,118.21,0,0,1,54.4-32.09,113.83,113.83,0,0,1,12.15-2.55h0a116.57,116.57,0,0,1,17.83-1.36,118.32,118.32,0,0,1,16.29,1.13h0a117,117,0,0,1,14.69,3.05,118.42,118.42,0,0,1,53.4,31.82,122,122,0,0,1,19.78,27,120.69,120.69,0,0,1,7.92,18,124.95,124.95,0,0,1,6.9,40.38Z"/><path class="cls-3" d="M1067.69,518.32H859.33a122,122,0,0,1,19.78-27h168.8A122,122,0,0,1,1067.69,518.32Z"/><path class="cls-3" d="M1081.73,563.32H845.29a122.67,122.67,0,0,1,6.12-27h224.2A122.67,122.67,0,0,1,1081.73,563.32Z"/><path class="cls-3" d="M1066,584.32a278.65,278.65,0,0,1-217,0Z"/><rect class="cls-4" x="933.51" y="407.32" width="61" height="92" rx="30.5"/><ellipse class="cls-5" cx="961.01" cy="307.82" rx="123.5" ry="121.5"/><ellipse class="cls-5" cx="963.01" cy="150.82" rx="61.5" ry="60.5"/><ellipse class="cls-4" cx="855.78" cy="333.37" rx="21.27" ry="20.62"/><ellipse class="cls-6" cx="855.68" cy="333.49" rx="11.6" ry="11.49"/><ellipse class="cls-4" cx="1068.78" cy="331.37" rx="21.27" ry="20.62"/><ellipse class="cls-6" cx="1068.68" cy="331.49" rx="11.6" ry="11.49"/><rect class="cls-4" x="853.54" y="193.32" width="216.97" height="264.59" rx="108.48"/><ellipse class="cls-5" cx="1026.77" cy="247.88" rx="46.95" ry="82.21" transform="translate(57.08 666.69) rotate(-36.93)"/><ellipse class="cls-7" cx="902.25" cy="336.57" rx="8.74" ry="4.38"/><rect class="cls-8" x="951.51" y="347.32" width="22.31" height="34" rx="11.15"/><ellipse class="cls-5" cx="905.1" cy="245.76" rx="86.44" ry="46.29" transform="translate(118.29 756.18) rotate(-48.16)"/><ellipse class="cls-6" cx="892.68" cy="367.49" rx="11.6" ry="11.49"/><ellipse class="cls-6" cx="1029.68" cy="366.49" rx="11.6" ry="11.49"/><path class="cls-9" d="M966,104.32c23,0,41.67,18.35,41.67,41"/><path class="cls-10" d="M1016.19,195.44c44.32,22.88,56.32,52.88,61.32,91.88"/><path class="cls-11" d="M1000.8,395.11c0,.63,0,1.25-.06,1.87,0,.31,0,.61-.07.92s-.06.62-.1.92c-.1.78-.22,1.55-.37,2.3-.08.39-.16.76-.25,1.14s-.19.74-.29,1.11a32.56,32.56,0,0,1-9.43,15.1,35.61,35.61,0,0,1-5.11,3.91c-.66.42-1.33.82-2,1.19a39.49,39.49,0,0,1-38.45-.54c-.52-.31-1-.63-1.54-.95A37.26,37.26,0,0,1,939,419a32.56,32.56,0,0,1-9.94-15.58q-.17-.56-.3-1.11c-.09-.38-.17-.75-.25-1.14s-.15-.76-.21-1.14-.11-.77-.16-1.16h0a30.2,30.2,0,0,1,0-7.19h72.48A30.69,30.69,0,0,1,1000.8,395.11Z"/><path class="cls-12" d="M985.12,422.38c-.66.42-1.33.82-2,1.19a39.49,39.49,0,0,1-38.45-.54c-.52-.31-1-.63-1.54-.95,5.59-7.95,12.9-12.76,20.9-12.76S979.5,414.25,985.12,422.38Z"/><path class="cls-3" d="M1000.8,395.11a30.41,30.41,0,0,1-.23,3.71,30.06,30.06,0,0,1-.92,4.55H929.07a28.88,28.88,0,0,1-.92-4.55,30.2,30.2,0,0,1,0-7.19h72.48A30.69,30.69,0,0,1,1000.8,395.11Z"/><ellipse class="cls-13" cx="895.77" cy="314.34" rx="18.5" ry="7" transform="translate(-38.97 148.6) rotate(-9.28)"/><ellipse class="cls-13" cx="1024.22" cy="314.5" rx="7.17" ry="18.5" transform="translate(548.64 1274.58) rotate(-80.72)"/><ellipse class="cls-7" cx="1023.25" cy="336.57" rx="8.74" ry="4.38"/></g><g id="Layer_8" data-name="Layer 8"><path class="cls-1" d="M1860.88,313.32c0,115.72-65.25,215.77-160,263.38q-8.1,4.08-16.48,7.62a278.65,278.65,0,0,1-217,0c-1.47-.61-2.93-1.25-4.38-1.9-101.25-44.95-172.1-148.52-172.1-269.1,0-161.82,127.6-293,285-293S1860.88,151.5,1860.88,313.32Z"/><path class="cls-2" d="M1700.88,576.7q-8.1,4.08-16.48,7.62a278.65,278.65,0,0,1-217,0c-1.47-.61-2.93-1.25-4.38-1.9-.07-1.69-.1-3.39-.1-5.1a124.59,124.59,0,0,1,.78-14,122.67,122.67,0,0,1,6.12-27,120.69,120.69,0,0,1,7.92-18,122,122,0,0,1,19.78-27,118.21,118.21,0,0,1,54.4-32.09,113.83,113.83,0,0,1,12.15-2.55h0a116.57,116.57,0,0,1,17.83-1.36,118.32,118.32,0,0,1,16.29,1.13h0a117,117,0,0,1,14.69,3.05,118.42,118.42,0,0,1,53.4,31.82,122,122,0,0,1,19.78,27,120.69,120.69,0,0,1,7.92,18,124.95,124.95,0,0,1,6.9,40.38Z"/><path class="cls-3" d="M1686.06,518.32H1477.7a122,122,0,0,1,19.78-27h168.8A122,122,0,0,1,1686.06,518.32Z"/><path class="cls-3" d="M1700.1,563.32H1463.66a122.67,122.67,0,0,1,6.12-27H1694A122.67,122.67,0,0,1,1700.1,563.32Z"/><path class="cls-3" d="M1684.4,584.32a278.65,278.65,0,0,1-217,0Z"/><rect class="cls-4" x="1551.88" y="407.32" width="61" height="92" rx="30.5"/><ellipse class="cls-5" cx="1579.38" cy="307.82" rx="123.5" ry="121.5"/><ellipse class="cls-5" cx="1581.38" cy="150.82" rx="61.5" ry="60.5"/><ellipse class="cls-4" cx="1474.16" cy="333.37" rx="21.27" ry="20.62"/><ellipse class="cls-6" cx="1474.06" cy="333.49" rx="11.6" ry="11.49"/><ellipse class="cls-4" cx="1687.16" cy="331.37" rx="21.27" ry="20.62"/><ellipse class="cls-6" cx="1687.06" cy="331.49" rx="11.6" ry="11.49"/><rect class="cls-4" x="1471.91" y="193.32" width="216.97" height="264.59" rx="108.48"/><ellipse class="cls-5" cx="1645.14" cy="247.88" rx="46.95" ry="82.21" transform="translate(181.16 1038.25) rotate(-36.93)"/><ellipse class="cls-7" cx="1520.63" cy="336.57" rx="8.74" ry="1.4"/><rect class="cls-8" x="1569.88" y="347.32" width="22.31" height="34" rx="11.15"/><ellipse class="cls-5" cx="1523.48" cy="245.76" rx="86.44" ry="46.29" transform="translate(324.2 1216.9) rotate(-48.16)"/><ellipse class="cls-6" cx="1511.06" cy="367.49" rx="11.6" ry="11.49"/><ellipse class="cls-6" cx="1648.06" cy="366.49" rx="11.6" ry="11.49"/><path class="cls-9" d="M1584.38,104.32c23,0,41.68,18.35,41.68,41"/><path class="cls-10" d="M1634.56,195.44c44.32,22.88,56.32,52.88,61.32,91.88"/><path class="cls-11" d="M1619.17,395.11c0,.63,0,1.25-.06,1.87,0,.31,0,.61-.07.92s-.06.62-.09.92c-.1.78-.22,1.55-.38,2.3-.07.39-.16.76-.25,1.14s-.19.74-.29,1.11a32.54,32.54,0,0,1-9.42,15.1,35.15,35.15,0,0,1-5.12,3.91c-.65.42-1.32.82-2,1.19A39.51,39.51,0,0,1,1563,423c-.52-.31-1-.63-1.53-.95a37.26,37.26,0,0,1-4.1-3.13,32.58,32.58,0,0,1-10-15.58c-.1-.37-.2-.74-.29-1.11s-.18-.75-.25-1.14-.15-.76-.21-1.14-.12-.77-.17-1.16h0a30.42,30.42,0,0,1-.22-3.71,28.53,28.53,0,0,1,.2-3.48H1619A30.69,30.69,0,0,1,1619.17,395.11Z"/><path class="cls-12" d="M1603.49,422.38c-.65.42-1.32.82-2,1.19A39.51,39.51,0,0,1,1563,423c-.52-.31-1-.63-1.53-.95,5.59-7.95,12.89-12.76,20.89-12.76S1597.88,414.25,1603.49,422.38Z"/><path class="cls-3" d="M1619.17,395.11a30.41,30.41,0,0,1-.23,3.71,28.86,28.86,0,0,1-.91,4.55h-70.59a30.06,30.06,0,0,1-.92-4.55,30.42,30.42,0,0,1-.22-3.71,28.53,28.53,0,0,1,.2-3.48H1619A30.69,30.69,0,0,1,1619.17,395.11Z"/><ellipse class="cls-13" cx="1514.14" cy="314.34" rx="18.5" ry="7" transform="translate(-30.88 248.34) rotate(-9.28)"/><ellipse class="cls-13" cx="1642.6" cy="314.5" rx="7.17" ry="18.5" transform="matrix(0.16, -0.99, 0.99, 0.16, 1067.27, 1884.86)"/><ellipse class="cls-7" cx="1641.63" cy="336.57" rx="8.74" ry="1.4"/></g><g id="Layer_9" data-name="Layer 9"><path class="cls-1" d="M2479.26,313.32c0,115.72-65.25,215.77-160,263.38q-8.1,4.08-16.48,7.62a278.65,278.65,0,0,1-217,0c-1.47-.61-2.93-1.25-4.38-1.9-101.25-44.95-172.1-148.52-172.1-269.1,0-161.82,127.6-293,285-293S2479.26,151.5,2479.26,313.32Z"/><path class="cls-2" d="M2319.26,576.7q-8.1,4.08-16.48,7.62a278.65,278.65,0,0,1-217,0c-1.47-.61-2.93-1.25-4.38-1.9-.07-1.69-.1-3.39-.1-5.1a124.59,124.59,0,0,1,.78-14,122.67,122.67,0,0,1,6.12-27,120.69,120.69,0,0,1,7.92-18,122,122,0,0,1,19.78-27,118.21,118.21,0,0,1,54.4-32.09,113.83,113.83,0,0,1,12.15-2.55h0a116.57,116.57,0,0,1,17.83-1.36,118.32,118.32,0,0,1,16.29,1.13h0a117,117,0,0,1,14.69,3.05,118.42,118.42,0,0,1,53.4,31.82,122,122,0,0,1,19.78,27,120.69,120.69,0,0,1,7.92,18,124.95,124.95,0,0,1,6.9,40.38Z"/><path class="cls-3" d="M2304.44,518.32H2096.08a122,122,0,0,1,19.78-27h168.8A122,122,0,0,1,2304.44,518.32Z"/><path class="cls-3" d="M2318.48,563.32H2082a122.67,122.67,0,0,1,6.12-27h224.2A122.67,122.67,0,0,1,2318.48,563.32Z"/><path class="cls-3" d="M2302.78,584.32a278.65,278.65,0,0,1-217,0Z"/><rect class="cls-4" x="2170.26" y="407.32" width="61" height="92" rx="30.5"/><ellipse class="cls-5" cx="2197.76" cy="307.82" rx="123.5" ry="121.5"/><ellipse class="cls-5" cx="2199.76" cy="150.82" rx="61.5" ry="60.5"/><ellipse class="cls-4" cx="2092.53" cy="333.37" rx="21.27" ry="20.62"/><ellipse class="cls-6" cx="2092.43" cy="333.49" rx="11.6" ry="11.49"/><ellipse class="cls-4" cx="2305.53" cy="331.37" rx="21.27" ry="20.62"/><ellipse class="cls-6" cx="2305.43" cy="331.49" rx="11.6" ry="11.49"/><rect class="cls-4" x="2090.29" y="193.32" width="216.97" height="264.59" rx="108.48"/><ellipse class="cls-5" cx="2263.52" cy="247.88" rx="46.95" ry="82.21" transform="translate(305.24 1409.82) rotate(-36.93)"/><ellipse class="cls-7" cx="2139" cy="336.57" rx="8.74" ry="4.38"/><rect class="cls-8" x="2188.26" y="347.32" width="22.31" height="34" rx="11.15"/><ellipse class="cls-5" cx="2141.85" cy="245.76" rx="86.44" ry="46.29" transform="translate(530.11 1677.62) rotate(-48.16)"/><ellipse class="cls-6" cx="2129.43" cy="367.49" rx="11.6" ry="11.49"/><ellipse class="cls-6" cx="2266.43" cy="366.49" rx="11.6" ry="11.49"/><path class="cls-9" d="M2202.76,104.32c23,0,41.68,18.35,41.68,41"/><path class="cls-10" d="M2252.94,195.44c44.32,22.88,56.32,52.88,61.32,91.88"/><path class="cls-11" d="M2237.55,395.11c0,.63,0,1.25-.06,1.87,0,.31,0,.61-.07.92s-.06.62-.1.92c-.09.78-.22,1.55-.37,2.3-.08.39-.16.76-.25,1.14s-.19.74-.29,1.11a32.54,32.54,0,0,1-9.42,15.1,35.7,35.7,0,0,1-5.12,3.91c-.66.42-1.33.82-2,1.19a39.49,39.49,0,0,1-38.45-.54c-.52-.31-1-.63-1.54-.95a36.22,36.22,0,0,1-4.09-3.13,32.51,32.51,0,0,1-9.95-15.58c-.11-.37-.2-.74-.3-1.11s-.17-.75-.25-1.14-.15-.76-.21-1.14-.11-.77-.16-1.16h0a30.2,30.2,0,0,1,0-7.19h72.48A30.69,30.69,0,0,1,2237.55,395.11Z"/><path class="cls-12" d="M2221.87,422.38c-.66.42-1.33.82-2,1.19a39.49,39.49,0,0,1-38.45-.54c-.52-.31-1-.63-1.54-.95,5.6-7.95,12.9-12.76,20.9-12.76S2216.25,414.25,2221.87,422.38Z"/><path class="cls-3" d="M2237.55,395.11a30.41,30.41,0,0,1-.23,3.71,31.32,31.32,0,0,1-.91,4.55h-70.59a30.06,30.06,0,0,1-.92-4.55,30.2,30.2,0,0,1,0-7.19h72.48A30.69,30.69,0,0,1,2237.55,395.11Z"/><ellipse class="cls-13" cx="2132.52" cy="314.34" rx="18.5" ry="7" transform="translate(-22.78 348.08) rotate(-9.28)"/><ellipse class="cls-13" cx="2260.97" cy="314.5" rx="7.17" ry="18.5" transform="translate(1585.91 2495.14) rotate(-80.72)"/><ellipse class="cls-7" cx="2260" cy="336.57" rx="8.74" ry="4.38"/></g><g id="Layer_10" data-name="Layer 10"><path class="cls-1" d="M3097.63,313.32c0,115.72-65.25,215.77-160,263.38q-8.1,4.08-16.48,7.62a278.65,278.65,0,0,1-217,0c-1.47-.61-2.93-1.25-4.38-1.9-101.25-44.95-172.1-148.52-172.1-269.1,0-161.82,127.6-293,285-293S3097.63,151.5,3097.63,313.32Z"/><path class="cls-2" d="M2937.63,576.7q-8.1,4.08-16.48,7.62a278.65,278.65,0,0,1-217,0c-1.47-.61-2.93-1.25-4.38-1.9-.07-1.69-.1-3.39-.1-5.1a124.59,124.59,0,0,1,.78-14,122.67,122.67,0,0,1,6.12-27,120.69,120.69,0,0,1,7.92-18,122,122,0,0,1,19.78-27,118.21,118.21,0,0,1,54.4-32.09,113.83,113.83,0,0,1,12.15-2.55h0a116.57,116.57,0,0,1,17.83-1.36,118.32,118.32,0,0,1,16.29,1.13h0a117,117,0,0,1,14.69,3.05,118.42,118.42,0,0,1,53.4,31.82,122,122,0,0,1,19.78,27,120.69,120.69,0,0,1,7.92,18,124.95,124.95,0,0,1,6.9,40.38Z"/><path class="cls-3" d="M2922.81,518.32H2714.45a122,122,0,0,1,19.78-27H2903A122,122,0,0,1,2922.81,518.32Z"/><path class="cls-3" d="M2936.85,563.32H2700.41a122.67,122.67,0,0,1,6.12-27h224.2A122.67,122.67,0,0,1,2936.85,563.32Z"/><path class="cls-3" d="M2921.15,584.32a278.65,278.65,0,0,1-217,0Z"/><rect class="cls-4" x="2788.63" y="407.32" width="61" height="92" rx="30.5"/><ellipse class="cls-5" cx="2816.13" cy="307.82" rx="123.5" ry="121.5"/><ellipse class="cls-5" cx="2818.13" cy="150.82" rx="61.5" ry="60.5"/><ellipse class="cls-4" cx="2710.91" cy="333.37" rx="21.27" ry="20.62"/><ellipse class="cls-6" cx="2710.81" cy="333.49" rx="11.6" ry="11.49"/><ellipse class="cls-4" cx="2923.91" cy="331.37" rx="21.27" ry="20.62"/><ellipse class="cls-6" cx="2923.81" cy="331.49" rx="11.6" ry="11.49"/><rect class="cls-4" x="2708.67" y="193.32" width="216.97" height="264.59" rx="108.48"/><ellipse class="cls-5" cx="2881.9" cy="247.88" rx="46.95" ry="82.21" transform="translate(429.32 1781.38) rotate(-36.93)"/><circle class="cls-7" cx="2757.38" cy="336.57" r="8.74"/><rect class="cls-8" x="2806.63" y="347.32" width="22.31" height="34" rx="11.15"/><ellipse class="cls-5" cx="2760.23" cy="245.76" rx="86.44" ry="46.29" transform="translate(736.03 2138.34) rotate(-48.16)"/><ellipse class="cls-6" cx="2747.81" cy="367.49" rx="11.6" ry="11.49"/><ellipse class="cls-6" cx="2884.81" cy="366.49" rx="11.6" ry="11.49"/><path class="cls-9" d="M2821.13,104.32c23,0,41.68,18.35,41.68,41"/><path class="cls-10" d="M2871.31,195.44c44.32,22.88,56.32,52.88,61.32,91.88"/><path class="cls-11" d="M2855.92,395.11c0,.63,0,1.25-.05,1.87,0,.31,0,.61-.07.92s-.06.62-.1.92c-.1.78-.22,1.55-.37,2.3-.08.39-.16.76-.26,1.14s-.18.74-.29,1.11a32.54,32.54,0,0,1-9.42,15.1,35.15,35.15,0,0,1-5.12,3.91c-.65.42-1.32.82-2,1.19a39.49,39.49,0,0,1-38.45-.54c-.53-.31-1-.63-1.54-.95a37.26,37.26,0,0,1-4.1-3.13,32.58,32.58,0,0,1-9.95-15.58c-.1-.37-.2-.74-.29-1.11s-.17-.75-.25-1.14-.15-.76-.21-1.14-.12-.77-.16-1.16h0a30.2,30.2,0,0,1,0-7.19h72.47A28.53,28.53,0,0,1,2855.92,395.11Z"/><path class="cls-12" d="M2840.24,422.38c-.65.42-1.32.82-2,1.19a39.49,39.49,0,0,1-38.45-.54c-.53-.31-1-.63-1.54-.95,5.59-7.95,12.9-12.76,20.89-12.76S2834.63,414.25,2840.24,422.38Z"/><path class="cls-3" d="M2855.92,395.11a30.42,30.42,0,0,1-.22,3.71,30.06,30.06,0,0,1-.92,4.55h-70.59a28.86,28.86,0,0,1-.91-4.55,30.2,30.2,0,0,1,0-7.19h72.47A28.53,28.53,0,0,1,2855.92,395.11Z"/><ellipse class="cls-13" cx="2750.89" cy="314.34" rx="18.5" ry="7" transform="translate(-14.68 447.82) rotate(-9.28)"/><ellipse class="cls-13" cx="2879.35" cy="314.5" rx="7.17" ry="18.5" transform="matrix(0.16, -0.99, 0.99, 0.16, 2104.54, 3105.42)"/><circle class="cls-7" cx="2878.38" cy="336.57" r="8.74"/></g></svg>
