<svg id="Layer_1" data-name="Layer 1" xmlns="http://www.w3.org/2000/svg" width="1457" height="1064" viewBox="0 0 1457 1064"><defs><style>.cls-1{opacity:0.5;}.cls-2{fill:#706d6c;}.cls-3{fill:#fff;}</style></defs><title>pige2pik</title><g class="cls-1"><path class="cls-2" d="M209.52,1039.5a153.47,153.47,0,0,1-153-153v-692a153.47,153.47,0,0,1,153-153h992a153.47,153.47,0,0,1,153,153v692a153.47,153.47,0,0,1-153,153Z"/><path class="cls-3" d="M1201.48,42a150.73,150.73,0,0,1,59.22,12A154,154,0,0,1,1342,135.3a150.73,150.73,0,0,1,12,59.22v692a150.73,150.73,0,0,1-12,59.22A154,154,0,0,1,1260.7,1027a150.73,150.73,0,0,1-59.22,12h-992a150.73,150.73,0,0,1-59.22-12A154,154,0,0,1,69,945.7a150.73,150.73,0,0,1-12-59.22v-692A150.73,150.73,0,0,1,69,135.3,154,154,0,0,1,150.3,54a150.73,150.73,0,0,1,59.22-12h992m0-1h-992C125.09,41,56,110.09,56,194.52v692C56,970.91,125.09,1040,209.52,1040h992c84.44,0,153.52-69.09,153.52-153.52v-692C1355,110.09,1285.92,41,1201.48,41Z"/></g><path class="cls-3" d="M216.75,155.19q0,7.22-3.63,11t-10.5,3.83a23.12,23.12,0,0,1-11.42-2.63V158q5.76,3.76,10.58,3.76a5.33,5.33,0,0,0,4.13-1.51,5.88,5.88,0,0,0,1.39-4.11,7.44,7.44,0,0,0-1.66-4.7,24.55,24.55,0,0,0-5.44-4.73,23.94,23.94,0,0,1-5-4.37,15.74,15.74,0,0,1-2.64-4.7,17.91,17.91,0,0,1-.93-6q0-6.61,3.67-10.48a13,13,0,0,1,9.86-3.87,21.54,21.54,0,0,1,11.36,3.31l-3.17,7.66a31.38,31.38,0,0,0-3.53-1.76,10.22,10.22,0,0,0-3.95-.77,4.34,4.34,0,0,0-3.57,1.53,6.42,6.42,0,0,0-1.25,4.17,7.23,7.23,0,0,0,1.49,4.53,22.51,22.51,0,0,0,5.22,4.4,21.64,21.64,0,0,1,7,6.89A16,16,0,0,1,216.75,155.19Z"/><path class="cls-3" d="M251.52,149.71q0,9.63-4.07,15a14.29,14.29,0,0,1-17,4.1l-2,3.93-5.7-2.67,2.74-5.31a18.57,18.57,0,0,1-3.16-6.31,30.11,30.11,0,0,1-1.16-8.73q0-9.53,4-14.89a13.25,13.25,0,0,1,11.22-5.36,13.07,13.07,0,0,1,6.18,1.44l1.8-3.38,5.62,2.6-2.53,5Q251.53,140.29,251.52,149.71Zm-21.09,0v2.56l.07,2.46L239.08,138a6.3,6.3,0,0,0-2.74-.57Q230.43,137.47,230.43,149.71Zm11.88,0-.14-4.12L234,161.66a5.6,5.6,0,0,0,2.39.42q2.91,0,4.44-3.13T242.31,149.71Z"/><path class="cls-3" d="M268.4,170.06q-5.41,0-8.54-5.34t-3.13-14.87q0-9.57,3.06-15c2-3.61,4.85-5.41,8.43-5.41a8.1,8.1,0,0,1,4.63,1.32,11.91,11.91,0,0,1,3.6,4.44H277q-.42-5.34-.42-7.49V114.66h9.35v54.7h-7l-1.58-5.1h-.32Q274.09,170.07,268.4,170.06Zm3-7.91a4,4,0,0,0,3.8-2.37q1.2-2.37,1.3-8.63v-1.23q0-6.82-1.21-9.6a4.12,4.12,0,0,0-4-2.78q-2.61,0-3.78,3.18a27.93,27.93,0,0,0-1.18,9.27,26.55,26.55,0,0,0,1.19,9.12Q268.75,162.15,271.42,162.15Z"/><path class="cls-3" d="M308.27,170.06a14.13,14.13,0,0,1-11.59-5.22q-4.23-5.22-4.23-14.78t3.83-15.15A12.3,12.3,0,0,1,307,129.46a12.16,12.16,0,0,1,10.09,4.66q3.7,4.65,3.7,13.06v5H301.94q.1,5.24,2.14,7.79a6.84,6.84,0,0,0,5.63,2.54,18.32,18.32,0,0,0,9.35-2.84v7.7A20.6,20.6,0,0,1,308.27,170.06Zm-1.38-33.4a3.82,3.82,0,0,0-3.3,2.13,14.29,14.29,0,0,0-1.51,6.59h9.49a14.22,14.22,0,0,0-1.3-6.5A3.75,3.75,0,0,0,306.89,136.66Z"/><path class="cls-3" d="M361.07,169.36h-9.53v-43H341.7V118h29.21v8.4h-9.84Z"/><path class="cls-3" d="M402.38,149.71q0,9.63-4.08,15a14.22,14.22,0,0,1-19.12,2.9,15.54,15.54,0,0,1-5.31-7.08A28.65,28.65,0,0,1,372,149.71q0-9.53,4.05-14.89a13.23,13.23,0,0,1,11.21-5.36,13.06,13.06,0,0,1,11,5.46Q402.38,140.39,402.38,149.71Zm-20.81,0q0,6.12,1.33,9.24t4.29,3.13q5.63,0,5.63-12.37,0-6.15-1.36-9.2a4.53,4.53,0,0,0-8.56,0Q381.57,143.56,381.57,149.71Z"/><path class="cls-3" d="M426.64,129.46q5.34,0,8.4,5.31c2,3.53,3.06,8.52,3.06,14.94s-1,11.5-3.08,15-4.89,5.31-8.52,5.31a9.33,9.33,0,0,1-4.66-1.14,11.31,11.31,0,0,1-3.82-4h-.59l-1.59,4.47H409v-54.7h9.35v12.79c0,.54,0,1.1,0,1.69s-.18,2.64-.46,6.15h.49a12,12,0,0,1,3.73-4.53A8.26,8.26,0,0,1,426.64,129.46Zm-3.24,7.94a4,4,0,0,0-3.85,2.5q-1.17,2.49-1.25,8.79v.95q0,6.81,1.22,9.59a4.08,4.08,0,0,0,4,2.78q5.07,0,5.07-12.44Q428.54,137.41,423.4,137.4Z"/><path class="cls-3" d="M444.36,120a5,5,0,0,1,1.35-3.67,5.11,5.11,0,0,1,3.78-1.35,5,5,0,0,1,3.65,1.35,4.91,4.91,0,0,1,1.38,3.67,4.82,4.82,0,0,1-1.41,3.71,5.09,5.09,0,0,1-3.62,1.32,5.23,5.23,0,0,1-3.73-1.32A4.82,4.82,0,0,1,444.36,120Zm9.73,49.4h-9.35V130.2h9.35Z"/><path class="cls-3" d="M481.3,169.36,479.44,164h-.21a13.29,13.29,0,0,1-4.29,4.74,10.88,10.88,0,0,1-5.59,1.3,8.11,8.11,0,0,1-6.8-3.23q-2.48-3.24-2.48-9,0-6.2,3.39-9.2t10.15-3.32l5.2-.21v-2.81q0-5.49-4.75-5.49c-2.34,0-5,.92-8.08,2.75l-3.24-6.47a23.29,23.29,0,0,1,12.69-3.69q6.22,0,9.48,3.57t3.25,10.1v26.3Zm-8.12-6.61a4.72,4.72,0,0,0,4.1-2.3,11,11,0,0,0,1.53-6.14V151l-2.88.14a6.57,6.57,0,0,0-4.7,1.83,7.15,7.15,0,0,0-1.49,4.92Q469.74,162.75,473.18,162.75Z"/><path class="cls-3" d="M516.74,157.9q0,5.73-3.36,8.95t-9.89,3.21a18.39,18.39,0,0,1-9.6-2.28v-8.12a18.12,18.12,0,0,0,4.52,2.21,14.27,14.27,0,0,0,4.55.88,4.7,4.7,0,0,0,3.32-1.07,3.72,3.72,0,0,0,1.15-2.83,4.53,4.53,0,0,0-1.2-3.13,20.51,20.51,0,0,0-4.39-3.27,18,18,0,0,1-6.1-5.4,12.21,12.21,0,0,1-1.85-6.76,9.83,9.83,0,0,1,3.43-7.91q3.42-2.92,9.4-2.92a18.84,18.84,0,0,1,9.81,2.74l-3.06,6.71a14.27,14.27,0,0,0-6.61-2,3.55,3.55,0,0,0-2.69.94,3.3,3.3,0,0,0-.89,2.32,4.12,4.12,0,0,0,1.1,2.82,19.52,19.52,0,0,0,4.14,3.06,26.5,26.5,0,0,1,5.13,3.76,11.29,11.29,0,0,1,2.28,3.51A12.09,12.09,0,0,1,516.74,157.9Z"/><path class="cls-3" d="M557.84,137.61h-6.47v31.75H542V137.61h-4.54v-4.67l4.54-2.82v-3q0-6.54,2.71-9.72t8.72-3.18a16,16,0,0,1,7.06,1.58L558.05,123a8.26,8.26,0,0,0-3.59-.85,2.53,2.53,0,0,0-2.35,1.27,8,8,0,0,0-.74,3.9v2.89h6.47Z"/><path class="cls-3" d="M578.65,129.46A11.09,11.09,0,0,1,582,130l-1.09,9.07a7.92,7.92,0,0,0-2.57-.35,6,6,0,0,0-5.24,2.69c-1.22,1.8-1.83,4.4-1.83,7.82v20.15H562V130.2h7.7l1.06,6.11H571A14.12,14.12,0,0,1,574.4,131,6.28,6.28,0,0,1,578.65,129.46Z"/><path class="cls-3" d="M605.41,169.36,603.54,164h-.21a13.29,13.29,0,0,1-4.29,4.74,10.86,10.86,0,0,1-5.59,1.3,8.11,8.11,0,0,1-6.8-3.23q-2.48-3.24-2.48-9,0-6.2,3.39-9.2t10.15-3.32l5.2-.21v-2.81q0-5.49-4.75-5.49c-2.34,0-5,.92-8.08,2.75l-3.24-6.47a23.3,23.3,0,0,1,12.7-3.69q6.21,0,9.47,3.57t3.25,10.1v26.3Zm-8.12-6.61a4.7,4.7,0,0,0,4.09-2.3,11,11,0,0,0,1.53-6.14V151l-2.88.14a6.57,6.57,0,0,0-4.7,1.83,7.15,7.15,0,0,0-1.49,4.92Q593.84,162.75,597.29,162.75Z"/><path class="cls-3" d="M646.82,148.27l2.36-4.68,7.73-13.39h9.91l-9.91,16.06,10.58,23.1h-9.81l-7.06-16.56L647,156.11v13.25h-9.35v-54.7H647v25.77l-.42,7.84Z"/><path class="cls-3" d="M680.89,169.36h-9.35v-54.7h9.35Z"/><path class="cls-3" d="M707.92,169.36,706.06,164h-.21a13.38,13.38,0,0,1-4.29,4.74,10.88,10.88,0,0,1-5.59,1.3,8.11,8.11,0,0,1-6.8-3.23c-1.66-2.16-2.48-5.16-2.48-9q0-6.2,3.39-9.2t10.14-3.32l5.21-.21v-2.81c0-3.66-1.59-5.49-4.75-5.49q-3.51,0-8.09,2.75l-3.23-6.47a23.29,23.29,0,0,1,12.69-3.69q6.23,0,9.48,3.57t3.25,10.1v26.3Zm-8.12-6.61a4.72,4.72,0,0,0,4.1-2.3,11,11,0,0,0,1.53-6.14V151l-2.89.14a6.57,6.57,0,0,0-4.69,1.83,7.1,7.1,0,0,0-1.49,4.92C696.36,161.13,697.5,162.75,699.8,162.75Z"/><path class="cls-3" d="M743.36,157.9q0,5.73-3.36,8.95t-9.89,3.21a18.39,18.39,0,0,1-9.6-2.28v-8.12a18,18,0,0,0,4.52,2.21,14.27,14.27,0,0,0,4.55.88,4.7,4.7,0,0,0,3.32-1.07,3.71,3.71,0,0,0,1.14-2.83,4.56,4.56,0,0,0-1.19-3.13,20.36,20.36,0,0,0-4.4-3.27,18.12,18.12,0,0,1-6.1-5.4,12.2,12.2,0,0,1-1.84-6.76,9.83,9.83,0,0,1,3.43-7.91q3.42-2.92,9.4-2.92a18.84,18.84,0,0,1,9.81,2.74l-3.06,6.71a14.27,14.27,0,0,0-6.61-2,3.55,3.55,0,0,0-2.69.94,3.26,3.26,0,0,0-.9,2.32A4.09,4.09,0,0,0,731,143a19.67,19.67,0,0,0,4.13,3.06,26.32,26.32,0,0,1,5.14,3.76,11.29,11.29,0,0,1,2.28,3.51A12.09,12.09,0,0,1,743.36,157.9Z"/><path class="cls-3" d="M770.29,157.9q0,5.73-3.36,8.95T757,170.06a18.39,18.39,0,0,1-9.6-2.28v-8.12a18,18,0,0,0,4.52,2.21,14.27,14.27,0,0,0,4.55.88,4.7,4.7,0,0,0,3.32-1.07,3.71,3.71,0,0,0,1.14-2.83,4.56,4.56,0,0,0-1.19-3.13,20.36,20.36,0,0,0-4.4-3.27,18.12,18.12,0,0,1-6.1-5.4,12.2,12.2,0,0,1-1.84-6.76,9.83,9.83,0,0,1,3.43-7.91q3.42-2.92,9.4-2.92a18.84,18.84,0,0,1,9.81,2.74L767,138.91a14.27,14.27,0,0,0-6.61-2,3.54,3.54,0,0,0-2.69.94,3.26,3.26,0,0,0-.9,2.32,4.09,4.09,0,0,0,1.11,2.82,19.67,19.67,0,0,0,4.13,3.06,26.32,26.32,0,0,1,5.14,3.76,11.29,11.29,0,0,1,2.28,3.51A12.09,12.09,0,0,1,770.29,157.9Z"/><path class="cls-3" d="M790.64,170.06a14.11,14.11,0,0,1-11.58-5.22q-4.23-5.22-4.24-14.78t3.84-15.15a12.3,12.3,0,0,1,10.68-5.45,12.16,12.16,0,0,1,10.09,4.66q3.69,4.65,3.69,13.06v5h-18.8q.1,5.24,2.14,7.79a6.84,6.84,0,0,0,5.63,2.54,18.32,18.32,0,0,0,9.35-2.84v7.7A20.61,20.61,0,0,1,790.64,170.06Zm-1.37-33.4a3.82,3.82,0,0,0-3.3,2.13,14.29,14.29,0,0,0-1.51,6.59H794a14.22,14.22,0,0,0-1.3-6.5A3.75,3.75,0,0,0,789.27,136.66Z"/><path class="cls-3" d="M820.46,161.8a108.46,108.46,0,0,1-6.19,16.84h-7.14q2.29-9.34,3.55-17.65H820Z"/><path class="cls-3" d="M867.57,157.9q0,5.73-3.36,8.95t-9.9,3.21a18.44,18.44,0,0,1-9.6-2.28v-8.12a18.12,18.12,0,0,0,4.52,2.21,14.33,14.33,0,0,0,4.56.88,4.7,4.7,0,0,0,3.32-1.07,3.71,3.71,0,0,0,1.14-2.83,4.53,4.53,0,0,0-1.2-3.13,20.24,20.24,0,0,0-4.39-3.27,18,18,0,0,1-6.1-5.4,12.21,12.21,0,0,1-1.85-6.76,9.86,9.86,0,0,1,3.43-7.91q3.43-2.92,9.41-2.92a18.84,18.84,0,0,1,9.81,2.74l-3.06,6.71a14.27,14.27,0,0,0-6.61-2,3.54,3.54,0,0,0-2.69.94,3.26,3.26,0,0,0-.9,2.32,4.09,4.09,0,0,0,1.11,2.82,19.39,19.39,0,0,0,4.13,3.06,25.87,25.87,0,0,1,5.13,3.76,11.15,11.15,0,0,1,2.29,3.51A12.09,12.09,0,0,1,867.57,157.9Z"/><path class="cls-3" d="M902.48,149.71q0,9.63-4.08,15a14.24,14.24,0,0,1-19.13,2.9,15.68,15.68,0,0,1-5.31-7.08,28.85,28.85,0,0,1-1.86-10.81q0-9.53,4-14.89a13.26,13.26,0,0,1,11.22-5.36,13.06,13.06,0,0,1,11,5.46Q902.48,140.39,902.48,149.71Zm-20.82,0q0,6.12,1.34,9.24t4.29,3.13q5.63,0,5.62-12.37,0-6.15-1.35-9.2a4.53,4.53,0,0,0-8.56,0Q881.67,143.56,881.66,149.71Z"/><path class="cls-3" d="M947.93,169.36V146q0-8.62-4.25-8.62a4.57,4.57,0,0,0-4.43,3.08q-1.34,3.08-1.34,9.86v19h-9.42V146q0-8.62-4.32-8.62a4.58,4.58,0,0,0-4.4,3.06q-1.37,3.06-1.37,10.09v18.81h-9.35V130.2h7.42l1.12,5h.6a9.44,9.44,0,0,1,3.85-4.37,10.36,10.36,0,0,1,5.22-1.39q7.17,0,9.56,6.78h.36q3-6.78,9.59-6.78a9.22,9.22,0,0,1,7.9,3.65q2.69,3.66,2.69,10.69v25.56Z"/><path class="cls-3" d="M993,170.06q-5.41,0-8.54-5.34t-3.13-14.87q0-9.57,3.06-15t8.44-5.41a8,8,0,0,1,4.62,1.32,11.91,11.91,0,0,1,3.6,4.44h.57q-.42-5.34-.42-7.49V114.66h9.35v54.7h-7l-1.59-5.1h-.31Q998.71,170.07,993,170.06Zm3-7.91a4,4,0,0,0,3.79-2.37q1.2-2.37,1.3-8.63v-1.23q0-6.82-1.21-9.6a4.12,4.12,0,0,0-4-2.78q-2.59,0-3.78,3.18A28.2,28.2,0,0,0,991,150q0,6.07,1.2,9.12T996,162.15Z"/><path class="cls-3" d="M1039.59,169.36l-1.16-5h-.5a10,10,0,0,1-9.21,5.73q-5.26,0-8-3.58t-2.7-10.73V130.2h9.45v23.3a15.87,15.87,0,0,0,1,6.47,3.42,3.42,0,0,0,3.31,2.18,4.62,4.62,0,0,0,4.41-3c.92-2,1.39-5.4,1.39-10.16V130.2h9.45v39.16Z"/><path class="cls-3" d="M1090.11,137.61h-6.47v31.75h-9.35V137.61h-4.54v-4.67l4.54-2.82v-3q0-6.54,2.7-9.72c1.81-2.12,4.71-3.18,8.72-3.18a16.09,16.09,0,0,1,7.07,1.58l-2.46,7.14a8.29,8.29,0,0,0-3.59-.85,2.52,2.52,0,0,0-2.35,1.27,7.87,7.87,0,0,0-.74,3.9v2.89h6.47Zm13.46,31.75h-9.35v-54.7h9.35Z"/><path class="cls-3" d="M1111.13,120a5,5,0,0,1,1.35-3.67,5.11,5.11,0,0,1,3.78-1.35,5,5,0,0,1,3.66,1.35,4.94,4.94,0,0,1,1.37,3.67,4.82,4.82,0,0,1-1.41,3.71,5.06,5.06,0,0,1-3.62,1.32,5.19,5.19,0,0,1-3.72-1.32A4.82,4.82,0,0,1,1111.13,120Zm9.74,49.4h-9.35V130.2h9.35Z"/><path class="cls-3" d="M1145.58,129.46a11.09,11.09,0,0,1,3.38.52l-1.09,9.07a7.92,7.92,0,0,0-2.57-.35,6,6,0,0,0-5.24,2.69c-1.22,1.8-1.83,4.4-1.83,7.82v20.15h-9.35V130.2h7.7l1.06,6.11h.31a14.12,14.12,0,0,1,3.38-5.27A6.26,6.26,0,0,1,1145.58,129.46Z"/><path class="cls-3" d="M1166.75,162.15a10.89,10.89,0,0,0,4.25-1v7.31c-1.52,1.06-3.81,1.58-6.86,1.58q-5.09,0-7.55-3c-1.64-2-2.47-5.07-2.47-9.12V137.61h-3.79v-4.18l4.88-3.38,2.4-8.29h6v8.44h7.1v7.41h-7.1v20.6Q1163.58,162.16,1166.75,162.15Z"/><path class="cls-3" d="M1190.93,170.06a14.11,14.11,0,0,1-11.58-5.22q-4.23-5.22-4.24-14.78t3.84-15.15a12.3,12.3,0,0,1,10.68-5.45,12.16,12.16,0,0,1,10.09,4.66q3.69,4.65,3.69,13.06v5h-18.8q.11,5.24,2.14,7.79a6.82,6.82,0,0,0,5.63,2.54,18.32,18.32,0,0,0,9.35-2.84v7.7A20.61,20.61,0,0,1,1190.93,170.06Zm-1.37-33.4a3.81,3.81,0,0,0-3.3,2.13,14.29,14.29,0,0,0-1.51,6.59h9.49a14.22,14.22,0,0,0-1.3-6.5A3.75,3.75,0,0,0,1189.56,136.66Z"/><path class="cls-3" d="M1226.3,129.46a11.14,11.14,0,0,1,3.38.52l-1.09,9.07a8,8,0,0,0-2.57-.35,6,6,0,0,0-5.24,2.69c-1.22,1.8-1.83,4.4-1.83,7.82v20.15h-9.35V130.2h7.7l1.06,6.11h.31a14.12,14.12,0,0,1,3.38-5.27A6.26,6.26,0,0,1,1226.3,129.46Z"/><path class="cls-3" d="M196.13,255.76h-9.35v-54.7h9.35Z"/><path class="cls-3" d="M203.66,206.36a5,5,0,0,1,1.35-3.67,5.11,5.11,0,0,1,3.78-1.35,5,5,0,0,1,3.66,1.35,4.94,4.94,0,0,1,1.37,3.67,4.82,4.82,0,0,1-1.41,3.71,5.07,5.07,0,0,1-3.62,1.32,5.23,5.23,0,0,1-3.73-1.32A4.85,4.85,0,0,1,203.66,206.36Zm9.74,49.4H204V216.59h9.36Z"/><path class="cls-3" d="M231.71,256.46q-5.42,0-8.54-5.34T220,236.25q0-9.57,3.06-15t8.44-5.41a8.11,8.11,0,0,1,4.62,1.31,12,12,0,0,1,3.6,4.45h.57q-.44-5.34-.43-7.49V201.06h9.36v54.7h-7l-1.58-5.1h-.31Q237.4,256.47,231.71,256.46Zm3-7.91a4,4,0,0,0,3.79-2.37q1.2-2.37,1.3-8.63v-1.23q0-6.82-1.21-9.6a4.12,4.12,0,0,0-4-2.78q-2.59,0-3.78,3.18a28.2,28.2,0,0,0-1.18,9.27q0,6.08,1.2,9.12T234.74,248.55Z"/><path class="cls-3" d="M270.74,248.55a10.89,10.89,0,0,0,4.25-1v7.31q-2.28,1.58-6.86,1.58-5.08,0-7.55-3t-2.46-9.12V224h-3.8v-4.18l4.89-3.38,2.39-8.29h6v8.43h7.1V224h-7.1v20.6Q267.57,248.56,270.74,248.55Z"/><path class="cls-3" d="M337.15,255.76V232.42q0-8.62-4.26-8.62a4.57,4.57,0,0,0-4.43,3.08q-1.33,3.08-1.33,9.86v19h-9.42V232.42q0-8.62-4.33-8.62a4.57,4.57,0,0,0-4.39,3.06c-.92,2-1.37,5.4-1.37,10.09v18.81h-9.36V216.59h7.42l1.13,5h.59a9.44,9.44,0,0,1,3.85-4.37,10.36,10.36,0,0,1,5.22-1.39c4.79,0,8,2.26,9.57,6.78h.35q3-6.78,9.6-6.78a9.19,9.19,0,0,1,7.89,3.65q2.69,3.66,2.69,10.69v25.56Z"/><path class="cls-3" d="M368.58,256.46A14.13,14.13,0,0,1,357,251.24q-4.23-5.22-4.23-14.78t3.83-15.15a13.24,13.24,0,0,1,20.78-.8q3.69,4.67,3.69,13.07v5H362.25c.07,3.49.78,6.09,2.14,7.78A6.82,6.82,0,0,0,370,248.9a18.32,18.32,0,0,0,9.35-2.84v7.69A20.51,20.51,0,0,1,368.58,256.46Zm-1.37-33.4a3.82,3.82,0,0,0-3.31,2.13,14.29,14.29,0,0,0-1.51,6.59h9.49a14.18,14.18,0,0,0-1.3-6.5A3.75,3.75,0,0,0,367.21,223.06Z"/><path class="cls-3" d="M397.54,256.46q-5.4,0-8.54-5.34t-3.13-14.87q0-9.57,3.06-15t8.44-5.41a8.11,8.11,0,0,1,4.62,1.31,12.15,12.15,0,0,1,3.61,4.45h.56q-.42-5.34-.42-7.49V201.06h9.35v54.7h-7l-1.59-5.1h-.31Q403.25,256.47,397.54,256.46Zm3-7.91a4,4,0,0,0,3.8-2.37c.79-1.58,1.23-4.46,1.3-8.63v-1.23q0-6.82-1.22-9.6a4.12,4.12,0,0,0-4-2.78q-2.59,0-3.78,3.18a28.24,28.24,0,0,0-1.17,9.27c0,4.05.39,7.09,1.19,9.12S398.79,248.55,400.57,248.55Z"/><path class="cls-3" d="M434.11,248.2A108.83,108.83,0,0,1,427.92,265h-7.14q2.3-9.35,3.55-17.65h9.29Z"/><path class="cls-3" d="M481.22,244.3q0,5.73-3.36,8.95t-9.9,3.21a18.38,18.38,0,0,1-9.59-2.28v-8.12a18.22,18.22,0,0,0,4.51,2.21,14.33,14.33,0,0,0,4.56.88,4.7,4.7,0,0,0,3.32-1.07,3.71,3.71,0,0,0,1.14-2.83,4.56,4.56,0,0,0-1.19-3.13,20.63,20.63,0,0,0-4.4-3.27,18,18,0,0,1-6.1-5.4,12.21,12.21,0,0,1-1.84-6.77,9.88,9.88,0,0,1,3.42-7.91q3.43-2.91,9.41-2.91A18.84,18.84,0,0,1,481,218.6L478,225.31a14.3,14.3,0,0,0-6.61-2,3.54,3.54,0,0,0-2.69.95,3.26,3.26,0,0,0-.9,2.32,4.09,4.09,0,0,0,1.11,2.82,19.39,19.39,0,0,0,4.13,3.06,25.87,25.87,0,0,1,5.13,3.76,11.15,11.15,0,0,1,2.29,3.51A12.05,12.05,0,0,1,481.22,244.3Z"/><path class="cls-3" d="M506.63,255.76V232.42a16,16,0,0,0-1-6.44,3.44,3.44,0,0,0-3.31-2.18,4.63,4.63,0,0,0-4.43,3q-1.41,3-1.41,10.14v18.81h-9.35V216.59h7.42l1.13,5h.59a9.67,9.67,0,0,1,9.14-5.76c3.57,0,6.23,1.22,8,3.65s2.66,6,2.66,10.69v25.56Z"/><path class="cls-3" d="M542.81,255.76,541,250.42h-.21a13.47,13.47,0,0,1-4.29,4.74,10.88,10.88,0,0,1-5.59,1.3,8.13,8.13,0,0,1-6.81-3.23q-2.47-3.24-2.47-9,0-6.19,3.39-9.2t10.14-3.32l5.2-.21v-2.81q0-5.49-4.74-5.49c-2.35,0-5,.92-8.09,2.75l-3.23-6.47a23.29,23.29,0,0,1,12.69-3.69q6.22,0,9.47,3.56t3.26,10.11v26.3Zm-8.12-6.61a4.72,4.72,0,0,0,4.1-2.3,11,11,0,0,0,1.52-6.14v-3.3l-2.88.14a6.51,6.51,0,0,0-4.69,1.83,7.1,7.1,0,0,0-1.5,4.92Q531.24,249.15,534.69,249.15Z"/><path class="cls-3" d="M574.7,256.46a8.77,8.77,0,0,1-4.49-1.14,10.76,10.76,0,0,1-3.63-4h-.5q.57,4.78.57,5.77v16h-9.43V216.59h7.25l1.61,5.1h.43q2.91-5.83,8.47-5.83,5.34,0,8.37,5.29t3,15q0,9.52-3.13,14.94T574.7,256.46Zm-2.89-32.66a4.1,4.1,0,0,0-3.95,2.55q-1.22,2.55-1.28,8.46V236q0,6.47,1.23,9.42a4.2,4.2,0,0,0,4.07,2.95q4.93,0,4.93-12.44,0-6.12-1.22-9.14T571.81,223.8Z"/><path class="cls-3" d="M610.42,256.46a8.74,8.74,0,0,1-4.49-1.14,10.85,10.85,0,0,1-3.64-4h-.49q.57,4.78.57,5.77v16h-9.43V216.59h7.25l1.61,5.1h.42q2.92-5.83,8.48-5.83,5.34,0,8.36,5.29t3,15q0,9.52-3.13,14.94T610.42,256.46Zm-2.89-32.66a4.1,4.1,0,0,0-3.95,2.55q-1.22,2.55-1.29,8.46V236c0,4.31.42,7.45,1.24,9.42a4.2,4.2,0,0,0,4.07,2.95q4.92,0,4.93-12.44,0-6.12-1.22-9.14T607.53,223.8Z"/><path class="cls-3" d="M643.11,256.46a14.1,14.1,0,0,1-11.58-5.22q-4.24-5.22-4.24-14.78t3.83-15.15a12.33,12.33,0,0,1,10.69-5.45,12.18,12.18,0,0,1,10.09,4.65q3.69,4.67,3.69,13.07v5H636.78c.07,3.49.79,6.09,2.15,7.78a6.8,6.8,0,0,0,5.62,2.55,18.26,18.26,0,0,0,9.35-2.84v7.69A20.48,20.48,0,0,1,643.11,256.46Zm-1.37-33.4a3.8,3.8,0,0,0-3.3,2.13,14.27,14.27,0,0,0-1.52,6.59h9.5a14.18,14.18,0,0,0-1.3-6.5A3.76,3.76,0,0,0,641.74,223.06Z"/><path class="cls-3" d="M678.48,215.86a11,11,0,0,1,3.37.52l-1.09,9.07a7.86,7.86,0,0,0-2.56-.35,6,6,0,0,0-5.24,2.69q-1.83,2.69-1.83,7.82v20.15h-9.35V216.59h7.7l1,6.12h.32a14.25,14.25,0,0,1,3.37-5.27A6.29,6.29,0,0,1,678.48,215.86Z"/><path class="cls-3" d="M714.13,256.46q-5.42,0-8.55-5.34t-3.12-14.87q0-9.57,3-15t8.44-5.41a8.11,8.11,0,0,1,4.62,1.31,12,12,0,0,1,3.61,4.45h.56q-.42-5.34-.42-7.49V201.06h9.35v54.7h-7l-1.58-5.1h-.32Q719.83,256.47,714.13,256.46Zm3-7.91a4,4,0,0,0,3.8-2.37c.79-1.58,1.23-4.46,1.3-8.63v-1.23c0-4.55-.41-7.75-1.21-9.6a4.13,4.13,0,0,0-4-2.78q-2.6,0-3.77,3.18a27.93,27.93,0,0,0-1.18,9.27,26.55,26.55,0,0,0,1.19,9.12Q714.48,248.56,717.15,248.55Z"/><path class="cls-3" d="M758.74,255.76l-1.86-5.34h-.21a13.47,13.47,0,0,1-4.29,4.74,10.88,10.88,0,0,1-5.59,1.3,8.13,8.13,0,0,1-6.81-3.23q-2.47-3.24-2.47-9,0-6.19,3.39-9.2T751,231.71l5.2-.21v-2.81q0-5.49-4.74-5.49c-2.35,0-5,.92-8.09,2.75l-3.23-6.47a23.29,23.29,0,0,1,12.69-3.69q6.23,0,9.47,3.56t3.26,10.11v26.3Zm-8.12-6.61a4.69,4.69,0,0,0,4.09-2.3,11,11,0,0,0,1.53-6.14v-3.3l-2.88.14a6.51,6.51,0,0,0-4.69,1.83,7.1,7.1,0,0,0-1.5,4.92Q747.17,249.15,750.62,249.15Z"/><path class="cls-3" d="M801.35,216.67v5.48l-4.68,1a12.55,12.55,0,0,1,1.37,6.19q0,6.23-3.37,9.74t-9.42,3.52a8.7,8.7,0,0,1-2.6-.29,11.59,11.59,0,0,0-1.27,1.34,2.8,2.8,0,0,0-.6,1.83q0,2.46,4.26,2.46h5.66q5,0,7.68,2.69t2.69,8.1q0,6.83-4.57,10.55t-13.15,3.73q-6.51,0-10-2.83a9.78,9.78,0,0,1-3.52-8.07,8.86,8.86,0,0,1,2-5.75,11.32,11.32,0,0,1,5.55-3.6,6.8,6.8,0,0,1-2.93-2.18,5.51,5.51,0,0,1-1.15-3.45,6.12,6.12,0,0,1,.36-2.16,6.55,6.55,0,0,1,1-1.83,19.58,19.58,0,0,1,2.65-2.55,10,10,0,0,1-3.83-4.53,16,16,0,0,1-1.41-6.79q0-6.44,3.38-9.95t9.67-3.51a16.08,16.08,0,0,1,2.74.26,15.86,15.86,0,0,1,2.36.55Zm-23,44.78a4.44,4.44,0,0,0,1.46,3.57,6.24,6.24,0,0,0,4.17,1.25q4.24,0,6.38-1.62a5.24,5.24,0,0,0,2.13-4.43,3.81,3.81,0,0,0-1.15-3.13c-.76-.6-2.18-.91-4.27-.91h-4.53a3.75,3.75,0,0,0-3,1.42A6,6,0,0,0,778.32,261.45Zm2.89-32.06q0,6.93,3.9,6.93t3.79-7q0-7.17-3.79-7.17T781.21,229.39Z"/><path class="cls-3" d="M815.41,255.76h-9.35v-54.7h9.35Z"/><path class="cls-3" d="M822.94,206.36a5,5,0,0,1,1.35-3.67,5.11,5.11,0,0,1,3.78-1.35,5,5,0,0,1,3.65,1.35,4.91,4.91,0,0,1,1.38,3.67,4.82,4.82,0,0,1-1.41,3.71,5.09,5.09,0,0,1-3.62,1.32,5.23,5.23,0,0,1-3.73-1.32A4.82,4.82,0,0,1,822.94,206.36Zm9.73,49.4h-9.35V216.59h9.35Z"/><path class="cls-3" d="M868.88,216.67v5.48l-4.67,1a12.66,12.66,0,0,1,1.37,6.19q0,6.23-3.37,9.74t-9.43,3.52a8.7,8.7,0,0,1-2.6-.29,11.51,11.51,0,0,0-1.26,1.34,2.8,2.8,0,0,0-.6,1.83q0,2.46,4.25,2.46h5.66q5,0,7.68,2.69c1.8,1.79,2.69,4.49,2.69,8.1q0,6.83-4.57,10.55t-13.15,3.73q-6.5,0-10-2.83a9.76,9.76,0,0,1-3.52-8.07,8.91,8.91,0,0,1,2-5.75,11.35,11.35,0,0,1,5.56-3.6,6.77,6.77,0,0,1-2.94-2.18,5.51,5.51,0,0,1-1.14-3.45,6.35,6.35,0,0,1,.35-2.16,7.11,7.11,0,0,1,1-1.83,19.83,19.83,0,0,1,2.66-2.55,9.89,9.89,0,0,1-3.83-4.53,16,16,0,0,1-1.41-6.79q0-6.44,3.37-9.95t9.67-3.51a16,16,0,0,1,2.74.26,15.55,15.55,0,0,1,2.36.55Zm-23,44.78a4.41,4.41,0,0,0,1.46,3.57,6.23,6.23,0,0,0,4.16,1.25q4.26,0,6.38-1.62a5.24,5.24,0,0,0,2.13-4.43,3.81,3.81,0,0,0-1.14-3.13c-.76-.6-2.19-.91-4.27-.91H850a3.73,3.73,0,0,0-3,1.42A6,6,0,0,0,845.86,261.45Zm2.88-32.06q0,6.93,3.9,6.93t3.8-7q0-7.17-3.8-7.17T848.74,229.39Z"/><path class="cls-3" d="M887.2,248.55a11,11,0,0,0,4.26-1v7.31c-1.53,1.05-3.81,1.58-6.86,1.58q-5.1,0-7.56-3t-2.46-9.12V224h-3.8v-4.18l4.89-3.38,2.39-8.29h6v8.43h7.1V224H884v20.6Q884,248.56,887.2,248.55Z"/><path class="cls-3" d="M928.33,248.55a10.93,10.93,0,0,0,4.26-1v7.31c-1.53,1.05-3.81,1.58-6.86,1.58q-5.1,0-7.56-3t-2.46-9.12V224h-3.79v-4.18l4.88-3.38,2.39-8.29h6v8.43h7.1V224h-7.1v20.6Q925.17,248.56,928.33,248.55Z"/><path class="cls-3" d="M937.76,206.36a5,5,0,0,1,1.35-3.67,5.11,5.11,0,0,1,3.78-1.35,5,5,0,0,1,3.65,1.35,4.91,4.91,0,0,1,1.38,3.67,4.82,4.82,0,0,1-1.41,3.71,5.07,5.07,0,0,1-3.62,1.32,5.23,5.23,0,0,1-3.73-1.32A4.82,4.82,0,0,1,937.76,206.36Zm9.73,49.4h-9.35V216.59h9.35Z"/><path class="cls-3" d="M964.86,255.76h-9.35v-54.7h9.35Z"/><path class="cls-3" d="M1000.79,256.46q-5.41,0-8.54-5.34t-3.13-14.87q0-9.57,3.06-15t8.44-5.41a8.11,8.11,0,0,1,4.62,1.31,12,12,0,0,1,3.6,4.45h.56q-.42-5.34-.42-7.49V201.06h9.35v54.7h-7l-1.58-5.1h-.32Q1006.49,256.47,1000.79,256.46Zm3-7.91a4,4,0,0,0,3.8-2.37q1.2-2.37,1.3-8.63v-1.23q0-6.82-1.21-9.6a4.12,4.12,0,0,0-4-2.78q-2.61,0-3.78,3.18a27.93,27.93,0,0,0-1.18,9.27q0,6.08,1.2,9.12T1003.81,248.55Z"/><path class="cls-3" d="M1025.89,206.36a4.94,4.94,0,0,1,1.36-3.67,5.11,5.11,0,0,1,3.78-1.35,5,5,0,0,1,3.65,1.35,5.61,5.61,0,0,1,0,7.38,5.09,5.09,0,0,1-3.62,1.32,5.23,5.23,0,0,1-3.73-1.32A4.82,4.82,0,0,1,1025.89,206.36Zm9.74,49.4h-9.35V216.59h9.35Z"/><path class="cls-3" d="M1071.84,216.67v5.48l-4.67,1a12.66,12.66,0,0,1,1.37,6.19q0,6.23-3.38,9.74t-9.42,3.52a8.7,8.7,0,0,1-2.6-.29,11.59,11.59,0,0,0-1.27,1.34,2.79,2.79,0,0,0-.59,1.83c0,1.64,1.41,2.46,4.25,2.46h5.66q5,0,7.68,2.69t2.69,8.1q0,6.83-4.57,10.55t-13.15,3.73q-6.49,0-10-2.83a9.78,9.78,0,0,1-3.51-8.07,8.85,8.85,0,0,1,2-5.75,11.35,11.35,0,0,1,5.56-3.6,6.77,6.77,0,0,1-2.94-2.18,5.51,5.51,0,0,1-1.14-3.45,6.12,6.12,0,0,1,.35-2.16,6.82,6.82,0,0,1,1-1.83,19.58,19.58,0,0,1,2.65-2.55,10,10,0,0,1-3.83-4.53,16.17,16.17,0,0,1-1.4-6.79q0-6.44,3.37-9.95t9.67-3.51a19.28,19.28,0,0,1,5.1.81Zm-23,44.78a4.44,4.44,0,0,0,1.46,3.57,6.25,6.25,0,0,0,4.17,1.25c2.84,0,5-.54,6.38-1.62a5.24,5.24,0,0,0,2.13-4.43,3.78,3.78,0,0,0-1.15-3.13c-.76-.6-2.18-.91-4.27-.91H1053a3.71,3.71,0,0,0-3,1.42A6,6,0,0,0,1048.81,261.45Zm2.89-32.06q0,6.93,3.9,6.93t3.8-7q0-7.17-3.8-7.17T1051.7,229.39Z"/><path class="cls-3" d="M1076.48,250.94a5.88,5.88,0,0,1,1.46-4.25,5.75,5.75,0,0,1,4.34-1.51,5.2,5.2,0,0,1,5.84,5.76,5.73,5.73,0,0,1-1.53,4.26,5.91,5.91,0,0,1-4.31,1.51,5.72,5.72,0,0,1-4.32-1.53A5.82,5.82,0,0,1,1076.48,250.94Z"/><path class="cls-3" d="M1132.7,255.76,1122.92,212h-.38a72.32,72.32,0,0,1,.67,9.28v34.49h-8.86v-51.4H1129l8.79,40.39h.28l8.72-40.39h14.91v51.4h-9.07V220.92a81.62,81.62,0,0,1,.49-8.86h-.28l-9.74,43.7Z"/><path class="cls-3" d="M1184.69,256.46a14.1,14.1,0,0,1-11.58-5.22q-4.23-5.22-4.24-14.78t3.84-15.15a13.23,13.23,0,0,1,20.77-.8q3.69,4.67,3.69,13.07v5h-18.8c.07,3.49.78,6.09,2.14,7.78a6.8,6.8,0,0,0,5.62,2.55,18.32,18.32,0,0,0,9.36-2.84v7.69A20.52,20.52,0,0,1,1184.69,256.46Zm-1.37-33.4a3.81,3.81,0,0,0-3.3,2.13,14.29,14.29,0,0,0-1.51,6.59H1188a14.18,14.18,0,0,0-1.3-6.5A3.75,3.75,0,0,0,1183.32,223.06Z"/><path class="cls-3" d="M1222.87,255.76V232.42a15.78,15.78,0,0,0-1-6.44,3.43,3.43,0,0,0-3.3-2.18,4.63,4.63,0,0,0-4.43,3q-1.41,3-1.41,10.14v18.81h-9.35V216.59h7.42l1.12,5h.6a9.67,9.67,0,0,1,9.14-5.76c3.57,0,6.23,1.22,8,3.65s2.65,6,2.65,10.69v25.56Z"/><path class="cls-3" d="M175.85,342.86q-5.41,0-8.54-5.34t-3.13-14.87q0-9.57,3.06-15t8.43-5.41a8.05,8.05,0,0,1,4.63,1.32,11.91,11.91,0,0,1,3.6,4.44h.56q-.42-5.34-.42-7.49V287.46h9.35v54.7h-7l-1.58-5.1h-.32Q181.55,342.87,175.85,342.86Zm3-7.91a4,4,0,0,0,3.8-2.37q1.2-2.37,1.3-8.63v-1.23q0-6.83-1.21-9.6a4.12,4.12,0,0,0-4-2.78q-2.61,0-3.78,3.18a27.93,27.93,0,0,0-1.18,9.27q0,6.07,1.2,9.12T178.87,335Z"/><path class="cls-3" d="M215.72,342.86a14.13,14.13,0,0,1-11.59-5.22q-4.23-5.22-4.23-14.78t3.83-15.15a12.31,12.31,0,0,1,10.69-5.45,12.19,12.19,0,0,1,10.09,4.66q3.69,4.65,3.69,13.06v5H209.39c.07,3.49.78,6.09,2.14,7.78a6.82,6.82,0,0,0,5.63,2.55,18.29,18.29,0,0,0,9.35-2.84v7.7A20.6,20.6,0,0,1,215.72,342.86Zm-1.37-33.4a3.82,3.82,0,0,0-3.31,2.13,14.29,14.29,0,0,0-1.51,6.59H219a14.22,14.22,0,0,0-1.3-6.5A3.74,3.74,0,0,0,214.35,309.46Z"/><path class="cls-3" d="M253.9,342.16V318.82a15.78,15.78,0,0,0-1-6.44,3.43,3.43,0,0,0-3.31-2.18,4.64,4.64,0,0,0-4.43,3q-1.39,3-1.4,10.14v18.81h-9.36V303h7.42l1.13,5h.6a9.67,9.67,0,0,1,9.14-5.76q5.34,0,8,3.65t2.66,10.69v25.56Z"/><path class="cls-3" d="M290.39,342.16V318.82a15.78,15.78,0,0,0-1-6.44,3.43,3.43,0,0,0-3.31-2.18,4.64,4.64,0,0,0-4.43,3q-1.39,3-1.4,10.14v18.81h-9.35V303h7.41l1.13,5h.6a9.67,9.67,0,0,1,9.14-5.76q5.34,0,8,3.65t2.65,10.69v25.56Z"/><path class="cls-3" d="M321.82,342.86a14.13,14.13,0,0,1-11.59-5.22Q306,332.42,306,322.86t3.83-15.15a12.31,12.31,0,0,1,10.69-5.45,12.17,12.17,0,0,1,10.09,4.66q3.69,4.65,3.69,13.06v5H315.49c.07,3.49.79,6.09,2.14,7.78a6.82,6.82,0,0,0,5.63,2.55,18.29,18.29,0,0,0,9.35-2.84v7.7A20.6,20.6,0,0,1,321.82,342.86Zm-1.37-33.4a3.82,3.82,0,0,0-3.31,2.13,14.42,14.42,0,0,0-1.51,6.59h9.49a14.09,14.09,0,0,0-1.3-6.5A3.74,3.74,0,0,0,320.45,309.46Z"/><path class="cls-3" d="M386.47,303.07v5.48l-4.68,1.05a12.57,12.57,0,0,1,1.38,6.19q0,6.22-3.38,9.74t-9.42,3.52a8.7,8.7,0,0,1-2.6-.29,11.59,11.59,0,0,0-1.27,1.34,2.8,2.8,0,0,0-.6,1.83q0,2.46,4.26,2.46h5.66q5,0,7.68,2.69t2.69,8.1q0,6.82-4.57,10.55t-13.15,3.73q-6.51,0-10-2.83a9.78,9.78,0,0,1-3.51-8.07,8.85,8.85,0,0,1,2-5.75,11.36,11.36,0,0,1,5.55-3.6,6.8,6.8,0,0,1-2.93-2.18,5.51,5.51,0,0,1-1.14-3.45,6.12,6.12,0,0,1,.35-2.16,7,7,0,0,1,1-1.83,19.58,19.58,0,0,1,2.65-2.55,10,10,0,0,1-3.83-4.53,16,16,0,0,1-1.4-6.79q0-6.44,3.37-10t9.67-3.51a19.28,19.28,0,0,1,5.1.81Zm-23,44.78a4.44,4.44,0,0,0,1.46,3.57,6.25,6.25,0,0,0,4.17,1.25q4.24,0,6.38-1.62a5.24,5.24,0,0,0,2.13-4.43,3.74,3.74,0,0,0-1.15-3.12c-.76-.61-2.18-.92-4.27-.92h-4.53a3.71,3.71,0,0,0-3,1.42A6,6,0,0,0,363.44,347.85Zm2.89-32.06q0,6.93,3.9,6.93t3.8-7q0-7.17-3.8-7.17T366.33,315.79Z"/><path class="cls-3" d="M410.38,342.16l-1.87-5.34h-.21a13.29,13.29,0,0,1-4.29,4.74,10.86,10.86,0,0,1-5.59,1.3,8.11,8.11,0,0,1-6.8-3.23q-2.47-3.24-2.48-9,0-6.19,3.4-9.2t10.14-3.32l5.2-.21v-2.81q0-5.49-4.75-5.49-3.51,0-8.08,2.75l-3.24-6.47a23.35,23.35,0,0,1,12.7-3.69q6.21,0,9.47,3.56t3.25,10.11v26.3Zm-8.12-6.61a4.7,4.7,0,0,0,4.09-2.3,11,11,0,0,0,1.53-6.14v-3.3L405,324a6.55,6.55,0,0,0-4.7,1.83,7.15,7.15,0,0,0-1.49,4.92Q398.81,335.55,402.26,335.55Z"/><path class="cls-3" d="M444.3,342.16V318.82a15.78,15.78,0,0,0-1-6.44,3.43,3.43,0,0,0-3.3-2.18,4.63,4.63,0,0,0-4.43,3q-1.41,3-1.41,10.14v18.81h-9.35V303h7.42l1.12,5h.6a9.67,9.67,0,0,1,9.14-5.76q5.34,0,8,3.65t2.65,10.69v25.56Z"/><path class="cls-3" d="M489.48,303.07v5.48l-4.68,1.05a12.57,12.57,0,0,1,1.37,6.19q0,6.22-3.37,9.74t-9.42,3.52a8.7,8.7,0,0,1-2.6-.29,11.59,11.59,0,0,0-1.27,1.34,2.8,2.8,0,0,0-.6,1.83q0,2.46,4.26,2.46h5.66q5,0,7.68,2.69t2.69,8.1q0,6.82-4.57,10.55t-13.15,3.73q-6.51,0-10-2.83a9.78,9.78,0,0,1-3.52-8.07,8.86,8.86,0,0,1,2-5.75,11.27,11.27,0,0,1,5.55-3.6,6.8,6.8,0,0,1-2.93-2.18,5.46,5.46,0,0,1-1.15-3.45,6.12,6.12,0,0,1,.36-2.16,6.69,6.69,0,0,1,1-1.83,19.58,19.58,0,0,1,2.65-2.55,10,10,0,0,1-3.83-4.53,16,16,0,0,1-1.41-6.79q0-6.44,3.38-10t9.67-3.51a16.08,16.08,0,0,1,2.74.26,15.67,15.67,0,0,1,2.35.55Zm-23,44.78a4.44,4.44,0,0,0,1.46,3.57,6.24,6.24,0,0,0,4.17,1.25q4.25,0,6.38-1.62a5.24,5.24,0,0,0,2.12-4.43,3.77,3.77,0,0,0-1.14-3.12c-.76-.61-2.18-.92-4.27-.92h-4.54a3.74,3.74,0,0,0-3,1.42A6,6,0,0,0,466.45,347.85Zm2.88-32.06q0,6.93,3.91,6.93t3.79-7q0-7.17-3.79-7.17T469.33,315.79Z"/><path class="cls-3" d="M550.86,342.16V318.82q0-8.62-4.25-8.62a4.56,4.56,0,0,0-4.43,3.08q-1.33,3.08-1.34,9.86v19h-9.42V318.82q0-8.62-4.32-8.62a4.58,4.58,0,0,0-4.4,3.06q-1.37,3.06-1.37,10.09v18.81H512V303h7.42l1.12,5h.6a9.44,9.44,0,0,1,3.85-4.37,10.36,10.36,0,0,1,5.22-1.39q7.17,0,9.56,6.78h.35c2-4.52,5.19-6.78,9.6-6.78a9.19,9.19,0,0,1,7.89,3.65q2.7,3.66,2.69,10.69v25.56Z"/><path class="cls-3" d="M596.85,322.51q0,9.63-4.08,15a14.24,14.24,0,0,1-19.13,2.9,15.68,15.68,0,0,1-5.31-7.08,28.85,28.85,0,0,1-1.86-10.81q0-9.52,4-14.89a13.26,13.26,0,0,1,11.22-5.36,13.06,13.06,0,0,1,11,5.46Q596.85,313.2,596.85,322.51Zm-20.82,0c0,4.07.45,7.16,1.34,9.24s2.32,3.13,4.29,3.13q5.63,0,5.62-12.37,0-6.15-1.35-9.2a4.53,4.53,0,0,0-8.56,0Q576,316.35,576,322.51Z"/><path class="cls-3" d="M613.72,342.86q-5.41,0-8.54-5.34t-3.13-14.87q0-9.57,3.06-15t8.43-5.41a8.05,8.05,0,0,1,4.63,1.32,11.91,11.91,0,0,1,3.6,4.44h.56q-.42-5.34-.42-7.49V287.46h9.35v54.7h-7l-1.58-5.1h-.32Q619.42,342.87,613.72,342.86Zm3-7.91a4,4,0,0,0,3.8-2.37q1.2-2.37,1.3-8.63v-1.23q0-6.83-1.21-9.6a4.12,4.12,0,0,0-4-2.78q-2.61,0-3.78,3.18a27.93,27.93,0,0,0-1.18,9.27q0,6.07,1.2,9.12T616.74,335Z"/><path class="cls-3" d="M652.74,335a10.93,10.93,0,0,0,4.26-1v7.31c-1.53,1.05-3.81,1.58-6.86,1.58q-5.1,0-7.56-3t-2.46-9.12V310.41h-3.79v-4.18l4.88-3.38,2.39-8.29h6V303h7.1v7.41h-7.1V331Q649.58,335,652.74,335Z"/><path class="cls-3" d="M681.68,342.16l-1.87-5.34h-.21a13.29,13.29,0,0,1-4.29,4.74,10.86,10.86,0,0,1-5.59,1.3,8.11,8.11,0,0,1-6.8-3.23q-2.48-3.24-2.48-9,0-6.19,3.4-9.2T674,318.11l5.2-.21v-2.81q0-5.49-4.74-5.49c-2.35,0-5,.92-8.09,2.75l-3.23-6.47a23.29,23.29,0,0,1,12.69-3.69q6.23,0,9.47,3.56t3.25,10.11v26.3Zm-8.12-6.61a4.7,4.7,0,0,0,4.09-2.3,11,11,0,0,0,1.53-6.14v-3.3l-2.88.14a6.51,6.51,0,0,0-4.69,1.83,7.1,7.1,0,0,0-1.5,4.92Q670.11,335.55,673.56,335.55Z"/><path class="cls-3" d="M724.29,303.07v5.48l-4.68,1.05a12.57,12.57,0,0,1,1.37,6.19q0,6.22-3.37,9.74t-9.42,3.52a8.77,8.77,0,0,1-2.61-.29,12.43,12.43,0,0,0-1.26,1.34,2.8,2.8,0,0,0-.6,1.83q0,2.46,4.25,2.46h5.66q5,0,7.69,2.69t2.69,8.1q0,6.82-4.57,10.55t-13.15,3.73q-6.51,0-10-2.83a9.76,9.76,0,0,1-3.52-8.07,8.86,8.86,0,0,1,2-5.75,11.27,11.27,0,0,1,5.55-3.6,6.8,6.8,0,0,1-2.93-2.18,5.46,5.46,0,0,1-1.15-3.45,6.35,6.35,0,0,1,.35-2.16,7,7,0,0,1,1-1.83,19,19,0,0,1,2.65-2.55,10,10,0,0,1-3.83-4.53,16,16,0,0,1-1.41-6.79q0-6.44,3.38-10t9.66-3.51a16.1,16.1,0,0,1,2.75.26,15.67,15.67,0,0,1,2.35.55Zm-23,44.78a4.44,4.44,0,0,0,1.46,3.57,6.23,6.23,0,0,0,4.16,1.25q4.26,0,6.39-1.62a5.26,5.26,0,0,0,2.12-4.43,3.77,3.77,0,0,0-1.14-3.12c-.76-.61-2.19-.92-4.27-.92h-4.54a3.73,3.73,0,0,0-3,1.42A6,6,0,0,0,701.26,347.85Zm2.88-32.06q0,6.93,3.9,6.93c2.54,0,3.8-2.33,3.8-7s-1.26-7.17-3.8-7.17S704.14,311,704.14,315.79Z"/><path class="cls-3" d="M743.45,342.86a14.13,14.13,0,0,1-11.59-5.22q-4.23-5.22-4.23-14.78t3.83-15.15a12.31,12.31,0,0,1,10.69-5.45,12.17,12.17,0,0,1,10.09,4.66q3.69,4.65,3.69,13.06v5H737.12c.07,3.49.78,6.09,2.14,7.78a6.82,6.82,0,0,0,5.63,2.55,18.29,18.29,0,0,0,9.35-2.84v7.7A20.6,20.6,0,0,1,743.45,342.86Zm-1.37-33.4a3.82,3.82,0,0,0-3.31,2.13,14.29,14.29,0,0,0-1.51,6.59h9.49a14.09,14.09,0,0,0-1.3-6.5A3.74,3.74,0,0,0,742.08,309.46Z"/><path class="cls-3" d="M778.81,302.26a11.09,11.09,0,0,1,3.38.52l-1.09,9.07a7.92,7.92,0,0,0-2.57-.35,6,6,0,0,0-5.24,2.69c-1.21,1.8-1.82,4.4-1.82,7.82v20.15h-9.35V303h7.69l1.06,6.11h.32a14.12,14.12,0,0,1,3.37-5.27A6.28,6.28,0,0,1,778.81,302.26Z"/><path class="cls-3" d="M814.46,342.86q-5.41,0-8.54-5.34t-3.13-14.87q0-9.57,3.06-15t8.44-5.41a8,8,0,0,1,4.62,1.32,11.91,11.91,0,0,1,3.6,4.44h.57q-.44-5.34-.43-7.49V287.46H832v54.7h-7l-1.58-5.1h-.31Q820.15,342.87,814.46,342.86Zm3-7.91a4,4,0,0,0,3.79-2.37q1.2-2.37,1.3-8.63v-1.23q0-6.83-1.21-9.6a4.12,4.12,0,0,0-4-2.78q-2.6,0-3.78,3.18a28.2,28.2,0,0,0-1.18,9.27q0,6.07,1.2,9.12T817.49,335Z"/><path class="cls-3" d="M861,342.16l-1.16-5h-.49a10,10,0,0,1-9.21,5.73q-5.26,0-8-3.58t-2.71-10.73V303H849v23.3a15.87,15.87,0,0,0,1,6.47,3.42,3.42,0,0,0,3.31,2.18,4.62,4.62,0,0,0,4.41-3c.92-2,1.39-5.4,1.39-10.16V303h9.45v39.16Z"/><path class="cls-3" d="M913.67,342.16V318.82a15.78,15.78,0,0,0-1-6.44,3.43,3.43,0,0,0-3.3-2.18,4.63,4.63,0,0,0-4.43,3q-1.41,3-1.41,10.14v18.81h-9.35V303h7.42l1.13,5h.59a9.67,9.67,0,0,1,9.14-5.76c3.57,0,6.23,1.22,8,3.65s2.66,6,2.66,10.69v25.56Z"/><path class="cls-3" d="M959.66,322.51q0,9.63-4.08,15a14.22,14.22,0,0,1-19.12,2.9,15.54,15.54,0,0,1-5.31-7.08,28.65,28.65,0,0,1-1.87-10.81q0-9.52,4.05-14.89a13.23,13.23,0,0,1,11.21-5.36,13.06,13.06,0,0,1,11,5.46Q959.66,313.2,959.66,322.51Zm-20.81,0c0,4.07.44,7.16,1.33,9.24s2.32,3.13,4.29,3.13q5.63,0,5.63-12.37c0-4.1-.46-7.17-1.36-9.2a4.53,4.53,0,0,0-8.56,0Q938.85,316.35,938.85,322.51Z"/><path class="cls-3" d="M994.43,303.07v5.48l-4.68,1.05a12.57,12.57,0,0,1,1.37,6.19q0,6.22-3.37,9.74t-9.42,3.52a8.77,8.77,0,0,1-2.61-.29,12.43,12.43,0,0,0-1.26,1.34,2.8,2.8,0,0,0-.6,1.83q0,2.46,4.26,2.46h5.66q5,0,7.68,2.69t2.69,8.1q0,6.82-4.57,10.55t-13.15,3.73q-6.51,0-10-2.83a9.76,9.76,0,0,1-3.52-8.07,8.86,8.86,0,0,1,2-5.75,11.27,11.27,0,0,1,5.55-3.6,6.8,6.8,0,0,1-2.93-2.18,5.46,5.46,0,0,1-1.15-3.45,6.35,6.35,0,0,1,.35-2.16,7,7,0,0,1,1-1.83,19,19,0,0,1,2.65-2.55,10,10,0,0,1-3.83-4.53,16,16,0,0,1-1.41-6.79q0-6.44,3.38-10t9.67-3.51a16.08,16.08,0,0,1,2.74.26,15.67,15.67,0,0,1,2.35.55Zm-23,44.78a4.44,4.44,0,0,0,1.46,3.57,6.24,6.24,0,0,0,4.17,1.25q4.25,0,6.38-1.62a5.26,5.26,0,0,0,2.12-4.43,3.77,3.77,0,0,0-1.14-3.12c-.76-.61-2.18-.92-4.27-.92h-4.54a3.73,3.73,0,0,0-3,1.42A6,6,0,0,0,971.4,347.85Zm2.88-32.06q0,6.93,3.91,6.93t3.79-7q0-7.17-3.79-7.17T974.28,315.79Z"/><path class="cls-3" d="M1013.59,342.86a14.13,14.13,0,0,1-11.59-5.22q-4.23-5.22-4.23-14.78t3.83-15.15a12.31,12.31,0,0,1,10.69-5.45,12.17,12.17,0,0,1,10.09,4.66q3.69,4.65,3.69,13.06v5h-18.81c.07,3.49.78,6.09,2.14,7.78a6.82,6.82,0,0,0,5.63,2.55,18.29,18.29,0,0,0,9.35-2.84v7.7A20.6,20.6,0,0,1,1013.59,342.86Zm-1.37-33.4a3.82,3.82,0,0,0-3.31,2.13,14.29,14.29,0,0,0-1.51,6.59h9.49a14.09,14.09,0,0,0-1.3-6.5A3.74,3.74,0,0,0,1012.22,309.46Z"/><path class="cls-3" d="M1045.86,335a11,11,0,0,0,4.26-1v7.31c-1.53,1.05-3.81,1.58-6.86,1.58q-5.1,0-7.56-3t-2.46-9.12V310.41h-3.8v-4.18l4.89-3.38,2.39-8.29h6V303h7.1v7.41h-7.1V331Q1042.7,335,1045.86,335Z"/><path class="cls-3" d="M1066.74,334.6a108.66,108.66,0,0,1-6.18,16.84h-7.14q2.28-9.35,3.55-17.65h9.28Z"/><path class="cls-3" d="M1103.13,342.86q-5.42,0-8.54-5.34t-3.13-14.87q0-9.57,3.06-15t8.44-5.41a8,8,0,0,1,4.62,1.32,11.91,11.91,0,0,1,3.6,4.44h.56q-.42-5.34-.42-7.49V287.46h9.35v54.7h-7l-1.58-5.1h-.32Q1108.82,342.87,1103.13,342.86Zm3-7.91a4,4,0,0,0,3.8-2.37q1.2-2.37,1.3-8.63v-1.23q0-6.83-1.21-9.6a4.12,4.12,0,0,0-4-2.78q-2.61,0-3.78,3.18a27.93,27.93,0,0,0-1.18,9.27q0,6.07,1.2,9.12T1106.15,335Z"/><path class="cls-3" d="M1143,342.86a14.13,14.13,0,0,1-11.59-5.22q-4.23-5.22-4.23-14.78t3.83-15.15a12.31,12.31,0,0,1,10.69-5.45,12.17,12.17,0,0,1,10.09,4.66q3.69,4.65,3.69,13.06v5h-18.81c.07,3.49.79,6.09,2.14,7.78a6.82,6.82,0,0,0,5.63,2.55,18.29,18.29,0,0,0,9.35-2.84v7.7A20.6,20.6,0,0,1,1143,342.86Zm-1.37-33.4a3.82,3.82,0,0,0-3.31,2.13,14.42,14.42,0,0,0-1.51,6.59h9.49a14.09,14.09,0,0,0-1.3-6.5A3.74,3.74,0,0,0,1141.63,309.46Z"/><path class="cls-3" d="M1178.37,302.26a11.08,11.08,0,0,1,3.37.52l-1.09,9.07a7.92,7.92,0,0,0-2.57-.35,5.94,5.94,0,0,0-5.23,2.69c-1.22,1.8-1.83,4.4-1.83,7.82v20.15h-9.35V303h7.7l1.05,6.11h.32a14.12,14.12,0,0,1,3.37-5.27A6.29,6.29,0,0,1,1178.37,302.26Z"/><path class="cls-3" d="M1218.16,342.86a14.1,14.1,0,0,1-11.58-5.22q-4.24-5.22-4.24-14.78t3.83-15.15a12.33,12.33,0,0,1,10.69-5.45,12.16,12.16,0,0,1,10.09,4.66q3.69,4.65,3.69,13.06v5h-18.81c.07,3.49.79,6.09,2.15,7.78a6.8,6.8,0,0,0,5.62,2.55,18.32,18.32,0,0,0,9.36-2.84v7.7A20.61,20.61,0,0,1,1218.16,342.86Zm-1.37-33.4a3.81,3.81,0,0,0-3.3,2.13,14.4,14.4,0,0,0-1.52,6.59h9.5a14.22,14.22,0,0,0-1.3-6.5A3.75,3.75,0,0,0,1216.79,309.46Z"/><path class="cls-3" d="M1253.53,302.26a11,11,0,0,1,3.37.52l-1.09,9.07a7.86,7.86,0,0,0-2.56-.35,6,6,0,0,0-5.24,2.69c-1.22,1.8-1.83,4.4-1.83,7.82v20.15h-9.35V303h7.7l1,6.11h.32a14.12,14.12,0,0,1,3.38-5.27A6.24,6.24,0,0,1,1253.53,302.26Z"/><path class="cls-3" d="M171.24,429.26A14.11,14.11,0,0,1,159.66,424q-4.23-5.22-4.24-14.78t3.84-15.15a12.3,12.3,0,0,1,10.68-5.45A12.16,12.16,0,0,1,180,393.32q3.69,4.65,3.69,13.06v5h-18.8q.11,5.24,2.14,7.79a6.82,6.82,0,0,0,5.63,2.54,18.32,18.32,0,0,0,9.35-2.84v7.7A20.61,20.61,0,0,1,171.24,429.26Zm-1.37-33.4a3.82,3.82,0,0,0-3.3,2.13,14.29,14.29,0,0,0-1.51,6.59h9.49a14.22,14.22,0,0,0-1.3-6.5A3.75,3.75,0,0,0,169.87,395.86Z"/><path class="cls-3" d="M209.42,428.56V405.22a15.81,15.81,0,0,0-1-6.44,3.43,3.43,0,0,0-3.3-2.18,4.63,4.63,0,0,0-4.43,3q-1.41,3-1.41,10.14v18.81h-9.35V389.4h7.42l1.13,5h.59a9.67,9.67,0,0,1,9.14-5.76c3.57,0,6.23,1.22,8,3.65s2.66,6,2.66,10.69v25.56Z"/><path class="cls-3" d="M265.22,417.1q0,5.73-3.36,8.95t-9.9,3.21a18.38,18.38,0,0,1-9.59-2.28v-8.12a17.88,17.88,0,0,0,4.51,2.21,14.33,14.33,0,0,0,4.56.88,4.7,4.7,0,0,0,3.32-1.07,3.71,3.71,0,0,0,1.14-2.83,4.56,4.56,0,0,0-1.19-3.13,20.63,20.63,0,0,0-4.4-3.27,18,18,0,0,1-6.1-5.4,12.2,12.2,0,0,1-1.84-6.76,9.85,9.85,0,0,1,3.42-7.91q3.44-2.93,9.41-2.92A18.84,18.84,0,0,1,265,391.4L262,398.11a14.27,14.27,0,0,0-6.61-2,3.54,3.54,0,0,0-2.69.94,3.26,3.26,0,0,0-.9,2.32,4.09,4.09,0,0,0,1.11,2.82,19.39,19.39,0,0,0,4.13,3.06,25.87,25.87,0,0,1,5.13,3.76,11.15,11.15,0,0,1,2.29,3.51A12.09,12.09,0,0,1,265.22,417.1Z"/><path class="cls-3" d="M310,428.56V405.22q0-8.62-4.26-8.62a4.57,4.57,0,0,0-4.43,3.08q-1.33,3.07-1.33,9.86v19h-9.43V405.22q0-8.62-4.32-8.62a4.56,4.56,0,0,0-4.39,3.06q-1.38,3.06-1.38,10.09v18.81h-9.35V389.4h7.42l1.13,5h.59a9.44,9.44,0,0,1,3.85-4.37,10.36,10.36,0,0,1,5.22-1.39c4.79,0,8,2.26,9.57,6.78h.35q3-6.78,9.6-6.78a9.2,9.2,0,0,1,7.89,3.65q2.68,3.66,2.69,10.69v25.56Z"/><path class="cls-3" d="M348.15,428.56l-1.16-5h-.49a10.16,10.16,0,0,1-3.71,4.2,10,10,0,0,1-5.5,1.53q-5.28,0-8-3.58T326.6,415V389.4h9.46v23.3a15.87,15.87,0,0,0,1,6.47,3.42,3.42,0,0,0,3.3,2.18,4.6,4.6,0,0,0,4.41-3c.93-2,1.39-5.4,1.39-10.16V389.4h9.46v39.16Z"/><path class="cls-3" d="M372.83,428.56h-9.35v-54.7h9.35Z"/><path class="cls-3" d="M395.12,429.26A14.1,14.1,0,0,1,383.54,424q-4.25-5.22-4.24-14.78t3.83-15.15a12.33,12.33,0,0,1,10.69-5.45,12.17,12.17,0,0,1,10.09,4.66q3.69,4.65,3.69,13.06v5H388.79q.1,5.24,2.15,7.79a6.8,6.8,0,0,0,5.62,2.54,18.29,18.29,0,0,0,9.35-2.84v7.7A20.6,20.6,0,0,1,395.12,429.26Zm-1.37-33.4a3.82,3.82,0,0,0-3.31,2.13,14.42,14.42,0,0,0-1.51,6.59h9.49a14.09,14.09,0,0,0-1.3-6.5A3.74,3.74,0,0,0,393.75,395.86Z"/><path class="cls-3" d="M450.77,428.56l-1.86-5.34h-.21a13.47,13.47,0,0,1-4.29,4.74,10.88,10.88,0,0,1-5.59,1.3A8.11,8.11,0,0,1,432,426c-1.66-2.16-2.48-5.16-2.48-9q0-6.19,3.39-9.2t10.14-3.32l5.21-.21v-2.81c0-3.66-1.59-5.49-4.75-5.49q-3.51,0-8.09,2.75l-3.23-6.47a23.29,23.29,0,0,1,12.69-3.69q6.23,0,9.48,3.57t3.25,10.1v26.3ZM442.65,422a4.72,4.72,0,0,0,4.1-2.3,11,11,0,0,0,1.53-6.14v-3.3l-2.89.14a6.57,6.57,0,0,0-4.69,1.83,7.1,7.1,0,0,0-1.49,4.92C439.21,420.33,440.35,422,442.65,422Z"/><path class="cls-3" d="M484.7,428.56V405.22a15.81,15.81,0,0,0-1-6.44,3.43,3.43,0,0,0-3.31-2.18,4.64,4.64,0,0,0-4.43,3q-1.4,3-1.4,10.14v18.81h-9.35V389.4h7.41l1.13,5h.6a9.67,9.67,0,0,1,9.14-5.76c3.56,0,6.23,1.22,8,3.65s2.66,6,2.66,10.69v25.56Z"/><path class="cls-3" d="M512,429.26q-5.42,0-8.54-5.34t-3.13-14.87q0-9.57,3.06-15c2-3.61,4.85-5.41,8.43-5.41a8.1,8.1,0,0,1,4.63,1.32,11.91,11.91,0,0,1,3.6,4.44h.56q-.42-5.34-.42-7.49V373.86h9.35v54.7h-7l-1.58-5.1h-.32Q517.67,429.27,512,429.26Zm3-7.91a4,4,0,0,0,3.8-2.37q1.2-2.37,1.3-8.63v-1.23q0-6.83-1.21-9.6a4.12,4.12,0,0,0-4-2.78q-2.61,0-3.78,3.18a27.93,27.93,0,0,0-1.18,9.27,26.55,26.55,0,0,0,1.19,9.12Q512.33,421.35,515,421.35Z"/><path class="cls-3" d="M551.85,429.26A14.13,14.13,0,0,1,540.26,424Q536,418.82,536,409.26t3.83-15.15a12.3,12.3,0,0,1,10.68-5.45,12.16,12.16,0,0,1,10.09,4.66q3.71,4.65,3.7,13.06v5H545.52q.11,5.24,2.14,7.79a6.84,6.84,0,0,0,5.63,2.54,18.32,18.32,0,0,0,9.35-2.84v7.7A20.6,20.6,0,0,1,551.85,429.26Zm-1.38-33.4a3.82,3.82,0,0,0-3.3,2.13,14.29,14.29,0,0,0-1.51,6.59h9.49a14.22,14.22,0,0,0-1.3-6.5A3.75,3.75,0,0,0,550.47,395.86Z"/><path class="cls-3" d="M587.21,388.66a11.09,11.09,0,0,1,3.38.52l-1.09,9.07a7.92,7.92,0,0,0-2.57-.35,6,6,0,0,0-5.24,2.69c-1.22,1.8-1.82,4.4-1.82,7.83v20.14h-9.36V389.4h7.7l1.06,6.11h.31a14.25,14.25,0,0,1,3.38-5.27A6.28,6.28,0,0,1,587.21,388.66Z"/><path class="cls-3" d="M604.12,428.56h-9.35v-54.7h9.35Z"/><path class="cls-3" d="M626.41,429.26A14.1,14.1,0,0,1,614.83,424q-4.25-5.22-4.24-14.78t3.83-15.15a12.33,12.33,0,0,1,10.69-5.45,12.16,12.16,0,0,1,10.09,4.66q3.69,4.65,3.69,13.06v5H620.08q.1,5.24,2.15,7.79a6.82,6.82,0,0,0,5.62,2.54,18.32,18.32,0,0,0,9.36-2.84v7.7A20.61,20.61,0,0,1,626.41,429.26ZM625,395.86a3.81,3.81,0,0,0-3.3,2.13,14.4,14.4,0,0,0-1.52,6.59h9.5a14.22,14.22,0,0,0-1.3-6.5A3.75,3.75,0,0,0,625,395.86Z"/><path class="cls-3" d="M655.38,429.26q-5.42,0-8.54-5.34t-3.13-14.87q0-9.57,3.06-15t8.44-5.41a8,8,0,0,1,4.62,1.32,11.91,11.91,0,0,1,3.6,4.44H664q-.42-5.34-.42-7.49V373.86h9.35v54.7h-7l-1.58-5.1h-.32Q661.08,429.27,655.38,429.26Zm3-7.91a4,4,0,0,0,3.8-2.37q1.2-2.37,1.3-8.63v-1.23q0-6.83-1.21-9.6a4.12,4.12,0,0,0-4-2.78q-2.61,0-3.78,3.18a27.93,27.93,0,0,0-1.18,9.27q0,6.07,1.2,9.12T658.4,421.35Z"/><path class="cls-3" d="M695.25,429.26A14.13,14.13,0,0,1,683.66,424q-4.23-5.22-4.23-14.78t3.83-15.15A12.31,12.31,0,0,1,694,388.66,12.17,12.17,0,0,1,704,393.32q3.69,4.65,3.69,13.06v5H688.92c.07,3.49.79,6.09,2.14,7.79a6.84,6.84,0,0,0,5.63,2.54,18.29,18.29,0,0,0,9.35-2.84v7.7A20.6,20.6,0,0,1,695.25,429.26Zm-1.37-33.4a3.82,3.82,0,0,0-3.31,2.13,14.42,14.42,0,0,0-1.51,6.59h9.49a14.09,14.09,0,0,0-1.3-6.5A3.74,3.74,0,0,0,693.88,395.86Z"/><path class="cls-3" d="M734.94,417.1q0,5.73-3.36,8.95t-9.89,3.21a18.39,18.39,0,0,1-9.6-2.28v-8.12a18,18,0,0,0,4.52,2.21,14.27,14.27,0,0,0,4.55.88,4.7,4.7,0,0,0,3.32-1.07,3.71,3.71,0,0,0,1.14-2.83,4.56,4.56,0,0,0-1.19-3.13,20.36,20.36,0,0,0-4.4-3.27,18.12,18.12,0,0,1-6.1-5.4,12.2,12.2,0,0,1-1.84-6.76,9.83,9.83,0,0,1,3.43-7.91q3.42-2.93,9.4-2.92a18.84,18.84,0,0,1,9.81,2.74l-3.06,6.71a14.27,14.27,0,0,0-6.61-2,3.55,3.55,0,0,0-2.69.94,3.26,3.26,0,0,0-.9,2.32,4.09,4.09,0,0,0,1.11,2.82,19.67,19.67,0,0,0,4.13,3.06,26.32,26.32,0,0,1,5.14,3.76,11.29,11.29,0,0,1,2.28,3.51A12.09,12.09,0,0,1,734.94,417.1Z"/><path class="cls-3" d="M773.08,429.26A14.11,14.11,0,0,1,761.5,424q-4.23-5.22-4.24-14.78t3.84-15.15a12.3,12.3,0,0,1,10.68-5.45,12.16,12.16,0,0,1,10.09,4.66q3.69,4.65,3.69,13.06v5h-18.8q.11,5.24,2.14,7.79a6.82,6.82,0,0,0,5.63,2.54,18.32,18.32,0,0,0,9.35-2.84v7.7A20.61,20.61,0,0,1,773.08,429.26Zm-1.37-33.4a3.82,3.82,0,0,0-3.3,2.13,14.29,14.29,0,0,0-1.51,6.59h9.49a14.22,14.22,0,0,0-1.3-6.5A3.75,3.75,0,0,0,771.71,395.86Z"/><path class="cls-3" d="M811.26,428.56V405.22a15.81,15.81,0,0,0-1-6.44,3.43,3.43,0,0,0-3.3-2.18,4.63,4.63,0,0,0-4.43,3q-1.41,3-1.41,10.14v18.81h-9.35V389.4h7.42l1.12,5h.6a9.67,9.67,0,0,1,9.14-5.76c3.57,0,6.23,1.22,8,3.65s2.66,6,2.66,10.69v25.56Z"/><path class="cls-3" d="M838.54,429.26q-5.4,0-8.54-5.34t-3.13-14.87q0-9.57,3.06-15t8.44-5.41A8,8,0,0,1,843,390a12,12,0,0,1,3.61,4.44h.56q-.42-5.34-.42-7.49V373.86h9.35v54.7h-7l-1.59-5.1h-.31Q844.25,429.27,838.54,429.26Zm3-7.91a4,4,0,0,0,3.8-2.37c.79-1.58,1.23-4.46,1.3-8.63v-1.23q0-6.83-1.22-9.6a4.12,4.12,0,0,0-4-2.78q-2.6,0-3.78,3.18a28.24,28.24,0,0,0-1.17,9.27c0,4.05.39,7.09,1.19,9.12S839.79,421.35,841.57,421.35Z"/><path class="cls-3" d="M892.05,429.26q-5.41,0-8.54-5.34t-3.13-14.87q0-9.57,3.06-15t8.44-5.41A8,8,0,0,1,896.5,390a11.91,11.91,0,0,1,3.6,4.44h.57q-.43-5.34-.43-7.49V373.86h9.36v54.7h-7l-1.58-5.1h-.31Q897.74,429.27,892.05,429.26Zm3-7.91a4,4,0,0,0,3.79-2.37q1.2-2.37,1.3-8.63v-1.23q0-6.83-1.21-9.6a4.12,4.12,0,0,0-4-2.78q-2.6,0-3.78,3.18a28.2,28.2,0,0,0-1.18,9.27q0,6.07,1.2,9.12C892,420.34,893.29,421.35,895.08,421.35Z"/><path class="cls-3" d="M931.92,429.26A14.1,14.1,0,0,1,920.34,424q-4.25-5.22-4.24-14.78t3.83-15.15a12.33,12.33,0,0,1,10.69-5.45,12.17,12.17,0,0,1,10.09,4.66q3.69,4.65,3.69,13.06v5H925.59q.1,5.24,2.15,7.79a6.82,6.82,0,0,0,5.62,2.54,18.26,18.26,0,0,0,9.35-2.84v7.7A20.58,20.58,0,0,1,931.92,429.26Zm-1.37-33.4a3.82,3.82,0,0,0-3.31,2.13,14.42,14.42,0,0,0-1.51,6.59h9.49a14.09,14.09,0,0,0-1.3-6.5A3.74,3.74,0,0,0,930.55,395.86Z"/><path class="cls-3" d="M964.19,421.35a10.93,10.93,0,0,0,4.26-1v7.31c-1.53,1.06-3.81,1.58-6.86,1.58q-5.1,0-7.56-3t-2.46-9.12V396.81h-3.79v-4.18l4.88-3.38,2.39-8.29h6v8.44h7.1v7.41H961v20.61Q961,421.35,964.19,421.35Z"/><path class="cls-3" d="M998,428.56,987.75,389.4h9.7l5,22.67c.21,1.06.47,2.6.76,4.62s.47,3.49.54,4.38h.14c0-.7.13-1.71.3-3s.36-2.52.55-3.62,2-9.45,5.41-25h9.71l-10.27,39.16Z"/><path class="cls-3" d="M1038.27,429.26a14.13,14.13,0,0,1-11.59-5.22q-4.23-5.22-4.23-14.78t3.83-15.15a12.31,12.31,0,0,1,10.69-5.45,12.17,12.17,0,0,1,10.09,4.66q3.69,4.65,3.69,13.06v5h-18.81q.11,5.24,2.14,7.79a6.84,6.84,0,0,0,5.63,2.54,18.29,18.29,0,0,0,9.35-2.84v7.7A20.6,20.6,0,0,1,1038.27,429.26Zm-1.37-33.4a3.82,3.82,0,0,0-3.31,2.13,14.29,14.29,0,0,0-1.51,6.59h9.49a14.09,14.09,0,0,0-1.3-6.5A3.74,3.74,0,0,0,1036.9,395.86Z"/><path class="cls-3" d="M1066.29,428.56h-9.35v-54.7h9.35Z"/><path class="cls-3" d="M1083.34,407.47l2.35-4.68,7.74-13.39h9.91l-9.91,16.06,10.58,23.1h-9.81L1087.13,412l-3.65,3.31v13.25h-9.35v-54.7h9.35v25.77l-.42,7.84Z"/><path class="cls-3" d="M1122.5,429.26a14.1,14.1,0,0,1-11.58-5.22q-4.25-5.22-4.24-14.78t3.83-15.15a12.33,12.33,0,0,1,10.69-5.45,12.16,12.16,0,0,1,10.09,4.66Q1135,398,1135,406.38v5h-18.81q.11,5.24,2.15,7.79a6.82,6.82,0,0,0,5.62,2.54,18.26,18.26,0,0,0,9.35-2.84v7.7A20.58,20.58,0,0,1,1122.5,429.26Zm-1.37-33.4a3.8,3.8,0,0,0-3.3,2.13,14.4,14.4,0,0,0-1.52,6.59h9.5a14.22,14.22,0,0,0-1.3-6.5A3.75,3.75,0,0,0,1121.13,395.86Z"/><path class="cls-3" d="M1160.68,428.56V405.22a15.81,15.81,0,0,0-1-6.44,3.43,3.43,0,0,0-3.3-2.18,4.63,4.63,0,0,0-4.43,3q-1.41,3-1.41,10.14v18.81h-9.35V389.4h7.42l1.12,5h.6a9.67,9.67,0,0,1,9.14-5.76q5.34,0,8,3.65T1170.1,403v25.56Z"/><path class="cls-3" d="M1188,429.26q-5.42,0-8.54-5.34t-3.13-14.87q0-9.57,3.06-15t8.44-5.41a8,8,0,0,1,4.62,1.32,11.91,11.91,0,0,1,3.6,4.44h.57q-.43-5.34-.43-7.49V373.86h9.36v54.7h-7l-1.58-5.1h-.31Q1193.65,429.27,1188,429.26Zm3-7.91a4,4,0,0,0,3.79-2.37q1.2-2.37,1.3-8.63v-1.23q0-6.83-1.21-9.6a4.12,4.12,0,0,0-4-2.78q-2.6,0-3.78,3.18a28.2,28.2,0,0,0-1.18,9.27q0,6.07,1.2,9.12T1191,421.35Z"/><path class="cls-3" d="M1227,421.35a10.89,10.89,0,0,0,4.25-1v7.31c-1.52,1.06-3.81,1.58-6.86,1.58q-5.09,0-7.55-3t-2.46-9.12V396.81h-3.8v-4.18l4.89-3.38,2.39-8.29h6v8.44h7.1v7.41h-7.1v20.61Q1223.82,421.35,1227,421.35Z"/><path class="cls-3" d="M1251.17,429.26a14.11,14.11,0,0,1-11.58-5.22q-4.23-5.22-4.24-14.78t3.84-15.15a12.3,12.3,0,0,1,10.68-5.45,12.16,12.16,0,0,1,10.09,4.66q3.69,4.65,3.69,13.06v5h-18.8q.11,5.24,2.14,7.79a6.82,6.82,0,0,0,5.63,2.54,18.32,18.32,0,0,0,9.35-2.84v7.7A20.61,20.61,0,0,1,1251.17,429.26Zm-1.37-33.4a3.82,3.82,0,0,0-3.3,2.13,14.29,14.29,0,0,0-1.51,6.59h9.49a14.22,14.22,0,0,0-1.3-6.5A3.75,3.75,0,0,0,1249.8,395.86Z"/><path class="cls-3" d="M398.56,503.5q0,5.73-3.35,9t-9.9,3.21a18.39,18.39,0,0,1-9.6-2.28v-8.12a18.47,18.47,0,0,0,4.52,2.21,14.27,14.27,0,0,0,4.55.88,4.73,4.73,0,0,0,3.33-1.07,3.71,3.71,0,0,0,1.14-2.83,4.53,4.53,0,0,0-1.2-3.13,20.24,20.24,0,0,0-4.39-3.27,18,18,0,0,1-6.1-5.4,12.22,12.22,0,0,1-1.85-6.77,9.88,9.88,0,0,1,3.43-7.91q3.44-2.91,9.4-2.91a18.84,18.84,0,0,1,9.81,2.74l-3.06,6.71a14.27,14.27,0,0,0-6.6-2,3.52,3.52,0,0,0-2.69.95,3.26,3.26,0,0,0-.9,2.32,4.09,4.09,0,0,0,1.11,2.82,19.39,19.39,0,0,0,4.13,3.06,25.87,25.87,0,0,1,5.13,3.76,11.15,11.15,0,0,1,2.29,3.51A12.29,12.29,0,0,1,398.56,503.5Z"/><path class="cls-3" d="M418.92,515.66a14.1,14.1,0,0,1-11.58-5.22q-4.24-5.22-4.24-14.78t3.83-15.15a12.33,12.33,0,0,1,10.69-5.45,12.19,12.19,0,0,1,10.09,4.65q3.69,4.67,3.69,13.07v5H412.59c.07,3.49.79,6.09,2.15,7.78a6.8,6.8,0,0,0,5.62,2.55,18.26,18.26,0,0,0,9.35-2.84V513A20.58,20.58,0,0,1,418.92,515.66Zm-1.37-33.4a3.82,3.82,0,0,0-3.31,2.13,14.42,14.42,0,0,0-1.51,6.59h9.49a14.09,14.09,0,0,0-1.3-6.5A3.74,3.74,0,0,0,417.55,482.26Z"/><path class="cls-3" d="M446.94,515h-9.35v-54.7h9.35Z"/><path class="cls-3" d="M472.18,483.21h-6.47V515h-9.35V483.21h-4.53v-4.67l4.53-2.82v-3q0-6.54,2.71-9.72t8.72-3.18a16,16,0,0,1,7.06,1.58l-2.46,7.14a8.21,8.21,0,0,0-3.58-.85,2.54,2.54,0,0,0-2.36,1.27,8,8,0,0,0-.74,3.9v2.88h6.47Zm3.8-17.65a5,5,0,0,1,1.35-3.67,5.11,5.11,0,0,1,3.78-1.35,5,5,0,0,1,3.66,1.35,4.94,4.94,0,0,1,1.37,3.67,4.82,4.82,0,0,1-1.41,3.71,5.07,5.07,0,0,1-3.62,1.32,5.23,5.23,0,0,1-3.73-1.32A4.85,4.85,0,0,1,476,465.56Zm9.74,49.4h-9.35V475.79h9.35Z"/><path class="cls-3" d="M508.18,515.66a14.1,14.1,0,0,1-11.58-5.22q-4.25-5.22-4.24-14.78t3.83-15.15a12.33,12.33,0,0,1,10.69-5.45A12.18,12.18,0,0,1,517,479.71q3.69,4.67,3.69,13.07v5H501.85c.07,3.49.79,6.09,2.15,7.78a6.8,6.8,0,0,0,5.62,2.55,18.26,18.26,0,0,0,9.35-2.84V513A20.58,20.58,0,0,1,508.18,515.66Zm-1.37-33.4a3.8,3.8,0,0,0-3.3,2.13A14.27,14.27,0,0,0,502,491h9.5a14.22,14.22,0,0,0-1.3-6.5A3.75,3.75,0,0,0,506.81,482.26Z"/><path class="cls-3" d="M526.78,510.14a5.88,5.88,0,0,1,1.46-4.25,5.75,5.75,0,0,1,4.34-1.51,5.2,5.2,0,0,1,5.84,5.76,5.73,5.73,0,0,1-1.53,4.26,5.91,5.91,0,0,1-4.31,1.51,5.72,5.72,0,0,1-4.32-1.53A5.82,5.82,0,0,1,526.78,510.14Z"/><path class="cls-3" d="M597.34,488.77q0,12.72-5.19,19.46T577.23,515H564.64v-51.4h13.75q9,0,14,6.63T597.34,488.77Zm-9.81.28q0-17.24-9.49-17.23h-3.83v34.77h3.09a8.29,8.29,0,0,0,7.73-4.38Q587.54,497.85,587.53,489.05Z"/><path class="cls-3" d="M625.43,515l-1.16-5h-.49a10.16,10.16,0,0,1-3.71,4.2,10.06,10.06,0,0,1-5.51,1.53q-5.26,0-8-3.58t-2.7-10.73V475.79h9.45V499.1a15.87,15.87,0,0,0,1,6.47,3.42,3.42,0,0,0,3.31,2.18,4.62,4.62,0,0,0,4.41-3c.93-2,1.39-5.4,1.39-10.16V475.79h9.46V515Z"/><path class="cls-3" d="M673,515.66a14.11,14.11,0,0,1-11.58-5.22q-4.23-5.22-4.24-14.78T661,480.51a13.23,13.23,0,0,1,20.77-.8q3.69,4.67,3.69,13.07v5h-18.8c.07,3.49.78,6.09,2.14,7.78a6.8,6.8,0,0,0,5.63,2.55,18.32,18.32,0,0,0,9.35-2.84V513A20.61,20.61,0,0,1,673,515.66Zm-1.37-33.4a3.82,3.82,0,0,0-3.3,2.13,14.29,14.29,0,0,0-1.51,6.59h9.49a14.22,14.22,0,0,0-1.3-6.5A3.75,3.75,0,0,0,671.62,482.26Z"/><path class="cls-3" d="M708.36,475.06a11.14,11.14,0,0,1,3.38.52l-1.09,9.07a8,8,0,0,0-2.57-.35,6,6,0,0,0-5.24,2.69c-1.22,1.8-1.83,4.4-1.83,7.82V515h-9.35V475.79h7.7l1.06,6.12h.31a14.12,14.12,0,0,1,3.38-5.27A6.26,6.26,0,0,1,708.36,475.06Z"/><path class="cls-3" d="M753.22,515V491.62q0-8.62-4.32-8.62-3.24,0-4.54,3.39a28.44,28.44,0,0,0-1.3,9.76V515h-9.35v-54.7h9.35v12.16q0,2.35-.42,8.4h.49q2.82-5.76,8.65-5.76c3.59,0,6.29,1.21,8.12,3.64s2.74,6,2.74,10.7V515Z"/><path class="cls-3" d="M784.65,515.66a14.1,14.1,0,0,1-11.58-5.22q-4.25-5.22-4.24-14.78t3.83-15.15a12.33,12.33,0,0,1,10.69-5.45,12.18,12.18,0,0,1,10.09,4.65q3.69,4.67,3.69,13.07v5H778.32c.07,3.49.79,6.09,2.15,7.78a6.8,6.8,0,0,0,5.62,2.55,18.26,18.26,0,0,0,9.35-2.84V513A20.58,20.58,0,0,1,784.65,515.66Zm-1.37-33.4a3.82,3.82,0,0,0-3.31,2.13,14.42,14.42,0,0,0-1.51,6.59H788a14.2,14.2,0,0,0-1.31-6.5A3.74,3.74,0,0,0,783.28,482.26Z"/><path class="cls-3" d="M812.67,515h-9.35v-54.7h9.35Z"/><path class="cls-3" d="M834.12,507.75a10.89,10.89,0,0,0,4.25-1v7.31q-2.28,1.57-6.86,1.58-5.09,0-7.55-3t-2.47-9.12V483.21H817.7V479l4.88-3.38,2.39-8.29h6v8.43h7.1v7.42H831v20.6Q831,507.76,834.12,507.75Z"/><path class="cls-3" d="M861.33,465.56a5,5,0,0,1,1.35-3.67,5.11,5.11,0,0,1,3.78-1.35,5,5,0,0,1,3.66,1.35,4.94,4.94,0,0,1,1.37,3.67,4.82,4.82,0,0,1-1.41,3.71,5.07,5.07,0,0,1-3.62,1.32,5.23,5.23,0,0,1-3.73-1.32A4.82,4.82,0,0,1,861.33,465.56Zm9.73,49.4h-9.35V475.79h9.35Z"/><path class="cls-3" d="M909.81,515.66q-7,0-10.66-5.1t-3.65-15q0-10.33,3.46-15.44t10.71-5.09a18,18,0,0,1,4.57.63,15.34,15.34,0,0,1,4.29,1.83l-2.68,7.27a10.52,10.52,0,0,0-5.16-1.72,4.47,4.47,0,0,0-4.31,3.11q-1.32,3.12-1.32,9.34t1.3,9.09a4.41,4.41,0,0,0,4.26,3,13.64,13.64,0,0,0,7.34-2.46v8.23A15.21,15.21,0,0,1,909.81,515.66Z"/><path class="cls-3" d="M943.1,515V491.62q0-8.62-4.32-8.62-3.24,0-4.54,3.39a28.44,28.44,0,0,0-1.3,9.76V515h-9.35v-54.7h9.35v12.16q0,2.35-.42,8.4H933q2.81-5.76,8.65-5.76,5.37,0,8.12,3.64t2.74,10.7V515Z"/><path class="cls-3" d="M989.08,495.31q0,9.63-4.07,15a14.24,14.24,0,0,1-19.13,2.9,15.54,15.54,0,0,1-5.31-7.08,28.85,28.85,0,0,1-1.86-10.81q0-9.53,4-14.89A13.26,13.26,0,0,1,974,475.06a13.08,13.08,0,0,1,11,5.46Q989.09,486,989.08,495.31Zm-20.81,0c0,4.07.45,7.16,1.34,9.24s2.32,3.13,4.29,3.13q5.63,0,5.62-12.37,0-6.15-1.35-9.2a4.53,4.53,0,0,0-8.56,0Q968.28,489.16,968.27,495.31Z"/><path class="cls-3" d="M1004.87,493.87l2.35-4.68,7.74-13.4h9.91L1015,491.86l10.58,23.1h-9.81l-7.06-16.56-3.66,3.31V515h-9.35v-54.7H1005V486l-.42,7.84Z"/><path class="cls-3" d="M1029.51,510.14a5.88,5.88,0,0,1,1.46-4.25,5.77,5.77,0,0,1,4.34-1.51,5.88,5.88,0,0,1,4.36,1.49,5.8,5.8,0,0,1,1.48,4.27,5.73,5.73,0,0,1-1.53,4.26,5.89,5.89,0,0,1-4.31,1.51,5.73,5.73,0,0,1-4.32-1.53A5.87,5.87,0,0,1,1029.51,510.14Zm9.71-11.74h-7.7l-1.73-34.84H1041Z"/></svg>
