<svg id="Layer_1" data-name="Layer 1" xmlns="http://www.w3.org/2000/svg" width="305" height="510" viewBox="0 0 305 510"><defs><style>.cls-1{fill:#f39323;}.cls-2{fill:#fff;}.cls-3{fill:#faccab;}.cls-4{fill:#412413;}.cls-5{fill:#ef7a8a;}.cls-6{fill:#08111d;}.cls-7{fill:#f7baab;}.cls-8,.cls-9{fill:none;stroke:#a67d52;stroke-linecap:round;stroke-width:8px;}.cls-8{stroke-linejoin:round;}.cls-9{stroke-miterlimit:10;}.cls-10{fill:#041015;}.cls-11{fill:#ef7b8b;}.cls-12{fill:#8c633a;}</style></defs><title>pige</title><path class="cls-1" d="M277,486q-8.1,4.08-16.48,7.62a278.65,278.65,0,0,1-217,0c-1.47-.61-2.93-1.25-4.38-1.9-.07-1.69-.1-3.39-.1-5.1a124.59,124.59,0,0,1,.78-14,122.67,122.67,0,0,1,6.12-27,120.69,120.69,0,0,1,7.92-18,122,122,0,0,1,19.78-27A118.21,118.21,0,0,1,128,368.52,113.83,113.83,0,0,1,140.14,366h0A116.57,116.57,0,0,1,158,364.61a118.32,118.32,0,0,1,16.29,1.13h0A117,117,0,0,1,189,368.79a118.42,118.42,0,0,1,53.4,31.82,122,122,0,0,1,19.78,27,120.69,120.69,0,0,1,7.92,18A124.95,124.95,0,0,1,277,486Z"/><path class="cls-2" d="M262.17,427.61H53.81a122,122,0,0,1,19.78-27h168.8A122,122,0,0,1,262.17,427.61Z"/><path class="cls-2" d="M276.21,472.61H39.77a122.67,122.67,0,0,1,6.12-27h224.2A122.67,122.67,0,0,1,276.21,472.61Z"/><path class="cls-2" d="M260.51,493.61a278.65,278.65,0,0,1-217,0Z"/><rect class="cls-3" x="127.99" y="316.61" width="61" height="92" rx="30.5"/><ellipse class="cls-4" cx="155.49" cy="217.11" rx="123.5" ry="121.5"/><ellipse class="cls-4" cx="159.8" cy="61.58" rx="60.87" ry="59.88"/><ellipse class="cls-3" cx="50.27" cy="242.66" rx="21.27" ry="20.62"/><ellipse class="cls-5" cx="50.17" cy="242.78" rx="11.6" ry="11.49"/><ellipse class="cls-3" cx="263.27" cy="240.66" rx="21.27" ry="20.62"/><ellipse class="cls-5" cx="263.17" cy="240.78" rx="11.6" ry="11.49"/><rect class="cls-3" x="48.02" y="102.61" width="216.97" height="264.59" rx="108.48"/><ellipse class="cls-4" cx="222.91" cy="157.64" rx="46.47" ry="81.37" transform="translate(-49.99 165.57) rotate(-36.93)"/><circle class="cls-6" cx="96.73" cy="245.86" r="8.74"/><rect class="cls-7" x="145.99" y="256.61" width="22.31" height="34" rx="11.15"/><ellipse class="cls-4" cx="99.11" cy="156.29" rx="87.14" ry="46.67" transform="translate(-83.44 125.89) rotate(-48.16)"/><ellipse class="cls-5" cx="86.59" cy="279.02" rx="11.7" ry="11.59"/><ellipse class="cls-5" cx="224.17" cy="275.78" rx="11.6" ry="11.49"/><path class="cls-8" d="M160.49,13.61c23,0,41.68,18.35,41.68,41"/><path class="cls-9" d="M210.67,104.73C255,127.61,267,157.61,272,196.61"/><path class="cls-10" d="M195.28,304.4c0,.62,0,1.25-.06,1.87,0,.31,0,.61-.07.92s-.06.62-.1.92c-.09.78-.22,1.55-.37,2.3-.07.38-.16.76-.25,1.14s-.19.74-.29,1.11a32.54,32.54,0,0,1-9.42,15.1,35.87,35.87,0,0,1-5.12,3.91c-.65.42-1.33.82-2,1.19a39.51,39.51,0,0,1-38.46-.54c-.52-.31-1-.63-1.54-1a35.87,35.87,0,0,1-4.09-3.12,32.51,32.51,0,0,1-10-15.58l-.3-1.11c-.09-.38-.17-.76-.25-1.14s-.14-.76-.2-1.14-.12-.77-.17-1.16h0a30.42,30.42,0,0,1-.22-3.71,28.53,28.53,0,0,1,.2-3.48h72.47A30.69,30.69,0,0,1,195.28,304.4Z"/><path class="cls-11" d="M179.6,331.67c-.65.42-1.33.82-2,1.19a39.51,39.51,0,0,1-38.46-.54c-.52-.31-1-.63-1.54-1,5.6-7.94,12.9-12.75,20.9-12.75S174,323.54,179.6,331.67Z"/><path class="cls-2" d="M195.28,304.4a30.41,30.41,0,0,1-.23,3.71,30,30,0,0,1-.91,4.55H123.55a30.06,30.06,0,0,1-.92-4.55,30.42,30.42,0,0,1-.22-3.71,28.53,28.53,0,0,1,.2-3.48h72.47A30.69,30.69,0,0,1,195.28,304.4Z"/><ellipse class="cls-12" cx="90.25" cy="223.63" rx="18.5" ry="7" transform="translate(-34.89 17.48) rotate(-9.28)"/><ellipse class="cls-12" cx="218.71" cy="223.79" rx="7.17" ry="18.5" transform="translate(-37.43 403.54) rotate(-80.72)"/><circle class="cls-6" cx="217.73" cy="245.86" r="8.74"/></svg>
