<svg id="Layer_1" data-name="Layer 1" xmlns="http://www.w3.org/2000/svg" width="1457" height="1194" viewBox="0 0 1457 1194"><defs><style>.cls-1{opacity:0.5;}.cls-2{fill:#706d6c;}.cls-3{fill:#fff;}</style></defs><title>pige1bh</title><g class="cls-1"><path class="cls-2" d="M239.52,1153.5a153.47,153.47,0,0,1-153-153v-770a153.47,153.47,0,0,1,153-153h992a153.47,153.47,0,0,1,153,153v770a153.47,153.47,0,0,1-153,153Z"/><path class="cls-3" d="M1231.48,78a150.73,150.73,0,0,1,59.22,12A154,154,0,0,1,1372,171.3a150.73,150.73,0,0,1,12,59.22v770a150.73,150.73,0,0,1-12,59.22A154,154,0,0,1,1290.7,1141a150.73,150.73,0,0,1-59.22,12h-992a150.73,150.73,0,0,1-59.22-12A154,154,0,0,1,99,1059.7a150.73,150.73,0,0,1-12-59.22v-770A150.73,150.73,0,0,1,99,171.3,154,154,0,0,1,180.3,90a150.73,150.73,0,0,1,59.22-12h992m0-1h-992C155.09,77,86,146.09,86,230.52v770C86,1084.91,155.09,1154,239.52,1154h992c84.44,0,153.52-69.09,153.52-153.52v-770C1385,146.09,1315.92,77,1231.48,77Z"/></g><path class="cls-3" d="M277,265.16q0,12.73-5.19,19.46t-14.92,6.74H244.3V240h13.75q9,0,13.95,6.62T277,265.16Zm-9.81.29q0-17.23-9.49-17.23h-3.84V283H257a8.29,8.29,0,0,0,7.73-4.38Q267.2,274.23,267.19,265.45Z"/><path class="cls-3" d="M305.09,291.36l-1.16-5h-.5a10,10,0,0,1-9.21,5.73q-5.27,0-8-3.59t-2.7-10.72V252.19H293V275.5a15.87,15.87,0,0,0,1,6.47,3.43,3.43,0,0,0,3.31,2.18,4.61,4.61,0,0,0,4.41-3c.92-2,1.39-5.4,1.39-10.16V252.19h9.45v39.17Z"/><path class="cls-3" d="M377.09,291.36V268q0-8.61-4.26-8.61a4.56,4.56,0,0,0-4.43,3.07c-.89,2.06-1.33,5.34-1.33,9.87v19h-9.43V268q0-8.61-4.32-8.61a4.56,4.56,0,0,0-4.39,3.06q-1.38,3.06-1.38,10.09v18.81H338.2V252.19h7.42l1.13,5h.59a9.52,9.52,0,0,1,3.85-4.38,10.46,10.46,0,0,1,5.22-1.39c4.79,0,8,2.26,9.57,6.79h.35q3-6.8,9.6-6.79a9.18,9.18,0,0,1,7.89,3.66q2.69,3.66,2.69,10.69v25.56Z"/><path class="cls-3" d="M423.07,271.7q0,9.63-4.08,15a14.22,14.22,0,0,1-19.12,2.9,15.52,15.52,0,0,1-5.31-7.09,28.82,28.82,0,0,1-1.86-10.81q0-9.52,4-14.89A13.25,13.25,0,0,1,408,251.45a13.07,13.07,0,0,1,11,5.47Q423.08,262.38,423.07,271.7Zm-20.81,0q0,6.12,1.33,9.25t4.29,3.13q5.63,0,5.63-12.38,0-6.15-1.36-9.19a4.53,4.53,0,0,0-8.56,0Q402.26,265.56,402.26,271.7Z"/><path class="cls-3" d="M440,292.06q-5.42,0-8.55-5.35t-3.13-14.87q0-9.55,3.06-15t8.44-5.42a8,8,0,0,1,4.62,1.32,12.07,12.07,0,0,1,3.61,4.45h.56q-.42-5.34-.42-7.49V236.65h9.35v54.71h-7l-1.58-5.1h-.32Q445.65,292.05,440,292.06Zm3-7.91a4,4,0,0,0,3.8-2.37c.79-1.59,1.23-4.46,1.3-8.64v-1.23q0-6.81-1.22-9.59a4.11,4.11,0,0,0-4-2.78q-2.6,0-3.78,3.18a28.18,28.18,0,0,0-1.17,9.26c0,4.06.39,7.1,1.19,9.13S441.19,284.15,443,284.15Z"/><path class="cls-3" d="M479,284.15a10.74,10.74,0,0,0,4.25-1v7.32c-1.52,1-3.81,1.58-6.85,1.58-3.4,0-5.92-1-7.56-3s-2.46-5.07-2.46-9.13V259.61h-3.8v-4.18l4.89-3.38,2.39-8.3h6v8.44h7.11v7.42H475.8v20.6Q475.8,284.15,479,284.15Z"/><path class="cls-3" d="M507.9,291.36,506,286h-.21a13.24,13.24,0,0,1-4.29,4.75,11,11,0,0,1-5.59,1.3,8.09,8.09,0,0,1-6.8-3.24c-1.66-2.15-2.48-5.15-2.48-9q0-6.18,3.39-9.19t10.14-3.32l5.21-.21v-2.81c0-3.66-1.59-5.49-4.75-5.49q-3.51,0-8.09,2.74l-3.23-6.47A23.29,23.29,0,0,1,502,251.38q6.23,0,9.48,3.57t3.25,10.11v26.3Zm-8.12-6.61a4.71,4.71,0,0,0,4.1-2.31,10.91,10.91,0,0,0,1.53-6.13V273l-2.89.14a6.57,6.57,0,0,0-4.69,1.83,7.1,7.1,0,0,0-1.49,4.92C496.34,283.13,497.48,284.75,499.78,284.75Z"/><path class="cls-3" d="M550.51,252.26v5.49l-4.67,1.05a12.63,12.63,0,0,1,1.37,6.19q0,6.22-3.38,9.74t-9.42,3.51a8.76,8.76,0,0,1-2.6-.28,10.83,10.83,0,0,0-1.27,1.34,2.78,2.78,0,0,0-.59,1.82c0,1.65,1.41,2.47,4.25,2.47h5.66c3.33,0,5.89.89,7.68,2.69s2.69,4.49,2.69,8.1q0,6.83-4.57,10.55t-13.15,3.72q-6.5,0-10-2.83a9.75,9.75,0,0,1-3.51-8.07,8.82,8.82,0,0,1,2-5.74,11.29,11.29,0,0,1,5.56-3.61,6.7,6.7,0,0,1-2.94-2.18,5.46,5.46,0,0,1-1.14-3.44,6.12,6.12,0,0,1,.35-2.16,6.82,6.82,0,0,1,1-1.83,18.4,18.4,0,0,1,2.65-2.55,10.09,10.09,0,0,1-3.83-4.54,16.16,16.16,0,0,1-1.4-6.78q0-6.44,3.37-10t9.67-3.52a16.09,16.09,0,0,1,2.74.27,14.87,14.87,0,0,1,2.36.54Zm-23,44.79a4.44,4.44,0,0,0,1.46,3.57,6.25,6.25,0,0,0,4.17,1.25c2.84,0,5-.54,6.38-1.62a5.26,5.26,0,0,0,2.13-4.43,3.77,3.77,0,0,0-1.15-3.13c-.76-.61-2.18-.91-4.27-.91h-4.53a3.69,3.69,0,0,0-3,1.42A6,6,0,0,0,527.48,297.05ZM530.37,265c0,4.62,1.3,6.92,3.9,6.92s3.8-2.33,3.8-7-1.27-7.17-3.8-7.17S530.37,260.16,530.37,265Z"/><path class="cls-3" d="M569.67,292.06a14.1,14.1,0,0,1-11.58-5.22q-4.25-5.22-4.24-14.79t3.83-15.15a12.35,12.35,0,0,1,10.69-5.45,12.19,12.19,0,0,1,10.09,4.66q3.69,4.67,3.69,13.06v5H563.34c.07,3.5.79,6.09,2.15,7.79a6.8,6.8,0,0,0,5.62,2.55,18.18,18.18,0,0,0,9.35-2.85v7.7A20.48,20.48,0,0,1,569.67,292.06Zm-1.37-33.4a3.8,3.8,0,0,0-3.3,2.13,14.24,14.24,0,0,0-1.52,6.59H573a14.26,14.26,0,0,0-1.3-6.51A3.76,3.76,0,0,0,568.3,258.66Z"/><path class="cls-3" d="M605,251.45a11,11,0,0,1,3.37.53l-1.09,9.07a7.86,7.86,0,0,0-2.56-.35,6,6,0,0,0-5.24,2.69q-1.83,2.69-1.83,7.82v20.15h-9.35V252.19H596l1.05,6.12h.32a14.12,14.12,0,0,1,3.38-5.27A6.25,6.25,0,0,1,605,251.45Z"/><path class="cls-3" d="M644.84,292.06a14.13,14.13,0,0,1-11.59-5.22Q629,281.62,629,272.05t3.83-15.15a12.33,12.33,0,0,1,10.69-5.45,12.18,12.18,0,0,1,10.08,4.66q3.71,4.67,3.7,13.06v5H638.51c.07,3.5.78,6.09,2.14,7.79a6.82,6.82,0,0,0,5.63,2.55,18.24,18.24,0,0,0,9.35-2.85v7.7A20.51,20.51,0,0,1,644.84,292.06Zm-1.38-33.4a3.82,3.82,0,0,0-3.3,2.13c-.87,1.42-1.37,3.61-1.51,6.59h9.49a14.26,14.26,0,0,0-1.3-6.51A3.76,3.76,0,0,0,643.46,258.66Z"/><path class="cls-3" d="M683,291.36V268a15.75,15.75,0,0,0-1-6.43,3.43,3.43,0,0,0-3.31-2.18,4.65,4.65,0,0,0-4.43,3c-.94,2-1.4,5.39-1.4,10.15v18.81H663.5V252.19h7.42l1.13,5h.59a9.69,9.69,0,0,1,9.15-5.77q5.34,0,8,3.66t2.66,10.69v25.56Z"/><path class="cls-3" d="M738.81,279.89q0,5.73-3.36,8.95t-9.9,3.22a18.28,18.28,0,0,1-9.59-2.29v-8.12a18.41,18.41,0,0,0,4.51,2.22,14.61,14.61,0,0,0,4.56.88,4.66,4.66,0,0,0,3.32-1.08,3.68,3.68,0,0,0,1.14-2.83,4.6,4.6,0,0,0-1.19-3.13,20.07,20.07,0,0,0-4.4-3.26,18.12,18.12,0,0,1-6.1-5.4,12.23,12.23,0,0,1-1.84-6.77,9.86,9.86,0,0,1,3.42-7.91q3.43-2.91,9.41-2.92a18.85,18.85,0,0,1,9.81,2.75l-3.06,6.71a14.3,14.3,0,0,0-6.61-2,3.54,3.54,0,0,0-2.69.95,3.25,3.25,0,0,0-.9,2.32,4.06,4.06,0,0,0,1.11,2.81,19.67,19.67,0,0,0,4.13,3.06,26.28,26.28,0,0,1,5.13,3.76,11.19,11.19,0,0,1,2.29,3.52A12,12,0,0,1,738.81,279.89Z"/><path class="cls-3" d="M764.23,291.36V268a15.75,15.75,0,0,0-1-6.43,3.42,3.42,0,0,0-3.31-2.18,4.65,4.65,0,0,0-4.43,3q-1.4,3-1.4,10.15v18.81h-9.36V252.19h7.42l1.13,5h.6a9.66,9.66,0,0,1,9.14-5.77q5.34,0,8,3.66t2.66,10.69v25.56Z"/><path class="cls-3" d="M800.4,291.36,798.54,286h-.21a13.24,13.24,0,0,1-4.29,4.75,11,11,0,0,1-5.59,1.3,8.09,8.09,0,0,1-6.8-3.24c-1.66-2.15-2.48-5.15-2.48-9q0-6.18,3.39-9.19t10.14-3.32l5.21-.21v-2.81c0-3.66-1.59-5.49-4.75-5.49q-3.51,0-8.09,2.74l-3.23-6.47a23.29,23.29,0,0,1,12.69-3.69q6.22,0,9.48,3.57t3.25,10.11v26.3Zm-8.12-6.61a4.71,4.71,0,0,0,4.1-2.31,10.91,10.91,0,0,0,1.53-6.13V273l-2.89.14a6.57,6.57,0,0,0-4.69,1.83,7.1,7.1,0,0,0-1.49,4.92C788.84,283.13,790,284.75,792.28,284.75Z"/><path class="cls-3" d="M832.29,292.06a8.7,8.7,0,0,1-4.48-1.14,10.93,10.93,0,0,1-3.64-4h-.49q.55,4.78.56,5.77v16h-9.42V252.19h7.24l1.62,5.1h.42q2.91-5.84,8.47-5.84,5.34,0,8.37,5.29t3,15q0,9.53-3.13,14.94T832.29,292.06Zm-2.88-32.66a4.1,4.1,0,0,0-4,2.55c-.81,1.7-1.24,4.51-1.28,8.45v1.23q0,6.48,1.23,9.42a4.21,4.21,0,0,0,4.08,3q4.92,0,4.92-12.45c0-4.08-.41-7.12-1.21-9.14S831.12,259.4,829.41,259.4Z"/><path class="cls-3" d="M885.73,259.61h-6.47v31.75h-9.35V259.61h-4.54v-4.68l4.54-2.81v-3q0-6.54,2.7-9.72c1.81-2.12,4.71-3.18,8.72-3.18a16,16,0,0,1,7.07,1.58L885.94,245a8.24,8.24,0,0,0-3.59-.84,2.5,2.5,0,0,0-2.35,1.27,7.87,7.87,0,0,0-.74,3.9v2.88h6.47Z"/><path class="cls-3" d="M906.54,251.45a11,11,0,0,1,3.37.53l-1.09,9.07a7.86,7.86,0,0,0-2.56-.35,6,6,0,0,0-5.24,2.69q-1.83,2.69-1.83,7.82v20.15h-9.35V252.19h7.7l1.05,6.12h.32a14.12,14.12,0,0,1,3.38-5.27A6.25,6.25,0,0,1,906.54,251.45Z"/><path class="cls-3" d="M933.29,291.36,931.43,286h-.21a13.24,13.24,0,0,1-4.29,4.75,11,11,0,0,1-5.59,1.3,8.09,8.09,0,0,1-6.8-3.24c-1.66-2.15-2.48-5.15-2.48-9q0-6.18,3.39-9.19t10.14-3.32l5.21-.21v-2.81c0-3.66-1.59-5.49-4.75-5.49q-3.51,0-8.09,2.74l-3.23-6.47a23.29,23.29,0,0,1,12.69-3.69q6.23,0,9.48,3.57t3.25,10.11v26.3Zm-8.12-6.61a4.71,4.71,0,0,0,4.1-2.31,10.91,10.91,0,0,0,1.53-6.13V273l-2.89.14a6.57,6.57,0,0,0-4.69,1.83,7.1,7.1,0,0,0-1.49,4.92Q921.73,284.75,925.17,284.75Z"/><path class="cls-3" d="M984.69,291.36,982.83,286h-.21a13.43,13.43,0,0,1-4.29,4.75,11,11,0,0,1-5.59,1.3,8.09,8.09,0,0,1-6.8-3.24c-1.66-2.15-2.48-5.15-2.48-9q0-6.18,3.39-9.19T977,267.31l5.21-.21v-2.81c0-3.66-1.59-5.49-4.75-5.49q-3.51,0-8.09,2.74l-3.23-6.47a23.29,23.29,0,0,1,12.69-3.69q6.23,0,9.47,3.57t3.26,10.11v26.3Zm-8.12-6.61a4.71,4.71,0,0,0,4.1-2.31,10.91,10.91,0,0,0,1.53-6.13V273l-2.89.14a6.57,6.57,0,0,0-4.69,1.83,7.1,7.1,0,0,0-1.5,4.92Q973.12,284.75,976.57,284.75Z"/><path class="cls-3" d="M1015.8,251.45a11.1,11.1,0,0,1,3.38.53l-1.09,9.07a7.92,7.92,0,0,0-2.57-.35,5.94,5.94,0,0,0-5.23,2.69q-1.83,2.69-1.83,7.82v20.15h-9.35V252.19h7.69l1.06,6.12h.32a14.12,14.12,0,0,1,3.37-5.27A6.29,6.29,0,0,1,1015.8,251.45Z"/><path class="cls-3" d="M1040.06,251.45a11.1,11.1,0,0,1,3.38.53l-1.09,9.07a7.92,7.92,0,0,0-2.57-.35,6,6,0,0,0-5.24,2.69q-1.83,2.69-1.83,7.82v20.15h-9.35V252.19h7.7l1.06,6.12h.31a14.12,14.12,0,0,1,3.38-5.27A6.29,6.29,0,0,1,1040.06,251.45Z"/><path class="cls-3" d="M1076.62,271.7q0,9.63-4.07,15a14.24,14.24,0,0,1-19.13,2.9,15.59,15.59,0,0,1-5.31-7.09,28.82,28.82,0,0,1-1.86-10.81q0-9.52,4-14.89a13.28,13.28,0,0,1,11.22-5.36,13.08,13.08,0,0,1,11,5.47Q1076.63,262.38,1076.62,271.7Zm-20.81,0q0,6.12,1.34,9.25t4.29,3.13q5.63,0,5.62-12.38,0-6.15-1.35-9.19a4.53,4.53,0,0,0-8.56,0Q1055.82,265.56,1055.81,271.7Z"/><path class="cls-3" d="M1111.39,252.26v5.49l-4.67,1.05a12.63,12.63,0,0,1,1.37,6.19q0,6.22-3.38,9.74t-9.42,3.51a8.76,8.76,0,0,1-2.6-.28,10.76,10.76,0,0,0-1.26,1.34,2.79,2.79,0,0,0-.6,1.82q0,2.47,4.25,2.47h5.66c3.33,0,5.89.89,7.68,2.69s2.69,4.49,2.69,8.1q0,6.83-4.57,10.55t-13.15,3.72q-6.5,0-10-2.83a9.73,9.73,0,0,1-3.52-8.07,8.88,8.88,0,0,1,2-5.74,11.29,11.29,0,0,1,5.56-3.61,6.7,6.7,0,0,1-2.94-2.18,5.46,5.46,0,0,1-1.14-3.44,6.35,6.35,0,0,1,.35-2.16,7.11,7.11,0,0,1,1-1.83,18.63,18.63,0,0,1,2.66-2.55,10,10,0,0,1-3.83-4.54,16,16,0,0,1-1.41-6.78q0-6.44,3.37-10t9.67-3.52a16.09,16.09,0,0,1,2.74.27,14.6,14.6,0,0,1,2.36.54Zm-23,44.79a4.41,4.41,0,0,0,1.46,3.57,6.23,6.23,0,0,0,4.16,1.25q4.26,0,6.38-1.62a5.26,5.26,0,0,0,2.13-4.43,3.79,3.79,0,0,0-1.14-3.13c-.76-.61-2.19-.91-4.27-.91h-4.54a3.7,3.7,0,0,0-3,1.42A6,6,0,0,0,1088.37,297.05Zm2.88-32.06c0,4.62,1.3,6.92,3.9,6.92s3.8-2.33,3.8-7-1.27-7.17-3.8-7.17S1091.25,260.16,1091.25,265Z"/><path class="cls-3" d="M1135.3,291.36l-1.86-5.35h-.21a13.43,13.43,0,0,1-4.29,4.75,11,11,0,0,1-5.59,1.3,8.11,8.11,0,0,1-6.81-3.24q-2.47-3.22-2.47-9,0-6.18,3.39-9.19t10.14-3.32l5.2-.21v-2.81q0-5.49-4.74-5.49c-2.35,0-5,.91-8.09,2.74l-3.23-6.47a23.29,23.29,0,0,1,12.69-3.69q6.22,0,9.47,3.57t3.26,10.11v26.3Zm-8.12-6.61a4.71,4.71,0,0,0,4.1-2.31,11,11,0,0,0,1.52-6.13V273l-2.88.14a6.55,6.55,0,0,0-4.69,1.83,7.1,7.1,0,0,0-1.5,4.92Q1123.73,284.75,1127.18,284.75Z"/><path class="cls-3" d="M1169.23,291.36V268a15.75,15.75,0,0,0-1-6.43,3.42,3.42,0,0,0-3.31-2.18,4.65,4.65,0,0,0-4.43,3q-1.4,3-1.4,10.15v18.81h-9.36V252.19h7.42l1.13,5h.6a9.66,9.66,0,0,1,9.14-5.77q5.34,0,8,3.66t2.66,10.69v25.56Z"/><path class="cls-3" d="M1199.81,284.15a10.82,10.82,0,0,0,4.26-1v7.32c-1.53,1-3.81,1.58-6.86,1.58-3.4,0-5.92-1-7.56-3s-2.46-5.07-2.46-9.13V259.61h-3.8v-4.18l4.89-3.38,2.39-8.3h6v8.44h7.1v7.42h-7.1v20.6Q1196.65,284.15,1199.81,284.15Z"/><path class="cls-3" d="M1224,292.06a14.1,14.1,0,0,1-11.58-5.22q-4.25-5.22-4.24-14.79T1212,256.9a12.35,12.35,0,0,1,10.69-5.45,12.2,12.2,0,0,1,10.09,4.66q3.69,4.67,3.69,13.06v5h-18.81c.07,3.5.79,6.09,2.15,7.79a6.8,6.8,0,0,0,5.62,2.55,18.18,18.18,0,0,0,9.35-2.85v7.7A20.48,20.48,0,0,1,1224,292.06Zm-1.37-33.4a3.82,3.82,0,0,0-3.31,2.13,14.38,14.38,0,0,0-1.51,6.59h9.49a14.13,14.13,0,0,0-1.3-6.51A3.75,3.75,0,0,0,1222.63,258.66Z"/><path class="cls-3" d="M194.42,363.59q0,7.2-3.64,11t-10.49,3.83a23.05,23.05,0,0,1-11.43-2.64v-9.45c3.85,2.5,7.37,3.76,10.59,3.76a5.38,5.38,0,0,0,4.13-1.51A5.88,5.88,0,0,0,185,364.5a7.48,7.48,0,0,0-1.65-4.69,24.38,24.38,0,0,0-5.45-4.73,24.18,24.18,0,0,1-5-4.38,15.88,15.88,0,0,1-2.63-4.69,17.93,17.93,0,0,1-.93-6.05c0-4.4,1.22-7.9,3.67-10.47a13,13,0,0,1,9.86-3.87,21.64,21.64,0,0,1,11.36,3.3L191,336.59a29.77,29.77,0,0,0-3.53-1.76,10.06,10.06,0,0,0-4-.77,4.33,4.33,0,0,0-3.56,1.53,6.33,6.33,0,0,0-1.25,4.16,7.24,7.24,0,0,0,1.49,4.54,22.28,22.28,0,0,0,5.22,4.39,21.85,21.85,0,0,1,7,6.89A16.08,16.08,0,0,1,194.42,363.59Z"/><path class="cls-3" d="M229.19,358.1q0,9.64-4.08,15A14.22,14.22,0,0,1,206,376a15.52,15.52,0,0,1-5.31-7.09,28.82,28.82,0,0,1-1.86-10.81q0-9.53,4-14.89a13.25,13.25,0,0,1,11.21-5.36,13.09,13.09,0,0,1,11,5.47Q229.2,348.78,229.19,358.1Zm-20.81,0q0,6.12,1.33,9.25t4.29,3.13q5.63,0,5.63-12.38,0-6.15-1.35-9.19a4.54,4.54,0,0,0-8.57,0Q208.38,352,208.38,358.1Z"/><path class="cls-3" d="M253.17,346H246.7v31.75h-9.35V346h-4.54v-4.68l4.54-2.81v-2.95q0-6.54,2.7-9.72t8.72-3.18a16,16,0,0,1,7.07,1.58l-2.46,7.13a8.24,8.24,0,0,0-3.59-.84,2.5,2.5,0,0,0-2.35,1.27,8,8,0,0,0-.74,3.9v2.88h6.47ZM257,328.36a5,5,0,0,1,1.36-3.67,5.11,5.11,0,0,1,3.78-1.36,5,5,0,0,1,3.65,1.36,4.89,4.89,0,0,1,1.37,3.67,4.82,4.82,0,0,1-1.4,3.71,5.09,5.09,0,0,1-3.62,1.32,5.23,5.23,0,0,1-3.73-1.32A4.82,4.82,0,0,1,257,328.36Zm9.74,49.4h-9.35V338.59h9.35Z"/><path class="cls-3" d="M289.17,378.46a14.13,14.13,0,0,1-11.59-5.22q-4.23-5.22-4.23-14.78t3.83-15.16a12.34,12.34,0,0,1,10.69-5.45A12.2,12.2,0,0,1,298,342.51q3.69,4.67,3.69,13.06v5H282.84c.07,3.5.78,6.09,2.14,7.79a6.82,6.82,0,0,0,5.63,2.55,18.21,18.21,0,0,0,9.35-2.85v7.7A20.51,20.51,0,0,1,289.17,378.46Zm-1.37-33.4a3.82,3.82,0,0,0-3.31,2.13c-.87,1.42-1.37,3.61-1.51,6.59h9.49a14.06,14.06,0,0,0-1.3-6.5A3.74,3.74,0,0,0,287.8,345.06Z"/><path class="cls-3" d="M307.77,372.94a5.86,5.86,0,0,1,1.45-4.25,5.78,5.78,0,0,1,4.35-1.52,5.2,5.2,0,0,1,5.83,5.77,5.69,5.69,0,0,1-1.53,4.25,5.84,5.84,0,0,1-4.3,1.52,5.76,5.76,0,0,1-4.33-1.53A5.88,5.88,0,0,1,307.77,372.94Z"/><path class="cls-3" d="M377.38,377.76h-9.57V355.22H355.19v22.54h-9.56v-51.4h9.56v20.42h12.62V326.36h9.57Z"/><path class="cls-3" d="M407.05,377.76l-1.16-5h-.5a9.93,9.93,0,0,1-9.21,5.73q-5.26,0-8-3.59t-2.7-10.72V338.59H395V361.9a15.87,15.87,0,0,0,1,6.47,3.43,3.43,0,0,0,3.31,2.18,4.62,4.62,0,0,0,4.41-3q1.4-3,1.39-10.16V338.59h9.46v39.17Z"/><path class="cls-3" d="M441.89,377.76V354.41a15.75,15.75,0,0,0-1-6.43,3.43,3.43,0,0,0-3.31-2.18,4.65,4.65,0,0,0-4.43,3q-1.39,3-1.4,10.15v18.81h-9.35V338.59h7.41l1.13,5h.6a9.66,9.66,0,0,1,9.14-5.77q5.34,0,8,3.66t2.66,10.69v25.56Z"/><path class="cls-3" d="M491.11,378.46a14.13,14.13,0,0,1-11.59-5.22q-4.23-5.22-4.23-14.78t3.83-15.16a12.32,12.32,0,0,1,10.68-5.45,12.19,12.19,0,0,1,10.09,4.66q3.71,4.67,3.7,13.06v5H484.78c.07,3.5.78,6.09,2.14,7.79a6.82,6.82,0,0,0,5.63,2.55,18.24,18.24,0,0,0,9.35-2.85v7.7A20.51,20.51,0,0,1,491.11,378.46Zm-1.38-33.4a3.82,3.82,0,0,0-3.3,2.13c-.87,1.42-1.37,3.61-1.51,6.59h9.49a14.18,14.18,0,0,0-1.3-6.5A3.75,3.75,0,0,0,489.73,345.06Z"/><path class="cls-3" d="M526.47,337.85a11.1,11.1,0,0,1,3.38.53l-1.09,9.07a7.92,7.92,0,0,0-2.57-.35,6,6,0,0,0-5.24,2.69q-1.83,2.68-1.83,7.82v20.15h-9.35V338.59h7.7l1.06,6.12h.31a14.25,14.25,0,0,1,3.38-5.27A6.29,6.29,0,0,1,526.47,337.85Z"/><path class="cls-3" d="M558.08,377.76l-10.23-39.17h9.7l5,22.68c.21,1.05.47,2.59.76,4.62s.47,3.49.54,4.38H564c0-.71.13-1.71.3-3s.36-2.52.55-3.62,2-9.44,5.41-25H580l-10.27,39.17Z"/><path class="cls-3" d="M583.6,328.36a4.92,4.92,0,0,1,1.36-3.67,5.11,5.11,0,0,1,3.77-1.36,5,5,0,0,1,3.66,1.36,4.93,4.93,0,0,1,1.37,3.67,4.85,4.85,0,0,1-1.4,3.71,5.1,5.1,0,0,1-3.63,1.32,5.22,5.22,0,0,1-3.72-1.32A4.82,4.82,0,0,1,583.6,328.36Zm9.74,49.4H584V338.59h9.35Z"/><path class="cls-3" d="M618.05,337.85a11.1,11.1,0,0,1,3.38.53l-1.09,9.07a7.92,7.92,0,0,0-2.57-.35,5.94,5.94,0,0,0-5.23,2.69q-1.83,2.68-1.83,7.82v20.15h-9.35V338.59h7.69l1.06,6.12h.32a14.12,14.12,0,0,1,3.37-5.27A6.29,6.29,0,0,1,618.05,337.85Z"/><path class="cls-3" d="M634.82,356.66l2.36-4.67,7.73-13.4h9.92l-9.92,16.07,10.59,23.1h-9.81l-7.07-16.56L635,364.5v13.26h-9.35V323.05H635v25.77l-.42,7.84Z"/><path class="cls-3" d="M674,378.46a14.13,14.13,0,0,1-11.59-5.22q-4.23-5.22-4.23-14.78T662,343.3a12.34,12.34,0,0,1,10.69-5.45,12.2,12.2,0,0,1,10.09,4.66q3.69,4.67,3.69,13.06v5H667.66c.07,3.5.79,6.09,2.14,7.79a6.82,6.82,0,0,0,5.63,2.55,18.21,18.21,0,0,0,9.35-2.85v7.7A20.51,20.51,0,0,1,674,378.46Zm-1.37-33.4a3.82,3.82,0,0,0-3.31,2.13,14.38,14.38,0,0,0-1.51,6.59h9.49a14.06,14.06,0,0,0-1.3-6.5A3.74,3.74,0,0,0,672.62,345.06Z"/><path class="cls-3" d="M702,377.76h-9.35V323.05H702Z"/><path class="cls-3" d="M709.53,328.36a5,5,0,0,1,1.35-3.67,5.15,5.15,0,0,1,3.78-1.36,5,5,0,0,1,3.66,1.36,4.93,4.93,0,0,1,1.37,3.67,4.85,4.85,0,0,1-1.4,3.71,5.1,5.1,0,0,1-3.63,1.32,5.22,5.22,0,0,1-3.72-1.32A4.82,4.82,0,0,1,709.53,328.36Zm9.74,49.4h-9.35V338.59h9.35Z"/><path class="cls-3" d="M755.48,338.66v5.49l-4.68,1.05a12.52,12.52,0,0,1,1.38,6.19q0,6.23-3.38,9.74t-9.42,3.51a8.76,8.76,0,0,1-2.6-.28,11.59,11.59,0,0,0-1.27,1.34,2.8,2.8,0,0,0-.6,1.83q0,2.46,4.26,2.46h5.66c3.33,0,5.89.89,7.68,2.69s2.69,4.49,2.69,8.1q0,6.83-4.57,10.55t-13.15,3.72q-6.51,0-10-2.83a9.75,9.75,0,0,1-3.51-8.07,8.82,8.82,0,0,1,2-5.74,11.31,11.31,0,0,1,5.55-3.61,6.72,6.72,0,0,1-2.93-2.18,5.46,5.46,0,0,1-1.14-3.44,6.12,6.12,0,0,1,.35-2.16,6.82,6.82,0,0,1,1-1.83,18.4,18.4,0,0,1,2.65-2.55,10.09,10.09,0,0,1-3.83-4.54,16,16,0,0,1-1.4-6.78q0-6.44,3.37-9.95t9.67-3.52a16.09,16.09,0,0,1,2.74.27,14.87,14.87,0,0,1,2.36.54Zm-23,44.79a4.44,4.44,0,0,0,1.46,3.57,6.24,6.24,0,0,0,4.17,1.25q4.24,0,6.38-1.62a5.26,5.26,0,0,0,2.13-4.43,3.77,3.77,0,0,0-1.15-3.13c-.76-.61-2.18-.91-4.27-.91h-4.53a3.69,3.69,0,0,0-3,1.42A5.93,5.93,0,0,0,732.45,383.45Zm2.89-32.06c0,4.62,1.3,6.92,3.9,6.92s3.8-2.33,3.8-7-1.27-7.17-3.8-7.17S735.34,346.56,735.34,351.39Z"/><path class="cls-3" d="M777.66,328.36a5,5,0,0,1,1.36-3.67,5.11,5.11,0,0,1,3.78-1.36,5,5,0,0,1,3.65,1.36,4.89,4.89,0,0,1,1.37,3.67,4.82,4.82,0,0,1-1.4,3.71,5.09,5.09,0,0,1-3.62,1.32,5.23,5.23,0,0,1-3.73-1.32A4.82,4.82,0,0,1,777.66,328.36Zm9.74,49.4h-9.35V338.59h9.35Z"/><path class="cls-3" d="M812.12,337.85a11,11,0,0,1,3.37.53l-1.09,9.07a7.86,7.86,0,0,0-2.56-.35,6,6,0,0,0-5.24,2.69q-1.83,2.68-1.83,7.82v20.15h-9.35V338.59h7.7l1,6.12h.32a14.12,14.12,0,0,1,3.37-5.27A6.3,6.3,0,0,1,812.12,337.85Z"/><path class="cls-3" d="M836.38,337.85a11.09,11.09,0,0,1,3.37.53l-1.09,9.07a7.92,7.92,0,0,0-2.57-.35,5.94,5.94,0,0,0-5.23,2.69q-1.83,2.68-1.83,7.82v20.15h-9.35V338.59h7.7l1,6.12h.32a14.12,14.12,0,0,1,3.37-5.27A6.3,6.3,0,0,1,836.38,337.85Z"/><path class="cls-3" d="M843.62,328.36a5,5,0,0,1,1.35-3.67,5.11,5.11,0,0,1,3.78-1.36,5,5,0,0,1,3.66,1.36,4.93,4.93,0,0,1,1.37,3.67,4.82,4.82,0,0,1-1.41,3.71,5.07,5.07,0,0,1-3.62,1.32,5.23,5.23,0,0,1-3.73-1.32A4.85,4.85,0,0,1,843.62,328.36Zm9.74,49.4H844V338.59h9.36Z"/><path class="cls-3" d="M875,370.55a10.74,10.74,0,0,0,4.25-1v7.32c-1.52,1.05-3.81,1.58-6.85,1.58q-5.1,0-7.56-3t-2.46-9.13V346h-3.8v-4.18l4.89-3.38,2.39-8.3h6v8.44h7.1V346h-7.1v20.6Q871.81,370.56,875,370.55Z"/><path class="cls-3" d="M899.16,378.46a14.11,14.11,0,0,1-11.58-5.22q-4.23-5.22-4.24-14.78t3.84-15.16a12.32,12.32,0,0,1,10.68-5.45A12.19,12.19,0,0,1,908,342.51q3.69,4.67,3.69,13.06v5h-18.8c.07,3.5.78,6.09,2.14,7.79a6.8,6.8,0,0,0,5.63,2.55,18.24,18.24,0,0,0,9.35-2.85v7.7A20.52,20.52,0,0,1,899.16,378.46Zm-1.37-33.4a3.82,3.82,0,0,0-3.3,2.13c-.87,1.42-1.37,3.61-1.51,6.59h9.49a14.18,14.18,0,0,0-1.3-6.5A3.75,3.75,0,0,0,897.79,345.06Z"/><path class="cls-3" d="M934.53,337.85a11.15,11.15,0,0,1,3.38.53l-1.09,9.07a8,8,0,0,0-2.57-.35,6,6,0,0,0-5.24,2.69q-1.83,2.68-1.83,7.82v20.15h-9.35V338.59h7.7l1.06,6.12h.31a14.12,14.12,0,0,1,3.38-5.27A6.27,6.27,0,0,1,934.53,337.85Z"/><path class="cls-3" d="M956.54,378.46A14.1,14.1,0,0,1,945,373.24q-4.25-5.22-4.24-14.78t3.83-15.16a12.35,12.35,0,0,1,10.69-5.45,12.2,12.2,0,0,1,10.09,4.66q3.69,4.67,3.69,13.06v5H950.21c.07,3.5.79,6.09,2.15,7.79A6.78,6.78,0,0,0,958,370.9a18.21,18.21,0,0,0,9.35-2.85v7.7A20.51,20.51,0,0,1,956.54,378.46Zm-1.37-33.4a3.82,3.82,0,0,0-3.31,2.13,14.38,14.38,0,0,0-1.51,6.59h9.49a14.06,14.06,0,0,0-1.3-6.5A3.74,3.74,0,0,0,955.17,345.06Z"/><path class="cls-3" d="M994.72,377.76V354.41a15.75,15.75,0,0,0-1-6.43,3.43,3.43,0,0,0-3.31-2.18,4.65,4.65,0,0,0-4.43,3q-1.4,3-1.4,10.15v18.81h-9.35V338.59h7.41l1.13,5h.6a9.66,9.66,0,0,1,9.14-5.77q5.34,0,8,3.66t2.65,10.69v25.56Z"/><path class="cls-3" d="M1022,378.46q-5.41,0-8.54-5.34t-3.13-14.88q0-9.56,3.06-15t8.43-5.42a8.05,8.05,0,0,1,4.63,1.32,12,12,0,0,1,3.6,4.45h.56q-.42-5.34-.42-7.49V323.05h9.35v54.71h-7l-1.58-5.1h-.32Q1027.7,378.46,1022,378.46Zm3-7.91a4,4,0,0,0,3.8-2.37c.8-1.59,1.23-4.46,1.3-8.64v-1.23q0-6.81-1.21-9.59a4.12,4.12,0,0,0-4-2.78q-2.61,0-3.78,3.18a27.87,27.87,0,0,0-1.18,9.26q0,6.09,1.2,9.13T1025,370.55Z"/><path class="cls-3" d="M1061.87,378.46a14.13,14.13,0,0,1-11.59-5.22q-4.23-5.22-4.23-14.78t3.83-15.16a12.34,12.34,0,0,1,10.69-5.45,12.2,12.2,0,0,1,10.09,4.66q3.69,4.67,3.69,13.06v5h-18.81c.07,3.5.78,6.09,2.14,7.79a6.82,6.82,0,0,0,5.63,2.55,18.21,18.21,0,0,0,9.35-2.85v7.7A20.51,20.51,0,0,1,1061.87,378.46Zm-1.37-33.4a3.82,3.82,0,0,0-3.31,2.13c-.87,1.42-1.37,3.61-1.51,6.59h9.49a14.18,14.18,0,0,0-1.3-6.5A3.74,3.74,0,0,0,1060.5,345.06Z"/><path class="cls-3" d="M1080.46,372.94a5.86,5.86,0,0,1,1.46-4.25,5.83,5.83,0,0,1,10.18,4.25,5.69,5.69,0,0,1-1.53,4.25,5.84,5.84,0,0,1-4.3,1.52,5.76,5.76,0,0,1-4.33-1.53A5.88,5.88,0,0,1,1080.46,372.94Z"/><path class="cls-3" d="M1150.07,377.76h-9.56V355.22h-12.62v22.54h-9.56v-51.4h9.56v20.42h12.62V326.36h9.56Z"/><path class="cls-3" d="M1179.75,377.76l-1.16-5h-.5a10,10,0,0,1-9.21,5.73q-5.27,0-8-3.59t-2.7-10.72V338.59h9.45V361.9a15.87,15.87,0,0,0,1,6.47,3.43,3.43,0,0,0,3.31,2.18,4.62,4.62,0,0,0,4.41-3c.92-2,1.39-5.41,1.39-10.16V338.59h9.45v39.17Z"/><path class="cls-3" d="M1214.59,377.76V354.41a15.75,15.75,0,0,0-1-6.43,3.43,3.43,0,0,0-3.31-2.18,4.65,4.65,0,0,0-4.43,3c-.94,2-1.4,5.39-1.4,10.15v18.81h-9.36V338.59h7.42l1.13,5h.59a9.69,9.69,0,0,1,9.15-5.77q5.34,0,8,3.66T1224,352.2v25.56Z"/><path class="cls-3" d="M1255.61,377.76l-10.23-39.17h9.71l5,22.68q.32,1.58.75,4.62c.3,2,.48,3.49.55,4.38h.14c0-.71.12-1.71.3-3s.36-2.52.54-3.62,2-9.44,5.42-25h9.7l-10.27,39.17Z"/><path class="cls-3" d="M1281.14,328.36a5,5,0,0,1,1.35-3.67,5.11,5.11,0,0,1,3.78-1.36,5,5,0,0,1,3.66,1.36,4.93,4.93,0,0,1,1.37,3.67,4.82,4.82,0,0,1-1.41,3.71,5.07,5.07,0,0,1-3.62,1.32,5.23,5.23,0,0,1-3.73-1.32A4.85,4.85,0,0,1,1281.14,328.36Zm9.74,49.4h-9.36V338.59h9.36Z"/><path class="cls-3" d="M1308.24,377.76h-9.35V323.05h9.35Z"/><path class="cls-3" d="M214.15,425.06v5.49l-4.67,1.05a12.63,12.63,0,0,1,1.37,6.19q0,6.22-3.38,9.74T198.05,451a8.76,8.76,0,0,1-2.6-.28,11.59,11.59,0,0,0-1.27,1.34,2.85,2.85,0,0,0-.59,1.83c0,1.64,1.41,2.46,4.25,2.46h5.66c3.33,0,5.89.89,7.68,2.69s2.69,4.49,2.69,8.1q0,6.82-4.57,10.55t-13.15,3.72q-6.5,0-10-2.83a9.75,9.75,0,0,1-3.51-8.07,8.88,8.88,0,0,1,2-5.74,11.29,11.29,0,0,1,5.56-3.61,6.7,6.7,0,0,1-2.94-2.18,5.46,5.46,0,0,1-1.14-3.44,6.12,6.12,0,0,1,.35-2.16,6.82,6.82,0,0,1,1-1.83,18.08,18.08,0,0,1,2.66-2.55,10,10,0,0,1-3.84-4.54,16.16,16.16,0,0,1-1.4-6.78q0-6.44,3.37-10t9.67-3.52a16.09,16.09,0,0,1,2.74.27,14.87,14.87,0,0,1,2.36.54Zm-23,44.79a4.44,4.44,0,0,0,1.46,3.57,6.27,6.27,0,0,0,4.17,1.25c2.84,0,5-.54,6.38-1.62a5.26,5.26,0,0,0,2.13-4.43,3.79,3.79,0,0,0-1.14-3.13c-.77-.61-2.19-.91-4.28-.91h-4.53a3.69,3.69,0,0,0-3,1.42A6,6,0,0,0,191.12,469.85ZM194,437.79c0,4.62,1.3,6.92,3.9,6.92s3.8-2.33,3.8-7-1.27-7.17-3.8-7.17S194,433,194,437.79Z"/><path class="cls-3" d="M233.31,464.86a14.1,14.1,0,0,1-11.58-5.22q-4.24-5.22-4.24-14.78t3.83-15.16A12.35,12.35,0,0,1,232,424.25a12.19,12.19,0,0,1,10.09,4.66q3.69,4.66,3.69,13.06v5H227c.07,3.5.79,6.09,2.15,7.79a6.8,6.8,0,0,0,5.62,2.55,18.24,18.24,0,0,0,9.36-2.85v7.7A20.52,20.52,0,0,1,233.31,464.86Zm-1.37-33.4a3.81,3.81,0,0,0-3.3,2.13c-.87,1.42-1.37,3.61-1.52,6.59h9.5a14.18,14.18,0,0,0-1.3-6.5A3.75,3.75,0,0,0,231.94,431.46Z"/><path class="cls-3" d="M268.68,424.25a11,11,0,0,1,3.37.53L271,433.85a7.86,7.86,0,0,0-2.56-.35,6,6,0,0,0-5.24,2.69q-1.83,2.69-1.83,7.82v20.15H252V425h7.7l1.05,6.12h.32a14.12,14.12,0,0,1,3.38-5.27A6.25,6.25,0,0,1,268.68,424.25Z"/><path class="cls-3" d="M295.75,464.16V440.81a15.75,15.75,0,0,0-1-6.43,3.43,3.43,0,0,0-3.3-2.18,4.63,4.63,0,0,0-4.43,3q-1.41,3-1.41,10.14v18.81h-9.35V425h7.42l1.12,5h.6a9.66,9.66,0,0,1,9.14-5.77q5.34,0,8,3.66t2.65,10.69v25.56Z"/><path class="cls-3" d="M327.18,464.86a14.1,14.1,0,0,1-11.58-5.22q-4.25-5.22-4.24-14.78t3.83-15.16a12.35,12.35,0,0,1,10.69-5.45A12.2,12.2,0,0,1,336,428.91q3.69,4.66,3.69,13.06v5H320.85c.07,3.5.79,6.09,2.15,7.79a6.8,6.8,0,0,0,5.62,2.55,18.18,18.18,0,0,0,9.35-2.85v7.7A20.48,20.48,0,0,1,327.18,464.86Zm-1.37-33.4a3.82,3.82,0,0,0-3.31,2.13,14.38,14.38,0,0,0-1.51,6.59h9.49a14.06,14.06,0,0,0-1.3-6.5A3.74,3.74,0,0,0,325.81,431.46Z"/><path class="cls-3" d="M369.89,464.16,359.66,425h9.71l5,22.68c.21,1.05.46,2.59.76,4.62s.47,3.49.54,4.38h.14c0-.71.12-1.71.3-3s.36-2.52.54-3.62,2-9.44,5.42-25h9.7L381.5,464.16Z"/><path class="cls-3" d="M395.42,414.76a5,5,0,0,1,1.35-3.67,5.11,5.11,0,0,1,3.78-1.36,5,5,0,0,1,3.66,1.36,4.93,4.93,0,0,1,1.37,3.67,4.82,4.82,0,0,1-1.41,3.71,5.07,5.07,0,0,1-3.62,1.32,5.23,5.23,0,0,1-3.73-1.32A4.85,4.85,0,0,1,395.42,414.76Zm9.74,49.4H395.8V425h9.36Z"/><path class="cls-3" d="M434.2,452.7q0,5.73-3.36,8.94t-9.9,3.22a18.32,18.32,0,0,1-9.6-2.29v-8.12a18.48,18.48,0,0,0,4.52,2.22,14.56,14.56,0,0,0,4.55.88,4.68,4.68,0,0,0,3.33-1.08,3.68,3.68,0,0,0,1.14-2.83,4.52,4.52,0,0,0-1.2-3.12,19.92,19.92,0,0,0-4.39-3.27,18,18,0,0,1-6.1-5.4,12.24,12.24,0,0,1-1.85-6.77,9.87,9.87,0,0,1,3.43-7.91q3.44-2.91,9.41-2.92A18.84,18.84,0,0,1,434,427l-3.05,6.71a14.33,14.33,0,0,0-6.61-2,3.52,3.52,0,0,0-2.69.95,3.25,3.25,0,0,0-.9,2.32,4.06,4.06,0,0,0,1.11,2.81,19.39,19.39,0,0,0,4.13,3.06,26.28,26.28,0,0,1,5.13,3.76,11.31,11.31,0,0,1,2.29,3.52A12.05,12.05,0,0,1,434.2,452.7Z"/><path class="cls-3" d="M454.55,464.86A14.1,14.1,0,0,1,443,459.64q-4.25-5.22-4.24-14.78t3.83-15.16a12.35,12.35,0,0,1,10.69-5.45,12.19,12.19,0,0,1,10.09,4.66Q467,433.57,467,442v5H448.22c.07,3.5.79,6.09,2.15,7.79A6.8,6.8,0,0,0,456,457.3a18.18,18.18,0,0,0,9.35-2.85v7.7A20.48,20.48,0,0,1,454.55,464.86Zm-1.37-33.4a3.8,3.8,0,0,0-3.3,2.13,14.24,14.24,0,0,0-1.52,6.59h9.5a14,14,0,0,0-1.31-6.5A3.74,3.74,0,0,0,453.18,431.46Z"/><path class="cls-3" d="M501.31,464.86q-5.42,0-8.54-5.34t-3.13-14.88q0-9.56,3.06-15c2-3.61,4.85-5.42,8.43-5.42a8.08,8.08,0,0,1,4.63,1.32,12,12,0,0,1,3.6,4.45h.56q-.42-5.34-.42-7.49V409.45h9.35v54.71h-7l-1.58-5.1H510Q507,464.87,501.31,464.86Zm3-7.91a4,4,0,0,0,3.8-2.37c.8-1.59,1.23-4.46,1.3-8.63v-1.24q0-6.81-1.21-9.59a4.12,4.12,0,0,0-4-2.78q-2.61,0-3.78,3.18a27.89,27.89,0,0,0-1.18,9.27,26.55,26.55,0,0,0,1.19,9.12Q501.66,457,504.33,457Z"/><path class="cls-3" d="M526.41,414.76a5,5,0,0,1,1.35-3.67,5.15,5.15,0,0,1,3.78-1.36,5,5,0,0,1,3.66,1.36,4.93,4.93,0,0,1,1.37,3.67,4.82,4.82,0,0,1-1.41,3.71,5.06,5.06,0,0,1-3.62,1.32,5.21,5.21,0,0,1-3.72-1.32A4.82,4.82,0,0,1,526.41,414.76Zm9.74,49.4H526.8V425h9.35Z"/><path class="cls-3" d="M572.36,425.06v5.49l-4.68,1.05a12.52,12.52,0,0,1,1.37,6.19q0,6.22-3.37,9.74T556.26,451a8.76,8.76,0,0,1-2.6-.28,11.59,11.59,0,0,0-1.27,1.34,2.8,2.8,0,0,0-.6,1.83q0,2.46,4.26,2.46h5.66c3.33,0,5.89.89,7.68,2.69s2.69,4.49,2.69,8.1q0,6.82-4.57,10.55t-13.15,3.72q-6.51,0-10-2.83a9.76,9.76,0,0,1-3.52-8.07,8.83,8.83,0,0,1,2-5.74,11.26,11.26,0,0,1,5.55-3.61,6.72,6.72,0,0,1-2.93-2.18,5.47,5.47,0,0,1-1.15-3.44,6.12,6.12,0,0,1,.36-2.16,6.55,6.55,0,0,1,1-1.83,18.4,18.4,0,0,1,2.65-2.55,10.09,10.09,0,0,1-3.83-4.54,16,16,0,0,1-1.41-6.78q0-6.44,3.38-10t9.67-3.52a16.19,16.19,0,0,1,2.74.27,14.43,14.43,0,0,1,2.35.54Zm-23,44.79a4.44,4.44,0,0,0,1.46,3.57,6.24,6.24,0,0,0,4.17,1.25q4.24,0,6.38-1.62a5.25,5.25,0,0,0,2.12-4.43,3.79,3.79,0,0,0-1.14-3.13c-.76-.61-2.18-.91-4.27-.91h-4.53a3.72,3.72,0,0,0-3,1.42A6,6,0,0,0,549.33,469.85Zm2.88-32.06c0,4.62,1.31,6.92,3.91,6.92s3.79-2.33,3.79-7-1.26-7.17-3.79-7.17S552.21,433,552.21,437.79Z"/><path class="cls-3" d="M615.88,452.7q0,5.73-3.35,8.94t-9.9,3.22a18.29,18.29,0,0,1-9.6-2.29v-8.12a18.48,18.48,0,0,0,4.52,2.22,14.56,14.56,0,0,0,4.55.88,4.66,4.66,0,0,0,3.32-1.08,3.66,3.66,0,0,0,1.15-2.83,4.52,4.52,0,0,0-1.2-3.12,20.17,20.17,0,0,0-4.39-3.27,18,18,0,0,1-6.1-5.4,12.24,12.24,0,0,1-1.85-6.77,9.84,9.84,0,0,1,3.43-7.91q3.42-2.91,9.4-2.92a18.85,18.85,0,0,1,9.81,2.75l-3.06,6.71a14.27,14.27,0,0,0-6.61-2,3.55,3.55,0,0,0-2.69.95,3.28,3.28,0,0,0-.89,2.32,4.06,4.06,0,0,0,1.11,2.81,19.13,19.13,0,0,0,4.13,3.06,26.93,26.93,0,0,1,5.13,3.76,11.28,11.28,0,0,1,2.28,3.52A12.05,12.05,0,0,1,615.88,452.7Z"/><path class="cls-3" d="M621.47,414.76a4.92,4.92,0,0,1,1.36-3.67,5.11,5.11,0,0,1,3.78-1.36,5,5,0,0,1,3.65,1.36,5.61,5.61,0,0,1,0,7.38,5.09,5.09,0,0,1-3.62,1.32,5.23,5.23,0,0,1-3.73-1.32A4.82,4.82,0,0,1,621.47,414.76Zm9.74,49.4h-9.35V425h9.35Z"/><path class="cls-3" d="M658.74,464.16V440.81a15.75,15.75,0,0,0-1-6.43,3.43,3.43,0,0,0-3.31-2.18,4.64,4.64,0,0,0-4.43,3q-1.4,3-1.4,10.14v18.81h-9.35V425h7.41l1.13,5h.6a9.66,9.66,0,0,1,9.14-5.77q5.34,0,8,3.66t2.65,10.69v25.56Z"/><path class="cls-3" d="M713,464.16V440.81a15.75,15.75,0,0,0-1-6.43,3.43,3.43,0,0,0-3.3-2.18,4.63,4.63,0,0,0-4.43,3q-1.41,3-1.41,10.14v18.81h-9.35V425h7.42l1.12,5h.6a9.66,9.66,0,0,1,9.14-5.77q5.34,0,8,3.66t2.65,10.69v25.56Z"/><path class="cls-3" d="M726,425h9.7l5.41,22.12a50.38,50.38,0,0,1,1.31,8.26h.21c0-.57.13-1.57.31-3s.34-2.57.46-3.39,1.73-8.81,4.85-24h9.84l-11.21,42q-2,7.72-5.41,11.11a12.16,12.16,0,0,1-9,3.37,19.11,19.11,0,0,1-5-.59V473a11.54,11.54,0,0,0,3.23.42q4.71,0,6.19-6.19l.67-2.46Z"/><path class="cls-3" d="M776.55,464.86A14.13,14.13,0,0,1,765,459.64q-4.23-5.22-4.23-14.78t3.83-15.16a12.34,12.34,0,0,1,10.69-5.45,12.2,12.2,0,0,1,10.09,4.66Q789,433.57,789,442v5H770.22c.07,3.5.78,6.09,2.14,7.79A6.82,6.82,0,0,0,778,457.3a18.21,18.21,0,0,0,9.35-2.85v7.7A20.51,20.51,0,0,1,776.55,464.86Zm-1.37-33.4a3.82,3.82,0,0,0-3.31,2.13c-.87,1.42-1.37,3.61-1.51,6.59h9.49a14.18,14.18,0,0,0-1.3-6.5A3.74,3.74,0,0,0,775.18,431.46Z"/><path class="cls-3" d="M813.57,412.76h13.11q8,0,11.67,3.11t3.66,9.9a13.56,13.56,0,0,1-1.94,7.47,7.76,7.76,0,0,1-5.27,3.63v.36a9.94,9.94,0,0,1,6.29,4.07,14.48,14.48,0,0,1,1.94,7.95q0,7-3.75,10.95t-10.24,4H813.57Zm9,20.67H827c2,0,3.43-.54,4.25-1.62a7.81,7.81,0,0,0,1.24-4.81q0-3.21-1.41-4.59a6.1,6.1,0,0,0-4.43-1.39h-4Zm0,8v14.38h4.81a5.34,5.34,0,0,0,4.45-1.83c1-1.22,1.46-3.1,1.46-5.66q0-6.89-6-6.89Z"/><path class="cls-3" d="M881.8,464.16h-9.56V441.62H859.62v22.54h-9.56v-51.4h9.56v20.42h12.62V412.76h9.56Z"/><path class="cls-3" d="M890.24,459.34a5.86,5.86,0,0,1,1.46-4.25,5.76,5.76,0,0,1,4.34-1.52,5.85,5.85,0,0,1,4.36,1.5,5.79,5.79,0,0,1,1.48,4.27,5.69,5.69,0,0,1-1.53,4.25,5.87,5.87,0,0,1-4.31,1.52,5.72,5.72,0,0,1-4.32-1.53A5.84,5.84,0,0,1,890.24,459.34Z"/><path class="cls-3" d="M960.8,438q0,12.74-5.18,19.46t-14.93,6.74H928.11v-51.4h13.74q9,0,14,6.62T960.8,438Zm-9.81.29Q951,421,941.5,421h-3.83v34.77h3.09a8.31,8.31,0,0,0,7.74-4.38Q951,447,951,438.25Z"/><path class="cls-3" d="M988.89,464.16l-1.16-5h-.49a10.16,10.16,0,0,1-3.71,4.2,10,10,0,0,1-5.5,1.53q-5.28,0-8-3.59t-2.71-10.72V425h9.46V448.3a15.87,15.87,0,0,0,1,6.47,3.43,3.43,0,0,0,3.3,2.18,4.6,4.6,0,0,0,4.41-3q1.4-3,1.39-10.16V425h9.46v39.17Z"/><path class="cls-3" d="M1043,452.7q0,5.73-3.36,8.94t-9.89,3.22a18.29,18.29,0,0,1-9.6-2.29v-8.12a18.31,18.31,0,0,0,4.52,2.22,14.56,14.56,0,0,0,4.55.88,4.66,4.66,0,0,0,3.32-1.08,3.68,3.68,0,0,0,1.14-2.83,4.51,4.51,0,0,0-1.19-3.12,20,20,0,0,0-4.4-3.27,18.08,18.08,0,0,1-6.09-5.4,12.16,12.16,0,0,1-1.85-6.77,9.84,9.84,0,0,1,3.43-7.91q3.42-2.91,9.4-2.92a18.85,18.85,0,0,1,9.81,2.75l-3.06,6.71a14.3,14.3,0,0,0-6.61-2,3.55,3.55,0,0,0-2.69.95,3.28,3.28,0,0,0-.89,2.32,4.1,4.1,0,0,0,1.1,2.81,19.67,19.67,0,0,0,4.13,3.06,26.74,26.74,0,0,1,5.14,3.76,11.46,11.46,0,0,1,2.28,3.52A12.05,12.05,0,0,1,1043,452.7Z"/><path class="cls-3" d="M1045,425h9.71l5.41,22.12a50.56,50.56,0,0,1,1.3,8.26h.21c0-.57.13-1.57.32-3s.34-2.57.46-3.39,1.73-8.81,4.85-24h9.84l-11.21,42q-2,7.72-5.42,11.11a12.16,12.16,0,0,1-9,3.37,19.09,19.09,0,0,1-5-.59V473a11.54,11.54,0,0,0,3.23.42q4.71,0,6.19-6.19l.67-2.46Z"/><path class="cls-3" d="M1100.55,464.16V440.81a15.75,15.75,0,0,0-1-6.43,3.43,3.43,0,0,0-3.31-2.18,4.64,4.64,0,0,0-4.43,3q-1.39,3-1.4,10.14v18.81H1081V425h7.41l1.13,5h.6a9.66,9.66,0,0,1,9.14-5.77q5.34,0,8,3.66T1110,438.6v25.56Z"/><path class="cls-3" d="M1132,464.86a14.13,14.13,0,0,1-11.59-5.22q-4.23-5.22-4.23-14.78T1120,429.7a12.34,12.34,0,0,1,10.69-5.45,12.21,12.21,0,0,1,10.09,4.66q3.69,4.66,3.69,13.06v5h-18.81c.07,3.5.78,6.09,2.14,7.79a6.82,6.82,0,0,0,5.63,2.55,18.24,18.24,0,0,0,9.35-2.85v7.7A20.51,20.51,0,0,1,1132,464.86Zm-1.37-33.4a3.82,3.82,0,0,0-3.31,2.13c-.87,1.42-1.37,3.61-1.51,6.59h9.49a14.18,14.18,0,0,0-1.3-6.5A3.74,3.74,0,0,0,1130.61,431.46Z"/><path class="cls-3" d="M1171.67,452.7q0,5.73-3.36,8.94t-9.9,3.22a18.28,18.28,0,0,1-9.59-2.29v-8.12a18.41,18.41,0,0,0,4.51,2.22,14.61,14.61,0,0,0,4.56.88,4.66,4.66,0,0,0,3.32-1.08,3.68,3.68,0,0,0,1.14-2.83,4.56,4.56,0,0,0-1.19-3.12,20.29,20.29,0,0,0-4.4-3.27,18.12,18.12,0,0,1-6.1-5.4,12.23,12.23,0,0,1-1.84-6.77,9.86,9.86,0,0,1,3.42-7.91q3.43-2.91,9.41-2.92a18.85,18.85,0,0,1,9.81,2.75l-3.06,6.71a14.3,14.3,0,0,0-6.61-2,3.54,3.54,0,0,0-2.69.95,3.25,3.25,0,0,0-.9,2.32,4.06,4.06,0,0,0,1.11,2.81,19.67,19.67,0,0,0,4.13,3.06,26.28,26.28,0,0,1,5.13,3.76,11.31,11.31,0,0,1,2.29,3.52A12.05,12.05,0,0,1,1171.67,452.7Z"/><path class="cls-3" d="M1205.66,464.86q-5.42,0-8.54-5.34T1194,444.64q0-9.56,3.06-15t8.44-5.42a8,8,0,0,1,4.62,1.32,12,12,0,0,1,3.6,4.45h.57q-.42-5.34-.42-7.49V409.45h9.35v54.71h-7l-1.59-5.1h-.31Q1211.36,464.87,1205.66,464.86Zm3-7.91a4,4,0,0,0,3.79-2.37c.8-1.59,1.23-4.46,1.31-8.63v-1.24q0-6.81-1.22-9.59a4.12,4.12,0,0,0-4-2.78q-2.6,0-3.78,3.18a28.16,28.16,0,0,0-1.18,9.27q0,6.07,1.2,9.12T1208.69,457Z"/><path class="cls-3" d="M1245.53,464.86a14.1,14.1,0,0,1-11.58-5.22q-4.25-5.22-4.24-14.78t3.83-15.16a12.35,12.35,0,0,1,10.69-5.45,12.19,12.19,0,0,1,10.09,4.66Q1258,433.57,1258,442v5H1239.2c.07,3.5.79,6.09,2.15,7.79a6.8,6.8,0,0,0,5.62,2.55,18.18,18.18,0,0,0,9.35-2.85v7.7A20.48,20.48,0,0,1,1245.53,464.86Zm-1.37-33.4a3.8,3.8,0,0,0-3.3,2.13,14.24,14.24,0,0,0-1.52,6.59h9.5a14.18,14.18,0,0,0-1.3-6.5A3.76,3.76,0,0,0,1244.16,431.46Z"/><path class="cls-3" d="M1283.71,464.16V440.81a15.75,15.75,0,0,0-1-6.43,3.43,3.43,0,0,0-3.3-2.18,4.63,4.63,0,0,0-4.43,3q-1.41,3-1.41,10.14v18.81h-9.35V425h7.42l1.12,5h.6a9.66,9.66,0,0,1,9.14-5.77q5.34,0,8,3.66t2.65,10.69v25.56Z"/><path class="cls-3" d="M262.71,551.26A14.1,14.1,0,0,1,251.13,546q-4.24-5.22-4.24-14.79t3.83-15.15a12.35,12.35,0,0,1,10.69-5.45,12.19,12.19,0,0,1,10.09,4.66q3.69,4.66,3.69,13.06v5H256.38c.07,3.5.79,6.09,2.15,7.79a6.8,6.8,0,0,0,5.62,2.55,18.18,18.18,0,0,0,9.35-2.85v7.7A20.48,20.48,0,0,1,262.71,551.26Zm-1.37-33.4A3.8,3.8,0,0,0,258,520a14.24,14.24,0,0,0-1.52,6.59H266a14,14,0,0,0-1.31-6.5A3.74,3.74,0,0,0,261.34,517.86Z"/><path class="cls-3" d="M298.08,510.65a11,11,0,0,1,3.37.53l-1.09,9.07a7.86,7.86,0,0,0-2.56-.35,6,6,0,0,0-5.24,2.69q-1.83,2.68-1.83,7.82v20.15h-9.35V511.39h7.7l1.05,6.12h.32a14.25,14.25,0,0,1,3.37-5.27A6.3,6.3,0,0,1,298.08,510.65Z"/><path class="cls-3" d="M332.78,550.56h-9.35V495.85h9.35Z"/><path class="cls-3" d="M340.3,501.16a5,5,0,0,1,1.35-3.67,5.11,5.11,0,0,1,3.78-1.36,4.7,4.7,0,0,1,5,5,4.84,4.84,0,0,1-1.41,3.71,5.06,5.06,0,0,1-3.62,1.32,5.21,5.21,0,0,1-3.72-1.32A4.84,4.84,0,0,1,340.3,501.16Zm9.74,49.4h-9.35V511.39H350Z"/><path class="cls-3" d="M368.36,551.26q-5.42,0-8.55-5.34T356.68,531q0-9.56,3.06-15t8.44-5.42A8,8,0,0,1,372.8,512a12.07,12.07,0,0,1,3.61,4.45H377q-.42-5.34-.42-7.49V495.85h9.35v54.71h-7l-1.58-5.1H377Q374.06,551.27,368.36,551.26Zm3-7.91a4,4,0,0,0,3.8-2.37c.79-1.59,1.23-4.46,1.3-8.64v-1.23q0-6.81-1.22-9.59a4.12,4.12,0,0,0-4-2.78q-2.59,0-3.78,3.18a28.18,28.18,0,0,0-1.17,9.26c0,4.06.39,7.1,1.19,9.13S369.6,543.35,371.38,543.35Z"/><path class="cls-3" d="M407.38,543.35a10.74,10.74,0,0,0,4.25-1v7.32c-1.52,1.05-3.81,1.58-6.85,1.58q-5.1,0-7.56-3t-2.46-9.13V518.81H391v-4.18l4.89-3.38,2.39-8.3h6v8.44h7.11v7.42h-7.11v20.6Q404.21,543.36,407.38,543.35Z"/><path class="cls-3" d="M455.93,539.09q0,5.74-3.36,8.95t-9.89,3.22a18.29,18.29,0,0,1-9.6-2.29v-8.12a18.31,18.31,0,0,0,4.52,2.22,14.56,14.56,0,0,0,4.55.88,4.66,4.66,0,0,0,3.32-1.08,3.68,3.68,0,0,0,1.14-2.83,4.56,4.56,0,0,0-1.19-3.12,19.72,19.72,0,0,0-4.4-3.27,18.12,18.12,0,0,1-6.1-5.4,12.23,12.23,0,0,1-1.84-6.77,9.84,9.84,0,0,1,3.43-7.91q3.42-2.91,9.4-2.92a18.85,18.85,0,0,1,9.81,2.75l-3.06,6.71a14.3,14.3,0,0,0-6.61-2,3.55,3.55,0,0,0-2.69.95,3.25,3.25,0,0,0-.9,2.32,4.06,4.06,0,0,0,1.11,2.81,19.67,19.67,0,0,0,4.13,3.06,26.74,26.74,0,0,1,5.14,3.76,11.34,11.34,0,0,1,2.28,3.52A12,12,0,0,1,455.93,539.09Z"/><path class="cls-3" d="M460.68,567.85a11.78,11.78,0,0,1-4.89-.88V559.2a8.2,8.2,0,0,0,3,.64c2.21,0,3.31-2,3.31-6V511.39h9.35v43.7q0,6.12-2.83,9.44A9.87,9.87,0,0,1,460.68,567.85Zm1.09-66.69a5,5,0,0,1,1.35-3.67,5,5,0,0,1,3.74-1.36,4.93,4.93,0,0,1,3.69,1.37,5,5,0,0,1,1.34,3.66,4.93,4.93,0,0,1-1.37,3.69,5,5,0,0,1-3.66,1.34,5.26,5.26,0,0,1-3.69-1.3A4.82,4.82,0,0,1,461.77,501.16Z"/><path class="cls-3" d="M508.42,530.9q0,9.65-4.08,15a14.24,14.24,0,0,1-19.13,2.9,15.57,15.57,0,0,1-5.3-7.09A28.61,28.61,0,0,1,478,530.9q0-9.52,4-14.89a13.25,13.25,0,0,1,11.21-5.36,13.07,13.07,0,0,1,11,5.47Q508.42,521.58,508.42,530.9Zm-20.81,0q0,6.12,1.33,9.25t4.29,3.13q5.63,0,5.63-12.38c0-4.1-.46-7.16-1.36-9.19a4.53,4.53,0,0,0-8.56,0Q487.61,524.76,487.61,530.9Z"/><path class="cls-3" d="M521.25,550.56,511,511.39h9.7l5,22.68c.22,1,.47,2.59.76,4.62s.48,3.49.55,4.38h.14c0-.71.12-1.71.3-3s.35-2.52.54-3.62,2-9.44,5.41-25h9.71l-10.27,39.17Z"/><path class="cls-3" d="M558.23,543a109,109,0,0,1-6.18,16.84h-7.14q2.28-9.36,3.55-17.65h9.28Z"/><path class="cls-3" d="M601.72,518.81h-6.47v31.75H585.9V518.81h-4.53v-4.68l4.53-2.81v-2.95q0-6.54,2.71-9.72t8.72-3.18a15.91,15.91,0,0,1,7.06,1.58l-2.46,7.13a8.2,8.2,0,0,0-3.58-.84,2.52,2.52,0,0,0-2.36,1.27,8,8,0,0,0-.74,3.9v2.88h6.47Z"/><path class="cls-3" d="M634.84,530.9q0,9.65-4.08,15a14.22,14.22,0,0,1-19.12,2.9,15.52,15.52,0,0,1-5.31-7.09,28.81,28.81,0,0,1-1.87-10.81q0-9.52,4-14.89a13.25,13.25,0,0,1,11.21-5.36,13.07,13.07,0,0,1,11,5.47Q634.84,521.58,634.84,530.9Zm-20.81,0q0,6.12,1.33,9.25t4.29,3.13q5.63,0,5.63-12.38,0-6.15-1.36-9.19a4.53,4.53,0,0,0-8.56,0Q614,524.76,614,530.9Z"/><path class="cls-3" d="M658.11,510.65a11.1,11.1,0,0,1,3.38.53l-1.09,9.07a7.92,7.92,0,0,0-2.57-.35,6,6,0,0,0-5.24,2.69q-1.82,2.68-1.82,7.82v20.15h-9.36V511.39h7.7l1.06,6.12h.31a14.25,14.25,0,0,1,3.38-5.27A6.29,6.29,0,0,1,658.11,510.65Z"/><path class="cls-3" d="M693.76,551.26q-5.41,0-8.54-5.34T682.09,531q0-9.56,3.06-15t8.44-5.42a8,8,0,0,1,4.62,1.32,12,12,0,0,1,3.6,4.45h.57q-.43-5.34-.43-7.49V495.85h9.35v54.71h-7l-1.58-5.1h-.31Q699.45,551.27,693.76,551.26Zm3-7.91a4,4,0,0,0,3.79-2.37c.8-1.59,1.23-4.46,1.3-8.64v-1.23q0-6.81-1.21-9.59a4.12,4.12,0,0,0-4-2.78q-2.59,0-3.78,3.18a28.13,28.13,0,0,0-1.18,9.26q0,6.09,1.2,9.13C693.71,542.33,695,543.35,696.79,543.35Z"/><path class="cls-3" d="M733.63,551.26A14.13,14.13,0,0,1,722,546q-4.23-5.22-4.23-14.79t3.83-15.15a12.35,12.35,0,0,1,10.69-5.45,12.2,12.2,0,0,1,10.09,4.66q3.69,4.66,3.69,13.06v5H727.3c.07,3.5.79,6.09,2.15,7.79a6.78,6.78,0,0,0,5.62,2.55,18.21,18.21,0,0,0,9.35-2.85v7.7A20.51,20.51,0,0,1,733.63,551.26Zm-1.37-33.4A3.82,3.82,0,0,0,729,520a14.38,14.38,0,0,0-1.51,6.59h9.49a14.06,14.06,0,0,0-1.3-6.5A3.74,3.74,0,0,0,732.26,517.86Z"/><path class="cls-3" d="M771.81,550.56V527.21a15.75,15.75,0,0,0-1-6.43,3.43,3.43,0,0,0-3.31-2.18,4.65,4.65,0,0,0-4.43,3q-1.39,3-1.4,10.15v18.81H752.3V511.39h7.41l1.13,5h.6a9.66,9.66,0,0,1,9.14-5.77q5.34,0,8,3.66T781.23,525v25.56Z"/><path class="cls-3" d="M821,551.26A14.13,14.13,0,0,1,809.44,546q-4.23-5.22-4.23-14.79T809,516.1a12.34,12.34,0,0,1,10.69-5.45,12.2,12.2,0,0,1,10.09,4.66q3.69,4.66,3.69,13.06v5H814.7c.07,3.5.78,6.09,2.14,7.79a6.82,6.82,0,0,0,5.63,2.55,18.21,18.21,0,0,0,9.35-2.85v7.7A20.51,20.51,0,0,1,821,551.26Zm-1.37-33.4a3.82,3.82,0,0,0-3.31,2.13c-.87,1.42-1.37,3.61-1.51,6.59h9.49a14.06,14.06,0,0,0-1.3-6.5A3.74,3.74,0,0,0,819.66,517.86Z"/><path class="cls-3" d="M856.39,510.65a11.1,11.1,0,0,1,3.38.53l-1.09,9.07a7.92,7.92,0,0,0-2.57-.35,5.94,5.94,0,0,0-5.23,2.69q-1.83,2.68-1.83,7.82v20.15H839.7V511.39h7.69l1.06,6.12h.32a14.12,14.12,0,0,1,3.37-5.27A6.29,6.29,0,0,1,856.39,510.65Z"/><path class="cls-3" d="M899.14,518.81h-6.46v31.75h-9.36V518.81h-4.53v-4.68l4.53-2.81v-2.95q0-6.54,2.71-9.72c1.81-2.12,4.71-3.18,8.72-3.18a16,16,0,0,1,7.07,1.58l-2.46,7.13a8.27,8.27,0,0,0-3.59-.84,2.53,2.53,0,0,0-2.36,1.27,8,8,0,0,0-.73,3.9v2.88h6.46Z"/><path class="cls-3" d="M922.45,550.56l-1.86-5.35h-.21a13.24,13.24,0,0,1-4.29,4.75,10.88,10.88,0,0,1-5.59,1.3,8.09,8.09,0,0,1-6.8-3.24c-1.66-2.15-2.48-5.15-2.48-9q0-6.18,3.39-9.19t10.14-3.32l5.21-.21v-2.81q0-5.49-4.75-5.49c-2.34,0-5,.92-8.09,2.74l-3.23-6.47a23.29,23.29,0,0,1,12.69-3.69q6.23,0,9.48,3.57t3.25,10.11v26.3ZM914.33,544a4.71,4.71,0,0,0,4.1-2.31,10.91,10.91,0,0,0,1.53-6.13V532.2l-2.89.14a6.57,6.57,0,0,0-4.69,1.83,7.11,7.11,0,0,0-1.49,4.92Q910.89,544,914.33,544Z"/><path class="cls-3" d="M946.08,529.46l2.35-4.67,7.74-13.4h9.91l-9.91,16.07,10.58,23.1h-9.81L949.88,534l-3.66,3.3v13.26h-9.35V495.85h9.35v25.77l-.42,7.84Z"/><path class="cls-3" d="M984.4,543.35a10.74,10.74,0,0,0,4.25-1v7.32c-1.52,1.05-3.81,1.58-6.85,1.58q-5.1,0-7.56-3t-2.46-9.13V518.81H968v-4.18l4.89-3.38,2.39-8.3h6v8.44h7.11v7.42h-7.11v20.6Q981.23,543.36,984.4,543.35Z"/><path class="cls-3" d="M993.82,501.16a5,5,0,0,1,1.35-3.67,5.11,5.11,0,0,1,3.78-1.36,4.7,4.7,0,0,1,5,5,4.84,4.84,0,0,1-1.41,3.71,5.06,5.06,0,0,1-3.62,1.32,5.21,5.21,0,0,1-3.72-1.32A4.84,4.84,0,0,1,993.82,501.16Zm9.74,49.4h-9.35V511.39h9.35Z"/><path class="cls-3" d="M1032.6,539.09q0,5.74-3.36,8.95t-9.9,3.22a18.28,18.28,0,0,1-9.59-2.29v-8.12a18.41,18.41,0,0,0,4.51,2.22,14.61,14.61,0,0,0,4.56.88,4.66,4.66,0,0,0,3.32-1.08,3.68,3.68,0,0,0,1.14-2.83,4.56,4.56,0,0,0-1.19-3.12,20,20,0,0,0-4.4-3.27,18.12,18.12,0,0,1-6.1-5.4,12.23,12.23,0,0,1-1.84-6.77,9.86,9.86,0,0,1,3.42-7.91q3.44-2.91,9.41-2.92a18.85,18.85,0,0,1,9.81,2.75l-3.06,6.71a14.3,14.3,0,0,0-6.61-2,3.54,3.54,0,0,0-2.69.95,3.25,3.25,0,0,0-.9,2.32,4.06,4.06,0,0,0,1.11,2.81,19.67,19.67,0,0,0,4.13,3.06,26.28,26.28,0,0,1,5.13,3.76,11.19,11.19,0,0,1,2.29,3.52A12,12,0,0,1,1032.6,539.09Z"/><path class="cls-3" d="M1047.71,529.46l2.36-4.67,7.73-13.4h9.92l-9.92,16.07,10.59,23.1h-9.81L1051.51,534l-3.65,3.3v13.26h-9.36V495.85h9.36v25.77l-.43,7.84Z"/><path class="cls-3" d="M1106.92,510.65a11,11,0,0,1,3.37.53l-1.09,9.07a7.86,7.86,0,0,0-2.56-.35,6,6,0,0,0-5.24,2.69q-1.83,2.68-1.83,7.82v20.15h-9.35V511.39h7.7l1,6.12h.32a14.25,14.25,0,0,1,3.37-5.27A6.3,6.3,0,0,1,1106.92,510.65Z"/><path class="cls-3" d="M1114.16,501.16a5,5,0,0,1,1.35-3.67,5.11,5.11,0,0,1,3.78-1.36,4.7,4.7,0,0,1,5,5,4.84,4.84,0,0,1-1.41,3.71,5.06,5.06,0,0,1-3.62,1.32,5.21,5.21,0,0,1-3.72-1.32A4.84,4.84,0,0,1,1114.16,501.16Zm9.74,49.4h-9.35V511.39h9.35Z"/><path class="cls-3" d="M1160.11,511.46V517l-4.68,1a12.52,12.52,0,0,1,1.37,6.19q0,6.22-3.37,9.74t-9.42,3.51a8.76,8.76,0,0,1-2.6-.28,10.83,10.83,0,0,0-1.27,1.34,2.8,2.8,0,0,0-.6,1.83q0,2.46,4.26,2.46h5.66c3.33,0,5.89.89,7.68,2.69s2.69,4.49,2.69,8.1q0,6.82-4.57,10.55t-13.15,3.72q-6.51,0-10-2.83a9.76,9.76,0,0,1-3.52-8.07,8.83,8.83,0,0,1,2-5.74,11.26,11.26,0,0,1,5.55-3.61,6.72,6.72,0,0,1-2.93-2.18,5.47,5.47,0,0,1-1.15-3.44,6.12,6.12,0,0,1,.36-2.16,6.55,6.55,0,0,1,1-1.83,18.4,18.4,0,0,1,2.65-2.55,10.09,10.09,0,0,1-3.83-4.54,16,16,0,0,1-1.41-6.78q0-6.43,3.38-10t9.67-3.52a16.19,16.19,0,0,1,2.74.27,14.43,14.43,0,0,1,2.35.54Zm-23,44.79a4.44,4.44,0,0,0,1.46,3.57,6.24,6.24,0,0,0,4.17,1.25q4.24,0,6.38-1.62a5.25,5.25,0,0,0,2.12-4.43,3.79,3.79,0,0,0-1.14-3.13c-.76-.61-2.18-.91-4.27-.91h-4.53a3.72,3.72,0,0,0-3,1.42A6,6,0,0,0,1137.08,556.25Zm2.88-32.06c0,4.62,1.31,6.92,3.91,6.92s3.79-2.33,3.79-7-1.26-7.17-3.79-7.17S1140,519.36,1140,524.19Z"/><path class="cls-3" d="M1178.43,543.35a10.74,10.74,0,0,0,4.25-1v7.32q-2.28,1.58-6.86,1.58-5.08,0-7.55-3t-2.47-9.13V518.81H1162v-4.18l4.88-3.38,2.4-8.3h6v8.44h7.1v7.42h-7.1v20.6Q1175.26,543.36,1178.43,543.35Z"/><path class="cls-3" d="M1187.85,501.16a5,5,0,0,1,1.35-3.67,5.08,5.08,0,0,1,3.78-1.36,4.7,4.7,0,0,1,5,5,4.84,4.84,0,0,1-1.41,3.71,5.07,5.07,0,0,1-3.62,1.32,5.23,5.23,0,0,1-3.73-1.32A4.87,4.87,0,0,1,1187.85,501.16Zm9.74,49.4h-9.36V511.39h9.36Z"/><path class="cls-3" d="M1233.8,511.46V517l-4.68,1a12.52,12.52,0,0,1,1.37,6.19q0,6.22-3.37,9.74t-9.42,3.51a8.84,8.84,0,0,1-2.61-.28,11.56,11.56,0,0,0-1.26,1.34,2.8,2.8,0,0,0-.6,1.83q0,2.46,4.25,2.46h5.66c3.33,0,5.89.89,7.69,2.69s2.69,4.49,2.69,8.1q0,6.82-4.57,10.55t-13.15,3.72q-6.51,0-10-2.83a9.73,9.73,0,0,1-3.52-8.07,8.83,8.83,0,0,1,2-5.74,11.22,11.22,0,0,1,5.55-3.61,6.75,6.75,0,0,1-2.94-2.18,5.46,5.46,0,0,1-1.14-3.44,6.35,6.35,0,0,1,.35-2.16,6.85,6.85,0,0,1,1-1.83,17.87,17.87,0,0,1,2.65-2.55,10,10,0,0,1-3.83-4.54,16,16,0,0,1-1.41-6.78q0-6.43,3.38-10t9.66-3.52a16.2,16.2,0,0,1,2.75.27,14.7,14.7,0,0,1,2.35.54Zm-23,44.79a4.44,4.44,0,0,0,1.46,3.57,6.23,6.23,0,0,0,4.16,1.25q4.26,0,6.39-1.62a5.27,5.27,0,0,0,2.12-4.43,3.79,3.79,0,0,0-1.14-3.13c-.76-.61-2.19-.91-4.27-.91H1215a3.7,3.7,0,0,0-3,1.42A6,6,0,0,0,1210.77,556.25Zm2.88-32.06c0,4.62,1.3,6.92,3.9,6.92s3.8-2.33,3.8-7-1.26-7.17-3.8-7.17S1213.65,519.36,1213.65,524.19Z"/><path class="cls-3" d="M257.29,597.86v5.49l-4.68,1a12.52,12.52,0,0,1,1.37,6.19q0,6.23-3.37,9.74t-9.42,3.51a8.84,8.84,0,0,1-2.61-.28,12.43,12.43,0,0,0-1.26,1.34,2.8,2.8,0,0,0-.6,1.83q0,2.46,4.26,2.46h5.66c3.32,0,5.88.89,7.68,2.69S257,636.37,257,640q0,6.82-4.57,10.55t-13.15,3.72q-6.51,0-10-2.83a9.73,9.73,0,0,1-3.52-8.07,8.83,8.83,0,0,1,2-5.74,11.22,11.22,0,0,1,5.55-3.61,6.72,6.72,0,0,1-2.93-2.18,5.41,5.41,0,0,1-1.15-3.44,6.35,6.35,0,0,1,.35-2.16,6.85,6.85,0,0,1,1-1.83,18.4,18.4,0,0,1,2.65-2.55,10,10,0,0,1-3.83-4.54,16,16,0,0,1-1.41-6.78q0-6.43,3.38-9.95t9.67-3.52a16.19,16.19,0,0,1,2.74.27,14.7,14.7,0,0,1,2.35.54Zm-23,44.79a4.44,4.44,0,0,0,1.46,3.57,6.24,6.24,0,0,0,4.17,1.25q4.25,0,6.38-1.62a5.27,5.27,0,0,0,2.12-4.43,3.79,3.79,0,0,0-1.14-3.13c-.76-.61-2.18-.91-4.27-.91h-4.54a3.71,3.71,0,0,0-3,1.42A6,6,0,0,0,234.26,642.65Zm2.88-32.06c0,4.62,1.3,6.92,3.91,6.92s3.79-2.33,3.79-7-1.26-7.17-3.79-7.17S237.14,605.76,237.14,610.59Z"/><path class="cls-3" d="M278.7,597.05a11,11,0,0,1,3.37.53L281,606.65a7.86,7.86,0,0,0-2.56-.35,6,6,0,0,0-5.24,2.69q-1.83,2.68-1.83,7.82V637H262V597.79h7.7l1.05,6.12h.32a14.25,14.25,0,0,1,3.37-5.27A6.3,6.3,0,0,1,278.7,597.05Z"/><path class="cls-3" d="M285.94,587.56a5,5,0,0,1,1.35-3.67,5.15,5.15,0,0,1,3.78-1.36,5,5,0,0,1,3.66,1.36,4.93,4.93,0,0,1,1.37,3.67,4.82,4.82,0,0,1-1.41,3.71,5.06,5.06,0,0,1-3.62,1.32,5.21,5.21,0,0,1-3.72-1.32A4.82,4.82,0,0,1,285.94,587.56Zm9.74,49.4h-9.35V597.79h9.35Z"/><path class="cls-3" d="M342.58,637V613.61q0-8.61-4.26-8.61a4.55,4.55,0,0,0-4.43,3.08c-.89,2-1.33,5.33-1.33,9.86v19h-9.42V613.61q0-8.61-4.33-8.61a4.57,4.57,0,0,0-4.39,3.06c-.92,2-1.37,5.4-1.37,10.09V637h-9.36V597.79h7.42l1.13,5h.59a9.57,9.57,0,0,1,3.85-4.38,10.47,10.47,0,0,1,5.23-1.39q7.17,0,9.56,6.79h.35q3-6.78,9.6-6.79a9.17,9.17,0,0,1,7.89,3.66Q352,604.37,352,611.4V637Z"/><path class="cls-3" d="M359.49,632.14a5.82,5.82,0,0,1,1.46-4.25,5.76,5.76,0,0,1,4.34-1.52,5.2,5.2,0,0,1,5.83,5.77,5.69,5.69,0,0,1-1.53,4.25,5.83,5.83,0,0,1-4.3,1.52,5.76,5.76,0,0,1-4.33-1.53A5.88,5.88,0,0,1,359.49,632.14Z"/><path class="cls-3" d="M429.1,637h-9.57V614.42H406.91V637h-9.56v-51.4h9.56V606h12.62V585.56h9.57Z"/><path class="cls-3" d="M443.86,637l-10.23-39.17h9.7l5,22.68q.32,1.57.75,4.62c.3,2,.48,3.49.55,4.38h.14c0-.71.12-1.71.3-3s.35-2.52.54-3.62,2-9.44,5.42-25h9.7L455.46,637Z"/><path class="cls-3" d="M488.9,637,487,631.61h-.21a13.24,13.24,0,0,1-4.29,4.75,10.86,10.86,0,0,1-5.59,1.3,8.09,8.09,0,0,1-6.8-3.24q-2.47-3.23-2.48-9,0-6.18,3.4-9.19t10.14-3.32l5.2-.21v-2.81q0-5.49-4.74-5.49c-2.35,0-5,.92-8.09,2.74l-3.24-6.47A23.35,23.35,0,0,1,483,597q6.21,0,9.47,3.57t3.25,10.11V637Zm-8.12-6.61a4.69,4.69,0,0,0,4.09-2.31,10.91,10.91,0,0,0,1.53-6.13V618.6l-2.88.15a6.5,6.5,0,0,0-4.69,1.82,7.13,7.13,0,0,0-1.5,4.93Q477.33,630.35,480.78,630.35Z"/><path class="cls-3" d="M513.61,637.66q-5.42,0-8.54-5.34t-3.13-14.88q0-9.56,3.06-15t8.44-5.42a8,8,0,0,1,4.62,1.32,12,12,0,0,1,3.6,4.45h.57q-.43-5.34-.43-7.49V582.25h9.36V637h-7l-1.58-5.1h-.31Q519.3,637.67,513.61,637.66Zm3-7.91a4,4,0,0,0,3.79-2.37c.8-1.59,1.23-4.46,1.3-8.63v-1.24q0-6.81-1.21-9.59a4.12,4.12,0,0,0-4-2.78q-2.6,0-3.78,3.18a28.13,28.13,0,0,0-1.18,9.26q0,6.09,1.2,9.13C513.57,628.74,514.85,629.75,516.64,629.75Z"/><path class="cls-3" d="M563.08,637l-10.23-39.17h9.7l5,22.68c.21,1,.46,2.59.76,4.62s.47,3.49.54,4.38H569c0-.71.13-1.71.3-3s.36-2.52.55-3.62,2-9.44,5.41-25h9.7L574.68,637Z"/><path class="cls-3" d="M588.6,587.56a5,5,0,0,1,1.35-3.67,5.15,5.15,0,0,1,3.78-1.36,5,5,0,0,1,3.66,1.36,4.93,4.93,0,0,1,1.37,3.67,4.82,4.82,0,0,1-1.41,3.71,5.06,5.06,0,0,1-3.62,1.32,5.21,5.21,0,0,1-3.72-1.32A4.82,4.82,0,0,1,588.6,587.56Zm9.74,49.4H589V597.79h9.35Z"/><path class="cls-3" d="M615.71,637h-9.36V582.25h9.36Z"/><path class="cls-3" d="M651.64,637.66q-5.42,0-8.55-5.34T640,617.44q0-9.56,3.06-15t8.44-5.42a8,8,0,0,1,4.62,1.32,12.07,12.07,0,0,1,3.61,4.45h.56q-.42-5.34-.42-7.49V582.25h9.35V637h-7l-1.58-5.1h-.32Q657.34,637.67,651.64,637.66Zm3-7.91a4,4,0,0,0,3.8-2.37c.79-1.59,1.23-4.46,1.3-8.63v-1.24q0-6.81-1.22-9.59a4.11,4.11,0,0,0-4-2.78q-2.59,0-3.78,3.18a28.18,28.18,0,0,0-1.17,9.26q0,6.09,1.19,9.13T654.66,629.75Z"/><path class="cls-3" d="M698.22,637l-1.16-5h-.49a10.16,10.16,0,0,1-3.71,4.2,10.06,10.06,0,0,1-5.51,1.53q-5.26,0-8-3.59t-2.7-10.72V597.79h9.45V621.1a15.87,15.87,0,0,0,1,6.47,3.43,3.43,0,0,0,3.31,2.18,4.62,4.62,0,0,0,4.41-3q1.39-3,1.39-10.16V597.79h9.46V637Z"/><path class="cls-3" d="M759.53,597.86v5.49l-4.68,1a12.52,12.52,0,0,1,1.38,6.19q0,6.23-3.38,9.74t-9.42,3.51a8.76,8.76,0,0,1-2.6-.28,11.59,11.59,0,0,0-1.27,1.34,2.8,2.8,0,0,0-.6,1.83q0,2.46,4.26,2.46h5.66c3.33,0,5.89.89,7.68,2.69s2.69,4.49,2.69,8.1q0,6.82-4.57,10.55t-13.15,3.72q-6.51,0-10-2.83a9.75,9.75,0,0,1-3.51-8.07,8.82,8.82,0,0,1,2-5.74,11.26,11.26,0,0,1,5.55-3.61,6.72,6.72,0,0,1-2.93-2.18,5.46,5.46,0,0,1-1.14-3.44,6.12,6.12,0,0,1,.35-2.16,6.82,6.82,0,0,1,1-1.83,18.4,18.4,0,0,1,2.65-2.55,10.09,10.09,0,0,1-3.83-4.54,16,16,0,0,1-1.4-6.78q0-6.43,3.37-9.95t9.67-3.52a16.19,16.19,0,0,1,2.74.27,14.87,14.87,0,0,1,2.36.54Zm-23,44.79a4.44,4.44,0,0,0,1.46,3.57,6.24,6.24,0,0,0,4.17,1.25q4.25,0,6.38-1.62a5.26,5.26,0,0,0,2.13-4.43,3.8,3.8,0,0,0-1.15-3.13c-.76-.61-2.18-.91-4.27-.91h-4.53a3.69,3.69,0,0,0-3,1.42A5.93,5.93,0,0,0,736.5,642.65Zm2.89-32.06c0,4.62,1.3,6.92,3.9,6.92s3.79-2.33,3.79-7-1.26-7.17-3.79-7.17S739.39,605.76,739.39,610.59Z"/><path class="cls-3" d="M793.25,617.3q0,9.65-4.08,15A13.3,13.3,0,0,1,778,637.66a13.11,13.11,0,0,1-5.84-1.27l-2,3.94-5.7-2.67,2.74-5.31A18.66,18.66,0,0,1,764,626a30.18,30.18,0,0,1-1.16-8.74q0-9.52,4-14.88a13.27,13.27,0,0,1,11.22-5.37,13,13,0,0,1,6.19,1.45l1.79-3.38,5.62,2.6-2.53,5Q793.25,607.89,793.25,617.3Zm-21.1,0v2.57l.07,2.46,8.58-16.7a6.45,6.45,0,0,0-2.74-.56Q772.15,605.07,772.15,617.3Zm11.88,0-.14-4.11-8.22,16.07a5.6,5.6,0,0,0,2.39.42c1.94,0,3.43-1,4.44-3.13S784,621.38,784,617.3Z"/><path class="cls-3" d="M816.52,597.05a11,11,0,0,1,3.37.53l-1.09,9.07a7.86,7.86,0,0,0-2.56-.35A6,6,0,0,0,811,609q-1.83,2.68-1.83,7.82V637h-9.35V597.79h7.7l1.05,6.12h.32a14.25,14.25,0,0,1,3.37-5.27A6.3,6.3,0,0,1,816.52,597.05Z"/><path class="cls-3" d="M838.53,637.66a14.13,14.13,0,0,1-11.59-5.22q-4.23-5.22-4.23-14.78t3.83-15.16a12.34,12.34,0,0,1,10.69-5.45,12.21,12.21,0,0,1,10.09,4.66q3.69,4.66,3.69,13.06v5H832.2c.07,3.5.78,6.09,2.14,7.79A6.82,6.82,0,0,0,840,630.1a18.24,18.24,0,0,0,9.35-2.85V635A20.51,20.51,0,0,1,838.53,637.66Zm-1.37-33.4a3.82,3.82,0,0,0-3.31,2.13c-.87,1.42-1.37,3.61-1.51,6.59h9.49a14.18,14.18,0,0,0-1.3-6.5A3.75,3.75,0,0,0,837.16,604.26Z"/><path class="cls-3" d="M913.87,637V613.61q0-8.61-4.26-8.61a4.55,4.55,0,0,0-4.43,3.08c-.89,2-1.33,5.33-1.33,9.86v19h-9.43V613.61q0-8.61-4.32-8.61a4.56,4.56,0,0,0-4.39,3.06q-1.38,3.06-1.38,10.09V637H875V597.79h7.42l1.13,5h.59a9.52,9.52,0,0,1,3.85-4.38,10.46,10.46,0,0,1,5.22-1.39c4.79,0,8,2.27,9.57,6.79h.35q3-6.78,9.6-6.79a9.18,9.18,0,0,1,7.89,3.66q2.68,3.66,2.69,10.69V637Z"/><path class="cls-3" d="M945.3,637.66a14.13,14.13,0,0,1-11.59-5.22q-4.23-5.22-4.23-14.78t3.83-15.16A12.33,12.33,0,0,1,944,597.05a12.18,12.18,0,0,1,10.08,4.66q3.7,4.66,3.7,13.06v5H939c.07,3.5.78,6.09,2.14,7.79a6.82,6.82,0,0,0,5.63,2.55,18.24,18.24,0,0,0,9.35-2.85V635A20.51,20.51,0,0,1,945.3,637.66Zm-1.38-33.4a3.82,3.82,0,0,0-3.3,2.13c-.87,1.42-1.37,3.61-1.51,6.59h9.49a14.18,14.18,0,0,0-1.3-6.5A3.75,3.75,0,0,0,943.92,604.26Z"/><path class="cls-3" d="M974.26,637.66q-5.4,0-8.54-5.34t-3.13-14.88q0-9.56,3.06-15t8.44-5.42a8,8,0,0,1,4.62,1.32,12.07,12.07,0,0,1,3.61,4.45h.56q-.42-5.34-.42-7.49V582.25h9.35V637h-7l-1.59-5.1H983Q980,637.67,974.26,637.66Zm3-7.91a4,4,0,0,0,3.79-2.37c.8-1.59,1.24-4.46,1.31-8.63v-1.24q0-6.81-1.22-9.59a4.12,4.12,0,0,0-4-2.78q-2.59,0-3.78,3.18a28.18,28.18,0,0,0-1.17,9.26c0,4.06.39,7.1,1.19,9.13S975.51,629.75,977.29,629.75Z"/><path class="cls-3" d="M1035.16,597.05q5.34,0,8.4,5.31t3.06,14.94q0,9.75-3.08,15.05t-8.53,5.31a9.29,9.29,0,0,1-4.65-1.14,11.48,11.48,0,0,1-3.82-4h-.6l-1.58,4.47h-6.89V582.25h9.35v12.8c0,.54,0,1.1,0,1.69s-.18,2.63-.46,6.15h.49a12,12,0,0,1,3.73-4.54A8.34,8.34,0,0,1,1035.16,597.05Zm-3.24,8a4,4,0,0,0-3.85,2.5q-1.17,2.49-1.25,8.78v1q0,6.82,1.22,9.6a4.08,4.08,0,0,0,4,2.78q5.07,0,5.06-12.45Q1037.05,605,1031.92,605Z"/><path class="cls-3" d="M1052.87,587.56a5,5,0,0,1,1.36-3.67,5.11,5.11,0,0,1,3.78-1.36,5,5,0,0,1,3.65,1.36,4.89,4.89,0,0,1,1.37,3.67,4.82,4.82,0,0,1-1.4,3.71,5.09,5.09,0,0,1-3.62,1.32,5.23,5.23,0,0,1-3.73-1.32A4.82,4.82,0,0,1,1052.87,587.56Zm9.74,49.4h-9.35V597.79h9.35Z"/><path class="cls-3" d="M1080,637h-9.35V582.25H1080Z"/><path class="cls-3" d="M1097.17,637h-9.35V582.25h9.35Z"/><path class="cls-3" d="M1119.46,637.66a14.1,14.1,0,0,1-11.58-5.22q-4.25-5.22-4.24-14.78t3.83-15.16a12.35,12.35,0,0,1,10.69-5.45,12.2,12.2,0,0,1,10.09,4.66q3.69,4.66,3.69,13.06v5h-18.81c.07,3.5.79,6.09,2.15,7.79a6.8,6.8,0,0,0,5.62,2.55,18.18,18.18,0,0,0,9.35-2.85V635A20.48,20.48,0,0,1,1119.46,637.66Zm-1.37-33.4a3.82,3.82,0,0,0-3.31,2.13,14.38,14.38,0,0,0-1.51,6.59h9.49a14.06,14.06,0,0,0-1.3-6.5A3.74,3.74,0,0,0,1118.09,604.26Z"/><path class="cls-3" d="M1148.43,637.66q-5.42,0-8.54-5.34t-3.13-14.88q0-9.56,3.06-15c2-3.61,4.85-5.42,8.43-5.42a8.08,8.08,0,0,1,4.63,1.32,12,12,0,0,1,3.6,4.45h.56q-.42-5.34-.42-7.49V582.25H1166V637h-7l-1.58-5.1h-.32Q1154.13,637.67,1148.43,637.66Zm3-7.91a4,4,0,0,0,3.8-2.37c.8-1.59,1.23-4.46,1.3-8.63v-1.24q0-6.81-1.21-9.59a4.12,4.12,0,0,0-4-2.78q-2.61,0-3.78,3.18a27.87,27.87,0,0,0-1.18,9.26q0,6.09,1.19,9.13T1151.45,629.75Z"/><path class="cls-3" d="M1188.3,637.66a14.13,14.13,0,0,1-11.59-5.22q-4.23-5.22-4.23-14.78t3.83-15.16a12.33,12.33,0,0,1,10.69-5.45,12.18,12.18,0,0,1,10.08,4.66q3.7,4.66,3.7,13.06v5H1182c.07,3.5.78,6.09,2.14,7.79a6.82,6.82,0,0,0,5.63,2.55,18.24,18.24,0,0,0,9.35-2.85V635A20.51,20.51,0,0,1,1188.3,637.66Zm-1.38-33.4a3.82,3.82,0,0,0-3.3,2.13c-.87,1.42-1.37,3.61-1.51,6.59h9.49a14.18,14.18,0,0,0-1.3-6.5A3.75,3.75,0,0,0,1186.92,604.26Z"/><path class="cls-3" d="M1220.57,629.75a10.74,10.74,0,0,0,4.25-1v7.32c-1.52,1-3.81,1.58-6.85,1.58q-5.1,0-7.56-3T1208,625.5V605.21h-3.8V601l4.89-3.38,2.39-8.3h6v8.44h7.1v7.42h-7.1v20.6Q1217.41,629.76,1220.57,629.75Z"/><path class="cls-3" d="M1234,620.4v-2.46a15.38,15.38,0,0,1,1-5.89,18.17,18.17,0,0,1,3.78-5.4,19.69,19.69,0,0,0,3.32-4.46,10.18,10.18,0,0,0,.72-4.12,6.16,6.16,0,0,0-1.05-3.72,3.86,3.86,0,0,0-3.34-1.44,14.82,14.82,0,0,0-8,2.7l-3.31-7a21.24,21.24,0,0,1,12.24-3.76q5.8,0,9.16,3.22T1252,597a17.66,17.66,0,0,1-1.16,6.81,24.92,24.92,0,0,1-4.81,6.73,18.89,18.89,0,0,0-3,4,9.14,9.14,0,0,0-.65,3.78v2.15Zm-1.65,11.74a5.76,5.76,0,0,1,1.5-4.27,5.84,5.84,0,0,1,10.17,4.27,5.31,5.31,0,0,1-5.83,5.77,5.86,5.86,0,0,1-4.33-1.52A5.76,5.76,0,0,1,1232.38,632.14Z"/></svg>
