<svg id="Layer_1" data-name="Layer 1" xmlns="http://www.w3.org/2000/svg" width="339" height="203" viewBox="0 0 339 203"><defs><style>.cls-1{fill:#1f2532;}.cls-2{fill:#ff9207;}.cls-3{fill:#fff;}</style></defs><title>privatsnak</title><rect class="cls-1" x="19" y="22" width="280" height="78" rx="12"/><polyline class="cls-1" points="120.29 96.56 73.7 71.3 42.71 128.44"/><rect class="cls-2" x="97" y="100" width="226" height="68.15" rx="12"/><polyline class="cls-2" points="165.46 169 140.99 154.44 121.59 192.7"/><path class="cls-3" d="M80.66,52q0,6.82-3.44,10.47t-10,3.65h-2V81.64h-8V38.81H68.18Q80.66,38.81,80.66,52ZM65.28,59.2H66.8a5.53,5.53,0,0,0,4.37-1.61q1.44-1.61,1.44-5.27a7.86,7.86,0,0,0-1.32-5,5,5,0,0,0-4.08-1.62H65.28Z"/><path class="cls-3" d="M100,65V81.64h-8V38.81h10.43q6.63,0,9.77,3.14t3.15,9.58q0,8.11-5.48,11.34l8.24,18.77h-8.53L102.86,65Zm0-6.85h2a4.79,4.79,0,0,0,4.05-1.6,7.71,7.71,0,0,0,1.23-4.76c0-2.19-.44-3.74-1.31-4.67a5.27,5.27,0,0,0-4-1.39h-2Z"/><path class="cls-3" d="M129.49,81.64V38.81H137V81.64Z"/><path class="cls-3" d="M170.47,38.81h8L168.42,81.64H158.28l-10-42.83h8L161.88,65a96.39,96.39,0,0,1,1.5,9.58q.62-5.3,1.55-9.58Z"/><path class="cls-3" d="M207.76,81.64,205.3,70.83H194.13l-2.46,10.81h-8l10.6-43h10.81l10.64,43Zm-4-17.87-2.28-10c-.14-.6-.45-2.12-.93-4.55s-.76-4.06-.86-4.88c-.25,1.68-.58,3.53-1,5.55s-1.4,6.64-3,13.84Z"/><path class="cls-3" d="M236.64,81.64H228.7V45.81h-8.2v-7h24.34v7h-8.2Z"/><path class="cls-3" d="M164.82,144.84q0,6-3,9.2t-8.74,3.19a19.15,19.15,0,0,1-9.52-2.2v-7.88q4.8,3.14,8.81,3.14a4.47,4.47,0,0,0,3.45-1.26,4.89,4.89,0,0,0,1.15-3.43,6.25,6.25,0,0,0-1.37-3.91,20.62,20.62,0,0,0-4.54-3.94,20.32,20.32,0,0,1-4.18-3.65,13.2,13.2,0,0,1-2.2-3.91,15.17,15.17,0,0,1-.77-5q0-5.5,3.06-8.73a10.79,10.79,0,0,1,8.22-3.22,18,18,0,0,1,9.46,2.75L162,122.34a25.19,25.19,0,0,0-2.94-1.47,8.48,8.48,0,0,0-3.3-.64,3.6,3.6,0,0,0-3,1.27,5.36,5.36,0,0,0-1,3.47,6,6,0,0,0,1.24,3.78,18.38,18.38,0,0,0,4.35,3.67,18,18,0,0,1,5.85,5.74A13.37,13.37,0,0,1,164.82,144.84Z"/><path class="cls-3" d="M206.1,156.64h-9.73l-13.24-31h-.38a37.47,37.47,0,0,1,.73,7.62v23.4H176.1V113.81h9.78L199,144.52h.32a42,42,0,0,1-.56-7.33V113.81h7.33Z"/><path class="cls-3" d="M239.93,156.64l-2.46-10.81H226.31l-2.46,10.81h-8l10.6-43h10.81l10.64,43Zm-4-17.87-2.28-10c-.14-.6-.44-2.12-.92-4.55s-.77-4.06-.87-4.88q-.37,2.52-1,5.55t-3.05,13.84Z"/><path class="cls-3" d="M284.4,156.64h-8.5l-7-18.31-3.19,3.2v15.11h-8V113.81h8v21.24l2.78-6.41,7.29-14.83h8.53l-9.9,18.55Z"/></svg>
