<svg id="Layer_1" data-name="Layer 1" xmlns="http://www.w3.org/2000/svg" width="801.5" height="936.21" viewBox="0 0 801.5 936.21"><defs><style>.cls-1,.cls-3,.cls-4,.cls-5{fill:none;stroke-linecap:round;stroke-miterlimit:10;}.cls-1{stroke:#f6b28d;stroke-width:100px;}.cls-2{fill:#f39782;}.cls-3{stroke:#ef7f8d;}.cls-3,.cls-4{stroke-width:10px;}.cls-4{stroke:#936037;}.cls-5{stroke:#f08082;stroke-width:8px;}</style></defs><title>replay</title><path class="cls-1" d="M400.75,184.71c193.71,0,350.75,157,350.75,350.75s-157,350.75-350.75,350.75S50,729.17,50,535.46"/><circle class="cls-2" cx="392.83" cy="116.13" r="103.36"/><line class="cls-3" x1="46.85" y1="486.02" x2="46.85" y2="536.9"/><line class="cls-4" x1="429.3" y1="5" x2="420.8" y2="28.29"/><line class="cls-4" x1="328.14" y1="44.12" x2="312.48" y2="24.9"/><line class="cls-4" x1="503.72" y1="72.89" x2="480.71" y2="82.14"/><circle class="cls-2" cx="347.1" cy="215.52" r="103.36"/><line class="cls-4" x1="271.82" y1="305.04" x2="288.4" y2="286.6"/><line class="cls-4" x1="380.28" y1="306.46" x2="387.64" y2="330.14"/><line class="cls-4" x1="228.09" y1="214.3" x2="252.89" y2="214.29"/><path class="cls-5" d="M306.21,127.06a103.36,103.36,0,0,1,134.32,57.65"/></svg>
