<svg id="Layer_1" data-name="Layer 1" xmlns="http://www.w3.org/2000/svg" width="650" height="420" viewBox="0 0 650 420"><defs><style>.cls-1{fill:#5eb3d9;}.cls-2{fill:#fff;}</style></defs><title>send_videre</title><rect class="cls-1" x="42.1" y="26.99" width="556" height="385" rx="66.35"/><path class="cls-2" d="M161.49,185.54q0,7.22-3.64,11t-10.5,3.83a23.15,23.15,0,0,1-11.42-2.63v-9.46q5.76,3.77,10.58,3.76a5.33,5.33,0,0,0,4.13-1.51,5.83,5.83,0,0,0,1.39-4.11,7.51,7.51,0,0,0-1.65-4.7,24.64,24.64,0,0,0-5.45-4.73,24.47,24.47,0,0,1-5-4.37,15.74,15.74,0,0,1-2.64-4.7,17.91,17.91,0,0,1-.93-6q0-6.61,3.67-10.48a13,13,0,0,1,9.87-3.87,21.53,21.53,0,0,1,11.35,3.31l-3.16,7.66a32.4,32.4,0,0,0-3.54-1.76,10.22,10.22,0,0,0-3.95-.77,4.34,4.34,0,0,0-3.57,1.53,6.42,6.42,0,0,0-1.25,4.17,7.18,7.18,0,0,0,1.5,4.53,21.85,21.85,0,0,0,5.22,4.4,21.6,21.6,0,0,1,7,6.89A16,16,0,0,1,161.49,185.54Z"/><path class="cls-2" d="M181.7,200.41a14.1,14.1,0,0,1-11.58-5.22q-4.25-5.22-4.24-14.78t3.83-15.15a12.33,12.33,0,0,1,10.69-5.45,12.16,12.16,0,0,1,10.09,4.66q3.69,4.65,3.69,13.06v5H175.37q.1,5.23,2.15,7.79a6.82,6.82,0,0,0,5.62,2.54,18.26,18.26,0,0,0,9.35-2.84v7.7A20.58,20.58,0,0,1,181.7,200.41ZM180.33,167a3.8,3.8,0,0,0-3.3,2.13,14.27,14.27,0,0,0-1.52,6.59H185a14.22,14.22,0,0,0-1.3-6.5A3.76,3.76,0,0,0,180.33,167Z"/><path class="cls-2" d="M219.88,199.71V176.37a15.81,15.81,0,0,0-1-6.44,3.43,3.43,0,0,0-3.3-2.18,4.63,4.63,0,0,0-4.43,3q-1.41,3-1.41,10.14v18.81h-9.35V160.55h7.42l1.12,5h.6a9.67,9.67,0,0,1,9.14-5.76q5.34,0,8,3.65t2.65,10.69v25.56Z"/><path class="cls-2" d="M247.16,200.41q-5.41,0-8.54-5.34t-3.13-14.87q0-9.57,3.06-15t8.44-5.41a8,8,0,0,1,4.62,1.32,11.91,11.91,0,0,1,3.6,4.44h.57q-.43-5.34-.43-7.49V145h9.36v54.7h-7l-1.58-5.1h-.31Q252.85,200.41,247.16,200.41Zm3-7.91a4,4,0,0,0,3.79-2.37q1.2-2.37,1.3-8.63v-1.23q0-6.83-1.21-9.6a4.12,4.12,0,0,0-4-2.78q-2.6,0-3.78,3.18a28.2,28.2,0,0,0-1.18,9.27q0,6.07,1.2,9.12C247.12,191.49,248.4,192.5,250.19,192.5Z"/><path class="cls-2" d="M296.63,199.71,286.4,160.55h9.7l5,22.67c.21,1.06.46,2.6.76,4.62s.47,3.49.54,4.38h.14c0-.7.13-1.71.3-3s.36-2.52.55-3.62,2-9.45,5.41-25h9.7l-10.26,39.16Z"/><path class="cls-2" d="M322.15,150.31a5,5,0,0,1,1.35-3.67,5.14,5.14,0,0,1,3.78-1.35,4.69,4.69,0,0,1,5,5A4.81,4.81,0,0,1,330.9,154a5.06,5.06,0,0,1-3.62,1.32,5.21,5.21,0,0,1-3.72-1.32A4.81,4.81,0,0,1,322.15,150.31Zm9.74,49.4h-9.35V160.55h9.35Z"/><path class="cls-2" d="M350.21,200.41q-5.41,0-8.55-5.34t-3.13-14.87q0-9.57,3.06-15t8.44-5.41a8,8,0,0,1,4.62,1.32,12,12,0,0,1,3.61,4.44h.56q-.42-5.34-.42-7.49V145h9.35v54.7h-7l-1.58-5.1h-.32Q355.91,200.41,350.21,200.41Zm3-7.91a4,4,0,0,0,3.8-2.37c.79-1.58,1.23-4.46,1.3-8.63v-1.23q0-6.83-1.22-9.6a4.12,4.12,0,0,0-4-2.78q-2.6,0-3.78,3.18a28.24,28.24,0,0,0-1.17,9.27c0,4,.39,7.09,1.19,9.12S351.45,192.5,353.23,192.5Z"/><path class="cls-2" d="M390.07,200.41a14.1,14.1,0,0,1-11.58-5.22q-4.25-5.22-4.24-14.78t3.83-15.15a12.33,12.33,0,0,1,10.69-5.45,12.16,12.16,0,0,1,10.09,4.66q3.69,4.65,3.69,13.06v5H383.74q.11,5.23,2.15,7.79a6.82,6.82,0,0,0,5.62,2.54,18.32,18.32,0,0,0,9.36-2.84v7.7A20.61,20.61,0,0,1,390.07,200.41ZM388.7,167a3.81,3.81,0,0,0-3.3,2.13,14.29,14.29,0,0,0-1.51,6.59h9.49a14.22,14.22,0,0,0-1.3-6.5A3.75,3.75,0,0,0,388.7,167Z"/><path class="cls-2" d="M425.44,159.81a11,11,0,0,1,3.37.52l-1.08,9.07a8,8,0,0,0-2.57-.35,6,6,0,0,0-5.24,2.69c-1.22,1.8-1.83,4.4-1.83,7.82v20.15h-9.35V160.55h7.7l1.05,6.11h.32a14.12,14.12,0,0,1,3.38-5.27A6.24,6.24,0,0,1,425.44,159.81Z"/><path class="cls-2" d="M447.45,200.41a14.13,14.13,0,0,1-11.59-5.22q-4.23-5.22-4.23-14.78t3.83-15.15a12.31,12.31,0,0,1,10.69-5.45,12.17,12.17,0,0,1,10.09,4.66q3.69,4.65,3.69,13.06v5H441.12q.11,5.23,2.14,7.79a6.84,6.84,0,0,0,5.63,2.54,18.29,18.29,0,0,0,9.35-2.84v7.7A20.6,20.6,0,0,1,447.45,200.41ZM446.08,167a3.82,3.82,0,0,0-3.31,2.13,14.29,14.29,0,0,0-1.51,6.59h9.49a14.09,14.09,0,0,0-1.3-6.5A3.74,3.74,0,0,0,446.08,167Z"/><path class="cls-2" d="M497.51,192.5a10.89,10.89,0,0,0,4.25-1v7.31c-1.52,1.06-3.8,1.58-6.85,1.58q-5.1,0-7.56-3t-2.46-9.12V168h-3.8v-4.18L486,160.4l2.39-8.29h6v8.44h7.1V168h-7.1v20.6Q494.35,192.51,497.51,192.5Z"/><path class="cls-2" d="M506.93,150.31a4.94,4.94,0,0,1,1.36-3.67,5.1,5.1,0,0,1,3.77-1.35,5,5,0,0,1,3.66,1.35,4.9,4.9,0,0,1,1.37,3.67,4.84,4.84,0,0,1-1.4,3.71,5.1,5.1,0,0,1-3.63,1.32,5.22,5.22,0,0,1-3.72-1.32A4.81,4.81,0,0,1,506.93,150.31Zm9.74,49.4h-9.35V160.55h9.35Z"/><path class="cls-2" d="M534,199.71h-9.35V145H534Z"/><path class="cls-2" d="M147.81,286.81q-5.42,0-8.54-5.34t-3.13-14.87q0-9.57,3.06-15t8.44-5.41a8.11,8.11,0,0,1,4.62,1.31,12,12,0,0,1,3.6,4.45h.56q-.42-5.34-.42-7.49V231.41h9.35v54.7h-7l-1.58-5.1h-.32Q153.51,286.82,147.81,286.81Zm3-7.91a4,4,0,0,0,3.8-2.37q1.2-2.37,1.3-8.63v-1.23q0-6.82-1.21-9.6a4.12,4.12,0,0,0-4-2.78q-2.61,0-3.78,3.18a27.93,27.93,0,0,0-1.18,9.27q0,6.08,1.2,9.12T150.83,278.9Z"/><path class="cls-2" d="M172.91,236.71a4.94,4.94,0,0,1,1.36-3.67,5.11,5.11,0,0,1,3.78-1.35A5,5,0,0,1,181.7,233a5.61,5.61,0,0,1,0,7.38,5.09,5.09,0,0,1-3.62,1.32,5.23,5.23,0,0,1-3.73-1.32A4.82,4.82,0,0,1,172.91,236.71Zm9.74,49.4H173.3V246.94h9.35Z"/><path class="cls-2" d="M210.18,286.11V262.77a15.81,15.81,0,0,0-1-6.44,3.43,3.43,0,0,0-3.31-2.18,4.64,4.64,0,0,0-4.43,3q-1.39,3-1.4,10.14v18.81h-9.35V246.94h7.41l1.13,5h.6a9.67,9.67,0,0,1,9.14-5.76q5.34,0,8,3.65t2.65,10.69v25.56Z"/><path class="cls-2" d="M241.61,286.81A14.13,14.13,0,0,1,230,281.59q-4.23-5.22-4.23-14.78t3.83-15.15a13.24,13.24,0,0,1,20.78-.8q3.69,4.66,3.69,13.07v5H235.28c.07,3.49.78,6.09,2.14,7.78a6.82,6.82,0,0,0,5.63,2.55,18.29,18.29,0,0,0,9.35-2.84v7.69A20.51,20.51,0,0,1,241.61,286.81Zm-1.37-33.4a3.82,3.82,0,0,0-3.31,2.13,14.29,14.29,0,0,0-1.51,6.59h9.49a14.06,14.06,0,0,0-1.3-6.5A3.74,3.74,0,0,0,240.24,253.41Z"/><path class="cls-2" d="M284.32,286.11l-10.23-39.17h9.71l5,22.68q.31,1.59.75,4.62c.3,2,.48,3.49.55,4.38h.14a30.32,30.32,0,0,1,.3-3c.17-1.32.35-2.52.54-3.62s2-9.45,5.42-25h9.7l-10.27,39.17Z"/><path class="cls-2" d="M324.61,286.81A14.1,14.1,0,0,1,313,281.59q-4.25-5.22-4.24-14.78t3.83-15.15a12.33,12.33,0,0,1,10.69-5.45,12.18,12.18,0,0,1,10.09,4.65q3.69,4.66,3.69,13.07v5H318.28c.07,3.49.79,6.09,2.15,7.78a6.8,6.8,0,0,0,5.62,2.55,18.26,18.26,0,0,0,9.35-2.84v7.69A20.48,20.48,0,0,1,324.61,286.81Zm-1.37-33.4a3.8,3.8,0,0,0-3.3,2.13,14.27,14.27,0,0,0-1.52,6.59h9.5a14.18,14.18,0,0,0-1.3-6.5A3.76,3.76,0,0,0,323.24,253.41Z"/><path class="cls-2" d="M362.79,286.11V262.77a15.81,15.81,0,0,0-1-6.44,3.43,3.43,0,0,0-3.3-2.18,4.63,4.63,0,0,0-4.43,3q-1.41,3-1.41,10.14v18.81h-9.35V246.94h7.42l1.12,5h.6a9.67,9.67,0,0,1,9.14-5.76q5.34,0,8,3.65t2.65,10.69v25.56Z"/><path class="cls-2" d="M399.28,286.11V262.77a15.81,15.81,0,0,0-1-6.44,3.43,3.43,0,0,0-3.3-2.18,4.63,4.63,0,0,0-4.43,3q-1.41,3-1.41,10.14v18.81h-9.35V246.94h7.42l1.12,5h.6a9.67,9.67,0,0,1,9.14-5.76c3.57,0,6.23,1.22,8,3.65s2.66,6,2.66,10.69v25.56Z"/><path class="cls-2" d="M430.71,286.81a14.1,14.1,0,0,1-11.58-5.22q-4.25-5.22-4.24-14.78t3.84-15.15a13.23,13.23,0,0,1,20.77-.8q3.69,4.66,3.69,13.07v5h-18.8c.07,3.49.78,6.09,2.14,7.78a6.8,6.8,0,0,0,5.62,2.55,18.32,18.32,0,0,0,9.36-2.84v7.69A20.52,20.52,0,0,1,430.71,286.81Zm-1.37-33.4a3.81,3.81,0,0,0-3.3,2.13,14.29,14.29,0,0,0-1.51,6.59H434a14.18,14.18,0,0,0-1.3-6.5A3.75,3.75,0,0,0,429.34,253.41Z"/><path class="cls-2" d="M466.08,246.21a11.14,11.14,0,0,1,3.38.52l-1.09,9.07a8,8,0,0,0-2.57-.35,6,6,0,0,0-5.24,2.69c-1.22,1.8-1.83,4.4-1.83,7.82v20.15h-9.35V246.94h7.7l1.06,6.12h.31a14.12,14.12,0,0,1,3.38-5.27A6.24,6.24,0,0,1,466.08,246.21Z"/><path class="cls-2" d="M477.37,269.55v-2.46a15.42,15.42,0,0,1,1-5.89,18.42,18.42,0,0,1,3.78-5.4,19,19,0,0,0,3.32-4.46,10.15,10.15,0,0,0,.73-4.11,6.17,6.17,0,0,0-1.06-3.73,3.86,3.86,0,0,0-3.34-1.44,14.75,14.75,0,0,0-8,2.71l-3.3-7A21.26,21.26,0,0,1,482.78,234q5.81,0,9.16,3.22t3.36,8.95a17.79,17.79,0,0,1-1.16,6.8,24.84,24.84,0,0,1-4.82,6.73,18.63,18.63,0,0,0-3,4,9.08,9.08,0,0,0-.65,3.78v2.14Zm-1.66,11.74a5.77,5.77,0,0,1,1.5-4.27,5.86,5.86,0,0,1,10.18,4.27,5.32,5.32,0,0,1-5.84,5.77,5.85,5.85,0,0,1-4.32-1.51A5.76,5.76,0,0,1,475.71,281.29Z"/></svg>
