<svg id="Layer_1" data-name="Layer 1" xmlns="http://www.w3.org/2000/svg" width="1628" height="1080" viewBox="0 0 1628 1080"><defs><style>.cls-1{fill:#ffdd67;}.cls-2{fill:#fff;}</style></defs><title>settingskærm</title><rect class="cls-1" width="1628" height="1080" rx="187.84"/><path class="cls-2" d="M414.68,160.06V74.39h18.16v85.67Z"/><path class="cls-2" d="M525.46,160.06H507.59V121.79q0-7.08-2.52-10.63c-1.68-2.36-4.35-3.55-8-3.55q-7.5,0-10.84,5t-3.34,16.62v30.82H465V94.55h13.65l2.4,8.38h1a18.81,18.81,0,0,1,8.23-7.18,28,28,0,0,1,11.92-2.43q11.43,0,17.35,6.18t5.91,17.84Z"/><path class="cls-2" d="M576.61,161.23q-11.55,0-18.14-9t-6.59-24.84q0-16.11,6.71-25.11t18.48-9q12.38,0,18.87,9.61h.59a73,73,0,0,1-1.35-13.07v-21h17.93v91.18H599.4l-3.46-8.5h-.76Q589.09,161.22,576.61,161.23ZM582.88,147q6.86,0,10-4t3.49-13.53v-1.93q0-10.56-3.25-15.12t-10.58-4.57a10.5,10.5,0,0,0-9.29,5.07Q570,118,570,127.65t3.34,14.51A10.92,10.92,0,0,0,582.88,147Z"/><path class="cls-2" d="M689.5,140.6q0,10.08-7,15.35t-21,5.28a65.26,65.26,0,0,1-12.18-1,45.87,45.87,0,0,1-9.44-2.84V142.65a62.12,62.12,0,0,0,11.22,3.93,45.71,45.71,0,0,0,11,1.58q9.72,0,9.73-5.62a4.69,4.69,0,0,0-1.29-3.43,18.62,18.62,0,0,0-4.46-3c-2.1-1.11-4.92-2.41-8.43-3.9a53.11,53.11,0,0,1-11.11-5.86,16.37,16.37,0,0,1-5.15-6.18,20.28,20.28,0,0,1-1.61-8.58q0-8.73,6.76-13.51t19.19-4.77a54.58,54.58,0,0,1,23,5.15l-5.39,12.89q-4.92-2.1-9.2-3.45a28.82,28.82,0,0,0-8.73-1.35q-7.9,0-7.91,4.28a5,5,0,0,0,2.55,4.16q2.55,1.75,11.16,5.21a52,52,0,0,1,11.25,5.8,17.2,17.2,0,0,1,5.27,6.21A19,19,0,0,1,689.5,140.6Z"/><path class="cls-2" d="M743.05,147a38.7,38.7,0,0,0,11.25-2.05v13.3q-6.69,3-16.41,3-10.73,0-15.61-5.42t-4.9-16.26V108h-8.55v-7.56l9.84-6,5.16-13.83h11.42v14h18.34V108H735.25v31.58c0,2.54.72,4.41,2.14,5.62A8.46,8.46,0,0,0,743.05,147Z"/><path class="cls-2" d="M778.78,77.61q0-8.73,9.72-8.73t9.73,8.73a8.51,8.51,0,0,1-2.43,6.48q-2.43,2.31-7.3,2.31Q778.78,86.4,778.78,77.61Zm18.63,82.45H779.54V94.55h17.87Z"/><path class="cls-2" d="M846,160.06H828.16V68.88H846Z"/><path class="cls-2" d="M894.65,160.06H876.78V68.88h17.87Z"/><path class="cls-2" d="M924.64,77.61q0-8.73,9.73-8.73t9.72,8.73a8.51,8.51,0,0,1-2.43,6.48q-2.43,2.31-7.29,2.31Q924.64,86.4,924.64,77.61Zm18.63,82.45H925.4V94.55h17.87Z"/><path class="cls-2" d="M1034.49,160.06h-17.87V121.79q0-7.08-2.52-10.63c-1.68-2.36-4.35-3.55-8-3.55q-7.5,0-10.84,5t-3.34,16.62v30.82H974V94.55h13.66l2.4,8.38h1a18.89,18.89,0,0,1,8.24-7.18,28,28,0,0,1,11.92-2.43q11.43,0,17.34,6.18t5.92,17.84Z"/><path class="cls-2" d="M1121.9,94.55v9.08l-10.25,2.64a17.91,17.91,0,0,1,2.81,9.84q0,10.55-7.35,16.44t-20.42,5.88l-3.23-.17-2.63-.29q-2.76,2.1-2.76,4.68,0,3.87,9.85,3.87h11.13q10.79,0,16.44,4.63t5.65,13.59a20.16,20.16,0,0,1-9.58,17.82q-9.58,6.31-27.51,6.32-13.71,0-21-4.77a15.18,15.18,0,0,1-7.23-13.39,14,14,0,0,1,3.69-9.9q3.69-4,10.84-5.69a12,12,0,0,1-4.81-3.83,9.44,9.44,0,0,1,.12-11.9,25.2,25.2,0,0,1,6.27-4.89,17.59,17.59,0,0,1-8.17-7.15,21.68,21.68,0,0,1-3-11.6q0-10.73,7-16.58t19.92-5.86a49.67,49.67,0,0,1,6.54.5c2.52.33,4.13.57,4.83.73Zm-50.56,74.76a6.47,6.47,0,0,0,3.54,5.8q3.54,2.12,9.93,2.11,9.62,0,15.06-2.63t5.45-7.21a5.1,5.1,0,0,0-3.22-5.1c-2.15-.94-5.47-1.4-10-1.4h-9.26a14,14,0,0,0-8.23,2.31A7.12,7.12,0,0,0,1071.34,169.31Zm6.5-53.32q0,5.34,2.43,8.44t7.41,3.11q5,0,7.39-3.11t2.34-8.44q0-11.83-9.73-11.83T1077.84,116Z"/><path class="cls-2" d="M1174.33,161.23q-15.81,0-24.72-8.73t-8.91-24.73q0-16.47,8.23-25.46t22.77-9q13.88,0,21.62,7.91t7.73,21.85v8.67H1158.8q.3,7.62,4.52,11.9t11.83,4.28a49.08,49.08,0,0,0,11.19-1.23,55.78,55.78,0,0,0,11-3.93V156.6a42.14,42.14,0,0,1-10,3.48A62.52,62.52,0,0,1,1174.33,161.23Zm-2.52-55.2q-5.68,0-8.9,3.61t-3.7,10.22h25.08q-.12-6.61-3.45-10.22A11.7,11.7,0,0,0,1171.81,106Z"/><path class="cls-2" d="M1264.14,93.32a29,29,0,0,1,6,.52l-1.35,16.76a20.47,20.47,0,0,0-5.27-.58q-8.57,0-13.33,4.39t-4.78,12.31v33.34h-17.87V94.55h13.54l2.63,11h.88a24.55,24.55,0,0,1,8.24-8.87A20.23,20.23,0,0,1,1264.14,93.32Z"/></svg>
