<svg xmlns="http://www.w3.org/2000/svg" width="117.52mm" height="82.92mm" viewBox="0 0 333.12 235.05"><defs><style>.cls-1,.cls-2{fill:#e53937;}.cls-2{stroke:#e53937;}.cls-2,.cls-4,.cls-5,.cls-6{stroke-linecap:round;stroke-linejoin:round;}.cls-2,.cls-4{stroke-width:3px;}.cls-3,.cls-4{fill:#ffbba1;}.cls-4{stroke:#ffbba1;}.cls-5,.cls-6{fill:#fff;stroke:#fff;}.cls-6{stroke-width:2px;}</style></defs><title>sound</title><g id="Layer_2" data-name="Layer 2"><ellipse class="cls-1" cx="79.08" cy="191.89" rx="36.2" ry="25.51"/><ellipse class="cls-1" cx="206.24" cy="191.89" rx="36.2" ry="25.51"/><rect class="cls-2" x="88.35" y="20.44" width="163.36" height="28.48" rx="14.24"/><rect class="cls-1" x="102.73" y="48.92" width="8.69" height="154.25"/><rect class="cls-1" x="229.61" y="48.92" width="8.69" height="154.25"/><ellipse class="cls-3" cx="87.94" cy="192.45" rx="35.17" ry="24.57"/><ellipse class="cls-3" cx="211.48" cy="192.45" rx="35.17" ry="24.57"/><rect class="cls-4" x="96.95" y="27.3" width="158.71" height="27.43" rx="13.71"/><rect class="cls-3" x="110.92" y="54.73" width="8.44" height="148.57"/><rect class="cls-3" x="234.19" y="54.73" width="8.44" height="148.57"/><rect class="cls-5" x="236.8" y="99.83" width="3.12" height="80.15"/><rect class="cls-5" x="115.92" y="54.62" width="2.12" height="74.85"/><rect class="cls-6" x="177.67" y="-35.34" width="6.16" height="142.18" transform="translate(145 216.5) rotate(-90)"/><rect class="cls-6" x="166.03" y="-6.57" width="3.93" height="99.91" transform="translate(124.61 211.38) rotate(-90)"/></g></svg>
