<svg id="Layer_1" data-name="Layer 1" xmlns="http://www.w3.org/2000/svg" width="1920" height="1080" viewBox="0 0 1920 1080"><defs><style>.cls-1{fill:#f5a996;}.cls-2{fill:#8c633a;}.cls-3{fill:#a67d52;}</style></defs><title>spilleskærm</title><rect class="cls-1" x="2.98" width="1920" height="1080"/><path class="cls-2" d="M224.88,483.4v586a12,12,0,0,1-4.08,9H104a12,12,0,0,1-4.08-9v-586a12,12,0,0,1,12-12h101A12,12,0,0,1,224.88,483.4Z"/><path class="cls-2" d="M406.23,963.87v125.5h-125V963.87a62.5,62.5,0,0,1,125,0Z"/><path class="cls-3" d="M1923,391.05v679.49a52.54,52.54,0,0,1-10.62,9.46H397.54c-38.21-15.1-72.83-43.48-97.56-95.16q-5.4-11.26-10.14-24L223,791.39,164.32,642.76c-32.44-63.43-58.43-120.82-63.86-165-.26-2.07-.47-4.1-.62-6.11h0c-4.41-54.42,25.23-87.19,117.59-83.83l940.27,2.55,19,.05,372.89,1h4.2l16.73.05,117,.31,202.28.55A263.68,263.68,0,0,0,1923,391.05Z"/></svg>
