<svg xmlns="http://www.w3.org/2000/svg" xmlns:xlink="http://www.w3.org/1999/xlink" width="1920" height="1080" viewBox="0 0 1920 1080"><defs><style>.cls-1{fill:url(#linear-gradient);}.cls-2{fill:#bb6c26;}.cls-3{fill:#3397ec;}.cls-4{fill:#5eb3d9;}.cls-5{fill:#ef7e2b;}.cls-6{fill:#ffbba1;}.cls-7{fill:#facbab;}.cls-8{fill:#d34e47;}.cls-9{fill:#fff;}.cls-10{fill:#f29585;}.cls-11{fill:#753f34;}.cls-12{fill:#79c240;}.cls-13{fill:#798c40;}.cls-14{fill:#e16c6c;}.cls-15{fill:#ffc816;}.cls-16{fill:#ffd581;}.cls-17{fill:#ff9635;}.cls-18{fill:#e1959f;}.cls-19{fill:#bdccd4;}.cls-20{fill:#726c6b;}.cls-21{fill:#464648;}.cls-22{fill:#e48c2d;}</style><linearGradient id="linear-gradient" x1="960" y1="1084" x2="960" y2="16.96" gradientUnits="userSpaceOnUse"><stop offset="0" stop-color="#facb94"/><stop offset="0" stop-color="#f6bb92"/><stop offset="0" stop-color="#efa28f"/><stop offset="0.14" stop-color="#eb9d8b"/><stop offset="0.29" stop-color="#e0907f"/><stop offset="0.46" stop-color="#ce796b"/><stop offset="0.62" stop-color="#b45a4e"/><stop offset="0.8" stop-color="#93322b"/><stop offset="0.97" stop-color="#6c0200"/></linearGradient></defs><title>start</title><g id="Layer_15" data-name="Layer 15"><rect class="cls-1" width="1920" height="1084"/></g><g id="backright_head"><rect class="cls-2" x="1461.74" y="692.77" width="249.16" height="289.27" rx="124.58" transform="translate(128.47 -207.73) rotate(7.81)"/><rect class="cls-3" x="1733.93" y="760.45" width="230.56" height="312.75" rx="115.28" transform="translate(141.69 -242.71) rotate(7.81)"/><rect class="cls-4" x="1731.08" y="760" width="223.88" height="312.75" rx="109.27" transform="translate(141.57 -241.87) rotate(7.81)"/><rect class="cls-5" x="1477.68" y="692.29" width="218.39" height="289.27" rx="109.19" transform="translate(128.41 -207.81) rotate(7.81)"/><rect class="cls-6" x="1638.87" y="804.51" width="247.38" height="81.94" rx="38.38" transform="translate(-167.45 534.8) rotate(-16.48)"/><rect class="cls-7" x="1587.08" y="785.27" width="147.26" height="126.72" rx="38.38" transform="translate(264.53 -387.82) rotate(14.46)"/><rect class="cls-6" x="1564.71" y="826.6" width="91.04" height="44.76" rx="20.06" transform="translate(543.89 -626.33) rotate(26.34)"/><path class="cls-7" d="M1974.93,580.44l-14.55,106.14A76.67,76.67,0,0,1,1874,752.11l-65.94-9a76.32,76.32,0,0,1-43.32-21.26c46.61-5.12,82.12-31.61,82.17-63.56l-104.57-.14q.08-.69.18-1.41l14.55-106.13A76.66,76.66,0,0,1,1843.45,485l65.94,9A76.66,76.66,0,0,1,1974.93,580.44Z"/><rect class="cls-6" x="1520.49" y="435.6" width="207.08" height="260.45" rx="103.54" transform="translate(91.92 -215.38) rotate(7.81)"/><path d="M1837.39,596.13c1.78,8.25-3.8,16.46-12.47,18.34s-17.15-3.3-18.93-11.56"/><path class="cls-8" d="M1566.34,640.87c2-14.6,24.69-23.55,50.68-20s45.44,18.29,43.43,32.89"/><path class="cls-8" d="M1660.45,653.78c-1,7.59-23,10.86-48.94,7.29s-46.21-12.61-45.17-20.2"/><path class="cls-9" d="M1570,633q6-16.5,45-13c22,2,41,12,43,22"/><circle cx="1566.69" cy="554.48" r="7.55"/><circle cx="1677.79" cy="570.68" r="8.67"/><rect class="cls-10" x="1609.33" y="570.74" width="22.87" height="33.56" rx="11.44" transform="translate(94.84 -214.73) rotate(7.81)"/><rect class="cls-11" x="1534.63" y="390.66" width="207.08" height="144.1" transform="translate(78.04 -218.25) rotate(7.81)"/><circle class="cls-6" cx="1520.17" cy="568.68" r="21.25"/><circle class="cls-6" cx="1725.47" cy="596.17" r="21.66"/><path class="cls-12" d="M1753.35,534.2c16.39-64.56,80.73-103.11,143.7-86.11s100.74,83.12,84.34,147.68"/><path class="cls-13" d="M1969,611l-215.73-53.1c-9.17-2.26-14.75-12-12.47-21.79l.77-3.33c2.28-9.78,11.56-15.88,20.72-13.62L1978,572.26c9.17,2.26,14.75,12,12.47,21.8l-.77,3.32C1987.44,607.16,1978.16,613.26,1969,611Z"/><rect class="cls-7" x="1858.15" y="701.26" width="52.66" height="79.91" rx="26.33"/><rect class="cls-6" x="1579.08" y="661.8" width="52.66" height="79.91" rx="26.33" transform="translate(110.21 -211.59) rotate(7.81)"/><rect class="cls-7" x="1531.84" y="734.2" width="142.71" height="52.99" rx="24.02" transform="translate(1544.64 -1012.85) rotate(62.73)"/><rect class="cls-6" x="1617.74" y="781.49" width="87.96" height="42.83" rx="20.06" transform="translate(2854.13 -605.68) rotate(104.46)"/><rect class="cls-10" x="1647.82" y="789.92" width="87.96" height="42.83" rx="20.06" transform="translate(2899.9 -624.27) rotate(104.46)"/><rect class="cls-8" x="1674.64" y="802.8" width="87.96" height="34.19" rx="16.02" transform="translate(2941.71 -639.54) rotate(104.46)"/><rect class="cls-10" x="1731.87" y="611.28" width="35.67" height="23.48" rx="4.5" transform="translate(100.86 -231.92) rotate(7.81)"/><path class="cls-14" d="M1518.93,582.54a14,14,0,0,1,3.43-27.71"/><path class="cls-14" d="M1725.34,581.76a14,14,0,1,1-4.67,27.53"/><rect class="cls-11" x="1547.35" y="533.18" width="30.79" height="8.64" rx="4.32" transform="matrix(1, -0.09, 0.09, 1, -42.56, 144.98)"/><rect class="cls-11" x="1671.48" y="550.5" width="30.79" height="8.64" rx="4.32" transform="translate(365.72 -631.74) rotate(23.72)"/><path class="cls-8" d="M1839.47,672.79c3.8,5.17-1.72,16.81-18.73,29.32s-31,15.94-34.78,10.77"/></g><g id="backleft_body"><rect class="cls-15" x="318.64" y="676.89" width="229.31" height="308.77" rx="114.65" transform="translate(-76.05 44.3) rotate(-5.38)"/><rect class="cls-16" x="319.53" y="685.63" width="219.44" height="300.43" rx="99.33" transform="translate(-76.5 43.94) rotate(-5.38)"/><rect class="cls-6" x="271.61" y="410.87" width="248.61" height="262.6" rx="124.3" transform="translate(-49.1 39.52) rotate(-5.38)"/><path class="cls-17" d="M353.31,482.49l-44,39.7c-16.08,4.94-60.61,13.3-60.32,1a180.48,180.48,0,0,1,17.15-72.81c18.74-39.61,57.65-66.8,101.75-71.64L393,376c56.4-6.2,109.7,24.68,129.34,76.06,5.91,15.49,7.73,16.33,9.5,36.08l.25,1.58c1.51,9.81-8.5,19-19.17,17.44l-.51-.08-33.72-3.34a82.48,82.48,0,0,1-28.86-5.84l-27.3-19.58A54.93,54.93,0,0,0,380,468.91c-.67.13-1.35.28-2,.44A55.93,55.93,0,0,0,353.31,482.49Z"/><rect class="cls-10" x="385.37" y="565.57" width="18.68" height="45.65" rx="6.79" transform="translate(-154.07 1036.55) rotate(-95.38)"/><circle class="cls-6" cx="521.45" cy="545.53" r="21.06"/><circle class="cls-6" cx="273.08" cy="563.62" r="15.89"/><circle cx="457.45" cy="538.72" r="8.06"/><circle cx="333.14" cy="547.05" r="8.06"/><rect class="cls-11" x="6.48" y="504.48" width="291.74" height="462.02" rx="128.5" transform="translate(-68.31 17.53) rotate(-5.38)"/><rect class="cls-7" x="23.59" y="547.64" width="248.61" height="304.23" rx="124.3" transform="translate(-64.98 16.95) rotate(-5.38)"/><circle cx="183.11" cy="676.95" r="9.34"/><circle cx="258.33" cy="652.8" r="9.38"/><rect class="cls-10" x="238.96" y="682.65" width="18.44" height="36.61" rx="6.42" transform="translate(-64.65 26.37) rotate(-5.38)"/><path class="cls-8" d="M209.05,772.77c-2.44-10.81,11.25-23.1,30.56-27.45S267.56,747.2,270,758"/><path class="cls-8" d="M270,758c-3,7-4,16-23,19-19.85,3.13-35-2-38.4-5.49"/><rect class="cls-10" x="48.2" y="862.06" width="280.39" height="324.84" rx="140.19" transform="translate(-95.25 22.18) rotate(-5.38)"/><rect class="cls-18" x="56.85" y="862.3" width="257.69" height="315.49" rx="128.85" transform="translate(-94.85 21.91) rotate(-5.38)"/><rect class="cls-7" x="152.55" y="825.69" width="54.72" height="64.23" rx="27.36" transform="translate(-79.66 20.65) rotate(-5.38)"/><path class="cls-11" d="M162.72,966.55h0A145.87,145.87,0,0,1,3.81,835l-16-169.53A145.87,145.87,0,0,1,119.39,506.56h0"/><rect class="cls-6" x="384.43" y="630" width="54.72" height="83.04" rx="27.36" transform="translate(-61.17 41.58) rotate(-5.38)"/><path class="cls-14" d="M516.84,530.92a14.5,14.5,0,1,1,2.63,28.89"/><rect class="cls-11" x="133.45" y="637.29" width="51.87" height="14.75" rx="7.38" transform="translate(-356.94 227.04) rotate(-37.15)"/><rect class="cls-11" x="244.24" y="617.32" width="32" height="11.94" rx="5.97" transform="translate(169.03 -45.96) rotate(14.9)"/><path class="cls-9" d="M209,771c-2-9,13.32-23.85,33-27,16.67-2.67,25,4,27,11"/><rect class="cls-17" x="294.45" y="517.29" width="51.87" height="14.75" rx="7.38" transform="translate(-172.42 157.15) rotate(-21.88)"/><rect class="cls-17" x="437.45" y="508.29" width="51.87" height="14.75" rx="7.38" transform="translate(128.54 -91.39) rotate(13.06)"/><path class="cls-8" d="M390.6,634.07c-.67-4.94,9.95-11.16,30.87-14s34.66-.36,35.33,4.58"/></g><g id="mobil_hand"><rect class="cls-4" x="551.12" y="369.98" width="840.99" height="844.84" rx="388.75"/><rect class="cls-4" x="515" y="452.45" width="914.43" height="802.06" rx="293.62"/><ellipse class="cls-7" cx="972.93" cy="495.78" rx="235.51" ry="113.37"/><ellipse class="cls-6" cx="991.46" cy="343.83" rx="225.02" ry="148.37" transform="translate(617.71 1324.4) rotate(-88.26)"/><ellipse class="cls-7" cx="997.23" cy="337.86" rx="260.02" ry="142.92" transform="translate(628.19 1323.97) rotate(-88.2)"/><rect class="cls-6" x="748.45" y="-196" width="480.94" height="632.55" rx="207.49"/><ellipse class="cls-7" cx="750.11" cy="54.58" rx="59.7" ry="62.61"/><ellipse class="cls-7" cx="1232.16" cy="54.58" rx="59.7" ry="62.61"/><rect class="cls-7" x="748.45" y="-196" width="480.94" height="625.9" rx="213.92"/><rect class="cls-6" x="960.35" y="90.46" width="54.05" height="47.43" rx="19.99"/><rect class="cls-10" x="911.82" y="180.33" width="158.84" height="174.68" rx="67.5"/><path class="cls-19" d="M838.34,110.18h0c-17.45,0-31.59-16.5-31.59-36.85,0,0,14.14-73.71,31.59-73.71h0c17.45,0,31.59,73.71,31.59,73.71C869.93,93.68,855.79,110.18,838.34,110.18Z"/><path class="cls-19" d="M1178.41,17.74h0c-5.67,3.26-13.36.53-17.16-6.09,0,0-9.17-26.64-3.49-29.9h0c5.68-3.26,24,18.09,24,18.09C1185.62,6.47,1184.09,14.48,1178.41,17.74Z"/><path class="cls-19" d="M1136.28,72h0c-13.67,0-24.74-12.92-24.74-28.87,0,0,11.07-57.73,24.74-57.73h0c13.66,0,24.74,57.73,24.74,57.73C1161,59.12,1149.94,72,1136.28,72Z"/><path class="cls-19" d="M857.34,195.18h0c-7,0-12.62-6.59-12.62-14.72,0,0,5.65-29.46,12.62-29.46h0c7,0,12.62,29.46,12.62,29.46C870,188.59,864.31,195.18,857.34,195.18Z"/><path class="cls-6" d="M1213.73,518.25C1182.93,588.14,1130,633,1095.41,618.54c-11.24-4.72-19.15-15.14-23.64-29.46a14.19,14.19,0,0,1,7.46-17.54c28.28-14.11,58.76-49.65,79.35-96.36,15.22-34.56,22.18-68.76,21.14-96.25-.46-12,13.44-19.13,27-13.59l.26.11C1241.48,380,1244.53,448.36,1213.73,518.25Z"/><path class="cls-6" d="M958.06,476.7h0c-12.2,1.2-23.1-7.48-24.33-19.39l-11.6-112A21.81,21.81,0,0,1,942,321.55h0c12.2-1.21,23.09,7.47,24.32,19.38l11.6,112A21.83,21.83,0,0,1,958.06,476.7Z"/><rect class="cls-6" x="933.35" y="424.45" width="238.36" height="194.64" rx="38.89"/><rect class="cls-6" x="985.64" y="255.92" width="46.21" height="192.26" rx="19"/><rect class="cls-6" x="1045.23" y="225.07" width="48.64" height="223.12" rx="20"/><rect class="cls-6" x="1107.25" y="245.24" width="48.64" height="221.93" rx="20"/><path class="cls-7" d="M1213.37,519.44c-29.57,69.87-79,115.34-110.51,101.55-10.24-4.48-17.3-14.68-21.17-28.81a15,15,0,0,1,7.18-17.53c26.23-14.49,54.88-50.29,74.64-97,14.62-34.54,21.64-68.6,21.18-95.86-.19-11.89,12.7-19.21,25-13.95l.23.1C1241.4,381.74,1242.94,449.56,1213.37,519.44Z"/><path class="cls-7" d="M965.77,487.52h0c-10.58,1.09-20.18-8.19-21.43-20.73l-11.75-118c-1.25-12.54,6.32-23.59,16.9-24.68h0c10.59-1.1,20.18,8.18,21.43,20.73l11.75,118C983.92,475.37,976.36,486.42,965.77,487.52Z"/><rect class="cls-7" x="944.71" y="428.01" width="229.55" height="201.76" rx="38.89"/><rect class="cls-7" x="994.88" y="264.23" width="40.61" height="179.21" rx="15.61"/><rect class="cls-7" x="1054.15" y="233.38" width="42.25" height="220.75" rx="16.69"/><rect class="cls-7" x="1115.51" y="252.36" width="41.8" height="219.56" rx="17.5"/><rect class="cls-20" x="954.45" y="440.86" width="445.62" height="633.01" rx="92.12"/><rect class="cls-21" x="980.48" y="452.7" width="427.92" height="633.01" rx="92.12"/><rect class="cls-20" x="1038.96" y="486.08" width="146.26" height="60.29" rx="26"/><rect class="cls-9" x="1046.55" y="488.23" width="136.51" height="55.98" rx="26"/><ellipse cx="1083.92" cy="516.76" rx="21.13" ry="20.99"/><path class="cls-8" d="M1522.19,991.5,1412.42,1062a59.88,59.88,0,0,1-82.49-17.58h0a59.06,59.06,0,0,1,17.69-82l109.78-70.54a59.88,59.88,0,0,1,82.49,17.59h0A59,59,0,0,1,1522.19,991.5Z"/><path class="cls-10" d="M1545.46,912.11l-109.78,70.54a59.88,59.88,0,0,1-82.49-17.59h0a59,59,0,0,1,17.7-82l109.77-70.54a59.88,59.88,0,0,1,82.49,17.58h0A59.06,59.06,0,0,1,1545.46,912.11Z"/><path class="cls-6" d="M1545.46,824.67l-109.78,70.55a59.88,59.88,0,0,1-82.49-17.59h0a59,59,0,0,1,17.7-82l109.77-70.54a59.88,59.88,0,0,1,82.49,17.58h0A59.05,59.05,0,0,1,1545.46,824.67Z"/><path class="cls-7" d="M929.6,884.39l-65.7-53a67.87,67.87,0,0,1-10-95.89h0a68.9,68.9,0,0,1,96.5-9.91l65.7,53.06a67.87,67.87,0,0,1,10,95.88h0A68.89,68.89,0,0,1,929.6,884.39Z"/><path class="cls-7" d="M1474.66,767.39l-143.18,92A59.88,59.88,0,0,1,1249,841.81h0a59,59,0,0,1,17.7-82l143.17-92a59.9,59.9,0,0,1,82.5,17.59h0A59.06,59.06,0,0,1,1474.66,767.39Z"/><rect class="cls-7" x="925.78" y="764" width="531.99" height="342.7" rx="146.9"/><rect class="cls-6" x="942.97" y="951.27" width="499.47" height="339.98" rx="156.9" transform="translate(71.44 2313.97) rotate(-90)"/><rect class="cls-7" x="931.45" y="958.75" width="499.47" height="316.15" rx="145.9" transform="translate(64.36 2298) rotate(-90)"/></g><g id="Layer_16" data-name="Layer 16"><path class="cls-9" d="M119,374.45q-12.53,1.1-25,2.23l-.66-66.53q-16.35,3.44-32.66,7l.3,62.57q-12.51,1.17-25,2.38V246.46Q48.1,241.68,60.27,237q.13,28.35.28,56.71,16.23-4.32,32.52-8.48-.3-30.15-.59-60.3,12.21-4.48,24.48-8.85Q118,295.28,119,374.45Z"/><path class="cls-9" d="M157.71,371.14q-14.49-63-28.57-120.72,12.51-3.58,25.06-7,7.08,35.24,14.25,71.92c.61,3.43,1.36,8.46,2.25,15.12s1.44,11.48,1.68,14.44l.37-.05c0-2.36.22-5.76.6-10.22s.78-8.57,1.2-12.34,4.65-32.16,12.52-87.77q12.59-3.33,25.19-6.55-11.92,72.71-24.12,140.73Q172.92,369.88,157.71,371.14Z"/><path class="cls-9" d="M276,362q-2.69-10-5.35-19.85l-.56,0c-3.43,9-7.06,15.24-10.87,18.77s-8.67,5.47-14.59,5.89c-7.57.54-13.62-3-18.11-10.32s-6.89-17.8-7.17-31.49c-.3-14.68,2.43-26,8.19-34.24S242,277,253.76,274.11l13.6-3.16-.24-10.62q-.47-20.71-12.86-18.09c-6.12,1.3-13.08,6.22-20.88,14.5q-4.47-10.87-8.93-21.49c10-11.25,20.86-18.59,32.78-21.48,10.82-2.63,19.17-.08,25,7.81s9,20.41,9.4,37.31q1.17,50.92,2.33,101.85Zm-21.89-23c4.49-.45,8-3.67,10.56-9.73s3.71-14,3.5-23.59q-.15-6.24-.28-12.47l-7.54,1.65c-5.58,1.28-9.63,4.16-12.15,8.6s-3.69,10.64-3.52,18.64Q245,339.93,254.08,339Z"/><path class="cls-9" d="M334.22,149.71c.46.93.91,1.86,1.36,2.8C333,172,328.07,196,320.94,223.88q-9.36,1.83-18.7,3.72c3.39-24.3,5.95-48.2,7.69-71.52Q322.06,152.84,334.22,149.71Z"/><path class="cls-9" d="M416.15,353.08q-15.42-83.77-30.8-164,12.76-2.48,25.56-4.83,7.69,47.67,15.39,96.34,1,6.79,2.45,19.95t1.87,19l.37,0q0-4.61.49-13.27c.34-5.77.7-11.1,1.08-16s4.33-41.63,11.83-112Q457.2,176.07,470,174,458.38,264.2,446.76,351.4,431.45,352.21,416.15,353.08Z"/><path class="cls-9" d="M478.71,126.11q-.22-10.48,3.23-17.33c2.3-4.56,5.59-7.29,9.88-8.14q6.06-1.22,9.82,4.3t4,16.2q.22,11-3.37,17.69t-9.47,7.67q-6.15,1-10-4.28T478.71,126.11Zm30.51,222.16-24.7,1.19q-1.89-88.62-3.79-177.24,12.36-2,24.76-3.88Q507.35,258.31,509.22,348.27Z"/><path class="cls-9" d="M555.11,346.23q-12.36.52-24.71,1.08-2.56-127.2-5.12-254.39,12.42-2.3,24.85-4.46Z"/><path class="cls-9" d="M600.56,344.43l-24.73.95Q573.42,215.15,571,84.92q12.45-2.06,24.92-4Z"/><path class="cls-9" d="M659.58,345.87c-13,.38-23.31-7.85-31.07-24.49s-11.91-40.31-12.43-71.24c-.53-31.38,2.44-56.18,8.94-74.6s15.86-28.38,28-29.66c11.37-1.18,20.46,5.62,27.23,20.49s10.36,36.38,10.74,64.34q.18,12.45.35,24.91-25,1.39-49.94,3,.69,25.67,6.29,37.9c3.73,8.16,8.76,12.13,15.1,11.86,8.07-.35,16.26-5.38,24.59-15.22q.26,19.19.53,38.37C680.13,340.81,670.68,345.54,659.58,345.87Zm-6.16-164.46q-5.34.5-8.63,11.26t-3.51,32.69q12.62-1,25.23-1.9-.51-21.22-3.94-31.9C660.27,184.44,657.22,181.07,653.42,181.41Z"/><path class="cls-9" d="M1301.67,346.67c-9.55-.31-17-9.26-22.2-27.05s-7.66-42.44-7.18-73.84,3.55-56,9.25-73.28,13.34-25.33,22.89-24.26q7.13.8,12.21,7.81t9.22,22.63l1.49.16q-.67-26-.49-36.37l1.08-63.32Q1340.42,81,1352.87,83q-2.37,131-4.75,261.91-9.19-.35-18.41-.69-1.87-12.39-3.76-24.81l-.83,0C1319.52,337.84,1311.71,347,1301.67,346.67Zm8.63-38.25q6.9.33,10.26-11t4.16-41.6c0-2,.07-4,.1-5.95q.57-33-2.42-46.79c-2-9.18-5.46-14-10.38-14.52q-6.91-.69-10.31,14.58t-3.86,45.08q-.48,29.79,2.45,44.84C1302.25,303.08,1305.59,308.18,1310.3,308.42Z"/><path class="cls-9" d="M1424.87,348.2q-1.29-11.62-2.59-23.3l-1.3-.08q-3.69,12.12-10.2,18.9c-4.34,4.53-9.23,6.7-14.68,6.47-9.29-.38-16.21-6.27-20.77-17.81s-6.62-28.62-6.19-51.19L1371.42,160q12.57,1.67,25.11,3.43-1.08,54.56-2.15,109.12-.41,20.09,2.1,30.47t8.53,10.73c5.33.34,9.32-4.09,12-13.23s4.18-24.65,4.63-46.59q.89-43.31,1.78-86.59,12.52,1.88,25,3.86-1.89,89-3.79,178Z"/><path class="cls-9" d="M1590.32,197.42q-.25,11.21-.52,22.4-6.19,1-12.39,2.08c2.25,7.21,3.25,15.9,3,26.12-.39,17.07-3.66,30-9.81,39s-14.53,13.05-25.15,12a15.9,15.9,0,0,1-6.83-1.9,41.32,41.32,0,0,0-3.47,5.36,16.57,16.57,0,0,0-1.75,7.66q-.26,10.53,11,11.46l14.91,1.29c8.77.78,15.42,5.12,20,12.87s6.65,19,6.31,33.7c-.43,18.57-4.78,32.77-13.06,42.94s-20,15.38-35,15.39c-11.44,0-20.15-4-26.15-12.28s-8.82-20.07-8.48-35.33c.22-9.52,2.17-17.82,5.85-24.82s8.69-11.91,15-14.72a23.18,23.18,0,0,1-7.53-9.95,35.77,35.77,0,0,1-2.67-15.17,42.84,42.84,0,0,1,1.14-9.29,36.55,36.55,0,0,1,2.82-7.68,65.35,65.35,0,0,1,7.25-10.28q-6.26-7-9.66-20.74a113.68,113.68,0,0,1-3-30c.43-18.66,3.72-32.65,9.88-41.73s14.77-12.5,25.82-10.33a31.62,31.62,0,0,1,7.19,2.52,36.57,36.57,0,0,1,6.14,3.51Q1575.7,194.4,1590.32,197.42Zm-65,180.48q-.22,10,3.5,15.44c2.48,3.63,6.1,5.48,10.86,5.59,7.48.17,13.14-2,17-6.38s5.85-10.49,6-18.3c.15-6.15-.76-10.55-2.7-13.21s-5.68-4.16-11.17-4.48l-12-.69q-5-.28-8.16,5.65T1525.35,377.9Zm10.75-136.62q-.67,29.61,9.6,30.85,10,1.23,10.68-28.13.7-30.09-9.29-31.88Q1536.82,210.31,1536.1,241.28Z"/><path class="cls-9" d="M1676.94,289.72c-.53,24-4.5,42.15-12,55s-17.41,19.1-29.86,18.29a26.26,26.26,0,0,1-15.25-6q-2.82,7.62-5.64,15.31-7.37-5.71-14.74-11.58,3.86-10.49,7.71-20.83-5-10.44-7.73-26.18a187,187,0,0,1-2.23-35.72c.6-25.75,4.61-45.32,12-58.26s17.36-17.83,29.87-15a32.41,32.41,0,0,1,16,9.26q2.49-5.94,5-11.8,7.23,6.74,14.46,13.37-3.51,8.52-7,17.17C1674.34,247.44,1677.46,266.27,1676.94,289.72Zm-55.31-8.27q-.12,5.08-.23,10.16c0,3.26,0,6.51,0,9.77q12-31.67,24-61.79a14.71,14.71,0,0,0-7.13-3.59Q1622.77,232.9,1621.63,281.45Zm31.18,4.58q0-7.92,0-15.84-11.47,29-23,59.49a11.34,11.34,0,0,0,6.25,2.26c5.11.5,9.1-3.17,12-10.9S1652.45,301.66,1652.81,286Z"/><path class="cls-9" d="M1739.16,229.42a27.67,27.67,0,0,1,8.72,4.14q-1.71,15.15-3.42,30.45a18.53,18.53,0,0,0-6.66-2.7c-5.91-1.31-10.52.83-13.83,6.52s-5.09,14.67-5.34,26.83l-1.47,71.6q-12.27-.94-24.56-1.86L1695.69,221q10,2.46,20,5,1.14,11.28,2.29,22.48l.83.19c2.86-8.15,5.91-13.65,9.16-16.56A11.37,11.37,0,0,1,1739.16,229.42Z"/><path class="cls-9" d="M1794.15,374.76c-12.85-1-22.89-7.47-30.08-19.88s-10.56-29.64-10.16-51.28c.41-22,4-38.46,10.9-49s16.16-13.88,28-10.5c11,3.15,19.61,10.62,25.84,21.88s9.26,25.2,9.06,42.15l-.18,15.12q-24.45-4.37-49-8.46c0,11.47,1.72,20.25,5.18,26.22s8.32,9.28,14.57,10c8,1,16.15-1.07,24.54-5.71q-.15,11.75-.29,23.49C1814.61,373.58,1805.14,375.65,1794.15,374.76Zm-1.92-107.53c-3.46-.86-6.36.72-8.68,4.81s-3.75,11-4.28,20.65q12.35,2.47,24.66,5c0-9-1-16.11-3.07-21.3S1795.93,268.15,1792.23,267.23Z"/><path class="cls-9" d="M1853.22,329.78l.06-7.12c.06-6.52,1-12,2.82-16.44s5.12-8.81,9.87-13c4.5-4.21,7.37-7.54,8.62-10.18s1.88-6.25,1.9-10.86a22.83,22.83,0,0,0-2.65-11.22,14.61,14.61,0,0,0-8.52-6.9c-6.48-2.18-13.31-1.89-20.52,1.18q-4.15-11.67-8.27-23.64c9.51-4.22,20-3.88,31.35.49a50.35,50.35,0,0,1,23.29,17.71,44.68,44.68,0,0,1,8.53,26.83c0,7.05-1,12.72-3,17.1s-6.12,9.22-12.42,14.84c-4.07,3.68-6.67,6.76-7.8,9.08s-1.71,5.7-1.73,10.13l0,5.95Q1864,331.72,1853.22,329.78Zm-4.59,33.47c0-5.4,1.38-9.39,4-11.91s6.4-3.39,11.34-2.65,8.77,2.77,11.32,6,3.81,7.25,3.79,12.22-1.35,8.62-4,11.22-6.43,3.73-11.34,3.3-8.67-2.19-11.28-5.36S1848.58,368.58,1848.63,363.25Z"/><path class="cls-22" d="M127.82,364.78,103.1,367q-.33-30.39-.65-60.77-16.14,3.39-32.25,6.91.15,28.42.29,56.86l-24.68,2.35V249.6q12-4.74,24-9.33l.27,51.54q16-4.26,32.11-8.37-.28-27.54-.58-55.09,12.06-4.42,24.17-8.73Q126.81,292.19,127.82,364.78Z"/><path class="cls-22" d="M166,361.51q-14.29-57.9-28.21-110.67,12.36-3.54,24.75-7,7,32.33,14.07,66.08.9,4.73,2.21,13.92c.88,6.13,1.43,10.58,1.67,13.3l.36,0c0-2.18.22-5.31.59-9.43s.78-7.91,1.19-11.4,4.59-29.7,12.36-81.21q12.43-3.28,24.88-6.47-11.78,67.53-23.82,130.43Q181.05,360.25,166,361.51Z"/><path class="cls-22" d="M282.81,352.49q-2.65-9.28-5.29-18.44l-.54.05c-3.4,8.41-7,14.21-10.74,17.5s-8.57,5.12-14.4,5.53c-7.49.53-13.45-2.69-17.9-9.48s-6.79-16.45-7.07-29.13c-.3-13.6,2.4-24.13,8.08-31.81s14.33-13,25.93-15.78l13.43-3.07-.24-9.87c-.3-12.84-4.54-18.42-12.7-16.67-6,1.28-12.91,5.94-20.62,13.72q-4.41-10-8.81-19.81c9.81-10.57,20.59-17.55,32.36-20.41,10.68-2.59,18.93-.34,24.73,6.94s8.9,18.9,9.28,34.63q1.15,47.43,2.3,94.85Q291.72,351.85,282.81,352.49Zm-21.62-21.26c4.44-.45,7.92-3.46,10.43-9.11s3.67-13,3.45-21.95l-.27-11.6-7.45,1.61c-5.51,1.23-9.5,3.94-12,8.09s-3.65,9.9-3.48,17.33Q252.27,332.12,261.19,331.23Z"/><path class="cls-22" d="M340.33,154.06c.45.86.89,1.73,1.34,2.6-2.6,18.23-7.42,40.69-14.46,66.8q-9.24,1.81-18.46,3.67c3.34-22.69,5.87-45,7.59-66.78Q328.33,157.14,340.33,154.06Z"/><path class="cls-22" d="M421.23,343.67Q406,265.22,390.81,190.3q12.62-2.45,25.24-4.77,7.59,44.6,15.2,90.18,1,6.38,2.42,18.69c1,8.22,1.58,14.16,1.85,17.78l.36,0c0-2.89.16-7,.49-12.45s.68-10.41,1.06-15,4.27-39,11.68-105.13q12.66-2.19,25.32-4.28-11.52,84.85-23,166.68Q436.33,342.82,421.23,343.67Z"/><path class="cls-22" d="M483,130.32q-.22-9.85,3.19-16.31c2.27-4.31,5.52-6.91,9.76-7.75,4-.79,7.22.52,9.7,4s3.79,8.51,3.93,15.19q.23,10.34-3.33,16.66c-2.37,4.21-5.49,6.62-9.35,7.28a9.61,9.61,0,0,1-9.87-3.93C484.5,142.11,483.15,137.09,483,130.32Zm30.13,208.61q-12.19.57-24.39,1.17L485,173.62q12.22-2,24.45-3.83Z"/><path class="cls-22" d="M558.44,336.91q-12.2.51-24.4,1.06-2.53-119.64-5-239.26,12.25-2.28,24.54-4.41Q556,215.6,558.44,336.91Z"/><path class="cls-22" d="M603.32,335.13q-12.21.45-24.41.94-2.4-122.62-4.78-245.26,12.29-2,24.6-3.93Z"/><path class="cls-22" d="M661.6,336.4c-12.8.38-23-7.37-30.68-23s-11.75-38-12.27-67.13c-.53-29.58,2.41-53,8.83-70.36s15.65-26.84,27.68-28.1Q672,146,682.05,167c6.7,14,10.23,34.3,10.61,60.68q.17,11.76.34,23.51-24.68,1.38-49.31,3,.67,24.19,6.21,35.72t14.91,11.16c8-.35,16.06-5.11,24.28-14.41q.25,18.11.53,36.21C681.9,331.6,672.56,336.07,661.6,336.4Zm-6.08-155.11q-5.28.48-8.53,10.65t-3.46,30.84q12.45-1,24.91-1.88-.5-20-3.89-30.08T655.52,181.29Z"/><path class="cls-22" d="M1295.62,337.19c-9.42-.3-16.72-8.76-21.91-25.55s-7.56-40-7.1-69.67,3.51-52.82,9.14-69.09,13.18-23.84,22.61-22.78c4.68.52,8.7,3,12.05,7.42s6.38,11.56,9.1,21.38l1.48.16q-.66-24.48-.49-34.28.54-29.85,1.07-59.68,12.32,1.84,24.62,3.81-2.34,123.36-4.69,246.71-9.09-.36-18.18-.69-1.86-11.67-3.71-23.39l-.83,0C1313.26,328.89,1305.54,337.51,1295.62,337.19Zm8.53-36.05q6.81.33,10.13-10.35t4.11-39.19l.1-5.62q.55-31.11-2.39-44.1c-2-8.66-5.39-13.26-10.25-13.74q-6.84-.67-10.18,13.71t-3.81,42.49q-.48,28.08,2.42,42.29C1296.2,296.09,1299.5,300.91,1304.15,301.14Z"/><path class="cls-22" d="M1417.28,338.85q-1.27-10.94-2.56-21.91l-1.28-.08q-3.64,11.38-10.07,17.75c-4.28,4.25-9.11,6.28-14.5,6.05-9.17-.38-16-5.93-20.5-16.8s-6.54-27-6.12-48.21q1.13-57.06,2.26-114.12,12.4,1.65,24.79,3.39l-2.13,102.67q-.39,18.9,2.08,28.67c1.64,6.52,4.45,9.88,8.43,10.13q7.89.5,11.8-12.41t4.57-43.79q.89-40.71,1.76-81.41,12.38,1.84,24.73,3.81-1.86,83.6-3.73,167.19Z"/><path class="cls-22" d="M1580.66,198.49q-.27,10.47-.52,20.92-6.11.89-12.23,1.83c2.22,6.76,3.21,14.89,3,24.44-.39,15.95-3.62,28-9.69,36.39s-14.35,12.11-24.84,11a16.34,16.34,0,0,1-6.74-1.82,38.34,38.34,0,0,0-3.42,5,14.82,14.82,0,0,0-1.73,7.17q-.24,9.85,10.83,10.78l14.72,1.28a24.59,24.59,0,0,1,19.73,12.12c4.49,7.27,6.56,17.73,6.23,31.5-.43,17.35-4.73,30.61-12.9,40.11s-19.7,14.37-34.6,14.38c-11.29,0-19.9-3.77-25.82-11.5s-8.71-18.82-8.37-33.13c.21-8.93,2.13-16.71,5.77-23.26A30.06,30.06,0,0,1,1514.87,332a22,22,0,0,1-7.43-9.35,32,32,0,0,1-2.64-14.22,38.28,38.28,0,0,1,1.12-8.71,33.47,33.47,0,0,1,2.79-7.18,60.54,60.54,0,0,1,7.16-9.6q-6.16-6.63-9.54-19.49a101.58,101.58,0,0,1-3-28.1c.42-17.49,3.67-30.57,9.76-39s14.58-11.57,25.49-9.44a32.25,32.25,0,0,1,7.1,2.44,36.14,36.14,0,0,1,6.06,3.35Q1566.22,195.5,1580.66,198.49ZM1516.5,366.94q-.23,9.35,3.46,14.46c2.45,3.41,6,5.15,10.72,5.25,7.39.17,13-1.83,16.77-5.94s5.79-9.8,6-17.11q.21-8.62-2.68-12.36c-1.92-2.49-5.6-3.91-11-4.23l-11.8-.67q-5-.29-8.06,5.27C1517.78,355.31,1516.66,360.44,1516.5,366.94ZM1527.12,239q-.67,27.72,9.48,29,9.87,1.2,10.55-26.25.69-28.17-9.18-29.92Q1527.82,210,1527.12,239Z"/><path class="cls-22" d="M1666.19,285.39c-.52,22.27-4.45,39.13-11.8,51.07s-17.19,17.69-29.49,16.89a26.88,26.88,0,0,1-15.05-5.65q-2.79,7.08-5.57,14.25-7.29-5.35-14.56-10.85,3.81-9.77,7.61-19.41-5-9.76-7.63-24.48a165.71,165.71,0,0,1-2.2-33.36c.59-24,4.55-42.29,11.86-54.28s17.14-16.45,29.49-13.62a33,33,0,0,1,15.85,8.83c1.64-3.67,3.28-7.3,4.91-10.92q7.14,6.38,14.28,12.64-3.47,7.88-6.94,15.88C1663.62,246.08,1666.7,263.61,1666.19,285.39Zm-54.62-8.16q-.1,4.72-.23,9.47c0,3,0,6.07,0,9.11q11.88-29.44,23.7-57.37a14.85,14.85,0,0,0-7-3.42Q1612.69,231.95,1611.57,277.23Zm30.79,4.51q0-7.37,0-14.74-11.34,26.91-22.73,55.24a11.53,11.53,0,0,0,6.17,2.14c5,.49,9-2.9,11.81-10.08S1642,296.3,1642.36,281.74Z"/><path class="cls-22" d="M1727.63,230.26a29,29,0,0,1,8.61,4q-1.7,14-3.39,28.09a19.27,19.27,0,0,0-6.56-2.58c-5.85-1.29-10.4.62-13.66,5.85s-5,13.52-5.27,24.79q-.73,33.15-1.46,66.31-12.12-.94-24.25-1.84,1.51-66.54,3-133.08,9.9,2.43,19.79,4.93,1.13,10.47,2.26,20.86l.82.18c2.83-7.51,5.84-12.55,9-15.19A11.65,11.65,0,0,1,1727.63,230.26Z"/><path class="cls-22" d="M1781.92,364.92c-12.68-1-22.59-7-29.69-18.48s-10.44-27.44-10-47.43c.4-20.27,4-35.46,10.76-45s16-12.52,27.61-9.18c10.88,3.11,19.37,10.14,25.52,20.59s9.14,23.25,8.94,38.77l-.18,13.84q-24.13-4.31-48.34-8.35c0,10.56,1.7,18.66,5.12,24.19a18.74,18.74,0,0,0,14.38,9.34c7.87.94,16-.85,24.23-5q-.13,10.75-.28,21.52C1802.13,364,1792.78,365.8,1781.92,364.92ZM1780,266c-3.41-.84-6.27.56-8.56,4.29s-3.71,10.06-4.23,18.95q12.19,2.44,24.35,5c0-8.29-1-14.81-3-19.61S1783.68,266.93,1780,266Z"/><path class="cls-22" d="M1840.26,324.27c0-2.16,0-4.33,0-6.49a37.47,37.47,0,0,1,2.79-14.95c1.8-4,5.06-7.94,9.74-11.68,4.45-3.74,7.28-6.71,8.51-9.08s1.86-5.64,1.88-9.83a19.67,19.67,0,0,0-2.62-10.26,14.7,14.7,0,0,0-8.41-6.5,29.67,29.67,0,0,0-20.27.57q-4.08-10.76-8.16-21.81c9.39-3.62,19.7-3,31,1.31a51.55,51.55,0,0,1,23,16.78,39.31,39.31,0,0,1,8.43,24.55c0,6.38-1,11.48-2.93,15.4s-6,8.21-12.27,13.19c-4,3.26-6.58,6-7.7,8.09s-1.69,5.16-1.71,9.18l0,5.42Q1850.89,326.18,1840.26,324.27Zm-4.54,30.49c0-4.93,1.36-8.56,4-10.83s6.32-3,11.2-2.28,8.66,2.61,11.17,5.54a16.35,16.35,0,0,1,3.75,11.14c0,4.46-1.33,7.82-4,10.17s-6.34,3.34-11.19,2.92-8.56-2.06-11.14-5S1835.67,359.63,1835.72,354.76Z"/></g></svg>
