<svg id="Layer_1" data-name="Layer 1" xmlns="http://www.w3.org/2000/svg" width="1920" height="1080" viewBox="0 0 1920 1080"><defs><style>.cls-1{fill:#9d9d9c;}.cls-2{fill:#d7bc9f;}.cls-3{fill:#3c3c3b;}.cls-4{fill:#fdd4a0;}.cls-5{fill:#facaab;}.cls-6{fill:#facbab;}.cls-7{fill:none;stroke:#3c3c3b;stroke-miterlimit:10;stroke-width:100px;}.cls-10,.cls-8{fill:#fff;}.cls-9{fill:#e6332a;}.cls-10{font-size:48px;font-family:OpenSans-Bold, Open Sans;font-weight:700;}</style></defs><title>taber_skærm</title><rect class="cls-1" width="1920" height="1080"/><rect class="cls-2" x="512.82" y="412.88" width="329.95" height="220.03" rx="72.68" transform="translate(1200.69 -154.9) rotate(90)"/><rect class="cls-2" x="398.22" y="433.31" width="210.64" height="210.64" transform="translate(1007.08 1077.25) rotate(-180)"/><rect class="cls-3" x="666.7" y="92.15" width="80.85" height="892.96" transform="translate(1414.24 1077.25) rotate(-180)"/><rect class="cls-2" x="604.26" y="356.04" width="183.55" height="72.18" rx="36.09" transform="translate(1392.07 784.26) rotate(-180)"/><rect class="cls-4" x="689.01" y="427.98" width="140.32" height="63.28" rx="31.64" transform="translate(1518.34 919.25) rotate(-180)"/><rect class="cls-5" x="688.73" y="491.26" width="144.93" height="63.28" rx="31.64" transform="translate(1522.39 1045.79) rotate(-180)"/><rect class="cls-2" x="694.79" y="390.17" width="135.14" height="72.18" rx="36.09" transform="translate(1151.78 -355.55) rotate(87.27)"/><rect class="cls-4" x="689.88" y="554.29" width="142.63" height="63.28" rx="31.64" transform="translate(1522.39 1171.86) rotate(-180)"/><rect class="cls-6" x="692.98" y="617.57" width="132.38" height="63.28" rx="31.64" transform="translate(1518.34 1298.43) rotate(-180)"/><rect class="cls-2" x="1091.04" y="412.88" width="329.95" height="220.03" rx="72.68" transform="translate(1778.91 -733.12) rotate(90)"/><rect class="cls-2" x="1324.95" y="433.31" width="210.64" height="210.64"/><rect class="cls-7" x="47.78" y="44.7" width="1823.68" height="990.59"/><path class="cls-3" d="M132.18,392.13H489a0,0,0,0,1,0,0V687.87a0,0,0,0,1,0,0H132.18a34.36,34.36,0,0,1-34.36-34.36v-227a34.36,34.36,0,0,1,34.36-34.36Z" transform="translate(586.85 1080) rotate(-180)"/><rect class="cls-8" x="180.87" y="392.13" width="68.08" height="295.74" transform="translate(429.82 1080) rotate(-180)"/><rect class="cls-8" x="334.28" y="392.13" width="68.08" height="295.74" transform="translate(736.63 1080) rotate(-180)"/><path class="cls-3" d="M1470,392.13h351.45a0,0,0,0,1,0,0V687.87a0,0,0,0,1,0,0H1466.56a36.28,36.28,0,0,1-36.28-36.28V431.88A39.75,39.75,0,0,1,1470,392.13Z"/><rect class="cls-8" x="1670.35" y="392.13" width="68.08" height="295.74"/><rect class="cls-8" x="1516.94" y="392.13" width="68.08" height="295.74"/><rect class="cls-3" x="1188.65" y="92.15" width="80.85" height="892.96"/><rect class="cls-2" x="1146" y="356.04" width="183.55" height="72.18" rx="36.09"/><rect class="cls-4" x="1082.22" y="428.22" width="140.32" height="63.28" rx="31.64"/><rect class="cls-5" x="1077.61" y="491.5" width="144.93" height="63.28" rx="31.64"/><rect class="cls-2" x="1103.88" y="390.17" width="135.14" height="72.18" rx="36.09" transform="translate(1653.08 -723.54) rotate(92.73)"/><rect class="cls-4" x="1078.76" y="554.29" width="142.63" height="63.28" rx="31.64"/><rect class="cls-6" x="1094.62" y="617.57" width="132.38" height="63.28" rx="31.64"/><rect class="cls-9" x="74.69" y="125.61" width="587.25" height="442.45" rx="99.22"/><text class="cls-10" transform="translate(140.48 210.9)">Det var ikke særlig <tspan x="0" y="57.6">godt... du skal hvis </tspan><tspan x="0" y="115.2">lige læse reglerne </tspan><tspan x="0" y="172.8">på </tspan></text></svg>
