<svg id="Layer_1" data-name="Layer 1" xmlns="http://www.w3.org/2000/svg" width="1070" height="850" viewBox="0 0 1070 850"><defs><style>.cls-1{fill:#e53938;}.cls-2{fill:#fff;}</style></defs><title>taber_ popup</title><rect class="cls-1" x="69" y="77" width="920" height="714" rx="82.65"/><path class="cls-2" d="M430.86,199.55l-2.95-13H414.52l-3,13H402l12.73-51.61h13l12.76,51.61ZM430,144.32a7.82,7.82,0,0,1-2.44,6,9,9,0,0,1-6.34,2.27,8.75,8.75,0,0,1-6.23-2.2,8.86,8.86,0,0,1,0-12,8.75,8.75,0,0,1,6.23-2.2,9,9,0,0,1,6.31,2.25A7.56,7.56,0,0,1,430,144.32Zm-3.86,33.79-2.74-12c-.17-.72-.54-2.55-1.11-5.46s-.92-4.87-1-5.86q-.45,3-1.16,6.67t-3.66,16.61Zm-1.41-33.72a3.34,3.34,0,0,0-1-2.56,3.8,3.8,0,0,0-5,0,3.34,3.34,0,0,0-1,2.56,3.66,3.66,0,0,0,.88,2.6,3.38,3.38,0,0,0,2.64.95,3.49,3.49,0,0,0,2.51-.95A3.4,3.4,0,0,0,424.71,144.39Z"/><path class="cls-2" d="M464,199.55V176.21q0-8.61-4.33-8.61-3.24,0-4.53,3.39a28.34,28.34,0,0,0-1.3,9.75v18.81h-9.36v-54.7h9.36V157c0,1.57-.15,4.37-.43,8.41h.5q2.81-5.78,8.64-5.77,5.38,0,8.12,3.64t2.75,10.7v25.56Z"/><path class="cls-2" d="M523.61,199.55l-3-13H507.26l-3,13h-9.56l12.73-51.61h13l12.76,51.61Zm-.88-55.23a7.83,7.83,0,0,1-2.45,6,9,9,0,0,1-6.34,2.27,8.77,8.77,0,0,1-6.23-2.2,8.86,8.86,0,0,1,0-12,8.77,8.77,0,0,1,6.23-2.2,9,9,0,0,1,6.31,2.25A7.57,7.57,0,0,1,522.73,144.32Zm-3.87,33.79-2.74-12c-.17-.72-.54-2.55-1.11-5.46s-.92-4.87-1-5.86q-.45,3-1.16,6.67t-3.65,16.61Zm-1.41-33.72a3.34,3.34,0,0,0-1-2.56,3.8,3.8,0,0,0-5,0,3.37,3.37,0,0,0-1,2.56,3.66,3.66,0,0,0,.88,2.6,3.41,3.41,0,0,0,2.64.95,3.47,3.47,0,0,0,2.51-.95A3.4,3.4,0,0,0,517.45,144.39Z"/><path class="cls-2" d="M556.69,199.55V176.21q0-8.61-4.33-8.61-3.23,0-4.53,3.39a28.34,28.34,0,0,0-1.3,9.75v18.81h-9.35v-54.7h9.35V157q0,2.36-.42,8.41h.49q2.8-5.78,8.65-5.77,5.37,0,8.12,3.64t2.74,10.7v25.56Z"/><path class="cls-2" d="M573.6,194.74a5.86,5.86,0,0,1,1.46-4.26A5.75,5.75,0,0,1,579.4,189a5.19,5.19,0,0,1,5.83,5.77,5.75,5.75,0,0,1-1.52,4.25,5.86,5.86,0,0,1-4.31,1.51,5.76,5.76,0,0,1-4.33-1.53A5.85,5.85,0,0,1,573.6,194.74Z"/><path class="cls-2" d="M593,194.74a5.9,5.9,0,0,1,1.46-4.26,5.75,5.75,0,0,1,4.34-1.51,5.21,5.21,0,0,1,5.84,5.77,5.72,5.72,0,0,1-1.53,4.25,5.86,5.86,0,0,1-4.31,1.51,5.72,5.72,0,0,1-4.32-1.53A5.82,5.82,0,0,1,593,194.74Z"/><path class="cls-2" d="M612.48,194.74a5.9,5.9,0,0,1,1.46-4.26,5.75,5.75,0,0,1,4.34-1.51,5.21,5.21,0,0,1,5.84,5.77,5.72,5.72,0,0,1-1.53,4.25,5.86,5.86,0,0,1-4.31,1.51A5.72,5.72,0,0,1,614,199,5.82,5.82,0,0,1,612.48,194.74Z"/><path class="cls-2" d="M280.12,372.35h-9.56V349.82H257.94v22.53h-9.57V321h9.57v20.43h12.62V321h9.56Z"/><path class="cls-2" d="M294.88,372.35l-10.23-39.16h9.71l5,22.67c.21,1.06.46,2.6.76,4.63s.47,3.48.54,4.37h.14a30.32,30.32,0,0,1,.3-3c.18-1.31.36-2.52.54-3.62s2-9.45,5.42-25h9.7l-10.26,39.16Z"/><path class="cls-2" d="M339.92,372.35,338.06,367h-.21a13.29,13.29,0,0,1-4.29,4.74,10.88,10.88,0,0,1-5.59,1.31,8.11,8.11,0,0,1-6.81-3.24q-2.48-3.22-2.47-9,0-6.18,3.39-9.19t10.14-3.32l5.2-.22v-2.81q0-5.47-4.74-5.48c-2.35,0-5,.91-8.09,2.74l-3.23-6.47a23.29,23.29,0,0,1,12.69-3.69q6.22,0,9.47,3.57t3.26,10.11v26.29Zm-8.12-6.61a4.67,4.67,0,0,0,4.09-2.3,10.91,10.91,0,0,0,1.53-6.13V354l-2.88.14a6.55,6.55,0,0,0-4.69,1.83,7.1,7.1,0,0,0-1.5,4.92C328.35,364.13,329.5,365.74,331.8,365.74Z"/><path class="cls-2" d="M364.63,373.06q-5.4,0-8.54-5.35T353,352.84q0-9.55,3.06-15t8.44-5.41a8,8,0,0,1,4.62,1.32,12.07,12.07,0,0,1,3.61,4.45h.56c-.28-3.57-.42-6.06-.42-7.49V317.65h9.35v54.7h-7l-1.59-5.1h-.31Q370.34,373.06,364.63,373.06Zm3-7.91a4,4,0,0,0,3.8-2.38c.79-1.58,1.23-4.46,1.3-8.63v-1.23c0-4.55-.41-7.74-1.22-9.6a4.12,4.12,0,0,0-4-2.77q-2.6,0-3.78,3.18A28.18,28.18,0,0,0,362.6,353c0,4.06.39,7.1,1.19,9.12S365.88,365.15,367.66,365.15Z"/><path class="cls-2" d="M427.35,372.35V349q0-8.61-4.32-8.61-3.24,0-4.54,3.39a28.59,28.59,0,0,0-1.3,9.75v18.81h-9.35v-54.7h9.35v12.16q0,2.35-.42,8.41h.49q2.82-5.78,8.65-5.77,5.38,0,8.12,3.64t2.75,10.7v25.56Z"/><path class="cls-2" d="M463.53,372.35,461.67,367h-.21a13.29,13.29,0,0,1-4.29,4.74,10.88,10.88,0,0,1-5.59,1.31,8.11,8.11,0,0,1-6.81-3.24q-2.47-3.22-2.48-9,0-6.18,3.4-9.19t10.14-3.32l5.2-.22v-2.81q0-5.47-4.74-5.48c-2.35,0-5,.91-8.09,2.74L445,336.07a23.29,23.29,0,0,1,12.69-3.69q6.22,0,9.47,3.57t3.25,10.11v26.29Zm-8.12-6.61a4.68,4.68,0,0,0,4.09-2.3,10.91,10.91,0,0,0,1.53-6.13V354l-2.88.14a6.55,6.55,0,0,0-4.69,1.83,7.1,7.1,0,0,0-1.5,4.92C452,364.13,453.11,365.74,455.41,365.74Z"/><path class="cls-2" d="M494.64,332.45A11.1,11.1,0,0,1,498,333l-1.09,9.07a7.66,7.66,0,0,0-2.57-.35,6,6,0,0,0-5.24,2.69q-1.83,2.69-1.83,7.82v20.14h-9.35V333.19h7.7l1.06,6.12H487a14.18,14.18,0,0,1,3.38-5.28A6.33,6.33,0,0,1,494.64,332.45Z"/><path class="cls-2" d="M530.29,373.06q-5.41,0-8.54-5.35t-3.13-14.87q0-9.55,3.06-15t8.44-5.41a8,8,0,0,1,4.62,1.32,12,12,0,0,1,3.6,4.45h.56c-.28-3.57-.42-6.06-.42-7.49V317.65h9.35v54.7h-7l-1.58-5.1H539Q536,373.06,530.29,373.06Zm3-7.91a4,4,0,0,0,3.8-2.38q1.2-2.37,1.3-8.63v-1.23c0-4.55-.4-7.74-1.21-9.6a4.12,4.12,0,0,0-4-2.77q-2.61,0-3.78,3.18a27.87,27.87,0,0,0-1.18,9.26q0,6.09,1.2,9.12T533.31,365.15Z"/><path class="cls-2" d="M576.87,372.35l-1.16-5h-.49a10,10,0,0,1-9.21,5.73q-5.28,0-8-3.59t-2.71-10.72V333.19h9.46V356.5a15.9,15.9,0,0,0,1,6.47,3.43,3.43,0,0,0,3.3,2.18,4.62,4.62,0,0,0,4.42-3q1.38-3,1.38-10.16V333.19h9.46v39.16Z"/><path class="cls-2" d="M638.19,333.26v5.48l-4.68,1.06a12.63,12.63,0,0,1,1.37,6.19q0,6.21-3.37,9.73t-9.43,3.52a8.76,8.76,0,0,1-2.6-.28,12.32,12.32,0,0,0-1.26,1.33,2.84,2.84,0,0,0-.6,1.83q0,2.46,4.25,2.46h5.66q5,0,7.68,2.69c1.8,1.8,2.69,4.5,2.69,8.11q0,6.81-4.57,10.54c-3,2.49-7.43,3.73-13.14,3.73q-6.51,0-10-2.83a9.76,9.76,0,0,1-3.52-8.07,8.92,8.92,0,0,1,2-5.75,11.35,11.35,0,0,1,5.56-3.6,6.83,6.83,0,0,1-2.94-2.18,5.47,5.47,0,0,1-1.14-3.45,6.44,6.44,0,0,1,.35-2.16,7.45,7.45,0,0,1,1-1.83,19.31,19.31,0,0,1,2.66-2.54,10,10,0,0,1-3.83-4.54,16,16,0,0,1-1.41-6.78q0-6.44,3.38-9.95t9.66-3.52a17.29,17.29,0,0,1,2.75.26,15.67,15.67,0,0,1,2.35.55Zm-23,44.79a4.44,4.44,0,0,0,1.46,3.57,6.22,6.22,0,0,0,4.16,1.24c2.84,0,5-.53,6.38-1.61a5.27,5.27,0,0,0,2.13-4.43,3.79,3.79,0,0,0-1.14-3.13c-.76-.61-2.19-.92-4.27-.92h-4.54a3.71,3.71,0,0,0-3,1.43A6,6,0,0,0,615.16,378.05ZM618,346q0,6.92,3.9,6.92t3.8-7q0-7.19-3.8-7.18T618,346Z"/><path class="cls-2" d="M662.09,372.35,660.23,367H660a13.2,13.2,0,0,1-4.29,4.74,10.88,10.88,0,0,1-5.59,1.31,8.09,8.09,0,0,1-6.8-3.24c-1.66-2.15-2.48-5.15-2.48-9q0-6.18,3.39-9.19t10.14-3.32l5.21-.22v-2.81c0-3.65-1.59-5.48-4.75-5.48q-3.51,0-8.09,2.74l-3.23-6.47a23.29,23.29,0,0,1,12.69-3.69q6.22,0,9.48,3.57T669,346.06v26.29ZM654,365.74a4.7,4.7,0,0,0,4.1-2.3,10.91,10.91,0,0,0,1.53-6.13V354l-2.89.14A6.57,6.57,0,0,0,652,356a7.1,7.1,0,0,0-1.49,4.92C650.53,364.13,651.67,365.74,654,365.74Z"/><path class="cls-2" d="M696,372.35V349a15.72,15.72,0,0,0-1-6.43,3.42,3.42,0,0,0-3.31-2.18,4.65,4.65,0,0,0-4.43,3q-1.39,3-1.4,10.14v18.81h-9.35V333.19h7.41l1.13,5h.6a9.66,9.66,0,0,1,9.14-5.77q5.34,0,8,3.66c1.76,2.43,2.65,6,2.65,10.68v25.56Z"/><path class="cls-2" d="M741.19,333.26v5.48l-4.67,1.06a12.63,12.63,0,0,1,1.37,6.19q0,6.21-3.38,9.73t-9.42,3.52a8.76,8.76,0,0,1-2.6-.28,11.48,11.48,0,0,0-1.27,1.33,2.89,2.89,0,0,0-.59,1.83c0,1.64,1.41,2.46,4.25,2.46h5.66q5,0,7.68,2.69c1.8,1.8,2.69,4.5,2.69,8.11q0,6.81-4.57,10.54t-13.15,3.73q-6.5,0-10-2.83a9.78,9.78,0,0,1-3.51-8.07,8.92,8.92,0,0,1,2-5.75,11.35,11.35,0,0,1,5.56-3.6,6.77,6.77,0,0,1-2.94-2.18,5.47,5.47,0,0,1-1.14-3.45,6.44,6.44,0,0,1,.35-2.16,7.13,7.13,0,0,1,1-1.83,19.31,19.31,0,0,1,2.66-2.54,10,10,0,0,1-3.84-4.54,16.16,16.16,0,0,1-1.4-6.78q0-6.44,3.37-9.95t9.67-3.52a17.07,17.07,0,0,1,2.74.26,15.86,15.86,0,0,1,2.36.55Zm-23,44.79a4.46,4.46,0,0,0,1.45,3.57,6.27,6.27,0,0,0,4.17,1.24c2.84,0,5-.53,6.38-1.61a5.27,5.27,0,0,0,2.13-4.43,3.79,3.79,0,0,0-1.14-3.13c-.77-.61-2.19-.92-4.28-.92h-4.53a3.7,3.7,0,0,0-3,1.43A6,6,0,0,0,718.17,378.05ZM721.05,346q0,6.92,3.9,6.92t3.8-7q0-7.19-3.8-7.18T721.05,346Z"/><path class="cls-2" d="M763.38,323a5,5,0,0,1,1.35-3.68,5.11,5.11,0,0,1,3.78-1.35,4.69,4.69,0,0,1,5,5,4.84,4.84,0,0,1-1.41,3.71,5.07,5.07,0,0,1-3.62,1.32,5.23,5.23,0,0,1-3.73-1.32A4.87,4.87,0,0,1,763.38,323Zm9.74,49.39h-9.36V333.19h9.36Z"/><path class="cls-2" d="M784.86,355.79v-2.46a15.42,15.42,0,0,1,1-5.89,18.65,18.65,0,0,1,3.78-5.39,19.28,19.28,0,0,0,3.33-4.47,10.16,10.16,0,0,0,.72-4.11,6.13,6.13,0,0,0-1.06-3.73,3.85,3.85,0,0,0-3.34-1.44,14.75,14.75,0,0,0-8,2.71l-3.3-7a21.21,21.21,0,0,1,12.23-3.76q5.81,0,9.16,3.21t3.36,8.95a17.79,17.79,0,0,1-1.16,6.8,24.86,24.86,0,0,1-4.82,6.74,18.63,18.63,0,0,0-3,3.95,9.14,9.14,0,0,0-.65,3.78v2.14Zm-1.65,11.75a5.78,5.78,0,0,1,1.49-4.28,5.9,5.9,0,0,1,4.34-1.49,5.79,5.79,0,0,1,4.36,1.53,5.87,5.87,0,0,1,1.48,4.24,5.84,5.84,0,1,1-11.67,0Z"/><path class="cls-2" d="M808.55,367.54a5.9,5.9,0,0,1,1.46-4.26,5.75,5.75,0,0,1,4.34-1.51,5.88,5.88,0,0,1,4.36,1.49,5.81,5.81,0,0,1,1.48,4.28,5.72,5.72,0,0,1-1.53,4.25,5.85,5.85,0,0,1-4.31,1.51,5.73,5.73,0,0,1-4.32-1.53A5.82,5.82,0,0,1,808.55,367.54Zm9.71-11.75h-7.7L808.83,321h11.22Z"/><path class="cls-2" d="M156.47,432.56q0,12.72-5.18,19.46t-14.92,6.73H123.78v-51.4h13.75q9,0,13.95,6.63T156.47,432.56Zm-9.8.28q0-17.22-9.5-17.22h-3.83v34.76h3.1a8.28,8.28,0,0,0,7.73-4.37Q146.66,441.63,146.67,432.84Z"/><path class="cls-2" d="M177.85,459.46a14.11,14.11,0,0,1-11.58-5.23Q162,449,162,439.45t3.83-15.15a12.35,12.35,0,0,1,10.69-5.45,12.17,12.17,0,0,1,10.09,4.66q3.69,4.65,3.69,13.06v5H171.52q.1,5.24,2.15,7.79a6.8,6.8,0,0,0,5.62,2.55,18.18,18.18,0,0,0,9.35-2.85v7.7A20.6,20.6,0,0,1,177.85,459.46Zm-1.37-33.4a3.83,3.83,0,0,0-3.31,2.12,14.43,14.43,0,0,0-1.51,6.6h9.49a14.13,14.13,0,0,0-1.3-6.51A3.73,3.73,0,0,0,176.48,426.06Z"/><path class="cls-2" d="M210.12,451.54a10.76,10.76,0,0,0,4.26-1v7.31c-1.53,1.06-3.81,1.59-6.86,1.59q-5.1,0-7.56-3t-2.46-9.12V427h-3.79v-4.19l4.88-3.37,2.39-8.3h6v8.44h7.1V427H207v20.6Q207,451.54,210.12,451.54Z"/><path class="cls-2" d="M252.1,459.46a14.11,14.11,0,0,1-11.58-5.23q-4.25-5.22-4.24-14.78t3.83-15.15a12.35,12.35,0,0,1,10.69-5.45,12.17,12.17,0,0,1,10.09,4.66q3.69,4.65,3.69,13.06v5H245.77q.1,5.24,2.15,7.79a6.8,6.8,0,0,0,5.62,2.55,18.18,18.18,0,0,0,9.35-2.85v7.7A20.6,20.6,0,0,1,252.1,459.46Zm-1.37-33.4a3.83,3.83,0,0,0-3.31,2.12,14.43,14.43,0,0,0-1.51,6.6h9.49a14.13,14.13,0,0,0-1.3-6.51A3.73,3.73,0,0,0,250.73,426.06Z"/><path class="cls-2" d="M287.47,418.85a11,11,0,0,1,3.37.53l-1.09,9.07a7.59,7.59,0,0,0-2.56-.35,5.94,5.94,0,0,0-5.24,2.69q-1.83,2.68-1.83,7.82v20.14h-9.35V419.59h7.7l1,6.12h.32a14.17,14.17,0,0,1,3.37-5.28A6.34,6.34,0,0,1,287.47,418.85Z"/><path class="cls-2" d="M333.84,447.29q0,5.73-3.36,8.95t-9.9,3.22a18.38,18.38,0,0,1-9.59-2.29v-8.12a18,18,0,0,0,4.51,2.21,14.33,14.33,0,0,0,4.56.88,4.65,4.65,0,0,0,3.32-1.07,3.7,3.7,0,0,0,1.14-2.83,4.56,4.56,0,0,0-1.19-3.13,20.63,20.63,0,0,0-4.4-3.27,18.1,18.1,0,0,1-6.1-5.39,12.23,12.23,0,0,1-1.84-6.77,9.85,9.85,0,0,1,3.42-7.91q3.43-2.92,9.41-2.92a18.84,18.84,0,0,1,9.81,2.74l-3.06,6.72a14.3,14.3,0,0,0-6.61-2,3.5,3.5,0,0,0-2.69,1,3.23,3.23,0,0,0-.9,2.32,4.08,4.08,0,0,0,1.11,2.81,19.67,19.67,0,0,0,4.13,3.06,25.87,25.87,0,0,1,5.13,3.76,11.08,11.08,0,0,1,2.29,3.52A12,12,0,0,1,333.84,447.29Z"/><path class="cls-2" d="M353.35,451.54a10.71,10.71,0,0,0,4.25-1v7.31c-1.52,1.06-3.81,1.59-6.85,1.59q-5.1,0-7.56-3t-2.46-9.12V427h-3.8v-4.19l4.89-3.37,2.39-8.3h6v8.44h7.1V427h-7.1v20.6Q350.19,451.54,353.35,451.54Z"/><path class="cls-2" d="M379.79,418.85a11,11,0,0,1,3.37.53l-1.09,9.07a7.59,7.59,0,0,0-2.56-.35,5.94,5.94,0,0,0-5.24,2.69q-1.83,2.68-1.83,7.82v20.14h-9.35V419.59h7.7l1,6.12h.32a14.17,14.17,0,0,1,3.37-5.28A6.34,6.34,0,0,1,379.79,418.85Z"/><path class="cls-2" d="M401.79,459.46a14.13,14.13,0,0,1-11.58-5.23Q386,449,386,439.45t3.84-15.15a12.32,12.32,0,0,1,10.68-5.45,12.16,12.16,0,0,1,10.09,4.66q3.69,4.65,3.7,13.06v5H395.47q.11,5.24,2.14,7.79a6.82,6.82,0,0,0,5.63,2.55,18.24,18.24,0,0,0,9.35-2.85v7.7A20.61,20.61,0,0,1,401.79,459.46Zm-1.37-33.4a3.83,3.83,0,0,0-3.3,2.12q-1.31,2.13-1.51,6.6h9.49a14.26,14.26,0,0,0-1.3-6.51A3.74,3.74,0,0,0,400.42,426.06Z"/><path class="cls-2" d="M440,458.75V435.41a16,16,0,0,0-1-6.44,3.44,3.44,0,0,0-3.31-2.18,4.65,4.65,0,0,0-4.43,3c-.94,2-1.41,5.39-1.41,10.14v18.81h-9.35V419.59h7.42l1.13,5h.59a9.66,9.66,0,0,1,9.14-5.77c3.57,0,6.23,1.22,8,3.66s2.66,6,2.66,10.68v25.56Z"/><path class="cls-2" d="M485.15,419.66v5.48l-4.68,1.06a12.5,12.5,0,0,1,1.38,6.18q0,6.22-3.38,9.74t-9.42,3.52a9.12,9.12,0,0,1-2.6-.28,11.48,11.48,0,0,0-1.27,1.33,2.82,2.82,0,0,0-.6,1.83q0,2.46,4.26,2.46h5.66q5,0,7.68,2.69c1.79,1.79,2.69,4.5,2.69,8.11q0,6.81-4.57,10.54t-13.15,3.73q-6.51,0-10-2.83a9.78,9.78,0,0,1-3.51-8.07,8.85,8.85,0,0,1,2-5.75,11.36,11.36,0,0,1,5.55-3.6,6.8,6.8,0,0,1-2.93-2.18,5.49,5.49,0,0,1-1.14-3.45,6.2,6.2,0,0,1,.35-2.16,7.13,7.13,0,0,1,1-1.83,19.58,19.58,0,0,1,2.65-2.55,10,10,0,0,1-3.83-4.53,16,16,0,0,1-1.4-6.79q0-6.42,3.37-9.94t9.67-3.52a17.07,17.07,0,0,1,2.74.26,15.86,15.86,0,0,1,2.36.55Zm-23,44.79a4.47,4.47,0,0,0,1.46,3.57,6.23,6.23,0,0,0,4.17,1.24q4.25,0,6.38-1.61a5.27,5.27,0,0,0,2.13-4.43,3.77,3.77,0,0,0-1.15-3.13c-.76-.61-2.18-.92-4.27-.92h-4.53a3.7,3.7,0,0,0-3,1.43A5.93,5.93,0,0,0,462.12,464.45ZM465,432.38q0,6.93,3.9,6.93t3.8-7q0-7.17-3.8-7.17C466.31,425.14,465,427.56,465,432.38Z"/><path class="cls-2" d="M503.47,451.54a10.71,10.71,0,0,0,4.25-1v7.31c-1.52,1.06-3.81,1.59-6.85,1.59q-5.1,0-7.56-3t-2.46-9.12V427h-3.8v-4.19l4.89-3.37,2.39-8.3h6v8.44h7.1V427h-7.1v20.6Q500.3,451.54,503.47,451.54Z"/><path class="cls-2" d="M548.4,427h-6.47v31.74h-9.35V427H528v-4.68l4.54-2.81v-3c0-4.35.9-7.6,2.7-9.72s4.71-3.18,8.72-3.18a16.09,16.09,0,0,1,7.07,1.58l-2.46,7.14a8.24,8.24,0,0,0-3.59-.84,2.51,2.51,0,0,0-2.35,1.26,7.94,7.94,0,0,0-.74,3.91v2.88h6.47Z"/><path class="cls-2" d="M581.51,439.1q0,9.63-4.07,15a14.21,14.21,0,0,1-19.13,2.9,15.54,15.54,0,0,1-5.31-7.08,28.85,28.85,0,0,1-1.86-10.81q0-9.53,4-14.89a13.28,13.28,0,0,1,11.22-5.36,13.06,13.06,0,0,1,11,5.47Q581.52,429.78,581.51,439.1Zm-20.81,0q0,6.12,1.34,9.25t4.29,3.12q5.63,0,5.62-12.37c0-4.1-.45-7.17-1.35-9.19a4.53,4.53,0,0,0-8.56,0C561.15,431.93,560.7,435,560.7,439.1Z"/><path class="cls-2" d="M604.79,418.85a11,11,0,0,1,3.37.53l-1.09,9.07a7.59,7.59,0,0,0-2.56-.35,5.94,5.94,0,0,0-5.24,2.69q-1.83,2.68-1.83,7.82v20.14h-9.35V419.59h7.7l1.05,6.12h.32a14.17,14.17,0,0,1,3.37-5.28A6.34,6.34,0,0,1,604.79,418.85Z"/><path class="cls-2" d="M630,418.85q5.34,0,8.4,5.31t3.06,14.94q0,9.73-3.08,15t-8.52,5.31a9.33,9.33,0,0,1-4.66-1.15,11.25,11.25,0,0,1-3.81-4h-.6l-1.58,4.46h-6.89v-54.7h9.35v12.8c0,.53,0,1.1,0,1.68s-.17,2.64-.45,6.16h.49a12,12,0,0,1,3.72-4.54A8.26,8.26,0,0,1,630,418.85Zm-3.24,7.94a4,4,0,0,0-3.84,2.5c-.79,1.67-1.21,4.59-1.25,8.79V439q0,6.83,1.21,9.6a4.1,4.1,0,0,0,4,2.77q5.05,0,5.06-12.44Q631.93,426.8,626.79,426.79Z"/><path class="cls-2" d="M669.23,458.75l-1.16-5h-.49a9.94,9.94,0,0,1-9.21,5.74q-5.28,0-8-3.59t-2.7-10.72V419.59h9.45V442.9a15.9,15.9,0,0,0,1,6.47,3.43,3.43,0,0,0,3.31,2.17,4.6,4.6,0,0,0,4.41-3q1.39-3,1.39-10.16V419.59h9.46v39.16Z"/><path class="cls-2" d="M694.86,459.46q-5.42,0-8.55-5.35t-3.12-14.87q0-9.56,3-15t8.44-5.41a8,8,0,0,1,4.62,1.32,11.87,11.87,0,0,1,3.61,4.45h.56c-.28-3.57-.42-6.06-.42-7.49V404.05h9.35v54.7h-7l-1.58-5.1h-.32Q700.56,459.46,694.86,459.46Zm3-7.92a4,4,0,0,0,3.8-2.37c.79-1.58,1.23-4.46,1.3-8.63v-1.23c0-4.55-.41-7.75-1.21-9.6a4.12,4.12,0,0,0-4-2.77q-2.61,0-3.78,3.18a27.87,27.87,0,0,0-1.18,9.26q0,6.09,1.19,9.12T697.88,451.54Z"/><path class="cls-2" d="M733.88,451.54a10.71,10.71,0,0,0,4.25-1v7.31q-2.28,1.59-6.85,1.59-5.1,0-7.56-3t-2.46-9.12V427h-3.8v-4.19l4.89-3.37,2.39-8.3h6v8.44h7.1V427h-7.1v20.6Q730.72,451.54,733.88,451.54Z"/><path class="cls-2" d="M743.55,453.94a5.9,5.9,0,0,1,1.46-4.26,5.75,5.75,0,0,1,4.34-1.51,5.21,5.21,0,0,1,5.84,5.77,5.72,5.72,0,0,1-1.53,4.25,5.86,5.86,0,0,1-4.31,1.51,5.72,5.72,0,0,1-4.32-1.53A5.82,5.82,0,0,1,743.55,453.94Zm9.7-11.75h-7.7l-1.72-34.84H755Z"/><path class="cls-2" d="M814.18,432.56q0,12.72-5.19,19.46t-14.92,6.73H781.48v-51.4h13.75q9,0,14,6.63T814.18,432.56Zm-9.81.28q0-17.22-9.49-17.22H791v34.76h3.1a8.28,8.28,0,0,0,7.73-4.37Q804.38,441.63,804.37,432.84Z"/><path class="cls-2" d="M835.55,459.46A14.11,14.11,0,0,1,824,454.23q-4.25-5.22-4.24-14.78t3.83-15.15a12.35,12.35,0,0,1,10.69-5.45,12.16,12.16,0,0,1,10.09,4.66q3.69,4.65,3.69,13.06v5H829.22q.1,5.24,2.15,7.79A6.8,6.8,0,0,0,837,451.9a18.24,18.24,0,0,0,9.36-2.85v7.7A20.61,20.61,0,0,1,835.55,459.46Zm-1.37-33.4a3.82,3.82,0,0,0-3.3,2.12q-1.3,2.13-1.51,6.6h9.49a14.26,14.26,0,0,0-1.3-6.51A3.74,3.74,0,0,0,834.18,426.06Z"/><path class="cls-2" d="M867.83,451.54a10.71,10.71,0,0,0,4.25-1v7.31q-2.28,1.59-6.86,1.59-5.09,0-7.55-3t-2.46-9.12V427h-3.8v-4.19l4.88-3.37,2.4-8.3h6v8.44h7.1V427h-7.1v20.6Q864.66,451.54,867.83,451.54Z"/><path class="cls-2" d="M909.8,459.46a14.11,14.11,0,0,1-11.58-5.23Q894,449,894,439.45t3.83-15.15a12.35,12.35,0,0,1,10.69-5.45,12.16,12.16,0,0,1,10.09,4.66q3.69,4.65,3.69,13.06v5H903.47q.1,5.24,2.15,7.79a6.8,6.8,0,0,0,5.62,2.55,18.24,18.24,0,0,0,9.36-2.85v7.7A20.61,20.61,0,0,1,909.8,459.46Zm-1.37-33.4a3.82,3.82,0,0,0-3.3,2.12q-1.3,2.13-1.51,6.6h9.49a14.26,14.26,0,0,0-1.3-6.51A3.74,3.74,0,0,0,908.43,426.06Z"/><path class="cls-2" d="M945.17,418.85a11,11,0,0,1,3.37.53l-1.08,9.07a7.7,7.7,0,0,0-2.57-.35,6,6,0,0,0-5.24,2.69q-1.83,2.68-1.83,7.82v20.14h-9.35V419.59h7.7l1.05,6.12h.32a14.18,14.18,0,0,1,3.38-5.28A6.29,6.29,0,0,1,945.17,418.85Z"/><path class="cls-2" d="M155.37,525.5q0,9.63-4.08,15a14.21,14.21,0,0,1-19.13,2.9,15.6,15.6,0,0,1-5.3-7.08A28.65,28.65,0,0,1,125,525.5q0-9.53,4-14.89a13.25,13.25,0,0,1,11.21-5.36,13,13,0,0,1,11,5.47Q155.37,516.18,155.37,525.5Zm-20.82,0q0,6.12,1.34,9.25c.89,2.08,2.32,3.13,4.29,3.13q5.63,0,5.62-12.38c0-4.1-.45-7.17-1.35-9.19a4.53,4.53,0,0,0-8.56,0C135,518.33,134.55,521.4,134.55,525.5Z"/><path class="cls-2" d="M171.15,524.06l2.36-4.68L181.24,506h9.92l-9.92,16.06,10.58,23.1H182L175,528.59l-3.66,3.31v13.25h-9.35v-54.7h9.35v25.77l-.42,7.84Z"/><path class="cls-2" d="M215.06,545.15l-1.86-5.34H213a13.11,13.11,0,0,1-4.29,4.74,10.88,10.88,0,0,1-5.59,1.31,8.09,8.09,0,0,1-6.8-3.24c-1.66-2.16-2.48-5.16-2.48-9q0-6.18,3.39-9.19t10.14-3.32l5.21-.22v-2.81c0-3.65-1.59-5.48-4.75-5.48q-3.51,0-8.09,2.74l-3.23-6.47a23.29,23.29,0,0,1,12.69-3.69q6.23,0,9.48,3.57t3.25,10.11v26.29Zm-8.12-6.61a4.7,4.7,0,0,0,4.1-2.3,10.91,10.91,0,0,0,1.53-6.13V526.8l-2.89.14a6.57,6.57,0,0,0-4.69,1.83,7.1,7.1,0,0,0-1.49,4.92C203.5,536.93,204.64,538.54,206.94,538.54Z"/><path class="cls-2" d="M225.5,506h9.71l5.41,22.11a50.75,50.75,0,0,1,1.3,8.26h.21c0-.56.13-1.56.32-3s.34-2.57.46-3.4,1.73-8.81,4.85-24h9.84l-11.21,42q-2,7.74-5.42,11.11a12.17,12.17,0,0,1-9,3.38,18.65,18.65,0,0,1-4.95-.6V554a11.49,11.49,0,0,0,3.23.42q4.71,0,6.19-6.18l.67-2.46Z"/><path class="cls-2" d="M298.56,545.15l-1.86-5.34h-.22a13.19,13.19,0,0,1-4.28,4.74,10.88,10.88,0,0,1-5.59,1.31,8.11,8.11,0,0,1-6.81-3.24q-2.48-3.24-2.48-9,0-6.18,3.4-9.19t10.14-3.32l5.2-.22v-2.81q0-5.48-4.74-5.48c-2.35,0-5,.91-8.09,2.74L280,508.87a23.29,23.29,0,0,1,12.69-3.69q6.22,0,9.47,3.57t3.25,10.11v26.29Zm-8.12-6.61a4.68,4.68,0,0,0,4.09-2.3,10.91,10.91,0,0,0,1.53-6.13V526.8l-2.88.14a6.55,6.55,0,0,0-4.69,1.83,7.1,7.1,0,0,0-1.5,4.92C287,536.93,288.14,538.54,290.44,538.54Z"/><path class="cls-2" d="M326.58,538a10.74,10.74,0,0,0,4.25-1v7.31c-1.52,1.06-3.81,1.59-6.85,1.59q-5.1,0-7.56-3.05T314,533.69V513.41h-3.8v-4.19l4.89-3.37,2.39-8.3h6V506h7.11v7.42h-7.11V534C323.41,536.63,324.47,538,326.58,538Z"/><path class="cls-2" d="M371.51,513.41H365v31.74h-9.35V513.41h-4.54v-4.68l4.54-2.81v-3q0-6.52,2.7-9.72t8.72-3.18a16.09,16.09,0,0,1,7.07,1.58l-2.46,7.14a8.24,8.24,0,0,0-3.59-.84,2.51,2.51,0,0,0-2.35,1.26,8.05,8.05,0,0,0-.74,3.91V506h6.47Z"/><path class="cls-2" d="M394.82,545.15,393,539.81h-.21a13.11,13.11,0,0,1-4.29,4.74,10.86,10.86,0,0,1-5.59,1.31,8.09,8.09,0,0,1-6.8-3.24q-2.47-3.24-2.48-9,0-6.18,3.39-9.19t10.15-3.32l5.2-.22v-2.81q0-5.48-4.75-5.48-3.51,0-8.08,2.74l-3.24-6.47a23.32,23.32,0,0,1,12.7-3.69q6.21,0,9.47,3.57t3.25,10.11v26.29Zm2.95-51.85a7.85,7.85,0,0,1-2.44,6,9,9,0,0,1-6.35,2.26,8.76,8.76,0,0,1-6.22-2.19,8.85,8.85,0,0,1,0-12,8.76,8.76,0,0,1,6.22-2.19,9,9,0,0,1,6.31,2.25A7.56,7.56,0,0,1,397.77,493.3ZM386.7,538.54a4.68,4.68,0,0,0,4.09-2.3,10.91,10.91,0,0,0,1.53-6.13V526.8l-2.88.14a6.57,6.57,0,0,0-4.7,1.83,7.15,7.15,0,0,0-1.49,4.92C383.25,536.93,384.4,538.54,386.7,538.54Zm5.8-45.17a3.37,3.37,0,0,0-1-2.57,3.79,3.79,0,0,0-5,0,3.37,3.37,0,0,0-1,2.57,3.7,3.7,0,0,0,.88,2.6,3.45,3.45,0,0,0,2.64.95,3.5,3.5,0,0,0,2.51-.95A3.4,3.4,0,0,0,392.5,493.37Z"/><path class="cls-2" d="M465.9,545.15V521.81q0-8.61-4.25-8.61a4.56,4.56,0,0,0-4.43,3.07q-1.34,3.08-1.34,9.86v19h-9.42V521.81q0-8.61-4.32-8.61a4.58,4.58,0,0,0-4.4,3c-.91,2-1.37,5.41-1.37,10.09v18.81H427V506h7.42l1.12,5h.6a9.42,9.42,0,0,1,3.85-4.38,10.36,10.36,0,0,1,5.22-1.39q7.17,0,9.56,6.79h.35q3-6.79,9.6-6.79a9.17,9.17,0,0,1,7.89,3.66c1.8,2.43,2.69,6,2.69,10.68v25.56Z"/><path class="cls-2" d="M497.33,545.86a14.08,14.08,0,0,1-11.58-5.23q-4.25-5.22-4.24-14.78t3.83-15.15A12.35,12.35,0,0,1,496,505.25a12.16,12.16,0,0,1,10.09,4.66q3.69,4.65,3.69,13.06v5H491q.11,5.24,2.15,7.79a6.8,6.8,0,0,0,5.62,2.55,18.18,18.18,0,0,0,9.35-2.85v7.7A20.58,20.58,0,0,1,497.33,545.86ZM496,512.46a3.8,3.8,0,0,0-3.3,2.12c-.87,1.42-1.37,3.62-1.52,6.6h9.5a14.26,14.26,0,0,0-1.3-6.51A3.76,3.76,0,0,0,496,512.46Z"/><path class="cls-2" d="M535.51,545.15V521.81a15.72,15.72,0,0,0-1-6.43,3.42,3.42,0,0,0-3.3-2.18,4.64,4.64,0,0,0-4.43,3q-1.41,3-1.41,10.14v18.81H516V506h7.42l1.12,5h.6a9.66,9.66,0,0,1,9.14-5.77q5.34,0,8,3.66c1.77,2.43,2.65,6,2.65,10.68v25.56Z"/><path class="cls-2" d="M589.48,545.15l-1.87-5.34h-.21a13.11,13.11,0,0,1-4.29,4.74,10.86,10.86,0,0,1-5.59,1.31,8.09,8.09,0,0,1-6.8-3.24q-2.47-3.24-2.48-9,0-6.18,3.39-9.19t10.15-3.32l5.2-.22v-2.81q0-5.48-4.75-5.48-3.51,0-8.08,2.74l-3.24-6.47a23.32,23.32,0,0,1,12.7-3.69q6.21,0,9.47,3.57t3.25,10.11v26.29Zm-8.12-6.61a4.68,4.68,0,0,0,4.09-2.3,10.91,10.91,0,0,0,1.53-6.13V526.8l-2.88.14a6.57,6.57,0,0,0-4.7,1.83,7.15,7.15,0,0,0-1.49,4.92C577.91,536.93,579.06,538.54,581.36,538.54Z"/><path class="cls-2" d="M613.24,545.15h-9.35v-54.7h9.35Z"/><path class="cls-2" d="M631.38,545.86q-5.42,0-8.54-5.35t-3.13-14.87q0-9.55,3.06-15t8.44-5.41a8,8,0,0,1,4.62,1.32,12,12,0,0,1,3.6,4.45H640c-.29-3.57-.43-6.06-.43-7.49V490.45h9.36v54.7h-7l-1.58-5.1h-.31Q637.07,545.86,631.38,545.86Zm3-7.91a4,4,0,0,0,3.79-2.38q1.2-2.37,1.3-8.63v-1.23q0-6.83-1.21-9.6a4.12,4.12,0,0,0-4-2.77q-2.59,0-3.78,3.18a28.13,28.13,0,0,0-1.18,9.26q0,6.09,1.2,9.12C631.34,536.93,632.62,538,634.41,538Z"/><path class="cls-2" d="M673.5,505.25a11.15,11.15,0,0,1,3.38.53l-1.09,9.07a7.7,7.7,0,0,0-2.57-.35,6,6,0,0,0-5.24,2.69q-1.83,2.68-1.83,7.82v20.14H656.8V506h7.7l1,6.12h.32a14.18,14.18,0,0,1,3.38-5.28A6.29,6.29,0,0,1,673.5,505.25Z"/><path class="cls-2" d="M680.74,495.76a5,5,0,0,1,1.36-3.68,5.11,5.11,0,0,1,3.78-1.35,4.69,4.69,0,0,1,5,5,4.87,4.87,0,0,1-1.4,3.71,5.09,5.09,0,0,1-3.62,1.32,5.23,5.23,0,0,1-3.73-1.32A4.84,4.84,0,0,1,680.74,495.76Zm9.74,49.39h-9.35V506h9.35Z"/><path class="cls-2" d="M726.69,506.06v5.48L722,512.6a12.63,12.63,0,0,1,1.37,6.19q0,6.21-3.38,9.73T710.59,532a8.76,8.76,0,0,1-2.6-.28,11.48,11.48,0,0,0-1.27,1.33,2.84,2.84,0,0,0-.6,1.83q0,2.46,4.26,2.46H716q5,0,7.68,2.69t2.69,8.11q0,6.81-4.57,10.54t-13.15,3.73q-6.5,0-10-2.83a9.78,9.78,0,0,1-3.51-8.07,8.87,8.87,0,0,1,2-5.75,11.36,11.36,0,0,1,5.55-3.6,6.8,6.8,0,0,1-2.93-2.18,5.47,5.47,0,0,1-1.14-3.45,6.2,6.2,0,0,1,.35-2.16,7.13,7.13,0,0,1,1-1.83,19.06,19.06,0,0,1,2.65-2.54,10.09,10.09,0,0,1-3.83-4.54,16.17,16.17,0,0,1-1.4-6.79q0-6.42,3.37-9.94t9.67-3.52a17.07,17.07,0,0,1,2.74.26,15.86,15.86,0,0,1,2.36.55Zm-23,44.79a4.47,4.47,0,0,0,1.46,3.57,6.25,6.25,0,0,0,4.17,1.24q4.25,0,6.38-1.61a5.27,5.27,0,0,0,2.13-4.43,3.77,3.77,0,0,0-1.15-3.13c-.76-.61-2.18-.92-4.27-.92h-4.53a3.7,3.7,0,0,0-3,1.43A5.93,5.93,0,0,0,703.66,550.85Zm2.89-32.06q0,6.91,3.9,6.92t3.8-7q0-7.17-3.8-7.17T706.55,518.79Z"/><path class="cls-2" d="M748.88,495.76a5,5,0,0,1,1.35-3.68,5.11,5.11,0,0,1,3.78-1.35,4.7,4.7,0,0,1,5,5,4.84,4.84,0,0,1-1.41,3.71,5.09,5.09,0,0,1-3.62,1.32,5.23,5.23,0,0,1-3.73-1.32A4.83,4.83,0,0,1,748.88,495.76Zm9.73,49.39h-9.35V506h9.35Z"/><path class="cls-2" d="M813.42,525.5q0,9.63-4.08,15a14.19,14.19,0,0,1-19.12,2.9,15.54,15.54,0,0,1-5.31-7.08,28.85,28.85,0,0,1-1.86-10.81q0-9.53,4-14.89a13.26,13.26,0,0,1,11.21-5.36,13.07,13.07,0,0,1,11,5.47Q813.43,516.18,813.42,525.5Zm-20.81,0c0,4.08.44,7.16,1.34,9.25s2.32,3.13,4.28,3.13q5.63,0,5.63-12.38c0-4.1-.45-7.17-1.35-9.19a4.53,4.53,0,0,0-8.56,0C793.05,518.33,792.61,521.4,792.61,525.5Z"/><path class="cls-2" d="M836.7,505.25a11.09,11.09,0,0,1,3.37.53L839,514.85a7.66,7.66,0,0,0-2.57-.35,5.92,5.92,0,0,0-5.23,2.69q-1.83,2.68-1.83,7.82v20.14H820V506h7.7l1,6.12h.32a14.17,14.17,0,0,1,3.37-5.28A6.34,6.34,0,0,1,836.7,505.25Z"/><path class="cls-2" d="M854.55,545.86q-5.4,0-8.54-5.35t-3.13-14.87q0-9.55,3.06-15t8.44-5.41a8,8,0,0,1,4.62,1.32,12.07,12.07,0,0,1,3.61,4.45h.56c-.28-3.57-.42-6.06-.42-7.49V490.45h9.35v54.7h-7l-1.59-5.1h-.31Q860.26,545.86,854.55,545.86Zm3-7.91a4,4,0,0,0,3.8-2.38c.79-1.58,1.23-4.46,1.3-8.63v-1.23q0-6.83-1.22-9.6a4.12,4.12,0,0,0-4-2.77q-2.6,0-3.78,3.18a28.18,28.18,0,0,0-1.17,9.26c0,4.06.39,7.1,1.19,9.12S855.8,538,857.58,538Z"/><path class="cls-2" d="M894.42,545.86a14.08,14.08,0,0,1-11.58-5.23q-4.25-5.22-4.24-14.78t3.83-15.15a12.35,12.35,0,0,1,10.69-5.45,12.16,12.16,0,0,1,10.09,4.66q3.69,4.65,3.69,13.06v5H888.09q.1,5.24,2.15,7.79a6.8,6.8,0,0,0,5.62,2.55,18.18,18.18,0,0,0,9.35-2.85v7.7A20.58,20.58,0,0,1,894.42,545.86Zm-1.37-33.4a3.8,3.8,0,0,0-3.3,2.12c-.87,1.42-1.37,3.62-1.52,6.6h9.5a14.26,14.26,0,0,0-1.3-6.51A3.76,3.76,0,0,0,893.05,512.46Z"/><path class="cls-2" d="M932.6,545.15V521.81a15.72,15.72,0,0,0-1-6.43,3.42,3.42,0,0,0-3.3-2.18,4.64,4.64,0,0,0-4.43,3q-1.41,3-1.41,10.14v18.81h-9.35V506h7.42l1.12,5h.6a9.66,9.66,0,0,1,9.14-5.77q5.34,0,8,3.66c1.77,2.43,2.65,6,2.65,10.68v25.56Z"/><path class="cls-2" d="M340.34,631.55l-1.86-5.34h-.21A13.29,13.29,0,0,1,334,631a10.88,10.88,0,0,1-5.59,1.3,8.08,8.08,0,0,1-6.8-3.23c-1.66-2.16-2.48-5.16-2.48-9q0-6.18,3.39-9.19c2.26-2,5.64-3.11,10.14-3.33l5.21-.21v-2.81c0-3.65-1.59-5.48-4.75-5.48q-3.51,0-8.09,2.74l-3.23-6.47a23.29,23.29,0,0,1,12.69-3.69q6.22,0,9.48,3.57t3.25,10.1v26.3Zm-8.12-6.61a4.72,4.72,0,0,0,4.1-2.3,11,11,0,0,0,1.53-6.14v-3.3l-2.89.14a6.57,6.57,0,0,0-4.69,1.83,7.1,7.1,0,0,0-1.49,4.92C328.78,623.33,329.92,624.94,332.22,624.94Z"/><path class="cls-2" d="M368.36,624.34a10.8,10.8,0,0,0,4.26-1v7.31c-1.53,1.06-3.81,1.58-6.86,1.58q-5.1,0-7.56-3t-2.46-9.12V599.81h-3.8v-4.19l4.89-3.37,2.39-8.3h6v8.44h7.1v7.42h-7.1v20.6Q365.2,624.34,368.36,624.34Z"/><path class="cls-2" d="M416.91,620.09q0,5.73-3.36,8.95t-9.89,3.21a18.39,18.39,0,0,1-9.6-2.28v-8.12a18.12,18.12,0,0,0,4.52,2.21,14.27,14.27,0,0,0,4.55.88,4.7,4.7,0,0,0,3.32-1.07A3.71,3.71,0,0,0,407.6,621a4.53,4.53,0,0,0-1.2-3.13,20.51,20.51,0,0,0-4.39-3.27,18,18,0,0,1-6.1-5.39,12.26,12.26,0,0,1-1.85-6.77,9.83,9.83,0,0,1,3.43-7.91q3.42-2.93,9.4-2.92a18.84,18.84,0,0,1,9.81,2.74l-3.06,6.72a14.3,14.3,0,0,0-6.61-2,3.52,3.52,0,0,0-2.69.95,3.27,3.27,0,0,0-.89,2.32,4.12,4.12,0,0,0,1.1,2.81,19.52,19.52,0,0,0,4.14,3.06,26.5,26.5,0,0,1,5.13,3.76,11.22,11.22,0,0,1,2.28,3.52A12,12,0,0,1,416.91,620.09Z"/><path class="cls-2" d="M437.27,632.25A14.13,14.13,0,0,1,425.68,627q-4.23-5.22-4.23-14.78t3.83-15.15A12.34,12.34,0,0,1,436,591.65a12.17,12.17,0,0,1,10.09,4.66q3.69,4.65,3.69,13.06v5H430.94q.1,5.24,2.14,7.79a6.82,6.82,0,0,0,5.63,2.55,18.21,18.21,0,0,0,9.35-2.85v7.7A20.6,20.6,0,0,1,437.27,632.25Zm-1.37-33.39a3.83,3.83,0,0,0-3.31,2.12q-1.3,2.13-1.51,6.6h9.49a14.13,14.13,0,0,0-1.3-6.51A3.73,3.73,0,0,0,435.9,598.86Z"/><path class="cls-2" d="M475.45,631.55V608.21a15.81,15.81,0,0,0-1-6.44,3.43,3.43,0,0,0-3.31-2.18,4.66,4.66,0,0,0-4.43,3c-.93,2-1.4,5.39-1.4,10.14v18.81h-9.35V592.39h7.41l1.13,5h.6a9.66,9.66,0,0,1,9.14-5.77c3.56,0,6.23,1.22,8,3.66s2.66,6,2.66,10.68v25.56Z"/><path class="cls-2" d="M502.73,632.25q-5.42,0-8.54-5.34T491.06,612q0-9.56,3.06-15c2-3.61,4.85-5.41,8.43-5.41a8.08,8.08,0,0,1,4.63,1.32,12,12,0,0,1,3.6,4.45h.56c-.28-3.57-.42-6.06-.42-7.49V576.85h9.35v54.7h-7l-1.58-5.1h-.32Q508.43,632.26,502.73,632.25Zm3-7.91a4,4,0,0,0,3.8-2.37q1.2-2.37,1.3-8.63v-1.23q0-6.83-1.21-9.6a4.12,4.12,0,0,0-4-2.77q-2.61,0-3.78,3.18a27.87,27.87,0,0,0-1.18,9.26q0,6.09,1.19,9.12T505.75,624.34Z"/><path class="cls-2" d="M542.6,632.25A14.13,14.13,0,0,1,531,627q-4.23-5.22-4.23-14.78t3.83-15.15a12.32,12.32,0,0,1,10.68-5.45,12.16,12.16,0,0,1,10.09,4.66q3.71,4.65,3.7,13.06v5H536.27q.11,5.24,2.14,7.79A6.82,6.82,0,0,0,544,624.7a18.24,18.24,0,0,0,9.35-2.85v7.7A20.6,20.6,0,0,1,542.6,632.25Zm-1.38-33.39a3.83,3.83,0,0,0-3.3,2.12q-1.3,2.13-1.51,6.6h9.49a14.26,14.26,0,0,0-1.3-6.51A3.74,3.74,0,0,0,541.22,598.86Z"/><path class="cls-2" d="M585.31,631.55l-10.23-39.16h9.7l5,22.67c.21,1.06.46,2.6.75,4.63s.48,3.48.55,4.37h.14a30.32,30.32,0,0,1,.3-3c.17-1.31.35-2.52.54-3.62s2-9.45,5.41-25h9.71l-10.27,39.16Z"/><path class="cls-2" d="M610.83,582.16a5,5,0,0,1,1.36-3.68,5.11,5.11,0,0,1,3.78-1.35,4.69,4.69,0,0,1,5,5,4.83,4.83,0,0,1-1.4,3.71,5.08,5.08,0,0,1-3.62,1.31,5.23,5.23,0,0,1-3.73-1.31A4.84,4.84,0,0,1,610.83,582.16Zm9.74,49.39h-9.35V592.39h9.35Z"/><path class="cls-2" d="M638.89,632.25q-5.42,0-8.54-5.34T627.22,612q0-9.56,3.06-15c2-3.61,4.85-5.41,8.43-5.41a8.08,8.08,0,0,1,4.63,1.32,12,12,0,0,1,3.6,4.45h.56c-.28-3.57-.42-6.06-.42-7.49V576.85h9.35v54.7h-7l-1.58-5.1h-.32Q644.59,632.26,638.89,632.25Zm3-7.91a4,4,0,0,0,3.8-2.37q1.2-2.37,1.3-8.63v-1.23q0-6.83-1.21-9.6a4.12,4.12,0,0,0-4-2.77q-2.61,0-3.78,3.18a27.87,27.87,0,0,0-1.18,9.26q0,6.09,1.19,9.12T641.91,624.34Z"/><path class="cls-2" d="M678.76,632.25A14.13,14.13,0,0,1,667.17,627q-4.23-5.22-4.23-14.78t3.83-15.15a12.33,12.33,0,0,1,10.69-5.45,12.15,12.15,0,0,1,10.08,4.66q3.71,4.65,3.7,13.06v5H672.43q.11,5.24,2.14,7.79a6.82,6.82,0,0,0,5.63,2.55,18.24,18.24,0,0,0,9.35-2.85v7.7A20.6,20.6,0,0,1,678.76,632.25Zm-1.38-33.39a3.83,3.83,0,0,0-3.3,2.12q-1.3,2.13-1.51,6.6h9.49a14.26,14.26,0,0,0-1.3-6.51A3.74,3.74,0,0,0,677.38,598.86Z"/><path class="cls-2" d="M714.12,591.65a11.1,11.1,0,0,1,3.38.53l-1.09,9.07a7.66,7.66,0,0,0-2.57-.35,6,6,0,0,0-5.24,2.68c-1.22,1.8-1.82,4.41-1.82,7.83v20.14h-9.36V592.39h7.7l1.06,6.11h.31a14.33,14.33,0,0,1,3.38-5.27A6.33,6.33,0,0,1,714.12,591.65Z"/><path class="cls-2" d="M736.13,632.25A14.1,14.1,0,0,1,724.55,627q-4.24-5.22-4.24-14.78t3.83-15.15a12.35,12.35,0,0,1,10.69-5.45,12.16,12.16,0,0,1,10.09,4.66q3.69,4.65,3.69,13.06v5H729.8q.11,5.24,2.15,7.79a6.8,6.8,0,0,0,5.62,2.55,18.18,18.18,0,0,0,9.35-2.85v7.7A20.58,20.58,0,0,1,736.13,632.25Zm-1.37-33.39a3.8,3.8,0,0,0-3.3,2.12,14.29,14.29,0,0,0-1.52,6.6h9.5a14.12,14.12,0,0,0-1.31-6.51A3.73,3.73,0,0,0,734.76,598.86Z"/></svg>