<svg id="Layer_1" data-name="Layer 1" xmlns="http://www.w3.org/2000/svg" width="225" height="230" viewBox="0 0 225 230"><defs><style>.cls-1{fill:#ffcdaa;}.cls-2{fill:#fc9;}.cls-3{fill:#ffbdaa;}</style></defs><title>thumpsup</title><path class="cls-1" d="M127.32,200.08h0c38.08-6.2,65.33-29.17,57.72-67.6l-5.82-29.39c-7.62-38.43-40.95-46.17-79-40h0c-38.08,6.2-67,24.09-59.43,62.52L46.58,155C54.19,193.46,89.25,206.28,127.32,200.08Z"/><path class="cls-2" d="M115.09,128.17l58.35-9.51c12.91-2.1,21.57-13.39,19.25-25.09h0C190.37,81.87,177.92,74,165,76.12l-58.36,9.51C93.76,87.73,85.1,99,87.41,110.72h0C89.73,122.42,102.18,130.27,115.09,128.17Z"/><path class="cls-1" d="M33.82,45.34,45.3,108.13c2.53,13.89,15.19,23.65,28.12,21.71l5.09-.77c12.93-1.94,21.44-14.89,18.9-28.77L85.93,37.51C83.39,23.62,70.74,13.86,57.8,15.8l-.42-.3C44.45,17.44,31.28,31.46,33.82,45.34Z"/><path class="cls-2" d="M120.85,198.73l58.79-7c13-1.53,22.25-12.43,20.55-24.22h0c-1.69-11.79-13.71-20.17-26.71-18.64l-58.8,7c-13,1.53-22.24,12.44-20.55,24.22h0C95.83,191.88,107.85,200.26,120.85,198.73Z"/><path class="cls-3" d="M122.49,165.52l58.35-9.5c12.91-2.1,21.57-13.4,19.25-25.09h0c-2.32-11.7-14.77-19.56-27.67-17.45L114.06,123c-12.9,2.1-21.56,13.39-19.25,25.09h0C97.13,159.77,109.58,167.62,122.49,165.52Z"/></svg>
