<svg id="Layer_1" data-name="Layer 1" xmlns="http://www.w3.org/2000/svg" width="891" height="709" viewBox="0 0 891 709"><defs><style>.cls-1{fill:#7cc242;}.cls-2{fill:#fff;}</style></defs><title>vinder_popup_dreng</title><rect class="cls-1" x="59" y="20" width="755" height="652" rx="82.65"/><path class="cls-2" d="M317.49,157.39a16.26,16.26,0,0,1-5.9-.88v-8.33a14.62,14.62,0,0,0,4.32.7,4.92,4.92,0,0,0,4.27-1.86,9.48,9.48,0,0,0,1.36-5.56V91.15h9.56V141a20.89,20.89,0,0,1-1.71,8.79,12.74,12.74,0,0,1-4.81,5.68A13.09,13.09,0,0,1,317.49,157.39Z"/><path class="cls-2" d="M371.77,91.15v33.26q0,9.18-4.15,14t-12,4.84q-7.67,0-11.68-4.8t-4-14.19V91.15h9.49V125q0,9.81,6.5,9.81a5.29,5.29,0,0,0,4.68-2.49,12.86,12.86,0,0,0,1.65-7.1v-34Z"/><path class="cls-2" d="M412.38,142.55h-9.56V120H390.2v22.53h-9.57V91.15h9.57v20.43h12.62V91.15h9.56Z"/><path class="cls-2" d="M453.05,91.15v33.26q0,9.18-4.14,14t-12,4.84q-7.67,0-11.67-4.8t-4-14.19V91.15h9.49V125q0,9.81,6.5,9.81a5.29,5.29,0,0,0,4.68-2.49,12.86,12.86,0,0,0,1.65-7.1v-34Z"/><path class="cls-2" d="M493.52,91.15v33.26q0,9.18-4.15,14t-12,4.84q-7.67,0-11.67-4.8t-4-14.19V91.15h9.5V125q0,9.81,6.5,9.81a5.32,5.32,0,0,0,4.68-2.49,12.86,12.86,0,0,0,1.65-7.1v-34Z"/><path class="cls-2" d="M534,91.15v33.26q0,9.18-4.14,14t-12,4.84q-7.67,0-11.67-4.8t-4-14.19V91.15h9.49V125q0,9.81,6.5,9.81a5.29,5.29,0,0,0,4.68-2.49,12.86,12.86,0,0,0,1.65-7.1v-34Z"/><path class="cls-2" d="M574.45,91.15v33.26q0,9.18-4.15,14t-12,4.84q-7.66,0-11.67-4.8t-4-14.19V91.15h9.49V125q0,9.81,6.51,9.81a5.29,5.29,0,0,0,4.67-2.49c1.11-1.67,1.66-4,1.66-7.1v-34Z"/><path class="cls-2" d="M582.68,137.74a5.9,5.9,0,0,1,1.45-4.26,5.78,5.78,0,0,1,4.35-1.51,5.19,5.19,0,0,1,5.83,5.77,5.72,5.72,0,0,1-1.53,4.25,5.84,5.84,0,0,1-4.3,1.51,5.76,5.76,0,0,1-4.33-1.53A5.85,5.85,0,0,1,582.68,137.74Zm9.7-11.75h-7.7L583,91.15h11.21Z"/><path class="cls-2" d="M190,289.16q0,12.73-5.18,19.46t-14.93,6.73H157.27V264H171q9,0,14,6.63T190,289.16Zm-9.81.28q0-17.22-9.49-17.22h-3.83V307h3.09a8.31,8.31,0,0,0,7.74-4.38Q180.15,298.23,180.15,289.44Z"/><path class="cls-2" d="M211.34,316.06a14.11,14.11,0,0,1-11.59-5.23q-4.23-5.22-4.23-14.78t3.83-15.15A12.33,12.33,0,0,1,210,275.45a12.15,12.15,0,0,1,10.08,4.66q3.7,4.65,3.7,13.06v5H205q.11,5.23,2.14,7.79a6.82,6.82,0,0,0,5.63,2.55,18.24,18.24,0,0,0,9.35-2.85v7.7A20.6,20.6,0,0,1,211.34,316.06ZM210,282.66a3.83,3.83,0,0,0-3.3,2.12q-1.31,2.13-1.51,6.6h9.49a14.26,14.26,0,0,0-1.3-6.51A3.76,3.76,0,0,0,210,282.66Z"/><path class="cls-2" d="M243.61,308.15a10.74,10.74,0,0,0,4.25-1v7.31c-1.52,1.06-3.81,1.59-6.85,1.59q-5.1,0-7.56-3.05T231,303.89V283.61h-3.8v-4.19l4.89-3.37,2.39-8.3h6v8.44h7.1v7.42h-7.1v20.6C240.45,306.83,241.5,308.15,243.61,308.15Z"/><path class="cls-2" d="M285.59,316.06A14.11,14.11,0,0,1,274,310.83q-4.23-5.22-4.23-14.78t3.83-15.15a12.33,12.33,0,0,1,10.69-5.45,12.19,12.19,0,0,1,10.09,4.66q3.69,4.65,3.69,13.06v5H279.26q.11,5.23,2.14,7.79A6.82,6.82,0,0,0,287,308.5a18.24,18.24,0,0,0,9.35-2.85v7.7A20.6,20.6,0,0,1,285.59,316.06Zm-1.38-33.4a3.83,3.83,0,0,0-3.3,2.12q-1.31,2.13-1.51,6.6h9.49a14.26,14.26,0,0,0-1.3-6.51A3.76,3.76,0,0,0,284.21,282.66Z"/><path class="cls-2" d="M321,275.45a11.1,11.1,0,0,1,3.38.53l-1.09,9.07a7.66,7.66,0,0,0-2.57-.35,6,6,0,0,0-5.24,2.69c-1.22,1.79-1.82,4.4-1.82,7.82v20.14h-9.36V276.19H312l1.06,6.12h.31A14.3,14.3,0,0,1,316.7,277,6.33,6.33,0,0,1,321,275.45Z"/><path class="cls-2" d="M365.81,315.35V292a15.72,15.72,0,0,0-1-6.43,3.42,3.42,0,0,0-3.3-2.18,4.64,4.64,0,0,0-4.43,3q-1.41,3-1.41,10.14v18.81H346.3V276.19h7.42l1.12,5h.6a9.66,9.66,0,0,1,9.14-5.77q5.34,0,8,3.66c1.77,2.43,2.65,6,2.65,10.68v25.56Z"/><path class="cls-2" d="M397.24,316.06a14.08,14.08,0,0,1-11.58-5.23q-4.25-5.22-4.24-14.78t3.83-15.15a12.35,12.35,0,0,1,10.69-5.45A12.16,12.16,0,0,1,406,280.11q3.69,4.65,3.69,13.06v5H390.91q.1,5.23,2.15,7.79a6.8,6.8,0,0,0,5.62,2.55,18.24,18.24,0,0,0,9.36-2.85v7.7A20.61,20.61,0,0,1,397.24,316.06Zm-1.37-33.4a3.82,3.82,0,0,0-3.3,2.12c-.87,1.42-1.37,3.62-1.52,6.6h9.5a14.26,14.26,0,0,0-1.3-6.51A3.76,3.76,0,0,0,395.87,282.66Z"/><path class="cls-2" d="M454.79,315.35V292q0-8.61-4.25-8.61a4.56,4.56,0,0,0-4.43,3.07q-1.33,3.07-1.34,9.86v19h-9.42V292q0-8.61-4.32-8.61a4.59,4.59,0,0,0-4.4,3.05c-.91,2-1.37,5.41-1.37,10.09v18.81h-9.35V276.19h7.42l1.12,5h.6a9.42,9.42,0,0,1,3.85-4.38,10.36,10.36,0,0,1,5.22-1.39q7.17,0,9.56,6.79H444q3-6.8,9.59-6.79a9.2,9.2,0,0,1,7.9,3.66c1.79,2.43,2.68,6,2.68,10.68v25.56Z"/><path class="cls-2" d="M481.12,315.35h-9.35v-54.7h9.35Z"/><path class="cls-2" d="M488.65,266a5,5,0,0,1,1.35-3.68,5.11,5.11,0,0,1,3.78-1.35,4.69,4.69,0,0,1,5,5,4.84,4.84,0,0,1-1.41,3.71,5.07,5.07,0,0,1-3.62,1.32,5.23,5.23,0,0,1-3.73-1.32A4.87,4.87,0,0,1,488.65,266Zm9.74,49.39H489V276.19h9.35Z"/><path class="cls-2" d="M534.6,276.26v5.48l-4.68,1.06a12.52,12.52,0,0,1,1.37,6.19q0,6.21-3.37,9.73t-9.42,3.52a8.84,8.84,0,0,1-2.61-.28,12.32,12.32,0,0,0-1.26,1.33,2.84,2.84,0,0,0-.6,1.83q0,2.46,4.26,2.46H524q5,0,7.68,2.69t2.69,8.11q0,6.81-4.57,10.54t-13.15,3.73q-6.51,0-10-2.83a9.76,9.76,0,0,1-3.52-8.07,8.88,8.88,0,0,1,2-5.75,11.27,11.27,0,0,1,5.55-3.6,6.8,6.8,0,0,1-2.93-2.18,5.42,5.42,0,0,1-1.15-3.45,6.44,6.44,0,0,1,.35-2.16,7.17,7.17,0,0,1,1-1.83,18.49,18.49,0,0,1,2.65-2.54,10,10,0,0,1-3.83-4.54,16,16,0,0,1-1.41-6.78q0-6.44,3.38-9.95t9.67-3.52a17.17,17.17,0,0,1,2.74.26,15.67,15.67,0,0,1,2.35.55Zm-23,44.79a4.47,4.47,0,0,0,1.46,3.57,6.23,6.23,0,0,0,4.17,1.24c2.83,0,5-.53,6.38-1.61a5.29,5.29,0,0,0,2.12-4.43,3.79,3.79,0,0,0-1.14-3.13c-.76-.61-2.18-.92-4.27-.92h-4.54a3.71,3.71,0,0,0-3,1.43A6,6,0,0,0,511.57,321.05ZM514.45,289q0,6.92,3.91,6.92t3.79-7q0-7.19-3.79-7.18T514.45,289Z"/><path class="cls-2" d="M573.8,275.45a11,11,0,0,1,3.37.53l-1.09,9.07a7.59,7.59,0,0,0-2.56-.35,5.94,5.94,0,0,0-5.24,2.69q-1.83,2.69-1.83,7.82v20.14H557.1V276.19h7.7l1.05,6.12h.32a14.17,14.17,0,0,1,3.37-5.28A6.34,6.34,0,0,1,573.8,275.45Z"/><path class="cls-2" d="M581,266a5,5,0,0,1,1.35-3.68,5.11,5.11,0,0,1,3.78-1.35,4.69,4.69,0,0,1,5,5,4.84,4.84,0,0,1-1.41,3.71,5.06,5.06,0,0,1-3.62,1.32,5.19,5.19,0,0,1-3.72-1.32A4.84,4.84,0,0,1,581,266Zm9.74,49.39h-9.35V276.19h9.35Z"/><path class="cls-2" d="M627,276.26v5.48l-4.68,1.06a12.52,12.52,0,0,1,1.37,6.19q0,6.21-3.37,9.73t-9.42,3.52a8.72,8.72,0,0,1-2.6-.28,11.48,11.48,0,0,0-1.27,1.33,2.84,2.84,0,0,0-.6,1.83q0,2.46,4.26,2.46h5.66q5,0,7.68,2.69t2.69,8.11q0,6.81-4.57,10.54T609,332.65q-6.51,0-10-2.83a9.76,9.76,0,0,1-3.52-8.07,8.88,8.88,0,0,1,2-5.75,11.27,11.27,0,0,1,5.55-3.6,6.8,6.8,0,0,1-2.93-2.18,5.42,5.42,0,0,1-1.15-3.45,6.2,6.2,0,0,1,.36-2.16,6.84,6.84,0,0,1,1-1.83,19.06,19.06,0,0,1,2.65-2.54,10,10,0,0,1-3.83-4.54,16,16,0,0,1-1.41-6.78q0-6.44,3.38-9.95t9.67-3.52a17.17,17.17,0,0,1,2.74.26,15.67,15.67,0,0,1,2.35.55Zm-23,44.79a4.47,4.47,0,0,0,1.46,3.57,6.23,6.23,0,0,0,4.17,1.24c2.83,0,5-.53,6.38-1.61a5.29,5.29,0,0,0,2.12-4.43,3.79,3.79,0,0,0-1.14-3.13c-.76-.61-2.18-.92-4.27-.92h-4.54a3.72,3.72,0,0,0-3,1.43A6,6,0,0,0,604,321.05ZM606.84,289q0,6.92,3.91,6.92t3.79-7q0-7.19-3.79-7.18T606.84,289Z"/><path class="cls-2" d="M645.3,308.15a10.74,10.74,0,0,0,4.26-1v7.31q-2.28,1.59-6.86,1.59c-3.4,0-5.91-1-7.56-3.05s-2.46-5.06-2.46-9.12V283.61h-3.79v-4.19l4.88-3.37,2.39-8.3h6v8.44h7.1v7.42h-7.1v20.6C642.14,306.83,643.2,308.15,645.3,308.15Z"/><path class="cls-2" d="M654.73,266a5,5,0,0,1,1.35-3.68,5.11,5.11,0,0,1,3.78-1.35,4.69,4.69,0,0,1,5,5,4.84,4.84,0,0,1-1.41,3.71,5.07,5.07,0,0,1-3.62,1.32,5.23,5.23,0,0,1-3.73-1.32A4.87,4.87,0,0,1,654.73,266Zm9.73,49.39h-9.35V276.19h9.35Z"/><path class="cls-2" d="M700.68,276.26v5.48L696,282.8a12.63,12.63,0,0,1,1.37,6.19q0,6.21-3.37,9.73t-9.43,3.52A8.81,8.81,0,0,1,682,302a12.32,12.32,0,0,0-1.26,1.33,2.84,2.84,0,0,0-.6,1.83q0,2.46,4.25,2.46H690q5,0,7.69,2.69t2.68,8.11q0,6.81-4.57,10.54c-3,2.49-7.43,3.73-13.14,3.73q-6.51,0-10-2.83a9.76,9.76,0,0,1-3.52-8.07,8.92,8.92,0,0,1,2-5.75,11.35,11.35,0,0,1,5.56-3.6,6.83,6.83,0,0,1-2.94-2.18,5.47,5.47,0,0,1-1.14-3.45,6.44,6.44,0,0,1,.35-2.16,7.45,7.45,0,0,1,1-1.83,19.31,19.31,0,0,1,2.66-2.54,10,10,0,0,1-3.83-4.54,16,16,0,0,1-1.41-6.78q0-6.44,3.38-9.95t9.66-3.52a17.29,17.29,0,0,1,2.75.26,15.67,15.67,0,0,1,2.35.55Zm-23,44.79a4.44,4.44,0,0,0,1.46,3.57,6.22,6.22,0,0,0,4.16,1.24c2.84,0,5-.53,6.38-1.61a5.27,5.27,0,0,0,2.13-4.43,3.79,3.79,0,0,0-1.14-3.13c-.76-.61-2.19-.92-4.27-.92h-4.54a3.71,3.71,0,0,0-3,1.43A6,6,0,0,0,677.65,321.05ZM680.53,289q0,6.92,3.9,6.92t3.8-7q0-7.19-3.8-7.18T680.53,289Z"/><path class="cls-2" d="M719,308.15a10.82,10.82,0,0,0,4.26-1v7.31c-1.53,1.06-3.81,1.59-6.86,1.59q-5.1,0-7.56-3.05t-2.46-9.12V283.61h-3.8v-4.19l4.89-3.37,2.39-8.3h6v8.44h7.1v7.42h-7.1v20.6C715.83,306.83,716.88,308.15,719,308.15Z"/><path class="cls-2" d="M728.66,310.54a5.9,5.9,0,0,1,1.46-4.26,5.75,5.75,0,0,1,4.34-1.51,5.21,5.21,0,0,1,5.84,5.77,5.72,5.72,0,0,1-1.53,4.25,5.86,5.86,0,0,1-4.31,1.51,5.72,5.72,0,0,1-4.32-1.53A5.82,5.82,0,0,1,728.66,310.54Zm9.7-11.75h-7.7L728.94,264h11.22Z"/><path class="cls-2" d="M259.06,375.56q0,12.72-5.18,19.46T239,401.75H226.37v-51.4h13.74q9,0,14,6.63T259.06,375.56Zm-9.81.28q0-17.22-9.49-17.22h-3.83v34.76H239a8.3,8.3,0,0,0,7.74-4.37Q249.25,384.63,249.25,375.84Z"/><path class="cls-2" d="M280.44,402.46a14.14,14.14,0,0,1-11.59-5.23q-4.23-5.22-4.23-14.78t3.83-15.15a12.32,12.32,0,0,1,10.68-5.45,12.16,12.16,0,0,1,10.09,4.66q3.7,4.65,3.7,13.06v5H274.11q.11,5.24,2.14,7.79a6.82,6.82,0,0,0,5.63,2.55,18.24,18.24,0,0,0,9.35-2.85v7.7A20.6,20.6,0,0,1,280.44,402.46Zm-1.38-33.4a3.83,3.83,0,0,0-3.3,2.12q-1.31,2.13-1.51,6.6h9.49a14.26,14.26,0,0,0-1.3-6.51A3.74,3.74,0,0,0,279.06,369.06Z"/><path class="cls-2" d="M312.71,394.54a10.71,10.71,0,0,0,4.25-1v7.31c-1.52,1.06-3.81,1.59-6.85,1.59q-5.1,0-7.56-3t-2.46-9.12V370h-3.8v-4.19l4.89-3.37,2.39-8.3h6v8.44h7.11V370h-7.11v20.6Q309.54,394.54,312.71,394.54Z"/><path class="cls-2" d="M354.69,402.46a14.14,14.14,0,0,1-11.59-5.23q-4.23-5.22-4.23-14.78t3.83-15.15a12.32,12.32,0,0,1,10.68-5.45,12.16,12.16,0,0,1,10.09,4.66q3.7,4.65,3.7,13.06v5H348.36q.11,5.24,2.14,7.79a6.82,6.82,0,0,0,5.63,2.55,18.24,18.24,0,0,0,9.35-2.85v7.7A20.6,20.6,0,0,1,354.69,402.46Zm-1.38-33.4a3.83,3.83,0,0,0-3.3,2.12q-1.31,2.13-1.51,6.6H358a14.26,14.26,0,0,0-1.3-6.51A3.74,3.74,0,0,0,353.31,369.06Z"/><path class="cls-2" d="M390.05,361.85a11.1,11.1,0,0,1,3.38.53l-1.09,9.07a7.66,7.66,0,0,0-2.57-.35,6,6,0,0,0-5.24,2.69c-1.22,1.79-1.82,4.4-1.82,7.82v20.14h-9.36V362.59h7.7l1.06,6.12h.31a14.3,14.3,0,0,1,3.38-5.28A6.33,6.33,0,0,1,390.05,361.85Z"/><path class="cls-2" d="M429.85,402.46a14.11,14.11,0,0,1-11.58-5.23Q414,392,414,382.45t3.83-15.15a12.35,12.35,0,0,1,10.69-5.45,12.17,12.17,0,0,1,10.09,4.66q3.69,4.65,3.69,13.06v5H423.52q.11,5.24,2.15,7.79a6.8,6.8,0,0,0,5.62,2.55,18.18,18.18,0,0,0,9.35-2.85v7.7A20.6,20.6,0,0,1,429.85,402.46Zm-1.37-33.4a3.83,3.83,0,0,0-3.31,2.12,14.43,14.43,0,0,0-1.51,6.6h9.49a14.13,14.13,0,0,0-1.3-6.51A3.73,3.73,0,0,0,428.48,369.06Z"/><path class="cls-2" d="M462.12,394.54a10.76,10.76,0,0,0,4.26-1v7.31c-1.53,1.06-3.81,1.59-6.86,1.59q-5.1,0-7.56-3t-2.46-9.12V370h-3.79v-4.19l4.88-3.37,2.39-8.3h6v8.44h7.1V370H459v20.6Q459,394.54,462.12,394.54Z"/><path class="cls-2" d="M507.33,361.85q5.35,0,8.41,5.31t3,14.94q0,9.73-3.07,15t-8.53,5.31a9.29,9.29,0,0,1-4.65-1.15,11.35,11.35,0,0,1-3.82-4h-.6l-1.58,4.46h-6.89v-54.7H499v12.8c0,.53,0,1.1,0,1.68s-.18,2.64-.46,6.16H499a12,12,0,0,1,3.73-4.54A8.22,8.22,0,0,1,507.33,361.85Zm-3.23,7.94a4,4,0,0,0-3.85,2.5c-.79,1.67-1.2,4.59-1.25,8.79V382c0,4.55.41,7.75,1.21,9.6a4.1,4.1,0,0,0,4,2.77q5.06,0,5.06-12.44Q509.23,369.8,504.1,369.79Z"/><path class="cls-2" d="M525.05,352.36a5,5,0,0,1,1.36-3.68,5.11,5.11,0,0,1,3.78-1.35,4.69,4.69,0,0,1,5,5,4.87,4.87,0,0,1-1.4,3.71,5.08,5.08,0,0,1-3.62,1.31,5.23,5.23,0,0,1-3.73-1.31A4.84,4.84,0,0,1,525.05,352.36Zm9.74,49.39h-9.35V362.59h9.35Z"/><path class="cls-2" d="M552.16,401.75h-9.35v-54.7h9.35Z"/><path class="cls-2" d="M569.35,401.75H560v-54.7h9.35Z"/><path class="cls-2" d="M591.64,402.46a14.14,14.14,0,0,1-11.59-5.23q-4.23-5.22-4.23-14.78t3.83-15.15a12.35,12.35,0,0,1,10.69-5.45,12.17,12.17,0,0,1,10.09,4.66q3.69,4.65,3.69,13.06v5H585.31q.11,5.24,2.15,7.79a6.78,6.78,0,0,0,5.62,2.55,18.21,18.21,0,0,0,9.35-2.85v7.7A20.6,20.6,0,0,1,591.64,402.46Zm-1.37-33.4a3.83,3.83,0,0,0-3.31,2.12,14.43,14.43,0,0,0-1.51,6.6h9.49a14.13,14.13,0,0,0-1.3-6.51A3.73,3.73,0,0,0,590.27,369.06Z"/><path class="cls-2" d="M620.61,402.46q-5.42,0-8.55-5.35t-3.12-14.87q0-9.56,3-15t8.44-5.41a8,8,0,0,1,4.62,1.32,11.87,11.87,0,0,1,3.61,4.45h.56c-.28-3.57-.42-6.06-.42-7.49V347.05h9.35v54.7h-7l-1.58-5.1h-.32Q626.3,402.46,620.61,402.46Zm3-7.92a4,4,0,0,0,3.8-2.37c.79-1.58,1.23-4.46,1.3-8.63v-1.23c0-4.55-.41-7.75-1.21-9.6a4.12,4.12,0,0,0-4-2.77q-2.61,0-3.78,3.18a27.87,27.87,0,0,0-1.18,9.26q0,6.09,1.19,9.12T623.63,394.54Z"/><path class="cls-2" d="M660.47,402.46a14.12,14.12,0,0,1-11.58-5.23q-4.23-5.22-4.24-14.78t3.84-15.15a12.32,12.32,0,0,1,10.68-5.45,12.16,12.16,0,0,1,10.09,4.66q3.69,4.65,3.7,13.06v5H654.15q.11,5.24,2.14,7.79a6.82,6.82,0,0,0,5.63,2.55,18.24,18.24,0,0,0,9.35-2.85v7.7A20.61,20.61,0,0,1,660.47,402.46Zm-1.37-33.4a3.83,3.83,0,0,0-3.3,2.12q-1.31,2.13-1.51,6.6h9.49a14.26,14.26,0,0,0-1.3-6.51A3.74,3.74,0,0,0,659.1,369.06Z"/><path class="cls-2" d="M192.26,488.15V464.81q0-8.61-4.25-8.61a4.56,4.56,0,0,0-4.43,3.07q-1.34,3.08-1.34,9.86v19h-9.42V464.81q0-8.61-4.32-8.61a4.58,4.58,0,0,0-4.4,3.05c-.91,2-1.37,5.41-1.37,10.09v18.81h-9.35V449h7.42l1.12,5h.6a9.42,9.42,0,0,1,3.85-4.38,10.36,10.36,0,0,1,5.22-1.39q7.17,0,9.56,6.79h.36q3-6.8,9.59-6.79a9.2,9.2,0,0,1,7.9,3.66c1.79,2.43,2.69,6,2.69,10.68v25.56Z"/><path class="cls-2" d="M223.69,488.86a14.08,14.08,0,0,1-11.58-5.23q-4.23-5.22-4.24-14.78t3.84-15.15a12.32,12.32,0,0,1,10.68-5.45,12.16,12.16,0,0,1,10.09,4.66q3.69,4.65,3.69,13.06v5h-18.8q.1,5.24,2.14,7.79a6.8,6.8,0,0,0,5.62,2.55,18.24,18.24,0,0,0,9.36-2.85v7.7A20.61,20.61,0,0,1,223.69,488.86Zm-1.37-33.4a3.82,3.82,0,0,0-3.3,2.12q-1.31,2.13-1.51,6.6H227a14.26,14.26,0,0,0-1.3-6.51A3.76,3.76,0,0,0,222.32,455.46Z"/><path class="cls-2" d="M251.71,488.15h-9.35v-54.7h9.35Z"/><path class="cls-2" d="M268.9,488.15h-9.35v-54.7h9.35Z"/><path class="cls-2" d="M291.19,488.86a14.08,14.08,0,0,1-11.58-5.23q-4.23-5.22-4.24-14.78t3.84-15.15a12.32,12.32,0,0,1,10.68-5.45A12.16,12.16,0,0,1,300,452.91q3.69,4.65,3.69,13.06v5h-18.8q.11,5.24,2.14,7.79a6.8,6.8,0,0,0,5.62,2.55,18.24,18.24,0,0,0,9.36-2.85v7.7A20.61,20.61,0,0,1,291.19,488.86Zm-1.37-33.4a3.82,3.82,0,0,0-3.3,2.12q-1.31,2.13-1.51,6.6h9.49a14.26,14.26,0,0,0-1.3-6.51A3.76,3.76,0,0,0,289.82,455.46Z"/><path class="cls-2" d="M348.74,488.15V464.81q0-8.61-4.25-8.61a4.56,4.56,0,0,0-4.43,3.07q-1.33,3.08-1.34,9.86v19H329.3V464.81q0-8.61-4.32-8.61a4.58,4.58,0,0,0-4.4,3.05c-.91,2-1.37,5.41-1.37,10.09v18.81h-9.35V449h7.42l1.12,5h.6a9.42,9.42,0,0,1,3.85-4.38,10.36,10.36,0,0,1,5.22-1.39q7.17,0,9.56,6.79H338q3-6.8,9.59-6.79a9.2,9.2,0,0,1,7.9,3.66c1.79,2.43,2.69,6,2.69,10.68v25.56Z"/><path class="cls-2" d="M393.81,488.86q-5.4,0-8.54-5.35t-3.13-14.87q0-9.56,3.06-15t8.44-5.41a8,8,0,0,1,4.62,1.32,12.07,12.07,0,0,1,3.61,4.45h.56c-.28-3.57-.42-6.06-.42-7.49V433.45h9.35v54.7h-7l-1.59-5.1h-.31Q399.52,488.86,393.81,488.86Zm3-7.91a4,4,0,0,0,3.79-2.38q1.2-2.37,1.31-8.63v-1.23q0-6.82-1.22-9.6a4.12,4.12,0,0,0-4-2.77q-2.6,0-3.78,3.18a28.18,28.18,0,0,0-1.17,9.26c0,4.06.39,7.1,1.19,9.12S395.06,481,396.84,481Z"/><path class="cls-2" d="M418.92,438.76a5,5,0,0,1,1.35-3.68,5.11,5.11,0,0,1,3.78-1.35,4.69,4.69,0,0,1,5,5,4.84,4.84,0,0,1-1.41,3.71,5.07,5.07,0,0,1-3.62,1.32,5.23,5.23,0,0,1-3.73-1.32A4.83,4.83,0,0,1,418.92,438.76Zm9.73,49.39H419.3V449h9.35Z"/><path class="cls-2" d="M464.87,449.06v5.48l-4.68,1.06a12.63,12.63,0,0,1,1.37,6.19q0,6.21-3.37,9.73T448.76,475a8.76,8.76,0,0,1-2.6-.28,11.41,11.41,0,0,0-1.26,1.33,2.84,2.84,0,0,0-.6,1.83q0,2.46,4.25,2.46h5.66q5,0,7.68,2.69c1.8,1.8,2.69,4.5,2.69,8.11q0,6.81-4.57,10.54c-3,2.49-7.43,3.73-13.14,3.73q-6.51,0-10-2.83a9.76,9.76,0,0,1-3.52-8.07,8.92,8.92,0,0,1,2-5.75,11.35,11.35,0,0,1,5.56-3.6A6.77,6.77,0,0,1,438,483a5.47,5.47,0,0,1-1.14-3.45,6.44,6.44,0,0,1,.35-2.16,7.45,7.45,0,0,1,1-1.83,19.31,19.31,0,0,1,2.66-2.54A10,10,0,0,1,437,468.5a16,16,0,0,1-1.41-6.79q0-6.42,3.38-9.94t9.66-3.52a17.29,17.29,0,0,1,2.75.26,15.67,15.67,0,0,1,2.35.55Zm-23,44.79a4.44,4.44,0,0,0,1.46,3.57,6.22,6.22,0,0,0,4.16,1.24q4.26,0,6.38-1.61a5.27,5.27,0,0,0,2.13-4.43,3.79,3.79,0,0,0-1.14-3.13c-.76-.61-2.19-.92-4.27-.92H446a3.71,3.71,0,0,0-3,1.43A6,6,0,0,0,441.84,493.85Zm2.88-32.06q0,6.91,3.9,6.92t3.8-7q0-7.17-3.8-7.17T444.72,461.79Z"/><path class="cls-2" d="M516.37,468.5q0,9.63-4.08,15a14.19,14.19,0,0,1-19.12,2.9,15.54,15.54,0,0,1-5.31-7.08A28.85,28.85,0,0,1,486,468.5q0-9.53,4.05-14.89a13.25,13.25,0,0,1,11.21-5.36,13,13,0,0,1,11,5.47Q516.37,459.18,516.37,468.5Zm-20.81,0q0,6.12,1.33,9.25c.89,2.08,2.32,3.13,4.29,3.13q5.63,0,5.63-12.38c0-4.1-.45-7.17-1.36-9.19a4.53,4.53,0,0,0-8.56,0C496,461.33,495.56,464.4,495.56,468.5Z"/><path class="cls-2" d="M551.14,449.06v5.48l-4.68,1.06a12.52,12.52,0,0,1,1.37,6.19q0,6.21-3.37,9.73T535,475a8.76,8.76,0,0,1-2.6-.28,11.48,11.48,0,0,0-1.27,1.33,2.84,2.84,0,0,0-.6,1.83q0,2.46,4.26,2.46h5.66c3.32,0,5.89.9,7.68,2.69s2.69,4.5,2.69,8.11q0,6.81-4.57,10.54t-13.15,3.73q-6.51,0-10-2.83a9.78,9.78,0,0,1-3.52-8.07,8.88,8.88,0,0,1,2-5.75,11.27,11.27,0,0,1,5.55-3.6,6.8,6.8,0,0,1-2.93-2.18,5.42,5.42,0,0,1-1.15-3.45,6.2,6.2,0,0,1,.36-2.16,6.84,6.84,0,0,1,1-1.83,19.06,19.06,0,0,1,2.65-2.54,10,10,0,0,1-3.83-4.54,16,16,0,0,1-1.41-6.79q0-6.42,3.38-9.94t9.67-3.52a17.17,17.17,0,0,1,2.74.26,15.37,15.37,0,0,1,2.35.55Zm-23,44.79a4.47,4.47,0,0,0,1.46,3.57,6.23,6.23,0,0,0,4.17,1.24q4.25,0,6.38-1.61a5.26,5.26,0,0,0,2.12-4.43,3.79,3.79,0,0,0-1.14-3.13c-.76-.61-2.18-.92-4.27-.92h-4.54a3.72,3.72,0,0,0-3,1.43A6,6,0,0,0,528.11,493.85ZM531,461.79q0,6.91,3.91,6.92t3.79-7q0-7.17-3.79-7.17T531,461.79Z"/><path class="cls-2" d="M590,488.15h-9.53v-43h-9.84v-8.41h29.21v8.41H590Z"/><path class="cls-2" d="M631.29,468.5q0,9.63-4.07,15a14.21,14.21,0,0,1-19.13,2.9,15.61,15.61,0,0,1-5.31-7.08,28.85,28.85,0,0,1-1.86-10.81q0-9.53,4-14.89a13.28,13.28,0,0,1,11.22-5.36,13.06,13.06,0,0,1,11,5.47Q631.29,459.18,631.29,468.5Zm-20.81,0q0,6.12,1.34,9.25c.89,2.08,2.32,3.13,4.29,3.13q5.63,0,5.62-12.38c0-4.1-.45-7.17-1.35-9.19a4.53,4.53,0,0,0-8.56,0C610.93,461.33,610.48,464.4,610.48,468.5Z"/><path class="cls-2" d="M655.55,448.25q5.36,0,8.41,5.31t3,14.94q0,9.74-3.07,15.05t-8.53,5.31a9.33,9.33,0,0,1-4.66-1.15,11.34,11.34,0,0,1-3.81-4h-.6l-1.58,4.46h-6.89v-54.7h9.35v12.8q0,.81,0,1.68t-.46,6.16h.49a12,12,0,0,1,3.73-4.54A8.22,8.22,0,0,1,655.55,448.25Zm-3.23,7.95a4,4,0,0,0-3.85,2.49c-.79,1.67-1.2,4.6-1.25,8.79v.95q0,6.82,1.21,9.6a4.1,4.1,0,0,0,4,2.77q5.05,0,5.06-12.44Q657.45,456.2,652.32,456.2Z"/><path class="cls-2" d="M673.27,438.76a5,5,0,0,1,1.35-3.68,5.14,5.14,0,0,1,3.78-1.35,4.69,4.69,0,0,1,5,5,4.87,4.87,0,0,1-1.4,3.71,5.1,5.1,0,0,1-3.63,1.32,5.22,5.22,0,0,1-3.72-1.32A4.84,4.84,0,0,1,673.27,438.76ZM683,488.15h-9.35V449H683Z"/><path class="cls-2" d="M710.22,488.15l-1.86-5.34h-.21a13.29,13.29,0,0,1-4.29,4.74,10.88,10.88,0,0,1-5.59,1.31,8.11,8.11,0,0,1-6.81-3.24q-2.48-3.24-2.47-9,0-6.18,3.39-9.19t10.14-3.32l5.2-.22v-2.81q0-5.47-4.74-5.48c-2.35,0-5,.91-8.09,2.74l-3.23-6.47a23.29,23.29,0,0,1,12.69-3.69q6.23,0,9.47,3.57t3.26,10.11v26.29Zm-8.12-6.61a4.7,4.7,0,0,0,4.1-2.3,11,11,0,0,0,1.52-6.13V469.8l-2.88.14a6.55,6.55,0,0,0-4.69,1.83,7.1,7.1,0,0,0-1.5,4.92C698.65,479.93,699.8,481.54,702.1,481.54Z"/><path class="cls-2" d="M745.66,476.69q0,5.73-3.36,8.95t-9.9,3.22a18.38,18.38,0,0,1-9.59-2.29v-8.12a18,18,0,0,0,4.51,2.21,14.33,14.33,0,0,0,4.56.88,4.65,4.65,0,0,0,3.32-1.07,3.7,3.7,0,0,0,1.14-2.83,4.58,4.58,0,0,0-1.19-3.13,20.63,20.63,0,0,0-4.4-3.27,18.1,18.1,0,0,1-6.1-5.39,12.23,12.23,0,0,1-1.84-6.77,9.85,9.85,0,0,1,3.42-7.91q3.43-2.93,9.41-2.92a18.84,18.84,0,0,1,9.81,2.74l-3.06,6.72a14.3,14.3,0,0,0-6.61-2,3.5,3.5,0,0,0-2.69.95,3.23,3.23,0,0,0-.9,2.32,4.08,4.08,0,0,0,1.11,2.81,19.67,19.67,0,0,0,4.13,3.06,26.28,26.28,0,0,1,5.13,3.76,11.08,11.08,0,0,1,2.29,3.52A12,12,0,0,1,745.66,476.69Z"/></svg>
