<svg id="Layer_1" data-name="Layer 1" xmlns="http://www.w3.org/2000/svg" width="1920" height="1080" viewBox="0 0 1920 1080"><defs><style>.cls-1{fill:#ffedbf;}.cls-2{fill:#ffc817;}.cls-3{fill:#fff;}</style></defs><title>vinderskærm</title><rect class="cls-1" x="0.5" y="0.5" width="1919" height="1079"/><path d="M1919,1V1079H1V1H1919m1-1H0V1080H1920V0Z"/><path class="cls-2" d="M1196.26,996.27l-178.13-84.65a98.89,98.89,0,0,0-86.1.59l-177,87.06c-72.77,35.8-155.32-26.38-141-106.19L642.7,733.52A98.89,98.89,0,0,0,610.88,642L490.33,535.36c-63.23-55.92-31.85-160.25,51.74-172L722.67,338a98.88,98.88,0,0,0,73.69-51.77l86.21-163.32c36.82-69.76,136.5-70.44,174.27-1.19l88.42,162.14a98.89,98.89,0,0,0,74.39,50.75l180.93,22.93c83.74,10.62,116.55,114.51,54.08,171.29L1335.57,637A98.9,98.9,0,0,0,1305,729l30.8,159.15C1351.2,967.78,1269.51,1031.07,1196.26,996.27Z"/><path class="cls-3" d="M898.49,423.6H884.37l-5.93-31.79a112.19,112.19,0,0,1-2-15.4l-.33,3.07L874.46,392l-5.77,31.63H854.58l-11-60.68h11.08l5.43,34.24q.79,5.14,2.12,16.15,1-11.13,1.95-15.9l6.48-34.49h11.7l6.48,34.49q1.27,7.68,2,16,1.46-12.28,2.12-16.23l5.27-34.24H909.4Z"/><path class="cls-3" d="M957.26,393.18q0,15.06-5.65,23.16t-16.14,8.09q-10.54,0-16.19-8.07t-5.65-23.27q0-15.06,5.65-23.09t16.27-8q10.5,0,16.1,8.07T957.26,393.18Zm-32.09,0q0,10.36,2.62,15.81t7.68,5.44q10.2,0,10.21-21.25t-10.13-21.25q-5.14,0-7.76,5.41T925.17,393.18Z"/><path class="cls-3" d="M1007.85,393.18q0,15.06-5.64,23.16t-16.15,8.09q-10.54,0-16.19-8.07t-5.64-23.27q0-15.06,5.64-23.09t16.27-8q10.5,0,16.11,8.07T1007.85,393.18Zm-32.08,0q0,10.36,2.61,15.81t7.68,5.44q10.22,0,10.21-21.25t-10.13-21.25q-5.14,0-7.76,5.41T975.77,393.18Z"/><path class="cls-3" d="M1067,423.6h-14.11L1047,391.81a109.16,109.16,0,0,1-2-15.4l-.34,3.07L1043,392l-5.77,31.63h-14.11l-11-60.68h11.08l5.44,34.24q.8,5.14,2.12,16.15,1-11.13,2-15.9l6.47-34.49h11.71l6.47,34.49q1.29,7.68,2,16,1.44-12.28,2.11-16.23l5.27-34.24h11.17Z"/><path class="cls-3" d="M1083.26,417.91a7,7,0,0,1,1.72-5,6.82,6.82,0,0,1,5.13-1.78,7,7,0,0,1,5.15,1.76,6.89,6.89,0,0,1,1.74,5,6.74,6.74,0,0,1-1.81,5,6.94,6.94,0,0,1-5.08,1.78,6.81,6.81,0,0,1-5.11-1.8A6.94,6.94,0,0,1,1083.26,417.91Zm11.46-13.86h-9.09l-2-41.13h13.24Z"/><path class="cls-3" d="M712.63,526.43q-6.39,0-10.08-6.31t-3.7-17.56q0-11.28,3.61-17.68t10-6.39a9.48,9.48,0,0,1,5.46,1.56,14.24,14.24,0,0,1,4.26,5.25h.66c-.33-4.21-.5-7.15-.5-8.84V461h11V525.6h-8.22l-1.86-6h-.38Q719.36,526.43,712.63,526.43Zm3.57-9.34a4.69,4.69,0,0,0,4.48-2.8c.94-1.87,1.46-5.26,1.54-10.19v-1.45q0-8.06-1.43-11.33a4.87,4.87,0,0,0-4.71-3.28q-3.08,0-4.46,3.75t-1.4,10.94q0,7.18,1.42,10.77C712.58,515.9,714.1,517.09,716.2,517.09Z"/><path class="cls-3" d="M767.62,525.6l-1.37-5.94h-.58a11.77,11.77,0,0,1-10.87,6.77q-6.22,0-9.42-4.23t-3.2-12.66V479.36h11.17v27.52a18.82,18.82,0,0,0,1.2,7.64,4,4,0,0,0,3.9,2.57,5.44,5.44,0,0,0,5.21-3.57q1.64-3.57,1.64-12V479.36h11.16V525.6Z"/><path class="cls-3" d="M817.6,500.7l2.78-5.52,9.13-15.82h11.7l-11.7,19L842,525.6H830.42l-8.34-19.55-4.32,3.9V525.6h-11V461h11v30.42l-.5,9.26Z"/><path class="cls-3" d="M869.43,525.6l-2.2-6.31H867a15.65,15.65,0,0,1-5.06,5.6,12.79,12.79,0,0,1-6.6,1.54,9.56,9.56,0,0,1-8-3.82c-1.95-2.54-2.92-6.09-2.92-10.62q0-7.31,4-10.86t12-3.92l6.15-.25v-3.32q0-6.47-5.61-6.47c-2.76,0-6,1.08-9.54,3.23l-3.82-7.63a27.45,27.45,0,0,1,15-4.36q7.35,0,11.19,4.21t3.84,11.93V525.6Zm-9.58-7.8a5.54,5.54,0,0,0,4.83-2.72,12.94,12.94,0,0,0,1.81-7.24v-3.91l-3.41.17c-2.52.14-4.36.86-5.54,2.16s-1.76,3.24-1.76,5.81C855.78,515.89,857.13,517.8,859.85,517.8Z"/><path class="cls-3" d="M909.48,525.6V498a18.62,18.62,0,0,0-1.2-7.59,4,4,0,0,0-3.9-2.58,5.49,5.49,0,0,0-5.23,3.55q-1.67,3.56-1.66,12v22.2h-11V479.36h8.76l1.33,5.94h.7A11.44,11.44,0,0,1,908,478.49q6.32,0,9.44,4.32t3.14,12.62V525.6Z"/><path class="cls-3" d="M962.69,526.43q-6.39,0-10.08-6.31t-3.7-17.56q0-11.28,3.61-17.68t10-6.39a9.48,9.48,0,0,1,5.46,1.56,14.14,14.14,0,0,1,4.26,5.25h.66c-.33-4.21-.5-7.15-.5-8.84V461h11V525.6h-8.21l-1.87-6h-.38Q969.42,526.43,962.69,526.43Zm3.57-9.34a4.69,4.69,0,0,0,4.48-2.8c.94-1.87,1.46-5.26,1.54-10.19v-1.45q0-8.06-1.43-11.33a4.87,4.87,0,0,0-4.71-3.28q-3.07,0-4.46,3.75t-1.39,10.94c0,4.79.46,8.38,1.41,10.77S964.16,517.09,966.26,517.09Z"/><path class="cls-3" d="M992.33,467.29a5.89,5.89,0,0,1,1.59-4.34,6,6,0,0,1,4.47-1.6,5.55,5.55,0,0,1,5.93,5.94,5.71,5.71,0,0,1-1.66,4.38,6,6,0,0,1-4.27,1.55,6.19,6.19,0,0,1-4.4-1.55A5.71,5.71,0,0,1,992.33,467.29Zm11.49,58.31h-11V479.36h11Z"/><path class="cls-3" d="M1029.35,517.09a12.84,12.84,0,0,0,5-1.16v8.63q-2.7,1.88-8.09,1.87-6,0-8.93-3.59t-2.9-10.77v-24H1010v-4.94l5.77-4,2.83-9.8h7v10H1034v8.76h-8.39v24.32Q1025.61,517.09,1029.35,517.09Z"/><path class="cls-3" d="M1090.15,508.87q0,8.52-4.29,13t-12.39,4.52a27.26,27.26,0,0,1-13.49-3.11V512.15q6.8,4.44,12.49,4.44a6.31,6.31,0,0,0,4.88-1.78A6.92,6.92,0,0,0,1079,510a8.84,8.84,0,0,0-2-5.54,29.4,29.4,0,0,0-6.44-5.58,28.53,28.53,0,0,1-5.91-5.17,18.5,18.5,0,0,1-3.11-5.54,21,21,0,0,1-1.1-7.14q0-7.8,4.33-12.37t11.64-4.56a25.51,25.51,0,0,1,13.41,3.9l-3.74,9.05a33.77,33.77,0,0,0-4.17-2.08,11.93,11.93,0,0,0-4.67-.91,5.11,5.11,0,0,0-4.21,1.81,7.55,7.55,0,0,0-1.47,4.91,8.54,8.54,0,0,0,1.76,5.36,26.26,26.26,0,0,0,6.17,5.19q5.92,4,8.28,8.13A18.93,18.93,0,0,1,1090.15,508.87Z"/><path class="cls-3" d="M1135.1,525.6h-11.29V499h-14.9v26.6h-11.29V464.92h11.29V489h14.9V464.92h11.29Z"/><path class="cls-3" d="M1147.84,525.6V464.92h10.63V525.6Z"/><path class="cls-3" d="M1189.93,525.6h-11.25V474.84h-11.62v-9.92h34.49v9.92h-11.62Z"/><path class="cls-3" d="M1207.28,519.91a6.94,6.94,0,0,1,1.72-5,6.79,6.79,0,0,1,5.12-1.78,6.14,6.14,0,0,1,6.89,6.8,6.77,6.77,0,0,1-1.8,5,7,7,0,0,1-5.09,1.78,6.77,6.77,0,0,1-5.1-1.8A6.94,6.94,0,0,1,1207.28,519.91Zm11.45-13.86h-9.09l-2-41.13h13.24Z"/><path class="cls-3" d="M1230.31,519.91a6.94,6.94,0,0,1,1.72-5,6.82,6.82,0,0,1,5.13-1.78,6.93,6.93,0,0,1,5.14,1.76,6.85,6.85,0,0,1,1.75,5,6.74,6.74,0,0,1-1.81,5,7,7,0,0,1-5.08,1.78,6.8,6.8,0,0,1-5.11-1.8A6.94,6.94,0,0,1,1230.31,519.91Zm11.46-13.86h-9.09l-2-41.13h13.24Z"/><path class="cls-3" d="M713.27,628.43q-6.39,0-10.08-6.31t-3.69-17.56q0-11.28,3.61-17.68t10-6.39a9.47,9.47,0,0,1,5.45,1.56,14.14,14.14,0,0,1,4.26,5.25h.66c-.33-4.21-.49-7.15-.49-8.84V563h11V627.6h-8.21l-1.87-6h-.37C721.17,626.15,717.76,628.43,713.27,628.43Zm3.57-9.34a4.71,4.71,0,0,0,4.49-2.8c.94-1.87,1.45-5.26,1.53-10.19v-1.45q0-8.05-1.43-11.33a4.86,4.86,0,0,0-4.71-3.28q-3.08,0-4.46,3.75t-1.39,10.94q0,7.18,1.41,10.77T716.84,619.09Z"/><path class="cls-3" d="M760.34,628.43q-8.67,0-13.68-6.16t-5-17.46q0-11.44,4.53-17.88a15.61,15.61,0,0,1,24.53-.94q4.35,5.5,4.35,15.42v5.89h-22.2c.08,4.13.93,7.19,2.53,9.2a8,8,0,0,0,6.64,3,21.43,21.43,0,0,0,11-3.37v9.09A24.18,24.18,0,0,1,760.34,628.43ZM758.72,589a4.5,4.5,0,0,0-3.9,2.51c-1,1.68-1.62,4.27-1.78,7.78h11.2a16.76,16.76,0,0,0-1.53-7.67A4.43,4.43,0,0,0,758.72,589Z"/><path class="cls-3" d="M798.44,619.09a12.84,12.84,0,0,0,5-1.16v8.63c-1.8,1.25-4.49,1.87-8.09,1.87q-6,0-8.92-3.59t-2.91-10.77v-24h-4.48v-4.94l5.77-4,2.82-9.8h7.06v10h8.38v8.76h-8.38v24.32Q794.71,619.09,798.44,619.09Z"/><path class="cls-3" d="M851.81,580.49q6.32,0,9.92,6.27t3.61,17.64q0,11.49-3.63,17.76t-10.06,6.27a11,11,0,0,1-5.5-1.35,13.37,13.37,0,0,1-4.5-4.75h-.71l-1.87,5.27h-8.13V563h11v15.11c0,.63,0,1.3,0,2s-.21,3.11-.54,7.26H842a14,14,0,0,1,4.4-5.35A9.72,9.72,0,0,1,851.81,580.49ZM848,589.87a4.72,4.72,0,0,0-4.55,3q-1.4,2.94-1.47,10.38v1.12q0,8,1.43,11.33a4.84,4.84,0,0,0,4.67,3.28q6,0,6-14.7Q854.06,589.88,848,589.87Z"/><path class="cls-3" d="M895.77,627.6l-2.2-6.31h-.25a15.58,15.58,0,0,1-5.07,5.6,12.78,12.78,0,0,1-6.59,1.54,9.57,9.57,0,0,1-8-3.82c-2-2.54-2.92-6.09-2.92-10.62q0-7.31,4-10.86t12-3.92l6.14-.25v-3.32q0-6.46-5.6-6.47-4.15,0-9.55,3.23l-3.82-7.63a27.49,27.49,0,0,1,15-4.36q7.33,0,11.18,4.21t3.84,11.93V627.6Zm-9.59-7.8a5.54,5.54,0,0,0,4.83-2.72,12.85,12.85,0,0,0,1.81-7.24v-3.91l-3.4.17q-3.78.21-5.54,2.16t-1.77,5.81Q882.11,619.8,886.18,619.8Z"/><path class="cls-3" d="M932.5,580.49a12.89,12.89,0,0,1,4,.63l-1.28,10.7a9.43,9.43,0,0,0-3-.41,7,7,0,0,0-6.19,3.17q-2.16,3.18-2.16,9.24V627.6h-11V581.36h9.09l1.25,7.23h.37a16.81,16.81,0,0,1,4-6.23A7.44,7.44,0,0,1,932.5,580.49Z"/><path class="cls-3" d="M958.48,628.43q-8.67,0-13.68-6.16t-5-17.46q0-11.44,4.53-17.88a15.61,15.61,0,0,1,24.53-.94q4.35,5.5,4.35,15.42v5.89H951c.08,4.13.93,7.19,2.53,9.2a8,8,0,0,0,6.64,3,21.43,21.43,0,0,0,11-3.37v9.09A24.18,24.18,0,0,1,958.48,628.43ZM956.86,589a4.5,4.5,0,0,0-3.9,2.51q-1.53,2.52-1.79,7.78h11.21c0-3.37-.57-5.93-1.54-7.67A4.4,4.4,0,0,0,956.86,589Z"/><path class="cls-3" d="M1022.06,590.12h-7.63V627.6h-11V590.12H998V584.6l5.36-3.32v-3.49q0-7.71,3.19-11.47t10.3-3.76a19,19,0,0,1,8.34,1.87l-2.91,8.43a9.58,9.58,0,0,0-4.23-1,3,3,0,0,0-2.78,1.49,9.48,9.48,0,0,0-.87,4.61v3.4h7.63Z"/><path class="cls-3" d="M1061.16,604.4q0,11.37-4.81,17.7a16.79,16.79,0,0,1-22.58,3.42,18.38,18.38,0,0,1-6.27-8.36,33.92,33.92,0,0,1-2.2-12.76q0-11.25,4.77-17.58t13.24-6.33a15.43,15.43,0,0,1,13,6.46Q1061.16,593.4,1061.16,604.4Zm-24.57,0q0,7.22,1.58,10.91t5.06,3.7q6.64,0,6.64-14.61,0-7.26-1.6-10.85c-1.06-2.4-2.74-3.59-5-3.59s-4,1.19-5.06,3.59S1036.59,599.56,1036.59,604.4Z"/><path class="cls-3" d="M1088.64,580.49a12.89,12.89,0,0,1,4,.63l-1.29,10.7a9.34,9.34,0,0,0-3-.41,7,7,0,0,0-6.18,3.17q-2.16,3.18-2.16,9.24V627.6h-11V581.36H1078l1.25,7.23h.37a16.81,16.81,0,0,1,4-6.23A7.49,7.49,0,0,1,1088.64,580.49Z"/><path class="cls-3" d="M1139.1,590.12h-7.63V627.6h-11V590.12h-5.36V584.6l5.36-3.32v-3.49q0-7.71,3.19-11.47t10.3-3.76a19,19,0,0,1,8.34,1.87l-2.91,8.43a9.58,9.58,0,0,0-4.23-1,3,3,0,0,0-2.78,1.49,9.48,9.48,0,0,0-.87,4.61v3.4h7.63Z"/><path class="cls-3" d="M1161,628.43q-8.67,0-13.68-6.16t-5-17.46q0-11.44,4.53-17.88a14.55,14.55,0,0,1,12.61-6.44,14.38,14.38,0,0,1,11.91,5.5q4.36,5.5,4.36,15.42v5.89h-22.2c.08,4.13.92,7.19,2.53,9.2a8,8,0,0,0,6.64,3,21.43,21.43,0,0,0,11-3.37v9.09A24.18,24.18,0,0,1,1161,628.43ZM1159.4,589a4.5,4.5,0,0,0-3.9,2.51c-1,1.68-1.62,4.27-1.79,7.78h11.21q-.09-5.06-1.54-7.67A4.4,4.4,0,0,0,1159.4,589Z"/><path class="cls-3" d="M1195.22,628.43q-6.39,0-10.09-6.31t-3.69-17.56q0-11.28,3.61-17.68t10-6.39a9.52,9.52,0,0,1,5.46,1.56,14.23,14.23,0,0,1,4.25,5.25h.67c-.34-4.21-.5-7.15-.5-8.84V563h11V627.6h-8.22l-1.87-6h-.37Q1201.94,628.43,1195.22,628.43Zm3.57-9.34a4.7,4.7,0,0,0,4.48-2.8c.94-1.87,1.45-5.26,1.53-10.19v-1.45q0-8.05-1.43-11.33a4.85,4.85,0,0,0-4.71-3.28c-2.05,0-3.53,1.25-4.46,3.75s-1.39,6.15-1.39,10.94.47,8.38,1.41,10.77S1196.68,619.09,1198.79,619.09Z"/><path class="cls-3" d="M1241.29,619.09a12.84,12.84,0,0,0,5-1.16v8.63q-2.7,1.88-8.09,1.87-6,0-8.93-3.59t-2.9-10.77v-24h-4.49v-4.94l5.77-4,2.83-9.8h7v10h8.39v8.76h-8.39v24.32Q1237.55,619.09,1241.29,619.09Z"/><path d="M838.55,739.64h-4.67V712.29h4.67Z"/><path d="M858.56,740a6.66,6.66,0,0,1-6-3.16,6.72,6.72,0,0,1-2.33,2.4A6.23,6.23,0,0,1,847,740a5.35,5.35,0,0,1-4.13-1.55,6.54,6.54,0,0,1-1.42-4.56,5.82,5.82,0,0,1,1.69-4.6,8,8,0,0,1,5.07-1.66l2.6-.11v-1.37c0-1.85-.79-2.78-2.37-2.78a8.07,8.07,0,0,0-4,1.38l-1.62-3.24a11.66,11.66,0,0,1,6.35-1.84,6.12,6.12,0,0,1,4.53,1.63,6.51,6.51,0,0,1,9.29.76,10.4,10.4,0,0,1,1.82,6.5v2.5h-9.39a6.42,6.42,0,0,0,1.08,3.89,3.39,3.39,0,0,0,2.81,1.27,8.82,8.82,0,0,0,4.68-1.42v3.85A10.26,10.26,0,0,1,858.56,740Zm-7.74-9.52-1.44.07a3.22,3.22,0,0,0-2.34.91,3.55,3.55,0,0,0-.75,2.46c0,1.62.57,2.43,1.72,2.43a2.36,2.36,0,0,0,2-1.15,5.47,5.47,0,0,0,.76-3.07Zm7.09-7.18c-1.47,0-2.27,1.46-2.41,4.36h4.75a7.17,7.17,0,0,0-.65-3.25A1.88,1.88,0,0,0,857.91,723.29Z"/><path d="M878.4,733.91a5.92,5.92,0,0,1-1.67,4.47,6.86,6.86,0,0,1-5,1.61,9.17,9.17,0,0,1-4.8-1.14v-4.06a9.15,9.15,0,0,0,2.26,1.11,7.28,7.28,0,0,0,2.27.44,2.32,2.32,0,0,0,1.66-.54,1.83,1.83,0,0,0,.58-1.41,2.28,2.28,0,0,0-.6-1.57,10.2,10.2,0,0,0-2.2-1.63,9.17,9.17,0,0,1-3.05-2.7,6.16,6.16,0,0,1-.92-3.39,4.92,4.92,0,0,1,1.71-4,7,7,0,0,1,4.7-1.46,9.48,9.48,0,0,1,4.91,1.37l-1.53,3.36a7.15,7.15,0,0,0-3.31-1,1.79,1.79,0,0,0-1.34.47,1.64,1.64,0,0,0-.45,1.16,2,2,0,0,0,.56,1.41,9.37,9.37,0,0,0,2.06,1.53,13,13,0,0,1,2.57,1.88,5.67,5.67,0,0,1,1.14,1.76A6,6,0,0,1,878.4,733.91Z"/><path d="M909.69,739.64V728q0-4.31-2.12-4.31a2.3,2.3,0,0,0-2.22,1.54,13.42,13.42,0,0,0-.67,4.93v9.51H900V728q0-4.31-2.16-4.31a2.29,2.29,0,0,0-2.2,1.53,13.53,13.53,0,0,0-.68,5v9.4h-4.68V720.06H894l.56,2.51h.3a4.79,4.79,0,0,1,1.93-2.19,5.2,5.2,0,0,1,2.61-.69,4.66,4.66,0,0,1,4.78,3.39h.17a5,5,0,0,1,4.8-3.39,4.59,4.59,0,0,1,3.95,1.83,8.92,8.92,0,0,1,1.34,5.34v12.78Z"/><path d="M925.41,740a7.05,7.05,0,0,1-5.79-2.61c-1.42-1.74-2.12-4.2-2.12-7.39s.64-5.76,1.91-7.57a6.17,6.17,0,0,1,5.35-2.73,6.09,6.09,0,0,1,5,2.33,10.27,10.27,0,0,1,1.85,6.53v2.5h-9.41a6.42,6.42,0,0,0,1.08,3.89,3.39,3.39,0,0,0,2.81,1.27,9.08,9.08,0,0,0,4.67-1.42v3.85A10.27,10.27,0,0,1,925.41,740Zm-.69-16.7a1.9,1.9,0,0,0-1.65,1.07,7.19,7.19,0,0,0-.76,3.29h4.75a7,7,0,0,0-.65-3.25A1.87,1.87,0,0,0,924.72,723.29Z"/><path d="M943.09,719.69a5.68,5.68,0,0,1,1.69.26l-.55,4.54a3.74,3.74,0,0,0-1.28-.18,3,3,0,0,0-2.62,1.35,6.93,6.93,0,0,0-.91,3.91v10.07h-4.68V720.06h3.85l.53,3.06h.16a7.19,7.19,0,0,1,1.68-2.64A3.14,3.14,0,0,1,943.09,719.69Z"/><path d="M954.1,740a7.08,7.08,0,0,1-5.8-2.61q-2.12-2.61-2.11-7.39c0-3.23.63-5.76,1.91-7.57a6.17,6.17,0,0,1,5.35-2.73,6.09,6.09,0,0,1,5,2.33,10.27,10.27,0,0,1,1.85,6.53v2.5h-9.41a6.42,6.42,0,0,0,1.07,3.89,3.41,3.41,0,0,0,2.82,1.27,9.08,9.08,0,0,0,4.67-1.42v3.85A10.29,10.29,0,0,1,954.1,740Zm-.69-16.7a1.9,1.9,0,0,0-1.65,1.07,7.07,7.07,0,0,0-.76,3.29h4.75a7.17,7.17,0,0,0-.65-3.25A1.88,1.88,0,0,0,953.41,723.29Z"/><path d="M986.83,729.82q0,4.81-2,7.49a7.12,7.12,0,0,1-9.57,1.45,7.83,7.83,0,0,1-2.65-3.54,14.4,14.4,0,0,1-.93-5.4q0-4.77,2-7.45a6.63,6.63,0,0,1,5.61-2.68,6.54,6.54,0,0,1,5.51,2.73A12.12,12.12,0,0,1,986.83,729.82Zm-10.41,0a12.21,12.21,0,0,0,.67,4.62,2.23,2.23,0,0,0,2.14,1.56c1.88,0,2.81-2.06,2.81-6.18a11.89,11.89,0,0,0-.67-4.6,2.27,2.27,0,0,0-4.28,0A11.89,11.89,0,0,0,976.42,729.82Z"/><path d="M1009.55,739.64V728c0-2.87-.7-4.31-2.12-4.31a2.3,2.3,0,0,0-2.22,1.54,13.42,13.42,0,0,0-.67,4.93v9.51h-4.71V728q0-4.31-2.16-4.31a2.29,2.29,0,0,0-2.2,1.53,13.53,13.53,0,0,0-.68,5v9.4h-4.68V720.06h3.71l.56,2.51h.3a4.79,4.79,0,0,1,1.93-2.19,5.2,5.2,0,0,1,2.61-.69,4.66,4.66,0,0,1,4.78,3.39h.18a5,5,0,0,1,4.79-3.39,4.59,4.59,0,0,1,3.95,1.83,8.91,8.91,0,0,1,1.35,5.34v12.78Z"/><path d="M1035.29,719.69a5.73,5.73,0,0,1,1.69.26l-.55,4.54a3.78,3.78,0,0,0-1.28-.18,3,3,0,0,0-2.62,1.35,6.93,6.93,0,0,0-.91,3.91v10.07h-4.68V720.06h3.85l.53,3.06h.15a7.19,7.19,0,0,1,1.69-2.64A3.14,3.14,0,0,1,1035.29,719.69Z"/><path d="M1046.29,740a7.05,7.05,0,0,1-5.79-2.61q-2.12-2.61-2.12-7.39c0-3.23.64-5.76,1.92-7.57a6.16,6.16,0,0,1,5.34-2.73,6.1,6.1,0,0,1,5,2.33,10.27,10.27,0,0,1,1.84,6.53v2.5h-9.4a6.35,6.35,0,0,0,1.07,3.89,3.4,3.4,0,0,0,2.81,1.27,9.09,9.09,0,0,0,4.68-1.42v3.85A10.31,10.31,0,0,1,1046.29,740Zm-.68-16.7a1.9,1.9,0,0,0-1.65,1.07,7.07,7.07,0,0,0-.76,3.29H1048a7,7,0,0,0-.66-3.25A1.87,1.87,0,0,0,1045.61,723.29Z"/><path d="M1069.72,720.09v2.75l-2.33.52a6.41,6.41,0,0,1,.68,3.1,6.73,6.73,0,0,1-1.69,4.87,6.21,6.21,0,0,1-4.71,1.75,4.24,4.24,0,0,1-1.3-.14,6.72,6.72,0,0,0-.63.67,1.41,1.41,0,0,0-.3.92q0,1.23,2.13,1.23h2.83a5.23,5.23,0,0,1,3.84,1.34,5.5,5.5,0,0,1,1.34,4,6.44,6.44,0,0,1-2.28,5.28c-1.52,1.24-3.72,1.86-6.58,1.86a7.86,7.86,0,0,1-5-1.41,4.9,4.9,0,0,1-1.75-4,4.4,4.4,0,0,1,1-2.87,5.58,5.58,0,0,1,2.78-1.8,3.43,3.43,0,0,1-1.47-1.09,2.77,2.77,0,0,1-.57-1.73,3.31,3.31,0,0,1,.17-1.08,3.68,3.68,0,0,1,.5-.91,9.86,9.86,0,0,1,1.33-1.28,4.94,4.94,0,0,1-1.91-2.26,8,8,0,0,1-.71-3.4,6.87,6.87,0,0,1,1.69-5,6.39,6.39,0,0,1,4.83-1.76,8,8,0,0,1,1.37.13,8.57,8.57,0,0,1,1.18.27Zm-11.51,22.4a2.2,2.2,0,0,0,.73,1.78,3.1,3.1,0,0,0,2.08.63,5.22,5.22,0,0,0,3.19-.81,2.64,2.64,0,0,0,1.07-2.22,1.89,1.89,0,0,0-.57-1.56,3.56,3.56,0,0,0-2.14-.46h-2.27a1.86,1.86,0,0,0-1.52.71A3,3,0,0,0,1058.21,742.49Zm1.44-16c0,2.31.65,3.46,1.95,3.46s1.9-1.17,1.9-3.5-.63-3.58-1.9-3.58S1059.65,724,1059.65,726.46Z"/><path d="M1076.76,739.64h-4.68V712.29h4.68Z"/><path d="M1087.9,740a7.05,7.05,0,0,1-5.79-2.61Q1080,734.77,1080,730c0-3.23.64-5.76,1.92-7.57a6.6,6.6,0,0,1,10.38-.4,10.21,10.21,0,0,1,1.85,6.53v2.5h-9.4a6.35,6.35,0,0,0,1.07,3.89,3.4,3.4,0,0,0,2.81,1.27,9.14,9.14,0,0,0,4.68-1.42v3.85A10.31,10.31,0,0,1,1087.9,740Zm-.69-16.7a1.93,1.93,0,0,0-1.65,1.07,7.21,7.21,0,0,0-.75,3.29h4.74a7,7,0,0,0-.65-3.25A1.87,1.87,0,0,0,1087.21,723.29Z"/><path d="M1105.58,719.69a5.68,5.68,0,0,1,1.69.26l-.54,4.54a3.85,3.85,0,0,0-1.29-.18,3,3,0,0,0-2.62,1.35,6.93,6.93,0,0,0-.91,3.91v10.07h-4.68V720.06h3.85l.53,3.06h.16a7.19,7.19,0,0,1,1.69-2.64A3.14,3.14,0,0,1,1105.58,719.69Z"/><path d="M1119.12,739.64V728a7.9,7.9,0,0,0-.51-3.22,1.72,1.72,0,0,0-1.65-1.09,2.32,2.32,0,0,0-2.22,1.51,13,13,0,0,0-.7,5.07v9.4h-4.68V720.06h3.71l.56,2.51h.3a4.86,4.86,0,0,1,4.57-2.88,4.6,4.6,0,0,1,4,1.83,9,9,0,0,1,1.33,5.34v12.78Z"/><path d="M1134.83,740a7.05,7.05,0,0,1-5.79-2.61q-2.11-2.61-2.12-7.39c0-3.23.64-5.76,1.92-7.57a6.16,6.16,0,0,1,5.34-2.73,6.1,6.1,0,0,1,5,2.33,10.27,10.27,0,0,1,1.84,6.53v2.5h-9.4a6.42,6.42,0,0,0,1.07,3.89,3.4,3.4,0,0,0,2.81,1.27,9.09,9.09,0,0,0,4.68-1.42v3.85A10.31,10.31,0,0,1,1134.83,740Zm-.68-16.7a1.9,1.9,0,0,0-1.65,1.07,7.07,7.07,0,0,0-.76,3.29h4.75a7.17,7.17,0,0,0-.65-3.25A1.88,1.88,0,0,0,1134.15,723.29Z"/></svg>
