<svg id="Layer_1" data-name="Layer 1" xmlns="http://www.w3.org/2000/svg" width="755" height="652" viewBox="0 0 755 652"><defs><style>.cls-1{fill:#7cc242;}.cls-2{fill:#fff;}</style></defs><title>vinderskærm</title><rect class="cls-1" width="755" height="652" rx="82.65"/><path class="cls-2" d="M258.49,137.39a16.26,16.26,0,0,1-5.9-.88v-8.33a14.62,14.62,0,0,0,4.32.7,4.92,4.92,0,0,0,4.27-1.86,9.48,9.48,0,0,0,1.36-5.56V71.15h9.56V121a20.89,20.89,0,0,1-1.71,8.79,12.74,12.74,0,0,1-4.81,5.68A13.09,13.09,0,0,1,258.49,137.39Z"/><path class="cls-2" d="M312.77,71.15v33.26q0,9.18-4.15,14t-12,4.84q-7.67,0-11.68-4.8t-4-14.19V71.15h9.49V105q0,9.81,6.5,9.81a5.29,5.29,0,0,0,4.68-2.49,12.86,12.86,0,0,0,1.65-7.1v-34Z"/><path class="cls-2" d="M353.38,122.55h-9.56V100H331.2v22.53h-9.57V71.15h9.57V91.58h12.62V71.15h9.56Z"/><path class="cls-2" d="M394.05,71.15v33.26q0,9.18-4.14,14t-12,4.84q-7.67,0-11.67-4.8t-4-14.19V71.15h9.49V105q0,9.81,6.5,9.81a5.29,5.29,0,0,0,4.68-2.49,12.86,12.86,0,0,0,1.65-7.1v-34Z"/><path class="cls-2" d="M434.52,71.15v33.26q0,9.18-4.15,14t-12,4.84q-7.67,0-11.67-4.8t-4-14.19V71.15h9.5V105q0,9.81,6.5,9.81a5.32,5.32,0,0,0,4.68-2.49,12.86,12.86,0,0,0,1.65-7.1v-34Z"/><path class="cls-2" d="M475,71.15v33.26q0,9.18-4.14,14t-12,4.84q-7.67,0-11.67-4.8t-4-14.19V71.15h9.49V105q0,9.81,6.5,9.81a5.29,5.29,0,0,0,4.68-2.49,12.86,12.86,0,0,0,1.65-7.1v-34Z"/><path class="cls-2" d="M515.45,71.15v33.26q0,9.18-4.15,14t-12,4.84q-7.67,0-11.67-4.8t-4-14.19V71.15h9.49V105q0,9.81,6.51,9.81a5.29,5.29,0,0,0,4.67-2.49c1.11-1.67,1.66-4,1.66-7.1v-34Z"/><path class="cls-2" d="M523.68,117.74a5.9,5.9,0,0,1,1.45-4.26,5.78,5.78,0,0,1,4.35-1.51,5.19,5.19,0,0,1,5.83,5.77,5.72,5.72,0,0,1-1.53,4.25,5.84,5.84,0,0,1-4.3,1.51,5.76,5.76,0,0,1-4.33-1.53A5.85,5.85,0,0,1,523.68,117.74Zm9.7-11.75h-7.7L524,71.15h11.21Z"/><path class="cls-2" d="M131,269.16q0,12.73-5.18,19.46t-14.93,6.73H98.27V244H112q9,0,14,6.63T131,269.16Zm-9.81.28q0-17.22-9.49-17.22h-3.83V287h3.09a8.31,8.31,0,0,0,7.74-4.38Q121.15,278.23,121.15,269.44Z"/><path class="cls-2" d="M152.34,296.06a14.11,14.11,0,0,1-11.59-5.23q-4.23-5.22-4.23-14.78t3.83-15.15A12.33,12.33,0,0,1,151,255.45a12.15,12.15,0,0,1,10.08,4.66q3.7,4.65,3.7,13.06v5H146q.11,5.23,2.14,7.79a6.82,6.82,0,0,0,5.63,2.55,18.24,18.24,0,0,0,9.35-2.85v7.7A20.6,20.6,0,0,1,152.34,296.06ZM151,262.66a3.83,3.83,0,0,0-3.3,2.12q-1.31,2.13-1.51,6.6h9.49a14.26,14.26,0,0,0-1.3-6.51A3.76,3.76,0,0,0,151,262.66Z"/><path class="cls-2" d="M184.61,288.15a10.74,10.74,0,0,0,4.25-1v7.31c-1.52,1.06-3.81,1.59-6.85,1.59q-5.1,0-7.56-3.05T172,283.89V263.61h-3.8v-4.19l4.89-3.37,2.39-8.3h6v8.44h7.1v7.42h-7.1v20.6C181.45,286.83,182.5,288.15,184.61,288.15Z"/><path class="cls-2" d="M226.59,296.06A14.11,14.11,0,0,1,215,290.83q-4.23-5.22-4.23-14.78t3.83-15.15a12.33,12.33,0,0,1,10.69-5.45,12.19,12.19,0,0,1,10.09,4.66q3.69,4.65,3.69,13.06v5H220.26q.11,5.23,2.14,7.79A6.82,6.82,0,0,0,228,288.5a18.24,18.24,0,0,0,9.35-2.85v7.7A20.6,20.6,0,0,1,226.59,296.06Zm-1.38-33.4a3.83,3.83,0,0,0-3.3,2.12q-1.31,2.13-1.51,6.6h9.49a14.26,14.26,0,0,0-1.3-6.51A3.76,3.76,0,0,0,225.21,262.66Z"/><path class="cls-2" d="M262,255.45a11.1,11.1,0,0,1,3.38.53l-1.09,9.07a7.66,7.66,0,0,0-2.57-.35,6,6,0,0,0-5.24,2.69c-1.22,1.79-1.82,4.4-1.82,7.82v20.14h-9.36V256.19H253l1.06,6.12h.31A14.3,14.3,0,0,1,257.7,257,6.33,6.33,0,0,1,262,255.45Z"/><path class="cls-2" d="M306.81,295.35V272a15.72,15.72,0,0,0-1-6.43,3.42,3.42,0,0,0-3.3-2.18,4.64,4.64,0,0,0-4.43,3q-1.41,3-1.41,10.14v18.81H287.3V256.19h7.42l1.12,5h.6a9.66,9.66,0,0,1,9.14-5.77q5.34,0,8,3.66c1.77,2.43,2.65,6,2.65,10.68v25.56Z"/><path class="cls-2" d="M338.24,296.06a14.08,14.08,0,0,1-11.58-5.23q-4.25-5.22-4.24-14.78t3.83-15.15a12.35,12.35,0,0,1,10.69-5.45A12.16,12.16,0,0,1,347,260.11q3.69,4.65,3.69,13.06v5H331.91q.1,5.23,2.15,7.79a6.8,6.8,0,0,0,5.62,2.55,18.24,18.24,0,0,0,9.36-2.85v7.7A20.61,20.61,0,0,1,338.24,296.06Zm-1.37-33.4a3.82,3.82,0,0,0-3.3,2.12c-.87,1.42-1.37,3.62-1.52,6.6h9.5a14.26,14.26,0,0,0-1.3-6.51A3.76,3.76,0,0,0,336.87,262.66Z"/><path class="cls-2" d="M395.79,295.35V272q0-8.61-4.25-8.61a4.56,4.56,0,0,0-4.43,3.07q-1.33,3.07-1.34,9.86v19h-9.42V272q0-8.61-4.32-8.61a4.59,4.59,0,0,0-4.4,3.05c-.91,2-1.37,5.41-1.37,10.09v18.81h-9.35V256.19h7.42l1.12,5h.6a9.42,9.42,0,0,1,3.85-4.38,10.36,10.36,0,0,1,5.22-1.39q7.17,0,9.56,6.79H385q3-6.8,9.59-6.79a9.2,9.2,0,0,1,7.9,3.66c1.79,2.43,2.68,6,2.68,10.68v25.56Z"/><path class="cls-2" d="M422.12,295.35h-9.35v-54.7h9.35Z"/><path class="cls-2" d="M429.65,246a5,5,0,0,1,1.35-3.68,5.11,5.11,0,0,1,3.78-1.35,4.69,4.69,0,0,1,5,5,4.84,4.84,0,0,1-1.41,3.71,5.07,5.07,0,0,1-3.62,1.32,5.23,5.23,0,0,1-3.73-1.32A4.87,4.87,0,0,1,429.65,246Zm9.74,49.39H430V256.19h9.35Z"/><path class="cls-2" d="M475.6,256.26v5.48l-4.68,1.06a12.52,12.52,0,0,1,1.37,6.19q0,6.21-3.37,9.73t-9.42,3.52a8.84,8.84,0,0,1-2.61-.28,12.32,12.32,0,0,0-1.26,1.33,2.84,2.84,0,0,0-.6,1.83q0,2.46,4.26,2.46H465q5,0,7.68,2.69t2.69,8.11q0,6.81-4.57,10.54t-13.15,3.73q-6.51,0-10-2.83a9.76,9.76,0,0,1-3.52-8.07,8.88,8.88,0,0,1,2-5.75,11.27,11.27,0,0,1,5.55-3.6,6.8,6.8,0,0,1-2.93-2.18,5.42,5.42,0,0,1-1.15-3.45,6.44,6.44,0,0,1,.35-2.16,7.17,7.17,0,0,1,1-1.83,18.49,18.49,0,0,1,2.65-2.54,10,10,0,0,1-3.83-4.54,16,16,0,0,1-1.41-6.78q0-6.44,3.38-9.95t9.67-3.52a17.17,17.17,0,0,1,2.74.26,15.67,15.67,0,0,1,2.35.55Zm-23,44.79a4.47,4.47,0,0,0,1.46,3.57,6.23,6.23,0,0,0,4.17,1.24c2.83,0,5-.53,6.38-1.61a5.29,5.29,0,0,0,2.12-4.43,3.79,3.79,0,0,0-1.14-3.13c-.76-.61-2.18-.92-4.27-.92h-4.54a3.71,3.71,0,0,0-3,1.43A6,6,0,0,0,452.57,301.05ZM455.45,269q0,6.92,3.91,6.92t3.79-7q0-7.19-3.79-7.18T455.45,269Z"/><path class="cls-2" d="M514.8,255.45a11,11,0,0,1,3.37.53l-1.09,9.07a7.59,7.59,0,0,0-2.56-.35,5.94,5.94,0,0,0-5.24,2.69q-1.83,2.69-1.83,7.82v20.14H498.1V256.19h7.7l1.05,6.12h.32a14.17,14.17,0,0,1,3.37-5.28A6.34,6.34,0,0,1,514.8,255.45Z"/><path class="cls-2" d="M522,246a5,5,0,0,1,1.35-3.68,5.11,5.11,0,0,1,3.78-1.35,4.69,4.69,0,0,1,5,5,4.84,4.84,0,0,1-1.41,3.71,5.06,5.06,0,0,1-3.62,1.32,5.19,5.19,0,0,1-3.72-1.32A4.84,4.84,0,0,1,522,246Zm9.74,49.39h-9.35V256.19h9.35Z"/><path class="cls-2" d="M568,256.26v5.48l-4.68,1.06a12.52,12.52,0,0,1,1.37,6.19q0,6.21-3.37,9.73t-9.42,3.52a8.72,8.72,0,0,1-2.6-.28,11.48,11.48,0,0,0-1.27,1.33,2.84,2.84,0,0,0-.6,1.83q0,2.46,4.26,2.46h5.66q5,0,7.68,2.69t2.69,8.11q0,6.81-4.57,10.54T550,312.65q-6.51,0-10-2.83a9.76,9.76,0,0,1-3.52-8.07,8.88,8.88,0,0,1,2-5.75,11.27,11.27,0,0,1,5.55-3.6,6.8,6.8,0,0,1-2.93-2.18,5.42,5.42,0,0,1-1.15-3.45,6.2,6.2,0,0,1,.36-2.16,6.84,6.84,0,0,1,1-1.83,19.06,19.06,0,0,1,2.65-2.54,10,10,0,0,1-3.83-4.54,16,16,0,0,1-1.41-6.78q0-6.44,3.38-9.95t9.67-3.52a17.17,17.17,0,0,1,2.74.26,15.67,15.67,0,0,1,2.35.55Zm-23,44.79a4.47,4.47,0,0,0,1.46,3.57,6.23,6.23,0,0,0,4.17,1.24c2.83,0,5-.53,6.38-1.61a5.29,5.29,0,0,0,2.12-4.43,3.79,3.79,0,0,0-1.14-3.13c-.76-.61-2.18-.92-4.27-.92h-4.54a3.72,3.72,0,0,0-3,1.43A6,6,0,0,0,545,301.05ZM547.84,269q0,6.92,3.91,6.92t3.79-7q0-7.19-3.79-7.18T547.84,269Z"/><path class="cls-2" d="M586.3,288.15a10.74,10.74,0,0,0,4.26-1v7.31q-2.28,1.59-6.86,1.59c-3.4,0-5.91-1-7.56-3.05s-2.46-5.06-2.46-9.12V263.61h-3.79v-4.19l4.88-3.37,2.39-8.3h6v8.44h7.1v7.42h-7.1v20.6C583.14,286.83,584.2,288.15,586.3,288.15Z"/><path class="cls-2" d="M595.73,246a5,5,0,0,1,1.35-3.68,5.11,5.11,0,0,1,3.78-1.35,4.69,4.69,0,0,1,5,5,4.84,4.84,0,0,1-1.41,3.71,5.07,5.07,0,0,1-3.62,1.32,5.23,5.23,0,0,1-3.73-1.32A4.87,4.87,0,0,1,595.73,246Zm9.73,49.39h-9.35V256.19h9.35Z"/><path class="cls-2" d="M641.68,256.26v5.48L637,262.8a12.63,12.63,0,0,1,1.37,6.19q0,6.21-3.37,9.73t-9.43,3.52A8.81,8.81,0,0,1,623,282a12.32,12.32,0,0,0-1.26,1.33,2.84,2.84,0,0,0-.6,1.83q0,2.46,4.25,2.46H631q5,0,7.69,2.69t2.68,8.11q0,6.81-4.57,10.54c-3,2.49-7.43,3.73-13.14,3.73q-6.51,0-10-2.83a9.76,9.76,0,0,1-3.52-8.07,8.92,8.92,0,0,1,2-5.75,11.35,11.35,0,0,1,5.56-3.6,6.83,6.83,0,0,1-2.94-2.18,5.47,5.47,0,0,1-1.14-3.45,6.44,6.44,0,0,1,.35-2.16,7.45,7.45,0,0,1,1-1.83,19.31,19.31,0,0,1,2.66-2.54,10,10,0,0,1-3.83-4.54,16,16,0,0,1-1.41-6.78q0-6.44,3.38-9.95t9.66-3.52a17.29,17.29,0,0,1,2.75.26,15.67,15.67,0,0,1,2.35.55Zm-23,44.79a4.44,4.44,0,0,0,1.46,3.57,6.22,6.22,0,0,0,4.16,1.24c2.84,0,5-.53,6.38-1.61a5.27,5.27,0,0,0,2.13-4.43,3.79,3.79,0,0,0-1.14-3.13c-.76-.61-2.19-.92-4.27-.92h-4.54a3.71,3.71,0,0,0-3,1.43A6,6,0,0,0,618.65,301.05ZM621.53,269q0,6.92,3.9,6.92t3.8-7q0-7.19-3.8-7.18T621.53,269Z"/><path class="cls-2" d="M660,288.15a10.82,10.82,0,0,0,4.26-1v7.31c-1.53,1.06-3.81,1.59-6.86,1.59q-5.1,0-7.56-3.05t-2.46-9.12V263.61h-3.8v-4.19l4.89-3.37,2.39-8.3h6v8.44h7.1v7.42h-7.1v20.6C656.83,286.83,657.88,288.15,660,288.15Z"/><path class="cls-2" d="M669.66,290.54a5.9,5.9,0,0,1,1.46-4.26,5.75,5.75,0,0,1,4.34-1.51,5.21,5.21,0,0,1,5.84,5.77,5.72,5.72,0,0,1-1.53,4.25,5.86,5.86,0,0,1-4.31,1.51,5.72,5.72,0,0,1-4.32-1.53A5.82,5.82,0,0,1,669.66,290.54Zm9.7-11.75h-7.7L669.94,244h11.22Z"/><path class="cls-2" d="M200.06,355.56q0,12.72-5.18,19.46T180,381.75H167.37v-51.4h13.74q9,0,14,6.63T200.06,355.56Zm-9.81.28q0-17.22-9.49-17.22h-3.83v34.76H180a8.3,8.3,0,0,0,7.74-4.37Q190.25,364.63,190.25,355.84Z"/><path class="cls-2" d="M221.44,382.46a14.14,14.14,0,0,1-11.59-5.23q-4.23-5.22-4.23-14.78t3.83-15.15a12.32,12.32,0,0,1,10.68-5.45,12.16,12.16,0,0,1,10.09,4.66q3.71,4.65,3.7,13.06v5H215.11q.1,5.24,2.14,7.79a6.82,6.82,0,0,0,5.63,2.55,18.24,18.24,0,0,0,9.35-2.85v7.7A20.6,20.6,0,0,1,221.44,382.46Zm-1.38-33.4a3.83,3.83,0,0,0-3.3,2.12q-1.31,2.13-1.51,6.6h9.49a14.26,14.26,0,0,0-1.3-6.51A3.74,3.74,0,0,0,220.06,349.06Z"/><path class="cls-2" d="M253.71,374.54a10.71,10.71,0,0,0,4.25-1v7.31c-1.52,1.06-3.81,1.59-6.85,1.59q-5.1,0-7.56-3t-2.46-9.12V350h-3.8v-4.19l4.89-3.37,2.39-8.3h6v8.44h7.11V350h-7.11v20.6Q250.54,374.54,253.71,374.54Z"/><path class="cls-2" d="M295.69,382.46a14.14,14.14,0,0,1-11.59-5.23q-4.23-5.22-4.23-14.78t3.83-15.15a12.32,12.32,0,0,1,10.68-5.45,12.16,12.16,0,0,1,10.09,4.66q3.7,4.65,3.7,13.06v5H289.36q.11,5.24,2.14,7.79a6.82,6.82,0,0,0,5.63,2.55,18.24,18.24,0,0,0,9.35-2.85v7.7A20.6,20.6,0,0,1,295.69,382.46Zm-1.38-33.4a3.83,3.83,0,0,0-3.3,2.12q-1.31,2.13-1.51,6.6H299a14.26,14.26,0,0,0-1.3-6.51A3.74,3.74,0,0,0,294.31,349.06Z"/><path class="cls-2" d="M331.05,341.85a11.1,11.1,0,0,1,3.38.53l-1.09,9.07a7.66,7.66,0,0,0-2.57-.35,6,6,0,0,0-5.24,2.69c-1.22,1.79-1.82,4.4-1.82,7.82v20.14h-9.36V342.59h7.7l1.06,6.12h.31a14.3,14.3,0,0,1,3.38-5.28A6.33,6.33,0,0,1,331.05,341.85Z"/><path class="cls-2" d="M370.85,382.46a14.11,14.11,0,0,1-11.58-5.23Q355,372,355,362.45t3.83-15.15a12.35,12.35,0,0,1,10.69-5.45,12.17,12.17,0,0,1,10.09,4.66q3.69,4.65,3.69,13.06v5H364.52q.11,5.24,2.15,7.79a6.8,6.8,0,0,0,5.62,2.55,18.18,18.18,0,0,0,9.35-2.85v7.7A20.6,20.6,0,0,1,370.85,382.46Zm-1.37-33.4a3.83,3.83,0,0,0-3.31,2.12,14.43,14.43,0,0,0-1.51,6.6h9.49a14.13,14.13,0,0,0-1.3-6.51A3.73,3.73,0,0,0,369.48,349.06Z"/><path class="cls-2" d="M403.12,374.54a10.76,10.76,0,0,0,4.26-1v7.31c-1.53,1.06-3.81,1.59-6.86,1.59q-5.1,0-7.56-3t-2.46-9.12V350h-3.79v-4.19l4.88-3.37,2.39-8.3h6v8.44h7.1V350H400v20.6Q400,374.54,403.12,374.54Z"/><path class="cls-2" d="M448.33,341.85q5.35,0,8.41,5.31t3.05,14.94q0,9.73-3.07,15t-8.53,5.31a9.29,9.29,0,0,1-4.65-1.15,11.35,11.35,0,0,1-3.82-4h-.6l-1.58,4.46h-6.89v-54.7H440v12.8c0,.53,0,1.1,0,1.68s-.18,2.64-.46,6.16H440a12,12,0,0,1,3.73-4.54A8.22,8.22,0,0,1,448.33,341.85Zm-3.23,7.94a4,4,0,0,0-3.85,2.5c-.79,1.67-1.2,4.59-1.25,8.79V362c0,4.55.41,7.75,1.21,9.6a4.1,4.1,0,0,0,4,2.77q5.06,0,5.06-12.44Q450.23,349.8,445.1,349.79Z"/><path class="cls-2" d="M466.05,332.36a5,5,0,0,1,1.36-3.68,5.11,5.11,0,0,1,3.78-1.35,4.69,4.69,0,0,1,5,5,4.87,4.87,0,0,1-1.4,3.71,5.08,5.08,0,0,1-3.62,1.31,5.23,5.23,0,0,1-3.73-1.31A4.84,4.84,0,0,1,466.05,332.36Zm9.74,49.39h-9.35V342.59h9.35Z"/><path class="cls-2" d="M493.16,381.75h-9.35v-54.7h9.35Z"/><path class="cls-2" d="M510.35,381.75H501v-54.7h9.35Z"/><path class="cls-2" d="M532.64,382.46a14.14,14.14,0,0,1-11.59-5.23q-4.23-5.22-4.23-14.78t3.83-15.15a12.35,12.35,0,0,1,10.69-5.45,12.17,12.17,0,0,1,10.09,4.66q3.69,4.65,3.69,13.06v5H526.31q.11,5.24,2.15,7.79a6.78,6.78,0,0,0,5.62,2.55,18.21,18.21,0,0,0,9.35-2.85v7.7A20.6,20.6,0,0,1,532.64,382.46Zm-1.37-33.4a3.83,3.83,0,0,0-3.31,2.12,14.43,14.43,0,0,0-1.51,6.6h9.49a14.13,14.13,0,0,0-1.3-6.51A3.73,3.73,0,0,0,531.27,349.06Z"/><path class="cls-2" d="M561.61,382.46q-5.42,0-8.55-5.35t-3.12-14.87q0-9.56,3-15t8.44-5.41a8,8,0,0,1,4.62,1.32,11.87,11.87,0,0,1,3.61,4.45h.56c-.28-3.57-.42-6.06-.42-7.49V327.05h9.35v54.7h-7l-1.58-5.1h-.32Q567.3,382.46,561.61,382.46Zm3-7.92a4,4,0,0,0,3.8-2.37c.79-1.58,1.23-4.46,1.3-8.63v-1.23c0-4.55-.41-7.75-1.21-9.6a4.12,4.12,0,0,0-4-2.77q-2.61,0-3.78,3.18a27.87,27.87,0,0,0-1.18,9.26q0,6.09,1.19,9.12T564.63,374.54Z"/><path class="cls-2" d="M601.47,382.46a14.12,14.12,0,0,1-11.58-5.23q-4.23-5.22-4.24-14.78t3.84-15.15a12.32,12.32,0,0,1,10.68-5.45,12.16,12.16,0,0,1,10.09,4.66q3.69,4.65,3.7,13.06v5H595.15q.11,5.24,2.14,7.79a6.82,6.82,0,0,0,5.63,2.55,18.24,18.24,0,0,0,9.35-2.85v7.7A20.61,20.61,0,0,1,601.47,382.46Zm-1.37-33.4a3.83,3.83,0,0,0-3.3,2.12q-1.31,2.13-1.51,6.6h9.49a14.26,14.26,0,0,0-1.3-6.51A3.74,3.74,0,0,0,600.1,349.06Z"/><path class="cls-2" d="M231.7,468.15V444.81q0-8.61-4.25-8.61a4.55,4.55,0,0,0-4.43,3.07q-1.34,3.08-1.34,9.86v19h-9.42V444.81q0-8.61-4.32-8.61a4.58,4.58,0,0,0-4.4,3.05c-.91,2-1.37,5.41-1.37,10.09v18.81h-9.35V429h7.42l1.12,5h.6a9.42,9.42,0,0,1,3.85-4.38,10.36,10.36,0,0,1,5.22-1.39q7.17,0,9.56,6.79h.35c2-4.53,5.19-6.79,9.6-6.79a9.17,9.17,0,0,1,7.89,3.66c1.8,2.43,2.69,6,2.69,10.68v25.56Z"/><path class="cls-2" d="M263.13,468.86a14.08,14.08,0,0,1-11.58-5.23q-4.25-5.22-4.24-14.78t3.83-15.15a12.35,12.35,0,0,1,10.69-5.45,12.16,12.16,0,0,1,10.09,4.66q3.69,4.65,3.69,13.06v5H256.8q.1,5.24,2.15,7.79a6.8,6.8,0,0,0,5.62,2.55,18.18,18.18,0,0,0,9.35-2.85v7.7A20.58,20.58,0,0,1,263.13,468.86Zm-1.37-33.4a3.8,3.8,0,0,0-3.3,2.12,14.29,14.29,0,0,0-1.52,6.6h9.5a14.12,14.12,0,0,0-1.31-6.51A3.75,3.75,0,0,0,261.76,435.46Z"/><path class="cls-2" d="M291.15,468.15H281.8v-54.7h9.35Z"/><path class="cls-2" d="M308.34,468.15H299v-54.7h9.35Z"/><path class="cls-2" d="M330.63,468.86a14.08,14.08,0,0,1-11.58-5.23q-4.24-5.22-4.24-14.78t3.83-15.15a12.35,12.35,0,0,1,10.69-5.45,12.16,12.16,0,0,1,10.09,4.66q3.69,4.65,3.69,13.06v5H324.3q.1,5.24,2.15,7.79a6.8,6.8,0,0,0,5.62,2.55,18.18,18.18,0,0,0,9.35-2.85v7.7A20.58,20.58,0,0,1,330.63,468.86Zm-1.37-33.4a3.8,3.8,0,0,0-3.3,2.12,14.29,14.29,0,0,0-1.52,6.6h9.5a14.12,14.12,0,0,0-1.31-6.51A3.75,3.75,0,0,0,329.26,435.46Z"/><path class="cls-2" d="M388.18,468.15V444.81q0-8.61-4.25-8.61a4.56,4.56,0,0,0-4.43,3.07q-1.33,3.08-1.34,9.86v19h-9.42V444.81q0-8.61-4.32-8.61a4.58,4.58,0,0,0-4.4,3.05c-.91,2-1.37,5.41-1.37,10.09v18.81H349.3V429h7.42l1.12,5h.6a9.42,9.42,0,0,1,3.85-4.38,10.36,10.36,0,0,1,5.22-1.39q7.17,0,9.56,6.79h.35q3-6.8,9.6-6.79a9.17,9.17,0,0,1,7.89,3.66c1.8,2.43,2.69,6,2.69,10.68v25.56Z"/><path class="cls-2" d="M421.79,485.45a11.78,11.78,0,0,1-4.89-.88V476.8a8.39,8.39,0,0,0,3,.63q3.3,0,3.3-6V429h9.35v43.7q0,6.12-2.83,9.44A9.89,9.89,0,0,1,421.79,485.45Zm1.09-66.69a5,5,0,0,1,1.35-3.68,5.08,5.08,0,0,1,3.75-1.35,4.93,4.93,0,0,1,3.69,1.37,5,5,0,0,1,1.34,3.66,4.89,4.89,0,0,1-1.38,3.69,5,5,0,0,1-3.65,1.34,5.2,5.2,0,0,1-3.69-1.31A4.79,4.79,0,0,1,422.88,418.76Z"/><path class="cls-2" d="M455,468.86a14.11,14.11,0,0,1-11.59-5.23q-4.23-5.22-4.23-14.78T443,433.7a12.34,12.34,0,0,1,10.69-5.45,12.17,12.17,0,0,1,10.09,4.66q3.69,4.65,3.69,13.06v5H448.65c.07,3.49.79,6.09,2.14,7.79a6.82,6.82,0,0,0,5.63,2.55,18.21,18.21,0,0,0,9.35-2.85v7.7A20.6,20.6,0,0,1,455,468.86Zm-1.37-33.4a3.83,3.83,0,0,0-3.31,2.12,14.43,14.43,0,0,0-1.51,6.6h9.49a14.13,14.13,0,0,0-1.3-6.51A3.75,3.75,0,0,0,453.61,435.46Z"/><path class="cls-2" d="M490.35,428.25a11.09,11.09,0,0,1,3.37.53l-1.09,9.07a7.66,7.66,0,0,0-2.57-.35,5.92,5.92,0,0,0-5.23,2.69Q483,442.88,483,448v20.14h-9.35V429h7.7l1,6.12h.32a14.17,14.17,0,0,1,3.37-5.28A6.34,6.34,0,0,1,490.35,428.25Z"/><path class="cls-2" d="M529.3,461a10.74,10.74,0,0,0,4.25-1v7.31c-1.52,1.06-3.81,1.59-6.85,1.59q-5.1,0-7.56-3.05t-2.46-9.12V436.41h-3.8v-4.19l4.89-3.37,2.39-8.3h6V429h7.11v7.42h-7.11V457C526.13,459.63,527.19,461,529.3,461Z"/><path class="cls-2" d="M568,448.5q0,9.63-4.08,15a14.19,14.19,0,0,1-19.12,2.9,15.54,15.54,0,0,1-5.31-7.08,28.85,28.85,0,0,1-1.86-10.81q0-9.53,4-14.89a13.25,13.25,0,0,1,11.21-5.36,13.08,13.08,0,0,1,11,5.47Q568,439.18,568,448.5Zm-20.81,0q0,6.12,1.33,9.25c.9,2.08,2.32,3.13,4.29,3.13q5.63,0,5.63-12.38c0-4.1-.45-7.17-1.36-9.19a4.53,4.53,0,0,0-8.56,0C547.67,441.33,547.23,444.4,547.23,448.5Z"/><path class="cls-2" d="M574.54,463.34a5.9,5.9,0,0,1,1.46-4.26,5.78,5.78,0,0,1,4.35-1.51,5.19,5.19,0,0,1,5.83,5.77,5.72,5.72,0,0,1-1.53,4.25,5.84,5.84,0,0,1-4.3,1.51,5.76,5.76,0,0,1-4.33-1.53A5.86,5.86,0,0,1,574.54,463.34Zm9.71-11.75h-7.7l-1.72-34.84H586Z"/></svg>
