<svg id="Layer_1" data-name="Layer 1" xmlns="http://www.w3.org/2000/svg" width="929" height="805" viewBox="0 0 929 805"><defs><style>.cls-1{fill:#7cc242;}.cls-2{fill:#fff;}</style></defs><title>vinder_popup_pige</title><rect class="cls-1" x="81" y="62" width="755" height="652" rx="82.65"/><path class="cls-2" d="M339.49,199.39a16.26,16.26,0,0,1-5.9-.88v-8.33a14.62,14.62,0,0,0,4.32.7,4.92,4.92,0,0,0,4.27-1.86,9.48,9.48,0,0,0,1.36-5.56V133.15h9.56V183a20.92,20.92,0,0,1-1.71,8.79,12.74,12.74,0,0,1-4.81,5.68A13.09,13.09,0,0,1,339.49,199.39Z"/><path class="cls-2" d="M393.77,133.15v33.26q0,9.18-4.15,14t-12,4.84q-7.67,0-11.68-4.8t-4-14.19V133.15h9.49V167q0,9.81,6.5,9.81a5.29,5.29,0,0,0,4.68-2.49,12.86,12.86,0,0,0,1.65-7.1v-34Z"/><path class="cls-2" d="M434.38,184.55h-9.56V162H412.2v22.53h-9.57v-51.4h9.57v20.43h12.62V133.15h9.56Z"/><path class="cls-2" d="M475.05,133.15v33.26q0,9.18-4.14,14t-12,4.84q-7.67,0-11.67-4.8t-4-14.19V133.15h9.49V167q0,9.81,6.5,9.81a5.29,5.29,0,0,0,4.68-2.49,12.86,12.86,0,0,0,1.65-7.1v-34Z"/><path class="cls-2" d="M515.52,133.15v33.26q0,9.18-4.15,14t-12,4.84q-7.67,0-11.67-4.8t-4-14.19V133.15h9.5V167q0,9.81,6.5,9.81a5.32,5.32,0,0,0,4.68-2.49,12.86,12.86,0,0,0,1.65-7.1v-34Z"/><path class="cls-2" d="M556,133.15v33.26q0,9.18-4.14,14t-12,4.84q-7.67,0-11.67-4.8t-4-14.19V133.15h9.49V167q0,9.81,6.5,9.81a5.29,5.29,0,0,0,4.68-2.49,12.86,12.86,0,0,0,1.65-7.1v-34Z"/><path class="cls-2" d="M596.45,133.15v33.26q0,9.18-4.15,14t-12,4.84q-7.66,0-11.67-4.8t-4-14.19V133.15h9.49V167q0,9.81,6.51,9.81a5.29,5.29,0,0,0,4.67-2.49c1.11-1.67,1.66-4,1.66-7.1v-34Z"/><path class="cls-2" d="M604.68,179.74a5.9,5.9,0,0,1,1.45-4.26,5.78,5.78,0,0,1,4.35-1.51,5.19,5.19,0,0,1,5.83,5.77,5.72,5.72,0,0,1-1.53,4.25,5.84,5.84,0,0,1-4.3,1.51,5.76,5.76,0,0,1-4.33-1.53A5.85,5.85,0,0,1,604.68,179.74Zm9.7-11.75h-7.7L605,133.15h11.21Z"/><path class="cls-2" d="M212,331.16q0,12.73-5.18,19.46t-14.93,6.73H179.27V306H193q9,0,14,6.63T212,331.16Zm-9.81.28q0-17.22-9.49-17.22h-3.83V349h3.09a8.31,8.31,0,0,0,7.74-4.38Q202.15,340.23,202.15,331.44Z"/><path class="cls-2" d="M233.34,358.06a14.11,14.11,0,0,1-11.59-5.23q-4.23-5.22-4.23-14.78t3.83-15.15A12.33,12.33,0,0,1,232,317.45a12.15,12.15,0,0,1,10.08,4.66q3.7,4.65,3.7,13.06v5H227q.11,5.23,2.14,7.79a6.82,6.82,0,0,0,5.63,2.55,18.24,18.24,0,0,0,9.35-2.85v7.7A20.6,20.6,0,0,1,233.34,358.06ZM232,324.66a3.83,3.83,0,0,0-3.3,2.12q-1.31,2.13-1.51,6.6h9.49a14.26,14.26,0,0,0-1.3-6.51A3.76,3.76,0,0,0,232,324.66Z"/><path class="cls-2" d="M265.61,350.15a10.74,10.74,0,0,0,4.25-1v7.31c-1.52,1.06-3.81,1.59-6.85,1.59q-5.1,0-7.56-3.05T253,345.89V325.61h-3.8v-4.19l4.89-3.37,2.39-8.3h6v8.44h7.1v7.42h-7.1v20.6C262.45,348.83,263.5,350.15,265.61,350.15Z"/><path class="cls-2" d="M307.59,358.06A14.11,14.11,0,0,1,296,352.83q-4.23-5.22-4.23-14.78t3.83-15.15a12.33,12.33,0,0,1,10.69-5.45,12.19,12.19,0,0,1,10.09,4.66q3.69,4.65,3.69,13.06v5H301.26q.11,5.23,2.14,7.79A6.82,6.82,0,0,0,309,350.5a18.24,18.24,0,0,0,9.35-2.85v7.7A20.6,20.6,0,0,1,307.59,358.06Zm-1.38-33.4a3.83,3.83,0,0,0-3.3,2.12q-1.31,2.13-1.51,6.6h9.49a14.26,14.26,0,0,0-1.3-6.51A3.76,3.76,0,0,0,306.21,324.66Z"/><path class="cls-2" d="M343,317.45a11.1,11.1,0,0,1,3.38.53l-1.09,9.07a7.66,7.66,0,0,0-2.57-.35,6,6,0,0,0-5.24,2.69c-1.22,1.79-1.82,4.4-1.82,7.82v20.14h-9.36V318.19H334l1.06,6.12h.31A14.3,14.3,0,0,1,338.7,319,6.33,6.33,0,0,1,343,317.45Z"/><path class="cls-2" d="M387.81,357.35V334a15.72,15.72,0,0,0-1-6.43,3.42,3.42,0,0,0-3.3-2.18,4.64,4.64,0,0,0-4.43,3q-1.41,3-1.41,10.14v18.81H368.3V318.19h7.42l1.12,5h.6a9.66,9.66,0,0,1,9.14-5.77q5.34,0,8,3.66c1.77,2.43,2.65,6,2.65,10.68v25.56Z"/><path class="cls-2" d="M419.24,358.06a14.08,14.08,0,0,1-11.58-5.23q-4.25-5.22-4.24-14.78t3.83-15.15a12.35,12.35,0,0,1,10.69-5.45A12.16,12.16,0,0,1,428,322.11q3.69,4.65,3.69,13.06v5H412.91q.1,5.23,2.15,7.79a6.8,6.8,0,0,0,5.62,2.55,18.24,18.24,0,0,0,9.36-2.85v7.7A20.61,20.61,0,0,1,419.24,358.06Zm-1.37-33.4a3.82,3.82,0,0,0-3.3,2.12c-.87,1.42-1.37,3.62-1.52,6.6h9.5a14.26,14.26,0,0,0-1.3-6.51A3.76,3.76,0,0,0,417.87,324.66Z"/><path class="cls-2" d="M476.79,357.35V334q0-8.61-4.25-8.61a4.56,4.56,0,0,0-4.43,3.07q-1.33,3.07-1.34,9.86v19h-9.42V334q0-8.61-4.32-8.61a4.59,4.59,0,0,0-4.4,3.05c-.91,2-1.37,5.41-1.37,10.09v18.81h-9.35V318.19h7.42l1.12,5h.6a9.42,9.42,0,0,1,3.85-4.38,10.36,10.36,0,0,1,5.22-1.39q7.17,0,9.56,6.79H466q3-6.8,9.59-6.79a9.2,9.2,0,0,1,7.9,3.66c1.79,2.43,2.68,6,2.68,10.68v25.56Z"/><path class="cls-2" d="M503.12,357.35h-9.35v-54.7h9.35Z"/><path class="cls-2" d="M510.65,308a5,5,0,0,1,1.35-3.68,5.11,5.11,0,0,1,3.78-1.35,4.69,4.69,0,0,1,5,5,4.84,4.84,0,0,1-1.41,3.71,5.07,5.07,0,0,1-3.62,1.32,5.23,5.23,0,0,1-3.73-1.32A4.87,4.87,0,0,1,510.65,308Zm9.74,49.39H511V318.19h9.35Z"/><path class="cls-2" d="M556.6,318.26v5.48l-4.68,1.06a12.52,12.52,0,0,1,1.37,6.19q0,6.21-3.37,9.73t-9.42,3.52a8.84,8.84,0,0,1-2.61-.28,12.32,12.32,0,0,0-1.26,1.33,2.84,2.84,0,0,0-.6,1.83q0,2.46,4.26,2.46H546q5,0,7.68,2.69t2.69,8.11q0,6.81-4.57,10.54t-13.15,3.73q-6.51,0-10-2.83a9.76,9.76,0,0,1-3.52-8.07,8.88,8.88,0,0,1,2-5.75,11.27,11.27,0,0,1,5.55-3.6,6.8,6.8,0,0,1-2.93-2.18,5.42,5.42,0,0,1-1.15-3.45,6.44,6.44,0,0,1,.35-2.16,7.17,7.17,0,0,1,1-1.83,18.49,18.49,0,0,1,2.65-2.54,10,10,0,0,1-3.83-4.54,16,16,0,0,1-1.41-6.78q0-6.44,3.38-9.95t9.67-3.52a17.17,17.17,0,0,1,2.74.26,15.67,15.67,0,0,1,2.35.55Zm-23,44.79a4.47,4.47,0,0,0,1.46,3.57,6.23,6.23,0,0,0,4.17,1.24c2.83,0,5-.53,6.38-1.61a5.29,5.29,0,0,0,2.12-4.43,3.79,3.79,0,0,0-1.14-3.13c-.76-.61-2.18-.92-4.27-.92h-4.54a3.71,3.71,0,0,0-3,1.43A6,6,0,0,0,533.57,363.05ZM536.45,331q0,6.92,3.91,6.92t3.79-7q0-7.19-3.79-7.18T536.45,331Z"/><path class="cls-2" d="M595.8,317.45a11,11,0,0,1,3.37.53l-1.09,9.07a7.59,7.59,0,0,0-2.56-.35,5.94,5.94,0,0,0-5.24,2.69q-1.83,2.69-1.83,7.82v20.14H579.1V318.19h7.7l1.05,6.12h.32a14.17,14.17,0,0,1,3.37-5.28A6.34,6.34,0,0,1,595.8,317.45Z"/><path class="cls-2" d="M603,308a5,5,0,0,1,1.35-3.68,5.11,5.11,0,0,1,3.78-1.35,4.69,4.69,0,0,1,5,5,4.84,4.84,0,0,1-1.41,3.71,5.06,5.06,0,0,1-3.62,1.32,5.19,5.19,0,0,1-3.72-1.32A4.84,4.84,0,0,1,603,308Zm9.74,49.39h-9.35V318.19h9.35Z"/><path class="cls-2" d="M649,318.26v5.48l-4.68,1.06a12.52,12.52,0,0,1,1.37,6.19q0,6.21-3.37,9.73t-9.42,3.52a8.72,8.72,0,0,1-2.6-.28,11.48,11.48,0,0,0-1.27,1.33,2.84,2.84,0,0,0-.6,1.83q0,2.46,4.26,2.46h5.66q5,0,7.68,2.69t2.69,8.11q0,6.81-4.57,10.54T631,374.65q-6.51,0-10-2.83a9.76,9.76,0,0,1-3.52-8.07,8.88,8.88,0,0,1,2-5.75,11.27,11.27,0,0,1,5.55-3.6,6.8,6.8,0,0,1-2.93-2.18,5.42,5.42,0,0,1-1.15-3.45,6.2,6.2,0,0,1,.36-2.16,6.84,6.84,0,0,1,1-1.83,19.06,19.06,0,0,1,2.65-2.54,10,10,0,0,1-3.83-4.54,16,16,0,0,1-1.41-6.78q0-6.44,3.38-9.95t9.67-3.52a17.17,17.17,0,0,1,2.74.26,15.67,15.67,0,0,1,2.35.55Zm-23,44.79a4.47,4.47,0,0,0,1.46,3.57,6.23,6.23,0,0,0,4.17,1.24c2.83,0,5-.53,6.38-1.61a5.29,5.29,0,0,0,2.12-4.43,3.79,3.79,0,0,0-1.14-3.13c-.76-.61-2.18-.92-4.27-.92h-4.54a3.72,3.72,0,0,0-3,1.43A6,6,0,0,0,626,363.05ZM628.84,331q0,6.92,3.91,6.92t3.79-7q0-7.19-3.79-7.18T628.84,331Z"/><path class="cls-2" d="M667.3,350.15a10.74,10.74,0,0,0,4.26-1v7.31q-2.28,1.59-6.86,1.59c-3.4,0-5.91-1-7.56-3.05s-2.46-5.06-2.46-9.12V325.61h-3.79v-4.19l4.88-3.37,2.39-8.3h6v8.44h7.1v7.42h-7.1v20.6C664.14,348.83,665.2,350.15,667.3,350.15Z"/><path class="cls-2" d="M676.73,308a5,5,0,0,1,1.35-3.68,5.11,5.11,0,0,1,3.78-1.35,4.69,4.69,0,0,1,5,5,4.84,4.84,0,0,1-1.41,3.71,5.07,5.07,0,0,1-3.62,1.32,5.23,5.23,0,0,1-3.73-1.32A4.87,4.87,0,0,1,676.73,308Zm9.73,49.39h-9.35V318.19h9.35Z"/><path class="cls-2" d="M722.68,318.26v5.48L718,324.8a12.63,12.63,0,0,1,1.37,6.19q0,6.21-3.37,9.73t-9.43,3.52A8.81,8.81,0,0,1,704,344a12.32,12.32,0,0,0-1.26,1.33,2.84,2.84,0,0,0-.6,1.83q0,2.46,4.25,2.46H712q5,0,7.69,2.69t2.68,8.11q0,6.81-4.57,10.54c-3,2.49-7.43,3.73-13.14,3.73q-6.51,0-10-2.83a9.76,9.76,0,0,1-3.52-8.07,8.92,8.92,0,0,1,2-5.75,11.35,11.35,0,0,1,5.56-3.6,6.83,6.83,0,0,1-2.94-2.18,5.47,5.47,0,0,1-1.14-3.45,6.44,6.44,0,0,1,.35-2.16,7.45,7.45,0,0,1,1-1.83,19.31,19.31,0,0,1,2.66-2.54,10,10,0,0,1-3.83-4.54,16,16,0,0,1-1.41-6.78q0-6.44,3.38-9.95t9.66-3.52a17.29,17.29,0,0,1,2.75.26,15.67,15.67,0,0,1,2.35.55Zm-23,44.79a4.44,4.44,0,0,0,1.46,3.57,6.22,6.22,0,0,0,4.16,1.24c2.84,0,5-.53,6.38-1.61a5.27,5.27,0,0,0,2.13-4.43,3.79,3.79,0,0,0-1.14-3.13c-.76-.61-2.19-.92-4.27-.92h-4.54a3.71,3.71,0,0,0-3,1.43A6,6,0,0,0,699.65,363.05ZM702.53,331q0,6.92,3.9,6.92t3.8-7q0-7.19-3.8-7.18T702.53,331Z"/><path class="cls-2" d="M741,350.15a10.82,10.82,0,0,0,4.26-1v7.31c-1.53,1.06-3.81,1.59-6.86,1.59q-5.1,0-7.56-3.05t-2.46-9.12V325.61h-3.8v-4.19l4.89-3.37,2.39-8.3h6v8.44h7.1v7.42h-7.1v20.6C737.83,348.83,738.88,350.15,741,350.15Z"/><path class="cls-2" d="M750.66,352.54a5.9,5.9,0,0,1,1.46-4.26,5.75,5.75,0,0,1,4.34-1.51,5.21,5.21,0,0,1,5.84,5.77,5.72,5.72,0,0,1-1.53,4.25,5.86,5.86,0,0,1-4.31,1.51,5.72,5.72,0,0,1-4.32-1.53A5.82,5.82,0,0,1,750.66,352.54Zm9.7-11.75h-7.7L750.94,306h11.22Z"/><path class="cls-2" d="M281.06,417.56q0,12.72-5.18,19.46T261,443.75H248.37v-51.4h13.74q9,0,14,6.63T281.06,417.56Zm-9.81.28q0-17.22-9.49-17.22h-3.83v34.76H261a8.3,8.3,0,0,0,7.74-4.37Q271.25,426.63,271.25,417.84Z"/><path class="cls-2" d="M302.44,444.46a14.14,14.14,0,0,1-11.59-5.23q-4.23-5.22-4.23-14.78t3.83-15.15a12.32,12.32,0,0,1,10.68-5.45,12.16,12.16,0,0,1,10.09,4.66q3.7,4.65,3.7,13.06v5H296.11q.11,5.24,2.14,7.79a6.82,6.82,0,0,0,5.63,2.55,18.24,18.24,0,0,0,9.35-2.85v7.7A20.6,20.6,0,0,1,302.44,444.46Zm-1.38-33.4a3.83,3.83,0,0,0-3.3,2.12q-1.31,2.13-1.51,6.6h9.49a14.26,14.26,0,0,0-1.3-6.51A3.74,3.74,0,0,0,301.06,411.06Z"/><path class="cls-2" d="M334.71,436.54a10.71,10.71,0,0,0,4.25-1v7.31c-1.52,1.06-3.81,1.59-6.85,1.59q-5.1,0-7.56-3t-2.46-9.12V412h-3.8v-4.19l4.89-3.37,2.39-8.3h6v8.44h7.11V412h-7.11v20.6Q331.54,436.54,334.71,436.54Z"/><path class="cls-2" d="M376.69,444.46a14.14,14.14,0,0,1-11.59-5.23q-4.23-5.22-4.23-14.78t3.83-15.15a12.32,12.32,0,0,1,10.68-5.45,12.16,12.16,0,0,1,10.09,4.66q3.7,4.65,3.7,13.06v5H370.36q.11,5.24,2.14,7.79a6.82,6.82,0,0,0,5.63,2.55,18.24,18.24,0,0,0,9.35-2.85v7.7A20.6,20.6,0,0,1,376.69,444.46Zm-1.38-33.4a3.83,3.83,0,0,0-3.3,2.12q-1.31,2.13-1.51,6.6H380a14.26,14.26,0,0,0-1.3-6.51A3.74,3.74,0,0,0,375.31,411.06Z"/><path class="cls-2" d="M412.05,403.85a11.1,11.1,0,0,1,3.38.53l-1.09,9.07a7.66,7.66,0,0,0-2.57-.35,6,6,0,0,0-5.24,2.69c-1.22,1.79-1.82,4.4-1.82,7.82v20.14h-9.36V404.59h7.7l1.06,6.12h.31a14.3,14.3,0,0,1,3.38-5.28A6.33,6.33,0,0,1,412.05,403.85Z"/><path class="cls-2" d="M451.85,444.46a14.11,14.11,0,0,1-11.58-5.23Q436,434,436,424.45t3.83-15.15a12.35,12.35,0,0,1,10.69-5.45,12.17,12.17,0,0,1,10.09,4.66q3.69,4.65,3.69,13.06v5H445.52q.11,5.24,2.15,7.79a6.8,6.8,0,0,0,5.62,2.55,18.18,18.18,0,0,0,9.35-2.85v7.7A20.6,20.6,0,0,1,451.85,444.46Zm-1.37-33.4a3.83,3.83,0,0,0-3.31,2.12,14.43,14.43,0,0,0-1.51,6.6h9.49a14.13,14.13,0,0,0-1.3-6.51A3.73,3.73,0,0,0,450.48,411.06Z"/><path class="cls-2" d="M484.12,436.54a10.76,10.76,0,0,0,4.26-1v7.31c-1.53,1.06-3.81,1.59-6.86,1.59q-5.1,0-7.56-3t-2.46-9.12V412h-3.79v-4.19l4.88-3.37,2.39-8.3h6v8.44h7.1V412H481v20.6Q481,436.54,484.12,436.54Z"/><path class="cls-2" d="M529.33,403.85q5.35,0,8.41,5.31t3,14.94q0,9.73-3.07,15t-8.53,5.31a9.29,9.29,0,0,1-4.65-1.15,11.35,11.35,0,0,1-3.82-4h-.6l-1.58,4.46h-6.89v-54.7H521v12.8c0,.53,0,1.1,0,1.68s-.18,2.64-.46,6.16H521a12,12,0,0,1,3.73-4.54A8.22,8.22,0,0,1,529.33,403.85Zm-3.23,7.94a4,4,0,0,0-3.85,2.5c-.79,1.67-1.2,4.59-1.25,8.79V424c0,4.55.41,7.75,1.21,9.6a4.1,4.1,0,0,0,4,2.77q5.05,0,5.06-12.44Q531.23,411.8,526.1,411.79Z"/><path class="cls-2" d="M547.05,394.36a5,5,0,0,1,1.36-3.68,5.11,5.11,0,0,1,3.78-1.35,4.69,4.69,0,0,1,5,5,4.87,4.87,0,0,1-1.4,3.71,5.08,5.08,0,0,1-3.62,1.31,5.23,5.23,0,0,1-3.73-1.31A4.84,4.84,0,0,1,547.05,394.36Zm9.74,49.39h-9.35V404.59h9.35Z"/><path class="cls-2" d="M574.16,443.75h-9.35v-54.7h9.35Z"/><path class="cls-2" d="M591.35,443.75H582v-54.7h9.35Z"/><path class="cls-2" d="M613.64,444.46a14.14,14.14,0,0,1-11.59-5.23q-4.23-5.22-4.23-14.78t3.83-15.15a12.35,12.35,0,0,1,10.69-5.45,12.17,12.17,0,0,1,10.09,4.66q3.69,4.65,3.69,13.06v5H607.31q.11,5.24,2.15,7.79a6.78,6.78,0,0,0,5.62,2.55,18.21,18.21,0,0,0,9.35-2.85v7.7A20.6,20.6,0,0,1,613.64,444.46Zm-1.37-33.4a3.83,3.83,0,0,0-3.31,2.12,14.43,14.43,0,0,0-1.51,6.6h9.49a14.13,14.13,0,0,0-1.3-6.51A3.73,3.73,0,0,0,612.27,411.06Z"/><path class="cls-2" d="M642.61,444.46q-5.42,0-8.55-5.35t-3.12-14.87q0-9.56,3-15t8.44-5.41a8,8,0,0,1,4.62,1.32,11.87,11.87,0,0,1,3.61,4.45h.56c-.28-3.57-.42-6.06-.42-7.49V389.05h9.35v54.7h-7l-1.58-5.1h-.32Q648.3,444.46,642.61,444.46Zm3-7.92a4,4,0,0,0,3.8-2.37c.79-1.58,1.23-4.46,1.3-8.63v-1.23c0-4.55-.41-7.75-1.21-9.6a4.12,4.12,0,0,0-4-2.77q-2.61,0-3.78,3.18a27.87,27.87,0,0,0-1.18,9.26q0,6.09,1.19,9.12T645.63,436.54Z"/><path class="cls-2" d="M682.47,444.46a14.12,14.12,0,0,1-11.58-5.23q-4.23-5.22-4.24-14.78t3.84-15.15a12.32,12.32,0,0,1,10.68-5.45,12.16,12.16,0,0,1,10.09,4.66q3.69,4.65,3.7,13.06v5H676.15q.11,5.24,2.14,7.79a6.82,6.82,0,0,0,5.63,2.55,18.24,18.24,0,0,0,9.35-2.85v7.7A20.61,20.61,0,0,1,682.47,444.46Zm-1.37-33.4a3.83,3.83,0,0,0-3.3,2.12q-1.31,2.13-1.51,6.6h9.49a14.26,14.26,0,0,0-1.3-6.51A3.74,3.74,0,0,0,681.1,411.06Z"/><path class="cls-2" d="M234.53,530.15V506.81q0-8.61-4.25-8.61a4.55,4.55,0,0,0-4.43,3.07q-1.33,3.08-1.34,9.86v19h-9.42V506.81q0-8.61-4.32-8.61a4.58,4.58,0,0,0-4.4,3.05c-.91,2-1.37,5.41-1.37,10.09v18.81h-9.35V491h7.42l1.12,5h.6a9.42,9.42,0,0,1,3.85-4.38,10.36,10.36,0,0,1,5.22-1.39q7.17,0,9.56,6.79h.35c2-4.53,5.19-6.79,9.6-6.79a9.17,9.17,0,0,1,7.89,3.66c1.8,2.43,2.69,6,2.69,10.68v25.56Z"/><path class="cls-2" d="M266,530.86a14.08,14.08,0,0,1-11.58-5.23q-4.24-5.22-4.24-14.78T254,495.7a12.35,12.35,0,0,1,10.69-5.45,12.16,12.16,0,0,1,10.09,4.66q3.69,4.65,3.69,13.06v5H259.63q.11,5.24,2.15,7.79a6.8,6.8,0,0,0,5.62,2.55,18.18,18.18,0,0,0,9.35-2.85v7.7A20.58,20.58,0,0,1,266,530.86Zm-1.37-33.4a3.8,3.8,0,0,0-3.3,2.12,14.29,14.29,0,0,0-1.52,6.6h9.5a14.12,14.12,0,0,0-1.31-6.51A3.75,3.75,0,0,0,264.59,497.46Z"/><path class="cls-2" d="M294,530.15h-9.35v-54.7H294Z"/><path class="cls-2" d="M311.17,530.15h-9.35v-54.7h9.35Z"/><path class="cls-2" d="M333.46,530.86a14.08,14.08,0,0,1-11.58-5.23q-4.25-5.22-4.24-14.78t3.83-15.15a12.35,12.35,0,0,1,10.69-5.45,12.16,12.16,0,0,1,10.09,4.66q3.69,4.65,3.69,13.06v5H327.13q.11,5.24,2.15,7.79a6.8,6.8,0,0,0,5.62,2.55,18.18,18.18,0,0,0,9.35-2.85v7.7A20.58,20.58,0,0,1,333.46,530.86Zm-1.37-33.4a3.8,3.8,0,0,0-3.3,2.12,14.29,14.29,0,0,0-1.52,6.6h9.5a14.12,14.12,0,0,0-1.31-6.51A3.75,3.75,0,0,0,332.09,497.46Z"/><path class="cls-2" d="M391,530.15V506.81q0-8.61-4.25-8.61a4.56,4.56,0,0,0-4.43,3.07q-1.33,3.08-1.34,9.86v19h-9.42V506.81q0-8.61-4.32-8.61a4.58,4.58,0,0,0-4.4,3.05c-.91,2-1.37,5.41-1.37,10.09v18.81h-9.35V491h7.42l1.12,5h.6a9.42,9.42,0,0,1,3.85-4.38,10.36,10.36,0,0,1,5.22-1.39q7.17,0,9.56,6.79h.35q3-6.8,9.6-6.79a9.17,9.17,0,0,1,7.89,3.66c1.8,2.43,2.69,6,2.69,10.68v25.56Z"/><path class="cls-2" d="M436.08,530.86q-5.41,0-8.54-5.35t-3.13-14.87q0-9.56,3.06-15t8.44-5.41a8,8,0,0,1,4.62,1.32,12,12,0,0,1,3.6,4.45h.57c-.29-3.57-.43-6.06-.43-7.49V475.45h9.35v54.7h-7l-1.58-5.1h-.31Q441.77,530.86,436.08,530.86Zm3-7.91a4,4,0,0,0,3.79-2.38q1.2-2.37,1.3-8.63v-1.23q0-6.82-1.21-9.6a4.12,4.12,0,0,0-4-2.77q-2.6,0-3.78,3.18a28.13,28.13,0,0,0-1.18,9.26q0,6.09,1.2,9.12C436,521.93,437.32,523,439.11,523Z"/><path class="cls-2" d="M461.18,480.76a5,5,0,0,1,1.36-3.68,5.11,5.11,0,0,1,3.78-1.35,4.69,4.69,0,0,1,5,5,4.83,4.83,0,0,1-1.4,3.71,5.09,5.09,0,0,1-3.62,1.32,5.23,5.23,0,0,1-3.73-1.32A4.84,4.84,0,0,1,461.18,480.76Zm9.74,49.39h-9.35V491h9.35Z"/><path class="cls-2" d="M507.13,491.06v5.48l-4.67,1.06a12.63,12.63,0,0,1,1.37,6.19q0,6.21-3.38,9.73T491,517a8.76,8.76,0,0,1-2.6-.28,11.48,11.48,0,0,0-1.27,1.33,2.89,2.89,0,0,0-.59,1.83c0,1.64,1.41,2.46,4.25,2.46h5.66q5,0,7.68,2.69c1.8,1.8,2.69,4.5,2.69,8.11q0,6.81-4.57,10.54t-13.15,3.73q-6.5,0-10-2.83a9.78,9.78,0,0,1-3.51-8.07,8.92,8.92,0,0,1,2-5.75,11.35,11.35,0,0,1,5.56-3.6,6.77,6.77,0,0,1-2.94-2.18,5.47,5.47,0,0,1-1.14-3.45,6.44,6.44,0,0,1,.35-2.16,7.13,7.13,0,0,1,1-1.83,19.31,19.31,0,0,1,2.66-2.54,10,10,0,0,1-3.84-4.54,16.17,16.17,0,0,1-1.4-6.79q0-6.42,3.37-9.94t9.67-3.52a17.07,17.07,0,0,1,2.74.26,15.86,15.86,0,0,1,2.36.55Zm-23,44.79a4.46,4.46,0,0,0,1.45,3.57,6.27,6.27,0,0,0,4.17,1.24c2.84,0,5-.54,6.38-1.61a5.27,5.27,0,0,0,2.13-4.43,3.79,3.79,0,0,0-1.14-3.13c-.77-.61-2.19-.92-4.28-.92h-4.53a3.7,3.7,0,0,0-3,1.43A6,6,0,0,0,484.11,535.85ZM487,503.79q0,6.91,3.9,6.92t3.8-7q0-7.17-3.8-7.17T487,503.79Z"/><path class="cls-2" d="M558.64,510.5q0,9.63-4.08,15a14.21,14.21,0,0,1-19.13,2.9,15.68,15.68,0,0,1-5.31-7.08,28.85,28.85,0,0,1-1.86-10.81q0-9.53,4-14.89a13.28,13.28,0,0,1,11.22-5.36,13,13,0,0,1,11,5.47Q558.64,501.18,558.64,510.5Zm-20.82,0q0,6.12,1.34,9.25c.89,2.08,2.32,3.13,4.29,3.13q5.63,0,5.62-12.38c0-4.1-.45-7.17-1.35-9.19a4.53,4.53,0,0,0-8.56,0C538.27,503.33,537.82,506.4,537.82,510.5Z"/><path class="cls-2" d="M593.41,491.06v5.48l-4.68,1.06a12.63,12.63,0,0,1,1.37,6.19q0,6.21-3.37,9.73T577.3,517a8.81,8.81,0,0,1-2.6-.28,12.32,12.32,0,0,0-1.26,1.33,2.84,2.84,0,0,0-.6,1.83q0,2.46,4.25,2.46h5.66q5,0,7.69,2.69t2.68,8.11q0,6.81-4.57,10.54c-3,2.49-7.43,3.73-13.14,3.73q-6.51,0-10-2.83a9.76,9.76,0,0,1-3.52-8.07,8.88,8.88,0,0,1,2-5.75,11.27,11.27,0,0,1,5.55-3.6,6.83,6.83,0,0,1-2.94-2.18,5.47,5.47,0,0,1-1.14-3.45,6.44,6.44,0,0,1,.35-2.16,7.17,7.17,0,0,1,1-1.83,18.49,18.49,0,0,1,2.65-2.54,10,10,0,0,1-3.83-4.54,16,16,0,0,1-1.41-6.79q0-6.42,3.38-9.94t9.66-3.52a17.18,17.18,0,0,1,2.75.26,15.67,15.67,0,0,1,2.35.55Zm-23,44.79a4.47,4.47,0,0,0,1.46,3.57,6.22,6.22,0,0,0,4.16,1.24q4.26,0,6.38-1.61a5.27,5.27,0,0,0,2.13-4.43,3.79,3.79,0,0,0-1.14-3.13c-.76-.61-2.19-.92-4.27-.92h-4.54a3.71,3.71,0,0,0-3,1.43A6,6,0,0,0,570.38,535.85Zm2.88-32.06q0,6.91,3.9,6.92c2.54,0,3.8-2.33,3.8-7s-1.26-7.17-3.8-7.17S573.26,499,573.26,503.79Z"/><path class="cls-2" d="M639.88,516q0,7.21-3.64,11t-10.49,3.84a23.05,23.05,0,0,1-11.43-2.64v-9.46q5.77,3.76,10.59,3.76A5.34,5.34,0,0,0,629,521a5.88,5.88,0,0,0,1.39-4.11,7.41,7.41,0,0,0-1.66-4.69,24.16,24.16,0,0,0-5.45-4.73,24.79,24.79,0,0,1-5-4.38,15.88,15.88,0,0,1-2.63-4.69,18,18,0,0,1-.93-6.05q0-6.62,3.67-10.48a13,13,0,0,1,9.86-3.86,21.64,21.64,0,0,1,11.36,3.3L636.47,489a29.72,29.72,0,0,0-3.53-1.75,10.06,10.06,0,0,0-4-.78,4.33,4.33,0,0,0-3.56,1.53,6.36,6.36,0,0,0-1.25,4.17,7.23,7.23,0,0,0,1.49,4.53,22.27,22.27,0,0,0,5.22,4.4,21.75,21.75,0,0,1,7,6.89A16,16,0,0,1,639.88,516Z"/><path class="cls-2" d="M674.65,510.5q0,9.63-4.08,15a14.19,14.19,0,0,1-19.12,2.9,15.54,15.54,0,0,1-5.31-7.08,28.85,28.85,0,0,1-1.86-10.81q0-9.53,4-14.89a13.27,13.27,0,0,1,11.22-5.36,13.06,13.06,0,0,1,11,5.47Q674.66,501.18,674.65,510.5Zm-20.81,0q0,6.12,1.34,9.25c.89,2.08,2.32,3.13,4.28,3.13q5.63,0,5.63-12.38c0-4.1-.45-7.17-1.35-9.19a4.53,4.53,0,0,0-8.56,0C654.29,503.33,653.84,506.4,653.84,510.5Z"/><path class="cls-2" d="M698.63,498.41h-6.47v31.74h-9.35V498.41h-4.54v-4.68l4.54-2.81v-3q0-6.52,2.71-9.72c1.8-2.12,4.71-3.18,8.71-3.18a16.06,16.06,0,0,1,7.07,1.58l-2.46,7.14a8.24,8.24,0,0,0-3.59-.84,2.52,2.52,0,0,0-2.35,1.26,8.05,8.05,0,0,0-.74,3.91V491h6.47Zm3.8-17.65a5,5,0,0,1,1.35-3.68,5.11,5.11,0,0,1,3.78-1.35,4.7,4.7,0,0,1,5,5,4.84,4.84,0,0,1-1.41,3.71,5.07,5.07,0,0,1-3.62,1.32,5.23,5.23,0,0,1-3.73-1.32A4.83,4.83,0,0,1,702.43,480.76Zm9.73,49.39h-9.35V491h9.35Z"/><path class="cls-2" d="M734.63,530.86A14.11,14.11,0,0,1,723,525.63q-4.23-5.22-4.23-14.78t3.83-15.15a12.35,12.35,0,0,1,10.69-5.45,12.17,12.17,0,0,1,10.09,4.66q3.69,4.65,3.69,13.06v5H728.3q.11,5.24,2.15,7.79a6.78,6.78,0,0,0,5.62,2.55,18.21,18.21,0,0,0,9.35-2.85v7.7A20.6,20.6,0,0,1,734.63,530.86Zm-1.37-33.4a3.83,3.83,0,0,0-3.31,2.12,14.43,14.43,0,0,0-1.51,6.6h9.49a14.13,14.13,0,0,0-1.3-6.51A3.75,3.75,0,0,0,733.26,497.46Z"/></svg>
