<svg id="Layer_1" data-name="Layer 1" xmlns="http://www.w3.org/2000/svg" width="351" height="186" viewBox="0 0 351 186"><defs><style>.cls-1{fill:#e6e6e6;}.cls-2{fill:#5db3d8;}.cls-3{fill:#0071bc;}</style></defs><title>viskelæder</title><path class="cls-1" d="M292,62c0-11.6,52.81-39,2-39S153,39.4,153,51s43.19,16,94,16S292,73.6,292,62Z"/><polygon class="cls-2" points="298 51 153 51 19 117 199 117 298 51"/><polygon class="cls-2" points="294 91 197 159 197 115 298 51 294 91"/><path class="cls-3" d="M200.21,111.5c-.7-1.19.21-3.6,3.66-5.62,47.92-28,91.1-56.18,91.65-51.29.15,1.37-20.44,14.27-46.9,29.75S200.91,112.69,200.21,111.5Z"/><rect class="cls-1" x="15" y="113" width="188" height="48" rx="12"/><path class="cls-1" d="M312,82l12-10c2-3-1-11.4-1-18l-2-22c0-6.6-7.4-9-14-9h0a12,12,0,0,0-12,12l-1,54C294,95.6,305,85,312,82Z"/></svg>
