<svg xmlns="http://www.w3.org/2000/svg" width="117.52mm" height="82.92mm" viewBox="0 0 333.12 235.05"><defs><style>.cls-1,.cls-2,.cls-4{fill:#e53937;stroke:#e53937;}.cls-1,.cls-2,.cls-3,.cls-4,.cls-5,.cls-6,.cls-7{stroke-linecap:round;stroke-linejoin:round;}.cls-1{stroke-width:10px;}.cls-2{stroke-width:7px;}.cls-3,.cls-5{fill:#ffbba1;stroke:#ffbba1;}.cls-3{stroke-width:6px;}.cls-4,.cls-5{stroke-width:3px;}.cls-6,.cls-7{fill:#fff;stroke:#fff;}.cls-6{stroke-width:4px;}</style></defs><title>volume</title><g id="Layer_2" data-name="Layer 2"><rect class="cls-1" x="32.75" y="77.22" width="47.82" height="81.3"/><polygon class="cls-2" points="80.57 57.74 80.57 170.73 131.99 215.17 131.99 20.58 80.57 57.74"/><rect class="cls-3" x="38.53" y="83.05" width="42.63" height="71.72"/><polygon class="cls-3" points="81.16 65.86 81.16 165.53 127 204.74 127 33.08 81.16 65.86"/><path class="cls-4" d="M296.6,117.87c0,56.82-28.44,102.88-63.52,102.88a40.16,40.16,0,0,1-11.35-1.65c33.27-3.23,59.64-48,59.64-102.66,0-50.53-22.5-92.56-52.17-101.23a35.75,35.75,0,0,1,3.88-.21C268.16,15,296.6,61.05,296.6,117.87Z"/><path class="cls-4" d="M249.68,117.87c0,42.43-21.24,76.82-47.43,76.82a30.24,30.24,0,0,1-8.48-1.22c24.85-2.41,44.54-35.82,44.54-76.67,0-37.73-16.8-69.12-39-75.59a27.87,27.87,0,0,1,2.9-.16C228.44,41.05,249.68,75.44,249.68,117.87Z"/><path class="cls-4" d="M203.68,118.92c0,31.38-15.71,56.81-35.08,56.81a22.42,22.42,0,0,1-6.27-.9c18.37-1.79,32.93-26.49,32.93-56.7,0-27.9-12.42-51.11-28.8-55.9a19.05,19.05,0,0,1,2.14-.12C188,62.11,203.68,87.54,203.68,118.92Z"/><path class="cls-5" d="M281.35,117.88c0,56.3-25.21,101.94-56.31,101.94A32.44,32.44,0,0,1,215,218.2c29.5-3.2,52.87-47.54,52.87-101.75,0-50.07-19.94-91.73-46.24-100.32a30.21,30.21,0,0,1,3.43-.2C256.14,15.93,281.35,61.56,281.35,117.88Z"/><path class="cls-5" d="M239.76,117.88c0,42-18.82,76.13-42,76.13a24,24,0,0,1-7.51-1.22c22-2.39,39.48-35.5,39.48-76,0-37.39-14.89-68.5-34.53-74.91a21.85,21.85,0,0,1,2.56-.15C220.94,41.75,239.76,75.82,239.76,117.88Z"/><path class="cls-5" d="M199,118.92c0,31.09-13.92,56.3-31.1,56.3a17.77,17.77,0,0,1-5.55-.9c16.29-1.77,29.19-26.25,29.19-56.19,0-27.65-11-50.66-25.53-55.4a17.11,17.11,0,0,1,1.89-.11C185.06,62.62,199,87.82,199,118.92Z"/><rect class="cls-6" x="116.17" y="47.82" width="6.16" height="142.18"/><rect class="cls-7" x="107.69" y="56.2" width="3.93" height="99.91"/></g></svg>
